<svg width="64" height="64" version="1.1" xmlns="http://www.w3.org/2000/svg">
<path d="m11.529 47.672c-0.53589-0.05322-1.0718-0.6331-1.0718-1.1598v-39.632c0-0.52667 0.53589-1.0001 1.0718-0.94691l34.564 3.4323c0.53589 0.053215 1.0718 0.6331 1.0718 1.1598v16.195c0 0.75168 0.48375 1.539 1.224 1.7857l4.2134 1.404c0.64655 0.21543 0.9378 0.69644 0.9378 1.6732v19.013c0 0.52667-0.53589 1.0001-1.0718 0.94689z" color="#000000" fill="#b9b9b9" stroke="#b9b9b9" stroke-linecap="round" stroke-linejoin="round" stroke-width="1.2672"/>
<path d="m10.996 6.2577c-0.26909 0.1296-0.53815 0.38882-0.53815 0.77764v41.733c0 0.25923 0.16071 0.65298 0.33637 0.88729 0.49821 0.66456 0.77923 0.8205 1.2387 1.1186 4.7279 3.0673 16.894 7.2736 16.894 7.2736 0.26907 0.1296 0.53814-0.1296 0.53814-0.51842v-43.758c0-0.38882-12.862-2.0748-16.907-6.0931l-1.5621-1.5514z" color="#000000" display="block" fill="#6194cb" stroke="#6194cb" stroke-linejoin="round" stroke-width="1.2672"/>
</svg>
