<svg width="64" height="64" version="1.1" xmlns="http://www.w3.org/2000/svg">
<defs>
<filter id="filter965" color-interpolation-filters="sRGB">
<feFlood flood-color="rgb(0,0,0)" flood-opacity=".2" result="flood"/>
<feComposite in="flood" in2="SourceGraphic" operator="in" result="composite1"/>
<feGaussianBlur in="composite1" result="blur"/>
<feOffset dx="0" dy="1" result="offset"/>
<feComposite in="SourceGraphic" in2="offset" result="fbSourceGraphic"/>
<feColorMatrix in="fbSourceGraphic" result="fbSourceGraphicAlpha" values="0 0 0 -1 0 0 0 0 -1 0 0 0 0 -1 0 0 0 0 1 0"/>
<feFlood flood-color="rgb(255,255,255)" flood-opacity=".10196" in="fbSourceGraphic" result="flood"/>
<feComposite in="flood" in2="fbSourceGraphic" operator="out" result="composite1"/>
<feGaussianBlur in="composite1" result="blur"/>
<feOffset dx="0" dy="1" result="offset"/>
<feComposite in="offset" in2="fbSourceGraphic" operator="atop" result="composite2"/>
</filter>
<filter id="filter989" color-interpolation-filters="sRGB">
<feFlood flood-color="rgb(255,255,255)" flood-opacity=".10196" result="flood"/>
<feComposite in="flood" in2="SourceGraphic" operator="out" result="composite1"/>
<feGaussianBlur in="composite1" result="blur"/>
<feOffset dx="0" dy="1" result="offset"/>
<feComposite in="offset" in2="SourceGraphic" operator="atop" result="fbSourceGraphic"/>
<feColorMatrix in="fbSourceGraphic" result="fbSourceGraphicAlpha" values="0 0 0 -1 0 0 0 0 -1 0 0 0 0 -1 0 0 0 0 1 0"/>
<feFlood flood-color="rgb(0,0,0)" flood-opacity=".2" in="fbSourceGraphic" result="flood"/>
<feComposite in="flood" in2="fbSourceGraphic" operator="in" result="composite1"/>
<feGaussianBlur in="composite1" result="blur"/>
<feOffset dx="0" dy="1" result="offset"/>
<feComposite in="fbSourceGraphic" in2="offset" result="composite2"/>
</filter>
</defs>
<path d="m11.68 49.486c-0.52438-0.027654-1.0488-0.58341-1.0488-1.1115v-39.742c0-0.52811 0.52438-1.0286 1.0488-1.0009l34.64 1.1879c0.52438 0.027653 1.0488 0.58341 1.0488 1.1115v16.836c0 0.61532 0.39751 1.566 1.3938 1.778l3.2991 0.7756c0.92665 0.19722 1.3072 1.1191 1.3072 1.6474v18.747c0 0.52812-0.52438 1.0286-1.0488 1.0009z" fill="#b9b9b9" filter="url(#filter989)" stroke="#b9b9b9" stroke-linecap="round" stroke-linejoin="round" stroke-width="1.2621"/>
<path d="m10.642 51.686c0.0563 1.4392 1.4006 2.4699 2.9652 2.5756 14.754 0.99622 27.123 2.0877 27.123 2.0877 0.31618 0.09077 0.63235-0.21126 0.63235-0.6041v-43.245l-27.937-2.328c-1.2547-0.14412-2.3056-0.58632-2.7897-1.9499z" color="#000000" display="block" fill="#6194cb" filter="url(#filter965)" stroke="#6194cb" stroke-linejoin="round" stroke-width="1.2736"/>
<path d="m19.644 23.856c-0.08827-0.0072-0.17302 0.0016-0.25 0.0272-0.23094 0.0767-0.39454 0.28862-0.39454 0.54708v10.387a1.0358 0.96651 46.436 0 1 0.73437-0.91875 1.0358 0.96651 46.436 0 1 0.26562-0.0142 1.0358 0.96651 46.436 0 1 0.99999 1.067 1.0358 0.96651 46.436 0 1-0.99999 0.93301 1.0358 0.96651 46.436 0 1-0.99999-1.067v4.3204c0 0.34458 0.2914 0.65078 0.64454 0.67964l6.1524 0.50368a1.0358 0.96651 46.436 0 1-0.79687-1.0315 1.0358 0.96651 46.436 0 1 0.73437-0.91875 1.0358 0.96651 46.436 0 1 0.26562-0.0142 1.0358 0.96651 46.436 0 1 0.99999 1.067 1.0358 0.96651 46.436 0 1-0.81249 0.92823l6.168 0.50496c0.35316 0.02882 0.64454-0.22968 0.64454-0.57428v-4.3868a1.0358 0.96651 46.436 0 1-0.99999 0.93301 1.0358 0.96651 46.436 0 1-0.99999-1.067 1.0358 0.96651 46.436 0 1 0.73438-0.91875 1.0358 0.96651 46.436 0 1 0.26562-0.0142 1.0358 0.96651 46.436 0 1 0.99999 1.067v-10.32c0-0.3446-0.2914-0.65078-0.64454-0.67964zm6.5429 16.495-0.38672-0.03044a1.0358 0.96651 46.436 0 0 0.19922 0.03522 1.0358 0.96651 46.436 0 0 0.1875-0.0048zm-0.1875-13.995a1.0358 0.96651 46.436 0 1 0.99999 1.067 1.0358 0.96651 46.436 0 1-0.99999 0.93301 1.0358 0.96651 46.436 0 1-0.99999-1.067 1.0358 0.96651 46.436 0 1 0.73437-0.91875 1.0358 0.96651 46.436 0 1 0.26562-0.0142zm-4 3.6852a1.0358 0.96651 46.436 0 1 0.99999 1.067 1.0358 0.96651 46.436 0 1-0.99999 0.93301 1.0358 0.96651 46.436 0 1-0.99999-1.067 1.0358 0.96651 46.436 0 1 0.73437-0.91875 1.0358 0.96651 46.436 0 1 0.26562-0.0142zm4 0.3148a1.0358 0.96651 46.436 0 1 0.99999 1.067 1.0358 0.96651 46.436 0 1-0.99999 0.93301 1.0358 0.96651 46.436 0 1-0.99999-1.067 1.0358 0.96651 46.436 0 1 0.73437-0.91875 1.0358 0.96651 46.436 0 1 0.26562-0.0142zm4 0.3148a1.0358 0.96651 46.436 0 1 0.99999 1.067 1.0358 0.96651 46.436 0 1-0.99999 0.93301 1.0358 0.96651 46.436 0 1-0.99999-1.067 1.0358 0.96651 46.436 0 1 0.73437-0.91875 1.0358 0.96651 46.436 0 1 0.26562-0.0142zm-4 3.6852a1.0358 0.96651 46.436 0 1 0.99999 1.067 1.0358 0.96651 46.436 0 1-0.99999 0.93301 1.0358 0.96651 46.436 0 1-0.99999-1.067 1.0358 0.96651 46.436 0 1 0.73437-0.91875 1.0358 0.96651 46.436 0 1 0.26562-0.0142z" color="#000000" color-rendering="auto" display="block" dominant-baseline="auto" fill="#fff" image-rendering="auto" opacity=".75" shape-rendering="auto" solid-color="#000000" stroke-width="1.1525" style="font-feature-settings:normal;font-variant-alternates:normal;font-variant-caps:normal;font-variant-ligatures:normal;font-variant-numeric:normal;font-variant-position:normal;isolation:auto;mix-blend-mode:normal;shape-padding:0;text-decoration-color:#000000;text-decoration-line:none;text-decoration-style:solid;text-indent:0;text-orientation:mixed;text-transform:none;white-space:normal"/>
</svg>
