<svg width="64" height="64" version="1.1" xmlns="http://www.w3.org/2000/svg">
<defs>
<filter id="filter965" color-interpolation-filters="sRGB">
<feFlood flood-color="rgb(0,0,0)" flood-opacity=".2" result="flood"/>
<feComposite in="flood" in2="SourceGraphic" operator="in" result="composite1"/>
<feGaussianBlur in="composite1" result="blur"/>
<feOffset dx="0" dy="1" result="offset"/>
<feComposite in="SourceGraphic" in2="offset" result="fbSourceGraphic"/>
<feColorMatrix in="fbSourceGraphic" result="fbSourceGraphicAlpha" values="0 0 0 -1 0 0 0 0 -1 0 0 0 0 -1 0 0 0 0 1 0"/>
<feFlood flood-color="rgb(255,255,255)" flood-opacity=".10196" in="fbSourceGraphic" result="flood"/>
<feComposite in="flood" in2="fbSourceGraphic" operator="out" result="composite1"/>
<feGaussianBlur in="composite1" result="blur"/>
<feOffset dx="0" dy="1" result="offset"/>
<feComposite in="offset" in2="fbSourceGraphic" operator="atop" result="composite2"/>
</filter>
<filter id="filter989" color-interpolation-filters="sRGB">
<feFlood flood-color="rgb(255,255,255)" flood-opacity=".10196" result="flood"/>
<feComposite in="flood" in2="SourceGraphic" operator="out" result="composite1"/>
<feGaussianBlur in="composite1" result="blur"/>
<feOffset dx="0" dy="1" result="offset"/>
<feComposite in="offset" in2="SourceGraphic" operator="atop" result="fbSourceGraphic"/>
<feColorMatrix in="fbSourceGraphic" result="fbSourceGraphicAlpha" values="0 0 0 -1 0 0 0 0 -1 0 0 0 0 -1 0 0 0 0 1 0"/>
<feFlood flood-color="rgb(0,0,0)" flood-opacity=".2" in="fbSourceGraphic" result="flood"/>
<feComposite in="flood" in2="fbSourceGraphic" operator="in" result="composite1"/>
<feGaussianBlur in="composite1" result="blur"/>
<feOffset dx="0" dy="1" result="offset"/>
<feComposite in="fbSourceGraphic" in2="offset" result="composite2"/>
</filter>
</defs>
<path d="m11.68 49.486c-0.52438-0.027654-1.0488-0.58341-1.0488-1.1115v-39.742c0-0.52811 0.52438-1.0286 1.0488-1.0009l34.64 1.1879c0.52438 0.027653 1.0488 0.58341 1.0488 1.1115v16.836c0 0.61532 0.39751 1.566 1.3938 1.778l3.2991 0.7756c0.92665 0.19722 1.3072 1.1191 1.3072 1.6474v18.747c0 0.52812-0.52438 1.0286-1.0488 1.0009z" fill="#b9b9b9" filter="url(#filter989)" stroke="#b9b9b9" stroke-linecap="round" stroke-linejoin="round" stroke-width="1.2621"/>
<path d="m10.642 51.686c0.0563 1.4392 1.4006 2.4699 2.9652 2.5756 14.754 0.99622 27.123 2.0877 27.123 2.0877 0.31618 0.09077 0.63235-0.21126 0.63235-0.6041v-43.245l-27.937-2.328c-1.2547-0.14412-2.3056-0.58632-2.7897-1.9499z" color="#000000" display="block" fill="#6194cb" filter="url(#filter965)" stroke="#6194cb" stroke-linejoin="round" stroke-width="1.2736"/>
<path d="m32.372 23.813c-3.9467-0.34529-4.6894 4.9231-2.4666 5.1175 2.2187 0.19411 6.4161-4.772 2.4666-5.1175zm-6.0654 0.80268c-0.06267-0.0054-0.132-0.0049-0.20134-0.0043-2.26 0.07428-1.4667 3.7904-0.26266 3.9637 1.164 0.1685 2.4387-3.776 0.46533-3.9594zm-4.12 0.97289c-0.16133-0.02079-0.34133-0.0152-0.54 0.01809-2.1146 0.34966-0.32133 2.7146 0.86266 2.6688 1.0747-0.04064 1.2307-2.4883-0.32267-2.6869zm-2.948 2.4088c-0.18934-0.01922-0.39467 0.0042-0.612 0.08645-1.7386 0.66923 0.58667 2.854 1.6094 2.6368 0.89467-0.19107 0.324-2.577-0.99734-2.7232zm8.1093 2.0428c-3.112-0.3216-7.216 0.78868-7.9173 3.6793-0.75733 3.1297 3.124 7.9013 7.1694 8.2552 1.9907 0.17416 4.2867-0.51962 4.716-2.6262 0.32667-1.6062-4.1214-1.2912-3.9707-0.19672 0.18 1.3131-0.75067 1.025-1.9173 0.08692-3.4267-2.9998 6.1467-3.4503 5.4973-7.1431-0.20134-1.1496-1.7107-1.8603-3.5774-2.0529z" fill="#fff" opacity=".75" stroke-width="1.3334"/>
</svg>
