<svg width="64" height="64" version="1.1" xmlns="http://www.w3.org/2000/svg">
<defs>
<filter id="filter965" color-interpolation-filters="sRGB">
<feFlood flood-color="rgb(0,0,0)" flood-opacity=".2" result="flood"/>
<feComposite in="flood" in2="SourceGraphic" operator="in" result="composite1"/>
<feGaussianBlur in="composite1" result="blur"/>
<feOffset dx="0" dy="1" result="offset"/>
<feComposite in="SourceGraphic" in2="offset" result="fbSourceGraphic"/>
<feColorMatrix in="fbSourceGraphic" result="fbSourceGraphicAlpha" values="0 0 0 -1 0 0 0 0 -1 0 0 0 0 -1 0 0 0 0 1 0"/>
<feFlood flood-color="rgb(255,255,255)" flood-opacity=".10196" in="fbSourceGraphic" result="flood"/>
<feComposite in="flood" in2="fbSourceGraphic" operator="out" result="composite1"/>
<feGaussianBlur in="composite1" result="blur"/>
<feOffset dx="0" dy="1" result="offset"/>
<feComposite in="offset" in2="fbSourceGraphic" operator="atop" result="composite2"/>
</filter>
<filter id="filter989" color-interpolation-filters="sRGB">
<feFlood flood-color="rgb(255,255,255)" flood-opacity=".10196" result="flood"/>
<feComposite in="flood" in2="SourceGraphic" operator="out" result="composite1"/>
<feGaussianBlur in="composite1" result="blur"/>
<feOffset dx="0" dy="1" result="offset"/>
<feComposite in="offset" in2="SourceGraphic" operator="atop" result="fbSourceGraphic"/>
<feColorMatrix in="fbSourceGraphic" result="fbSourceGraphicAlpha" values="0 0 0 -1 0 0 0 0 -1 0 0 0 0 -1 0 0 0 0 1 0"/>
<feFlood flood-color="rgb(0,0,0)" flood-opacity=".2" in="fbSourceGraphic" result="flood"/>
<feComposite in="flood" in2="fbSourceGraphic" operator="in" result="composite1"/>
<feGaussianBlur in="composite1" result="blur"/>
<feOffset dx="0" dy="1" result="offset"/>
<feComposite in="fbSourceGraphic" in2="offset" result="composite2"/>
</filter>
</defs>
<path d="m11.68 49.486c-0.52438-0.027654-1.0488-0.58341-1.0488-1.1115v-39.742c0-0.52811 0.52438-1.0286 1.0488-1.0009l34.64 1.1879c0.52438 0.027653 1.0488 0.58341 1.0488 1.1115v16.836c0 0.61532 0.39751 1.566 1.3938 1.778l3.2991 0.7756c0.92665 0.19722 1.3072 1.1191 1.3072 1.6474v18.747c0 0.52812-0.52438 1.0286-1.0488 1.0009z" fill="#b9b9b9" filter="url(#filter989)" stroke="#b9b9b9" stroke-linecap="round" stroke-linejoin="round" stroke-width="1.2621"/>
<path d="m10.642 51.686c0.0563 1.4392 1.4006 2.4699 2.9652 2.5756 14.754 0.99622 27.123 2.0877 27.123 2.0877 0.31618 0.09077 0.63235-0.21126 0.63235-0.6041v-43.245l-27.937-2.328c-1.2547-0.14412-2.3056-0.58632-2.7897-1.9499z" color="#000000" display="block" fill="#6194cb" filter="url(#filter965)" stroke="#6194cb" stroke-linejoin="round" stroke-width="1.2736"/>
<path d="m25.286 21.967c-5.1285-0.44868-9.2857 3.345-9.2857 8.4733 0 5.1285 4.1575 9.6494 9.2857 10.098l16.714 1.4623v-1.8571l-16.714-1.4623c-4.1027-0.35895-7.4286-3.9757-7.4286-8.0785s3.3259-7.1376 7.4286-6.7787zm0 2.7856c-3.59-0.31407-6.5001 2.3414-6.5001 5.9313s2.9101 6.7546 6.5001 7.0687l16.714 1.4623v-1.8571l-16.714-1.4623c-2.5642-0.22434-4.643-2.4849-4.643-5.0491s2.0787-4.461 4.643-4.2367c0.6393 0.05666 1.2715 0.24472 1.8571 0.55241v-1.9696c-0.60235-0.23459-1.2279-0.3828-1.8571-0.43997zm0 2.7856c-2.0514-0.17947-3.7144 1.338-3.7144 3.3894s1.6629 3.8599 3.7144 4.0392l16.714 1.4623v-1.8571l-16.714-1.4623c-1.0257-0.08974-1.8571-0.99398-1.8571-2.0197 0-1.0257 0.83148-1.7845 1.8571-1.6946 0.66232 0.05913 1.2739 0.46644 1.605 1.069l1.986 0.17374c-0.42293-1.675-1.8993-2.9495-3.591-3.0999z" fill="#fff" opacity=".75" stroke-width=".92857"/>
</svg>
