<svg width="64" height="64" version="1.1" xmlns="http://www.w3.org/2000/svg">
<defs>
<filter id="filter965" color-interpolation-filters="sRGB">
<feFlood flood-color="rgb(0,0,0)" flood-opacity=".2" result="flood"/>
<feComposite in="flood" in2="SourceGraphic" operator="in" result="composite1"/>
<feGaussianBlur in="composite1" result="blur"/>
<feOffset dx="0" dy="1" result="offset"/>
<feComposite in="SourceGraphic" in2="offset" result="fbSourceGraphic"/>
<feColorMatrix in="fbSourceGraphic" result="fbSourceGraphicAlpha" values="0 0 0 -1 0 0 0 0 -1 0 0 0 0 -1 0 0 0 0 1 0"/>
<feFlood flood-color="rgb(255,255,255)" flood-opacity=".10196" in="fbSourceGraphic" result="flood"/>
<feComposite in="flood" in2="fbSourceGraphic" operator="out" result="composite1"/>
<feGaussianBlur in="composite1" result="blur"/>
<feOffset dx="0" dy="1" result="offset"/>
<feComposite in="offset" in2="fbSourceGraphic" operator="atop" result="composite2"/>
</filter>
<filter id="filter989" color-interpolation-filters="sRGB">
<feFlood flood-color="rgb(255,255,255)" flood-opacity=".10196" result="flood"/>
<feComposite in="flood" in2="SourceGraphic" operator="out" result="composite1"/>
<feGaussianBlur in="composite1" result="blur"/>
<feOffset dx="0" dy="1" result="offset"/>
<feComposite in="offset" in2="SourceGraphic" operator="atop" result="fbSourceGraphic"/>
<feColorMatrix in="fbSourceGraphic" result="fbSourceGraphicAlpha" values="0 0 0 -1 0 0 0 0 -1 0 0 0 0 -1 0 0 0 0 1 0"/>
<feFlood flood-color="rgb(0,0,0)" flood-opacity=".2" in="fbSourceGraphic" result="flood"/>
<feComposite in="flood" in2="fbSourceGraphic" operator="in" result="composite1"/>
<feGaussianBlur in="composite1" result="blur"/>
<feOffset dx="0" dy="1" result="offset"/>
<feComposite in="fbSourceGraphic" in2="offset" result="composite2"/>
</filter>
</defs>
<path d="m11.68 49.486c-0.52438-0.027654-1.0488-0.58341-1.0488-1.1115v-39.742c0-0.52811 0.52438-1.0286 1.0488-1.0009l34.64 1.1879c0.52438 0.027653 1.0488 0.58341 1.0488 1.1115v16.836c0 0.61532 0.39751 1.566 1.3938 1.778l3.2991 0.7756c0.92665 0.19722 1.3072 1.1191 1.3072 1.6474v18.747c0 0.52812-0.52438 1.0286-1.0488 1.0009z" fill="#b9b9b9" filter="url(#filter989)" stroke="#b9b9b9" stroke-linecap="round" stroke-linejoin="round" stroke-width="1.2621"/>
<path d="m10.642 51.686c0.0563 1.4392 1.4006 2.4699 2.9652 2.5756 14.754 0.99622 27.123 2.0877 27.123 2.0877 0.31618 0.09077 0.63235-0.21126 0.63235-0.6041v-43.245l-27.937-2.328c-1.2547-0.14412-2.3056-0.58632-2.7897-1.9499z" color="#000000" display="block" fill="#6194cb" filter="url(#filter965)" stroke="#6194cb" stroke-linejoin="round" stroke-width="1.2736"/>
<path d="m23.252 27.8c-0.39667-0.19692-0.82221-0.31748-1.2522-0.35733-1.6666-0.14581-3.0778 0.96738-3.3 2.6002-1.6133 0.4133-2.6988 1.8349-2.6999 3.5415 0 2.21 1.7899 4.1564 3.9999 4.3499l12 1.0499c2.21 0.19335 3.9999-1.44 3.9999-3.65-0.0011-1.6978-1.0755-3.3041-2.6777-4.0052 0.0056-0.07618 0.0078-0.15044 0.01112-0.2268 0-2.9455-2.3877-5.5433-5.3332-5.8009-2.0056-0.17546-3.8377 0.79199-4.7477 2.499zm4.7466-0.27694 0.0023 1.94e-4c1.7433 0.15252 3.1088 1.6387 3.11 3.3821-0.0011 0.02545-0.0044 0.06406-0.0044 0.07516-0.06999 0.99276 0.53666 1.9692 1.4822 2.383 0.71888 0.31399 1.1878 1.015 1.1889 1.7762 0 1.0089-0.76888 1.7105-1.7777 1.6222l-12-1.0499c-1.0078-0.08816-1.7767-0.92319-1.7777-1.931v-0.0023c0.0011-0.76433 0.47555-1.3862 1.2-1.5717 0.79554-0.20373 1.3678-0.85254 1.48-1.6761 0.07666-0.55883 0.52888-0.91483 1.0956-0.86636 0.14333 0.01366 0.28333 0.05479 0.41333 0.1195 1.0699 0.53138 2.2966 0.18204 2.8211-0.80207 0.53221-1.0001 1.5955-1.5616 2.7666-1.4591z" fill="#fff" opacity=".75" stroke-width="1.1111"/>
</svg>
