<svg width="64" height="64" version="1.1" xmlns="http://www.w3.org/2000/svg">
<defs>
<filter id="filter965" color-interpolation-filters="sRGB">
<feFlood flood-color="rgb(0,0,0)" flood-opacity=".2" result="flood"/>
<feComposite in="flood" in2="SourceGraphic" operator="in" result="composite1"/>
<feGaussianBlur in="composite1" result="blur"/>
<feOffset dx="0" dy="1" result="offset"/>
<feComposite in="SourceGraphic" in2="offset" result="fbSourceGraphic"/>
<feColorMatrix in="fbSourceGraphic" result="fbSourceGraphicAlpha" values="0 0 0 -1 0 0 0 0 -1 0 0 0 0 -1 0 0 0 0 1 0"/>
<feFlood flood-color="rgb(255,255,255)" flood-opacity=".10196" in="fbSourceGraphic" result="flood"/>
<feComposite in="flood" in2="fbSourceGraphic" operator="out" result="composite1"/>
<feGaussianBlur in="composite1" result="blur"/>
<feOffset dx="0" dy="1" result="offset"/>
<feComposite in="offset" in2="fbSourceGraphic" operator="atop" result="composite2"/>
</filter>
<filter id="filter989" color-interpolation-filters="sRGB">
<feFlood flood-color="rgb(255,255,255)" flood-opacity=".10196" result="flood"/>
<feComposite in="flood" in2="SourceGraphic" operator="out" result="composite1"/>
<feGaussianBlur in="composite1" result="blur"/>
<feOffset dx="0" dy="1" result="offset"/>
<feComposite in="offset" in2="SourceGraphic" operator="atop" result="fbSourceGraphic"/>
<feColorMatrix in="fbSourceGraphic" result="fbSourceGraphicAlpha" values="0 0 0 -1 0 0 0 0 -1 0 0 0 0 -1 0 0 0 0 1 0"/>
<feFlood flood-color="rgb(0,0,0)" flood-opacity=".2" in="fbSourceGraphic" result="flood"/>
<feComposite in="flood" in2="fbSourceGraphic" operator="in" result="composite1"/>
<feGaussianBlur in="composite1" result="blur"/>
<feOffset dx="0" dy="1" result="offset"/>
<feComposite in="fbSourceGraphic" in2="offset" result="composite2"/>
</filter>
</defs>
<path d="m11.68 49.486c-0.52438-0.027654-1.0488-0.58341-1.0488-1.1115v-39.742c0-0.52811 0.52438-1.0286 1.0488-1.0009l34.64 1.1879c0.52438 0.027653 1.0488 0.58341 1.0488 1.1115v16.836c0 0.61532 0.39751 1.566 1.3938 1.778l3.2991 0.7756c0.92665 0.19722 1.3072 1.1191 1.3072 1.6474v18.747c0 0.52812-0.52438 1.0286-1.0488 1.0009z" fill="#b9b9b9" filter="url(#filter989)" stroke="#b9b9b9" stroke-linecap="round" stroke-linejoin="round" stroke-width="1.2621"/>
<path d="m10.642 51.686c0.0563 1.4392 1.4006 2.4699 2.9652 2.5756 14.754 0.99622 27.123 2.0877 27.123 2.0877 0.31618 0.09077 0.63235-0.21126 0.63235-0.6041v-43.245l-27.937-2.328c-1.2547-0.14412-2.3056-0.58632-2.7897-1.9499z" color="#000000" display="block" fill="#6194cb" filter="url(#filter965)" stroke="#6194cb" stroke-linejoin="round" stroke-width="1.2736"/>
<path d="m26.641 35.871c-1.2802 0.48352-1.9008 0.42236-2.6998 0.2953-0.9544-0.15208-1.7214-0.48094-2.0586-0.73904-0.20803-0.15879-0.49036-0.12862-0.63095 0.0671-0.1406 0.19573-0.08687 0.48276 0.12116 0.64154 0.54294 0.41442 1.5008 0.77139 2.5032 0.93114 0.16917 0.02738-0.21489 6.31e-4 -0.01486 0.01813 0.87213 0.0763 1.9786 0.0908 3.1628-0.35654 0.22746-0.0864 0.32691-0.34746 0.2206-0.58422-0.1063-0.23791-0.37605-0.3598-0.60352-0.27341zm5.051-0.23134c0.04344-3.9454 0.45035-11.371-7.1084-11.429-7.4629-0.05167-4.9127 8.0549-5.0248 10.686-0.0983 1.3871-0.90413 3.0242-1.559 4.7043l2.3592 0.20641c0.20803-0.71791 0.36005-1.4327 0.42635-2.1207 0.12116 0.09518 0.25146 0.18774 0.38977 0.2787 0.22632 0.15353 0.42063 0.34771 0.62638 0.55201 0.48007 0.47977 1.0242 1.0234 2.0883 1.1794 0.07201 0.0097-0.42749-0.03169-0.35663-0.02549 1.0767 0.09419 1.8128-0.31232 2.4038-0.63896 0.28347-0.15694 0.52922-0.29203 0.75897-0.34738 0.65496-0.1473 1.2276-0.42868 1.6551-0.81192 0.0663-0.0605 0.12916-0.12243 0.18631-0.18602 0.23889 0.89417 0.56465 1.9045 0.92702 2.917l4.5355 0.39681c-1.0344-1.6873-2.3295-3.3654-2.3078-5.3603zm-11.411-3.1472c-0.0743-1.2947 0.54294-2.3254 1.3774-2.3005 0.83441 0.02386 1.5705 1.0941 1.6448 2.3888l0.0011 0.0013c0.0034 0.06888 0.0046 0.13871 0.0046 0.20614-0.26404 0.0432-0.50294 0.11945-0.71668 0.21276 0-0.0092-0.0011-0.01839-0.0023-0.02878-0.07087-0.73774-0.46178-1.3239-0.87213-1.3096-0.41034 0.01325-0.68581 0.62239-0.6138 1.3614 0.03086 0.3216 0.1223 0.61421 0.25032 0.84145-0.03201 0.02235-0.1223 0.0796-0.22518 0.14603-0.07772 0.05035-0.1726 0.11177-0.28576 0.18532-0.3109-0.43526-0.52465-1.0392-0.56236-1.7043zm7.8846 3.8754c-0.02972 0.6775-0.92015 1.2409-1.7431 1.426l-0.0046 7.44e-4c-0.34177 0.08097-0.64696 0.24973-0.97042 0.42832-0.54294 0.29998-1.1042 0.60979-1.9146 0.53889-0.05258-0.0046 0.46292 0.03935 0.41034 0.03133-0.74297-0.10844-1.0905-0.45545-1.5294-0.89506-0.23203-0.23062-0.47207-0.46993-0.78183-0.67877l-0.0057-5e-3c-0.66753-0.43445-1.0825-0.93938-1.1088-1.3498-0.01257-0.20341 0.07772-0.37154 0.26861-0.49772 0.41607-0.27564 0.69496-0.45585 0.87899-0.57462 0.20575-0.13173 0.26747-0.17206 0.31319-0.2115 0.032-0.02806 0.06858-0.05916 0.1063-0.09243 0.38177-0.33808 0.45035-0.95385 1.431-0.86808 0.60009 0.0525 1.2642 0.34149 1.9717 0.85832 0.33376 0.24638 0.62295 0.37112 0.98983 0.53009 0.25261 0.11012 0.53951 0.23352 0.92244 0.43047l0.0057 0.0038c0.35777 0.1776 0.77954 0.48312 0.76011 0.92491zm-0.1966-1.6174c-0.06859-0.0403-0.1406-0.07974-0.21489-0.1171-0.34519-0.17765-0.62295-0.30253-0.85269-0.40265 0.12688-0.23694 0.20575-0.5398 0.21375-0.87514v-0.0011c0.01715-0.81691-0.39548-1.5171-0.92244-1.5644-0.52693-0.04724-0.96813 0.57597-0.98525 1.3929v0.08111c-0.32462-0.17814-0.64352-0.31463-0.95668-0.40832-0.0011-0.03096-0.0023-0.06193-0.0034-0.09288v-0.0011c-0.02972-1.4931 0.8847-2.6476 2.0437-2.5771 1.1579 0.0693 2.1215 1.3366 2.1523 2.831 0.01372 0.67559-0.16688 1.2804-0.47436 1.7347z" fill="#fff" opacity=".75" stroke-width="1.143"/>
</svg>
