<svg width="64" height="64" version="1.1" xmlns="http://www.w3.org/2000/svg">
<defs>
<filter id="filter965" color-interpolation-filters="sRGB">
<feFlood flood-color="rgb(0,0,0)" flood-opacity=".2" result="flood"/>
<feComposite in="flood" in2="SourceGraphic" operator="in" result="composite1"/>
<feGaussianBlur in="composite1" result="blur"/>
<feOffset dx="0" dy="1" result="offset"/>
<feComposite in="SourceGraphic" in2="offset" result="fbSourceGraphic"/>
<feColorMatrix in="fbSourceGraphic" result="fbSourceGraphicAlpha" values="0 0 0 -1 0 0 0 0 -1 0 0 0 0 -1 0 0 0 0 1 0"/>
<feFlood flood-color="rgb(255,255,255)" flood-opacity=".10196" in="fbSourceGraphic" result="flood"/>
<feComposite in="flood" in2="fbSourceGraphic" operator="out" result="composite1"/>
<feGaussianBlur in="composite1" result="blur"/>
<feOffset dx="0" dy="1" result="offset"/>
<feComposite in="offset" in2="fbSourceGraphic" operator="atop" result="composite2"/>
</filter>
<filter id="filter989" color-interpolation-filters="sRGB">
<feFlood flood-color="rgb(255,255,255)" flood-opacity=".10196" result="flood"/>
<feComposite in="flood" in2="SourceGraphic" operator="out" result="composite1"/>
<feGaussianBlur in="composite1" result="blur"/>
<feOffset dx="0" dy="1" result="offset"/>
<feComposite in="offset" in2="SourceGraphic" operator="atop" result="fbSourceGraphic"/>
<feColorMatrix in="fbSourceGraphic" result="fbSourceGraphicAlpha" values="0 0 0 -1 0 0 0 0 -1 0 0 0 0 -1 0 0 0 0 1 0"/>
<feFlood flood-color="rgb(0,0,0)" flood-opacity=".2" in="fbSourceGraphic" result="flood"/>
<feComposite in="flood" in2="fbSourceGraphic" operator="in" result="composite1"/>
<feGaussianBlur in="composite1" result="blur"/>
<feOffset dx="0" dy="1" result="offset"/>
<feComposite in="fbSourceGraphic" in2="offset" result="composite2"/>
</filter>
</defs>
<path d="m11.68 49.486c-0.52438-0.027654-1.0488-0.58341-1.0488-1.1115v-39.742c0-0.52811 0.52438-1.0286 1.0488-1.0009l34.64 1.1879c0.52438 0.027653 1.0488 0.58341 1.0488 1.1115v16.836c0 0.61532 0.39751 1.566 1.3938 1.778l3.2991 0.7756c0.92665 0.19722 1.3072 1.1191 1.3072 1.6474v18.747c0 0.52812-0.52438 1.0286-1.0488 1.0009z" fill="#b9b9b9" filter="url(#filter989)" stroke="#b9b9b9" stroke-linecap="round" stroke-linejoin="round" stroke-width="1.2621"/>
<path d="m10.642 51.686c0.0563 1.4392 1.4006 2.4699 2.9652 2.5756 14.754 0.99622 27.123 2.0877 27.123 2.0877 0.31618 0.09077 0.63235-0.21126 0.63235-0.6041v-43.245l-27.937-2.328c-1.2547-0.14412-2.3056-0.58632-2.7897-1.9499z" color="#000000" display="block" fill="#6194cb" filter="url(#filter965)" stroke="#6194cb" stroke-linejoin="round" stroke-width="1.2736"/>
<path d="m26 23.163c-5.54-0.48329-10 3.5748-10 9.0988 0 4.4533 2.9 8.4544 6.9263 10.094v-2.0716c-2.5313 0.33618-3.064-1.3774-3.064-1.3774-0.414-1.1013-1.0108-1.4367-1.0108-1.4367-0.8263-0.64364 0.06104-0.55702 0.06104-0.55702 0.91342 0.14473 1.394 1.0734 1.394 1.0734 0.81176 1.4796 2.1305 1.1887 2.6489 0.9979 0.08269-0.58822 0.31884-0.97602 0.57862-1.1838-2.0206-0.40897-3.772-1.8501-3.772-5.3832 0-1.0064 0.73317-2.264 1.3153-2.8571-0.09387-0.24138-0.40762-1.7048 0.08789-2.9305 0 0 0.04774-0.01084 0.14649-0.0067 0.29613 0.01196 0.96226 0.6303 2.2657 1.6387 0.78694-0.15677 1.7938-0.17435 2.4225-0.12461 0.70893 0.05599 1.5298 0.24922 2.2696 0.53392 1.3038-0.78105 2.1367-1.271 2.4317-1.2315l0.0025 2.19e-4c0.09862 0.01321 0.14649 0.03225 0.14649 0.03225 0.49666 1.3124 0.18363 2.7236 0.09034 2.9486 0.58316 0.69502 1.3095 2.0798 1.3095 3.0862 0 3.542-2.1262 4.6332-4.1529 4.6846 0.32627 0.31314 0.40772 0.88471 0.40772 1.7445 0 1.0384-0.0026 1.7131-0.0049 2.142v0.92261c4.3208-0.72572 7.5001-4.3317 7.5001-8.9931 0-5.524-4.46-10.36-10-10.843z" fill="#fff" opacity=".75" stroke-width="1.2482"/>
</svg>
