<svg width="64" height="64" version="1.1" xmlns="http://www.w3.org/2000/svg">
<defs>
<filter id="filter965" color-interpolation-filters="sRGB">
<feFlood flood-color="rgb(0,0,0)" flood-opacity=".2" result="flood"/>
<feComposite in="flood" in2="SourceGraphic" operator="in" result="composite1"/>
<feGaussianBlur in="composite1" result="blur"/>
<feOffset dx="0" dy="1" result="offset"/>
<feComposite in="SourceGraphic" in2="offset" result="fbSourceGraphic"/>
<feColorMatrix in="fbSourceGraphic" result="fbSourceGraphicAlpha" values="0 0 0 -1 0 0 0 0 -1 0 0 0 0 -1 0 0 0 0 1 0"/>
<feFlood flood-color="rgb(255,255,255)" flood-opacity=".10196" in="fbSourceGraphic" result="flood"/>
<feComposite in="flood" in2="fbSourceGraphic" operator="out" result="composite1"/>
<feGaussianBlur in="composite1" result="blur"/>
<feOffset dx="0" dy="1" result="offset"/>
<feComposite in="offset" in2="fbSourceGraphic" operator="atop" result="composite2"/>
</filter>
<filter id="filter989" color-interpolation-filters="sRGB">
<feFlood flood-color="rgb(255,255,255)" flood-opacity=".10196" result="flood"/>
<feComposite in="flood" in2="SourceGraphic" operator="out" result="composite1"/>
<feGaussianBlur in="composite1" result="blur"/>
<feOffset dx="0" dy="1" result="offset"/>
<feComposite in="offset" in2="SourceGraphic" operator="atop" result="fbSourceGraphic"/>
<feColorMatrix in="fbSourceGraphic" result="fbSourceGraphicAlpha" values="0 0 0 -1 0 0 0 0 -1 0 0 0 0 -1 0 0 0 0 1 0"/>
<feFlood flood-color="rgb(0,0,0)" flood-opacity=".2" in="fbSourceGraphic" result="flood"/>
<feComposite in="flood" in2="fbSourceGraphic" operator="in" result="composite1"/>
<feGaussianBlur in="composite1" result="blur"/>
<feOffset dx="0" dy="1" result="offset"/>
<feComposite in="fbSourceGraphic" in2="offset" result="composite2"/>
</filter>
</defs>
<path d="m11.68 49.486c-0.52438-0.027654-1.0488-0.58341-1.0488-1.1115v-39.742c0-0.52811 0.52438-1.0286 1.0488-1.0009l34.64 1.1879c0.52438 0.027653 1.0488 0.58341 1.0488 1.1115v16.836c0 0.61532 0.39751 1.566 1.3938 1.778l3.2991 0.7756c0.92665 0.19722 1.3072 1.1191 1.3072 1.6474v18.747c0 0.52812-0.52438 1.0286-1.0488 1.0009z" fill="#b9b9b9" filter="url(#filter989)" stroke="#b9b9b9" stroke-linecap="round" stroke-linejoin="round" stroke-width="1.2621"/>
<path d="m10.642 51.686c0.0563 1.4392 1.4006 2.4699 2.9652 2.5756 14.754 0.99622 27.123 2.0877 27.123 2.0877 0.31618 0.09077 0.63235-0.21126 0.63235-0.6041v-43.245l-27.937-2.328c-1.2547-0.14412-2.3056-0.58632-2.7897-1.9499z" color="#000000" display="block" fill="#6194cb" filter="url(#filter965)" stroke="#6194cb" stroke-linejoin="round" stroke-width="1.2736"/>
<path d="m26.172 22.327c-1.6638-0.14589-3.0095 1.101-3.0095 2.7716 0 1.1761 0.58238 2.1731 1.5592 2.7594v3.6219c-0.27452 0.29494-0.83369 0.50458-0.84124 0.82856l-0.20305 0.82856-3.9451-0.34645c-0.25942-0.02275-0.42805 0.08548-0.53182 0.30284l-1.8541 4.3801c-0.08038 0.15535-0.11122 0.29478-0.11362 0.42154l-0.0025 0.0025 0.0025 2.6432c0 0.45116 0.2745 0.70257 0.68894 0.73892l16.014 1.4028c0.4088 0.03585 0.65994-0.24076 0.65994-0.70983v-2.5341c0.0035-0.02323-7.33e-4 -0.04828 0-0.07267v-0.07753l-0.01213-0.0025c-0.0055-0.06622-6.04e-4 -0.12929-0.02658-0.20108l-1.958-4.7558c-0.07659-0.21612-0.2712-0.42798-0.4738-0.45061l-3.4544-0.30284-0.2224-0.91094c-0.0081-0.34845-0.38551-0.43437-0.78563-0.83582v-3.6655c0.97688-0.41513 1.5327-1.358 1.5327-2.5341 0-1.6705-1.3604-3.1563-3.0242-3.3021z" fill="#fff" fill-rule="evenodd" opacity=".75" stroke="#fff" stroke-width=".6305px"/>
</svg>
