<svg width="64" height="64" version="1.1" xmlns="http://www.w3.org/2000/svg">
<defs>
<filter id="filter887" color-interpolation-filters="sRGB">
<feFlood flood-color="rgb(0,0,0)" flood-opacity=".2" result="flood"/>
<feComposite in="flood" in2="SourceGraphic" operator="in" result="composite1"/>
<feGaussianBlur in="composite1" result="blur"/>
<feOffset dx="0" dy="1" result="offset"/>
<feComposite in="SourceGraphic" in2="offset" result="fbSourceGraphic"/>
<feColorMatrix in="fbSourceGraphic" result="fbSourceGraphicAlpha" values="0 0 0 -1 0 0 0 0 -1 0 0 0 0 -1 0 0 0 0 1 0"/>
<feFlood flood-color="rgb(255,255,255)" flood-opacity=".10196" in="fbSourceGraphic" result="flood"/>
<feComposite in="flood" in2="fbSourceGraphic" operator="out" result="composite1"/>
<feGaussianBlur in="composite1" result="blur"/>
<feOffset dx="0" dy="1" result="offset"/>
<feComposite in="offset" in2="fbSourceGraphic" operator="atop" result="composite2"/>
</filter>
<filter id="filter911" color-interpolation-filters="sRGB">
<feFlood flood-color="rgb(255,255,255)" flood-opacity=".10196" result="flood"/>
<feComposite in="flood" in2="SourceGraphic" operator="out" result="composite1"/>
<feGaussianBlur in="composite1" result="blur"/>
<feOffset dx="0" dy="1" result="offset"/>
<feComposite in="offset" in2="SourceGraphic" operator="atop" result="fbSourceGraphic"/>
<feColorMatrix in="fbSourceGraphic" result="fbSourceGraphicAlpha" values="0 0 0 -1 0 0 0 0 -1 0 0 0 0 -1 0 0 0 0 1 0"/>
<feFlood flood-color="rgb(0,0,0)" flood-opacity=".2" in="fbSourceGraphic" result="flood"/>
<feComposite in="flood" in2="fbSourceGraphic" operator="in" result="composite1"/>
<feGaussianBlur in="composite1" result="blur"/>
<feOffset dx="0" dy="1" result="offset"/>
<feComposite in="fbSourceGraphic" in2="offset" result="composite2"/>
</filter>
</defs>
<path d="m11.695 47.482c-0.53157-0.05336-1.0631-0.63471-1.0631-1.1627v-39.733c0-0.52801 0.53157-1.0027 1.0631-0.94932l34.551 3.4411c0.56252 0.053354 1.125 0.63471 1.125 1.1627v16.236c0 0.7536 0.50779 1.543 1.2848 1.7903l3.7822 1.4075c0.64135 0.21598 0.93025 0.69821 0.93025 1.6775v19.062c0 0.52801-0.53157 1.0027-1.0631 0.94932z" color="#000000" fill="#b9b9b9" filter="url(#filter911)" stroke="#b9b9b9" stroke-linecap="round" stroke-linejoin="round" stroke-width="1.2636"/>
<path d="m11.174 5.7627c-0.27 0.12908-0.54 0.38724-0.54 0.7745v41.566c0 0.25818 0.16126 0.65034 0.33753 0.8837 0.49992 0.66188 0.78189 0.81718 1.243 1.114 4.7439 3.0549 24.612 7.2441 24.612 7.2441 0.26999 0.12908 0.53998-0.12908 0.53998-0.51632v-43.581c0-0.38725-20.566-2.0664-24.625-6.0684l-1.5674-1.5451z" color="#000000" display="block" fill="#6194cb" filter="url(#filter887)" stroke="#6194cb" stroke-linejoin="round" stroke-width="1.2675"/>
<path d="m18.552 23.318c-0.07566-0.02051-0.1483-0.02475-0.21428-0.01128-0.19795 0.04033-0.33817 0.22399-0.33817 0.47833v10.222a1.0551 0.8003 63.486 0 1 0.62946-0.79237 1.0551 0.8003 63.486 0 1 0.22767 0.02644 1.0551 0.8003 63.486 0 1 0.85713 1.2022 1.0551 0.8003 63.486 0 1-0.85713 0.76599 1.0551 0.8003 63.486 0 1-0.85713-1.2022v4.2516c0 0.33909 0.24977 0.68475 0.55246 0.76689l5.2734 1.4318a1.0551 0.8003 63.486 0 1-0.68302-1.1363 1.0551 0.8003 63.486 0 1 0.62945-0.79237 1.0551 0.8003 63.486 0 1 0.22767 0.02644 1.0551 0.8003 63.486 0 1 0.85713 1.2022 1.0551 0.8003 63.486 0 1-0.69641 0.78981l5.2868 1.4354c0.30271 0.08208 0.55246-0.12795 0.55246-0.46706v-4.3169a1.0551 0.8003 63.486 0 1-0.85713 0.76598 1.0551 0.8003 63.486 0 1-0.85713-1.2022 1.0551 0.8003 63.486 0 1 0.62946-0.79237 1.0551 0.8003 63.486 0 1 0.22767 0.02645 1.0551 0.8003 63.486 0 1 0.85713 1.2022v-10.156c0-0.33911-0.24977-0.68475-0.55246-0.76689zm5.6082 17.228-0.33147-0.08879a1.0551 0.8003 63.486 0 0 0.17076 0.06498 1.0551 0.8003 63.486 0 0 0.16071 0.0238zm-0.16071-13.801a1.0551 0.8003 63.486 0 1 0.85713 1.2022 1.0551 0.8003 63.486 0 1-0.85713 0.76599 1.0551 0.8003 63.486 0 1-0.85713-1.2022 1.0551 0.8003 63.486 0 1 0.62946-0.79237 1.0551 0.8003 63.486 0 1 0.22767 0.02645zm-3.4285 3.0178a1.0551 0.8003 63.486 0 1 0.85713 1.2022 1.0551 0.8003 63.486 0 1-0.85713 0.76598 1.0551 0.8003 63.486 0 1-0.85713-1.2022 1.0551 0.8003 63.486 0 1 0.62945-0.79237 1.0551 0.8003 63.486 0 1 0.22767 0.02644zm3.4285 0.91844a1.0551 0.8003 63.486 0 1 0.85713 1.2022 1.0551 0.8003 63.486 0 1-0.85713 0.76599 1.0551 0.8003 63.486 0 1-0.85713-1.2022 1.0551 0.8003 63.486 0 1 0.62946-0.79237 1.0551 0.8003 63.486 0 1 0.22767 0.02645zm3.4285 0.91844a1.0551 0.8003 63.486 0 1 0.85713 1.2022 1.0551 0.8003 63.486 0 1-0.85713 0.76599 1.0551 0.8003 63.486 0 1-0.85713-1.2022 1.0551 0.8003 63.486 0 1 0.62946-0.79237 1.0551 0.8003 63.486 0 1 0.22767 0.02645zm-3.4285 3.0178a1.0551 0.8003 63.486 0 1 0.85713 1.2022 1.0551 0.8003 63.486 0 1-0.85713 0.76599 1.0551 0.8003 63.486 0 1-0.85713-1.2022 1.0551 0.8003 63.486 0 1 0.62946-0.79237 1.0551 0.8003 63.486 0 1 0.22767 0.02644z" color="#000000" color-rendering="auto" display="block" dominant-baseline="auto" fill="#fff" image-rendering="auto" opacity=".75" shape-rendering="auto" solid-color="#000000" stroke-width="1.0585" style="font-feature-settings:normal;font-variant-alternates:normal;font-variant-caps:normal;font-variant-ligatures:normal;font-variant-numeric:normal;font-variant-position:normal;isolation:auto;mix-blend-mode:normal;shape-padding:0;text-decoration-color:#000000;text-decoration-line:none;text-decoration-style:solid;text-indent:0;text-orientation:mixed;text-transform:none;white-space:normal"/>
</svg>
