<svg width="64" height="64" version="1.1" xmlns="http://www.w3.org/2000/svg">
<defs>
<filter id="filter965" color-interpolation-filters="sRGB">
<feFlood flood-color="rgb(0,0,0)" flood-opacity=".2" result="flood"/>
<feComposite in="flood" in2="SourceGraphic" operator="in" result="composite1"/>
<feGaussianBlur in="composite1" result="blur"/>
<feOffset dx="0" dy="1" result="offset"/>
<feComposite in="SourceGraphic" in2="offset" result="fbSourceGraphic"/>
<feColorMatrix in="fbSourceGraphic" result="fbSourceGraphicAlpha" values="0 0 0 -1 0 0 0 0 -1 0 0 0 0 -1 0 0 0 0 1 0"/>
<feFlood flood-color="rgb(255,255,255)" flood-opacity=".10196" in="fbSourceGraphic" result="flood"/>
<feComposite in="flood" in2="fbSourceGraphic" operator="out" result="composite1"/>
<feGaussianBlur in="composite1" result="blur"/>
<feOffset dx="0" dy="1" result="offset"/>
<feComposite in="offset" in2="fbSourceGraphic" operator="atop" result="composite2"/>
</filter>
<filter id="filter989" color-interpolation-filters="sRGB">
<feFlood flood-color="rgb(255,255,255)" flood-opacity=".10196" result="flood"/>
<feComposite in="flood" in2="SourceGraphic" operator="out" result="composite1"/>
<feGaussianBlur in="composite1" result="blur"/>
<feOffset dx="0" dy="1" result="offset"/>
<feComposite in="offset" in2="SourceGraphic" operator="atop" result="fbSourceGraphic"/>
<feColorMatrix in="fbSourceGraphic" result="fbSourceGraphicAlpha" values="0 0 0 -1 0 0 0 0 -1 0 0 0 0 -1 0 0 0 0 1 0"/>
<feFlood flood-color="rgb(0,0,0)" flood-opacity=".2" in="fbSourceGraphic" result="flood"/>
<feComposite in="flood" in2="fbSourceGraphic" operator="in" result="composite1"/>
<feGaussianBlur in="composite1" result="blur"/>
<feOffset dx="0" dy="1" result="offset"/>
<feComposite in="fbSourceGraphic" in2="offset" result="composite2"/>
</filter>
</defs>
<path d="m11.68 49.486c-0.52438-0.027654-1.0488-0.58341-1.0488-1.1115v-39.742c0-0.52811 0.52438-1.0286 1.0488-1.0009l34.64 1.1879c0.52438 0.027653 1.0488 0.58341 1.0488 1.1115v16.836c0 0.61532 0.39751 1.566 1.3938 1.778l3.2991 0.7756c0.92665 0.19722 1.3072 1.1191 1.3072 1.6474v18.747c0 0.52812-0.52438 1.0286-1.0488 1.0009z" fill="#b9b9b9" filter="url(#filter989)" stroke="#b9b9b9" stroke-linecap="round" stroke-linejoin="round" stroke-width="1.2621"/>
<path d="m10.642 51.686c0.0563 1.4392 1.4006 2.4699 2.9652 2.5756 14.754 0.99622 27.123 2.0877 27.123 2.0877 0.31618 0.09077 0.63235-0.21126 0.63235-0.6041v-43.245l-27.937-2.328c-1.2547-0.14412-2.3056-0.58632-2.7897-1.9499z" color="#000000" display="block" fill="#6194cb" filter="url(#filter965)" stroke="#6194cb" stroke-linejoin="round" stroke-width="1.2736"/>
<path d="m13.999 32.589 7.2048 3.5836c0.054 1.9511 1.6476 3.6409 3.5952 3.8137 1.9884 0.17397 3.6072-1.3668 3.6-3.285l4.8-3.18c2.6724 0.23381 4.8-1.7292 4.8-4.38s-2.1492-4.988-4.8-5.22c-2.6509-0.23198-4.8012 1.7064-4.8 4.38l-3.6 4.485c-0.6528-0.0571-1.2984 0.0688-1.8588 0.36058l-8.9412-4.4531m19.2-3.5726c1.9884 0.17397 3.6 1.9266 3.6 3.915s-1.6116 3.459-3.6 3.285c-1.9872-0.17385-3.5628-2.2737-3.6-3.915 0-1.9884 1.6116-3.459 3.6-3.285zm0 1.2c-1.326-0.11602-2.4 0.86402-2.4 2.19 0 1.326 1.074 2.4939 2.4 2.61 1.326 0.11601 2.4-0.86402 2.4-2.19 0-1.326-1.074-2.4939-2.4-2.61zm-8.3999 7.6651c1.326 0.11601 2.4 1.284 2.4 2.61s-1.074 2.306-2.4 2.19c-1.0848-0.0949-2.0352-0.90525-2.3184-1.9776l1.0716 0.53296c0.92279 0.45874 1.9704 0.1124 2.3484-0.77733 0.378-0.88972-0.0588-1.9756-0.9816-2.4344l-0.3048-0.15026c0.0612-6.45e-4 0.1236 0.0024 0.1848 0.0066z" fill="#fff" opacity=".75" stroke-width="1.2"/>
</svg>
