<svg width="64" height="64" version="1.1" xmlns="http://www.w3.org/2000/svg">
<defs>
<filter id="filter887" color-interpolation-filters="sRGB">
<feFlood flood-color="rgb(0,0,0)" flood-opacity=".2" result="flood"/>
<feComposite in="flood" in2="SourceGraphic" operator="in" result="composite1"/>
<feGaussianBlur in="composite1" result="blur"/>
<feOffset dx="0" dy="1" result="offset"/>
<feComposite in="SourceGraphic" in2="offset" result="fbSourceGraphic"/>
<feColorMatrix in="fbSourceGraphic" result="fbSourceGraphicAlpha" values="0 0 0 -1 0 0 0 0 -1 0 0 0 0 -1 0 0 0 0 1 0"/>
<feFlood flood-color="rgb(255,255,255)" flood-opacity=".10196" in="fbSourceGraphic" result="flood"/>
<feComposite in="flood" in2="fbSourceGraphic" operator="out" result="composite1"/>
<feGaussianBlur in="composite1" result="blur"/>
<feOffset dx="0" dy="1" result="offset"/>
<feComposite in="offset" in2="fbSourceGraphic" operator="atop" result="composite2"/>
</filter>
<filter id="filter911" color-interpolation-filters="sRGB">
<feFlood flood-color="rgb(255,255,255)" flood-opacity=".10196" result="flood"/>
<feComposite in="flood" in2="SourceGraphic" operator="out" result="composite1"/>
<feGaussianBlur in="composite1" result="blur"/>
<feOffset dx="0" dy="1" result="offset"/>
<feComposite in="offset" in2="SourceGraphic" operator="atop" result="fbSourceGraphic"/>
<feColorMatrix in="fbSourceGraphic" result="fbSourceGraphicAlpha" values="0 0 0 -1 0 0 0 0 -1 0 0 0 0 -1 0 0 0 0 1 0"/>
<feFlood flood-color="rgb(0,0,0)" flood-opacity=".2" in="fbSourceGraphic" result="flood"/>
<feComposite in="flood" in2="fbSourceGraphic" operator="in" result="composite1"/>
<feGaussianBlur in="composite1" result="blur"/>
<feOffset dx="0" dy="1" result="offset"/>
<feComposite in="fbSourceGraphic" in2="offset" result="composite2"/>
</filter>
</defs>
<path d="m11.695 47.482c-0.53157-0.05336-1.0631-0.63471-1.0631-1.1627v-39.733c0-0.52801 0.53157-1.0027 1.0631-0.94932l34.551 3.4411c0.56252 0.053354 1.125 0.63471 1.125 1.1627v16.236c0 0.7536 0.50779 1.543 1.2848 1.7903l3.7822 1.4075c0.64135 0.21598 0.93025 0.69821 0.93025 1.6775v19.062c0 0.52801-0.53157 1.0027-1.0631 0.94932z" color="#000000" fill="#b9b9b9" filter="url(#filter911)" stroke="#b9b9b9" stroke-linecap="round" stroke-linejoin="round" stroke-width="1.2636"/>
<path d="m11.174 5.7627c-0.27 0.12908-0.54 0.38724-0.54 0.7745v41.566c0 0.25818 0.16126 0.65034 0.33753 0.8837 0.49992 0.66188 0.78189 0.81718 1.243 1.114 4.7439 3.0549 24.612 7.2441 24.612 7.2441 0.26999 0.12908 0.53998-0.12908 0.53998-0.51632v-43.581c0-0.38725-20.566-2.0664-24.625-6.0684l-1.5674-1.5451z" color="#000000" display="block" fill="#6194cb" filter="url(#filter887)" stroke="#6194cb" stroke-linejoin="round" stroke-width="1.2675"/>
<path d="m16.416 25.422c-1.1246 0.058423-1.4675 1.0888-1.4102 2.123v5.7441c0 1.6296 0.93105 3.4671 2.252 3.7539l6.1543 1.7129c0.12484 0.03344 0.24416 0.024544 0.35938-0.003906l3.7598 1.0547c0.55869 0.14971 1.3401-0.099807 1.7539-0.57422l2.7988 0.75c0.29538 0.07914 0.5463-0.10559 0.56445-0.41406l0.34961-5.9434c0.01814-0.30846-0.20461-0.62202-0.5-0.70117l-2.498-0.66797v-1.2812c0-0.05869 4.47e-4 -0.11031-0.001953-0.16797l0.23047 0.050781c0.42494 0.07671 0.76571-0.13607 0.77344-0.625v-2.4414c0.02318-0.52197-0.20044-1.0354-0.83398-1.2051l-3.5176-0.94141c-0.07243-0.02131-0.13601-0.031463-0.19336-0.033203-0.40145-0.01216-0.45508 0.39453-0.45508 0.39453l-0.001953 1.2441-5.2617-1.4473c-0.82273-0.22044-1.4712-0.1489-1.9629 0.09961l-1.8281-0.44336c-0.19366-0.034131-0.37059-0.045455-0.53125-0.037109zm2.6934 1.5801c0.091886-0.004272 0.1869 0.002673 0.28516 0.023438 0.0351 0.0076 0.070285 0.016573 0.10547 0.027343 0.82874 0.25122 1.5004 1.3269 1.5 2.4023-2.97e-4 1.0749-0.67175 1.743-1.5 1.4922-0.82815-0.25105-1.4996-1.3254-1.5-2.4004-6.03e-4 -0.8951 0.46617-1.515 1.1094-1.5449z" color="#000000" fill="#fff" opacity=".75" stroke-width="1.0715"/>
</svg>
