<svg width="64" height="64" version="1.1" xmlns="http://www.w3.org/2000/svg">
<defs>
<filter id="filter887" color-interpolation-filters="sRGB">
<feFlood flood-color="rgb(0,0,0)" flood-opacity=".2" result="flood"/>
<feComposite in="flood" in2="SourceGraphic" operator="in" result="composite1"/>
<feGaussianBlur in="composite1" result="blur"/>
<feOffset dx="0" dy="1" result="offset"/>
<feComposite in="SourceGraphic" in2="offset" result="fbSourceGraphic"/>
<feColorMatrix in="fbSourceGraphic" result="fbSourceGraphicAlpha" values="0 0 0 -1 0 0 0 0 -1 0 0 0 0 -1 0 0 0 0 1 0"/>
<feFlood flood-color="rgb(255,255,255)" flood-opacity=".10196" in="fbSourceGraphic" result="flood"/>
<feComposite in="flood" in2="fbSourceGraphic" operator="out" result="composite1"/>
<feGaussianBlur in="composite1" result="blur"/>
<feOffset dx="0" dy="1" result="offset"/>
<feComposite in="offset" in2="fbSourceGraphic" operator="atop" result="composite2"/>
</filter>
<filter id="filter911" color-interpolation-filters="sRGB">
<feFlood flood-color="rgb(255,255,255)" flood-opacity=".10196" result="flood"/>
<feComposite in="flood" in2="SourceGraphic" operator="out" result="composite1"/>
<feGaussianBlur in="composite1" result="blur"/>
<feOffset dx="0" dy="1" result="offset"/>
<feComposite in="offset" in2="SourceGraphic" operator="atop" result="fbSourceGraphic"/>
<feColorMatrix in="fbSourceGraphic" result="fbSourceGraphicAlpha" values="0 0 0 -1 0 0 0 0 -1 0 0 0 0 -1 0 0 0 0 1 0"/>
<feFlood flood-color="rgb(0,0,0)" flood-opacity=".2" in="fbSourceGraphic" result="flood"/>
<feComposite in="flood" in2="fbSourceGraphic" operator="in" result="composite1"/>
<feGaussianBlur in="composite1" result="blur"/>
<feOffset dx="0" dy="1" result="offset"/>
<feComposite in="fbSourceGraphic" in2="offset" result="composite2"/>
</filter>
</defs>
<g stroke-linejoin="round">
<path d="m11.695 47.482c-0.53157-0.05336-1.0631-0.63471-1.0631-1.1627v-39.733c0-0.52801 0.53157-1.0027 1.0631-0.94932l34.551 3.4411c0.56252 0.053354 1.125 0.63471 1.125 1.1627v16.236c0 0.7536 0.50779 1.543 1.2848 1.7903l3.7822 1.4075c0.64135 0.21598 0.93025 0.69821 0.93025 1.6775v19.062c0 0.52801-0.53157 1.0027-1.0631 0.94932z" color="#000000" fill="#b9b9b9" filter="url(#filter911)" stroke="#b9b9b9" stroke-linecap="round" stroke-width="1.2636"/>
<path d="m11.174 5.7627c-0.27 0.12908-0.54 0.38724-0.54 0.7745v41.566c0 0.25818 0.16126 0.65034 0.33753 0.8837 0.49992 0.66188 0.78189 0.81718 1.243 1.114 4.7439 3.0549 24.612 7.2441 24.612 7.2441 0.26999 0.12908 0.53998-0.12908 0.53998-0.51632v-43.581c0-0.38725-20.566-2.0664-24.625-6.0684l-1.5674-1.5451z" color="#000000" display="block" fill="#6194cb" filter="url(#filter887)" stroke="#6194cb" stroke-width="1.2675"/>
<path d="m29.722 41.255v-2.4165l-5.0905-1.364 5.0801-5.7362-2.9876-0.8257v-5.3722l-5.444-1.4587v5.3722l-3.0012-0.80416 5.1747 8.5092-5.1741-1.3864v2.4165z" color="#000000" fill="#fff" fill-rule="evenodd" opacity=".75" stroke="#fff" stroke-linecap="round" stroke-miterlimit="10" stroke-width=".55688"/>
</g>
</svg>
