<svg width="64" height="64" version="1.1" xmlns="http://www.w3.org/2000/svg">
<defs>
<filter id="filter965" color-interpolation-filters="sRGB">
<feFlood flood-color="rgb(0,0,0)" flood-opacity=".2" result="flood"/>
<feComposite in="flood" in2="SourceGraphic" operator="in" result="composite1"/>
<feGaussianBlur in="composite1" result="blur"/>
<feOffset dx="0" dy="1" result="offset"/>
<feComposite in="SourceGraphic" in2="offset" result="fbSourceGraphic"/>
<feColorMatrix in="fbSourceGraphic" result="fbSourceGraphicAlpha" values="0 0 0 -1 0 0 0 0 -1 0 0 0 0 -1 0 0 0 0 1 0"/>
<feFlood flood-color="rgb(255,255,255)" flood-opacity=".10196" in="fbSourceGraphic" result="flood"/>
<feComposite in="flood" in2="fbSourceGraphic" operator="out" result="composite1"/>
<feGaussianBlur in="composite1" result="blur"/>
<feOffset dx="0" dy="1" result="offset"/>
<feComposite in="offset" in2="fbSourceGraphic" operator="atop" result="composite2"/>
</filter>
<filter id="filter989" color-interpolation-filters="sRGB">
<feFlood flood-color="rgb(255,255,255)" flood-opacity=".10196" result="flood"/>
<feComposite in="flood" in2="SourceGraphic" operator="out" result="composite1"/>
<feGaussianBlur in="composite1" result="blur"/>
<feOffset dx="0" dy="1" result="offset"/>
<feComposite in="offset" in2="SourceGraphic" operator="atop" result="fbSourceGraphic"/>
<feColorMatrix in="fbSourceGraphic" result="fbSourceGraphicAlpha" values="0 0 0 -1 0 0 0 0 -1 0 0 0 0 -1 0 0 0 0 1 0"/>
<feFlood flood-color="rgb(0,0,0)" flood-opacity=".2" in="fbSourceGraphic" result="flood"/>
<feComposite in="flood" in2="fbSourceGraphic" operator="in" result="composite1"/>
<feGaussianBlur in="composite1" result="blur"/>
<feOffset dx="0" dy="1" result="offset"/>
<feComposite in="fbSourceGraphic" in2="offset" result="composite2"/>
</filter>
</defs>
<path d="m11.68 49.486c-0.52438-0.02765-1.0488-0.58341-1.0488-1.1115v-39.742c0-0.52811 0.52438-1.0286 1.0488-1.0009l34.64 1.1879c0.52438 0.027653 1.0488 0.58341 1.0488 1.1115v16.836c0 0.61532 0.39751 1.566 1.3938 1.778l3.2991 0.7756c0.92665 0.19722 1.3072 1.1191 1.3072 1.6474v18.747c0 0.52812-0.52438 1.0286-1.0488 1.0009z" fill="#b9b9b9" filter="url(#filter989)" stroke="#b9b9b9" stroke-linecap="round" stroke-linejoin="round" stroke-width="1.2621"/>
<path d="m10.642 51.686c0.0563 1.4392 1.4006 2.4699 2.9652 2.5756 14.754 0.99622 27.123 2.0877 27.123 2.0877 0.31618 0.09077 0.63235-0.21126 0.63235-0.6041v-43.245l-27.937-2.328c-1.2547-0.14412-2.3056-0.58632-2.7897-1.9499z" color="#000000" display="block" fill="#6194cb" filter="url(#filter965)" stroke="#6194cb" stroke-linejoin="round" stroke-width="1.2736"/>
<path d="m29.59 25.125c-0.49068 0.058649-0.55664 0.50195-0.55664 0.50195l-0.017578 1.3223-7.0039-0.65234c-1.0056-0.08797-1.7974 0.10478-2.3984 0.45703l-2.2344-0.14648c-1.8936-0.01442-2.4531 1.3197-2.373 2.5664v6.1152c0 1.7349 1.1375 3.5259 2.752 3.5957l7.5215 0.72656c0.15259 0.01334 0.29862-0.017549 0.43945-0.068359l4.5957 0.45117c0.68287 0.05975 1.6387-0.34497 2.1445-0.92383l3.4199 0.29883c0.36104 0.03158 0.66922-0.20938 0.69141-0.54102l0.42774-6.3906c0.02218-0.33162-0.25028-0.62466-0.61133-0.65625l-3.3789-0.29492v-1.3633c0-0.06248-0.012755-0.11874-0.015624-0.17969l1.0645 0.082032c0.51939 0.0059 0.93586-0.28279 0.94531-0.80469v-2.5977c0.02833-0.55983-0.24514-1.0671-1.0195-1.1348l-4.1562-0.36328c-0.08853-0.009726-0.16623-0.008378-0.23633 0zm-8.7305 2.8594a2.0895 1.9145 46.188 0 1 0.14062 0.007813 2.0895 1.9145 46.188 0 1 2 2.1758 2.0895 1.9145 46.188 0 1-2 1.8242 2.0895 1.9145 46.188 0 1-2-2.1738 2.0895 1.9145 46.188 0 1 1.8594-1.834z" color="#000000" fill="#fff" opacity=".75" stroke-width="1.2223"/>
</svg>
