<svg width="64" height="64" version="1.1" xmlns="http://www.w3.org/2000/svg">
<defs>
<filter id="filter920" color-interpolation-filters="sRGB">
<feFlood flood-color="rgb(255,255,255)" flood-opacity=".10196" result="flood"/>
<feComposite in="flood" in2="SourceGraphic" operator="out" result="composite1"/>
<feGaussianBlur in="composite1" result="blur"/>
<feOffset dx="0" dy="2" result="offset"/>
<feComposite in="offset" in2="SourceGraphic" operator="atop" result="composite2"/>
</filter>
<filter id="filter932" color-interpolation-filters="sRGB">
<feFlood flood-color="rgb(255,255,255)" flood-opacity=".10196" result="flood"/>
<feComposite in="flood" in2="SourceGraphic" operator="out" result="composite1"/>
<feGaussianBlur in="composite1" result="blur"/>
<feOffset dx="0" dy="2" result="offset"/>
<feComposite in="offset" in2="SourceGraphic" operator="atop" result="composite2"/>
</filter>
</defs>
<g transform="translate(-66)" stroke-width="2.1303">
<g transform="matrix(.55974 0 0 .56717 13.407 -45.623)" fill="none" stroke="#000" stroke-opacity=".2">
<path d="m148.53 163.19c-0.26074-0.66602-0.60742-1.4238-1.0293-2.2266l-2.6328 1.125c-1.8701-3.084-1.9834-9.5312-1.6338-11.615 0.83887-5 3.1377-9.4209 1.5625-14.53-1.8115-5.876-5.6768-15.04-11.895-17.446-3.5879-1.3887-6.3232 1.7402-8.0879 4.4873-2.7051 4.2119-4.1904 9.3203-4.6611 14.278-0.53418 5.6133 0.8164 11.363 3.4609 16.322 2.54 4.7656 6.8018 8.7598 8.5039 13.953l-2.2978 0.98242c0.16406 0.53321 0.3418 1.0488 0.53223 1.5332 1.8496 4.7207 8.0674 14.137 14.513 10.945 6.5596-3.25 5.8184-12.311 3.665-17.809z"/>
<path d="m148.53 163.19c-0.26074-0.66602-0.60742-1.4238-1.0293-2.2266l-2.6328 1.125c-1.8701-3.084-1.9834-9.5312-1.6338-11.615 0.83887-5 3.1377-9.4209 1.5625-14.53-1.8115-5.876-5.6768-15.04-11.895-17.446-3.5879-1.3887-6.3232 1.7402-8.0879 4.4873-2.7051 4.2119-4.1904 9.3203-4.6611 14.278-0.53418 5.6133 0.8164 11.363 3.4609 16.322 2.54 4.7656 6.8018 8.7598 8.5039 13.953-0.65886 0.21404-1.5319 0.65495-2.2978 0.98242 0.16406 0.53321 0.3418 1.0488 0.53223 1.5332 1.8496 4.7207 8.0674 14.137 14.513 10.945 6.5596-3.25 5.8184-12.311 3.665-17.809z"/>
</g>
<g transform="matrix(-.55972 0 0 .56717 182.59 -57.626)" fill="none" stroke="#000" stroke-opacity=".2">
<path d="m148.53 163.19c-0.26074-0.66602-0.60742-1.4238-1.0293-2.2266l-2.6328 1.125c-1.8701-3.084-1.9834-9.5312-1.6338-11.615 0.83887-5 3.1377-9.4209 1.5625-14.53-1.8115-5.876-5.6768-15.04-11.895-17.446-3.5879-1.3887-6.3232 1.7402-8.0879 4.4873-2.7051 4.2119-4.1904 9.3203-4.6611 14.278-0.53418 5.6133 0.8164 11.363 3.4609 16.322 2.54 4.7656 6.8018 8.7598 8.5039 13.953l-2.2978 0.98242c0.16406 0.53321 0.3418 1.0488 0.53223 1.5332 1.8496 4.7207 8.0674 14.137 14.513 10.945 6.5596-3.25 5.8184-12.311 3.665-17.809z"/>
<path d="m148.53 163.19c-0.26074-0.66602-0.60742-1.4238-1.0293-2.2266l-2.6328 1.125c-1.8701-3.084-1.9834-9.5312-1.6338-11.615 0.83887-5 3.1377-9.4209 1.5625-14.53-1.8115-5.876-5.6768-15.04-11.895-17.446-3.5879-1.3887-6.3232 1.7402-8.0879 4.4873-2.7051 4.2119-4.1904 9.3203-4.6611 14.278-0.53418 5.6133 0.8164 11.363 3.4609 16.322 2.54 4.7656 6.8018 8.7598 8.5039 13.953l-2.2978 0.98242c0.16406 0.53321 0.3418 1.0488 0.53223 1.5332 1.8496 4.7207 8.0674 14.137 14.513 10.945 6.5596-3.25 5.8184-12.311 3.665-17.809z"/>
</g>
<g transform="matrix(.55974 0 0 .56717 13.407 -46.624)" fill="#3465a4" filter="url(#filter932)" stroke="#3465a4">
<path d="m148.53 163.19c-0.26074-0.66602-0.60742-1.4238-1.0293-2.2266l-2.6328 1.125c-1.8701-3.084-1.9834-9.5312-1.6338-11.615 0.83887-5 3.1377-9.4209 1.5625-14.53-1.8115-5.876-5.6768-15.04-11.895-17.446-3.5879-1.3887-6.3232 1.7402-8.0879 4.4873-2.7051 4.2119-4.1904 9.3203-4.6611 14.278-0.53418 5.6133 0.8164 11.363 3.4609 16.322 2.54 4.7656 6.8018 8.7598 8.5039 13.953l-2.2978 0.98242c0.16406 0.53321 0.3418 1.0488 0.53223 1.5332 1.8496 4.7207 8.0674 14.137 14.513 10.945 6.5596-3.25 5.8184-12.311 3.665-17.809z"/>
<path d="m148.53 163.19c-0.26074-0.66602-0.60742-1.4238-1.0293-2.2266l-2.6328 1.125c-1.8701-3.084-1.9834-9.5312-1.6338-11.615 0.83887-5 3.1377-9.4209 1.5625-14.53-1.8115-5.876-5.6768-15.04-11.895-17.446-3.5879-1.3887-6.3232 1.7402-8.0879 4.4873-2.7051 4.2119-4.1904 9.3203-4.6611 14.278-0.53418 5.6133 0.8164 11.363 3.4609 16.322 2.54 4.7656 6.8018 8.7598 8.5039 13.953-0.65886 0.21404-1.5319 0.65495-2.2978 0.98242 0.16406 0.53321 0.3418 1.0488 0.53223 1.5332 1.8496 4.7207 8.0674 14.137 14.513 10.945 6.5596-3.25 5.8184-12.311 3.665-17.809z"/>
</g>
<g transform="matrix(-.55972 0 0 .56717 182.59 -58.626)" fill="#729fcf" filter="url(#filter920)" stroke="#729fcf">
<path d="m148.53 163.19c-0.26074-0.66602-0.60742-1.4238-1.0293-2.2266l-2.6328 1.125c-1.8701-3.084-1.9834-9.5312-1.6338-11.615 0.83887-5 3.1377-9.4209 1.5625-14.53-1.8115-5.876-5.6768-15.04-11.895-17.446-3.5879-1.3887-6.3232 1.7402-8.0879 4.4873-2.7051 4.2119-4.1904 9.3203-4.6611 14.278-0.53418 5.6133 0.8164 11.363 3.4609 16.322 2.54 4.7656 6.8018 8.7598 8.5039 13.953l-2.2978 0.98242c0.16406 0.53321 0.3418 1.0488 0.53223 1.5332 1.8496 4.7207 8.0674 14.137 14.513 10.945 6.5596-3.25 5.8184-12.311 3.665-17.809z"/>
<path d="m148.53 163.19c-0.26074-0.66602-0.60742-1.4238-1.0293-2.2266l-2.6328 1.125c-1.8701-3.084-1.9834-9.5312-1.6338-11.615 0.83887-5 3.1377-9.4209 1.5625-14.53-1.8115-5.876-5.6768-15.04-11.895-17.446-3.5879-1.3887-6.3232 1.7402-8.0879 4.4873-2.7051 4.2119-4.1904 9.3203-4.6611 14.278-0.53418 5.6133 0.8164 11.363 3.4609 16.322 2.54 4.7656 6.8018 8.7598 8.5039 13.953l-2.2978 0.98242c0.16406 0.53321 0.3418 1.0488 0.53223 1.5332 1.8496 4.7207 8.0674 14.137 14.513 10.945 6.5596-3.25 5.8184-12.311 3.665-17.809z"/>
</g>
</g>
</svg>
