<svg width="64" height="64" version="1.1" xmlns="http://www.w3.org/2000/svg">
<defs>
<filter id="filter924" color-interpolation-filters="sRGB">
<feFlood flood-color="rgb(0,0,0)" flood-opacity=".2" result="flood"/>
<feComposite in="flood" in2="SourceGraphic" operator="in" result="composite1"/>
<feGaussianBlur in="composite1" result="blur"/>
<feOffset dx="0" dy="1" result="offset"/>
<feComposite in="SourceGraphic" in2="offset" result="fbSourceGraphic"/>
<feColorMatrix in="fbSourceGraphic" result="fbSourceGraphicAlpha" values="0 0 0 -1 0 0 0 0 -1 0 0 0 0 -1 0 0 0 0 1 0"/>
<feFlood flood-color="rgb(255,255,255)" flood-opacity=".10196" in="fbSourceGraphic" result="flood"/>
<feComposite in="flood" in2="fbSourceGraphic" operator="out" result="composite1"/>
<feGaussianBlur in="composite1" result="blur"/>
<feOffset dx="0" dy="1" result="offset"/>
<feComposite in="offset" in2="fbSourceGraphic" operator="atop" result="composite2"/>
</filter>
</defs>
<g transform="translate(1)" filter="url(#filter924)">
<rect x="9.5839" y="9.5839" width="40.832" height="47.832" rx="1.3453" ry="1.3384" color="#000000" display="block" fill="#d3d7cf" fill-opacity=".99587" stroke="#d3d7cf" stroke-linecap="round" stroke-linejoin="round" stroke-opacity=".99608" stroke-width="1.1678"/>
<g fill="#9b9b9b" fill-opacity=".54971">
<rect x="20" y="16" width="23" height="1" rx=".15846" ry=".065391" color="#000000" display="block" stroke-width="1.0724"/>
<rect x="20" y="50" width="16" height="1" rx=".11023" ry=".065391" color="#000000" display="block" stroke-width="1.069"/>
<g stroke-width="1.0724">
<rect x="20" y="18" width="23" height="1" rx=".15846" ry=".065391" color="#000000" display="block"/>
<rect x="20" y="20" width="23" height="1" rx=".15846" ry=".065391" color="#000000" display="block"/>
<rect x="20" y="22" width="23" height="1" rx=".15846" ry=".065391" color="#000000" display="block"/>
<rect x="20" y="24" width="23" height="1" rx=".15846" ry=".065391" color="#000000" display="block"/>
<rect x="20" y="26" width="23" height="1" rx=".15846" ry=".065391" color="#000000" display="block"/>
<rect x="20" y="28" width="23" height="1" rx=".15846" ry=".065391" color="#000000" display="block"/>
<rect x="20" y="30" width="23" height="1" rx=".15846" ry=".065391" color="#000000" display="block"/>
<rect x="20" y="32" width="23" height="1" rx=".15846" ry=".065391" color="#000000" display="block"/>
<rect x="20" y="34" width="23" height="1" rx=".15846" ry=".065391" color="#000000" display="block"/>
</g>
<rect x="23" y="36" width="4" height="1" rx=".027558" ry=".065391" color="#000000" display="block" stroke-width=".44722"/>
<g stroke-width="1.0724">
<rect x="20" y="40" width="23" height="1" rx=".15846" ry=".065391" color="#000000" display="block"/>
<rect x="20" y="42" width="23" height="1" rx=".15846" ry=".065391" color="#000000" display="block"/>
<rect x="20" y="44" width="23" height="1" rx=".15846" ry=".065391" color="#000000" display="block"/>
<rect x="20" y="46" width="23" height="1" rx=".15846" ry=".065391" color="#000000" display="block"/>
<rect x="20" y="48" width="23" height="1" rx=".15846" ry=".065391" color="#000000" display="block"/>
</g>
</g>
<path d="m16.55 10.972s-0.19722-3.3134 2.8223-3.3845l10.54-0.040292c1.2191 0 1.5398 0.77777 1.5398 1.8227v31.419l-6.4522-6.582-6.4406 6.582-0.08707-29.815z" fill="#547299" fill-rule="evenodd" stroke="#547299" stroke-width="1.0944"/>
</g>
</svg>
