<svg width="22" height="22" version="1.1" xmlns="http://www.w3.org/2000/svg">
<defs>
<filter id="filter868" color-interpolation-filters="sRGB">
<feFlood flood-color="rgb(0,0,0)" flood-opacity=".2" result="flood"/>
<feComposite in="flood" in2="SourceGraphic" operator="in" result="composite1"/>
<feGaussianBlur in="composite1" result="blur"/>
<feOffset dx="0" dy="0.5" result="offset"/>
<feComposite in="SourceGraphic" in2="offset" result="composite2"/>
</filter>
</defs>
<path d="m4 1.5c-0.554 0-1 0.446-1 1v18c0 0.554 0.446 1 1 1h14c0.554 0 1-0.446 1-1v-13l-5.5-0.5-0.5-5.5z" opacity=".2"/>
<path d="m4 1c-0.554 0-1 0.446-1 1v18c0 0.554 0.446 1 1 1h14c0.554 0 1-0.446 1-1v-13l-5.5-0.5-0.5-5.5z" fill="#13a553"/>
<path d="m4 1c-0.554 0-1 0.446-1 1v0.5c0-0.554 0.446-1 1-1h9v-0.5z" fill="#fff" opacity=".2"/>
<path d="m13 1.5v5c0 0.5525 0.448 1 1 1h5z" opacity=".2"/>
<path d="m13 1v5c0 0.5525 0.448 1 1 1h5z" fill="#70c896"/>
<g transform="matrix(1.3333 0 0 1.2971 .33343 -.080832)" fill="#fff" filter="url(#filter868)">
<path d="m7.0311 11.969c0 0.66039 1.2007 0.30018 1.681 0.78046 0.48028 0.48028-1.1207 1.721-1.1207 1.721l1.6009-0.44026 0.64038 0.6804c0-0.82048 0.94055-1.4809 0.46027-1.9812-0.5003-0.5003-1.9211-0.44026-2.0012-1.1006z"/>
<path d="m9.2812 7.002c-0.30674-0.01753-0.50825 0.19609-1.0957 0.21094-0.49137 0.012418-0.71174-0.14648-1.2891-0.14648s-0.59313 0.831-1.0859 1.3848c-0.47764 0.53673-0.81055 0.8426-0.81055 1.4199 0 0.57732 0.51068 1.0283 0.83398 1.3516 0.30021 0.30021 0.3079 1.0579 0.6543 1.4043s1.2852-0.41016 1.6777-0.41016 0.69587 0.24073 1.3164 0.06836c0.62649-0.17402 0.37845-0.76516 0.60938-0.99609s0.9082-0.42578 0.9082-0.81836-0.30306-0.59421-0.30859-0.97852c-0.0097-0.6891-0.40184-0.66339-0.625-1.1797-0.1747-0.40417 0.08408-0.94362-0.42383-1.2012-0.14402-0.073029-0.25908-0.10353-0.36133-0.10938zm-0.42773 0.95117c0.068164 0.0039 0.14422 0.025534 0.24023 0.074219 0.3386 0.1717 0.16674 0.53134 0.2832 0.80078 0.14878 0.34419 0.40955 0.32771 0.41602 0.78711 0.00369 0.2562 0.20703 0.39063 0.20703 0.65234 0 0.26172-0.45152 0.39097-0.60547 0.54492s0.011408 0.54805-0.40625 0.66406c-0.41369 0.11491-0.61523-0.04687-0.87695-0.04687s-0.88821 0.50437-1.1191 0.27344c-0.23093-0.23093-0.23541-0.73541-0.43555-0.93555-0.21553-0.21553-0.55664-0.51551-0.55664-0.90039s0.22259-0.58945 0.54102-0.94727c0.32854-0.36918 0.33777-0.92188 0.72266-0.92188s0.53375 0.10398 0.86133 0.095703c0.39163-0.0099 0.52402-0.15231 0.72852-0.14062z"/>
<path d="m9.0328 9.0863c0.11158 0.25815 0.3076 0.24501 0.31245 0.58956 0.00276 0.19215 0.15472 0.29305 0.15472 0.48934s-0.339 0.29328-0.45447 0.40874c-0.11546 0.11546 0.0091 0.41157-0.30413 0.49858-0.31027 0.08619-0.46186-0.03464-0.65815-0.03464s-0.666 0.37849-0.8392 0.20529-0.17689-0.55169-0.327-0.70179c-0.16165-0.16165-0.41706-0.3875-0.41706-0.67616s0.16669-0.44105 0.40551-0.70941c0.2464-0.27688 0.25402-0.69279 0.54268-0.69279s0.3993 0.079183 0.64499 0.072974c0.39163-0.0099 0.43963-0.19617 0.72766-0.050112 0.25395 0.12877 0.12464 0.39833 0.21199 0.60042z"/>
</g>
</svg>
