<svg width="22" height="22" version="1" xmlns="http://www.w3.org/2000/svg">
<path d="m4 1.5c-0.554 0-1 0.446-1 1v18c0 0.554 0.446 1 1 1h14c0.554 0 1-0.446 1-1v-13l-5.5-0.5-0.5-5.5z" opacity=".2"/>
<path d="m4 1c-0.554 0-1 0.446-1 1v18c0 0.554 0.446 1 1 1h14c0.554 0 1-0.446 1-1v-13l-5.5-0.5-0.5-5.5z" fill="#e4e4e4"/>
<path d="m4 1c-0.554 0-1 0.446-1 1v0.5c0-0.554 0.446-1 1-1h9l5.5 5.5h0.5l-6-6z" fill="#fff" opacity=".2"/>
<path d="m13 1.5v5c0 0.5523 0.44772 1 1 1h5z" opacity=".2"/>
<path d="m13 1v5c0 0.5523 0.44772 1 1 1h5z" fill="#fafafa"/>
<g transform="translate(3 4)" fill="#727272" fill-rule="evenodd">
<rect x="7" y="2" width="1" height="1"/>
<rect x="7" y="4" width="1" height="1"/>
<rect x="5" y="4" width="1" height="1"/>
<rect x="5" y="6" width="1" height="1"/>
<rect x="7" y="6" width="1" height="1"/>
<rect x="9" y="6" width="1" height="1"/>
<rect x="4" y="8" width="1" height="1"/>
<rect x="7" y="8" width="1" height="1"/>
<rect x="10" y="8" width="1" height="1"/>
<rect x="3" y="10" width="1" height="1"/>
<rect x="7" y="10" width="1" height="1"/>
<rect x="11" y="10" width="1" height="1"/>
<rect x="12" y="12" width="1" height="1"/>
<rect x="7" y="12" width="1" height="1"/>
<rect x="2" y="12" width="1" height="1"/>
<rect x="7" y="14" width="1" height="1"/>
</g>
</svg>
