<svg width="22" height="22" version="1" xmlns="http://www.w3.org/2000/svg">
<defs>
<filter id="filter865" color-interpolation-filters="sRGB">
<feFlood flood-color="rgb(0,0,0)" flood-opacity=".2" result="flood"/>
<feComposite in="flood" in2="SourceGraphic" operator="in" result="composite1"/>
<feGaussianBlur in="composite1" result="blur"/>
<feOffset dx="0" dy="0.5" result="offset"/>
<feComposite in="SourceGraphic" in2="offset" result="composite2"/>
</filter>
</defs>
<path d="m4 1.5c-0.554 0-1 0.446-1 1v18c0 0.554 0.446 1 1 1h14c0.554 0 1-0.446 1-1v-13l-5.5-0.5-0.5-5.5z" opacity=".2"/>
<path d="m4 1c-0.554 0-1 0.446-1 1v18c0 0.554 0.446 1 1 1h14c0.554 0 1-0.446 1-1v-13l-5.5-0.5-0.5-5.5z" fill="#4f4f4f"/>
<path d="m4 1c-0.554 0-1 0.446-1 1v0.5c0-0.554 0.446-1 1-1h9l5.5 5.5h0.5l-6-6z" fill="#fff" opacity=".1"/>
<path d="m13 1.5v5c0 0.5523 0.44772 1 1 1h5z" opacity=".2"/>
<path d="m13 1v5c0 0.5523 0.44772 1 1 1h5z" fill="#696969"/>
<g transform="matrix(1.25,0,0,1.25,1,1.5)" filter="url(#filter865)" stroke-width=".49999">
<path d="m8 6 4 4-4 4-4-4z" fill="#fff"/>
<path d="m4.8623 10.692 0.14835-0.20576c0.12792 0.05394 0.26129 0.09745 0.39901 0.12955l-0.00115 0.31678c0.085928 0.01775 0.17337 0.03136 0.26198 0.04105l0.096793-0.30171c0.069114 0.0057 0.13897 0.0089 0.2096 0.0089 0.070553 0 0.14045-0.0031 0.20957-0.0089l0.096768 0.30172c0.088653-0.0097 0.17606-0.02331 0.26199-0.04106l-0.0012-0.31682c0.13776-0.03207 0.27108-0.07558 0.39901-0.12951l0.18532 0.25704c0.080828-0.03658 0.15956-0.07686 0.23603-0.12064l-0.099003-0.30094c0.11998-0.07277 0.23339-0.15536 0.339-0.24669l0.25556 0.18719c0.065419-0.05958 0.12804-0.1222 0.18758-0.18762l-0.18715-0.25552c0.091378-0.10562 0.17396-0.21898 0.24673-0.33904l0.30094 0.099048c0.043781-0.076508 0.084103-0.15528 0.1206-0.23607l-0.257-0.18528c0.053939-0.12792 0.097448-0.26129 0.12959-0.39905l0.31674 0.00116c0.017747-0.085933 0.031366-0.17338 0.041018-0.26203l-0.30168-0.096788c0.0058-0.069079 0.00887-0.13897 0.00887-0.20957 0-0.070594-0.00314-0.14045-0.00887-0.2096l0.30168-0.096788c-0.0096058-0.088613-0.023302-0.17602-0.040969-0.26198l-0.31682 0.0012c-0.032105-0.13776-0.075614-0.27113-0.12951-0.39901l0.257-0.18528c-0.036504-0.080828-0.076858-0.15956-0.12056-0.23607l-0.30098 0.099043c-0.072774-0.12002-0.15536-0.23339-0.2467-0.33896l0.18715-0.25557c-0.055919-0.061449-0.11473-0.12013-0.17587-0.17641l-3.7847 3.7847 0.20229 0.20229 0.060009-0.04393c0.10562 0.09133 0.21898 0.17392 0.339 0.24669l-0.048609 0.14769 0.22261 0.2226z" fill="#464646" opacity=".5"/>
<path d="m8.9759 11.789c0-1.3027 0.85058-2.4066 2.0265-2.7872l-0.44739-0.44743c-0.0034 0.0014-0.0068 0.0026-0.01016 0.00405l-0.03646-0.050594-0.28366-0.28366c-0.09305 0.043972-0.18416 0.091298-0.27308 0.14216l0.13944 0.42373c-0.16902 0.10239-0.32862 0.21871-0.47726 0.34728l-0.35982-0.2635c-0.092153 0.083863-0.18026 0.17197-0.26409 0.26409l0.26346 0.35978c-0.12858 0.1487-0.24486 0.30829-0.34728 0.47726l-0.42376-0.13944c-0.061604 0.10776-0.11835 0.21863-0.16975 0.33242l0.36185 0.26082c-0.075928 0.18007-0.13718 0.36784-0.18235 0.56179l-0.44599-0.0017c-0.024942 0.12099-0.044169 0.24412-0.057754 0.36885l0.42478 0.13629c-0.00809 0.09729-0.012452 0.19568-0.012455 0.29503-1e-7 0.0994 0.00436 0.19778 0.012455 0.29506l-0.42478 0.13616c0.01358 0.12481 0.032809 0.2479 0.057789 0.36889l0.44595-0.0016c0.045183 0.19395 0.10643 0.38172 0.18236 0.56179l-0.36184 0.26086c0.028605 0.06324 0.059034 0.12554 0.090828 0.18692l0.76418-0.76418c-0.12376-0.32429-0.1917-0.67619-0.19169-1.0439z" fill="#464646" opacity=".5"/>
</g>
</svg>
