<svg width="16" height="16" version="1.1" xmlns="http://www.w3.org/2000/svg">
<g>
<ellipse cx="8" cy="8" rx="7" ry="7" fill="#252a35"/>
<path d="m7.076 4c-0.041469 0-0.076023 0.057336-0.076023 0.12615l0.34503 4.745c0 0.068809 0.034554 0.12615 0.076023 0.12615 0 0 0.27246 0.00391 0.49708 0 0.073991-0.00128 0.096634 0.00668 0.16374 0 0.22462 0.00391 0.49708 0 0.49708 0 0.041469 0 0.076023-0.057336 0.076023-0.12615l0.34503-4.745c0-0.068809-0.034554-0.11644-0.076023-0.11644h-0.83626c-0.00308-6.243e-4 -0.00266-0.0097-0.00585-0.0097z" fill="#fff"/>
<ellipse cx="8" cy="11" rx="1" ry="1" fill="#fff"/>
</g>
</svg>
