<svg width="22" height="22" version="1.1" xmlns="http://www.w3.org/2000/svg">
<defs>
<style id="current-color-scheme" type="text/css">.ColorScheme-Text { color:#444444; } .ColorScheme-Highlight { color:#4285f4; }</style>
</defs>
<g fill="#444">
<g>
<path d="m11 4c-4.4183 0-8 3.5817-8 8 0 4.4185 3.5817 8 8 8 1.3041 0 2.5313-0.31754 3.6191-0.87109-0.17932-0.28306-0.32237-0.58752-0.42578-0.90625-0.95834 0.49285-2.0416 0.77734-3.1934 0.77734-3.866 0-7-3.1338-7-7 0-3.866 3.134-7 7-7 4.4459 0.99213 6.9161 4.213 7 6.666l0.98047 0.73438c0.006619-0.13346 0.019531-0.26529 0.019531-0.40039 0-4.4183-3.5821-8-8-8z"/>
<path d="m14.355 6.1953-0.50586 0.11914-0.32031 0.21094v0.18164l-0.50586 0.33203 0.10742 0.48047 0.29297-0.20898 0.18555 0.20898 0.21289 0.12109 0.13476-0.36133-0.082031-0.21094 0.082031-0.15039 0.29102-0.27148h0.13281l-0.13281 0.30078v0.27148c0.12231-0.033288 0.24788-0.044984 0.37305-0.060547l-0.3457 0.24219-0.027344 0.15039-0.39844 0.33203-0.39844-0.091797v-0.24023l-0.1875 0.12109 0.080078 0.21094h-0.29297l-0.16016 0.27148-0.19922 0.22461-0.35938 0.076172 0.21289 0.21094 0.052734 0.21094h-0.26562l-0.3457 0.17969v0.54297h0.16016l0.14648 0.16602 0.33203-0.16602 0.13281-0.33203 0.24024-0.15039 0.052734-0.12109 0.40039-0.089844 0.21094 0.24219 0.24024 0.11914-0.13281 0.27148 0.21289-0.060547 0.10742-0.27148-0.26758-0.30078h0.10742l0.26562 0.21094 0.052735 0.30273 0.24023 0.26953 0.052735-0.39062 0.13476-0.060547c0.13161 0.13663 0.2329 0.29741 0.34375 0.45117l0.40039 0.03125 0.24023 0.15039-0.10742 0.15039-0.23828 0.21094h-0.34766l-0.45117-0.15039-0.24023 0.029297-0.17383 0.19531-0.49219-0.49609-0.3457-0.089844-0.50586 0.058594-0.45312 0.12109c-0.25392 0.28786-0.50381 0.57409-0.74414 0.87305l-0.29297 0.69336 0.13281 0.15234-0.24024 0.35938 0.26758 0.63476c0.22634 0.25604 0.45172 0.51135 0.67774 0.76758l0.33398-0.28711 0.14648 0.16602 0.35937-0.22461 0.11914 0.13477h0.35938l0.20703 0.23438-0.12695 0.41406 0.25195 0.28516-0.013671 0.49805 0.1875 0.36133-0.13281 0.30078c-0.01326 0.22169-0.027344 0.44233-0.027344 0.66406 0.08523 0.23469 0.16816 0.46936 0.25 0.70508a4 4 0 0 1 2.793-3.4531l0.23047-0.56641v-0.21094c-0.15332 0.019316-0.30322 0.023923-0.45312 0.035156l0.30664-0.30664 0.43945-0.30273 0.24023-0.26953v-0.30274c-0.053281-0.10048-0.10651-0.2003-0.16016-0.30078l-0.21289 0.24023-0.16016-0.17969-0.23828-0.18164v-0.39062l0.2793 0.31641 0.30664-0.044922c0.13945 0.12659 0.27613 0.24649 0.39844 0.39062l0.19922-0.22461c0-0.2396-0.27415-1.4209-0.85742-2.4219-0.58327-1.0006-1.6035-1.9141-1.6035-1.9141l-0.080078 0.13281-0.26758 0.30078-0.3457-0.36133h0.3457l0.16016-0.18164-0.63867-0.12109-0.3457-0.11914zm1.2246 4.3984 0.30469 0.3457 0.35938 0.76953 0.21289 0.24024-0.10547 0.27148 0.19336 0.2207c-0.090643 0.00599-0.18027 0.021485-0.27344 0.021485-0.16951-0.3562-0.2967-0.7133-0.42578-1.0859l-0.22656-0.25586-0.11914-0.4375 0.080078-0.089844zm0.61133 4.4512a2.6667 2.6667 0 0 0-0.85742 1.9434l0.17969-0.20312-0.066406-0.19531 0.3457-0.30078-0.25391-0.28711 0.30664-0.25586 0.29297-0.18164 0.13281-0.15039-0.080078-0.33203v-0.037109z" color="#000000"/>
<g stroke-width="1.0179">
<g transform="matrix(.36619 0 0 .36619 1.8499 3.2946)" color="#000000">
<path d="m26.07 9.2363-0.0732 0.4932 0.5098 0.3291 0.8711-0.5757-0.4355-0.4937-0.582 0.3296-0.29-0.0825" color="#000000" fill="#444"/>
</g>
<g transform="matrix(.36619 0 0 .36619 1.8499 3.2946)" color="#000000">
<path d="m26.87 5.8633-1.8906-0.7407-2.1797 0.2466-2.6904 0.7402-0.5088 0.4941 1.6719 1.1514v0.6582l-0.6543 0.6582 0.873 1.729 0.5801-0.3301 0.7285-1.1514c1.123-0.3472 2.1299-0.7407 3.1973-1.2344l0.873-2.2212" color="#000000" fill="#444"/>
</g>
<g transform="matrix(.36619 0 0 .36619 1.8499 3.2946)" color="#000000">
<path d="m28.833 12.775-0.291-0.7412-0.5098 0.165 0.1465 0.9043 0.6543-0.3281" color="#000000" fill="#444"/>
</g>
<g transform="matrix(.36619 0 0 .36619 1.8499 3.2946)" color="#000000">
<path d="m29.123 12.609-0.1455 0.9883 0.7998-0.165 0.5811-0.5752-0.5088-0.4941c-0.1709-0.4551-0.3672-0.8799-0.5811-1.3164h-0.4355v0.4932l0.29 0.3291v0.7402" color="#000000" fill="#444"/>
</g>
<g transform="matrix(.36619 0 0 .36619 1.8499 3.2946)" color="#000000">
<path d="m18.365 28.242-0.582-1.1523-1.0903-0.2466-0.5815-1.5625-1.4536 0.1641-1.2354-0.9043-1.3091 1.1514v0.1816c-0.396-0.1143-0.8828-0.1299-1.2354-0.3467l-0.291-0.8223v-0.9053l-0.8721 0.082c0.0728-0.5762 0.145-1.1514 0.2183-1.7275h-0.5093l-0.5083 0.6582-0.5093 0.2461-0.7271-0.4102-0.0728-0.9053 0.1455-0.9873 1.0908-0.8223h0.8721l0.145-0.4941 1.0903 0.2461 0.7998 0.9883 0.1455-1.6465 1.3813-1.1514 0.5088-1.2344 1.0176-0.4111 0.5815-0.8223 1.3081-0.248 0.6548-0.9863h-1.9629l1.2358-0.5762h0.8716l1.2363-0.4121 0.1455-0.4922-0.4365-0.4121-0.5088-0.165 0.1455-0.4932-0.3633-0.7402-0.8726 0.3281 0.1455-0.6577-1.0176-0.5762-0.7993 1.3979 0.0723 0.4941-0.7993 0.3301-0.5093 1.0693-0.2178-0.9873-1.3813-0.5762-0.2183-0.7402 1.8174-1.0703 0.7998-0.7402 0.0728-0.9048-0.436-0.2471-0.5815-0.0825-0.3633 0.9053s-0.6079 0.1191-0.7642 0.1577c-1.9961 1.8394-6.0293 5.8101-6.9663 13.306 0.0371 0.1738 0.6792 1.1816 0.6792 1.1816l1.5264 0.9043 1.5264 0.4121 0.6548 0.8232 1.0171 0.7402 0.5815-0.082 0.436 0.1963v0.1328l-0.5811 1.563-0.4365 0.6582 0.1455 0.3301-0.3633 1.2324 1.3086 2.3867 1.3081 1.1523 0.582 0.8223-0.0732 1.7285 0.4365 0.9863-0.4365 1.8926s-0.0342-0.0117 0.0215 0.1777c0.0562 0.1895 2.3291 1.4512 2.4736 1.3438 0.144-0.1094 0.2671-0.2051 0.2671-0.2051l-0.145-0.4102 0.5811-0.5762 0.2183-0.5762 0.9453-0.3301 0.7266-1.8105-0.2178-0.4922 0.5078-0.7402 1.0908-0.248 0.582-1.3164-0.1455-1.6445 0.8721-1.2344 0.1455-1.2344c-1.1934-0.5918-2.377-1.2012-3.5615-1.8105" color="#000000" fill="#444"/>
</g>
<g transform="matrix(.36619 0 0 .36619 1.8499 3.2946)" color="#000000">
<path d="m16.766 9.5649 0.7266 0.4937h0.582v-0.5757l-0.7266-0.3291-0.582 0.4111" color="#000000" fill="#444"/>
</g>
<g transform="matrix(.36619 0 0 .36619 1.8499 3.2946)" color="#000000">
<path d="m14.876 8.9072-0.3638 0.9048h0.7271l0.3638-0.8228c0.3135-0.2217 0.6255-0.4448 0.9448-0.6582l0.7271 0.2471c0.4844 0.3291 0.9688 0.6582 1.4536 0.9868l0.7275-0.6577-0.8003-0.3291-0.3638-0.7407-1.3809-0.1646-0.0728-0.4116-0.6543 0.165-0.2904 0.5758-0.3638-0.7407-0.145 0.3291 0.0728 0.8228-0.5816 0.494" color="#000000" fill="#444"/>
</g>
<g transform="matrix(.36619 0 0 .36619 1.8499 3.2946)" color="#000000" opacity=".75"></g>
<g transform="matrix(.36619 0 0 .36619 1.8499 3.2946)" color="#000000"></g>
<g transform="matrix(.36619 0 0 .36619 1.8499 3.2946)" color="#000000" opacity=".75"></g>
<g transform="matrix(.36619 0 0 .36619 1.8499 3.2946)" color="#000000"></g>
<g transform="matrix(.36619 0 0 .36619 1.8499 3.2946)" color="#000000">
<path d="m17.492 6.8496 0.3638-0.3286 0.7271-0.1646c0.498-0.2422 0.998-0.4053 1.5264-0.5762l-0.29-0.4937-0.9385 0.1348-0.4434 0.4419-0.731 0.106-0.6499 0.3052-0.3159 0.1528-0.1929 0.2583 0.9443 0.1641" color="#000000" fill="#444"/>
</g>
<g transform="matrix(.36619 0 0 .36619 1.8499 3.2946)" color="#000000">
<path d="m18.728 14.666 0.4365-0.6582-0.6548-0.4932 0.2183 1.1514" color="#000000" fill="#444"/>
</g>
</g>
</g>
<path class="ColorScheme-Highlight" d="m18 13v1a3 3 0 0 0-3 3 3 3 0 0 0 3 3 3 3 0 0 0 3-3h-1a2 2 0 0 1-2 2 2 2 0 0 1-2-2 2 2 0 0 1 2-2v1l0.98438-0.73828a2 2 0 0 1 0.015625 0.007812v-0.019531l1-0.75-1-0.75z" color="#4285f4"/>
</g>
</svg>
