<svg width="22" height="22" version="1.1" xmlns="http://www.w3.org/2000/svg">
<defs>
<style id="current-color-scheme" type="text/css">.ColorScheme-Text { color:#444444; } .ColorScheme-Highlight { color:#4285f4; }</style>
</defs>
<g fill="currentColor">
<path d="m6.5 3c-0.831 0-1.5 0.669-1.5 1.5v0.5h12v-0.5c0-0.831-0.669-1.5-1.5-1.5h-9zm-1.5 4v2h12v-2h-12zm0 4v2h9 3v-1-1h-12zm0 4v2h8.416c-0.030932-0.45381-0.079899-1.1453-0.080078-1.1738-0.29387-0.075698-0.42927-0.48154-0.26172-0.82617h-8.0742z" color="#444444"/>
<path d="m5 5v2h12v-2h-12zm0 4v2h12v-2h-12zm0 4v2h8.0742c6.47e-4 -0.0013 0.001253-0.002606 0.001953-0.003906 0.022037-0.044632 0.48106-1.2134 0.49609-1.2422 0.086455-0.16573 0.24591-0.17148 0.43555-0.17188 0.011793-6.5e-5 1.5019-0.003149 2.9922-0.005859v-0.57617h-12zm0 4v0.5c0 0.831 0.669 1.5 1.5 1.5h7.0547c-0.05905-0.84208-0.08597-1.2267-0.13867-2h-8.416z" color="#444444" opacity=".3"/>
<path d="m15 3v10.58c0.55955-1e-3 1.0039-0.0021 2-0.0039v-9.0762c0-0.831-0.669-1.5-1.5-1.5z" color="#444444" opacity=".3"/>
</g>
<g transform="translate(-9.8635 1.9779)" fill="#444" fill-rule="evenodd" stroke-width=".4629">
<path d="m24.114 14.122c-6e-3 -0.0048 0.23611 3.4302 0.23617 3.4313 0.02269 0.34303 0.21314 0.46831 0.42638 0.46882 0.0076 1.7e-5 3.9999-5.57e-4 4.0853-9.29e-4 0.35908-0.0015 0.44692-0.21936 0.47053-0.45793 0.0019-0.0047 0.2433-3.4369 0.24519-3.4412z"/>
<path d="m29.058 12.451c-0.01795 6.32e-4 -4.422 0.0083-4.4395 0.0084-0.14222 2.99e-4 -0.26148 0.0038-0.32632 0.12812-0.01127 0.02162-0.35486 0.89856-0.37139 0.93203-0.14138 0.2864-0.01076 0.64724 0.26232 0.64478 0.05193-4.41e-4 5.3805 0.0022 5.4636 0 0.23246-0.0062 0.26232-0.42418 0.16226-0.61214-0.0057-0.01065-0.47044-0.97688-0.48225-0.99401-0.05478-0.07645-0.17749-0.11032-0.26862-0.10719zm-0.31155 0.57291c0.08482 9.52e-4 0.10799-0.01116 0.15655 0.0564 0.0105 0.01516 0.3068 0.52699 0.31635 0.55726 0.0235 0.07457-0.0078 0.09894-0.11178 0.09894-0.07338 0-4.4128-7.57e-4 -4.4585 0-0.12992 0.0021-0.18347-0.01824-0.14603-0.12322 0.011-0.03087 0.20648-0.48266 0.21345-0.50285 0.03019-0.08753 0.03893-0.08814 0.17307-0.08654 1.3458-2e-5 2.5111 6e-6 3.8569 1e-5z"/>
</g>
</svg>
