<svg width="22" height="22" version="1.1" viewBox="0 0 22 22" xmlns="http://www.w3.org/2000/svg">
<defs>
<style id="current-color-scheme" type="text/css">.ColorScheme-Text { color:#444444; } .ColorScheme-Highlight { color:#4285f4; }</style>
</defs>
<path d="m4.9902 6.043c-0.53956 4.39e-5 -0.99023 0.43986-0.99023 0.98438v8.9863c0 0.5445 0.45068 0.98635 0.99023 0.98633h7.0098v-1.4707l2.5332-2.4688 0.10352-0.10156 0.24023-0.33398h-0.95312s0.87311-0.1561 0.99219-1.125c0.11908-0.96889-1.3477-2.0547-1.3477-2.0547v0.039062c0.0019 0.011 0.010272 0.059252 0.013672 0.076172l-1.959 2.9082h1.666l0.30664-2.8418c0.08672 0.42101 0.38396 1.7732 0.13086 2.3379-0.11908 0.54261-0.47656 0.6582-0.47656 0.6582h-1.8262l0.048828 0.37695h-6.4727v-6h12v3.6543l0.066406-0.064453 0.93359 0.91016v-4.4727c0-0.5445-0.4487-0.9844-0.98828-0.98438h-12.021z" fill="#444"/>
<circle cx="7.5254" cy="9.5085" r="1.5" fill="#444" fill-rule="evenodd"/>
<path d="m17 11.996-4 4v2h2l4-4z" color="#444444" fill="currentColor"/>
</svg>
