<svg width="22" height="22" version="1.1" xmlns="http://www.w3.org/2000/svg">
<defs>
<style id="current-color-scheme" type="text/css">.ColorScheme-Text { color:#444444; } .ColorScheme-Highlight { color:#4285f4; }</style>
</defs>
<path d="m3.3672 3 0.0019531 0.0019531c-0.14978-0.00737-0.29315 0.10068-0.34375 0.23438-0.007012-0.016365-0.018966-0.02767-0.025391-0.044922v13.186c0 0.0016 0.0017531 0.002006 0.0019531 0.003906v1.082c0.0194 0.47264 0.48225 0.811 1.0215 0.8457 5.0842 0.32716 8.7578 0.68555 8.7578 0.68555 0.10895 0.0298 0.2168-0.068246 0.2168-0.19727v-1.7676l1.1621 0.029297 3.8398-3.8398v-2.5566c0-0.17342-0.13181-0.47821-0.45703-0.54297l-1.0527-0.25391c-0.34967-0.069614-0.49023-0.38198-0.49023-0.58398v-5.5273c0-0.17339-0.18316-0.35616-0.36719-0.36523l-12.266-0.38867zm14.633 13.781-0.36133 0.36133c0.18131 0.003905 0.36133-0.15533 0.36133-0.32617v-0.035156z" fill="#444" stroke-width="1.1484"/>
<path class="ColorScheme-Text" d="m19.806 13c-0.09101 0-0.18273 0.03479-0.2534 0.10547l-0.6972 0.70312 1.3358 1.3359 0.70306-0.69726c0.14135-0.14135 0.14135-0.36401 0-0.50537l-0.83635-0.83642c-0.07067-0.07068-0.16092-0.10547-0.25193-0.10547zm-1.4808 1.3389-3.3249 3.3252v1.3359h1.3358l3.3249-3.3252z" color="#444444" fill="#444"/>
</svg>
