<svg width="22" height="22" version="1.1" xmlns="http://www.w3.org/2000/svg">
<defs>
<style id="current-color-scheme" type="text/css">.ColorScheme-Text { color:#444444; } .ColorScheme-Highlight { color:#4285f4; }</style>
</defs>
<path d="m3.3672 3 0.0019531 0.0019531c-0.14978-0.00737-0.29315 0.10068-0.34375 0.23438-0.007012-0.016365-0.018966-0.02767-0.025391-0.044922v13.186c0 0.0016 0.0017531 0.002006 0.0019531 0.003906v1.082c0.0194 0.47264 0.48225 0.811 1.0215 0.8457 5.0842 0.32716 8.7578 0.68555 8.7578 0.68555 0.10895 0.0298 0.2168-0.068246 0.2168-0.19727v-1.7676l1.4219 0.035156c-0.033862-0.49564-0.085238-1.2293-0.083984-1.2402-0.29471-0.076207-0.43017-0.48292-0.25977-0.82812 0.02204-0.044627 0.48106-1.2134 0.49609-1.2422 0.086454-0.16573 0.24592-0.16952 0.43555-0.16992 0.011799-6.5e-5 1.5019-0.003149 2.9922-0.005859v-2.916c0-0.17342-0.13181-0.47821-0.45703-0.54297l-1.0527-0.25391c-0.34967-0.069614-0.49023-0.38198-0.49023-0.58398v-5.5273c0-0.17339-0.18316-0.35616-0.36719-0.36523l-12.266-0.38867z" fill="#444" stroke-width="1.1484"/>
<g transform="translate(-8.8632 1.9779)" fill="#444" fill-rule="evenodd" stroke-width=".4629">
<path d="m24.114 14.122c-6e-3 -0.0048 0.23611 3.4302 0.23617 3.4313 0.02269 0.34303 0.21314 0.46831 0.42638 0.46882 0.0076 1.7e-5 3.9999-5.57e-4 4.0853-9.29e-4 0.35908-0.0015 0.44692-0.21936 0.47053-0.45793 0.0019-0.0047 0.2433-3.4369 0.24519-3.4412z"/>
<path d="m29.058 12.451c-0.01795 6.32e-4 -4.422 0.0083-4.4395 0.0084-0.14222 2.99e-4 -0.26148 0.0038-0.32632 0.12812-0.01127 0.02162-0.35486 0.89856-0.37139 0.93203-0.14138 0.2864-0.01076 0.64724 0.26232 0.64478 0.05193-4.41e-4 5.3805 0.0022 5.4636 0 0.23246-0.0062 0.26232-0.42418 0.16226-0.61214-0.0057-0.01065-0.47044-0.97688-0.48225-0.99401-0.05478-0.07645-0.17749-0.11032-0.26862-0.10719zm-0.31155 0.57291c0.08482 9.52e-4 0.10799-0.01116 0.15655 0.0564 0.0105 0.01516 0.3068 0.52699 0.31635 0.55726 0.0235 0.07457-0.0078 0.09894-0.11178 0.09894-0.07338 0-4.4128-7.57e-4 -4.4585 0-0.12992 0.0021-0.18347-0.01824-0.14603-0.12322 0.011-0.03087 0.20648-0.48266 0.21345-0.50285 0.03019-0.08753 0.03893-0.08814 0.17307-0.08654 1.3458-2e-5 2.5111 6e-6 3.8569 1e-5z"/>
</g>
</svg>
