<svg width="22" height="22" version="1.1" xmlns="http://www.w3.org/2000/svg">
<defs>
<style id="current-color-scheme" type="text/css">.ColorScheme-Text { color:#444444; } .ColorScheme-Highlight { color:#4285f4; }</style>
</defs>
<g transform="translate(-25)" stroke-width=".77746">
<path d="m29.246 2v0.00195c-0.09983-0.00507-0.19674 0.068244-0.23047 0.16016-0.0047-0.011248-0.011345-0.017433-0.015625-0.029294v9.0625c0 0.0011 0.0019 0.0026 2e-3 0.0039v0.74414c0.01293 0.32494 0.3202 0.55818 0.67969 0.58203 0.90942 0.06035 1.5463 0.11362 2.3184 0.17188v-5.5644c0.0043 0.011861 0.01093 0.018046 0.01563 0.029297 0.03373-0.091913 0.13064-0.16523 0.23047-0.16016v-0.0019532l6.7402 0.22656c-0.015637-0.12128-0.094987-0.29177-0.29107-0.33203l-0.9082-0.17578c-0.23311-0.04786-0.32617-0.26151-0.32617-0.40039v-3.7988c0-0.1192-0.12146-0.24571-0.24414-0.25195z" fill="#434343" fill-opacity=".29804"/>
<path d="m33.245 8.0001 0.0015 0.00153c-0.09983-0.0050747-0.19614 0.069238-0.22987 0.16115-0.0047-0.011251-0.01224-0.018834-0.01652-0.030695v9.064c0 0.0011 0.0014 0.0018 0.0015 0.0031v0.74435c0.01293 0.32494 0.3211 0.5578 0.68059 0.58166 3.3894 0.22492 6.0967 0.47116 6.0967 0.47116 0.07263 0.02049 0.14423-0.04789 0.14423-0.13659v-1.214l2.8305 0.07827c0.12269 0.0062 0.24639-0.1064 0.24639-0.22561v-4.2313c0-0.11923-0.08817-0.32842-0.30498-0.37294l-0.90738-0.17496c-0.23311-0.04786-0.32602-0.26169-0.32602-0.40057v-3.8c0-0.1192-0.12221-0.24546-0.24489-0.25169l-7.9716-0.26704z" fill="#444"/>
</g>
</svg>
