<svg width="22" height="22" version="1.1" xmlns="http://www.w3.org/2000/svg">
<defs>
<style id="current-color-scheme" type="text/css">.ColorScheme-Text { color:#444444; } .ColorScheme-Highlight { color:#4285f4; }</style>
</defs>
<path d="m4.5318 16.563c-0.16711-0.01659-0.33423-0.19742-0.33423-0.36166v-12.359c0-0.16423 0.16711-0.31188 0.33423-0.29528l10.938 1.0704c0.16711 0.016597 0.33422 0.19742 0.33422 0.36166v5.0502c0 0.2344 0.15086 0.47992 0.38169 0.55687l1.324 0.43782c0.20162 0.06718 0.29244 0.21718 0.29244 0.52177v5.9291c0 0.16423-0.16711 0.31188-0.33422 0.29528z" color="#000000" fill="#b9b9b9" stroke="#b9b9b9" stroke-linecap="round" stroke-linejoin="round" stroke-width=".39516"/>
<path d="m4.3748 3.6488c-0.086839 0.040398-0.17368 0.1212-0.17368 0.2424v13.009c0 0.08081 0.051865 0.20354 0.10856 0.27658 0.16078 0.20715 0.25148 0.25576 0.39976 0.34868 1.5257 0.95604 7.9158 2.2673 7.9158 2.2673 0.08683 0.0404 0.17368-0.0404 0.17368-0.1616v-13.64c0-0.1212-6.6141-0.64674-7.9204-1.8993l-0.50413-0.48359z" color="#000000" display="block" fill="#444" stroke="#444" stroke-linejoin="round" stroke-width=".40215"/>
</svg>
