<svg width="22" height="22" version="1.1" xmlns="http://www.w3.org/2000/svg">
<defs>
<style id="current-color-scheme" type="text/css">.ColorScheme-Text { color:#444444; } .ColorScheme-Highlight { color:#4285f4; }</style>
</defs>
<g transform="matrix(1 0 0 1.0172 3 2.983)" fill="#444">
<path d="m2.3184 1 0.00195 0.00195c-0.12978-0.006459-0.25498 0.088111-0.29883 0.20508-0.00607-0.014318-0.015915-0.023968-0.021484-0.039062v11.535c0 0.0014 0.00184 0.0024 0.00195 0.0039v0.94727c0.01681 0.41352 0.41743 0.70987 0.88477 0.74023 2.0062 0.13032 3.7232 0.2597 5.1133 0.36914v-0.76367l-3-3 5-5 5 5v-3.2969c0-0.15173-0.11462-0.41795-0.39648-0.47461l-1.1797-0.22266c-0.30305-0.060902-0.42383-0.33303-0.42383-0.50977v-4.8359c0-0.1517-0.15887-0.31237-0.31836-0.32031l-10.363-0.33984zm12.682 10-2.3203 2.3203 2 0.05469c0.1595 0.0079 0.32031-0.13541 0.32031-0.28711v-2.0879z"/>
<path class="ColorScheme-Text" d="m10 8-3 3 1 1 1-1v3h2v-3l1 1 1-1z" color="#444444"/>
</g>
</svg>
