<svg width="22" height="22" version="1.1" xmlns="http://www.w3.org/2000/svg">
<defs>
<style id="current-color-scheme" type="text/css">.ColorScheme-Text { color:#444444; } .ColorScheme-Highlight { color:#4285f4; }</style>
</defs>
<g transform="translate(2 3)" fill="#444">
<path d="m2.3184 1 0.00195 0.00195c-0.12977-0.0064532-0.25498 0.088104-0.29882 0.20508-0.00607-0.014319-0.015915-0.023967-0.021484-0.039062v11.537c0 0.0014 0.00184 0.0024 0.00195 0.0039v0.94727c0.01681 0.41356 0.41743 0.70987 0.88477 0.74023 2.678 0.17399 4.6815 0.32969 6.1133 0.44727v-2.2539l5-5 1 1v-0.88672c0-0.15174-0.11462-0.41794-0.39648-0.47461l-1.1797-0.22266c-0.30305-0.060907-0.42383-0.33301-0.42383-0.50977v-4.8359c0-0.15171-0.15887-0.31237-0.31836-0.32031z"/>
<path class="ColorScheme-Text" d="m14 9-4 4v1.996l2 4e-3 4-4z" color="#444444"/>
</g>
</svg>
