<svg width="22" height="22" version="1.1" xmlns="http://www.w3.org/2000/svg">
<defs>
<style id="current-color-scheme" type="text/css">.ColorScheme-Text { color:#444444; } .ColorScheme-Highlight { color:#4285f4; }</style>
</defs>
<g transform="translate(-40 -1)" fill="#434343" fill-opacity=".29804" stroke-width=".77746">
<path d="m49.245 9.0001 0.0015 0.0015c-0.09983-0.0051-0.19614 0.06924-0.22987 0.16115-0.0047-0.01125-0.01223-0.01883-0.01652-0.03069v9.064c0 0.0011 0.0014 0.0018 0.0015 0.0031v0.74435c0.01293 0.32494 0.3211 0.55781 0.68059 0.58166 3.3895 0.22492 6.171 0.47116 6.171 0.47116 0.07263 0.02049 0.14423-0.04789 0.14423-0.13659v-1.214l2.7563 0.07827c0.12271 0.0062 0.24641-0.1064 0.24641-0.22561v-4.2313c0-0.11923-0.08817-0.32842-0.30498-0.37294l-1.3684-0.17494c-0.23311-0.04786-0.32602-0.26169-0.32602-0.40057v-3.8c0-0.1192-0.12221-0.24546-0.24489-0.25169l-7.5106-0.26704z"/>
<path d="m43.246 4v0.00195c-0.09983-0.0051-0.19674 0.068246-0.23047 0.16016-0.0047-0.011247-0.011335-0.017434-0.015625-0.029294v9.0625c0 0.0011 0.0019 0.0026 2e-3 0.0039v0.74414c0.01293 0.32494 0.3202 0.55818 0.67969 0.58203 1.6796 0.11145 3.2018 0.22899 4.3184 0.31836v-6.7109c0.0043 0.01186 0.01093 0.018047 0.01563 0.029297 0.03373-0.09191 0.13064-0.16526 0.23047-0.16016v-0.0019532l2.7539 0.097656v-3.5781c0-0.1192-0.12146-0.24572-0.24414-0.25195z"/>
</g>
</svg>
