<svg width="22" height="22" version="1.1" xmlns="http://www.w3.org/2000/svg">
<defs>
<style id="current-color-scheme" type="text/css">.ColorScheme-Text { color:#444444; } .ColorScheme-Highlight { color:#4285f4; }</style>
</defs>
<ellipse cx="11" cy="16.408" rx="4.0001" ry="1.592" color="#000000" fill="#444" fill-rule="evenodd" stroke-width="1.0523"/>
<ellipse cx="11" cy="16.273" rx="3.6095" ry="1.3177" color="#000000" fill="none" stroke-width="1.0523"/>
<g stroke-width=".99996">
<ellipse cx="10.975" cy="15.378" rx="3.1798" ry="1.3574" color="#000000" fill="none"/>
<rect x="9.0001" y="13.999" width="4" height="1.9999" color="#000000" fill="#444" fill-rule="evenodd"/>
<path d="m3.6769 3c-0.45233 0-0.65755 0.26002-0.67383 0.58008l-0.00304 10.582c-0.02353 0.46248 0.36603 0.83594 0.81836 0.83594h14.379c0.45232 0 0.83993-0.37346 0.81641-0.83594l-0.0098-10.582c-0.0172-0.33851-0.30551-0.58008-0.67381-0.58008zm14.323 1v9l-14 9e-6 3.9e-4 -9s9.8497-0.012898 14 0z" color="#000000" fill="#444" fill-rule="evenodd"/>
<path d="m3.848 14.188h14.318" fill="none"/>
<path d="m4.1458 3.4181 13.678-0.015641c0.11465-1.311e-4 0.22603 0.098166 0.23525 0.27l0.55039 10.262c0.02346 0.43736-0.21813 0.73893-0.64596 0.73893h-13.952c-0.42783 0-0.64379-0.30155-0.6207-0.73893l0.53511-10.135c0.01563-0.29619 0.06724-0.38207 0.2201-0.38224z" color="#000000" fill="none"/>
</g>
<g stroke-width=".99996">
<path d="m10 13.721h0.11385c0.03384 1e-6 0.0598 0.0077 0.07786 0.02317 0.01818 0.01532 0.02726 0.03722 0.02726 0.06567 0 0.02859-0.0091 0.05059-0.02726 0.06604-0.01806 0.01532-0.044 0.02299-0.07786 0.02299h-0.04526v0.09449h-0.06859v-0.27235m0.06859 0.0509v0.07606h0.03796c0.01331 0 0.02357-0.0033 0.03083-0.0098 0.0073-0.0068 0.01087-0.01612 0.01087-0.02828s-0.0036-0.02152-0.01087-0.02809c-0.0073-0.0067-0.01751-0.0098-0.03083-0.0098h-0.03796m0.32017-0.0049c-0.02091 0-0.03712 0.0079-0.04864 0.02371-0.01151 0.01581-0.01729 0.03808-0.01729 0.06677 0 0.02859 0.0058 0.05077 0.01729 0.06658 0.01151 0.01581 0.02773 0.02371 0.04864 0.02371 0.02102 0 0.0373-0.0079 0.04882-0.02371 0.01151-0.01581 0.01729-0.03801 0.01729-0.06658 0-0.0287-0.0058-0.05096-0.01729-0.06677-0.01152-0.01581-0.0278-0.02371-0.04882-0.02371m0-0.0509c0.04275 1e-6 0.07626 0.01252 0.10049 0.03758 0.02423 0.02505 0.03634 0.05966 0.03634 0.10379 0 0.04403-0.01212 0.07855-0.03634 0.10361-0.02423 0.02506-0.05772 0.03758-0.10049 0.03758-0.04264 0-0.07614-0.01252-0.10048-0.03758-0.02423-0.02506-0.03635-0.05959-0.03635-0.10361 0-0.04414 0.01212-0.07874 0.03635-0.10379 0.02435-0.02506 0.05785-0.03758 0.10048-0.03758m0.1885 0.0049h0.07662l0.09674 0.18685v-0.1868h0.06503v0.27235h-0.07662l-0.09674-0.1868v0.1868h-0.06503v-0.27235m0.26797 0h0.07501l0.06057 0.09704 0.06058-0.09704h0.07519l-0.10138 0.15761v0.11474h-0.06859v-0.11474l-0.10138-0.15761" fill="#4a4a4a"/>
<circle cx="10.041" cy="9.0006" r="0" fill="#fff"/>
<path d="m4 4 8e-5 8.9993 14 7e-4v-9z" fill="#434343" fill-opacity=".29804" fill-rule="evenodd"/>
</g>
</svg>
