<svg width="22" height="22" version="1.1" viewBox="0 0 22 22" xmlns="http://www.w3.org/2000/svg">
<defs>
<style id="current-color-scheme" type="text/css">.ColorScheme-Text { color:#444444; } .ColorScheme-Highlight { color:#4285f4; }</style>
</defs>
<g transform="translate(-23.001)" fill="#444">
<path d="m38.469 5.0195-11.68 2.3262c-0.52422 0.10444-0.87586 0.61791-0.76953 1.1465l0.30274 1.5078h1.0098l-0.33984-1.6895 11.66-2.3223 0.80664 4.0117h1.0098l-0.84766-4.2168c-0.10632-0.52855-0.62812-0.86809-1.1523-0.76367zm-8.5586 3.7461c-0.09714-4.172e-4 -0.19519 0.00788-0.29297 0.027344-0.62869 0.12524-1.0696 0.6282-1.1699 1.207h2.9219c-0.0026-0.015653-7.6e-4 -0.031234-0.0039-0.046875-0.14318-0.71181-0.77507-1.1846-1.4551-1.1875zm5.877 0.22266 0.0078 0.037109c4e-3 0.010385 0.0208 0.056505 0.02734 0.072266l-0.37694 0.90234h0.48047l-0.076172-0.8418c0.067065 0.15789 0.20395 0.5031 0.32617 0.8418h0.98242c-0.49927-0.59789-1.3711-1.0117-1.3711-1.0117zm-8.8613 4.0117 0.84766 4.2148c0.10632 0.52855 0.63007 0.87007 1.1543 0.76562l9.3945-1.8711c0.18804-0.03762 0.42298-0.24189 0.34766-0.17773 0.04778-0.04066 0.09184-0.0845 0.13672-0.13086h2e-3c0.08907-0.09195 0.1857-0.20169 0.29688-0.33203 0.22342-0.26195 0.49312-0.60161 0.75781-0.94336 0.26462-0.34165 0.52415-0.68253 0.7207-0.96484 0.09861-0.14163 0.18081-0.27071 0.24609-0.38086 0.03035-0.05118 0.0631-0.10536 0.09375-0.17383-0.0015 0.0035 0.0031-0.0087 2e-3 -0.0059h-7.1837l-5.582 1.1114-0.22461-1.1113z" stroke-width=".99042"/>
<g fill-rule="evenodd">
<rect x="27" y="11" width="1" height="1"/>
<rect x="29" y="11" width="1" height="1"/>
<rect x="31" y="11" width="1" height="1"/>
<rect x="33" y="11" width="1" height="1"/>
<rect x="35" y="11" width="1" height="1"/>
<rect x="37" y="11" width="1" height="1"/>
<rect x="39" y="11" width="1" height="1"/>
</g>
</g>
</svg>
