<svg width="22" height="22" version="1.1" viewBox="0 0 22 22" xmlns="http://www.w3.org/2000/svg">
<defs>
<style id="current-color-scheme" type="text/css">.ColorScheme-Text { color:#444444; } .ColorScheme-Highlight { color:#4285f4; }</style>
</defs>
<path d="m5.3183 3.0014 2e-3 0.00195c-0.12978-0.00646-0.25498 0.088111-0.29883 0.20508-0.0061-0.014318-0.01591-0.023968-0.02148-0.039062v11.535c0 0.0014 0.0018 0.0024 2e-3 0.0039v0.94727c0.01681 0.41352 0.41743 0.70987 0.88477 0.74023 4.4063 0.28624 7.9258 0.59961 7.9258 0.59961 0.09442 0.02608 0.1875-0.06095 0.1875-0.17383v-1.5449l3.6797 0.09961c0.1595 0.0079 0.32031-0.13541 0.32031-0.28711v-5.3848c0-0.15173-0.11462-0.41795-0.39648-0.47461l-1.1797-0.22266c-0.30305-0.060902-0.42383-0.33303-0.42383-0.50977v-4.8359c0-0.1517-0.15887-0.31237-0.31836-0.32031l-10.363-0.33984zm9.1816 6 1.666 1.2852-1.666 1.2871v-0.85742c-0.92 0-1.666 0.76589-1.666 1.7129 0 0.947 0.74602 1.7148 1.666 1.7148s1.666-0.76784 1.666-1.7148a0.41663 0.42857 0 0 1 0.41797-0.42773 0.41663 0.42857 0 0 1 0.41602 0.42773 0.41663 0.42857 0 0 1-2e-3 0.04297c-0.022 1.4-1.131 2.5293-2.498 2.5293-1.381 0-2.5-1.1523-2.5-2.5723 0-1.4204 1.119-2.5703 2.5-2.5703v-0.85742z" fill="#444" opacity=".3"/>
</svg>
