<svg width="22" height="22" version="1.1" viewBox="0 0 22 22" xmlns="http://www.w3.org/2000/svg">
<defs>
<style id="current-color-scheme" type="text/css">.ColorScheme-Text { color:#444444; } .ColorScheme-Highlight { color:#4285f4; }</style>
</defs>
<g transform="translate(2.9996 3.0001)" fill="#444" fill-rule="evenodd">
<g transform="translate(-8)" opacity=".3">
<path d="m20 7.9999v6.1745-0.08091c0.03848 0.57611-0.4132 1.0274-0.9196 0.93266l-4.4935-0.79154c-0.20875-0.03677-0.75407-0.20136-0.57584-0.79153l-0.94948-0.20528c-0.29779 1.0004 0.54842 1.7064 1.1792 1.8347l4.6753 0.89809c1.1296 0.2114 2.1379-0.75295 2.084-1.809-4.38e-4 -0.0087 5.71e-4 -0.01697 0-0.02566l-1e-6 -6.1359z" color="#000000" stroke-width="1.131"/>
<circle cx="20.5" cy="8" r="1" color="#000000" stroke-width="1.1221"/>
</g>
<path d="m7.8594 1.002c-1.2976-0.054941-2.5101 0.7874-2.8652 2.0723l-1.8945 6.8516c-0.40579 1.4684 0.46886 2.9449 1.9609 3.3105l0.05273 0.01367 0.89844 0.19336c-0.0028 0.0093-0.0015 0.01632-0.0039 0.02539l2.5742 0.63086c1.4866 0.36428 3.0054-0.51788 3.418-1.9766v-1.7168l-0.05469 0.21289s-0.55858-0.7587-1.0508-0.86133l-3.4043-0.82031c-0.20112-0.05395-0.38913-0.13267-0.3125-0.37305 0.07772-0.24377 0.23365-0.25529 0.4668-0.2168l3.4453 0.79492c0.45253 0.12509 0.77896 0.51968 0.91016 0.68945v-0.96875a1 1 0 0 1-0.36914-0.37109c-0.10169-0.065592-0.20623-0.12319-0.30859-0.14453l-3.4043-0.82031c-0.20112-0.05395-0.38913-0.13267-0.3125-0.37305 0.07772-0.24377 0.23365-0.25724 0.4668-0.21875l3.4453 0.79688c0.0062 0.00171 0.01143 0.00597 0.01758 0.00781a1 1 0 0 1 0.5332-0.64062c-0.11163-0.073292-0.23481-0.13604-0.36914-0.16406l-3.4062-0.82031c-0.20112-0.05395-0.38718-0.13267-0.31055-0.37305 0.07772-0.24377 0.23169-0.25724 0.46484-0.21875l3.4473 0.79688c0.55698 0.15396 0.85352 0.64258 0.85352 0.64258l-0.01953 0.064453a1 1 0 0 1 0.57617 0.38086l0.5957-2.1523c0.4058-1.4684-0.46886-2.9449-1.9609-3.3105l-3.5215-0.86328c-0.18651-0.045705-0.37323-0.072229-0.55859-0.080078zm-2.5078 2.4316 2.0332 0.39648c0.16839 0.05132 0.34992 0.15662 0.28516 0.40039-0.064 0.24091-0.2581 0.26812-0.43945 0.2168l-2.0469-0.43555zm3.4727 0.67969 3.4453 0.79688c0.55698 0.15396 0.85547 0.61328 0.85547 0.61328l-0.16992 0.6543s-0.38866-0.55166-0.88086-0.6543l-3.4062-0.81836c-0.20112-0.05395-0.38718-0.13462-0.31055-0.375 0.07772-0.24377 0.23365-0.25529 0.4668-0.2168zm-3.8477 0.70312 2.0352 0.39648c0.16839 0.051319 0.34797 0.15467 0.2832 0.39844-0.064 0.24091-0.26006 0.26812-0.44141 0.2168l-2.0449-0.43555zm-0.38867 1.3809 2.0332 0.41211c0.16839 0.05132 0.34993 0.15467 0.28516 0.39844-0.064 0.24091-0.26006 0.27008-0.44141 0.21875l-2.0449-0.45117zm-0.36328 1.3848 2.0352 0.43555c0.16839 0.05132 0.34992 0.15271 0.28516 0.39648-0.064 0.24091-0.26006 0.27008-0.44141 0.21875l-2.0469-0.47266zm-0.40234 1.3828 2.0352 0.43555c0.16839 0.05132 0.34992 0.15271 0.28516 0.39648-0.064 0.24091-0.2581 0.27008-0.43945 0.21875l-2.0488-0.47461zm3.4453 0.79297 3.4473 0.79688c0.55698 0.15396 1.0215 0.82226 1.0215 0.82226l-0.16602 0.6543s-0.55659-0.7587-1.0488-0.86133l-3.4082-0.82227c-0.20112-0.05395-0.36128-0.13071-0.31055-0.37109 0.05134-0.24324 0.23169-0.25724 0.46484-0.21875z" color="#000000" opacity=".3" stroke-width="1.0991"/>
</g>
</svg>
