<svg width="22" height="22" version="1.1" xmlns="http://www.w3.org/2000/svg">
<defs>
<style id="current-color-scheme" type="text/css">.ColorScheme-Text { color:#444444; } .ColorScheme-Highlight { color:#4285f4; }</style>
</defs>
<g transform="translate(19)">
<path d="m-12.73 10.834c-3.3023 1.9678-3.7143 4.6319-2.9277 6.209 0.81697 1.6379 2.1996 1.9366 3.8496 1.9492l2.7949 0.007812h0.027344l2.6523-0.0078a4.5 4.5 0 0 1-1.666-3.4922 4.5 4.5 0 0 1 3.2363-4.3164c-0.17019-0.11671-0.3171-0.23712-0.50586-0.34961-0.78219 0.86076-2.2649 1.3645-3.7305 1.3789-1.4657-0.01434-2.9483-0.5181-3.7305-1.3789z" color="#000000" fill="#444" fill-rule="evenodd" stroke-width="1.3556"/>
<circle cx="-9" cy="6.9999" r="4" fill="#444" fill-rule="evenodd" stroke-width="1.8955"/>
<path d="m-3.5 12a3.5 3.5 0 0 0-3.5 3.5 3.5 3.5 0 0 0 3.5 3.5 3.5 3.5 0 0 0 3.5-3.5 3.5 3.5 0 0 0-3.5-3.5zm-1.5 1h3v3h-1.293l1.293 1.293v0.70703h-0.70703l-1.293-1.293v1.293h-1v-4zm1 1v1h1v-1z" color="#444444" fill="currentColor"/>
</g>
</svg>
