<svg width="22" height="22" version="1.1" viewBox="0 0 22 22" xmlns="http://www.w3.org/2000/svg">
<defs>
<style id="current-color-scheme" type="text/css">.ColorScheme-Text { color:#444444; } .ColorScheme-Highlight { color:#4285f4; }</style>
</defs>
<path d="m3 3.9958v14c5.3333-2e-3 10.667 0.0059 16 0.0039v-14c-5.333 0.0019-10.667-0.0059-16-0.0039zm5 3a2 2 0 0 1 2 2 2 2 0 0 1-2 2 2 2 0 0 1-2-2 2 2 0 0 1 2-2zm-2.1309 4.2148c0.44698 0.5044 1.2933 0.80019 2.1309 0.80859 0.83749-0.0084 1.6839-0.30422 2.1309-0.80859 1.8871 1.1532 2.1233 2.7147 1.6738 3.6387-0.46686 0.95973-1.2564 1.1352-2.1992 1.1426l-1.5977 0.0039h-0.01563l-1.5977-0.0039c-0.94287-0.0074-1.7324-0.18283-2.1992-1.1426-0.44949-0.92412-0.21322-2.4856 1.6738-3.6387z" fill="#444"/>
</svg>
