<svg width="16" height="16" version="1.1" xmlns="http://www.w3.org/2000/svg">
<path d="m14.715 2.0002c0.1562-0.00521 0.28561 0.12012 0.28546 0.27647l-0.0092 8.756c-6.7e-5 0.01323-0.0011 0.02642-0.0031 0.0395-0.06656 0.43675-0.37263 0.82736-0.82601 1.1484-0.45338 0.32106-1.0672 0.57833-1.81 0.72612-0.83492 0.16616-1.6268 0.16498-2.2593 0.01823-0.63242-0.14675-1.1552-0.44762-1.2814-0.96918-0.12837-0.52979 0.18542-1.195 0.97178-1.6528 0.72395-0.42144 1.9879-0.57969 3.6654-0.40408v-5.5841l-6.2194 0.94486-0.0061 6.5138c0.02069 0.48296-0.2939 0.92198-0.76831 1.273-0.47442 0.35101-1.1319 0.62959-1.9223 0.78688-0.83449 0.16607-1.6178 0.16542-2.2412 0.01823-0.62338-0.14718-1.1353-0.44933-1.2603-0.96613-0.1168-0.48281 0.10766-0.98456 0.54056-1.3732 0.4329-0.3887 1.0838-0.69596 1.9223-0.86284 0.82643-0.16445 1.5541-0.08051 2.1835 0.0638v-7.3493c4.62e-4 -0.1394 0.10463-0.25663 0.24294-0.27343l8.7673-1.1272c9e-3 -0.00147 0.01818-0.00247 0.02733-0.00303z" fill="#444" stroke-width="1.5552"/>
</svg>
