<svg width="16" height="16" version="1.1" viewBox="0 0 16 16" xmlns="http://www.w3.org/2000/svg">
<defs>
<style id="current-color-scheme" type="text/css">.ColorScheme-Text { color:#444444; } .ColorScheme-Highlight { color:#5294e2; }</style>
</defs>
<g fill="#444" fill-rule="evenodd">
<path d="m8 7c-0.72753 0.63308-1.4275 0.86045-2.4206 1.0413-0.86048-0.008283-1.6778-0.37547-2.2394-1.0061-2.3637 1.4373-2.6582 3.3822-2.0952 4.534 0.58475 1.1963 1.575 1.4144 2.756 1.4236l1.3207 0.01023c0.025155 0.32248 0.10586 0.30867 0.23362 0.56584 0.58432 1.1759 1.5739 1.3912 2.754 1.4004l3.9336 0.03056c1.1145 0.0086 2.2179-0.35618 2.6225-1.4182 0.37202-0.97693 0.41022-3.0375-1.8719-4.5862-0.49851 0.57397-1.1996 0.95396-1.9731 1.0694-0.1266-1.4837-1.9488-2.0738-3.0201-3.065z" color="#000000" stroke-width=".98015"/>
<circle cx="5.5" cy="4.5" r="2.5" stroke-width="1.1847"/>
<circle cx="10" cy="6" r="3" stroke-width="1.4216"/>
</g>
</svg>
