<svg width="16" height="16" version="1.1" xmlns="http://www.w3.org/2000/svg">
<defs>
<style id="current-color-scheme" type="text/css">.ColorScheme-Text { color:#444444; } .ColorScheme-Highlight { color:#5294e2; }</style>
</defs>
<g fill="#444" fill-rule="evenodd">
<path d="m2.7504 5.2712-2.1774 6.3522c-0.061492 0.17939 0.078438 0.37678 0.24845 0.3766l14.266-0.01485c0.24921-2.59e-4 0.42578-0.28737 0.32496-0.54124l-2.427-6.1119c-0.068844-0.17337-0.30055-0.32274-0.52419-0.32296l-9.2566-0.0090226c-0.1751-1.71e-4 -0.37517 0.039744-0.4545 0.27117z" stroke-width=".75784"/>
<g stroke-width=".76161">
<path d="m0.68054 10.012c0.034029-0.081355 0.1145-0.14007 0.23183-0.13864l0.72378 0.00885 1.1535 1.4276s-0.18999 0.48895-0.10976 0.80137c0.16505 0.15311-0.00335 0.25463-0.00335 0.25463h-2.3522c-0.18094 0-0.40665-0.47764-0.29403-0.76102 0.28838-0.7256 0.33507-0.83937 0.65026-1.5928z" color="#000000"/>
<path d="m15.319 10.012c-0.034031-0.081355-0.1145-0.14007-0.23184-0.13864l-0.72378 0.00885-1.1535 1.4276s0.18999 0.48895 0.10976 0.80137c-0.16505 0.15311 0.0033 0.25463 0.0033 0.25463h2.3522c0.18094 0 0.40665-0.47764 0.29403-0.76102-0.28838-0.7256-0.33508-0.83937-0.65026-1.5928z" color="#000000"/>
<path d="m2.5744 5.8833 1.9631-1.0011c0.13029-0.066443-0.11087-0.36709-0.25589-0.36709h-1.5673l-0.4478 1.2014c-0.063732 0.17098 0.11983 0.70636 0.17992 0.53394z" color="#000000"/>
<path d="m13.16 5.8833-1.9631-1.0011c-0.13029-0.066443 0.11087-0.36709 0.25589-0.36709h1.5673l0.4478 1.2014c0.06373 0.17098-0.11983 0.70636-0.17992 0.53394z" color="#000000"/>
</g>
</g>
</svg>
