<svg width="22" height="22" version="1.1" xmlns="http://www.w3.org/2000/svg">
<circle cx="11" cy="11" r="10" fill="#252a35" stroke-width="1.4286"/>
<path d="m9.68 5.2857c-0.059241 0-0.1086 0.088509-0.1086 0.19474l0.4929 7.3248c0 0.10622 0.04936 0.19474 0.1086 0.19474 0 0 0.38923 0.0061 0.71011 0 0.1057-0.0019 0.13805 0.01027 0.23391 0 0.32089 0.0061 0.71012 0 0.71012 0 0.05924 0 0.1086-0.08851 0.1086-0.19474l0.4929-7.3248c0-0.10622-0.04936-0.17975-0.1086-0.17975h-1.1947c-0.0044-9.637e-4 -0.0038-0.014974-0.0084-0.014974z" fill="#fff" stroke-width="1.485"/>
<circle cx="11" cy="16" r="1" fill="#fff"/>
</svg>
