<svg width="22" height="22" version="1.1" xmlns="http://www.w3.org/2000/svg">
<circle cx="11" cy="11" r="10" fill="#252a35"/>
<g transform="matrix(1.3333 0 0 1.3333 .33343 .33368)" stroke-width=".67701">
<path d="m5 5.2586v5.9621c0 0.62332 0.17089 0.87225 0.28385 1.2568 0.22795 0.77607 1.5091 1.5844 2.9115 1.5187 1.4023-0.06565 2.8135-0.99628 2.8047-2.1028v-5.1617l-0.01563 0.00672c-0.0843 0.94609-1.3196 1.6973-2.8463 1.6973-1.5814 0-2.5777-0.70463-2.8515-1.798 0-0.00551-0.24246-1.1459-0.28646-1.3791z" fill="#fff" fill-rule="evenodd"/>
<path d="m9.6666 3s-2.4203 0.039694-3.5625 0.63649c-0.87086 0.455-1.0249 1.2266-1.0495 1.5711l0.17448 0.41761v0.12488h2.6003c0.026918-0.10827 0.054072-0.21244 0.082033-0.28333 0.25104-0.63658 1.7552-0.90236 1.7552-0.90236zm-0.19271 0.32227c0.083446-0.00735 0.15104 0.059048 0.15104 0.14905v0.32496c0 0.090003-0.067593 0.16722-0.15104 0.17457l-0.22526 0.020142c-0.083446 0.0073482-0.15104-0.059048-0.15104-0.14905v-0.32496c0-0.090003 0.067593-0.16856 0.15104-0.17591zm-0.9284 0.12757c0.083446-0.010395 0.14974 0.053677 0.14974 0.14368v0.32496c0 0.090003-0.066293 0.17089-0.14974 0.18128l-0.22656 0.028199c-0.083446 0.010396-0.14974-0.053676-0.14974-0.14368v-0.32496c0-0.090003 0.066293-0.17089 0.14974-0.18128zm-0.987 0.18262c0.073513-0.012988 0.13281 0.048305 0.13281 0.13831v0.32496c0 0.090003-0.059301 0.17366-0.13281 0.18665l-0.19922 0.034913c-0.073513 0.012989-0.13151-0.049649-0.13151-0.13965v-0.32496c0-0.090003 0.058-0.17232 0.13151-0.18531zm-0.8294 0.2699c0.067553-0.031171 0.12109 0.016079 0.12109 0.10608v0.32496c0 0.090004-0.05354 0.18771-0.12109 0.21888l-0.18359 0.084599c-0.067553 0.031172-0.12109-0.016078-0.12109-0.10608v-0.32496c0-0.090003 0.053541-0.18771 0.12109-0.21888zm-0.66666 0.47535c0.01426 0.01411 0.022135 0.046309 0.022135 0.091309v0.32496c0 0.090004-0.034414 0.20032-0.078126 0.24708l-0.11849 0.12622c-0.043707 0.046757-0.079426 0.012121-0.079426-0.077881v-0.32496c0-0.090003 0.035721-0.20032 0.079426-0.24708l0.11849-0.12622c0.021853-0.023378 0.041729-0.027537 0.055989-0.013427z" fill="#fff" fill-rule="evenodd"/>
<path d="m10.729 6.9258 0.06616 4.8653c0.0083 1.0311-1.3067 1.8987-2.6135 1.9599-1.3067 0.06117-2.5003-0.69247-2.7127-1.4156-0.10527-0.35838-0.26466-0.64639-0.26466-1.2272l0.025399-5.6628 0.90086 2.1445 3.1097-0.034953z" fill="none" opacity=".49367"/>
<path d="m8.1259 5.0639c-0.70553 0-1.2814 0.44522-1.2814 0.99208v0.43344c0 0.54688 0.57591 0.99208 1.2814 0.99208 0.70553 0 1.2737-0.44522 1.2737-0.99208v-0.43344c0-0.54688-0.56814-0.99208-1.2737-0.99208z" color="#000000" display="block" fill="#fff"/>
<ellipse cx="8.1243" cy="5.8942" rx="1.2781" ry=".84399" color="#000000" display="block" fill="#fff"/>
<ellipse cx="8.1243" cy="5.8942" rx="1.2408" ry=".81938" color="#000000" display="block" fill="none"/>
</g>
</svg>
