<svg width="32" height="32" version="1" xmlns="http://www.w3.org/2000/svg">
<defs>
<filter id="filter1348" color-interpolation-filters="sRGB">
<feFlood flood-color="rgb(0,0,0)" flood-opacity=".2" result="flood"/>
<feComposite in="flood" in2="SourceGraphic" operator="in" result="composite1"/>
<feGaussianBlur in="composite1" result="blur"/>
<feOffset dx="0" dy="1" result="offset"/>
<feComposite in="SourceGraphic" in2="offset" result="fbSourceGraphic"/>
<feColorMatrix in="fbSourceGraphic" result="fbSourceGraphicAlpha" values="0 0 0 -1 0 0 0 0 -1 0 0 0 0 -1 0 0 0 0 1 0"/>
<feFlood flood-color="rgb(255,255,255)" flood-opacity=".10196" in="fbSourceGraphic" result="flood"/>
<feComposite in="flood" in2="fbSourceGraphic" operator="out" result="composite1"/>
<feGaussianBlur in="composite1" result="blur"/>
<feOffset dx="0" dy="1" result="offset"/>
<feComposite in="offset" in2="fbSourceGraphic" operator="atop" result="composite2"/>
</filter>
</defs>
<path d="m4.3795 2c-0.7626 0-1.3795 0.57981-1.3795 1.3015v25.397c0 0.72173 0.61693 1.3015 1.3795 1.3015h23.241c0.7626 0 1.3795-0.57981 1.3795-1.3015v-25.397c0-0.72173-0.61695-1.3015-1.3795-1.3015z" color="#000000" display="block" fill="#d3d7cf" fill-opacity=".99608" filter="url(#filter1348)" stroke-width="1.8027"/>
<g fill="#858585">
<path d="m23.582 13c-0.32224 0-0.58204 0.3122-0.58204 0.7v5.6c0 0.3878 0.25979 0.7 0.58204 0.7h2.8359c0.32224 0 0.58204-0.3122 0.58204-0.7v-5.6c0-0.3878-0.25979-0.7-0.58204-0.7z" color="#000000" display="block" stroke-width="1.7748"/>
<g stroke-width="2">
<rect x="5" y="13" width="4" height="4" rx=".77554" ry=".78623" color="#000000" display="block"/>
<rect x="5" y="25" width="4" height="4" rx=".77554" ry=".78623" color="#000000" display="block"/>
<rect x="5" y="19" width="4" height="4" rx=".77554" ry=".78623" color="#000000" display="block"/>
</g>
<path d="m23.582 22c-0.32224 0-0.58204 0.3122-0.58204 0.7v5.6c0 0.3878 0.25979 0.7 0.58204 0.7h2.8359c0.32224 0 0.58204-0.3122 0.58204-0.7v-5.6c0-0.3878-0.25979-0.7-0.58204-0.7z" color="#000000" display="block" stroke-width="1.7748"/>
</g>
<path d="m6.2728 3c-0.70511 0-1.2728 0.79325-1.2728 1.7779v3.6721c0 1.6832 2.4481 2.55 3.1532 2.55h15.694c0.70511 0 3.1532-0.63932 3.1532-2.55v-3.6721c0-0.98461-0.56771-1.7779-1.2728-1.7779zm18.537 0.99839c0.66246 0 1.1957 0.49143 1.1957 1.1034v3.3163c0 1.1875-2.2978 1.5856-2.9602 1.5856h-14.081c-0.66246 0-2.9602-0.53945-2.9602-1.5856v-3.3163c0-0.61199 0.53323-1.1034 1.1957-1.1034z" color="#000000" display="block" fill="#2e3436" stroke-width="1.7167"/>
<rect x="8.0001" y="4.6667" width="16" height="3.3333" rx=".48309" ry=".49576" color="#000000" display="block" fill="#777b5e" stroke-width="1.6903"/>
<path d="m17.914 6.2684c0.11263 0.028388 0.19801 0.077881 0.25618 0.14848 0.05892 0.069875 0.08837 0.15904 0.08837 0.26749-1e-6 0.16159-0.0634 0.2846-0.1902 0.36902-0.1268 0.083703-0.31177 0.12555-0.55489 0.12555-0.08577 0-0.17192-0.00692-0.25844-0.020745-0.08577-0.013093-0.1708-0.033117-0.25508-0.060049v-0.32425c0.08056 0.039304 0.16036 0.069146 0.23941 0.089526 0.0798 0.019653 0.15812 0.029481 0.23493 0.029474 0.11412 6e-7 0.20137-0.019284 0.26178-0.057869 0.06116-0.038576 0.09173-0.093892 0.09173-0.16595-1e-6 -0.074239-0.03132-0.13029-0.09398-0.16813-0.06191-0.038574-0.15364-0.057862-0.27522-0.057863h-0.17225v-0.27076h0.18124c0.10815 1.4e-6 0.1887-0.016382 0.24165-0.04913 0.05295-0.03348 0.07943-0.084066 0.07943-0.15176-3e-6 -0.062593-0.02573-0.111-0.0772-0.14521-0.05147-0.034208-0.12419-0.051312-0.21816-0.051314-0.06936 1.3e-6 -0.13947 0.00765-0.21032 0.022928-0.07084 0.015283-0.14133 0.037849-0.21145 0.06769v-0.30788c0.08503-0.023289 0.1693-0.040757 0.25282-0.052408 0.08353-0.011627 0.16557-0.017466 0.24613-0.017468 0.21704 2e-6 0.37925 0.034937 0.48665 0.10481 0.10814 0.069149 0.16221 0.1736 0.16222 0.31334-1e-6 0.095348-0.02573 0.1736-0.0772 0.23473-0.05147 0.060412-0.12755 0.10299-0.22824 0.12774m0.75962 0.45637h0.40275v0.42252h-0.40273v-0.42252m0.90283 0.13211h0.38037v-1.0536l-0.39045 0.078607v-0.28604l0.38821-0.078607h0.40946v1.3396h0.38037v0.29041h-1.168v-0.29041m2.1681-0.99352-0.47212 0.68237h0.47212v-0.68237m-0.0716-0.34609h0.47882v1.0285h0.23829v0.30461h-0.23829v0.29696h-0.40722v-0.29696h-0.74062v-0.36029l0.66901-0.97278" stroke-width="1.6903"/>
<g fill="#858585" stroke-width="2">
<rect x="11" y="13" width="4" height="4" rx=".77554" ry=".78623" color="#000000" display="block"/>
<rect x="11" y="25" width="4" height="4" rx=".77554" ry=".78623" color="#000000" display="block"/>
<rect x="11" y="19" width="4" height="4" rx=".77554" ry=".78623" color="#000000" display="block"/>
<rect x="17" y="13" width="4" height="4" rx=".77554" ry=".78623" color="#000000" display="block"/>
<rect x="17" y="25" width="4" height="4" rx=".77554" ry=".78623" color="#000000" display="block"/>
<rect x="17" y="19" width="4" height="4" rx=".77554" ry=".78623" color="#000000" display="block"/>
</g>
<g fill-opacity=".2" stroke-width="2">
<path d="m 5,16.212891 v 1 C 5,17.648464 5.345742,18 5.775391,18 H 8.224609 C 8.654258,18 9,17.648464 9,17.212891 v -1 C 9,16.648464 8.654258,17 8.224609,17 H 5.775391 C 5.345742,17 5,16.648464 5,16.212891 Z" color="#000000" display="block"/>
<path d="m11 16.213v1c0 0.43557 0.34574 0.78711 0.77539 0.78711h2.4492c0.42965 0 0.77539-0.35154 0.77539-0.78711v-1c0 0.43557-0.34574 0.78711-0.77539 0.78711h-2.4492c-0.42965 0-0.77539-0.35154-0.77539-0.78711z" color="#000000" display="block"/>
<path d="m17 16.213v1c0 0.43557 0.34574 0.78711 0.77539 0.78711h2.4492c0.42965 0 0.77539-0.35154 0.77539-0.78711v-1c0 0.43557-0.34574 0.78711-0.77539 0.78711h-2.4492c-0.42965 0-0.77539-0.35154-0.77539-0.78711z" color="#000000" display="block"/>
<path d="m17 22.213v1c0 0.43557 0.34574 0.78711 0.77539 0.78711h2.4492c0.42965 0 0.77539-0.35154 0.77539-0.78711v-1c0 0.43557-0.34574 0.78711-0.77539 0.78711h-2.4492c-0.42965 0-0.77539-0.35154-0.77539-0.78711z" color="#000000" display="block"/>
<path d="m11 22.213v1c0 0.43557 0.34574 0.78711 0.77539 0.78711h2.4492c0.42965 0 0.77539-0.35154 0.77539-0.78711v-1c0 0.43557-0.34574 0.78711-0.77539 0.78711h-2.4492c-0.42965 0-0.77539-0.35154-0.77539-0.78711z" color="#000000" display="block"/>
<path d="m 5,22.212891 v 1 C 5,23.648464 5.345742,24 5.775391,24 H 8.224609 C 8.654258,24 9,23.648464 9,23.212891 v -1 C 9,22.648464 8.654258,23 8.224609,23 H 5.775391 C 5.345742,23 5,22.648464 5,22.212891 Z" color="#000000" display="block"/>
<path d="m 5,28.212891 v 1 C 5,29.648464 5.345742,30 5.775391,30 H 8.224609 C 8.654258,30 9,29.648464 9,29.212891 v -1 C 9,28.648464 8.654258,29 8.224609,29 H 5.775391 C 5.345742,29 5,28.648464 5,28.212891 Z" color="#000000" display="block"/>
<path d="m11 28.213v1c0 0.43557 0.34574 0.78711 0.77539 0.78711h2.4492c0.42965 0 0.77539-0.35154 0.77539-0.78711v-1c0 0.43557-0.34574 0.78711-0.77539 0.78711h-2.4492c-0.42965 0-0.77539-0.35154-0.77539-0.78711z" color="#000000" display="block"/>
<path d="m17 28.213v1c0 0.43557 0.34574 0.78711 0.77539 0.78711h2.4492c0.42965 0 0.77539-0.35154 0.77539-0.78711v-1c0 0.43557-0.34574 0.78711-0.77539 0.78711h-2.4492c-0.42965 0-0.77539-0.35154-0.77539-0.78711z" color="#000000" display="block"/>
</g>
<rect x="24" y="16" width="2" height="1" fill="#fff" fill-rule="evenodd"/>
<path d="m23 28.301v1c0 0.3878 0.25979 0.69922 0.58203 0.69922h2.8359c0.32224 0 0.58203-0.31142 0.58203-0.69922v-1c0 0.3878-0.25979 0.69922-0.58203 0.69922h-2.8359c-0.32224 0-0.58203-0.31142-0.58203-0.69922z" color="#000000" display="block" fill-opacity=".2" stroke-width="1.7748"/>
<path d="m23 19.301v1c0 0.3878 0.25979 0.69922 0.58203 0.69922h2.8359c0.32224 0 0.58203-0.31142 0.58203-0.69922v-1c0 0.3878-0.25979 0.69922-0.58203 0.69922h-2.8359c-0.32224 0-0.58203-0.31142-0.58203-0.69922z" color="#000000" display="block" fill-opacity=".2" stroke-width="1.7748"/>
<rect x="24" y="24" width="2" height="1" fill="#fff" fill-rule="evenodd"/>
<rect x="24" y="26" width="2" height="1" fill="#fff" fill-rule="evenodd"/>
</svg>
