<svg width="32" height="32" version="1" xmlns="http://www.w3.org/2000/svg">
<defs>
<filter id="filter869" color-interpolation-filters="sRGB">
<feFlood flood-color="rgb(0,0,0)" flood-opacity=".2" result="flood"/>
<feComposite in="flood" in2="SourceGraphic" operator="in" result="composite1"/>
<feGaussianBlur in="composite1" result="blur"/>
<feOffset dx="0" dy="1" result="offset"/>
<feComposite in="SourceGraphic" in2="offset" result="composite2"/>
</filter>
</defs>
<rect transform="rotate(90)" x="2" y="-30" width="19" height="19" rx="1.5" ry="1.5" fill="#4f4f4f"/>
<path d="m20 8.9996v1h1v-1h-1zm3 0v1h1v-1h-1zm-0.62695 2.1387c-1.1901 0-2.1362 0.3814-2.8398 1.1465-0.69892 0.7604-1.0488 2.1914-1.0488 3.4902 0 1.2563 0.36872 2.4527 1.1055 3.1895 0.7415 0.73672 1.7441 1.1035 3.0098 1.1035 0.50538 0 1.0049-0.0504 1.4961-0.1543 0.49118-0.1039 0.96994-0.25672 1.4375-0.45508v-1.2324c-0.46288 0.24559-0.93008 0.42995-1.4023 0.55274-0.46751 0.12279-0.95252 0.18555-1.4531 0.18555-0.8643 0-1.539-0.23556-2.0254-0.70312-0.48173-0.4723-0.74994-1.3546-0.80664-2.252h5.9922v-0.63867c0-1.1807-0.31216-2.5144-0.93555-3.1992-0.6187-0.68953-1.462-1.0332-2.5293-1.0332zm0.01563 1.1055c0.64225 1e-5 1.1557 0.21168 1.543 0.63672 0.39197 0.4251 0.59402 1.3943 0.60352 2.1074l-4.6484 0.0078c0.06612-0.74618 0.31745-1.7258 0.75195-2.1367 0.4392-0.41088 1.0227-0.61523 1.75-0.61523z" opacity=".2"/>
<g fill="#fff">
<path d="m22.373 10.139c-1.1901 0-2.1362 0.3814-2.8398 1.1465-0.69892 0.7604-1.0488 2.1907-1.0488 3.4895 0 1.2563 0.36872 2.454 1.1055 3.1907 0.7415 0.73672 1.7441 1.1035 3.0098 1.1035 0.50538 0 1.0049-0.0504 1.4961-0.1543 0.49118-0.1039 0.96994-0.25672 1.4375-0.45508v-1.2324c-0.46288 0.24559-0.93008 0.42995-1.4023 0.55274-0.46751 0.12279-0.95252 0.18555-1.4531 0.18555-0.8643 0-1.539-0.23556-2.0254-0.70312-0.48173-0.4723-0.74994-1.3559-0.80664-2.2532h5.9922v-0.63867c0-1.1807-0.31216-2.5137-0.93555-3.1985-0.6187-0.68953-1.462-1.0332-2.5293-1.0332zm0.01563 1.1055c0.64225 1e-5 1.1557 0.21168 1.543 0.63672 0.39197 0.4251 0.59402 1.3936 0.60352 2.1067l-4.6484 0.0078c0.06612-0.74618 0.31745-1.7251 0.75195-2.136 0.4392-0.41088 1.0227-0.61523 1.75-0.61523z"/>
<path d="m23 8.0001h1v1h-1v-1"/>
<path d="m20 8.0001h1v1h-1v-1"/>
</g>
<path d="m11 19.5v1c0 0.831 0.669 1.5 1.5 1.5h16c0.831 0 1.5-0.669 1.5-1.5v-1c0 0.831-0.669 1.5-1.5 1.5h-16c-0.831 0-1.5-0.669-1.5-1.5z" opacity=".2"/>
<rect transform="rotate(90)" x="10" y="-21" width="19" height="19" rx="1.5" ry="1.5" fill="#e4e4e4"/>
<path d="m12.5 2c-0.831 0-1.5 0.669-1.5 1.5v1c0-0.831 0.669-1.5 1.5-1.5h16c0.831 0 1.5 0.669 1.5 1.5v-1c0-0.831-0.669-1.5-1.5-1.5h-16z" fill="#fff" opacity=".1"/>
<path d="m3.5 10c-0.831 0-1.5 0.669-1.5 1.5v1c0-0.831 0.669-1.5 1.5-1.5h16c0.831 0 1.5 0.669 1.5 1.5v-1c0-0.831-0.669-1.5-1.5-1.5h-16z" fill="#fff" opacity=".2"/>
<path d="m2 27.5v1c0 0.831 0.669 1.5 1.5 1.5h16c0.831 0 1.5-0.669 1.5-1.5v-1c0 0.831-0.669 1.5-1.5 1.5h-16c-0.831 0-1.5-0.669-1.5-1.5z" opacity=".2"/>
<path d="m16 26.816h-1.4041v-0.86702c-0.55971 0.7009-1.2979 1.0513-2.2147 1.0513-0.73341 0-1.3148-0.18661-1.7442-0.55981-0.42461-0.37776-0.63691-0.88067-0.63691-1.5087-1.2e-6 -0.42783 0.08684-0.79874 0.26054-1.1128 0.17852-0.31404 0.4439-0.5689 0.79614-0.76461 0.35706-0.1957 0.82026-0.32768 1.3896-0.39595l2.1496-0.27307c-7e-6 -0.53705-0.12062-0.93984-0.36187-1.2083-0.23644-0.26852-0.59108-0.40278-1.0639-0.40278-0.39083 6e-6 -0.80821 0.07055-1.2521 0.21163-0.43909 0.1411-0.83233 0.34592-1.1797 0.61444v-1.3449c0.90229-0.4278 1.7515-0.64172 2.5476-0.64172 0.87816 7e-6 1.549 0.22986 2.0122 0.68951 0.46803 0.45969 0.70203 1.1105 0.70204 1.9524v4.5604m-1.4041-2.642v-0.79876c-1.2062 0.14565-1.8866 0.22983-2.0411 0.25261-0.14957 0.02276-0.33535 0.07965-0.5573 0.17066-0.21714 0.09104-0.37153 0.21164-0.46322 0.36183-0.08684 0.1502-0.13028 0.36865-0.13028 0.65538 0 0.32314 0.12062 0.58711 0.36187 0.79193 0.24608 0.20026 0.56694 0.30039 0.9626 0.30039 0.49215 0 0.92642-0.16611 1.3027-0.49838 0.37634-0.33224 0.56452-0.74413 0.56454-1.2357m0.60795-7.6735-1.947 2.2392h-0.9626l1.5706-2.2392h1.339" filter="url(#filter869)" stroke-width="1.5223"/>
</svg>
