<svg width="32" height="32" version="1" xmlns="http://www.w3.org/2000/svg">
<defs>
<filter id="filter1083" color-interpolation-filters="sRGB">
<feFlood flood-color="rgb(0,0,0)" flood-opacity=".2" result="flood"/>
<feComposite in="flood" in2="SourceGraphic" operator="in" result="composite1"/>
<feGaussianBlur in="composite1" result="blur"/>
<feOffset dx="0" dy="1" result="offset"/>
<feComposite in="SourceGraphic" in2="offset" result="fbSourceGraphic"/>
<feColorMatrix in="fbSourceGraphic" result="fbSourceGraphicAlpha" values="0 0 0 -1 0 0 0 0 -1 0 0 0 0 -1 0 0 0 0 1 0"/>
<feFlood flood-color="rgb(255,255,255)" flood-opacity=".10196" in="fbSourceGraphic" result="flood"/>
<feComposite in="flood" in2="fbSourceGraphic" operator="out" result="composite1"/>
<feGaussianBlur in="composite1" result="blur"/>
<feOffset dx="0" dy="1" result="offset"/>
<feComposite in="offset" in2="fbSourceGraphic" operator="atop" result="composite2"/>
</filter>
</defs>
<g filter="url(#filter1083)">
<g fill-rule="evenodd">
<path d="m4.5515 3.997h21.904c0.51162 0 0.92353 0.34219 0.92353 0.76723l1.6111 21.96 0.0084 1.5087c-1.07e-4 0.42506-0.41201 0.76724-0.92363 0.76724h-25.144c-0.51164 0-0.92353-0.34219-0.92353-0.76724l-0.0074169-1.3926 1.6269-22.075c0-0.42505 0.4119-0.76723 0.92353-0.76723z" color="#000000" fill="#d3d7cf" fill-opacity=".99608" stroke-width="1.7929"/>
<rect x="2.3973" y="27.411" width="26.205" height="1.5882" rx=".45594" ry=".35129" color="#000000" fill="#a4a4a4" stroke-width="1.6909"/>
<path d="m2.3768 27.757s0.10128-0.35001 0.47266-0.37916h25.219c0.50641 0 0.54019 0.49583 0.54019 0.49583s0.01588-1.0688-0.86194-1.0688h-24.447c-0.67524 0.058334-0.92479 0.5147-0.92479 0.95218z" color="#000000" fill="#fff" stroke-width="1.8005"/>
<path d="m3.5852 4.5501-0.17246 3.2936s0.21558-0.8439 0.68983-0.8439h22.851c0.48505-0.011715 0.5066 0.23441 0.59284 0.62122l-0.17248-2.9068c-0.021551-0.41025-0.15089-0.71498-0.53894-0.71498h-22.69c-0.31259 0-0.52815 0.25787-0.56049 0.55089z" color="#000000" fill="#a3a4a0" stroke-width="1.8891"/>
</g>
<path d="m4.9649 4.0065h20.735c0.48087 0 0.86802-0.10038 0.86802 0.31291l1.5143 21.785 0.06672 1.7878c0 0.41328-0.0928 0.42516-0.57369 0.42516h-24.574c-0.27485 0-0.27935-0.07021-0.27935-0.33766l-0.0069404-1.7624 1.5292-21.876c0-0.41328 0.24144-0.33354 0.72234-0.33354z" color="#000000" fill="none" opacity=".4386" stroke-width="1.7934"/>
<g fill-rule="evenodd">
<rect x="5" y="8" width="21" height="1" color="#000000" opacity=".2807" stroke-width="2.2818"/>
<rect x="5" y="3" width="2" height="3" rx="1" ry=".6" color="#000000" fill="#fce94f" stroke-width="1.7321"/>
<g stroke-width="2.2818">
<rect x="5" y="15" width="21" height="1" color="#000000" opacity=".2807"/>
<rect x="5" y="17" width="21" height="1" color="#000000" opacity=".2807"/>
<rect x="5" y="19" width="21" height="1" color="#000000" opacity=".2807"/>
</g>
<rect x="5" y="21" width="7" height="1" color="#000000" opacity=".2807" stroke-width="1.9541"/>
<g stroke-width="1.7136">
<path d="m25.489 14.418s0.92493 0.05782 1.2869 0.82873c0.37286 0.7942 0 1.6382 0 1.6382l3.2373-1.5226s0.93428-0.54357 0.42224-1.7539c-0.50502-1.1937-1.7292-0.71311-1.7292-0.71311z" color="#000000" fill="#ce1313"/>
<path d="m25.489 14.418s0.92493 0.05782 1.2869 0.82873c0.37286 0.7942 0 1.6382 0 1.6382l1.2869-0.61674s0.53214-0.81339 0.14074-1.6575c-0.40215-0.86728-1.4276-0.80947-1.4276-0.80947z" color="#000000" fill="#c1c1c1"/>
<path d="m12.903 21.684 2.8955-2.7752c0.96515 0.5011 1.4678 1.3298 1.2064 2.2935z" color="#000000" fill="#e7e2b8"/>
<path d="m13.802 20.836-1.0797 0.96321 1.4808-0.27814c0.14074-0.44327-0.05927-0.55015-0.40108-0.68507z" color="#000000"/>
<path d="m15.799 18.915c0.41287 0.18082 0.83862 0.66463 0.93716 0.77092 0.09855 0.10629 9.9893-4.54 9.9893-4.54-0.28595-0.52795-0.81262-0.68206-1.2383-0.72994 0 0-9.7817 4.4579-9.6882 4.499z" color="#000000" fill="#deb873"/>
<path d="m16.998 21.187 0.07973-0.39685 9.8383-4.4102s-0.07091 0.41562-0.13893 0.49932z" color="#000000" fill-opacity=".36364"/>
<path d="m17.066 20.814s0.04143-0.28551-0.07303-0.63208c-0.11096-0.33601-0.25032-0.48753-0.25032-0.48753l9.9776-4.5696c0.22929 0.33734 0.24945 0.94713 0.19559 1.262z" color="#000000" fill="#cb9022"/>
</g>
</g>
<g fill="#fce94f" fill-rule="evenodd" stroke-width="1.7321">
<rect x="9" y="3" width="2" height="3" rx="1" ry=".6" color="#000000"/>
<rect x="13" y="3" width="2" height="3" rx="1" ry=".6" color="#000000"/>
<rect x="17" y="3" width="2" height="3" rx="1" ry=".6" color="#000000"/>
<rect x="21" y="3" width="2" height="3" rx="1" ry=".6" color="#000000"/>
<rect x="25" y="3" width="2" height="3" rx="1" ry=".6" color="#000000"/>
</g>
<rect x="5" y="10" width="21" height="1" color="#000000" fill-rule="evenodd" opacity=".2807" stroke-width="2.2818"/>
<rect x="5" y="12" width="10" height="1" color="#000000" fill-rule="evenodd" opacity=".2807" stroke-width="1.5746"/>
</g>
</svg>
