<svg width="32" height="32" version="1" xmlns="http://www.w3.org/2000/svg">
<defs>
<filter id="filter953" color-interpolation-filters="sRGB">
<feFlood flood-color="rgb(0,0,0)" flood-opacity=".2" result="flood"/>
<feComposite in="flood" in2="SourceGraphic" operator="in" result="composite1"/>
<feGaussianBlur in="composite1" result="blur"/>
<feOffset dx="0" dy="0.7" result="offset"/>
<feComposite in="SourceGraphic" in2="offset" result="fbSourceGraphic"/>
<feColorMatrix in="fbSourceGraphic" result="fbSourceGraphicAlpha" values="0 0 0 -1 0 0 0 0 -1 0 0 0 0 -1 0 0 0 0 1 0"/>
<feFlood flood-color="rgb(255,255,255)" flood-opacity=".10196" in="fbSourceGraphic" result="flood"/>
<feComposite in="flood" in2="fbSourceGraphic" operator="out" result="composite1"/>
<feGaussianBlur in="composite1" result="blur"/>
<feOffset dx="0" dy="0.7" result="offset"/>
<feComposite in="offset" in2="fbSourceGraphic" operator="atop" result="composite2"/>
</filter>
</defs>
<g transform="matrix(1.7499 0 0 1.75 1.9999 2.0001)" filter="url(#filter953)">
<flowRoot transform="matrix(.37746 0 0 .37612 -.94639 -.4437)" xml:space="preserve"><flowRegion><rect x="86.788" y="412.8" width="40.056" height="16.022"/></flowRegion><flowPara/></flowRoot>
<g stroke-width="1.0659">
<path d="m7.7928 1.9893e-4c-1.0465 0.014628-1.9956 0.26731-2.8379 0.69186-0.41247 0.80936-1.7705 1.7715-2.3271 1.8738-1.0945 1.3012-1.8044 2.935-2.0736 4.506-1.6514e-4 9.78e-4 1.6479e-4 0.00195 0 0.00289-0.4478 0.58289-0.63791 1.2776-0.51988 2.0809 0.42319 2.8808 1.2389 5.5998 3.0895 6.2272 2.7005 0.91547 8.2557 0.67169 9.4853 0.17236 2.6946-1.0943 2.9334-3.4923 3.3562-6.3114 0.11534-0.7691-0.05467-1.4447-0.4645-2.0209-0.0034-0.020912-7e-3 -0.041927-0.01069-0.062941-0.29489-1.6695-1.0747-3.3434-2.2431-4.6524-0.79033-0.081782-2.3174-1.3451-2.6873-1.9648-0.81253-0.3464-1.7068-0.54268-2.6707-0.54268-0.032204 0-0.064182-4.4758e-4 -0.096204 0z" fill="#e4d239"/>
<g fill="#ede189" fill-rule="evenodd">
<path d="m15.522 8.1293c-1.7349 6.1836-12.528 6.7739-15.04 0.093762-0.015932 6.1399 2.3855 7.9142 9.2125 7.5997 1.1557-0.05291 3.7783 0.01613 5.5164-3.4366 0.84489-4.3294 0.3115-4.2569 0.3115-4.2569z"/>
<path d="m12.148 2.4442 0.94397 0.42329s-0.49463 3.8073-2.5173 6.2004c0.66873-2.4282 1.5812-6.6236 1.5733-6.6236z"/>
<path d="m5.0448 1.1196c0.56639 3.4098 2.4543 7.3292 2.2656 7.5251-1.7306-2.6259-2.4543-4.86-3.0208-6.7413 0-0.031355 0.75518-0.77603 0.75518-0.78387z"/>
<path d="m10.457 0.99414c-1.5418 6.2082-1.6048 7.2429-1.6048 7.2429s2.3914-6.3022 2.3914-6.4591c0-3e-7 -0.59785-0.56439-0.78664-0.78387z"/>
<path d="m5.1617 12.524-0.016861-3.5994h5.4708l0.62001-0.47525h-6.3909l0.016861 4.0022z"/>
<path d="m10.771 8.8906 0.03083 3.6878 0.25899-0.08077 0.0045-4.0822z"/>
</g>
<path d="m7.8046 0.45486c-0.98665 0.013791-1.8814 0.25201-2.6756 0.65228-0.38887 0.76305-1.6692 1.6701-2.194 1.7667-1.0319 1.2267-1.7011 2.7671-1.955 4.2483-1.5562e-4 9.027e-4 1.554e-4 0.00185 0 0.00274-0.42218 0.54954-0.7015 1.2211-0.59023 1.9785 0.39898 2.716 1.1051 5.1565 2.7659 5.8823 2.2358 0.97701 8.1303 0.67174 9.2897 0.20096 2.5405-1.0317 2.6655-3.359 3.0641-6.0168 0.10874-0.72511-0.05154-1.3621-0.43793-1.9053-0.0032-0.019716-0.0066-0.039529-0.01011-0.059341-0.27799-1.5741-1.0132-3.1521-2.1148-4.3862-0.74511-0.077104-2.1849-1.2682-2.5336-1.8524-0.76605-0.32658-1.6092-0.51163-2.5179-0.51163-0.030363 0-0.06051-4.2126e-4 -0.090701 0z" fill="none" opacity=".74444"/>
</g>
</g>
</svg>
