<svg width="32" height="32" version="1" xmlns="http://www.w3.org/2000/svg">
<defs>
<filter id="filter996" color-interpolation-filters="sRGB">
<feFlood flood-color="rgb(0,0,0)" flood-opacity=".2" result="flood"/>
<feComposite in="flood" in2="SourceGraphic" operator="in" result="composite1"/>
<feGaussianBlur in="composite1" result="blur"/>
<feOffset dx="0" dy="1" result="offset"/>
<feComposite in="SourceGraphic" in2="offset" result="fbSourceGraphic"/>
<feColorMatrix in="fbSourceGraphic" result="fbSourceGraphicAlpha" values="0 0 0 -1 0 0 0 0 -1 0 0 0 0 -1 0 0 0 0 1 0"/>
<feFlood flood-color="rgb(255,255,255)" flood-opacity=".10196" in="fbSourceGraphic" result="flood"/>
<feComposite in="flood" in2="fbSourceGraphic" operator="out" result="composite1"/>
<feGaussianBlur in="composite1" result="blur"/>
<feOffset dx="0" dy="1" result="offset"/>
<feComposite in="offset" in2="fbSourceGraphic" operator="atop" result="composite2"/>
</filter>
</defs>
<g transform="translate(.0014525 .0033829)" fill-rule="evenodd" filter="url(#filter996)">
<path d="m3 5v25h26v-25z" fill="#c17d11" stroke-width="1.8211"/>
<path d="m6.5873 0.97656-3.5873 4h26l-3.5873-4z" fill="#e9b96e" stroke-width="1.9272"/>
</g>
<path d="m3.9479 4.7024v24.518h24.108v-24.518l-3.0507-2.8195h-18.006z" fill="none" stroke-width="1.8346"/>
<g fill-rule="evenodd">
<rect x="11.668" y="24.225" width="8.6667" height="2.9" rx=".36816" ry=".256" color="#000000" fill="#c17d11" stroke-width="1.7724"/>
<g stroke-width="1.8973">
<path d="m7.7984 9c-0.44094 0-0.79688 0.32823-0.79688 0.73751v6.525c0 0.40928 0.35594 0.73751 0.79688 0.73751h4.433c-0.12622-0.04673-0.22559-0.12442-0.22559-0.2375v-2.4462c0-0.15884 0.16905-0.28751 0.38087-0.28751h7.2368c0.2118 0 0.38087 0.12866 0.38087 0.28751v2.4462c0 0.11309-0.09937 0.19077-0.22558 0.2375h4.4259c0.44094 0 0.79688-0.32822 0.79688-0.73751v-6.525c0-0.40928-0.35594-0.73751-0.79688-0.73751z" color="#000000" fill-opacity=".2"/>
<path d="m7.7984 8c-0.44094 0-0.79688 0.32823-0.79688 0.73751v6.525c0 0.40928 0.35594 0.73751 0.79688 0.73751h4.433c-0.12622-0.04673-0.22559-0.12442-0.22559-0.2375v-2.4462c0-0.15884 0.16905-0.28751 0.38087-0.28751h7.2368c0.2118 0 0.38087 0.12866 0.38087 0.28751v2.4462c0 0.11309-0.09937 0.19077-0.22558 0.2375h4.4259c0.44094 0 0.79688-0.32822 0.79688-0.73751v-6.525c0-0.40928-0.35594-0.73751-0.79688-0.73751z" color="#000000" fill="#e9b96e"/>
<path d="m7.7984 21c-0.44094 0-0.79688 0.32823-0.79688 0.73751v6.525c0 0.40928 0.35594 0.73751 0.79688 0.73751h4.433c-0.12622-0.04673-0.22559-0.12442-0.22559-0.2375v-2.4462c0-0.15884 0.16905-0.28751 0.38087-0.28751h7.2368c0.2118 0 0.38087 0.12866 0.38087 0.28751v2.4462c0 0.11309-0.09937 0.19077-0.22558 0.2375h4.4259c0.44094 0 0.79688-0.32822 0.79688-0.73751v-6.525c0-0.40928-0.35594-0.73751-0.79688-0.73751z" color="#000000" fill-opacity=".2"/>
<path d="m7.7984 20c-0.44094 0-0.79688 0.32822-0.79688 0.73751v6.525c0 0.40928 0.35594 0.73751 0.79688 0.73751h4.433c-0.12622-0.04673-0.22559-0.12442-0.22559-0.2375v-2.4462c0-0.15884 0.16905-0.28751 0.38087-0.28751h7.2368c0.2118 0 0.38087 0.12866 0.38087 0.28751v2.4462c0 0.11309-0.09937 0.19077-0.22558 0.2375h4.4259c0.44094 0 0.79688-0.32822 0.79688-0.73751v-6.525c0-0.40928-0.35594-0.73751-0.79688-0.73751z" color="#000000" fill="#e9b96e"/>
</g>
</g>
<circle cx="24" cy="24" r="8" opacity=".2"/>
<circle cx="24" cy="23" r="8" fill="#6ec149"/>
<path d="m23 19-0.0882 1.0536a3.1429 3.1429 0 0 0-0.91852 0.53126l-0.95759-0.4509-1 1.7321 0.86941 0.6038a3.1429 3.1429 0 0 0-0.048 0.53013 3.1429 3.1429 0 0 0 0.0457 0.53237l-0.86719 0.60156 1 1.7321 0.95536-0.44978a3.1429 3.1429 0 0 0 0.92075 0.5279l0.0882 1.0558h2l0.0882-1.0536a3.1429 3.1429 0 0 0 0.91854-0.53126l0.95758 0.4509 1-1.7321-0.86942-0.6038a3.1429 3.1429 0 0 0 0.048-0.53013 3.1429 3.1429 0 0 0-0.0457-0.53237l0.86719-0.60156-1-1.7321-0.95536 0.44978a3.1429 3.1429 0 0 0-0.921-0.528l-0.088-1.056h-2zm1 2.8572a1.1429 1.1429 0 0 1 1.143 1.143 1.1429 1.1429 0 0 1-1.143 1.143 1.1429 1.1429 0 0 1-1.143-1.143 1.1429 1.1429 0 0 1 1.143-1.143z" fill="#fff"/>
</svg>
