<svg width="32" height="32" version="1" xmlns="http://www.w3.org/2000/svg" xmlns:xlink="http://www.w3.org/1999/xlink">
<defs>
<linearGradient id="linearGradient2707" x1="12.207" x2="12.128" y1="53.535" y2="64.893" gradientTransform="matrix(1.6075 0 0 .70286 -3.4628 -16.695)" gradientUnits="userSpaceOnUse">
<stop stop-color="#585956" offset="0"/>
<stop stop-color="#bbbeb8" offset="1"/>
</linearGradient>
<filter id="filter988" color-interpolation-filters="sRGB">
<feFlood flood-color="rgb(0,0,0)" flood-opacity=".2" result="flood"/>
<feComposite in="flood" in2="SourceGraphic" operator="in" result="composite1"/>
<feGaussianBlur in="composite1" result="blur"/>
<feOffset dx="0" dy="1" result="offset"/>
<feComposite in="SourceGraphic" in2="offset" result="fbSourceGraphic"/>
<feColorMatrix in="fbSourceGraphic" result="fbSourceGraphicAlpha" values="0 0 0 -1 0 0 0 0 -1 0 0 0 0 -1 0 0 0 0 1 0"/>
<feFlood flood-color="rgb(255,255,255)" flood-opacity=".10196" in="fbSourceGraphic" result="flood"/>
<feComposite in="flood" in2="fbSourceGraphic" operator="in" result="composite1"/>
<feGaussianBlur in="composite1" result="blur"/>
<feOffset dx="0" dy="1" result="offset"/>
<feComposite in="fbSourceGraphic" in2="offset" result="composite2"/>
</filter>
<linearGradient id="linearGradient1010" x1="12.207" x2="12.128" y1="53.535" y2="64.893" gradientTransform="matrix(1.6075 0 0 .70286 -3.4628 -16.695)" gradientUnits="userSpaceOnUse" xlink:href="#linearGradient2707"/>
</defs>
<g stroke-width="1.8415">
<path d="m22.877 26.711a6.9989 2.7863 0 0 1-6.8809 2.2891 6.9989 2.7863 0 0 1-6.8809-2.2832 6.9989 2.7863 0 0 0-0.11719 0.49609 6.9989 2.7863 0 0 0 6.998 2.7871 6.9989 2.7863 0 0 0 7-2.7871 6.9989 2.7863 0 0 0-0.11914-0.50195z" color="#000000" fill-opacity=".2" fill-rule="evenodd"/>
<ellipse cx="15.997" cy="26.214" rx="6.9989" ry="2.7863" color="#000000" fill="#adb0aa" fill-rule="evenodd"/>
<ellipse cx="15.997" cy="25.577" rx="6.3155" ry="2.3062" color="#000000" fill="none"/>
</g>
<g fill-rule="evenodd">
<rect x="12" y="22.502" width="8" height="3.498" color="#000000" fill="url(#linearGradient1010)" stroke-width="1.8703"/>
<path d="m3.1804 1.9996c-0.79144 0-1.1785 0.45365-1.1786 1.0145v18.521c-0.04117 0.80937 0.63596 1.4629 1.4274 1.4629h25.135c0.79141 0 1.4685-0.65359 1.4274-1.4629l0.0083-18.521c-0.030227-0.59241-0.53425-1.0145-1.1786-1.0145h-25.642z" color="#000000" fill="#dde1d9" filter="url(#filter988)" stroke-width="1.7498"/>
<path d="m4 4-3.43e-5 16h24v-15.932z" fill="#dc4f47" stroke-width="1.7458"/>
<path d="m12 25v1h8v-1z" color="#000000" fill="url(#linearGradient1010)" stroke-width="1.8703"/>
</g>
<g transform="translate(0,-3)">
<circle cx="15.5" cy="16" r="3" opacity=".2"/>
<circle cx="15.5" cy="15" r="3" fill="#fff"/>
<path d="m9.4277 10c-1.3454 0-2.4277 1.0708-2.4277 2.4004v0.59961h1.2148v-0.59961c0-0.68556 0.51917-1.2012 1.2129-1.2012h0.57227v-1.1992zm2.5723 0v1.1992h2v-1.1992zm5 0v1.1992h2v-1.1992zm4 0v1.1992h0.57227c0.69372 0 1.2129 0.51562 1.2129 1.2012v0.59961h1.2148v-0.59961c0-1.3296-1.0823-2.4004-2.4277-2.4004zm-14 5v2h1.2148v-2zm15.785 0v2h1.2148v-2zm-15.744 5c0.19288 1.1364 1.1803 2 2.3867 2h0.57227v-1.1992h-0.57227c-0.54807 0-0.97612-0.32788-1.1367-0.80078zm15.668 0c-0.16059 0.4729-0.58865 0.80078-1.1367 0.80078h-0.57227v1.1992h0.57227c1.2064 0 2.1938-0.86361 2.3867-2zm-10.709 0.80078v1.1992h2v-1.1992zm5 0v1.1992h2v-1.1992z" opacity=".2"/>
<path d="m9.4277 9c-1.3454 0-2.4277 1.0708-2.4277 2.4004v0.59961h1.2148v-0.59961c0-0.68556 0.51917-1.2012 1.2129-1.2012h0.57227v-1.1992zm2.5723 0v1.1992h2v-1.1992zm5 0v1.1992h2v-1.1992zm4 0v1.1992h0.57227c0.69372 0 1.2129 0.51562 1.2129 1.2012v0.59961h1.2148v-0.59961c0-1.3296-1.0823-2.4004-2.4277-2.4004zm-14 5v2h1.2148v-2zm15.785 0v2h1.2148v-2zm-15.744 5c0.19288 1.1364 1.1803 2 2.3867 2h0.57227v-1.1992h-0.57227c-0.54807 0-0.97612-0.32788-1.1367-0.80078zm15.668 0c-0.16059 0.4729-0.58865 0.80078-1.1367 0.80078h-0.57227v1.1992h0.57227c1.2064 0 2.1938-0.86361 2.3867-2zm-10.709 0.80078v1.1992h2v-1.1992zm5 0v1.1992h2v-1.1992z" fill="#fff"/>
</g>
</svg>
