<svg width="32" height="32" version="1" xmlns="http://www.w3.org/2000/svg" xmlns:xlink="http://www.w3.org/1999/xlink">
<defs>
<linearGradient id="linearGradient2707" x1="12.207" x2="12.128" y1="53.535" y2="64.893" gradientTransform="matrix(1.6075 0 0 .70286 -3.4628 -16.695)" gradientUnits="userSpaceOnUse">
<stop stop-color="#585956" offset="0"/>
<stop stop-color="#bbbeb8" offset="1"/>
</linearGradient>
<filter id="filter988" color-interpolation-filters="sRGB">
<feFlood flood-color="rgb(0,0,0)" flood-opacity=".2" result="flood"/>
<feComposite in="flood" in2="SourceGraphic" operator="in" result="composite1"/>
<feGaussianBlur in="composite1" result="blur"/>
<feOffset dx="0" dy="1" result="offset"/>
<feComposite in="SourceGraphic" in2="offset" result="fbSourceGraphic"/>
<feColorMatrix in="fbSourceGraphic" result="fbSourceGraphicAlpha" values="0 0 0 -1 0 0 0 0 -1 0 0 0 0 -1 0 0 0 0 1 0"/>
<feFlood flood-color="rgb(255,255,255)" flood-opacity=".10196" in="fbSourceGraphic" result="flood"/>
<feComposite in="flood" in2="fbSourceGraphic" operator="in" result="composite1"/>
<feGaussianBlur in="composite1" result="blur"/>
<feOffset dx="0" dy="1" result="offset"/>
<feComposite in="fbSourceGraphic" in2="offset" result="composite2"/>
</filter>
<linearGradient id="linearGradient1010" x1="12.207" x2="12.128" y1="53.535" y2="64.893" gradientTransform="matrix(1.6075 0 0 .70286 -3.4628 -16.695)" gradientUnits="userSpaceOnUse" xlink:href="#linearGradient2707"/>
</defs>
<g stroke-width="1.8415">
<path d="m22.877 26.711a6.9989 2.7863 0 0 1-6.8809 2.2891 6.9989 2.7863 0 0 1-6.8809-2.2832 6.9989 2.7863 0 0 0-0.11719 0.49609 6.9989 2.7863 0 0 0 6.998 2.7871 6.9989 2.7863 0 0 0 7-2.7871 6.9989 2.7863 0 0 0-0.11914-0.50195z" color="#000000" fill-opacity=".2" fill-rule="evenodd"/>
<ellipse cx="15.997" cy="26.214" rx="6.9989" ry="2.7863" color="#000000" fill="#adb0aa" fill-rule="evenodd"/>
<ellipse cx="15.997" cy="25.577" rx="6.3155" ry="2.3062" color="#000000" fill="none"/>
</g>
<g fill-rule="evenodd">
<rect x="12" y="22.502" width="8" height="3.498" color="#000000" fill="url(#linearGradient1010)" stroke-width="1.8703"/>
<path d="m3.1804 1.9996c-0.79144 0-1.1785 0.45365-1.1786 1.0145v18.521c-0.04117 0.80937 0.63596 1.4629 1.4274 1.4629h25.135c0.79141 0 1.4685-0.65359 1.4274-1.4629l0.0083-18.521c-0.030227-0.59241-0.53425-1.0145-1.1786-1.0145h-25.642z" color="#000000" fill="#dde1d9" filter="url(#filter988)" stroke-width="1.7498"/>
<path d="m4 4-3.43e-5 16h24v-15.932z" fill="#2584d4" stroke-width="1.7458"/>
<path d="m12 25v1h8v-1z" color="#000000" fill="url(#linearGradient1010)" stroke-width="1.8703"/>
</g>
<g transform="translate(0,-3)">
<rect x="7" y="10" width="8" height="12" rx="1.333" ry="1.2" opacity=".2"/>
<rect x="7" y="9" width="8" height="12" rx="1.333" ry="1.2" fill="#5ebae6"/>
<rect x="17" y="10" width="8" height="5" rx="1.333" ry="1.25" opacity=".2"/>
<rect x="17" y="9" width="8" height="5" rx="1.333" ry="1.25" fill="#5ebae6"/>
<rect x="17" y="17" width="8" height="5" rx="1.333" ry="1.25" opacity=".2"/>
<rect x="17" y="16" width="8" height="5" rx="1.333" ry="1.25" fill="#5ebae6"/>
<g fill="#fff">
<path d="m8.334 9c-0.73867 0-1.334 0.53442-1.334 1.1992v1c0-0.6648 0.59532-1.1992 1.334-1.1992h5.332c0.73867 0 1.334 0.53442 1.334 1.1992v-1c0-0.6648-0.59532-1.1992-1.334-1.1992z" opacity=".1"/>
<path d="m18.334 9c-0.73867 0-1.334 0.5575-1.334 1.25v1c0-0.6925 0.59532-1.25 1.334-1.25h5.332c0.73867 0 1.334 0.5575 1.334 1.25v-1c0-0.6925-0.59532-1.25-1.334-1.25z" opacity=".1"/>
<path d="m18.334 16c-0.73867 0-1.334 0.5575-1.334 1.25v1c0-0.6925 0.59532-1.25 1.334-1.25h5.332c0.73867 0 1.334 0.5575 1.334 1.25v-1c0-0.6925-0.59532-1.25-1.334-1.25z" opacity=".1"/>
</g>
</g>
</svg>
