<svg width="32" height="32" version="1" xmlns="http://www.w3.org/2000/svg">
<rect x="2" y="2" width="28" height="28" rx="14" ry="14" fill="#f5b35d"/>
<path d="m16 2c-7.756 0-14 6.244-14 14 0 0.16884 0.01952 0.33264 0.02539 0.5 0.2641-7.5206 6.3878-13.5 13.975-13.5s13.711 5.9794 13.975 13.5c6e-3 -0.16736 0.0254-0.33116 0.0254-0.5 0-7.756-6.244-14-14-14z" fill="#fff" opacity=".1"/>
<path d="m2.0254 16.5c-0.0059 0.167-0.0254 0.331-0.0254 0.5 0 7.756 6.244 14 14 14s14-6.244 14-14c0-0.16884-0.01952-0.33264-0.02539-0.5-0.264 7.521-6.388 13.5-13.975 13.5-7.5872 0-13.711-5.979-13.975-13.5z" opacity=".2"/>
<path d="M 31.979,23.424 A 8,8 0 0 1 24,31 8,8 0 0 1 16.021,23.576 8,8 0 0 0 16,24 a 8,8 0 0 0 8,8 8,8 0 0 0 8,-8 8,8 0 0 0 -0.02148,-0.57617 z" fill-rule="evenodd" opacity=".2"/>
<path d="m11.204 15c-4.2459 2.4096-4.7758 5.6722-3.7645 7.6033 1.0504 2.0055 2.8289 2.3717 4.9504 2.3869l3.5926 0.009795h0.03509l3.5926-0.0098c2.1213-0.01543 3.8999-0.38146 4.9504-2.3869 1.0113-1.9309 0.48141-5.1935-3.7645-7.6033-1.0057 1.054-2.9115 1.672-4.796 1.6896-1.8844-0.01764-3.7903-0.63562-4.796-1.6896z" color="#000000" fill="#4d4d4d" fill-rule="evenodd" stroke-width="1.7009"/>
<path d="m16 7c2.2094 0 4 1.7909 4 4 0 2.2094-1.7907 4-4 4-2.209 0-4-1.7907-4-4 0-2.209 1.7909-4 4-4z" fill="#4d4d4d" stroke-width="1.3333"/>
<circle cx="24" cy="23" r="8" fill="#a559d6"/>
<path d="m20 25.218v1.782h1.7819l4.5004-4.5004-1.7819-1.7819zm7.8586-4.2891c0.18848-0.18847 0.18848-0.48545 0-0.67393l-1.1137-1.1137c-0.18848-0.18848-0.48546-0.18848-0.67393 0l-0.931 0.937 1.782 1.782z" fill="#fff"/>
</svg>
