<svg width="32" height="32" version="1" xmlns="http://www.w3.org/2000/svg">
<defs>
<filter id="filter1008" color-interpolation-filters="sRGB">
<feFlood flood-color="rgb(0,0,0)" flood-opacity=".2" result="flood"/>
<feComposite in="flood" in2="SourceGraphic" operator="in" result="composite1"/>
<feGaussianBlur in="composite1" result="blur"/>
<feOffset dx="0" dy="1" result="offset"/>
<feComposite in="SourceGraphic" in2="offset" result="composite2"/>
</filter>
</defs>
<path d="m29.998 25.859c0 0.69684-0.4073 1.1406-1.0664 1.1406h-25.82c-0.66823 0-1.1113-0.33561-1.1113-1.0059v1c0 0.67025 0.4431 1.0059 1.1113 1.0059h25.82c0.6591 0 1.0664-0.44378 1.0664-1.1406z" fill-opacity=".2" stroke-width="1.674"/>
<path d="m7.6723 5c-0.41815 0-0.69449 0.23656-0.86174 0.66659l-4.6301 13.285c-0.035735 0.10254-0.028959 0.17654-0.051299 0.27057h27.802c-0.0051-0.02529 0.0014-0.0485-0.0068-0.07451l-4.7909-13.371c-0.12345-0.39767-0.43943-0.76714-0.76598-0.7764z" fill="#8e8e8e" opacity=".9" stroke-width="1.8748"/>
<path d="m7.3581 6.0064c-0.41815 0-0.68993 0.19649-0.85718 0.57132l-4.3277 11.581s-0.16725 0.45472-0.16725 1.2061v6.5344c0 0.73307 0.44007 1.1003 1.1081 1.1003h25.8c0.65888 0 1.0663-0.4863 1.0663-1.2485v-6.5344s0.07089-0.52167-0.06272-0.88873l-4.4951-11.645c-0.12346-0.34663-0.42612-0.66906-0.75266-0.67713z" fill="none" stroke-width="1.7504"/>
<path d="m16 8c-4.4182 0-8 1.8156-8 4.0557v4.0557h8c4.4179 0 8-1.8156 8-4.0557 0-2.2399-3.5821-4.0557-8-4.0557zm0 1.6222c2.651 0 4.8 1.0894 4.8 2.4334 0 1.3439-2.149 2.4334-4.8 2.4334-2.651 0-4.8-1.0894-4.8-2.4334 0-1.3439 2.149-2.4334 4.8-2.4334z" filter="url(#filter1008)" opacity=".5" stroke-width="1.6111"/>
<path d="m7.5968 6.3131c-0.40255 0-0.6642 0.18917-0.82521 0.55003-1.6e-6 0-4.2918 11.234-4.2918 11.234s-0.16103 0.43777-0.16103 1.1611v6.2905c0 0.91732 0.29709 1.1016 1.0667 1.1016h25.213c0.8852 0 1.0265-0.21424 1.0265-1.2442v-6.2905s0.06824-0.50221-0.06039-0.85559l-4.411-11.38c-0.11884-0.3337-0.36841-0.55947-0.68278-0.56723z" fill="none" stroke-width="1.7504"/>
<path d="m2.1608 19c-0.080249 0.20848-0.13009 0.40299-0.1334 0.56875l-0.027378 0.021872v6.4031c0 0.67025 0.44351 1.0062 1.1117 1.0062h25.82c0.6591 0 1.0673-0.44377 1.0673-1.1406v-6.2655c3e-3 -0.02137-0.0015-0.04375 0-0.06563v-0.13125l-0.02053-3e-3c-0.0075-0.10493-5.6e-5 -0.20721-0.04447-0.31875l-0.03421-0.075z" fill="#8e8e8e" stroke-width="1.674"/>
<path d="m7.6719 5c-0.41815 0-0.69408 0.23598-0.86133 0.66602l-4.6309 13.285c-0.03573 0.10254-0.02844 0.17746-0.05078 0.27148h0.30469l4.377-12.557c0.16725-0.43003 0.44318-0.66602 0.86133-0.66602h16.695c0.32655 0.00926 0.64218 0.37772 0.76562 0.77539l4.459 12.447h0.33984c-0.0051-0.02529 3.87e-4 -0.04821-0.0078-0.07422l-4.791-13.373c-0.12345-0.39767-0.43908-0.76613-0.76562-0.77539z" fill="#fff" fill-opacity=".1" opacity=".9" stroke-width="1.8748"/>
<g transform="translate(0 .13398)">
<circle cx="24" cy="23" r="8" fill="#8561c5"/>
<path d="m23 19-0.0882 1.0536a3.1429 3.1429 0 0 0-0.91852 0.53126l-0.95759-0.4509-1 1.7321 0.86941 0.6038a3.1429 3.1429 0 0 0-0.048 0.53013 3.1429 3.1429 0 0 0 0.0457 0.53237l-0.86719 0.60156 1 1.7321 0.95536-0.44978a3.1429 3.1429 0 0 0 0.92075 0.5279l0.0882 1.0558h2l0.0882-1.0536a3.1429 3.1429 0 0 0 0.91854-0.53126l0.95758 0.4509 1-1.7321-0.86942-0.6038a3.1429 3.1429 0 0 0 0.048-0.53013 3.1429 3.1429 0 0 0-0.0457-0.53237l0.86719-0.60156-1-1.7321-0.95536 0.44978a3.1429 3.1429 0 0 0-0.921-0.528l-0.088-1.056h-2zm1 2.8572a1.1429 1.1429 0 0 1 1.143 1.143 1.1429 1.1429 0 0 1-1.143 1.143 1.1429 1.1429 0 0 1-1.143-1.143 1.1429 1.1429 0 0 1 1.143-1.143z" fill="#fff"/>
<path d="M 31.979,23.424 A 8,8 0 0 1 24,31 8,8 0 0 1 16.021,23.576 8,8 0 0 0 16,24 a 8,8 0 0 0 8,8 8,8 0 0 0 8,-8 8,8 0 0 0 -0.02148,-0.57617 z" opacity=".2"/>
</g>
</svg>
