<svg width="32" height="32" version="1" xmlns="http://www.w3.org/2000/svg">
<rect x="2" y="5" width="28" height="24" rx="2" ry="2" opacity=".2"/>
<rect x="2" y="4" width="28" height="24" rx="2" ry="2" fill="#816130"/>
<g fill="#fff">
<path d="m4 4c-1.108 0-2 0.892-2 2v1c0-1.108 0.892-2 2-2h24c1.108 0 2 0.892 2 2v-1c0-1.108-0.892-2-2-2h-24z" opacity=".2"/>
<g>
<path d="m7.0362 15.527c-3.0665 1.8006-3.4492 4.2386-2.7188 5.6817 0.75862 1.4987 2.0431 1.7723 3.5753 1.7837l2.5947 0.007301h0.02534l2.5947-0.0073c1.5321-0.01153 2.8166-0.28505 3.5753-1.7837 0.7304-1.4429 0.34769-3.881-2.7188-5.6817-0.72632 0.78761-2.1028 1.2495-3.4637 1.2626-1.361-0.01318-2.7374-0.47498-3.4637-1.2626z" color="#000000" fill-rule="evenodd" stroke-width="1.2495"/>
<path d="m10.5 10c1.3809 0 2.5 1.1193 2.5 2.5 0 1.3809-1.1192 2.5-2.5 2.5-1.3806 0-2.5-1.1192-2.5-2.5 0-1.3806 1.1193-2.5 2.5-2.5z" stroke-width=".83334"/>
<path d="m20.336 13.75c-2.3588 1.265-2.6533 2.9779-2.0914 3.9916 0.58354 1.0529 1.5716 1.2451 2.7503 1.2531l1.9958 0.0051h0.01949l1.9958-0.0051c1.1785-0.0081 2.1666-0.20027 2.7503-1.2531 0.56184-1.0137 0.26746-2.7265-2.0914-3.9916-0.5587 0.55333-1.6176 0.8778-2.6644 0.88703-1.0469-0.0093-2.1057-0.33368-2.6644-0.88703z" color="#000000" fill-rule="evenodd" stroke-width=".91857"/>
<path d="m23 9c1.1047 0 2 0.89547 2 2 0 1.1047-0.89533 2-2 2-1.1045 0-2-0.89533-2-2 0-1.1045 0.89547-2 2-2z" stroke-width=".66667"/>
</g>
</g>
<g fill-opacity=".2">
<path d="m4.0469 20.273c-0.11601 0.72643-0.0016 1.3998 0.26953 1.9355 0.75862 1.4987 2.044 1.7718 3.5762 1.7832l2.5957 0.007812h0.02344l2.5957-0.0078c1.5321-0.01153 2.8175-0.28456 3.5762-1.7832 0.27114-0.53566 0.38554-1.2091 0.26953-1.9355-0.04717 0.33802-0.1296 0.6591-0.26953 0.93555-0.75868 1.4986-2.0441 1.7717-3.5762 1.7832l-2.5957 0.0078h-0.02344l-2.5957-0.0078c-1.5322-0.0114-2.8176-0.28454-3.5762-1.7832-0.13992-0.27648-0.22236-0.59751-0.26953-0.93555z" color="#000000" fill-rule="evenodd" stroke-width="1.2495"/>
<path d="m18.066 17.27c-0.12403 0.55288-0.04597 1.069 0.17774 1.4727 0.58354 1.0529 1.5713 1.2439 2.75 1.252l1.9961 0.005859h0.01953l1.9961-0.0059c1.1785-0.0081 2.1663-0.19912 2.75-1.252 0.2237-0.40362 0.30176-0.91978 0.17774-1.4727-0.04179 0.16868-0.09803 0.32884-0.17774 0.47266-0.58371 1.0528-1.5715 1.2439-2.75 1.252l-1.9961 0.0059h-0.01953l-1.9961-0.0059c-1.1787-8e-3 -2.1665-0.19904-2.75-1.252-0.07971-0.14382-0.13594-0.30397-0.17774-0.47266z" color="#000000" fill-rule="evenodd" stroke-width=".91857"/>
<path d="m8.0508 13.004c-0.032314 0.16041-0.050781 0.32616-0.050781 0.49609 0 1.3808 1.1194 2.5 2.5 2.5 1.3808 0 2.5-1.1191 2.5-2.5 0-0.16993-0.01847-0.33568-0.05078-0.49609-0.23309 1.1393-1.241 1.9961-2.4492 1.9961-1.208 0-2.2161-0.85683-2.4492-1.9961z" stroke-width=".83334"/>
<path d="m21.07 11.5c-0.041658 0.16076-0.070312 0.32622-0.070312 0.5 0 1.1047 0.89547 2 2 2 1.1047 0 2-0.89534 2-2 0-0.17378-0.02866-0.33924-0.07031-0.5-0.2231 0.86105-0.99882 1.5-1.9297 1.5-0.93075 0-1.7066-0.63895-1.9297-1.5z" stroke-width=".66667"/>
</g>
</svg>
