<svg width="32" height="32" version="1" xmlns="http://www.w3.org/2000/svg">
<defs>
<filter id="filter1045" color-interpolation-filters="sRGB">
<feFlood flood-color="rgb(0,0,0)" flood-opacity=".2" result="flood"/>
<feComposite in="flood" in2="SourceGraphic" operator="in" result="composite1"/>
<feGaussianBlur in="composite1" result="blur"/>
<feOffset dx="0" dy="1" result="offset"/>
<feComposite in="SourceGraphic" in2="offset" result="composite2"/>
</filter>
<filter id="filter1057" color-interpolation-filters="sRGB">
<feFlood flood-color="rgb(0,0,0)" flood-opacity=".2" result="flood"/>
<feComposite in="flood" in2="SourceGraphic" operator="in" result="composite1"/>
<feGaussianBlur in="composite1" result="blur"/>
<feOffset dx="0" dy="1" result="offset"/>
<feComposite in="SourceGraphic" in2="offset" result="composite2"/>
</filter>
<filter id="filter1069" color-interpolation-filters="sRGB">
<feFlood flood-color="rgb(0,0,0)" flood-opacity=".2" result="flood"/>
<feComposite in="flood" in2="SourceGraphic" operator="in" result="composite1"/>
<feGaussianBlur in="composite1" result="blur"/>
<feOffset dx="0" dy="1" result="offset"/>
<feComposite in="SourceGraphic" in2="offset" result="composite2"/>
</filter>
</defs>
<path d="m2.0239 25.666c-0.15117 0.66664 0.4283 1.3571 1.3857 1.3333h25.523c0.90699-0.02381 1.2093-0.80948 1.0078-1.4523l-1.5188-5.3161h-25.268z" fill="#b9b9b9" fill-rule="evenodd" filter="url(#filter1045)" stroke-width="1.7208"/>
<path d="m5.4267 20.52h20.841c0.59092 0 1.0666 0.47134 1.0666 1.0568l0.91489 3.3659c0 0.58547-0.47571 1.0568-1.0666 1.0568h-22.366c-0.59092 0-1.0666-0.47134-1.0666-1.0568l0.60993-3.3659c0-0.58547 0.47571-1.0568 1.0666-1.0568z" color="#000000" fill="#d3d7cf" fill-opacity=".99608" fill-rule="evenodd" stroke-width="1.793"/>
<path d="m2.8543 25.25c-0.13942 0.62176-0.27808 1.0531 0.33129 1.0531h25.331c0.63902 0 0.51742-0.4931 0.33154-1.0927l-5.2615-18.182h-16.916z" fill="none" stroke-width="1.7208"/>
<path d="m5.4267 20.784h20.841c0.59092 0 1.0666 0.36262 1.0666 0.81304l0.91489 2.5894c0 0.45041-0.47571 0.81304-1.0666 0.81304h-22.366c-0.59092 0-1.0666-0.36262-1.0666-0.81304l0.60993-2.5894c0-0.45041 0.47571-0.81304 1.0666-0.81304z" color="#000000" fill="#e2e2e2" fill-rule="evenodd" stroke-width="1.9205"/>
<path d="m5.5441 7.7387-2.9283 15.261 17.371 1e-6c8.2744 0 10.013-2.7736 10.013-2.7736s-2.2073-1.4423-3.1466-4.5619l-2.0126-7.9257z" fill="#e7ebeb" fill-rule="evenodd" stroke-width="1.7276"/>
<path d="m6.2412 9.1232-2.6244 12.419h16.061c7.3815 0 9.2775-1.7912 9.2775-1.7912s-1.968-1.1705-2.8229-4.0096l-1.8007-6.5731z" fill="none" stroke-width="1.7208"/>
<path d="m13.146 15.348c0.69412 0.05627 1.2096 0.2235 1.5463 0.50168 0.33717 0.27507 0.47613 0.62671 0.41687 1.0549-0.08695 0.62826-0.48371 1.1346-1.1903 1.5191-0.70658 0.38445-1.6205 0.57669-2.7419 0.57669-0.86086 0-1.5865-0.11564-2.1768-0.34695l0.16868-1.219c0.62041 0.36569 1.3257 0.54858 2.1161 0.54858 0.63129 1e-6 1.129-0.08751 1.4932-0.26256 0.36458-0.17816 0.56915-0.4282 0.61371-0.75015 0.04671-0.33757-0.10011-0.5845-0.44049-0.7408-0.34038-0.15628-0.90787-0.23443-1.7025-0.23443h-0.89396l0.14533-1.0503h0.95355c0.62686 4e-6 1.1171-0.08127 1.4707-0.2438 0.35401-0.16566 0.55201-0.40009 0.59397-0.70329 0.03935-0.28442-0.06371-0.51261-0.30921-0.68453-0.24551-0.17191-0.63534-0.25787-1.1695-0.25788-0.67545 6e-6 -1.3367 0.1688-1.9839 0.50637l0.16157-1.1675c0.72501-0.26256 1.5379-0.39382 2.4385-0.39383 0.86968 7e-6 1.5369 0.15473 2.0017 0.46417 0.46927 0.30943 0.67062 0.70484 0.60401 1.1862-0.06186 0.44699-0.26919 0.81269-0.62198 1.0971-0.35239 0.28132-0.85022 0.48138-1.4935 0.60012" filter="url(#filter1069)" stroke-width="1.6383"/>
<path d="m21.6 18.986h-1.7615l-0.78043-5.6168-2.1718 0.47823-0.14658-1.0549 3.8915-0.77829 0.96872 6.972" filter="url(#filter1057)" stroke-width="1.6383"/>
<path d="m6.7939 5h16.853c0.58444 0 1.0549 0.52016 1.0549 1.1663l0.23906 1.6675c0 0.64611-0.47049 1.1663-1.0549 1.1663h-17.332c-0.58444 0-1.0549-0.52016-1.0549-1.1663l0.23906-1.6675c0-0.64611 0.4705-1.1663 1.0549-1.1663z" color="#000000" fill="#f54b3e" fill-rule="evenodd" stroke-width="1.8681"/>
<path d="m6.793 5c-0.58441 0-1.0547 0.51991-1.0547 1.166l-0.23828 1.668c0 0.15671 0.02981 0.30514 0.08008 0.44141l0.1582-1.1094c-2e-6 -0.64611 0.47028-1.166 1.0547-1.166h16.854c0.58444 0 1.0547 0.51991 1.0547 1.166l0.16016 1.1055c0.04938-0.13523 0.08008-0.28225 0.08008-0.4375l-0.24024-1.668c0-0.64611-0.47025-1.166-1.0547-1.166z" color="#000000" fill="#fff" fill-opacity=".1" fill-rule="evenodd" stroke-width="1.8681"/>
</svg>
