<svg width="32" height="32" version="1" xmlns="http://www.w3.org/2000/svg">
<defs>
<filter id="filter835" color-interpolation-filters="sRGB">
<feFlood flood-color="rgb(0,0,0)" flood-opacity=".2" result="flood"/>
<feComposite in="flood" in2="SourceGraphic" operator="in" result="composite1"/>
<feGaussianBlur in="composite1" result="blur"/>
<feOffset dx="0" dy="1" result="offset"/>
<feComposite in="SourceGraphic" in2="offset" result="fbSourceGraphic"/>
<feColorMatrix in="fbSourceGraphic" result="fbSourceGraphicAlpha" values="0 0 0 -1 0 0 0 0 -1 0 0 0 0 -1 0 0 0 0 1 0"/>
<feFlood flood-color="rgb(255,255,255)" flood-opacity=".10196" in="fbSourceGraphic" result="flood"/>
<feComposite in="flood" in2="fbSourceGraphic" operator="out" result="composite1"/>
<feGaussianBlur in="composite1" result="blur"/>
<feOffset dx="0" dy="1" result="offset"/>
<feComposite in="offset" in2="fbSourceGraphic" operator="atop" result="composite2"/>
</filter>
<filter id="filter847" color-interpolation-filters="sRGB">
<feFlood flood-color="rgb(0,0,0)" flood-opacity=".2" result="flood"/>
<feComposite in="flood" in2="SourceGraphic" operator="in" result="composite1"/>
<feGaussianBlur in="composite1" result="blur"/>
<feOffset dx="0" dy="1" result="offset"/>
<feComposite in="SourceGraphic" in2="offset" result="composite2"/>
</filter>
<filter id="filter859" color-interpolation-filters="sRGB">
<feFlood flood-color="rgb(0,0,0)" flood-opacity=".2" result="flood"/>
<feComposite in="flood" in2="SourceGraphic" operator="in" result="composite1"/>
<feGaussianBlur in="composite1" result="blur"/>
<feOffset dx="0" dy="1" result="offset"/>
<feComposite in="SourceGraphic" in2="offset" result="composite2"/>
</filter>
<filter id="filter871" color-interpolation-filters="sRGB">
<feFlood flood-color="rgb(0,0,0)" flood-opacity=".2" result="flood"/>
<feComposite in="flood" in2="SourceGraphic" operator="in" result="composite1"/>
<feGaussianBlur in="composite1" result="blur"/>
<feOffset dx="0" dy="1" result="offset"/>
<feComposite in="SourceGraphic" in2="offset" result="composite2"/>
</filter>
</defs>
<rect x="2" y="2" width="28" height="28" rx="3.8126" ry="3.8126" color="#000000" fill="#d3d7cf" fill-opacity=".99608" fill-rule="evenodd" filter="url(#filter835)" stroke-width="1.75"/>
<path d="m11.8 3.4-1.7941 6.1305-0.20243 0.82281c-0.018281 0.07836-0.027621 0.14468-0.027621 0.19893-7.8e-6 0.09645 0.030667 0.18084 0.092 0.25318 0.049067 0.05425 0.1104 0.08138 0.18402 0.08138 0.07973 0 0.18402-0.04822 0.31282-0.14468 0.2392-0.17482 0.55815-0.53648 0.95686-1.085l0.31282 0.21701c-0.42323 0.62692-0.85872 1.1061-1.3065 1.4377-0.44778 0.32551-0.8618 0.48826-1.2421 0.48826-0.26375 0-0.46311-0.06631-0.59804-0.19893-0.1288-0.12659-0.19321-0.31346-0.1932-0.56062-7.8e-6 -0.29537 0.067466-0.68418 0.2024-1.1664l0.19321-0.67815c-0.8035 1.0308-1.5427 1.7511-2.2172 2.161-0.48455 0.29537-0.95992 0.44306-1.426 0.44306-0.44775 0-0.83418-0.18084-1.1593-0.54253-0.32508-0.36771-0.48762-0.87104-0.48762-1.51 0-0.95845 0.29135-1.9681 0.87403-3.029 0.58881-1.067 1.3341-1.92 2.2357-2.5589 0.70538-0.50634 1.3709-0.75953 1.9965-0.75953 0.37415 8.3e-6 0.6839 0.096456 0.92924 0.28935 0.25147 0.19291 0.44162 0.51239 0.57044 0.95845l0.33123-1.0308 1.4629-0.21701m-3.2754 0.47018c-0.39255 7.7e-6 -0.80963 0.18085-1.2513 0.54253-0.62563 0.51239-1.1838 1.2719-1.6745 2.2785-0.48455 1.0067-0.72684 1.9169-0.72684 2.7306-2e-6 0.40991 0.10427 0.73541 0.31282 0.97654 0.20856 0.2351 0.44775 0.35263 0.71764 0.35263 0.66857 0 1.3954-0.48524 2.1805-1.4557 1.0488-1.29 1.5733-2.6131 1.5733-3.9694-4.1e-6 -0.51237-0.10122-0.88309-0.30362-1.1122-0.2024-0.22905-0.47842-0.3436-0.82804-0.3436" filter="url(#filter847)" stroke-width="1.9488"/>
<path d="m14.66 13.749v4.6761c0.52921-0.59806 1.0687-1.0541 1.6185-1.3681 0.54983-0.32144 1.2302-0.48218 2.0412-0.48221 0.93471 1.1e-5 1.7526 0.24297 2.4537 0.7289 0.70789 0.47847 1.2543 1.1775 1.6391 2.097 0.39175 0.91207 0.58762 1.9961 0.58763 3.252-1.3e-5 0.92701-0.10997 1.7792-0.3299 2.5568-0.21307 0.77002-0.52578 1.4391-0.93816 2.0073-0.41239 0.56817-0.91411 1.0092-1.5052 1.3232-0.58421 0.30651-1.2302 0.45977-1.9381 0.45977-0.433 0-0.84194-0.05606-1.2268-0.1682-0.37801-0.11214-0.70104-0.25792-0.96907-0.43734-0.26804-0.18689-0.4983-0.37753-0.69073-0.57191-0.18557-0.19437-0.433-0.48593-0.74228-0.87467v0.30278c-5e-6 0.57564-0.12716 1.013-0.38144 1.312-0.25431 0.29156-0.57732 0.43733-0.96907 0.43733-0.39864 0-0.71823-0.14579-0.95876-0.43733-0.23368-0.29903-0.35053-0.73637-0.35053-1.312v-13.367c-2e-6 -0.62047 0.11341-1.0877 0.34022-1.4017 0.23367-0.32144 0.55669-0.48218 0.96907-0.48221 0.433 1.6e-5 0.76633 0.15327 1 0.45977 0.23367 0.29906 0.35053 0.72892 0.35053 1.2896m0.13403 9.0945c-3e-6 1.2186 0.25429 2.1569 0.76289 2.8145 0.51547 0.65041 1.189 0.97559 2.0206 0.97559 0.70789 3e-6 1.3161-0.33268 1.8248-0.99803 0.51546-0.67282 0.77319-1.6334 0.7732-2.8819-1.2e-5 -0.80739-0.10655-1.5027-0.31959-2.0858-0.21308-0.5831-0.51549-1.0317-0.90724-1.3457-0.39176-0.32144-0.84881-0.48218-1.3711-0.48221-0.5361 8e-6 -1.0138 0.16074-1.433 0.48221-0.41926 0.31399-0.74915 0.77376-0.98969 1.3793-0.24056 0.59806-0.36083 1.312-0.36083 2.1417" filter="url(#filter859)" stroke-width="1.9001"/>
<path d="m27.2 8.1523c-4e-6 0.13749-0.01022 0.33912-0.03087 0.60491-0.01022 0.25663-0.01543 0.44453-0.01543 0.56367h-2.1596v-1.6911c-4e-6 -0.32995-0.2057-0.49493-0.61708-0.49493-0.41138 7.7e-6 -0.61708 0.16499-0.61708 0.49493v5.4305c-4e-6 0.33912 0.2057 0.50868 0.61708 0.50868 0.41138 1e-6 0.61706-0.16955 0.61708-0.50868v-1.8011h2.1596v1.7598c-7e-6 0.54075-0.32911 0.95319-0.98732 1.2373-0.52452 0.22912-1.121 0.3437-1.7895 0.3437-0.67879 0-1.2753-0.11457-1.7895-0.3437-0.65821-0.28413-0.98732-0.69657-0.98732-1.2373v-5.293c0-1.0174 0.92561-1.526 2.7768-1.526 0.92561 8.3e-6 1.6044 0.12374 2.0364 0.3712 0.5245 0.30246 0.78677 0.82946 0.78677 1.581" filter="url(#filter871)" stroke-width="1.8679"/>
</svg>
