<svg width="32" height="32" version="1" xmlns="http://www.w3.org/2000/svg" xmlns:xlink="http://www.w3.org/1999/xlink">
<defs>
<linearGradient id="linearGradient2707" x1="12.207" x2="12.128" y1="53.535" y2="64.893" gradientTransform="matrix(1.6075 0 0 .70286 -3.4628 -16.695)" gradientUnits="userSpaceOnUse">
<stop stop-color="#585956" offset="0"/>
<stop stop-color="#bbbeb8" offset="1"/>
</linearGradient>
<filter id="filter988" color-interpolation-filters="sRGB">
<feFlood flood-color="rgb(0,0,0)" flood-opacity=".2" result="flood"/>
<feComposite in="flood" in2="SourceGraphic" operator="in" result="composite1"/>
<feGaussianBlur in="composite1" result="blur"/>
<feOffset dx="0" dy="1" result="offset"/>
<feComposite in="SourceGraphic" in2="offset" result="fbSourceGraphic"/>
<feColorMatrix in="fbSourceGraphic" result="fbSourceGraphicAlpha" values="0 0 0 -1 0 0 0 0 -1 0 0 0 0 -1 0 0 0 0 1 0"/>
<feFlood flood-color="rgb(255,255,255)" flood-opacity=".10196" in="fbSourceGraphic" result="flood"/>
<feComposite in="flood" in2="fbSourceGraphic" operator="in" result="composite1"/>
<feGaussianBlur in="composite1" result="blur"/>
<feOffset dx="0" dy="1" result="offset"/>
<feComposite in="fbSourceGraphic" in2="offset" result="composite2"/>
</filter>
<linearGradient id="linearGradient1010" x1="12.207" x2="12.128" y1="53.535" y2="64.893" gradientTransform="matrix(1.6075 0 0 .70286 -3.4628 -16.695)" gradientUnits="userSpaceOnUse" xlink:href="#linearGradient2707"/>
<linearGradient id="linearGradient946" x1="12.207" x2="12.128" y1="53.535" y2="64.893" gradientTransform="matrix(1.6075 0 0 .70286 -3.4628 -16.695)" gradientUnits="userSpaceOnUse" xlink:href="#linearGradient2707"/>
</defs>
<g stroke-width="1.8415">
<path d="m22.877 26.711a6.9989 2.7863 0 0 1-6.8809 2.2891 6.9989 2.7863 0 0 1-6.8809-2.2832 6.9989 2.7863 0 0 0-0.11719 0.49609 6.9989 2.7863 0 0 0 6.998 2.7871 6.9989 2.7863 0 0 0 7-2.7871 6.9989 2.7863 0 0 0-0.11914-0.50195z" color="#000000" fill-opacity=".2" fill-rule="evenodd"/>
<ellipse cx="15.997" cy="26.214" rx="6.9989" ry="2.7863" color="#000000" fill="#adb0aa" fill-rule="evenodd"/>
<ellipse cx="15.997" cy="25.577" rx="6.3155" ry="2.3062" color="#000000" fill="none"/>
</g>
<g fill-rule="evenodd">
<rect x="12" y="22.502" width="8" height="3.498" color="#000000" fill="url(#linearGradient946)" stroke-width="1.8703"/>
<path d="m3.1804 1.9996c-0.79144 0-1.1785 0.45365-1.1786 1.0145v18.521c-0.04117 0.80937 0.63596 1.4629 1.4274 1.4629h25.135c0.79141 0 1.4685-0.65359 1.4274-1.4629l0.0083-18.521c-0.030227-0.59241-0.53425-1.0145-1.1786-1.0145h-25.642z" color="#000000" fill="#dde1d9" filter="url(#filter988)" stroke-width="1.7498"/>
<path d="m4 4-3.43e-5 16h24v-15.932z" fill="#babdb6" stroke-width="1.7458"/>
<path d="m12 25v1h8v-1z" color="#000000" fill="url(#linearGradient1010)" stroke-width="1.8703"/>
</g>
<g transform="matrix(.98761 0 0 .98761 -38.7 1.3911)">
<g transform="matrix(1.4001 0 0 1.4001 38.904 -1.4897)" stroke-width="1.2854">
<path d="m7.4333 3s0.16429 4.6614 0.16429 5.094c0 0.40001-0.37788 1.0612 0.13143 1.0612 0.47644 0 0.09858-0.67756 0.13143-1.0612 0.03007-0.35127 0.09858-2.547 0.09858-2.547s0.36144 0.048986 0.52573-0.42449c0.16429-0.47348 0.13143-1.4694 0.13143-1.4694l0.26286 0.39185c0.52573 3.4613 0.28164 5.6655 0.29573 5.9266 0.01221 0.22858-0.37808 1.2572 0.16429 1.2572 0.69024 0 0.18797-1.0001 0.19715-1.2408 0.0098-0.25707 0.0795-2.147 0.46002-4.3756 0.57767 0.84083 0.21837-0.7837 0.87552 2.6776l8.1276 0.71838c-0.13143-3.4613-1.5869-5.9828-2.5702-5.9899l-8.9958-0.018439z" color="#000000" fill="#204a87"/>
<path d="m11.574 12.006h7.4251s0.1071-2.5576-0.60686-3.1969c-0.67737-0.60663-1.6421-0.47113-1.6421-0.47113l-0.0357 0.26922s-0.35698-0.23557-0.99954-0.26922c-0.64256-0.03366-1.1066 0.03366-1.1066 0.03366l0.21419 0.20191s-0.89243-0.33652-1.7492-0.33652c-0.85675 0-1.0352 0.03366-1.0352 0.03366l0.32128 0.16826s-0.71396-0.30286-1.2851-0.30286-1.0709 0.23557-1.0709 0.23557 0.82105 0.40383 1.1423 0.94226c0.32128 0.53843 0.14279 2.6922 0.14279 2.6922z" color="#000000" fill="#6a6352"/>
<path d="m11.289 12v1.9964c0 0.55471 0.4244 1.0055 0.94663 1.0055h1.6236c-0.13178 1.4031-0.42684 3.0238-0.36144 4.2431 0.04096 0.76377 0.66392 1.7863 1.6523 1.7863 0.88517 0 1.5217-0.91645 1.5834-1.8282 0.06885-1.0168-0.11328-2.7955-0.30407-4.2012h1.6236c0.52223 0 0.94663-0.45078 0.94663-1.0055v-1.9651z" color="#000000" fill="#e5d28f"/>
</g>
<path d="m64.105 15.311v0.99933c0 0.21355-0.26905 0.38546-0.60322 0.38546h-7.1939c-0.33419 0-0.60322-0.17191-0.60322-0.38546v-0.99933h8.4005z" color="#000000" fill="#e7e5e0" stroke-width="1.7054"/>
</g>
</svg>
