<svg width="32" height="32" version="1" xmlns="http://www.w3.org/2000/svg">
<defs>
<filter id="filter1049" color-interpolation-filters="sRGB">
<feFlood flood-color="rgb(0,0,0)" flood-opacity=".2" result="flood"/>
<feComposite in="flood" in2="SourceGraphic" operator="in" result="composite1"/>
<feGaussianBlur in="composite1" result="blur"/>
<feOffset dx="0" dy="1" result="offset"/>
<feComposite in="SourceGraphic" in2="offset" result="fbSourceGraphic"/>
<feColorMatrix in="fbSourceGraphic" result="fbSourceGraphicAlpha" values="0 0 0 -1 0 0 0 0 -1 0 0 0 0 -1 0 0 0 0 1 0"/>
<feFlood flood-color="rgb(255,255,255)" flood-opacity=".10196" in="fbSourceGraphic" result="flood"/>
<feComposite in="flood" in2="fbSourceGraphic" operator="out" result="composite1"/>
<feGaussianBlur in="composite1" result="blur"/>
<feOffset dx="0" dy="1" result="offset"/>
<feComposite in="offset" in2="fbSourceGraphic" operator="atop" result="composite2"/>
</filter>
</defs>
<g filter="url(#filter1049)">
<path d="m2.6439 22.893c-0.63845 3.5476 2.1033 6.5691 6.7891 6.5691 4.6858 0 6.4792-3.6471 5.9467-6.5691l-1.6892-5.8528c-0.14016-0.92078-0.55303-1.0096-0.79755-1.0983-2.6535-0.96276-5.7471-1.0422-7.9089 0-0.2709 0.1306-0.49529 0.08097-0.65988 0.74522z" fill="none" stroke-width="1.9723"/>
<g transform="translate(-20)" fill-rule="evenodd">
<path d="m32.839 5.1111c-0.35201 0.00829-0.53934 0.33175-0.58428 0.72117l-0.92177 14.982c6.1715 2.2537 14.413 1.4583 18.667 0l-1.1892-14.781c-0.04494-0.43084-0.26986-0.91463-0.73422-0.92291z" color="#000000" fill="#e6e5e1" stroke-width="1.8043"/>
<g transform="translate(20)">
<g fill="#4f4f4f">
<rect x="14.444" y="5.1111" width="1.5556" height="1.5556" rx=".66561" ry=".63505" color="#000000" stroke-width="1.3816"/>
<rect x="14.444" y="8.2222" width="3.1111" height="1.5556" color="#000000" stroke-width="3.0735"/>
<g transform="matrix(1.5556 0 0 1.5556 -1.1111 -1.1111)">
<rect x="13" y="6" width="2" height="1" color="#000000" stroke-width="1.9758"/>
<rect transform="matrix(.64924 -.76058 .70461 .7096 0 0)" x="3.5161" y="13.715" width="3.077" height=".73389" rx=".55273" ry=".5493" color="#000000" stroke-width="1.1709"/>
<rect x="16" y="6" width="2" height="1" color="#000000" stroke-width="1.9758"/>
</g>
<path d="m14.444 11.333v6.2222h12.444v-6.2222zm1.5556 1.5556h9.3333v3.1111h-9.3333z" stroke-width="1.037"/>
</g>
<path d="m25.727 0.6706c0.42659-0.46335 1.1579 0.26477 0.79224 0.86052 0 0-2.0568 3.4751-4.2048 6.1561-2.1482 2.6808-4.3877 4.5178-4.3877 4.5178-0.33518 0.31442-1.3712 0.74467-1.3712 0.74467l-0.27348-0.33658s0.44108-1.07 0.73053-1.401l0.97505-1.208z" color="#000000" fill="#d3d7cf" fill-opacity=".99608" stroke-width="1.8183"/>
</g>
</g>
<g fill-rule="evenodd">
<path d="m8.8112 14.444c-1.561-0.006689-3.0819 0.27188-4.2512 0.85373-0.29717 0.15003-0.51316 0.14918-0.72931 0.8993l-1.5954 5.8486c-1.141 4.7124 1.9777 7.954 6.9695 7.954 4.9378 0 7.5973-3.7545 6.5805-7.954l-1.6196-5.6236c-0.18912-0.78765-0.59145-1.0384-0.86302-1.1241-1.194-0.49865-2.6076-0.77168-4.0143-0.82942 1.1729 0.18659 2.0563 1.5121 2.0572 3.0868 0 1.7183-1.0449 3.1111-2.3338 3.1111-1.2889 0-2.3338-1.3929-2.3338-3.1111 0.00142-1.668 0.98936-3.0377 2.2395-3.105-0.035436-4.43e-4 -0.070964-0.0059-0.10635-0.0061z" fill="#4f4f4f" opacity=".9" stroke-width="1.9723"/>
<g transform="matrix(1.5556 0 0 1.5556 -1.1111 -1.1111)">
<path d="m6.5075 15h4.3758c-0.0083-0.03795-0.01227-0.07521-0.02148-0.11328l-1.0412-3.6152c-0.12158-0.50635-0.38022-0.66756-0.5548-0.72266-0.76757-0.32056-1.6763-0.49608-2.5806-0.5332 0.75404 0.11995 1.3219 0.97206 1.3225 1.9844 0 1.1046-0.6717 2-1.5003 2z" fill="#4f4f4f" stroke-width="1.2679"/>
<path d="m6.5075 15v-1c-0.82859 0-1.5003-0.89543-1.5003-2 9.152e-4 -1.0723 0.63602-1.9528 1.4397-1.9961-0.022784-2.85e-4 -0.045619-0.0038-0.068373-0.0039-1.0035-0.0043-1.9812 0.17478-2.7329 0.54883-0.19104 0.09645-0.32989 0.0959-0.46884 0.57812l-1.0256 3.7598c-0.0093 0.03853-0.013042 0.07506-0.021484 0.11328z" fill="#4f4f4f" opacity=".5" stroke-width="1.2679"/>
<ellipse cx="6.5" cy="12" rx="1.5" ry="2" fill="#fff"/>
</g>
<ellipse cx="9.0117" cy="16.778" rx=".77793" ry="2.3333" color="#000000" fill="#b1b1b1" stroke-width="1.9054"/>
</g>
</g>
</svg>
