<svg width="32" height="32" version="1" xmlns="http://www.w3.org/2000/svg">
<defs>
<filter id="filter904" color-interpolation-filters="sRGB">
<feFlood flood-color="rgb(0,0,0)" flood-opacity=".2" result="flood"/>
<feComposite in="flood" in2="SourceGraphic" operator="in" result="composite1"/>
<feGaussianBlur in="composite1" result="blur"/>
<feOffset dx="0" dy="1" result="offset"/>
<feComposite in="SourceGraphic" in2="offset" result="composite2"/>
</filter>
<filter id="filter916" color-interpolation-filters="sRGB">
<feFlood flood-color="rgb(0,0,0)" flood-opacity=".2" result="flood"/>
<feComposite in="flood" in2="SourceGraphic" operator="in" result="composite1"/>
<feGaussianBlur in="composite1" result="blur"/>
<feOffset dx="0" dy="1" result="offset"/>
<feComposite in="SourceGraphic" in2="offset" result="composite2"/>
</filter>
<filter id="filter929" color-interpolation-filters="sRGB">
<feFlood flood-color="rgb(0,0,0)" flood-opacity=".2" result="flood"/>
<feComposite in="flood" in2="SourceGraphic" operator="in" result="composite1"/>
<feGaussianBlur in="composite1" result="blur"/>
<feOffset dx="0" dy="1" result="offset"/>
<feComposite in="SourceGraphic" in2="offset" result="composite2"/>
</filter>
<filter id="filter941" color-interpolation-filters="sRGB">
<feFlood flood-color="rgb(0,0,0)" flood-opacity=".2" result="flood"/>
<feComposite in="flood" in2="SourceGraphic" operator="in" result="composite1"/>
<feGaussianBlur in="composite1" result="blur"/>
<feOffset dx="0" dy="1" result="offset"/>
<feComposite in="SourceGraphic" in2="offset" result="composite2"/>
</filter>
<filter id="filter953" color-interpolation-filters="sRGB">
<feFlood flood-color="rgb(0,0,0)" flood-opacity=".2" result="flood"/>
<feComposite in="flood" in2="SourceGraphic" operator="in" result="composite1"/>
<feGaussianBlur in="composite1" result="blur"/>
<feOffset dx="0" dy="1" result="offset"/>
<feComposite in="SourceGraphic" in2="offset" result="composite2"/>
</filter>
<filter id="filter972" color-interpolation-filters="sRGB">
<feFlood flood-color="rgb(255,255,255)" flood-opacity=".10196" result="flood"/>
<feComposite in="flood" in2="SourceGraphic" operator="out" result="composite1"/>
<feGaussianBlur in="composite1" result="blur"/>
<feOffset dx="0" dy="1" result="offset"/>
<feComposite in="offset" in2="SourceGraphic" operator="atop" result="composite2"/>
</filter>
</defs>
<g filter="url(#filter972)" stroke-width="1.625">
<path d="m15.319 2.0021c-0.27425 0.018765-0.54082 0.061239-0.8102 0.092062h-0.01842l-0.64448 3.5167c-1.0505 0.2392-2.0379 0.64437-2.927 1.196l-2.8925-2.08c-0.7815 0.60668-1.4919 1.3144-2.1167 2.0808l2.0062 2.9275c-0.60941 0.93123-1.0669 1.9947-1.325 3.1117-4.4e-5 0.0053-3.58e-5 0.01749 0 0.01841l-3.498 0.55238c-0.063963 0.5224-0.092626 1.0623-0.092626 1.6019 0 0.44149 0.012194 0.87707 0.05524 1.3073l3.4986 0.62602c0.24882 1.2149 0.72151 2.3494 1.381 3.351l-2.0808 2.8538c0.59591 0.73974 1.2839 1.4132 2.0256 2.0068l2.9461-2.0254c1.0297 0.65678 2.179 1.1173 3.4249 1.3441l0.5524 3.48c0.39254 0.03574 0.79509 0.036819 1.1969 0.036819 0.56726 0 1.1091-0.0215 1.6571-0.09205l0.66289-3.5536c1.1829-0.29435 2.2941-0.80502 3.2593-1.4914l2.8356 2.0621c0.73538-0.62562 1.4079-1.3447 1.9886-2.1173l-2.0623-2.9829c0.55851-0.96451 0.94552-2.0287 1.1416-3.167l3.4801-0.55238c0.030511-0.36315 0.036816-0.71534 0.036816-1.0863 0-0.6447-0.074946-1.2768-0.16573-1.8966l-3.5354-0.64443c-0.27706-1.023-0.73165-1.9775-1.3074-2.8355l2.0808-2.8538c-0.64496-0.78871-1.3807-1.5172-2.1912-2.1358l-3.0013 2.0621c-0.86264-0.51014-1.7909-0.90157-2.7989-1.1232l-0.5524-3.4983c-0.50279-0.059138-1.0097-0.092059-1.5283-0.092059-0.14017 2e-7 -0.2844-0.00441-0.42351 0-0.06781 0.00214-0.13492-0.00394-0.20256 0-0.01832 0.00107-0.03696-0.00125-0.05524 0zm0.47876 8.9485c0.06728-0.0034 0.13443 0 0.20256 0 2.1796 0 3.9591 1.7792 3.9591 3.9587 0 2.1795-1.7792 3.9402-3.9591 3.9402-2.1796 1e-6 -3.9405-1.7607-3.9405-3.9402 1e-6 -2.1114 1.6526-3.8529 3.7381-3.9587z" color="#000000" fill="#729fcf" filter="url(#filter953)"/>
<ellipse cx="16.003" cy="14.901" rx="4.5488" ry="4.5484" color="#000000" fill="none" filter="url(#filter941)" opacity=".64773"/>
<path d="m14.911 2.6981-0.51747 3.4049c-0.98462 0.22421-2.7958 0.90996-3.6291 1.427l-2.7529-2.0547c-0.73252 0.56868-0.78275 0.60724-1.3685 1.3255l1.9905 2.9518c-0.57123 0.87288-1.2573 2.4284-1.5036 3.5399l-3.4879 0.58793c-0.059955 0.48966-0.031142 1.5377 0.00922 1.9409l3.3318 0.60015c0.23322 1.1387 1.106 2.9717 1.7241 3.9104l-2.1068 2.7833c0.55856 0.69338 0.67035 0.75683 1.3655 1.3133l2.8173-2.0638c0.96513 0.61562 2.8808 1.3645 4.0485 1.577l0.46236 3.3621c0.36793 0.03349 1.3844 0.12743 1.8982 0.06129l0.51747-3.4999c1.1088-0.27592 3.0246-1.0623 3.9293-1.7056l2.8141 2.0332c0.68929-0.5864 0.69547-0.67476 1.2399-1.3991l-2.0854-2.964c0.52352-0.90406 1.2004-2.6722 1.3843-3.739l3.4145-0.5665c0.0286-0.3404 0.02999-1.2896-0.05511-1.8703l-3.4787-0.60015c-0.25969-0.95888-1.1509-2.6867-1.6905-3.4911l2.2109-2.7833c-0.60453-0.73927-0.82933-0.84071-1.589-1.4205l-2.9122 2.0852c-0.80857-0.47817-2.4209-1.2071-3.3657-1.4148l-0.51444-3.3314c-0.47128-0.055434-1.8311-0.030818-2.1003 0z" color="#000000" fill="none" filter="url(#filter929)" opacity=".34659"/>
<path d="m8.0262 4.7269c-0.7815 0.60668-1.4871 1.3298-2.1247 2.0961l2.0142 2.9122c-0.60941 0.92648-1.2012 2.2246-1.3109 3.1297l-3.5121 0.5526c-0.039977 0.3265-0.092626 1.1362-0.092626 1.1362l0.10246 0.90556c0.24791 0.05119 0.48695 0.09883 0.74262 0.12678l0.2898-0.88746c0.19941 0.01651 0.39393 0.03622 0.59771 0.03622 0.20357 0 0.41642-0.0196 0.61583-0.03622l0.27169 0.88746c0.25578-0.02796 0.51282-0.07558 0.76073-0.12678v-0.90558c0.39747-0.09251 0.77204-0.22472 1.1411-0.38033l0.54339 0.74257c0.23321-0.10554 0.44955-0.21782 0.67017-0.34411l-0.2898-0.86935c0.34616-0.20995 0.67336-0.46095 0.97808-0.72445l0.74262 0.54334c0.18875-0.17189 0.3716-0.3546 0.54339-0.54334l-0.54339-0.72445c0.26363-0.30471 0.49642-0.63166 0.70639-0.97802l0.86941 0.27166c0.12631-0.22073 0.25694-0.43705 0.36225-0.67012l-0.74262-0.54334c0.15561-0.36904 0.26951-0.74357 0.36225-1.141h0.92375c0.0512-0.2479 0.08083-0.50493 0.10868-0.76067l-0.86941-0.27166c0.01673-0.19928 0.03622-0.41212 0.03622-0.61578s-0.01972-0.39816-0.03622-0.59768l0.86941-0.27166c-0.026402-0.24335-0.061201-0.48799-0.10868-0.72445-0.66505 0.23142-1.1404 0.49082-1.7292 0.85615z" color="#000000" fill="#fff" filter="url(#filter916)" opacity=".5"/>
<path d="m24.229 10.309c-0.24568 0.12403-0.47795 0.26379-0.71273 0.40724l0.36466 1.1863c-0.44624 0.28879-0.86722 0.6289-1.2597 0.99154l-0.94479-0.74366c-0.24331 0.23654-0.47484 0.48385-0.69616 0.74366l0.69616 1.0093c-0.33949 0.41938-0.65777 0.86909-0.92822 1.3456l-0.34808-0.12394c-0.03054 0.47886-0.15132 0.93101-0.3315 1.3456l0.0663 0.05312c-0.20046 0.50785-0.36139 1.0465-0.48068 1.5936h-0.9448c-0.08723 0.05844-0.17319 0.12654-0.2652 0.17706-0.05017 0.28398-0.08637 0.5589-0.11603 0.84988l1.1271 0.38954c-0.02137 0.27439-0.03314 0.55197-0.03314 0.83219 0 0.28031 0.0117 0.55778 0.03314 0.83219l-1.1271 0.38954c0.03587 0.35199 0.08321 0.70343 0.14918 1.0447l1.1769-0.01763c0.08202 0.37609 0.21939 0.79536 0.34033 1.1536 0.4705-0.20913 0.91807-0.46901 1.3503-0.74634-0.26349-0.83156-0.41438-1.7295-0.41438-2.6559 1e-6 -3.5544 2.1076-6.5896 5.0554-7.7552l-0.69617-0.12395c-0.1426-0.56254-0.3273-1.1137-0.56356-1.6289-7e-3 -0.01513-0.0094-0.03801-0.01651-0.05312l-0.03315-0.03542z" color="#000000" fill="#fff" filter="url(#filter904)" opacity=".5"/>
</g>
</svg>
