<svg width="32" height="32" version="1" xmlns="http://www.w3.org/2000/svg">
<defs>
<filter id="filter856" color-interpolation-filters="sRGB">
<feFlood flood-color="rgb(0,0,0)" flood-opacity=".2" result="flood"/>
<feComposite in="flood" in2="SourceGraphic" operator="in" result="composite1"/>
<feGaussianBlur in="composite1" result="blur"/>
<feOffset dx="0" dy="1" result="offset"/>
<feComposite in="SourceGraphic" in2="offset" result="composite2"/>
</filter>
<filter id="filter868" color-interpolation-filters="sRGB">
<feFlood flood-color="rgb(0,0,0)" flood-opacity=".2" result="flood"/>
<feComposite in="flood" in2="SourceGraphic" operator="in" result="composite1"/>
<feGaussianBlur in="composite1" result="blur"/>
<feOffset dx="0" dy="1" result="offset"/>
<feComposite in="SourceGraphic" in2="offset" result="composite2"/>
</filter>
<filter id="filter880" color-interpolation-filters="sRGB">
<feFlood flood-color="rgb(0,0,0)" flood-opacity=".2" result="flood"/>
<feComposite in="flood" in2="SourceGraphic" operator="in" result="composite1"/>
<feGaussianBlur in="composite1" result="blur"/>
<feOffset dx="0" dy="1" result="offset"/>
<feComposite in="SourceGraphic" in2="offset" result="composite2"/>
</filter>
<filter id="filter892" color-interpolation-filters="sRGB">
<feFlood flood-color="rgb(0,0,0)" flood-opacity=".2" result="flood"/>
<feComposite in="flood" in2="SourceGraphic" operator="in" result="composite1"/>
<feGaussianBlur in="composite1" result="blur"/>
<feOffset dx="0" dy="1" result="offset"/>
<feComposite in="SourceGraphic" in2="offset" result="composite2"/>
</filter>
<filter id="filter904" color-interpolation-filters="sRGB">
<feFlood flood-color="rgb(0,0,0)" flood-opacity=".2" result="flood"/>
<feComposite in="flood" in2="SourceGraphic" operator="in" result="composite1"/>
<feGaussianBlur in="composite1" result="blur"/>
<feOffset dx="0" dy="1" result="offset"/>
<feComposite in="SourceGraphic" in2="offset" result="composite2"/>
</filter>
<filter id="filter916" color-interpolation-filters="sRGB">
<feFlood flood-color="rgb(0,0,0)" flood-opacity=".2" result="flood"/>
<feComposite in="flood" in2="SourceGraphic" operator="in" result="composite1"/>
<feGaussianBlur in="composite1" result="blur"/>
<feOffset dx="0" dy="1" result="offset"/>
<feComposite in="SourceGraphic" in2="offset" result="composite2"/>
</filter>
<filter id="filter943" color-interpolation-filters="sRGB">
<feFlood flood-color="rgb(255,255,255)" flood-opacity=".10196" result="flood"/>
<feComposite in="flood" in2="SourceGraphic" operator="out" result="composite1"/>
<feGaussianBlur in="composite1" result="blur"/>
<feOffset dx="0" dy="1" result="offset"/>
<feComposite in="offset" in2="SourceGraphic" operator="atop" result="composite2"/>
</filter>
</defs>
<g filter="url(#filter943)">
<rect x="17" y="3" width="11" height="11" rx="1.3478" ry="1.3478" color="#000000" display="block" fill="#babdb6" filter="url(#filter880)"/>
<rect x="15.911" y="2.9869" width="9.553" height="10.071" rx=".82526" ry=".82526" color="#000000" display="block" fill="none" opacity=".48889" stroke-width="1.696"/>
<rect x="3" y="3" width="11" height="11" rx="1.3478" ry="1.3479" color="#000000" display="block" fill="#babdb6" filter="url(#filter904)" stroke-width="1.8355"/>
<rect transform="scale(-1,1)" x="-13" y="4" width="9" height="9" rx="1.1028" ry="1.1028" color="#000000" display="block" fill="#f2f4f1" stroke-width="2.25"/>
<rect x="3.5121" y="3.3227" width="9.1737" height="9.2078" rx=".79249" ry=".75457" color="#000000" display="block" fill="none" opacity=".48889" stroke-width="1.696"/>
<path d="m12 6.0001-1.8396 3.1016c-0.17903 0.29944-0.4008 0.52357-0.66534 0.67241-0.26452 0.15061-0.57048 0.22592-0.91784 0.22592-0.12825-1e-6 -0.26319-0.01062-0.40481-0.03189v-0.48904c0.15765 0.031891 0.3006 0.047842 0.42885 0.047842 0.15496-6e-7 0.29659-0.031011 0.42485-0.093024 0.13092-0.060242 0.23647-0.15239 0.31663-0.27641l0.28457-0.43588-1.6272-2.7216h0.86172l1.0621 2.0412c0.018776 0.031898 0.04275 0.10277 0.072137 0.21261h0.024094c0.04007-0.11163 0.06813-0.18251 0.08416-0.21261l1.0902-2.0412h0.80562" filter="url(#filter916)" stroke-width="2.3965"/>
<rect transform="scale(-1,1)" x="-27" y="4" width="9" height="9" rx="1.1028" ry="1.1028" color="#000000" display="block" fill="#f2f4f1" stroke-width="2.25"/>
<path d="m26 6-1.4828 2.0156 1.4741 1.9844h-0.96982l-1.0172-1.5585-1.0517 1.5585h-0.95257l1.5216-1.9688-1.4311-2.0312h0.96982l0.97843 1.6328 1.0517-1.6328h0.90947" filter="url(#filter892)" stroke-width="2.6885"/>
<rect x="4" y="18" width="18" height="11" rx="1.393" ry="1.3406" color="#000000" display="block" fill="#babdb6" filter="url(#filter868)"/>
<rect x="5" y="19" width="16" height="9" rx=".77393" ry=".90577" color="#000000" display="block" fill="#f2f4f1" stroke-width="2"/>
<path d="m10.539 25.764c-0.35856 0.15749-0.8035 0.2362-1.3348 0.2362-0.66685 0-1.2014-0.17046-1.6037-0.51136-0.4001-0.3409-0.60016-0.78911-0.60016-1.3446-1.1e-6 -0.5901 0.22956-1.0695 0.6887-1.438 0.46132-0.37032 1.0331-0.55549 1.7152-0.55549 0.46132 9e-6 0.83956 0.0528 1.1347 0.15834v0.5477c-0.34764-0.16266-0.72806-0.244-1.1413-0.244-0.51162 1e-6 -0.92812 0.13674-1.2495 0.41012-0.3214 0.27169-0.4821 0.63682-0.4821 1.0954-2.7e-6 0.43436 0.14867 0.78045 0.44602 1.0383 0.29734 0.25612 0.69198 0.38416 1.1839 0.38416 0.47662 0 0.89095-0.08997 1.243-0.26996v0.49319m2.5154 0.13497c-0.13773 0.05536-0.31484 0.08306-0.53129 0.08306-0.31266 0-0.5466-0.06665-0.70182-0.19989-0.15524-0.13494-0.23286-0.33743-0.23284-0.6074v-1.4977h-0.56408v-0.39974h0.56408v-0.63336l0.63296-0.15834v0.7917h0.83301v0.39974h-0.83301v1.4017c-1e-6 0.17303 0.03718 0.29679 0.1115 0.3712 0.07434 0.07271 0.20442 0.10902 0.39026 0.10902 0.12026 0 0.23066-0.0285 0.33124-0.0857v0.4257m2.6066-2.1104c-0.11373-0.0606-0.25909-0.09086-0.43619-0.09086-0.2099 0-0.57588 0.07612-0.72018 0.22842-0.1443 0.15229-0.21646 0.35389-0.21646 0.6048v1.4043h-0.62969v-2.658h0.62969v0.52695c0.0809-0.18687 0.19896-0.32877 0.3542-0.4257 0.15523-0.09866 0.51359-0.14794 0.69723-0.14794 0.13776 1e-6 0.24489 0.01199 0.3214 0.03633v0.52175m1.3394 2.1466h-0.63625v-3.9352h0.63625v3.9352" filter="url(#filter856)" stroke-width="2"/>
</g>
</svg>
