<svg width="32" height="32" version="1" xmlns="http://www.w3.org/2000/svg" xmlns:xlink="http://www.w3.org/1999/xlink">
<defs>
<linearGradient id="linearGradient2707" x1="12.207" x2="12.128" y1="53.535" y2="64.893" gradientTransform="matrix(1.6075 0 0 .70286 -3.4628 -16.695)" gradientUnits="userSpaceOnUse">
<stop stop-color="#585956" offset="0"/>
<stop stop-color="#bbbeb8" offset="1"/>
</linearGradient>
<filter id="filter988" color-interpolation-filters="sRGB">
<feFlood flood-color="rgb(0,0,0)" flood-opacity=".2" result="flood"/>
<feComposite in="flood" in2="SourceGraphic" operator="in" result="composite1"/>
<feGaussianBlur in="composite1" result="blur"/>
<feOffset dx="0" dy="1" result="offset"/>
<feComposite in="SourceGraphic" in2="offset" result="fbSourceGraphic"/>
<feColorMatrix in="fbSourceGraphic" result="fbSourceGraphicAlpha" values="0 0 0 -1 0 0 0 0 -1 0 0 0 0 -1 0 0 0 0 1 0"/>
<feFlood flood-color="rgb(255,255,255)" flood-opacity=".10196" in="fbSourceGraphic" result="flood"/>
<feComposite in="flood" in2="fbSourceGraphic" operator="in" result="composite1"/>
<feGaussianBlur in="composite1" result="blur"/>
<feOffset dx="0" dy="1" result="offset"/>
<feComposite in="fbSourceGraphic" in2="offset" result="composite2"/>
</filter>
<linearGradient id="linearGradient1010" x1="12.207" x2="12.128" y1="53.535" y2="64.893" gradientTransform="matrix(1.6075 0 0 .70286 -3.4628 -16.695)" gradientUnits="userSpaceOnUse" xlink:href="#linearGradient2707"/>
</defs>
<g stroke-width="1.8415">
<path d="m22.877 26.711a6.9989 2.7863 0 0 1-6.8809 2.2891 6.9989 2.7863 0 0 1-6.8809-2.2832 6.9989 2.7863 0 0 0-0.11719 0.49609 6.9989 2.7863 0 0 0 6.998 2.7871 6.9989 2.7863 0 0 0 7-2.7871 6.9989 2.7863 0 0 0-0.11914-0.50195z" color="#000000" fill-opacity=".2" fill-rule="evenodd"/>
<ellipse cx="15.997" cy="26.214" rx="6.9989" ry="2.7863" color="#000000" fill="#adb0aa" fill-rule="evenodd"/>
<ellipse cx="15.997" cy="25.577" rx="6.3155" ry="2.3062" color="#000000" fill="none"/>
</g>
<g fill-rule="evenodd">
<rect x="12" y="22.502" width="8" height="3.498" color="#000000" fill="url(#linearGradient2707)" stroke-width="1.8703"/>
<path d="m3.1804 1.9996c-0.79144 0-1.1785 0.45365-1.1786 1.0145v18.521c-0.04117 0.80937 0.63596 1.4629 1.4274 1.4629h25.135c0.79141 0 1.4685-0.65359 1.4274-1.4629l0.00826-18.521c-0.030187-0.59241-0.53421-1.0145-1.1786-1.0145h-25.642z" color="#000000" fill="#dde1d9" filter="url(#filter988)" stroke-width="1.7498"/>
<path d="m4 4-3.43e-5 16h24v-15.932z" fill="#5b5b97" stroke-width="1.7458"/>
</g>
<path d="m23.942 10c1.1582 5.231-2.2821 8.2687-7.9422 5.227 0.43508 1.6009 1.5726 2.984 3.2972 3.5293 2.6977 0.85296 5.5914-0.60408 6.4602-3.2527 0.68528-2.0894-0.13159-4.2448-1.8153-5.5035z" color="#000000" fill="#fce94f" stroke-width="1.6811"/>
<g fill="#fff">
<path d="m11.383 7.0254-2.1484 0.19335-0.22529 2.2387-0.18869-2.2013-2.1849-0.23083 2.1484-0.19335 0.22529-2.2387 0.18869 2.2013z" color="#000000" stroke-width=".71535"/>
<g stroke-width=".45179">
<path d="m16 7.8952-1.3568 0.12211-0.14229 1.4139-0.11917-1.3903-1.3799-0.14579 1.3568-0.12211 0.14229-1.4139 0.11917 1.3903z" color="#000000"/>
<path d="m11.799 10.684-1.3568 0.12211-0.14229 1.4139-0.11917-1.3903-1.3799-0.14579 1.3568-0.12211 0.14229-1.4139 0.11917 1.3903z" color="#000000"/>
<path d="m8.9982 13.464-1.3568 0.12211-0.14229 1.4139-0.11917-1.3903-1.3799-0.14579 1.3568-0.12211 0.14229-1.4139 0.11917 1.3903z" color="#000000"/>
</g>
</g>
<path d="m12 25v1h8v-1z" color="#000000" fill="url(#linearGradient1010)" fill-rule="evenodd" stroke-width="1.8703"/>
</svg>
