<svg width="32" height="32" version="1" xmlns="http://www.w3.org/2000/svg">
<defs>
<filter id="filter956" color-interpolation-filters="sRGB">
<feFlood flood-color="rgb(0,0,0)" flood-opacity=".2" result="flood"/>
<feComposite in="flood" in2="SourceGraphic" operator="in" result="composite1"/>
<feGaussianBlur in="composite1" result="blur"/>
<feOffset dx="0" dy="1" result="offset"/>
<feComposite in="SourceGraphic" in2="offset" result="composite2"/>
</filter>
</defs>
<path d="m3 5v25h26v-25z" fill="#c17d11" fill-rule="evenodd" filter="url(#filter956)" stroke-width="1.8211"/>
<path d="m6.5873 1-3.5873 4h26l-3.5873-4z" fill="#e9b96e" fill-rule="evenodd" stroke-width="1.9272"/>
<path d="m3.9464 4.6769v24.518h24.108v-24.518l-3.0507-2.8195h-18.006z" fill="none" stroke-width="1.8346"/>
<g fill-rule="evenodd">
<rect x="11.667" y="24.2" width="8.6667" height="2.9" rx=".36816" ry=".256" color="#000000" fill="#c17d11" stroke-width="1.7724"/>
<g stroke-width="1.8973">
<path d="m7.7969 9c-0.44094 0-0.79688 0.32823-0.79688 0.73751v6.525c0 0.40928 0.35594 0.73751 0.79688 0.73751h4.433c-0.12622-0.04673-0.22559-0.12442-0.22559-0.2375v-2.4462c0-0.15884 0.16905-0.28751 0.38087-0.28751h7.2368c0.2118 0 0.38087 0.12866 0.38087 0.28751v2.4462c0 0.11309-0.09937 0.19077-0.22558 0.2375h4.4259c0.44094 0 0.79688-0.32822 0.79688-0.73751v-6.525c0-0.40928-0.35594-0.73751-0.79688-0.73751z" color="#000000" fill-opacity=".2"/>
<path d="m7.7969 7.9745c-0.44094 0-0.79688 0.32823-0.79688 0.73751v6.525c0 0.40928 0.35594 0.73751 0.79688 0.73751h4.433c-0.12622-0.04673-0.22559-0.12442-0.22559-0.2375v-2.4462c0-0.15884 0.16905-0.28751 0.38087-0.28751h7.2368c0.2118 0 0.38087 0.12866 0.38087 0.28751v2.4462c0 0.11309-0.09937 0.19077-0.22558 0.2375h4.4259c0.44094 0 0.79688-0.32822 0.79688-0.73751v-6.525c0-0.40928-0.35594-0.73751-0.79688-0.73751z" color="#000000" fill="#e9b96e"/>
<path d="m7.7969 21c-0.44094 0-0.79688 0.32823-0.79688 0.73751v6.525c0 0.40928 0.35594 0.73751 0.79688 0.73751h4.433c-0.12622-0.04673-0.22559-0.12442-0.22559-0.2375v-2.4462c0-0.15884 0.16905-0.28751 0.38087-0.28751h7.2368c0.2118 0 0.38087 0.12866 0.38087 0.28751v2.4462c0 0.11309-0.09937 0.19077-0.22558 0.2375h4.4259c0.44094 0 0.79688-0.32822 0.79688-0.73751v-6.525c0-0.40928-0.35594-0.73751-0.79688-0.73751z" color="#000000" fill-opacity=".2"/>
<path d="m7.7969 19.975c-0.44094 0-0.79688 0.32822-0.79688 0.73751v6.525c0 0.40928 0.35594 0.73751 0.79688 0.73751h4.433c-0.12622-0.04673-0.22559-0.12442-0.22559-0.2375v-2.4462c0-0.15884 0.16905-0.28751 0.38087-0.28751h7.2368c0.2118 0 0.38087 0.12866 0.38087 0.28751v2.4462c0 0.11309-0.09937 0.19077-0.22558 0.2375h4.4259c0.44094 0 0.79688-0.32822 0.79688-0.73751v-6.525c0-0.40928-0.35594-0.73751-0.79688-0.73751z" color="#000000" fill="#e9b96e"/>
</g>
<path d="m6.5879 1-3.5879 4h0.89648l2.6914-3h18.824l2.6914 3h0.89648l-3.5879-4z" fill="#fff" fill-opacity=".1" stroke-width="1.9272"/>
</g>
<circle cx="24" cy="24" r="8" opacity=".2"/>
<circle cx="24" cy="23" r="8" fill="#48aeff"/>
<g fill="#fff">
<rect x="20" y="19" width="3" height="3" rx=".25" ry=".25"/>
<rect x="25" y="19" width="3" height="3" rx=".25" ry=".25"/>
<rect x="25" y="24" width="3" height="3" rx=".25" ry=".25"/>
<rect x="20" y="24" width="3" height="3" rx=".25" ry=".25"/>
</g>
</svg>
