<svg width="48" height="48" version="1" xmlns="http://www.w3.org/2000/svg">
<defs>
<filter id="filter1031" color-interpolation-filters="sRGB">
<feFlood flood-color="rgb(0,0,0)" flood-opacity=".2" result="flood"/>
<feComposite in="flood" in2="SourceGraphic" operator="in" result="composite1"/>
<feGaussianBlur in="composite1" result="blur"/>
<feOffset dx="0" dy="1" result="offset"/>
<feComposite in="SourceGraphic" in2="offset" result="fbSourceGraphic"/>
<feColorMatrix in="fbSourceGraphic" result="fbSourceGraphicAlpha" values="0 0 0 -1 0 0 0 0 -1 0 0 0 0 -1 0 0 0 0 1 0"/>
<feFlood flood-color="rgb(255,255,255)" flood-opacity=".10196" in="fbSourceGraphic" result="flood"/>
<feComposite in="flood" in2="fbSourceGraphic" operator="out" result="composite1"/>
<feGaussianBlur in="composite1" result="blur"/>
<feOffset dx="0" dy="1" result="offset"/>
<feComposite in="offset" in2="fbSourceGraphic" operator="atop" result="composite2"/>
</filter>
</defs>
<path d="m6.1223 2c-1.1732 0-2.1223 0.89042-2.1223 1.9987v39.002c0 1.1084 0.94912 1.9987 2.1223 1.9987h35.755c1.1732 0 2.1223-0.89042 2.1223-1.9987v-39.002c0-1.1084-0.94915-1.9987-2.1223-1.9987z" color="#000000" display="block" fill="#d3d7cf" fill-opacity=".99608" filter="url(#filter1031)" stroke-width="2.7709"/>
<path d="m35.873 19c-0.48336 0-0.87306 0.446-0.87306 1v8c0 0.554 0.38969 1 0.87306 1h4.2539c0.48336 0 0.87306-0.446 0.87306-1v-8c0-0.554-0.38969-1-0.87306-1z" color="#000000" display="block" fill="#858585" stroke-width="2.598"/>
<path d="m35.873 33c-0.48336 0-0.87306 0.446-0.87306 1v8c0 0.554 0.38969 1 0.87306 1h4.2539c0.48336 0 0.87306-0.446 0.87306-1v-8c0-0.554-0.38969-1-0.87306-1z" color="#000000" display="block" fill="#858585" stroke-width="2.598"/>
<path d="m8.967 4c-1.0897 0-1.967 1.1899-1.967 2.6668v5.5082c0 2.5248 3.7834 3.825 4.873 3.825h24.254c1.0897 0 4.873-0.95898 4.873-3.825v-5.5082c0-1.4769-0.87735-2.6668-1.967-2.6668zm28.191 1.9976c1.0238 0 1.8479 0.73715 1.8479 1.6551v3.9745c0 1.7812-3.5511 2.3784-4.5748 2.3784h-20.855c-1.0238 0-4.5748-0.80918-4.5748-2.3784v-3.9745c0-0.91798 0.82407-1.6551 1.8479-1.6551z" color="#000000" display="block" fill="#2e3436" stroke-width="2.6138"/>
<rect x="12" y="7" width="24" height="5" rx=".72464" ry=".74365" color="#000000" display="block" fill="#777b5e" stroke-width="2.5355"/>
<path d="m26.945 9.3408c0.17328 0.0436 0.30463 0.1196 0.39412 0.22802 0.09065 0.10731 0.13595 0.24424 0.13595 0.41078-2e-6 0.24815-0.09754 0.43706-0.29262 0.5667-0.19508 0.12854-0.47965 0.19281-0.85368 0.19281-0.13195 0-0.26449-0.01063-0.3976-0.03186-0.13195-0.02011-0.26277-0.05086-0.39243-0.09222v-0.49795c0.12394 0.06036 0.24671 0.10619 0.36832 0.13748 0.12277 0.03018 0.24326 0.04527 0.36143 0.04526 0.17557 1e-6 0.3098-0.02961 0.40274-0.08887 0.09409-0.05924 0.14112-0.14419 0.14112-0.25485-1e-6 -0.11401-0.04819-0.20009-0.14458-0.2582-0.09525-0.05924-0.23637-0.08886-0.42342-0.08886h-0.265v-0.41581h0.27883c0.16638 2e-6 0.29031-0.02516 0.37177-0.07545 0.08146-0.05142 0.1222-0.1291 0.1222-0.23306-5e-6 -0.096124-0.03959-0.17046-0.11877-0.223-0.07918-0.052533-0.19106-0.0788-0.33563-0.078803-0.10671 2e-6 -0.21457 0.011748-0.32357 0.035211-0.10898 0.02347-0.21743 0.058125-0.32531 0.10395v-0.47281c0.13082-0.035765 0.26046-0.062591 0.38895-0.080483 0.12851-0.017856 0.25472-0.026823 0.37866-0.026826 0.33391 3.1e-6 0.58346 0.053653 0.74869 0.16096 0.16637 0.10619 0.24955 0.2666 0.24957 0.4812-2e-6 0.14643-0.03958 0.2666-0.11877 0.36048-0.07919 0.09277-0.19623 0.15816-0.35114 0.19617m1.1686 0.70085h0.61962v0.64886h-0.61958v-0.64886m1.389 0.20288h0.58518v-1.618l-0.60069 0.12072v-0.43927l0.59725-0.12072h0.62994v2.0572h0.58518v0.44598h-1.7969v-0.44598m3.3355-1.5258-0.72634 1.0479h0.72634v-1.0479m-0.11015-0.53149h0.73665v1.5795h0.3666v0.46779h-0.3666v0.45604h-0.62649v-0.45604h-1.1394v-0.5533l1.0292-1.4939" stroke-width="2.5981"/>
<rect x="36" y="23" width="4" height="2" fill="#fff" fill-rule="evenodd" stroke-width="2"/>
<rect x="36" y="35" width="4" height="2" fill="#fff" fill-rule="evenodd" stroke-width="2"/>
<g stroke-width="3">
<rect x="7" y="19" width="6" height="6" rx="1.1633" ry="1.1793" color="#000000" display="block" fill="#858585"/>
<path d="m7 23.82v1c0 0.65336 0.51959 1.1797 1.1641 1.1797h3.6719c0.64447 0 1.1641-0.52633 1.1641-1.1797v-1c0 0.65336-0.51959 1.1797-1.1641 1.1797h-3.6719c-0.64447 0-1.1641-0.52633-1.1641-1.1797z" color="#000000" display="block" fill-opacity=".2"/>
</g>
<g transform="translate(9)" stroke-width="3">
<rect x="7" y="19" width="6" height="6" rx="1.1633" ry="1.1793" color="#000000" display="block" fill="#858585"/>
<path d="m7 23.82v1c0 0.65336 0.51959 1.1797 1.1641 1.1797h3.6719c0.64447 0 1.1641-0.52633 1.1641-1.1797v-1c0 0.65336-0.51959 1.1797-1.1641 1.1797h-3.6719c-0.64447 0-1.1641-0.52633-1.1641-1.1797z" color="#000000" display="block" fill-opacity=".2"/>
</g>
<g transform="translate(18)" stroke-width="3">
<rect x="7" y="19" width="6" height="6" rx="1.1633" ry="1.1793" color="#000000" display="block" fill="#858585"/>
<path d="m7 23.82v1c0 0.65336 0.51959 1.1797 1.1641 1.1797h3.6719c0.64447 0 1.1641-0.52633 1.1641-1.1797v-1c0 0.65336-0.51959 1.1797-1.1641 1.1797h-3.6719c-0.64447 0-1.1641-0.52633-1.1641-1.1797z" color="#000000" display="block" fill-opacity=".2"/>
</g>
<g transform="translate(0,9)" stroke-width="3">
<rect x="7" y="19" width="6" height="6" rx="1.1633" ry="1.1793" color="#000000" display="block" fill="#858585"/>
<path d="m7 23.82v1c0 0.65336 0.51959 1.1797 1.1641 1.1797h3.6719c0.64447 0 1.1641-0.52633 1.1641-1.1797v-1c0 0.65336-0.51959 1.1797-1.1641 1.1797h-3.6719c-0.64447 0-1.1641-0.52633-1.1641-1.1797z" color="#000000" display="block" fill-opacity=".2"/>
</g>
<g transform="translate(0,18)" stroke-width="3">
<rect x="7" y="19" width="6" height="6" rx="1.1633" ry="1.1793" color="#000000" display="block" fill="#858585"/>
<path d="m7 23.82v1c0 0.65336 0.51959 1.1797 1.1641 1.1797h3.6719c0.64447 0 1.1641-0.52633 1.1641-1.1797v-1c0 0.65336-0.51959 1.1797-1.1641 1.1797h-3.6719c-0.64447 0-1.1641-0.52633-1.1641-1.1797z" color="#000000" display="block" fill-opacity=".2"/>
</g>
<g transform="translate(9,9)" stroke-width="3">
<rect x="7" y="19" width="6" height="6" rx="1.1633" ry="1.1793" color="#000000" display="block" fill="#858585"/>
<path d="m7 23.82v1c0 0.65336 0.51959 1.1797 1.1641 1.1797h3.6719c0.64447 0 1.1641-0.52633 1.1641-1.1797v-1c0 0.65336-0.51959 1.1797-1.1641 1.1797h-3.6719c-0.64447 0-1.1641-0.52633-1.1641-1.1797z" color="#000000" display="block" fill-opacity=".2"/>
</g>
<g transform="translate(9,18)" stroke-width="3">
<rect x="7" y="19" width="6" height="6" rx="1.1633" ry="1.1793" color="#000000" display="block" fill="#858585"/>
<path d="m7 23.82v1c0 0.65336 0.51959 1.1797 1.1641 1.1797h3.6719c0.64447 0 1.1641-0.52633 1.1641-1.1797v-1c0 0.65336-0.51959 1.1797-1.1641 1.1797h-3.6719c-0.64447 0-1.1641-0.52633-1.1641-1.1797z" color="#000000" display="block" fill-opacity=".2"/>
</g>
<g transform="translate(18,9)" stroke-width="3">
<rect x="7" y="19" width="6" height="6" rx="1.1633" ry="1.1793" color="#000000" display="block" fill="#858585"/>
<path d="m7 23.82v1c0 0.65336 0.51959 1.1797 1.1641 1.1797h3.6719c0.64447 0 1.1641-0.52633 1.1641-1.1797v-1c0 0.65336-0.51959 1.1797-1.1641 1.1797h-3.6719c-0.64447 0-1.1641-0.52633-1.1641-1.1797z" color="#000000" display="block" fill-opacity=".2"/>
</g>
<g transform="translate(18,18)" stroke-width="3">
<rect x="7" y="19" width="6" height="6" rx="1.1633" ry="1.1793" color="#000000" display="block" fill="#858585"/>
<path d="m7 23.82v1c0 0.65336 0.51959 1.1797 1.1641 1.1797h3.6719c0.64447 0 1.1641-0.52633 1.1641-1.1797v-1c0 0.65336-0.51959 1.1797-1.1641 1.1797h-3.6719c-0.64447 0-1.1641-0.52633-1.1641-1.1797z" color="#000000" display="block" fill-opacity=".2"/>
</g>
<rect x="36" y="39" width="4" height="2" fill="#fff" fill-rule="evenodd" stroke-width="2"/>
<g fill-opacity=".2">
<path d="m35 28v1c0 0.554 0.38967 1 0.87305 1h4.2539c0.48336 0 0.87305-0.446 0.87305-1v-1c0 0.554-0.38969 1-0.87305 1h-4.2539c-0.48338 0-0.87305-0.446-0.87305-1z" color="#000000" display="block" stroke-width="2.598"/>
<path d="m35 42v1c0 0.554 0.38967 1 0.87305 1h4.2539c0.48336 0 0.87305-0.446 0.87305-1v-1c0 0.554-0.38969 1-0.87305 1h-4.2539c-0.48338 0-0.87305-0.446-0.87305-1z" color="#000000" display="block" stroke-width="2.598"/>
<path d="m7 12.176v1c0 2.5248 3.7834 3.8242 4.873 3.8242h24.254c1.0897 0 4.873-0.9582 4.873-3.8242v-1c0 2.866-3.7834 3.8242-4.873 3.8242h-24.254c-1.0897 0-4.873-1.2994-4.873-3.8242z" color="#000000" display="block" stroke-width="2.6138"/>
<path d="m12 11.256v1c0 0.41198 0.32316 0.74414 0.72461 0.74414h22.551c0.40145 0 0.72461-0.33216 0.72461-0.74414v-1c0 0.41198-0.32316 0.74414-0.72461 0.74414h-22.551c-0.40145 0-0.72461-0.33216-0.72461-0.74414z" color="#000000" display="block" stroke-width="2.5355"/>
</g>
</svg>
