<svg width="48" height="48" version="1" xmlns="http://www.w3.org/2000/svg">
<defs>
<filter id="filter911" color-interpolation-filters="sRGB">
<feFlood flood-color="rgb(0,0,0)" flood-opacity=".2" result="flood"/>
<feComposite in="flood" in2="SourceGraphic" operator="in" result="composite1"/>
<feGaussianBlur in="composite1" result="blur"/>
<feOffset dx="0" dy="1" result="offset"/>
<feComposite in="SourceGraphic" in2="offset" result="composite2"/>
</filter>
</defs>
<rect transform="rotate(90)" x="4" y="-44" width="28" height="28" rx="1.6" ry="1.6" fill="#4f4f4f"/>
<path d="m38 22.621v0.91081h-8.1503c0.07711 1.2819 0.44315 2.2602 1.0983 2.9348 0.66152 0.66794 1.58 1.0019 2.7553 1.0019 0.68079 0 1.3391-0.0877 1.975-0.26312 0.64224-0.17542 1.2781-0.43854 1.9075-0.78938v1.7609c-0.63585 0.28337-1.2877 0.49926-1.9557 0.64769-0.66796 0.14843-1.3455 0.22265-2.0328 0.22265-1.7213 0-3.0861-0.52625-4.0944-1.5788-1.002-1.053-1.503-2.477-1.503-4.271-1e-5 -1.8554 0.47527-3.3262 1.4258-4.4124 0.95697-1.093 2.2447-1.6395 3.8632-1.6395 1.4515 1e-5 2.5979 0.49253 3.4393 1.4776 0.84777 0.97829 1.2717 2.3108 1.2717 3.9975m-1.7726-0.54649c-0.01285-1.0188-0.28582-1.8318-0.81889-2.439-0.52666-0.6072-1.2267-0.9108-2.1002-0.91081-0.98909 1e-5 -1.7823 0.29349-2.3796 0.88045-0.59088 0.58698-0.93128 1.4135-1.0212 2.4794l6.3199-0.0101m-2.2392-9.0272h1.9557v2.0443h-1.9557v-2.0443m-3.966 0h1.9557v2.0443h-1.9557v-2.0443" opacity=".2"/>
<path d="m44 6v-0.4776c0-0.8467-0.707-1.5224-1.594-1.5224h-24.812c-0.887 0-1.594 0.6757-1.594 1.5224v0.4776c0-0.84671 0.70735-1.5224 1.5938-1.5224h24.812c0.887 0 1.594 0.6757 1.594 1.5224z" fill="#fff" opacity=".1"/>
<path d="m38 21.621v0.91081h-8.1503c0.07711 1.2819 0.44315 2.2602 1.0983 2.9348 0.66152 0.66794 1.58 1.0019 2.7553 1.0019 0.68079 0 1.3391-0.0877 1.975-0.26312 0.64224-0.17542 1.2781-0.43854 1.9075-0.78938v1.7609c-0.63585 0.28337-1.2877 0.49926-1.9557 0.64769-0.66796 0.14843-1.3455 0.22265-2.0328 0.22265-1.7213 0-3.0861-0.52625-4.0944-1.5788-1.002-1.053-1.503-2.477-1.503-4.271-1e-5 -1.8554 0.47527-3.3262 1.4258-4.4124 0.95697-1.093 2.2447-1.6395 3.8632-1.6395 1.4515 1e-5 2.5979 0.49253 3.4393 1.4776 0.84777 0.97829 1.2717 2.3108 1.2717 3.9975m-1.7726-0.54649c-0.01285-1.0188-0.28582-1.8318-0.81889-2.439-0.52666-0.6072-1.2267-0.9108-2.1002-0.91081-0.98909 1e-5 -1.7823 0.29349-2.3796 0.88045-0.59088 0.58698-0.93128 1.4135-1.0212 2.4794l6.3199-0.0101m-2.2392-9.0272h1.9557v2.0443h-1.9557v-2.0443m-3.966 0h1.9557v2.0443h-1.9557v-2.0443" fill="#fff"/>
<path d="m16 30.4v1c0 0.887 0.713 1.6 1.6 1.6h24.801c0.886 0 1.599-0.713 1.599-1.6v-1c0 0.887-0.713 1.6-1.6 1.6h-24.8c-0.887 0-1.6-0.713-1.6-1.6z" opacity=".2"/>
<rect transform="rotate(90)" x="16" y="-32" width="28" height="28" rx="1.6" ry="1.6" fill="#e4e4e4"/>
<path d="m32 18v-0.47761c0-0.846-0.707-1.522-1.594-1.522h-24.812c-0.8866 0-1.594 0.676-1.594 1.522v0.478c0-0.84671 0.70735-1.5224 1.5938-1.5224h24.812c0.887 0 1.594 0.675 1.594 1.522z" fill="#fff" opacity=".2"/>
<path d="m4 42.4v1c0 0.887 0.7132 1.6 1.5996 1.6h24.8c0.887 0 1.6-0.713 1.6-1.6v-1c0 0.887-0.713 1.6-1.6 1.6h-24.8c-0.8868 0-1.6-0.713-1.6-1.6z" opacity=".2"/>
<path d="m27 39.719h-2.1061v-1.3212c-0.83954 1.0681-1.9468 1.602-3.322 1.602-1.1001 0-1.9722-0.28436-2.6162-0.85306-0.6369-0.57564-0.95534-1.342-0.95534-2.299-1e-6 -0.65194 0.13026-1.2172 0.3908-1.6957 0.26777-0.47855 0.66583-0.86691 1.1942-1.1651 0.53558-0.29822 1.2304-0.49933 2.0843-0.60336l3.2243-0.41612c-1.1e-5 -0.81838-0.18093-1.4322-0.54279-1.8413-0.35465-0.40918-0.8866-0.61377-1.5958-0.61377-0.58623 9e-6 -1.2123 0.10751-1.8781 0.32249-0.65862 0.21501-1.2485 0.52713-1.7695 0.93631v-2.0494c1.3534-0.6519 2.6272-0.97788 3.8213-0.97788 1.3172 1e-5 2.3234 0.35027 3.0182 1.0507 0.70203 0.70049 1.053 1.6922 1.053 2.9751v6.9493m-2.1061-4.026v-1.2172c-1.8093 0.22195-2.8298 0.35022-3.0616 0.38494-0.22435 0.03468-0.50301 0.12137-0.83593 0.26006-0.3257 0.13873-0.55728 0.3225-0.69481 0.55137-0.13026 0.22888-0.19541 0.56176-0.19541 0.99869 0 0.49241 0.18092 0.89466 0.54279 1.2068 0.36911 0.30516 0.85039 0.45774 1.4439 0.45774 0.73821 0 1.3896-0.25312 1.954-0.75945 0.5645-0.50628 0.84676-1.1339 0.84679-1.883m0.9119-11.693-2.9204 3.4122h-1.4439l2.3558-3.4122h2.0085" fill="#3f3f3f" filter="url(#filter911)" stroke-width="2.3015"/>
</svg>
