<svg width="48" height="48" version="1" xmlns="http://www.w3.org/2000/svg">
<defs>
<filter id="filter943" color-interpolation-filters="sRGB">
<feFlood flood-color="rgb(0,0,0)" flood-opacity=".2" result="flood"/>
<feComposite in="flood" in2="SourceGraphic" operator="in" result="composite1"/>
<feGaussianBlur in="composite1" result="blur"/>
<feOffset dx="0" dy="1" result="offset"/>
<feComposite in="SourceGraphic" in2="offset" result="composite2"/>
</filter>
<filter id="filter955" color-interpolation-filters="sRGB">
<feFlood flood-color="rgb(0,0,0)" flood-opacity=".2" result="flood"/>
<feComposite in="flood" in2="SourceGraphic" operator="in" result="composite1"/>
<feGaussianBlur in="composite1" result="blur"/>
<feOffset dx="0" dy="1" result="offset"/>
<feComposite in="SourceGraphic" in2="offset" result="fbSourceGraphic"/>
<feColorMatrix in="fbSourceGraphic" result="fbSourceGraphicAlpha" values="0 0 0 -1 0 0 0 0 -1 0 0 0 0 -1 0 0 0 0 1 0"/>
<feFlood flood-color="rgb(255,255,255)" flood-opacity=".10196" in="fbSourceGraphic" result="flood"/>
<feComposite in="flood" in2="fbSourceGraphic" operator="out" result="composite1"/>
<feGaussianBlur in="composite1" result="blur"/>
<feOffset dx="0" dy="1" result="offset"/>
<feComposite in="offset" in2="fbSourceGraphic" operator="atop" result="composite2"/>
</filter>
</defs>
<g fill-rule="evenodd">
<rect x="4" y="5" width="40" height="39" rx="4.0806" ry="4.2704" fill="#c3c6c0" filter="url(#filter955)" stroke-width="2.5495"/>
<rect x="8" y="9" width="32" height="29" rx="1.4586" ry="1.6974" fill="#5187d6" stroke-width="2.781"/>
<path d="m12.1 21.131h-4.0998v2.6334l6.6666-0.11932 1.344-5.0878 3.1882 15.442 3.4093-10.945 2.4017 5.1697 4.0627-4.4599 10.927-0.11932v-2.514h-11.705l-2.903 2.5737-3.2415-7.7793-2.5116 7.7793-3.3537-12.869z" fill="#ecffd9" filter="url(#filter943)" stroke-width="2.6198"/>
</g>
<g fill="#e0e2df" fill-rule="evenodd" stroke-width="1.5">
<circle cx="25.5" cy="40.5" r="1.5"/>
<circle cx="30.5" cy="40.5" r="1.5"/>
<circle cx="35.5" cy="40.5" r="1.5"/>
</g>
<g fill-opacity=".2" fill-rule="evenodd" stroke-width="1.5">
<path d="m24.088 41a1.5 1.5 0 0 0-0.087891 0.5 1.5 1.5 0 0 0 1.5 1.5 1.5 1.5 0 0 0 1.5-1.5 1.5 1.5 0 0 0-0.087891-0.5 1.5 1.5 0 0 1-1.4121 1 1.5 1.5 0 0 1-1.4121-1z"/>
<path d="m29.088 41a1.5 1.5 0 0 0-0.087891 0.5 1.5 1.5 0 0 0 1.5 1.5 1.5 1.5 0 0 0 1.5-1.5 1.5 1.5 0 0 0-0.087891-0.5 1.5 1.5 0 0 1-1.4121 1 1.5 1.5 0 0 1-1.4121-1z"/>
<path d="m34.088 41a1.5 1.5 0 0 0-0.087891 0.5 1.5 1.5 0 0 0 1.5 1.5 1.5 1.5 0 0 0 1.5-1.5 1.5 1.5 0 0 0-0.087891-0.5 1.5 1.5 0 0 1-1.4121 1 1.5 1.5 0 0 1-1.4121-1z"/>
</g>
</svg>
