<svg width="48" height="48" version="1" xmlns="http://www.w3.org/2000/svg">
<defs>
<linearGradient id="linearGradient6343" x1="48.906" x2="50.988" y1="17.376" y2="22.251" gradientTransform="matrix(.0034567 .65995 .6572 -.0034712 3.8863 -6.4887)" gradientUnits="userSpaceOnUse">
<stop stop-color="#ffd1d1" offset="0"/>
<stop stop-color="#ff1d1d" offset=".5"/>
<stop stop-color="#6f0000" offset="1"/>
</linearGradient>
<linearGradient id="linearGradient6345" x1="46" x2="47.688" y1="19.812" y2="22.625" gradientTransform="matrix(.0034567 .65995 .6572 -.0034712 3.8863 -6.4887)" gradientUnits="userSpaceOnUse">
<stop stop-color="#c1c1c1" offset="0"/>
<stop stop-color="#acacac" offset="1"/>
</linearGradient>
<filter id="filter943" color-interpolation-filters="sRGB">
<feFlood flood-color="rgb(0,0,0)" flood-opacity=".2" result="flood"/>
<feComposite in="flood" in2="SourceGraphic" operator="in" result="composite1"/>
<feGaussianBlur in="composite1" result="blur"/>
<feOffset dx="0" dy="1" result="offset"/>
<feComposite in="SourceGraphic" in2="offset" result="fbSourceGraphic"/>
<feColorMatrix in="fbSourceGraphic" result="fbSourceGraphicAlpha" values="0 0 0 -1 0 0 0 0 -1 0 0 0 0 -1 0 0 0 0 1 0"/>
<feFlood flood-color="rgb(255,255,255)" flood-opacity=".10196" in="fbSourceGraphic" result="flood"/>
<feComposite in="flood" in2="fbSourceGraphic" operator="out" result="composite1"/>
<feGaussianBlur in="composite1" result="blur"/>
<feOffset dx="0" dy="1" result="offset"/>
<feComposite in="offset" in2="fbSourceGraphic" operator="atop" result="composite2"/>
</filter>
</defs>
<g transform="matrix(1.5454 0 0 1.5517 -.72783 -.5517)" filter="url(#filter943)">
<g fill-rule="evenodd">
<ellipse cx="17.467" cy="13.391" rx="8.0674" ry="3.691" color="#000000" fill="#d3d7cf" fill-opacity=".99608" stroke-width="1.7773"/>
<path d="m17.183 22.48s0.06658 0.94836 0.89004 1.3152c0.84831 0.37796 1.7456-0.0093 1.7456-0.0093l-1.6051 3.3289s-0.57421 0.96128-1.8666 0.44296c-1.2748-0.51121-0.76919-1.7696-0.76919-1.7696z" color="#000000" fill="url(#linearGradient6343)" stroke-width=".65857"/>
<path d="m17.183 22.48s0.06658 0.94836 0.89004 1.3152c0.84831 0.37796 1.7456-0.0093 1.7456-0.0093l-0.65029 1.3233s-0.86389 0.55036-1.7654 0.15368c-0.92633-0.40755-0.87027-1.4597-0.87027-1.4597z" color="#000000" fill="url(#linearGradient6345)" stroke-width=".65857"/>
</g>
<g transform="translate(28,-1)" stroke-width="1.8087">
<path d="m-13.786 15.128c0.1241 0.17641 0.24851 0.34078 0.37179 0.51353l2.4644-1.7053c-0.33723-0.51366-0.81275-1.3515-1.1674-1.8856-4.0824-6.1486-8.0835-9.2207-8.2503-9.106-0.1835 0.12619 1.4225 4.9345 5.5844 10.743 0.24435 0.34102 0.76208 1.1063 0.9972 1.4406z" color="#000000" fill="none" opacity=".35714"/>
<g fill-rule="evenodd">
<path d="m-13.886 18.958c1.9332 2.742 3.8333 5.1165 5.4012 6.823l2.5417-1.757c-1.1575-2.3431-2.9603-5.3752-5.1463-8.5641-3.9458-5.7562-7.8584-10.141-9.4061-10.662-0.04749-0.015116-0.11118-0.035012-0.15404-0.042556-0.03013-0.0046-0.07475-0.00305-0.10244-0.00371-0.0435 2.022e-4 -0.09927 0.00922-0.13632 0.019716-0.0091 0.00296-0.0368 0.00297-0.04544 0.00658-0.0084 0.00393-0.02587 0.018835-0.03388 0.023425-4e-3 0.00247-0.0132 0.00908-0.01694 0.011702-0.0038 0.00262-0.0132 0.00893-0.01696 0.011716-0.0072 0.00589-0.02722 0.01691-0.0339 0.023425-0.0065 0.00681-0.01636 0.032835-0.02234 0.04028-0.023 0.031008-0.05129 0.080105-0.06702 0.12084-0.0092 0.026204-0.02665 0.067509-0.03312 0.097411-0.0082 0.042884-0.01247 0.10973-0.01542 0.15967-0.06863 1.6375 2.6135 6.8731 6.5594 12.63 0.24551 0.35816 0.48319 0.71484 0.72781 1.0618z" color="#000000" fill="#729fcf"/>
<path d="m-16.885 14.871c0.49097 0.69134 0.99957 1.3556 1.4826 1.9807l3.5585-2.4596c-0.58178-0.96187-1.2279-1.9734-1.9253-2.9911-3.3292-4.8568-6.7644-8.4636-8.2433-8.7831-0.01305-0.00258-0.04431-0.00822-0.057-0.010281-0.01247-0.0018-0.04478-0.00902-0.057-0.01028-0.03013-0.00251-0.07431-0.00454-0.10244-0.00371-0.01115 5.98e-4 -0.03469 0.00544-0.04544 0.00657-0.03179 0.00422-0.07906 0.015712-0.10782 0.024857-0.0094 0.00332-0.03636 0.0027-0.04544 0.00657-0.01335 0.00623-0.03825 0.027649-0.05084 0.035138-0.0041 0.00264-0.01291 0.00893-0.01696 0.011716-4e-3 0.00278-0.01306 0.0088-0.01694 0.011716-0.01144 0.00912-0.04026 0.02483-0.05084 0.035139-0.0069 0.00713-0.01589 0.032626-0.02234 0.04028-0.01878 0.023726-0.04634 0.063964-0.06162 0.092269-0.0048 0.00969-0.01782 0.030093-0.02234 0.04028-0.01085 0.026086-0.0247 0.068253-0.03312 0.097411-0.0032 0.011904-0.0079 0.044743-0.01085 0.057132-0.0026 0.012629-0.0085 0.044026-0.01071 0.057131-0.2308 1.501 1.8977 6.011 5.2269 10.868 0.20716 0.30219 0.4049 0.60118 0.61227 0.89321z" color="#000000" fill="#5b90c8"/>
<path d="m-21.843 6.4002 2.5078-1.7335c-1.3307-1.4947-2.5318-2.4177-3.1802-2.3806-0.0041 3.194e-4 -0.0199 0.00102-0.024 0.00143-0.0041 4.795e-4 -0.02001 8.645e-4 -0.024 0.00143-4e-3 6.399e-4 -0.0201 7.061e-4 -0.024 0.00143-0.02313 0.0048-0.06048 0.018535-0.08188 0.026275-0.0035 0.00137-0.0135 0.010251-0.01696 0.011716-0.0034 0.00154-0.02062-1.946e-4 -0.024 0.00143-0.0034 0.0017-0.01364 0.00993-0.01696 0.011716-0.0032 0.00187-0.01379 0.00976-0.01694 0.011716-0.0031 0.00204-0.01394 0.0096-0.01694 0.011716-0.0031 0.00212-0.01393 0.00951-0.01696 0.011716-0.0029 0.00228-0.01408 0.00935-0.01696 0.011716-0.0028 0.00244-0.01423 0.00921-0.01694 0.011716-0.0026 0.00258-0.0072 0.01934-0.0098 0.022001-0.0026 0.00274-0.01438 0.0089-0.01696 0.011716-0.01483 0.017319-0.04094 0.047437-0.05367 0.067425-0.0021 0.00341-0.0079 0.018522-0.0098 0.022001-0.0019 0.00355-0.0081 0.018379-0.0098 0.022001-0.0019 0.0037-0.0081 0.018234-0.0098 0.022001-0.26605 0.59483 0.16383 2.051 1.079 3.8329z" color="#000000" fill="#729fcf"/>
</g>
</g>
<g transform="matrix(1.8049 0 0 1.8125 1.2086 .99998)" fill-rule="evenodd">
<path d="m14.29 1.0432e-5 -2.0373 2.0589-5.5596 11.522c-0.44891 1.1857 1.2388 1.8823 1.825 0.83243l5.4234-11.499z" color="#000000" fill="#cb9022" stroke-width=".36411"/>
<path d="m14.285 0.0040299-2.0327 2.0548c0.37253 0.67942 0.98457 1.0311 1.6931 0.84281z" color="#000000" fill="#e7e2b8" stroke-width=".45417"/>
<path d="m13.64 0.67812 0.64498-0.67522-0.12213 0.96955c-0.29197 0.09199-0.43272-0.075199-0.52284-0.29433z" color="#000000" stroke-width=".41012"/>
</g>
<path d="m25.534 13.391-1.8489 14.036c-0.58952 3.4126-11.71 3.4498-12.38 0l-1.9058-13.655c3.8334 3.3784 14.024 4.1649 16.134-0.38092z" color="#000000" fill="#d3d7cf" fill-opacity=".99608" fill-rule="evenodd" stroke-width="1.7847"/>
</g>
</svg>
