<svg width="48" height="48" version="1" xmlns="http://www.w3.org/2000/svg">
<defs>
<filter id="filter964" color-interpolation-filters="sRGB">
<feFlood flood-color="rgb(0,0,0)" flood-opacity=".2" result="flood"/>
<feComposite in="flood" in2="SourceGraphic" operator="in" result="composite1"/>
<feGaussianBlur in="composite1" result="blur"/>
<feOffset dx="0" dy="1" result="offset"/>
<feComposite in="SourceGraphic" in2="offset" result="composite2"/>
</filter>
<filter id="filter978" color-interpolation-filters="sRGB">
<feFlood flood-color="rgb(0,0,0)" flood-opacity=".2" result="flood"/>
<feComposite in="flood" in2="SourceGraphic" operator="in" result="composite1"/>
<feGaussianBlur in="composite1" result="blur"/>
<feOffset dx="0" dy="1" result="offset"/>
<feComposite in="SourceGraphic" in2="offset" result="composite2"/>
</filter>
<filter id="filter990" color-interpolation-filters="sRGB">
<feFlood flood-color="rgb(255,255,255)" flood-opacity=".10196" result="flood"/>
<feComposite in="flood" in2="SourceGraphic" operator="out" result="composite1"/>
<feGaussianBlur in="composite1" result="blur"/>
<feOffset dx="0" dy="1" result="offset"/>
<feComposite in="offset" in2="SourceGraphic" operator="atop" result="composite2"/>
</filter>
</defs>
<path d="m4 8v38h40v-38z" fill="#c17d11" fill-rule="evenodd" filter="url(#filter978)" stroke-width="2.7848"/>
<path d="m9.5189 1-5.5189 7h40l-5.5189-7z" fill="#e9b96e" fill-rule="evenodd" filter="url(#filter990)" stroke-width="3.1622"/>
<path d="m5.456 6.7056v38.045h37.089v-38.045l-4.6933-4.3751h-27.702z" fill="none" stroke-width="2.8347"/>
<g fill-rule="evenodd">
<path d="m12.151 12c-0.63692 0-1.151 0.45131-1.151 1.0141v8.9719c0 0.56276 0.51413 1.0141 1.151 1.0141h6.1787c-0.18232-0.06425-0.32585-0.17107-0.32585-0.32657v-4.2759c0-0.21841 0.24418-0.39532 0.55014-0.39532h10.9c0.30594 0 0.55014 0.17691 0.55014 0.39532v4.2759c0 0.1555-0.14354 0.26231-0.32585 0.32657h6.1708c0.63692 0 1.151-0.45131 1.151-1.0141v-8.9719c0-0.56276-0.51413-1.0141-1.151-1.0141z" color="#000000" fill="#e9b96e" filter="url(#filter964)" stroke-width="2.6739"/>
<rect x="17.5" y="36.538" width="13" height="4.4615" rx=".55224" ry=".39384" color="#000000" fill="#c17d11" stroke-width="2.6925"/>
<path d="m12.151 30c-0.63692 0-1.151 0.45131-1.151 1.0141v8.9719c0 0.56276 0.51413 1.0141 1.151 1.0141h6.1787c-0.18232-0.06425-0.32585-0.17107-0.32585-0.32657v-4.2759c0-0.21841 0.24418-0.39532 0.55014-0.39532h10.9c0.30594 0 0.55014 0.17691 0.55014 0.39532v4.2759c0 0.1555-0.14354 0.26231-0.32585 0.32657h6.1708c0.63692 0 1.151-0.45131 1.151-1.0141v-8.9719c0-0.56276-0.51413-1.0141-1.151-1.0141z" color="#000000" fill="#e9b96e" filter="url(#filter964)" stroke-width="2.6739"/>
</g>
<circle cx="36" cy="37" r="11" opacity=".2"/>
<circle cx="36" cy="36" r="11" fill="#6ec149"/>
<path d="m34.488 29.999-0.13345 1.5804a4.7567 4.7143 0 0 0-1.3902 0.79689l-1.4493-0.67635-1.5135 2.5982 1.3159 0.9057a4.7567 4.7143 0 0 0-0.07265 0.7952 4.7567 4.7143 0 0 0 0.06922 0.79855l-1.314 0.903 1.5135 2.5982 1.4459-0.67466a4.7567 4.7143 0 0 0 1.393 0.792l0.133 1.584h3.027l0.13344-1.5804a4.7567 4.7143 0 0 0 1.3902-0.79688l1.4493 0.67634 1.5135-2.5982-1.3159-0.9057a4.7567 4.7143 0 0 0 0.07265-0.79519 4.7567 4.7143 0 0 0-0.06922-0.79855l1.313-0.901-1.5135-2.5982-1.446 0.67467a4.7567 4.7143 0 0 0-1.393-0.792l-0.13344-1.5837h-3.027zm1.5135 4.2857a1.7297 1.7143 0 0 1 1.7297 1.7143 1.7297 1.7143 0 0 1-1.7297 1.7143 1.7297 1.7143 0 0 1-1.7297-1.7143 1.7297 1.7143 0 0 1 1.7297-1.7143z" fill="#fff"/>
</svg>
