<svg width="48" height="48" version="1" xmlns="http://www.w3.org/2000/svg">
<rect x="4" y="4" width="40" height="40" rx="20" ry="20" fill="#f5b35d"/>
<path d="m24 4c-11.08 0-20 8.92-20 20 0 0.168-4e-3 0.333 0 0.5 0.2644-10.846 9.088-19.5 20-19.5s19.736 8.654 20 19.5c4e-3 -0.167 0-0.332 0-0.5 0-11.08-8.92-20-20-20z" fill="#fff" opacity=".2"/>
<path d="m4.0117 24.5c-0.0041 0.167-0.0117 0.332-0.0117 0.5 0 11.08 8.92 20 20 20s20-8.92 20-20c0-0.168-8e-3 -0.333-0.012-0.5-0.264 10.846-9.076 19.5-19.988 19.5s-19.724-8.654-19.988-19.5z" opacity=".2"/>
<circle cx="36" cy="37" r="11" opacity=".2"/>
<path d="m18.138 22.167c-5.1894 3.0924-5.8371 7.2794-4.6011 9.7576 1.2838 2.5739 3.4576 3.0436 6.0505 3.0632l4.3909 0.01265h0.04288l4.3909-0.01265c2.5928-0.01978 4.7666-0.48955 6.0505-3.0632 1.236-2.478 0.58839-6.6651-4.6011-9.7576-1.2292 1.3526-3.5586 2.1458-5.8617 2.1683-2.3033-0.02254-4.6326-0.81571-5.8617-2.1683z" color="#000000" fill="#444" fill-rule="evenodd" stroke-width="2.1302"/>
<circle cx="24" cy="17" r="5" fill="#444" fill-rule="evenodd" stroke-width="2.3693"/>
<circle cx="36" cy="36" r="11" fill="#a559d6"/>
<path d="m30 39.327v2.673h2.6728l6.7507-6.7507-2.6728-2.6728zm11.788-6.4337c0.28271-0.28271 0.28271-0.72818 0-1.0109l-1.6705-1.6705c-0.28271-0.28271-0.72818-0.28271-1.0109 0l-1.3964 1.405 2.6728 2.6728z" fill="#fff"/>
</svg>
