<svg width="48" height="48" version="1.1" xmlns="http://www.w3.org/2000/svg">
<g fill-rule="evenodd">
<path d="m37.842 33.713c-0.06641 0.08269-0.15455 0.15092-0.18359 0.25586-0.05438 0.19649-0.0071 0.40538 0.06641 0.53711 0.14694 0.26346 0.36133 0.34766 0.36133 0.34766a0.46465 0.46465 0 0 0 0.21484 0.05273h6.3184c0.29817 0 0.51883-0.14689 0.69141-0.31055 0.17258-0.16366 0.30767-0.36472 0.41602-0.58789 0.2167-0.44634 0.3454-1.0013 0.10352-1.5273-0.02379-0.05173-0.03207-0.06413-0.05469-0.11328-0.0321 0.24952 0.05535 0.51978-0.04883 0.73437-0.10835 0.22317-0.24344 0.42423-0.41602 0.58789-0.17258 0.16366-0.39323 0.31055-0.69141 0.31055h-6.3184a0.46465 0.46465 0 0 1-0.03711-2e-3 0.46465 0.46465 0 0 1-0.04687-0.0059 0.46465 0.46465 0 0 1-0.04492-0.0098 0.46465 0.46465 0 0 1-0.04297-0.01563 0.46465 0.46465 0 0 1-0.04297-0.01953c-1e-6 0-0.13547-0.12843-0.24414-0.23438z" color="#000000" color-rendering="auto" dominant-baseline="auto" fill-opacity=".2" image-rendering="auto" shape-rendering="auto" solid-color="#000000" style="font-feature-settings:normal;font-variant-alternates:normal;font-variant-caps:normal;font-variant-ligatures:normal;font-variant-numeric:normal;font-variant-position:normal;isolation:auto;mix-blend-mode:normal;shape-padding:0;text-decoration-color:#000000;text-decoration-line:none;text-decoration-style:solid;text-indent:0;text-orientation:mixed;text-transform:none;white-space:normal"/>
<path d="m2.2246 32.371c-0.02291 0.0498-0.030566 0.06278-0.054687 0.11524-0.24188 0.526-0.11318 1.081 0.10352 1.5273 0.10835 0.22317 0.24344 0.42423 0.41602 0.58789 0.17258 0.16366 0.39323 0.31055 0.69141 0.31055h6.3184a0.46465 0.46465 0 0 0 0.21484-0.05273s0.21437-0.08421 0.36133-0.34766c0.07348-0.13173 0.12077-0.34061 0.06641-0.53711-0.02943-0.10639-0.11884-0.17553-0.18555-0.25977-0.1076 0.10399-0.24219 0.23242-0.24219 0.23242a0.46465 0.46465 0 0 1-0.033203 0.01563 0.46465 0.46465 0 0 1-0.044922 0.01758 0.46465 0.46465 0 0 1-0.044922 0.0098 0.46465 0.46465 0 0 1-0.044922 0.0078 0.46465 0.46465 0 0 1-0.046875 2e-3h-6.3184c-0.29817 0-0.51883-0.14689-0.69141-0.31055-0.17258-0.16366-0.30767-0.36472-0.41602-0.58789-0.10363-0.21345-0.016355-0.48237-0.048828-0.73047z" color="#000000" color-rendering="auto" dominant-baseline="auto" fill-opacity=".2" image-rendering="auto" shape-rendering="auto" solid-color="#000000" style="font-feature-settings:normal;font-variant-alternates:normal;font-variant-caps:normal;font-variant-ligatures:normal;font-variant-numeric:normal;font-variant-position:normal;isolation:auto;mix-blend-mode:normal;shape-padding:0;text-decoration-color:#000000;text-decoration-line:none;text-decoration-style:solid;text-indent:0;text-orientation:mixed;text-transform:none;white-space:normal"/>
<rect x="9" y="33" width="30" height="1" fill-opacity=".20392"/>
</g>
<g fill-rule="evenodd">
<g stroke-linecap="round" stroke-linejoin="round">
<path d="m9.7177 17.083-5.8504 14.592c-0.16522 0.41209 0.21075 0.86551 0.66755 0.86509l38.332 4e-3c0.66961-5.97e-4 1.144-0.66013 0.87313-1.2433l-6.5211-14.078c-0.18497-0.39824-0.80754-0.74139-1.4084-0.74188l-24.872-0.02073c-0.47047-3.92e-4 -1.008 0.0913-1.2212 0.62293z" fill="#c1c3ae" stroke="#c1c3ae" stroke-width=".91983"/>
<path d="m4.338 28.071c0.091415-0.18887 0.30757-0.32518 0.62276-0.32185l1.9443 0.02054 3.0986 3.3144s-0.51036 1.1352-0.29485 1.8604c0.44335 0.35547-0.00895 0.59115-0.00895 0.59115h-6.3187c-0.48605 0-1.0924-1.1089-0.78984-1.7668 0.77464-1.6846 0.90009-1.9486 1.7467-3.6979z" color="#000000" fill="#5a7aa4" stroke="#5a7aa4" stroke-width=".9292"/>
<path d="m43.662 28.071c-0.09142-0.18887-0.30757-0.32518-0.62276-0.32185l-1.9443 0.02054-3.0986 3.3144s0.51036 1.1352 0.29485 1.8604c-0.44335 0.35547 0.0089 0.59115 0.0089 0.59115h6.3187c0.48605 0 1.0924-1.1089 0.78984-1.7668-0.77464-1.6846-0.90009-1.9486-1.7467-3.6979z" color="#000000" fill="#5a7aa4" stroke="#5a7aa4" stroke-width=".9292"/>
</g>
<rect x="12.491" y="16" width="21.957" height="1" fill="#fff" fill-opacity=".1" stroke-width=".8555"/>
<path d="m9.0478 18.517 5.2735-2.3242c0.34999-0.15426-0.29782-0.85223-0.68738-0.85223h-4.2102l-1.2029 2.7891c-0.17121 0.39696 0.32189 1.6399 0.48331 1.2396z" color="#000000" fill="#5a7aa4" stroke="#5a7aa4" stroke-linecap="round" stroke-linejoin="round" stroke-width=".74336"/>
<path d="m37.862 18.517-5.2735-2.3242c-0.34999-0.15426 0.29782-0.85223 0.68738-0.85223h4.2102l1.2029 2.7891c0.17121 0.39696-0.32189 1.6399-0.48332 1.2396z" color="#000000" fill="#5a7aa4" stroke="#5a7aa4" stroke-linecap="round" stroke-linejoin="round" stroke-width=".74336"/>
<path d="m33.275 14.969c-0.41676 0-0.6832 0.24361-0.90234 0.49805-0.10957 0.12722-0.20501 0.26138-0.24414 0.45508-0.01957 0.09685-0.02109 0.21945 0.0332 0.3418 0.04126 0.09297 0.12747 0.15104 0.20898 0.20508 5.6e-4 -6.52e-4 0.0014-0.0013 2e-3 -2e-3 0.18922-0.21969 0.45325-0.37598 0.7793-0.42969l-0.20703-0.0918c0.11852-0.12797 0.35653-0.23242 0.33008-0.23242h3.9668l0.10937 0.25586h0.13477a0.37172 0.37172 0 0 1 0.02344 0 0.37172 0.37172 0 0 1 0.03711 0.0039 0.37172 0.37172 0 0 1 0.03711 0.0078 0.37172 0.37172 0 0 1 0.03516 0.01172 0.37172 0.37172 0 0 1 0.0332 0.01562 0.37172 0.37172 0 0 1 0.0332 0.01758 0.37172 0.37172 0 0 1 0.0293 0.02148 0.37172 0.37172 0 0 1 0.0293 0.02539 0.37172 0.37172 0 0 1 0.02539 0.02734 0.37172 0.37172 0 0 1 0.02344 0.0293 0.37172 0.37172 0 0 1 0.01953 0.03125 0.37172 0.37172 0 0 1 0.01563 0.0332l1.166 2.709c0.02807-0.10113 0.06668-0.19743 0.08203-0.30078 0.0298-0.20057 0.04955-0.39556-0.04687-0.61914l-1.2012-2.789a0.37172 0.37172 0 0 0-0.3418-0.22461z" color="#000000" color-rendering="auto" dominant-baseline="auto" fill="#fff" fill-opacity=".1" image-rendering="auto" shape-rendering="auto" solid-color="#000000" style="font-feature-settings:normal;font-variant-alternates:normal;font-variant-caps:normal;font-variant-ligatures:normal;font-variant-numeric:normal;font-variant-position:normal;isolation:auto;mix-blend-mode:normal;shape-padding:0;text-decoration-color:#000000;text-decoration-line:none;text-decoration-style:solid;text-indent:0;text-orientation:mixed;text-transform:none;white-space:normal"/>
<path d="m13.677 14.969c0.41676 0 0.6832 0.24361 0.90234 0.49805 0.10957 0.12722 0.20501 0.26138 0.24414 0.45508 0.01957 0.09685 0.02109 0.21945-0.0332 0.3418-0.04126 0.09297-0.12747 0.15104-0.20898 0.20508-5.6e-4 -6.52e-4 -0.0014-0.0013-2e-3 -2e-3 -0.18922-0.21969-0.45325-0.37598-0.7793-0.42969l0.20703-0.0918c-0.11852-0.12797-0.35653-0.23242-0.33008-0.23242h-3.9668l-0.10937 0.25586h-0.13477a0.37172 0.37172 0 0 0-0.02344 0 0.37172 0.37172 0 0 0-0.03711 0.0039 0.37172 0.37172 0 0 0-0.03711 0.0078 0.37172 0.37172 0 0 0-0.03516 0.01172 0.37172 0.37172 0 0 0-0.0332 0.01562 0.37172 0.37172 0 0 0-0.0332 0.01758 0.37172 0.37172 0 0 0-0.0293 0.02148 0.37172 0.37172 0 0 0-0.0293 0.02539 0.37172 0.37172 0 0 0-0.02539 0.02734 0.37172 0.37172 0 0 0-0.02344 0.0293 0.37172 0.37172 0 0 0-0.01953 0.03125 0.37172 0.37172 0 0 0-0.01563 0.0332l-1.166 2.709c-0.02807-0.10113-0.06668-0.19743-0.08203-0.30078-0.0298-0.20057-0.04955-0.39556 0.04687-0.61914l1.2012-2.789a0.37172 0.37172 0 0 1 0.3418-0.22461z" color="#000000" color-rendering="auto" dominant-baseline="auto" fill="#fff" fill-opacity=".1" image-rendering="auto" shape-rendering="auto" solid-color="#000000" style="font-feature-settings:normal;font-variant-alternates:normal;font-variant-caps:normal;font-variant-ligatures:normal;font-variant-numeric:normal;font-variant-position:normal;isolation:auto;mix-blend-mode:normal;shape-padding:0;text-decoration-color:#000000;text-decoration-line:none;text-decoration-style:solid;text-indent:0;text-orientation:mixed;text-transform:none;white-space:normal"/>
</g>
</svg>
