<svg width="48" height="48" version="1" xmlns="http://www.w3.org/2000/svg">
<path d="m5.219 41.425v0.83488c0 0.96392 0.74504 1.7402 1.6702 1.7402h34.16c0.92513 0 1.6702-0.77628 1.6702-1.7402v-0.83488z" fill="#8e8d87" stroke-width="2.5"/>
<path d="m7.5413 24.001h32.916c0.37562 0 0.85558 0.27299 1.1516 0.68583 0.29598 0.41285 1.694 2.4727 2.008 2.9125 0.31406 0.43961 0.38332 0.85632 0.38332 1.3984v11.441c0 0.8655-0.71408 1.5623-1.6011 1.5623h-36.798c-0.88699 0-1.6011-0.69677-1.6011-1.5623v-11.441c0-0.46801 0.09868-1.1391 0.43548-1.5663 0.425-0.53907 1.5651-2.4138 1.8658-2.8115 0.30072-0.39757 0.85294-0.61875 1.2416-0.61875z" color="#000000" fill="#dcdcda" stroke-width="2.54"/>
<path d="m9.4639 24.425c-0.44226 0-0.98503 0.05764-1.2052 0.36207l-1.6717 2.3114c-0.2482 0.34317 0.02985 0.93064 0.8208 0.93064h33.116c1.1524 0 1.073-0.74408 0.8208-1.0609l-1.5551-1.9533c-0.28198-0.35419-0.38432-0.58995-1.0886-0.58995z" fill="#fbfbfb" fill-rule="evenodd" stroke-width="2.2186"/>
<path d="m8.0039 24.213h32.026c0.35672 0 0.81256 0.26931 1.0936 0.67659 0.2811 0.40729 1.2645 2.0032 1.5628 2.4368s0.4249 0.8448 0.4249 1.3796v11.134c0 0.85388-0.13046 1.2328-0.97286 1.2328h-36.156c-0.8424 0-1.0337-0.37897-1.0337-1.2328v-11.134c0-0.46173 0.21542-1.1238 0.5353-1.5453 0.4036-0.53181 1.0561-1.9452 1.3416-2.3374 0.28558-0.39221 0.81004-0.61041 1.1792-0.61041z" color="#000000" fill="none" stroke-width="2.5"/>
<path d="m13.044 6h21.912c0.57842 0 1.0441 0.51403 1.0441 1.1526v18.848h-24v-18.848c0-0.63851 0.46568-1.1526 1.0441-1.1526z" color="#000000" display="block" fill="#e0e0e0" stroke-width="2.4494"/>
<rect x="11.801" y="7.4862" width="24.388" height="18.591" rx=".17245" ry=".17448" color="#000000" display="block" fill="none" stroke-width="2.5"/>
<rect x="5.9995" y="32.001" width="36" height="4.0001" rx="1.8256" ry="1.3198" fill="#f7f6f5" stroke-width="2.2678"/>
<ellipse cx="11" cy="33.001" rx="1.0002" ry="1" fill="#9f9f9f" stroke-width="2"/>
<path d="m43.009 28.213h-38.026" fill="none" stroke-width="2.5"/>
<g fill-opacity=".2924" stroke-width="2.236">
<rect x="13.999" y="10" width="20" height="2" color="#000000"/>
<rect x="13.999" y="14" width="9.9999" height="2" color="#000000"/>
<rect x="13.999" y="18" width="20" height="2" color="#000000"/>
</g>
<g fill-opacity=".2">
<path d="m10.135 33.5a1.0002 1 0 0 0-0.13477 0.5 1.0002 1 0 0 0 1 1 1.0002 1 0 0 0 1-1 1.0002 1 0 0 0-0.13672-0.5 1.0002 1 0 0 1-0.86328 0.5 1.0002 1 0 0 1-0.86523-0.5z" stroke-width="2"/>
<rect x="13.999" y="12" width="20" height="1" color="#000000" stroke-width="1.5811"/>
<rect x="13.999" y="20" width="20" height="1" color="#000000" stroke-width="1.5811"/>
<rect x="13.999" y="16" width="10" height="1" color="#000000" stroke-width="1.118"/>
<path d="m5.2188 42.426v0.83398c0 0.96392 0.74481 1.7402 1.6699 1.7402h34.16c0.92513 0 1.6699-0.77631 1.6699-1.7402v-0.83398h-0.01563c-0.080903 0.88425-0.78377 1.5742-1.6543 1.5742h-34.16c-0.87051 0-1.5734-0.68997-1.6543-1.5742z" stroke-width="2.5"/>
</g>
<g transform="translate(1e-5 -.002)">
<circle cx="36" cy="36" r="11" opacity=".2"/>
<circle cx="36" cy="35" r="11" fill="#c03630"/>
<path d="m36 30c-1.5508 0.0151-3.1121 0.36944-4.4629 1.135-0.53841 0.3507-1.1848 0.80366-1.6719 1.26-0.76649 0.75058-1.4225 1.6263-1.8652 2.606 1.2149 2.6801 3.8859 4.6445 6.8242 4.9346 1.9274 0.21817 3.9444-0.11487 5.6387-1.0686 0.53839-0.3507 1.1848-0.80366 1.6719-1.26 0.766-0.751 1.422-1.626 1.865-2.606-1.215-2.68-3.886-4.645-6.824-4.935-0.39-0.045-0.783-0.066-1.176-0.066zm0 2.0004c1.607-0.0356 3.0303 1.4021 3 3.0007 0.05149 1.7668-1.709 3.2916-3.4492 2.9616-1.7576-0.20637-2.9921-2.1782-2.4141-3.8485 0.36917-1.2296 1.5758-2.129 2.8633-2.1138zm0 2.0004a1 1.0002 0 0 0-1 1.0002 1 1.0002 0 0 0 1 1.0002 1 1.0002 0 0 0 0.99999-1.0002 1 1.0002 0 0 0-1-0.999z" fill="#fff" fill-rule="evenodd"/>
</g>
</svg>
