<svg width="48" height="48" version="1" xmlns="http://www.w3.org/2000/svg">
<defs>
<filter id="filter864" color-interpolation-filters="sRGB">
<feFlood flood-color="rgb(0,0,0)" flood-opacity=".2" result="flood"/>
<feComposite in="flood" in2="SourceGraphic" operator="in" result="composite1"/>
<feGaussianBlur in="composite1" result="blur"/>
<feOffset dx="0" dy="1" result="offset"/>
<feComposite in="SourceGraphic" in2="offset" result="composite2"/>
</filter>
<filter id="filter876" color-interpolation-filters="sRGB">
<feFlood flood-color="rgb(0,0,0)" flood-opacity=".2" result="flood"/>
<feComposite in="flood" in2="SourceGraphic" operator="in" result="composite1"/>
<feGaussianBlur in="composite1" result="blur"/>
<feOffset dx="0" dy="1" result="offset"/>
<feComposite in="SourceGraphic" in2="offset" result="composite2"/>
</filter>
</defs>
<circle cx="24" cy="24" r="20" fill="#f5b35d"/>
<path d="m24 4a20 20 0 0 0-20 20 20 20 0 0 0 0.0215 0.582 20 20 0 0 1 19.978-19.582 20 20 0 0 1 19.979 19.418 20 20 0 0 0 0.021-0.418 20 20 0 0 0-20-20z" fill="#fff" opacity=".2"/>
<path d="m43.979 24.418a20 20 0 0 1-19.979 19.582 20 20 0 0 1-19.978-19.418 20 20 0 0 0-0.022 0.418 20 20 0 0 0 20 20 20 20 0 0 0 20-20 20 20 0 0 0-0.021-0.582z" opacity=".2"/>
<path d="m18.671 23.333c-4.7176 2.8112-5.3065 6.6177-4.1828 8.8706 1.1671 2.3399 3.1432 2.7669 5.5005 2.7847l3.9918 0.0115h0.03898l3.9918-0.0115c2.3571-0.01798 4.3333-0.44504 5.5005-2.7847 1.1237-2.2527 0.5349-6.0592-4.1828-8.8706-1.1174 1.2297-3.2351 1.9507-5.3288 1.9712-2.0939-0.02049-4.2114-0.74155-5.3288-1.9712z" color="#000000" fill="#3f3f3f" fill-rule="evenodd" filter="url(#filter876)" stroke-width="1.9365"/>
<circle cx="24" cy="18" r="5.0001" fill="#3f3f3f" fill-rule="evenodd" filter="url(#filter864)" stroke-width="2.3694"/>
</svg>
