<svg width="48" height="48" version="1" xmlns="http://www.w3.org/2000/svg">
<defs>
<linearGradient id="linearGradient897" x1="12.207" x2="12.128" y1="53.535" y2="64.893" gradientTransform="matrix(2.4112 0 0 .9957 -5.1942 -22.484)" gradientUnits="userSpaceOnUse">
<stop stop-color="#585956" offset="0"/>
<stop stop-color="#bbbeb8" offset="1"/>
</linearGradient>
<filter id="filter945" color-interpolation-filters="sRGB">
<feFlood flood-color="rgb(0,0,0)" flood-opacity=".2" result="flood"/>
<feComposite in="flood" in2="SourceGraphic" operator="in" result="composite1"/>
<feGaussianBlur in="composite1" result="blur"/>
<feOffset dx="0" dy="1" result="offset"/>
<feComposite in="SourceGraphic" in2="offset" result="fbSourceGraphic"/>
<feColorMatrix in="fbSourceGraphic" result="fbSourceGraphicAlpha" values="0 0 0 -1 0 0 0 0 -1 0 0 0 0 -1 0 0 0 0 1 0"/>
<feFlood flood-color="rgb(255,255,255)" flood-opacity=".10196" in="fbSourceGraphic" result="flood"/>
<feComposite in="flood" in2="fbSourceGraphic" operator="out" result="composite1"/>
<feGaussianBlur in="composite1" result="blur"/>
<feOffset dx="0" dy="1" result="offset"/>
<feComposite in="offset" in2="fbSourceGraphic" operator="atop" result="composite2"/>
</filter>
</defs>
<ellipse cx="23.997" cy="39.02" rx="10" ry="3.9804" color="#000000" fill="#adb0aa" fill-rule="evenodd" stroke-width="2.6309"/>
<ellipse cx="23.996" cy="37.681" rx="9.0222" ry="3.2946" color="#000000" fill="none" stroke-width="2.6307"/>
<g fill-rule="evenodd">
<rect x="18" y="33.045" width="12" height="4.9554" color="#000000" fill="url(#linearGradient897)" stroke-width="2.7264"/>
<path d="m5.6863 4c-1.1306 0-1.6836 0.64812-1.6837 1.4494v26.461c-0.058814 1.1563 0.90852 2.09 2.0392 2.09h35.907c1.1306 0 2.0979-0.93377 2.0392-2.09l0.01186-26.461c-0.043185-0.84636-0.76322-1.4494-1.6838-1.4494h-36.632z" color="#000000" fill="#dde1d9" filter="url(#filter945)" stroke-width="2.4998"/>
<path d="m7 7-4.86e-5 22h34v-21.906z" fill="#1d83af" stroke-width="2.4366"/>
<path d="m14.088 39.516a10 3.9804 0 0 0-0.08984 0.50391 10 3.9804 0 0 0 10 3.9805 10 3.9804 0 0 0 10-3.9805 10 3.9804 0 0 0-0.0918-0.49609 10 3.9804 0 0 1-9.9082 3.4766 10 3.9804 0 0 1-9.9102-3.4844z" color="#000000" fill-opacity=".2" stroke-width="2.6309"/>
</g>
<circle cx="33" cy="12" r="5" fill="#f0f9fd"/>
<circle cx="14" cy="19" r="4" fill="#c4e7f5"/>
<circle cx="27" cy="25" r="3" fill="#a6daf0"/>
<circle cx="22" cy="13" r="2" fill="#c4e7f5"/>
<circle cx="36" cy="22" r="2" fill="#d3edf8"/>
<g fill-opacity=".2">
<path d="m28.027 12.484a5 5 0 0 0-0.027344 0.51562 5 5 0 0 0 5 5 5 5 0 0 0 5-5 5 5 0 0 0-0.027344-0.48438 5 5 0 0 1-4.9727 4.4844 5 5 0 0 1-4.9727-4.5156z"/>
<path d="m23.936 13.496a2 2 0 0 1-1.9355 1.5039 2 2 0 0 1-1.9355-1.4961 2 2 0 0 0-0.064453 0.49609 2 2 0 0 0 2 2 2 2 0 0 0 2-2 2 2 0 0 0-0.06445-0.50391z"/>
<path d="m37.936 22.496a2 2 0 0 1-1.9355 1.5039 2 2 0 0 1-1.9355-1.4961 2 2 0 0 0-0.064453 0.49609 2 2 0 0 0 2 2 2 2 0 0 0 2-2 2 2 0 0 0-0.06445-0.50391z"/>
<path d="m10.035 19.494a4 4 0 0 0-0.035156 0.50586 4 4 0 0 0 4 4 4 4 0 0 0 4-4 4 4 0 0 0-0.035156-0.49414 4 4 0 0 1-3.9648 3.4941 4 4 0 0 1-3.9648-3.5059z"/>
<path d="m29.957 25.486a3 3 0 0 1-2.957 2.5137 3 3 0 0 1-2.957-2.4863 3 3 0 0 0-0.042969 0.48633 3 3 0 0 0 3 3 3 3 0 0 0 3-3 3 3 0 0 0-0.04297-0.51367z"/>
</g>
<circle cx="36" cy="37" r="11" opacity=".2"/>
<circle cx="36" cy="36" r="11" fill="#c149c0"/>
<path d="m34.488 29.999-0.133 1.58a4.7567 4.7143 0 0 0-1.391 0.797l-1.449-0.676-1.513 2.598 1.315 0.906a4.7567 4.7143 0 0 0-0.072 0.795 4.7567 4.7143 0 0 0 0.069 0.799l-1.314 0.903 1.514 2.598 1.445-0.675a4.7567 4.7143 0 0 0 1.393 0.792l0.133 1.584h3.027l0.134-1.58a4.7567 4.7143 0 0 0 1.39-0.797l1.449 0.676 1.514-2.598-1.316-0.906a4.7567 4.7143 0 0 0 0.073-0.795 4.7567 4.7143 0 0 0-0.07-0.798l1.313-0.901-1.513-2.599-1.446 0.675a4.7567 4.7143 0 0 0-1.393-0.792l-0.134-1.584h-3.027zm1.514 4.286a1.7297 1.7143 0 0 1 1.729 1.714 1.7297 1.7143 0 0 1-1.729 1.714 1.7297 1.7143 0 0 1-1.73-1.714 1.7297 1.7143 0 0 1 1.73-1.714z" fill="#fff"/>
</svg>
