<svg width="48" height="48" version="1" xmlns="http://www.w3.org/2000/svg">
<defs>
<filter id="filter923" color-interpolation-filters="sRGB">
<feFlood flood-color="rgb(0,0,0)" flood-opacity=".2" result="flood"/>
<feComposite in="flood" in2="SourceGraphic" operator="in" result="composite1"/>
<feGaussianBlur in="composite1" result="blur"/>
<feOffset dx="0" dy="1" result="offset"/>
<feComposite in="SourceGraphic" in2="offset" result="composite2"/>
</filter>
<filter id="filter935" color-interpolation-filters="sRGB">
<feFlood flood-color="rgb(0,0,0)" flood-opacity=".2" result="flood"/>
<feComposite in="flood" in2="SourceGraphic" operator="in" result="composite1"/>
<feGaussianBlur in="composite1" result="blur"/>
<feOffset dx="0" dy="1" result="offset"/>
<feComposite in="SourceGraphic" in2="offset" result="composite2"/>
</filter>
<filter id="filter947" color-interpolation-filters="sRGB">
<feFlood flood-color="rgb(0,0,0)" flood-opacity=".2" result="flood"/>
<feComposite in="flood" in2="SourceGraphic" operator="in" result="composite1"/>
<feGaussianBlur in="composite1" result="blur"/>
<feOffset dx="0" dy="1" result="offset"/>
<feComposite in="SourceGraphic" in2="offset" result="composite2"/>
</filter>
<filter id="filter959" color-interpolation-filters="sRGB">
<feFlood flood-color="rgb(0,0,0)" flood-opacity=".2" result="flood"/>
<feComposite in="flood" in2="SourceGraphic" operator="in" result="composite1"/>
<feGaussianBlur in="composite1" result="blur"/>
<feOffset dx="0" dy="1" result="offset"/>
<feComposite in="SourceGraphic" in2="offset" result="fbSourceGraphic"/>
<feColorMatrix in="fbSourceGraphic" result="fbSourceGraphicAlpha" values="0 0 0 -1 0 0 0 0 -1 0 0 0 0 -1 0 0 0 0 1 0"/>
<feFlood flood-color="rgb(255,255,255)" flood-opacity=".10196" in="fbSourceGraphic" result="flood"/>
<feComposite in="flood" in2="fbSourceGraphic" operator="out" result="composite1"/>
<feGaussianBlur in="composite1" result="blur"/>
<feOffset dx="0" dy="1" result="offset"/>
<feComposite in="offset" in2="fbSourceGraphic" operator="atop" result="composite2"/>
</filter>
</defs>
<rect x="4" y="4" width="40" height="40" rx="5.4466" ry="5.4466" color="#000000" fill="#d3d7cf" fill-opacity=".99608" fill-rule="evenodd" filter="url(#filter959)" stroke-width="2.5"/>
<path d="m18 6-2.563 8.7579-0.28919 1.1754c-0.02612 0.11194-0.03946 0.20668-0.03946 0.28418-1.1e-5 0.13779 0.04381 0.25834 0.13143 0.36169 0.0701 0.0775 0.15771 0.11626 0.26289 0.11626 0.1139 0 0.26288-0.06889 0.44688-0.20669 0.34172-0.24974 0.79736-0.7664 1.3669-1.55l0.44689 0.31002c-0.60461 0.8956-1.2267 1.5801-1.8664 2.0539-0.63968 0.46501-1.2311 0.69751-1.7744 0.69751-0.37679 0-0.66159-0.09473-0.85434-0.28419-0.184-0.18084-0.27601-0.4478-0.276-0.80088-1.1e-5 -0.42196 0.09638-0.9774 0.28914-1.6663l0.27601-0.96879c-1.1479 1.4726-2.2039 2.5016-3.1674 3.0871-0.69221 0.42196-1.3713 0.63294-2.0371 0.63294-0.63964 0-1.1917-0.25834-1.6561-0.77504-0.4644-0.5253-0.6966-1.2443-0.6966-2.1571 0-1.3692 0.41621-2.8116 1.2486-4.3271 0.84116-1.5243 1.9059-2.7429 3.1939-3.6556 1.0077-0.72334 1.9584-1.085 2.8521-1.085 0.5345 1.19e-5 0.977 0.13779 1.3275 0.41336 0.35924 0.27559 0.63089 0.73199 0.81491 1.3692l0.47319-1.4726 2.0899-0.31001m-4.6791 0.67169c-0.56078 1.1e-5 -1.1566 0.25836-1.7876 0.77504-0.89376 0.73199-1.6911 1.817-2.3921 3.255-0.69221 1.4381-1.0383 2.7384-1.0383 3.9009-2.9e-6 0.58558 0.14896 1.0506 0.44689 1.3951 0.29794 0.33586 0.63964 0.50376 1.0252 0.50376 0.9551 0 1.9934-0.6932 3.115-2.0796 1.4983-1.8429 2.2476-3.733 2.2476-5.6706-6e-6 -0.73196-0.1446-1.2616-0.43374-1.5889-0.28914-0.32721-0.68346-0.49086-1.1829-0.49086" filter="url(#filter947)" stroke-width="2.784"/>
<path d="m22.086 20.228v6.6801c0.75601-0.85437 1.5267-1.5059 2.3121-1.9544 0.78547-0.4592 1.7574-0.68883 2.916-0.68887 1.3353 1.6e-5 2.5037 0.3471 3.5053 1.0413 1.0113 0.68353 1.7919 1.6821 2.3416 2.9957 0.55964 1.303 0.83946 2.8516 0.83947 4.6457-1.8e-5 1.3243-0.1571 2.5417-0.47129 3.6526-0.30438 1.1-0.75111 2.0559-1.3402 2.8676-0.58913 0.81167-1.3059 1.4417-2.1503 1.8903-0.83459 0.43787-1.7574 0.65682-2.7687 0.65682-0.61857 0-1.2028-0.08009-1.7526-0.24029-0.54002-0.1602-1.0015-0.36846-1.3844-0.62477-0.38291-0.26699-0.71186-0.53933-0.98676-0.81702-0.2651-0.27767-0.61857-0.69418-1.0604-1.2495v0.43254c-7e-6 0.82234-0.18166 1.4471-0.54491 1.8743-0.3633 0.41652-0.82474 0.62476-1.3844 0.62476-0.56949 0-1.026-0.20827-1.3697-0.62476-0.33383-0.42718-0.50076-1.052-0.50076-1.8743v-19.096c-3e-6 -0.88639 0.16201-1.5539 0.48603-2.0024 0.33381-0.4592 0.79527-0.68883 1.3844-0.68887 0.61857 2.3e-5 1.0948 0.21896 1.4286 0.65681 0.33381 0.42723 0.50076 1.0413 0.50076 1.8423m0.19147 12.992c-5e-6 1.7409 0.36327 3.0813 1.0898 4.0207 0.73638 0.92916 1.6986 1.3937 2.8866 1.3937 1.0113 4e-6 1.8801-0.47526 2.6069-1.4258 0.73637-0.96117 1.1046-2.3334 1.1046-4.117-1.7e-5 -1.1534-0.15221-2.1467-0.45656-2.9797-0.3044-0.833-0.73641-1.4739-1.2961-1.9224-0.55966-0.4592-1.2126-0.68883-1.9587-0.68887-0.76586 1.2e-5 -1.4483 0.22963-2.0471 0.68887-0.59894 0.44856-1.0702 1.1054-1.4138 1.9704-0.34366 0.85437-0.51547 1.8743-0.51547 3.0596" filter="url(#filter935)" stroke-width="2.7144"/>
<path d="m40 12.789c-5e-6 0.19641-0.0146 0.48446-0.0441 0.86416-0.0146 0.36661-0.02204 0.63504-0.02204 0.80524h-3.0851v-2.4159c-6e-6 -0.47136-0.29386-0.70704-0.88154-0.70704-0.58769 1.1e-5 -0.88154 0.2357-0.88154 0.70704v7.7579c-6e-6 0.48446 0.29386 0.72669 0.88154 0.72669 0.58768 2e-6 0.88151-0.24221 0.88154-0.72669v-2.573h3.0851v2.514c-1e-5 0.7725-0.47016 1.3617-1.4105 1.7676-0.74931 0.32731-1.6014 0.491-2.5564 0.491-0.9697 0-1.8219-0.16367-2.5564-0.491-0.9403-0.4059-1.4105-0.9951-1.4105-1.7676v-7.5614c0-1.4534 1.3223-2.18 3.9669-2.18 1.3223 1.19e-5 2.292 0.17677 2.9091 0.53029 0.74929 0.43209 1.124 1.1849 1.124 2.2586" filter="url(#filter923)" stroke-width="2.6684"/>
</svg>
