<svg width="48" height="48" version="1" xmlns="http://www.w3.org/2000/svg">
<defs>
<filter id="filter933" color-interpolation-filters="sRGB">
<feFlood flood-color="rgb(0,0,0)" flood-opacity=".2" result="flood"/>
<feComposite in="flood" in2="SourceGraphic" operator="in" result="composite1"/>
<feGaussianBlur in="composite1" result="blur"/>
<feOffset dx="0" dy="1" result="offset"/>
<feComposite in="SourceGraphic" in2="offset" result="composite2"/>
</filter>
<filter id="filter945" color-interpolation-filters="sRGB">
<feFlood flood-color="rgb(0,0,0)" flood-opacity=".2" result="flood"/>
<feComposite in="flood" in2="SourceGraphic" operator="in" result="composite1"/>
<feGaussianBlur in="composite1" result="blur"/>
<feOffset dx="0" dy="1" result="offset"/>
<feComposite in="SourceGraphic" in2="offset" result="composite2"/>
</filter>
<filter id="filter957" color-interpolation-filters="sRGB">
<feFlood flood-color="rgb(0,0,0)" flood-opacity=".2" result="flood"/>
<feComposite in="flood" in2="SourceGraphic" operator="in" result="composite1"/>
<feGaussianBlur in="composite1" result="blur"/>
<feOffset dx="0" dy="1" result="offset"/>
<feComposite in="SourceGraphic" in2="offset" result="composite2"/>
</filter>
<filter id="filter969" color-interpolation-filters="sRGB">
<feFlood flood-color="rgb(0,0,0)" flood-opacity=".2" result="flood"/>
<feComposite in="flood" in2="SourceGraphic" operator="in" result="composite1"/>
<feGaussianBlur in="composite1" result="blur"/>
<feOffset dx="0" dy="1" result="offset"/>
<feComposite in="SourceGraphic" in2="offset" result="composite2"/>
</filter>
<filter id="filter981" color-interpolation-filters="sRGB">
<feFlood flood-color="rgb(0,0,0)" flood-opacity=".2" result="flood"/>
<feComposite in="flood" in2="SourceGraphic" operator="in" result="composite1"/>
<feGaussianBlur in="composite1" result="blur"/>
<feOffset dx="0" dy="1" result="offset"/>
<feComposite in="SourceGraphic" in2="offset" result="composite2"/>
</filter>
<filter id="filter1000" color-interpolation-filters="sRGB">
<feFlood flood-color="rgb(255,255,255)" flood-opacity=".10196" result="flood"/>
<feComposite in="flood" in2="SourceGraphic" operator="out" result="composite1"/>
<feGaussianBlur in="composite1" result="blur"/>
<feOffset dx="0" dy="1" result="offset"/>
<feComposite in="offset" in2="SourceGraphic" operator="atop" result="composite2"/>
</filter>
</defs>
<g filter="url(#filter1000)" stroke-width="2.25">
<path d="m23.057 6.0027c-0.37973 0.025983-0.74883 0.084793-1.1218 0.12747h-0.0255l-0.89236 4.8693c-1.4545 0.3312-2.8217 0.89221-4.0528 1.656l-4.005-2.88c-1.0821 0.84002-2.0657 1.8199-2.9308 2.8811l2.7778 4.0535c-0.8438 1.2894-1.4773 2.7619-1.8346 4.3085-6.1e-5 0.0073-5e-5 0.02422 0 0.02549l-4.8434 0.76484c-0.088565 0.72333-0.12825 1.4709-0.12825 2.218 0 0.6113 0.016884 1.2144 0.076487 1.8101l4.8442 0.8668c0.34452 1.6822 0.99902 3.253 1.9122 4.6399l-2.8811 3.9514c0.82511 1.0243 1.7777 1.9568 2.8047 2.7787l4.0792-2.8044c1.4257 0.90939 3.0171 1.547 4.7422 1.8611l0.76487 4.8185c0.54352 0.04949 1.1009 0.05098 1.6573 0.05098 0.78544 0 1.5357-0.02977 2.2945-0.12746l0.91785-4.9204c1.6379-0.40756 3.1765-1.1146 4.5129-2.065l3.9262 2.8552c1.0182-0.86625 1.9494-1.8619 2.7535-2.9317l-2.8555-4.1302c0.77333-1.3355 1.3092-2.809 1.5807-4.3851l4.8186-0.76484c0.04225-0.50283 0.05098-0.99048 0.05098-1.5041 0-0.89267-0.10378-1.7679-0.22947-2.6261l-4.8952-0.89229c-0.38362-1.4165-1.0131-2.7381-1.8103-3.9261l2.8811-3.9514c-0.89303-1.0921-1.9117-2.1008-3.034-2.9573l-4.1557 2.8552c-1.1944-0.70635-2.4797-1.2483-3.8754-1.5552l-0.76487-4.8438c-0.69618-0.081884-1.3981-0.12747-2.1161-0.12747-0.19408 3e-7 -0.39379-0.00611-0.5864 0-0.09389 0.00296-0.18681-0.00546-0.28047 0-0.02537 0.00148-0.05118-0.00173-0.07649 0zm0.6629 12.39c0.09316-0.0047 0.18614 0 0.28047 0 3.0179 0 5.4819 2.4635 5.4819 5.4813 0 3.0178-2.4635 5.4557-5.4819 5.4557-3.0179 1e-6 -5.4561-2.4379-5.4561-5.4557 2e-6 -2.9235 2.2882-5.3348 5.1759-5.4813z" color="#000000" fill="#729fcf" filter="url(#filter981)"/>
<ellipse cx="24.004" cy="23.863" rx="6.2984" ry="6.2978" color="#000000" fill="none" filter="url(#filter969)" opacity=".64773"/>
<path d="m22.492 6.9664-0.7165 4.7145c-1.3633 0.31045-3.8711 1.26-5.0249 1.9759l-3.8117-2.845c-1.0143 0.78741-1.0838 0.8408-1.8949 1.8353l2.7561 4.0871c-0.79094 1.2086-1.7409 3.3624-2.0819 4.9014l-4.8294 0.81406c-0.083015 0.678-0.04312 2.1291 0.012766 2.6874l4.6133 0.83098c0.32292 1.5767 1.5314 4.1147 2.3872 5.4144l-2.9171 3.8538c0.7734 0.96007 0.92818 1.0479 1.8907 1.8184l3.9009-2.8576c1.3363 0.8524 3.9888 1.8893 5.6056 2.1836l0.64019 4.6552c0.50944 0.04637 1.9169 0.17644 2.6283 0.08486l0.7165-4.846c1.5353-0.38205 4.1879-1.4709 5.4406-2.3616l3.8965 2.8152c0.95441-0.81194 0.96296-0.93429 1.7168-1.9372l-2.8875-4.104c0.72488-1.2518 1.6621-3.7 1.9167-5.1771l4.7278-0.78439c0.0396-0.47133 0.04153-1.7856-0.07631-2.5897l-4.8167-0.83098c-0.35957-1.3277-1.5936-3.7201-2.3407-4.8339l3.0613-3.8538c-0.83705-1.0236-1.1483-1.1641-2.2002-1.9669l-4.0323 2.8872c-1.1196-0.66208-3.352-1.6714-4.6602-1.959l-0.71231-4.6127c-0.65254-0.076755-2.5354-0.042671-2.9081 0z" color="#000000" fill="none" filter="url(#filter957)" opacity=".34659"/>
<path d="m12.959 9.7755c-1.0821 0.84002-2.0591 1.8413-2.9419 2.9023l2.7889 4.0323c-0.8438 1.2828-1.6632 3.0802-1.8151 4.3335l-4.8629 0.76514c-0.055353 0.45208-0.12825 1.5732-0.12825 1.5732l0.14187 1.2539c0.34326 0.07088 0.67424 0.13684 1.0282 0.17554l0.40126-1.2288c0.27611 0.02286 0.54544 0.05015 0.8276 0.05015 0.28187 0 0.57658-0.02714 0.85269-0.05015l0.37619 1.2288c0.35416-0.03871 0.71006-0.10465 1.0533-0.17554v-1.2539c0.55035-0.12809 1.069-0.31115 1.58-0.52661l0.75239 1.0282c0.32291-0.14613 0.62246-0.3016 0.92793-0.47646l-0.40126-1.2037c0.4793-0.2907 0.93235-0.63824 1.3543-1.0031l1.0282 0.75232c0.26135-0.238 0.51453-0.49099 0.75239-0.75232l-0.75239-1.0031c0.36503-0.42191 0.68736-0.87461 0.97808-1.3542l1.2038 0.37615c0.17489-0.30563 0.35576-0.60515 0.50158-0.92786l-1.0282-0.75232c0.21546-0.51098 0.37317-1.0296 0.50158-1.5799h1.279c0.07089-0.34325 0.11192-0.69914 0.15048-1.0532l-1.2038-0.37615c0.02316-0.27593 0.05015-0.57063 0.05015-0.85262 0-0.28199-0.0273-0.5513-0.05015-0.82756l1.2038-0.37615c-0.03655-0.33695-0.08474-0.67568-0.15048-1.0031-0.92084 0.32043-1.579 0.6796-2.3943 1.1854z" color="#000000" fill="#fff" filter="url(#filter945)" opacity=".5"/>
<path d="m35.394 17.505c-0.34018 0.17173-0.66178 0.36525-0.98686 0.56387l0.50492 1.6426c-0.61788 0.39987-1.2008 0.87079-1.7442 1.3729l-1.3082-1.0297c-0.33689 0.32752-0.65747 0.66995-0.96392 1.0297l0.96392 1.3975c-0.47006 0.58068-0.91076 1.2034-1.2852 1.8631l-0.48196-0.17161c-0.04229 0.66304-0.20952 1.2891-0.459 1.8631l0.0918 0.07355c-0.27756 0.70318-0.50039 1.449-0.66556 2.2065h-1.3082c-0.12078 0.08092-0.2398 0.17521-0.3672 0.24516-0.06947 0.3932-0.11959 0.77387-0.16066 1.1768l1.5606 0.53937c-0.02959 0.37993-0.04589 0.76427-0.04589 1.1523 0 0.38812 0.0162 0.77232 0.04589 1.1523l-1.5606 0.53937c0.04967 0.48737 0.11522 0.97398 0.20656 1.4465l1.6296-0.02441c0.11357 0.52074 0.30377 1.1013 0.47123 1.5973 0.65146-0.28957 1.2712-0.6494 1.8697-1.0334-0.36484-1.1514-0.57376-2.3947-0.57376-3.6774 2e-6 -4.9215 2.9182-9.1241 6.9998-10.738l-0.96393-0.17162c-0.19745-0.77891-0.45319-1.5421-0.78032-2.2554-0.0097-0.02095-0.01302-0.05263-0.02286-0.07355l-0.0459-0.04904z" color="#000000" fill="#fff" filter="url(#filter933)" opacity=".5"/>
</g>
</svg>
