<svg width="48" height="48" version="1" xmlns="http://www.w3.org/2000/svg" xmlns:xlink="http://www.w3.org/1999/xlink">
<defs>
<linearGradient id="linearGradient897" x1="12.207" x2="12.128" y1="53.535" y2="64.893" gradientTransform="matrix(2.4112 0 0 .9957 -5.1942 -22.484)" gradientUnits="userSpaceOnUse">
<stop stop-color="#585956" offset="0"/>
<stop stop-color="#bbbeb8" offset="1"/>
</linearGradient>
<filter id="filter945" color-interpolation-filters="sRGB">
<feFlood flood-color="rgb(0,0,0)" flood-opacity=".2" result="flood"/>
<feComposite in="flood" in2="SourceGraphic" operator="in" result="composite1"/>
<feGaussianBlur in="composite1" result="blur"/>
<feOffset dx="0" dy="1" result="offset"/>
<feComposite in="SourceGraphic" in2="offset" result="fbSourceGraphic"/>
<feColorMatrix in="fbSourceGraphic" result="fbSourceGraphicAlpha" values="0 0 0 -1 0 0 0 0 -1 0 0 0 0 -1 0 0 0 0 1 0"/>
<feFlood flood-color="rgb(255,255,255)" flood-opacity=".10196" in="fbSourceGraphic" result="flood"/>
<feComposite in="flood" in2="fbSourceGraphic" operator="out" result="composite1"/>
<feGaussianBlur in="composite1" result="blur"/>
<feOffset dx="0" dy="1" result="offset"/>
<feComposite in="offset" in2="fbSourceGraphic" operator="atop" result="composite2"/>
</filter>
<filter id="filter1127" color-interpolation-filters="sRGB">
<feFlood flood-color="rgb(0,0,0)" flood-opacity=".2" result="flood"/>
<feComposite in="flood" in2="SourceGraphic" operator="in" result="composite1"/>
<feGaussianBlur in="composite1" result="blur"/>
<feOffset dx="0" dy="0.7" result="offset"/>
<feComposite in="SourceGraphic" in2="offset" result="composite2"/>
</filter>
</defs>
<ellipse cx="23.997" cy="39.02" rx="10" ry="3.9804" color="#000000" fill="#adb0aa" fill-rule="evenodd" stroke-width="2.6309"/>
<ellipse cx="23.996" cy="37.681" rx="9.0222" ry="3.2946" color="#000000" fill="none" stroke-width="2.6307"/>
<g fill-rule="evenodd">
<rect x="18" y="33.045" width="12" height="4.9554" color="#000000" fill="url(#linearGradient897)" stroke-width="2.7264"/>
<path d="m5.6863 4c-1.1306 0-1.6836 0.64812-1.6837 1.4494v26.461c-0.058814 1.1563 0.90852 2.09 2.0392 2.09h35.907c1.1306 0 2.0979-0.93377 2.0392-2.09l0.011857-26.461c-0.043182-0.84636-0.76322-1.4494-1.6838-1.4494h-36.632z" color="#000000" fill="#dde1d9" filter="url(#filter945)" stroke-width="2.4998"/>
<path d="m7 7-4.86e-5 22h34v-21.906z" fill="#babdb6" stroke-width="2.4366"/>
<path d="m14.088 39.516a10 3.9804 0 0 0-0.08984 0.50391 10 3.9804 0 0 0 10 3.9805 10 3.9804 0 0 0 10-3.9805 10 3.9804 0 0 0-0.0918-0.49609 10 3.9804 0 0 1-9.9082 3.4766 10 3.9804 0 0 1-9.9102-3.4844z" color="#000000" fill-opacity=".2" stroke-width="2.6309"/>
</g>
<g transform="matrix(1.4196 0 0 1.426 -56.005 3.1347)" filter="url(#filter1127)">
<g transform="matrix(1.4001,0,0,1.4001,38.904,-1.4897)" stroke-width="1.2854">
<path d="m7.4333 3s0.16429 4.6614 0.16429 5.094c0 0.40001-0.37788 1.0612 0.13143 1.0612 0.47644 0 0.09858-0.67756 0.13143-1.0612 0.03007-0.35127 0.09858-2.547 0.09858-2.547s0.36144 0.048986 0.52573-0.42449c0.16429-0.47348 0.13143-1.4694 0.13143-1.4694l0.26286 0.39185c0.52573 3.4613 0.28164 5.6655 0.29573 5.9266 0.01221 0.22858-0.37808 1.2572 0.16429 1.2572 0.69024 0 0.18797-1.0001 0.19715-1.2408 0.0098-0.25707 0.0795-2.147 0.46002-4.3756 0.57767 0.84083 0.21837-0.7837 0.87552 2.6776l8.1276 0.71838c-0.13143-3.4613-1.5869-5.9828-2.5702-5.9899l-8.9958-0.018439z" color="#000000" fill="#204a87"/>
<path d="m11.574 12.016h7.4251s0.1071-2.5672-0.60686-3.2065c-0.67737-0.60663-1.6421-0.47113-1.6421-0.47113l-0.0357 0.26922s-0.35698-0.23557-0.99954-0.26922c-0.64256-0.03366-1.1066 0.03366-1.1066 0.03366l0.21419 0.20191s-0.89243-0.33652-1.7492-0.33652c-0.85675 0-1.0352 0.03366-1.0352 0.03366l0.32128 0.16826s-0.71396-0.30286-1.2851-0.30286-1.0709 0.23557-1.0709 0.23557 0.82105 0.40383 1.1423 0.94226c0.32128 0.53843 0.14279 2.7018 0.14279 2.7018z" color="#000000" fill="#6a6352"/>
<path d="m11.289 12v2.016c0 0.55471 0.4244 1.0055 0.94663 1.0055h1.6236c-0.13178 1.4031-0.42684 3.0042-0.36144 4.2235 0.04096 0.76377 0.66392 1.7863 1.6523 1.7863 0.88517 0 1.5217-0.91645 1.5834-1.8282 0.06885-1.0168-0.11328-2.7759-0.30407-4.1816h1.6236c0.52223 0 0.94663-0.45078 0.94663-1.0055v-1.9847z" color="#000000" fill="#e5d28f"/>
</g>
<path d="m64.104 15.333v1.0121c0 0.21629-0.27073 0.3904-0.60698 0.3904h-7.2387c-0.33627 0-0.60698-0.17411-0.60698-0.3904v-1.0121h8.4528z" color="#000000" fill="#e7e5e0" stroke-width="1.7216"/>
</g>
</svg>
