<svg width="48" height="48" version="1" xmlns="http://www.w3.org/2000/svg">
<defs>
<filter id="filter950" color-interpolation-filters="sRGB">
<feFlood flood-color="rgb(0,0,0)" flood-opacity=".2" result="flood"/>
<feComposite in="flood" in2="SourceGraphic" operator="in" result="composite1"/>
<feGaussianBlur in="composite1" result="blur"/>
<feOffset dx="0" dy="1" result="offset"/>
<feComposite in="SourceGraphic" in2="offset" result="composite2"/>
</filter>
<filter id="filter1022" color-interpolation-filters="sRGB">
<feFlood flood-color="rgb(0,0,0)" flood-opacity=".2" result="flood"/>
<feComposite in="flood" in2="SourceGraphic" operator="in" result="composite1"/>
<feGaussianBlur in="composite1" result="blur"/>
<feOffset dx="0" dy="0.5" result="offset"/>
<feComposite in="SourceGraphic" in2="offset" result="composite2"/>
</filter>
</defs>
<g fill-rule="evenodd">
<path d="m7.9657 18.402c-0.03502-0.02823 1.3757 20.315 1.3761 20.321 0.13234 2.0315 1.2433 2.7741 2.4869 2.7771 0.04443 1.04e-4 23.327-0.0026 23.825-0.0048 2.0941-9e-3 2.6071-1.3019 2.7449-2.7147 0.011-0.02784 1.4211-20.351 1.4321-20.377h-31.864z" fill="#b5c051" filter="url(#filter950)" stroke="#b5c051" stroke-width=".99975"/>
<path d="m10.907 8.56c-0.82946 0.00191-1.5236 0.021285-1.9018 0.8188-0.065721 0.13861-2.0689 5.7641-2.1653 5.9787-0.82452 1.8366-0.064145 4.1502 1.5284 4.1346 0.30286-0.0028 31.38 0.01434 31.864 0 1.3556-0.03965 1.5291-2.7187 0.94557-3.924-0.033058-0.068277-2.7417-6.2661-2.8107-6.3759-0.3195-0.49027-1.035-0.70514-1.5665-0.68502-0.10469 0.00406-25.791 0.052455-25.893 0.052693z" fill="#eff3f4" stroke="#eff3f4" stroke-width="1.0012"/>
<g transform="matrix(1.9999 0 0 2.0371 2.0036 1.9198)" stroke-width=".39992">
<path d="m4.5237 4.0029c-0.39118-0.00513-0.41667-0.02046-0.50472 0.26022-0.020327 0.064794-0.8393 2.6157-0.87139 2.7147-0.10917 0.33663 0.045206 0.42549 0.42406 0.41864 0.13421-0.00242 14.833 0 15.047 0 0.30334 0 0.39333-0.10132 0.3248-0.34044-0.02785-0.097163-1.168-2.8207-1.1986-2.8693-0.14161-0.21662-0.11705-0.21599-0.36439-0.21904-0.046433-5.718e-4 -12.811 0.03583-12.856 0.035228z" color="#000000" display="block" fill="#575955"/>
<path d="m4.3136 4.0016c-0.1473 0.011401-0.21815 0.055652-0.2798 0.25218-0.020327 0.064794-0.83838 2.6119-0.87051 2.7109-0.10917 0.33663 0.035654 0.42714 0.41452 0.42029 0.00656-1.176e-4 0.77579 9.74e-5 0.84863 0z" color="#000000" display="block" fill="#2e3436"/>
<path d="m17.401 3.9666c0.17903 0.00155 0.2316-0.00209 0.34605 0.21726 0.01565 0.029997 1.1416 2.7356 1.1821 2.8346 0.13749 0.38139-0.12437 0.37342-0.53967 0.38448-0.0789-1.18e-4 -1.0123-0.00885-1.104-0.00895z" color="#000000" display="block" fill="#babdb6"/>
</g>
<g transform="matrix(1.9867 0 0 1.9867 2.2483 1.9667)" fill="#fff" filter="url(#filter1022)" stroke-width=".39992">
<path d="m10.915 12.898 2.1415 0.16566 0.8281-2.044-0.97982 0.6982s-0.42012-0.99353-0.72209-1.0734c-0.30196-0.07987-1.5903-0.05325-1.5903-0.05325 0.40976 0.10275 0.72825 0.81667 0.73313 0.82476 0.12784 0.2115 0.4857 0.92318 0.4857 0.92318z" fill-opacity=".4881"/>
<path d="m11.18 11.484-0.70887 1.3711-1.4573-0.9318s0.66081-1.2646 1.1816-1.2646c0.52518 0 0.75986 0.45899 0.98458 0.82533z" color="#000000" fill-opacity=".30952"/>
<path d="m12.224 14.739-1.3807 1.673 1.3176 1.7251 0.02437-1.0866s0.97048 0.09286 1.1932-0.12875c0.22274-0.22161 1.1494-1.339 1.1494-1.339-0.2975 0.30363-1.0652 0.2138-1.0745 0.21389-0.24464 0.0025-1.2129-0.02039-1.2129-0.02039z" fill-opacity=".4881"/>
<path d="m13.519 15.606-0.79581-1.3211 1.5372-0.78876s0.73039 1.2246 0.46282 1.6776c-0.26986 0.45682-0.77881 0.42509-1.2042 0.4323z" color="#000000" fill-opacity=".30952"/>
<path d="m9.8094 14.642-0.68158-1.82-1.9875 0.14241 0.81586 0.6026s-0.56346 0.80652-0.4851 1.1128c0.078337 0.30628 0.52029 1.5752 0.52029 1.5752-0.11116-0.41288 0.34854-1.0427 0.35313-1.051 0.11987-0.21624 0.6224-1.0557 0.6224-1.0557z" fill-opacity=".4881"/>
<path d="m8.4459 15.377 1.5263-0.04041-0.092485 1.7443s-1.4111 0.03105-1.6649-0.43004c-0.25588-0.46499 0.025073-0.8964 0.2311-1.2739z" color="#000000" fill-opacity=".30952"/>
</g>
</g>
<g fill-rule="evenodd" shape-rendering="auto">
<path d="m-31.312 8.082c0.085498-0.0020827 0.12704-0.019316 0.2207-0.019531h0.001953 0.019532c0.051439-1.114e-4 6.4862-0.012774 12.924-0.025391 3.2237-0.00632 6.4486-0.012466 8.873-0.017578 1.2122-0.00256 2.2248-0.0041493 2.9375-0.0058593 0.35633-8.563e-4 0.63794-0.0013831 0.83203-0.0019531 0.097047-2.891e-4 0.17063-0.0017432 0.22266-0.0019532 0.026014-1.06e-4 0.047938 8.86e-5 0.0625 0 0.0043686-2.66e-5 0.011316-1.852e-4 0.011719 0-0.0037116 1.259e-4 -0.0080172-0.0020932-0.011719-0.0019531 0.045463-0.00176 0.0054875-0.0020331-0.0078125-0.0019531-0.013301 8.09e-5 -0.032934 0.0018531-0.058594 0.0019531-0.051318 2.092e-4 -0.1258-2.885e-4 -0.22266 0-0.19372 5.77e-4 -0.47384 0.0011031-0.83008 0.0019531-0.71247 0.00171-1.7253 0.0032994-2.9375 0.0058594-2.4243 0.00511-5.6494 0.013213-8.873 0.019531-6.4473 0.012636-12.875 0.023275-12.945 0.023438-0.071854 1.654e-4 -0.14645 0.022754-0.21875 0.023437z" color="#000000" color-rendering="auto" dominant-baseline="auto" fill="#eff3f4" image-rendering="auto" solid-color="#000000" style="font-feature-settings:normal;font-variant-alternates:normal;font-variant-caps:normal;font-variant-ligatures:normal;font-variant-numeric:normal;font-variant-position:normal;isolation:auto;mix-blend-mode:normal;shape-padding:0;text-decoration-color:#000000;text-decoration-line:none;text-decoration-style:solid;text-indent:0;text-orientation:mixed;text-transform:none;white-space:normal"/>
<path d="m40.859 17.102c0.02215-0.08381 0.06459-0.12539 0.08008-0.2168 0.12234-0.72186 7e-3 -1.6415-0.21289-2.0957-0.03358-0.06936-0.02111-0.05-0.04297-0.09961s-0.05307-0.11882-0.0918-0.20703c-0.07745-0.17643-0.18657-0.42451-0.3164-0.7207-0.25967-0.59239-0.60239-1.3764-0.94727-2.1621s-0.69128-1.5732-0.95508-2.1699c-0.1319-0.29837-0.24417-0.54992-0.32422-0.72852-0.040025-0.089296-0.071328-0.16019-0.09375-0.20898-0.0057-0.012366-0.0094-0.018124-0.01367-0.027344-0.16989-0.254-0.72566-0.45434-1.1035-0.44727-0.01438 2.71e-4 -0.03068-0.0083-0.04492-0.00781-4.04e-4 -1.852e-4 -0.0073-2.66e-5 -0.01172 0-0.01456 8.86e-5 -0.03649-1.06e-4 -0.0625 0-0.05203 2.1e-4 -0.12561 0.00166-0.22266 0.00195-0.19409 5.7e-4 -0.4757 0.0011-0.83203 0.00195-0.71267 0.00171-1.7253 0.0033-2.9375 0.00586-2.4244 0.00511-5.6494 0.011258-8.873 0.017578-6.4376 0.012617-12.872 0.025279-12.924 0.025391h-0.02153c-0.09367 2.155e-4 -0.1352 0.017449-0.2207 0.019531-0.25305 0.00239-0.50867 0.032835-0.76562 0.082031-0.20579 0.069631-0.33088 0.1491-0.46484 0.43164 0.03084-0.065056-1.18e-4 0.00222-0.01758 0.048828-0.01746 0.046613-0.04189 0.11222-0.07227 0.19531-0.06077 0.16618-0.14498 0.39903-0.24414 0.67383-0.19831 0.54959-0.45821 1.2727-0.71875 1.998-0.26054 0.7253-0.52194 1.4531-0.72461 2.0137-0.10133 0.28026-0.18727 0.51724-0.25195 0.69336s-0.08409 0.24158-0.13086 0.3457c-0.35654 0.79421-0.36578 1.7158-0.12695 2.3887 0.01229 0.03463 0.03568 0.04705 0.04883 0.08008-0.02063-0.49779-0.1414-0.98171 0.07813-1.4707 0.04677-0.10412 0.06618-0.16958 0.13086-0.3457 0.06468-0.17612 0.15062-0.4131 0.25195-0.69336 0.20267-0.56053 0.46406-1.2884 0.72461-2.0137 0.26054-0.7253 0.52044-1.4485 0.71875-1.998 0.09916-0.2748 0.18337-0.50765 0.24414-0.67383 0.03038-0.083091 0.05481-0.1487 0.07227-0.19531 0.01746-0.046613 0.04842-0.11388 0.01758-0.048828 0.13893-0.29302 0.26222-0.37617 0.48242-0.44727 0.2202-0.071098 0.5576-0.084992 0.96875-0.085937h0.02153c0.05144-1.114e-4 6.4862-0.012774 12.924-0.025391 3.2237-0.00632 6.4486-0.012466 8.873-0.017578 1.2122-0.00256 2.2248-0.00415 2.9375-0.00586 0.35633-8.564e-4 0.63794-0.00138 0.83203-0.00195 0.09705-2.89e-4 0.17063-0.00174 0.22266-0.00195 0.02601-1.06e-4 0.04794 8.86e-5 0.0625 0s-0.0097 0.00189 0.03906 0c0.37798-0.014308 0.94846 0.19697 1.1211 0.45508 0.0043 0.00922 8e-3 0.014978 0.01367 0.027344 0.02242 0.048798 0.05373 0.11969 0.09375 0.20898 0.08005 0.17859 0.19232 0.43014 0.32422 0.72851 0.26379 0.59674 0.6102 1.3842 0.95508 2.1699s0.68759 1.5697 0.94727 2.1621c0.12984 0.2962 0.23895 0.54427 0.31641 0.7207 0.03873 0.08821 0.06993 0.15742 0.0918 0.20703 0.02186 0.04961 0.0094 0.03025 0.04297 0.09961 0.13792 0.28488 0.11 0.82705 0.13281 1.3145z" color="#000000" color-rendering="auto" dominant-baseline="auto" fill="#fff" fill-opacity=".1" image-rendering="auto" solid-color="#000000" style="font-feature-settings:normal;font-variant-alternates:normal;font-variant-caps:normal;font-variant-ligatures:normal;font-variant-numeric:normal;font-variant-position:normal;isolation:auto;mix-blend-mode:normal;shape-padding:0;text-decoration-color:#000000;text-decoration-line:none;text-decoration-style:solid;text-indent:0;text-orientation:mixed;text-transform:none;white-space:normal"/>
<path d="m6.0938 17.379c-0.0871 0.66788-0.07341 1.3292 0.13281 1.9102 0.33337 0.9392 1.107 1.7153 2.1465 1.7051-0.0041 3.6e-5 0.55199-1.74e-4 1.4316 0 0.87965 1.71e-4 2.1197 0.0015 3.6016 2e-3 2.9637 9.89e-4 6.8923 8.34e-4 10.826 2e-3 3.9339 0.0011 7.8729 0.0024 10.859 2e-3 1.4932-2.27e-4 2.7476-9.53e-4 3.6445-2e-3 0.89581-9.09e-4 1.3679 2.53e-4 1.5098-0.0039 0.50328-0.01472 0.9325-0.3018 1.1953-0.66797 0.26281-0.36617 0.40566-0.80899 0.48438-1.2734 0.04508-0.26601-0.08975-0.5008-0.08594-0.77344-0.0849 0.37477-0.18202 0.74729-0.39844 1.0488-0.26281 0.36617-0.69204 0.65325-1.1953 0.66797-0.14191 0.0042-0.61396 3e-3 -1.5098 0.0039-0.89697 1e-3 -2.1513 0.0017-3.6445 2e-3 -2.9865 4e-4 -6.9255-8.53e-4 -10.859-2e-3 -3.9339-0.0011-7.8625-9.64e-4 -10.826-2e-3 -1.4818-5e-4 -2.7219-0.0018-3.6016-2e-3 -0.87965-1.73e-4 -1.4357 3.7e-5 -1.4316 0-0.0022 2.2e-5 -0.0036-2e-3 -0.0059-2e-3 -2.22e-4 1e-6 -0.0037-2e-6 -0.0039 0-0.27655 0.0027-0.51549-0.0888-0.71484-0.26563-3.63e-4 -3.22e-4 3.63e-4 -0.0016 0-2e-3 -0.20221-0.08478-0.44603-0.08446-0.61328-0.22656-0.36502-0.31014-0.64191-0.73938-0.80859-1.209-0.09942-0.28008-0.09896-0.60258-0.13281-0.91211z" color="#000000" color-rendering="auto" dominant-baseline="auto" fill-opacity=".2" image-rendering="auto" solid-color="#000000" style="font-feature-settings:normal;font-variant-alternates:normal;font-variant-caps:normal;font-variant-ligatures:normal;font-variant-numeric:normal;font-variant-position:normal;isolation:auto;mix-blend-mode:normal;shape-padding:0;text-decoration-color:#000000;text-decoration-line:none;text-decoration-style:solid;text-indent:0;text-orientation:mixed;text-transform:none;white-space:normal"/>
</g>
</svg>
