<svg width="32" height="32" version="1.1" xmlns="http://www.w3.org/2000/svg">
<path d="m7.25 5c-0.6925 0-1.25 0.5575-1.25 1.25v22.5c0 0.692 0.5575 1.25 1.25 1.25h17.5c0.692 0 1.25-0.558 1.25-1.25v-15.75l-6.875-1.125-1.125-6.875z" opacity=".2"/>
<path d="m7.25 4c-0.6925 0-1.25 0.5575-1.25 1.25v22.5c0 0.692 0.5575 1.25 1.25 1.25h17.5c0.692 0 1.25-0.558 1.25-1.25v-15.75l-6.875-1.125-1.125-6.875z" fill="#e4e4e4"/>
<path d="m18 5v6.6667c0 0.736 0.597 1.333 1.333 1.333h6.667l-8-8z" opacity=".2"/>
<path d="m18 4v6.6667c0 0.736 0.597 1.333 1.333 1.333h6.667l-8-8z" fill="#fafafa"/>
<path d="m7.25 4c-0.6925 0-1.25 0.5575-1.25 1.25v1c0-0.6925 0.5575-1.25 1.25-1.25h10.75v-1z" fill="#fff" opacity=".2"/>
<path d="m21.758 16.748-7.0214 0.98538v6.666c-0.52958-0.17333-1.3005-0.21863-2.1067-0.05829-1.4016 0.2788-2.5289 1.0256-2.3751 1.6609 0.15375 0.63539 1.542 0.92957 2.9436 0.65076 1.3245-0.26346 2.5796-0.94418 2.5533-1.5542l0.0044-5.9153 4.981-0.89994v5.3726c-3.2978-0.46623-4.0001 0.89933-3.8462 1.5346 0.15375 0.63539 1.1735 0.92957 2.5752 0.65076 1.2438-0.24737 2.1952-0.85883 2.2833-1.4376z" color="#000000" display="block" fill="#2470b2" stroke="#2470b2" stroke-linecap="round" stroke-linejoin="round" stroke-width=".48328"/>
</svg>
