<svg width="32" height="32" version="1.1" xmlns="http://www.w3.org/2000/svg">
<defs>
<filter id="filter847" color-interpolation-filters="sRGB">
<feFlood flood-color="rgb(0,0,0)" flood-opacity=".2" result="flood"/>
<feComposite in="flood" in2="SourceGraphic" operator="in" result="composite1"/>
<feGaussianBlur in="composite1" result="blur"/>
<feOffset dx="0" dy="1" result="offset"/>
<feComposite in="SourceGraphic" in2="offset" result="composite2"/>
</filter>
</defs>
<path d="M 7.25,5 C 6.5575,5 6,5.5575 6,6.25 v 22.5 C 6,29.442 6.5575,30 7.25,30 h 17.5 C 25.442,30 26,29.442 26,28.75 V 13 L 19.125,11.875 18,5 Z" opacity=".2"/>
<path d="m7.25 4c-0.6925 0-1.25 0.5575-1.25 1.25v22.5c0 0.692 0.5575 1.25 1.25 1.25h17.5c0.692 0 1.25-0.558 1.25-1.25v-15.75l-6.875-1.125-1.125-6.875z" fill="#fe9700"/>
<path d="m18 5v6.6667c0 0.736 0.597 1.333 1.333 1.333h6.667l-8-8z" opacity=".2"/>
<path d="m18 4v6.6667c0 0.736 0.597 1.333 1.333 1.333h6.667l-8-8z" fill="#ffbd63"/>
<path d="m7.25 4c-0.6925 0-1.25 0.5575-1.25 1.25v1c0-0.6925 0.5575-1.25 1.25-1.25h10.75v-1z" fill="#fff" opacity=".2"/>
<path d="m21.718 14.039-8.1916 1.1496v7.777c-0.61784-0.20222-1.5172-0.25507-2.4578-0.068-1.6352 0.32526-2.9504 1.1965-2.7709 1.9377 0.17937 0.74129 1.799 1.0845 3.4342 0.75922 1.5452-0.30737 3.0095-1.1015 2.9788-1.8132l0.0051-6.9012 5.8112-1.0499v6.268c-3.8474-0.54393-4.6668 1.0492-4.4872 1.7904 0.17938 0.74129 1.3691 1.0845 3.0044 0.75922 1.4511-0.2886 2.5611-1.002 2.6638-1.6772z" color="#000000" display="block" fill="#fff" filter="url(#filter847)" stroke="#fff" stroke-linecap="round" stroke-linejoin="round" stroke-width=".56382"/>
</svg>
