<svg width="24" height="24" version="1.1" xmlns="http://www.w3.org/2000/svg">
<defs>
<style id="current-color-scheme" type="text/css">.ColorScheme-Text { color:#dfdfdf; } .ColorScheme-Highlight { color:#4285f4; }</style>
</defs>
<g transform="translate(3.9996 4)">
<g fill="#dfdfdf" fill-rule="evenodd">
<g transform="translate(-7.9996,6.1584e-5)">
<path d="m20 7.9999v6.1745-0.08091c0.03848 0.57611-0.4132 1.0274-0.9196 0.93266l-4.4935-0.79154c-0.20875-0.03677-0.75407-0.20136-0.57584-0.79153l-0.94948-0.20528c-0.29779 1.0004 0.54842 1.7064 1.1792 1.8347l4.6753 0.89809c1.1296 0.2114 2.1379-0.75295 2.084-1.809-4.38e-4 -0.0087 5.71e-4 -0.01697 0-0.02566l-1e-6 -6.1359z" color="#000000" stroke-width="1.131"/>
<circle cx="20.5" cy="8" r="1" color="#000000" stroke-width="1.1221"/>
</g>
<path d="m7.8594 1.002c-1.2976-0.054941-2.5101 0.7874-2.8652 2.0723l-1.3574 4.9082h0.4707l0.11719-0.40039 1.8711 0.40039h3.7109l-1.8887-0.45508c-0.20112-0.05395-0.38913-0.13267-0.3125-0.37305 0.07772-0.24377 0.23365-0.25724 0.4668-0.21875l3.4453 0.79688c0.16829 0.046518 0.32161 0.14251 0.46289 0.25h1.166l0.75391-2.7266c0.4058-1.4684-0.46886-2.9449-1.9609-3.3105l-3.5215-0.86328c-0.18651-0.045705-0.37323-0.072229-0.55859-0.080078zm-2.5059 2.4316 2.0312 0.39648c0.16839 0.05132 0.34992 0.15662 0.28516 0.40039-0.06401 0.24091-0.2581 0.26812-0.43945 0.2168l-2.0469-0.43555zm3.4707 0.68164 3.4453 0.79492c0.55698 0.15396 0.85547 0.61328 0.85547 0.61328l-0.16992 0.65625s-0.38866-0.55361-0.88086-0.65625l-3.4062-0.81836c-0.20112-0.05395-0.38718-0.13462-0.31055-0.375 0.07772-0.24377 0.23365-0.25333 0.4668-0.21484zm-3.8477 0.70117 2.0352 0.39648c0.16839 0.051319 0.34797 0.15467 0.2832 0.39844-0.064 0.24091-0.26006 0.26812-0.44141 0.2168l-2.0449-0.43555zm3.4727 0.70703 3.4453 0.79688c0.55698 0.15396 0.85547 0.64258 0.85547 0.64258l-0.18359 0.61523s-0.37499-0.53993-0.86719-0.64258l-3.4062-0.82031c-0.20112-0.05395-0.38718-0.13267-0.31055-0.37305 0.07772-0.24377 0.23365-0.25724 0.4668-0.21875zm-3.8613 0.67383 2.0352 0.41211c0.16839 0.05132 0.34797 0.15467 0.2832 0.39844-0.064 0.24091-0.26006 0.27008-0.44141 0.21875l-2.0449-0.45117z" color="#000000" opacity=".3" stroke-width="1.0991"/>
<path d="m7.8594 1.002c-0.17788-0.007532-0.35268 0.00627-0.52539 0.03125h0.74414c-0.072899-0.0087-0.14617-0.028176-0.21875-0.03125zm-4.2363 7.0312-0.52344 1.8926c-0.40579 1.4684 0.46886 2.9449 1.9609 3.3105l3.5215 0.86328c1.4921 0.36564 3.018-0.52376 3.4238-1.9922l1.127-4.0742h-1.0918c0.29173 0.23954 0.5 0.51953 0.5 0.51953l-0.16797 0.6543s-0.55858-0.75673-1.0508-0.85938l-1.3047-0.31445h-3.7285c0.15842 0.054404 0.31653 0.15247 0.25586 0.38086-0.064 0.24091-0.2581 0.27203-0.43945 0.2207l-2.0488-0.47461 0.03711-0.12695zm4.0215 0.31445 3.4453 0.79492c0.55698 0.15396 1.0234 0.82227 1.0234 0.82227l-0.16797 0.6543s-0.55858-0.7587-1.0508-0.86133l-3.4043-0.81836c-0.20112-0.05395-0.38718-0.13462-0.31055-0.375 0.077719-0.24377 0.23169-0.25529 0.46484-0.2168zm-3.8223 0.61719 2.0352 0.43555c0.16839 0.05132 0.34992 0.15271 0.28516 0.39648-0.064 0.24091-0.2581 0.27008-0.43945 0.21875l-2.0469-0.47461zm3.4473 0.79297 3.4453 0.79688c0.55698 0.15396 1.0215 0.82226 1.0215 0.82226l-0.16602 0.6543s-0.55659-0.7587-1.0488-0.86133l-3.4082-0.82227c-0.20112-0.05395-0.36128-0.13071-0.31055-0.37109 0.05134-0.24324 0.23365-0.25724 0.4668-0.21875z" color="#000000" stroke-width="1.0991"/>
</g>
</g>
</svg>
