<svg width="24" height="24" version="1.1" xmlns="http://www.w3.org/2000/svg">
<defs>
<style id="current-color-scheme" type="text/css">.ColorScheme-Text { color:#dfdfdf; } .ColorScheme-Highlight { color:#4285f4; }</style>
</defs>
<g transform="translate(3.9999 3.9994)">
<path d="m0.31836 1.002 0.001953 0.00195c-0.12978-0.00646-0.25499 0.08811-0.29883 0.20508-0.0060999-0.014315-0.015914-0.023965-0.021484-0.039059v11.535c0 0.0014 0.0016531 0.0024 0.0019531 0.0039v0.94727c0.01681 0.41352 0.41743 0.70987 0.88477 0.74023 4.4063 0.28624 7.9258 0.59961 7.9258 0.59961 0.09442 0.02609 0.1875-0.06095 0.1875-0.17383v-0.49609a4.5 4.5 0 0 1-0.99023-2.5508l-0.26758-0.17578c-0.44005-0.28668-1.0092-0.28668-1.4492 0l-2.5137 1.6406c-0.00856 0.0054-0.00364-0.0031-0.00977 0l0.8457-2.7441c0.17801-0.5512-0.023672-1.1551-0.49609-1.4902l-2.2148-1.9043 2.873-0.056641c0.54501-0.010746 1.0293-0.35214 1.2188-0.86328l1.0039-2.7734c-0.016686 0.045103-0.011054 0.028371 0.019531 0.025391 0.0309 0.00372 0.02814 0.019381 0.011719-0.025391h0.00391l1.002 2.7734c0.18978 0.51201 0.67474 0.85355 1.2207 0.86328l2.3652 0.046875a4.5 4.5 0 0 1 0.11133-0.025391l-0.31055-0.058594c-0.30305-0.0609-0.42383-0.33303-0.42383-0.50977v-4.8359c0-0.1517-0.15887-0.31237-0.31836-0.32031l-10.363-0.33983z" fill="#dfdfdf"/>
<path class="ColorScheme-Text" d="m12.5 8c-1.933 0-3.5 1.567-3.5 3.5s1.567 3.5 3.5 3.5 3.5-1.567 3.5-3.5-1.567-3.5-3.5-3.5zm-0.5 2h1v2h1.25l-1.75 2-1.75-2h1.25z" color="#dfdfdf" fill="currentColor"/>
<path d="m6.9902 5.584-0.60547 1.6719c-0.11422 0.30818-0.40578 0.51501-0.73438 0.52148l-1.7324 0.033203 1.3359 1.1484c0.28484 0.20207 0.40615 0.56611 0.29883 0.89844l-0.50976 1.6543c0.0037-0.0019 7.38e-4 0.0033 0.0059 0l1.5156-0.98828c0.26532-0.17284 0.60773-0.17284 0.87305 0l0.60938 0.39844a4.5 4.5 0 0 1 0.36719-1.2715c-0.01276-0.26786 0.10575-0.53088 0.33203-0.69141l0.16988-0.14648a4.5 4.5 0 0 1 1.0547-1.0039l-1.6191-0.03125c-0.32918-0.00587-0.6219-0.21278-0.73633-0.52148l-0.60352-1.6719h-0.0019c0.0099 0.026994 0.01083 0.017865-0.0078 0.015625-0.01844 0.0018-0.02178 0.011569-0.01172-0.015625z" color="#dfdfdf" fill="#dfdfdf"/>
</g>
</svg>
