<svg width="24" height="24" version="1.1" xmlns="http://www.w3.org/2000/svg">
<defs>
<style id="current-color-scheme" type="text/css">.ColorScheme-Text { color:#dfdfdf; } .ColorScheme-Highlight { color:#4285f4; }</style>
</defs>
<g transform="translate(1.0001 .99945)" fill="#dfdfdf" stroke="#dfdfdf" stroke-linejoin="round">
<path d="m4.5353 3.0267c-0.13575-0.0072-0.26662 0.098221-0.3125 0.22852 0.15818 0.39935 0.47232 0.53957 0.84961 0.58398l10.131 0.74414v12.119l2.2612 0.11133c0.16684 0.0088 0.33398-0.15132 0.33398-0.32031v-6c0-0.16902-0.12119-0.46423-0.41602-0.52734l-1.1406-0.24805c-0.31699-0.067843-0.44336-0.37146-0.44336-0.56836v-5.3867c0-0.16898-0.16715-0.34857-0.33398-0.35742z" stroke-linecap="round" stroke-width=".40271"/>
<path d="m4.2012 3.3906 0.00195 13.912c0.01758 0.46065 0.43708 0.79045 0.92578 0.82422 4.6084 0.31886 8.4727 0.66797 8.4727 0.66797 0.09875 0.02904 0.19727-0.06761 0.19727-0.19336v-13.842l-8.7266-0.74414c-0.39188-0.046129-0.71982-0.18854-0.87109-0.625zm4.6172 3.6191 3.3867 4.4883h-2.2051v3.9902h-2.3652v-3.9902h-2.1914z" color="#000000" display="block" stroke-width=".40269"/>
</g>
</svg>
