<svg width="24" height="24" version="1" xmlns="http://www.w3.org/2000/svg">
<defs>
<style id="current-color-scheme" type="text/css">.ColorScheme-Text { color:#dfdfdf; } .ColorScheme-Highlight { color:#4285f4; }</style>
</defs>
<g transform="translate(4 4.0001)" fill="#dfdfdf">
<path d="m8.4068 0.0025821c-1.2868 0-2.4187 0.6185-3.1504 1.5625l1.5488 1.4375h0.6016v-1h2v1h1v2h-1v0.416l1.666 1.5469c0.813-0.7322 1.334-1.7825 1.334-2.9629 0-2.2091-1.791-4-4-4z"/>
<path d="m4.5494 5.0046c0.3886 1.4974 1.6106 2.6502 3.1504 2.9257z"/>
<path d="m4.2695 7.9238c-3.3023 1.9462-3.7143 4.581-2.9277 6.1406 0.81697 1.6199 2.1996 1.9154 3.8496 1.9277l2.7949 0.0078h0.027344l2.7949-0.0078c1.5793-0.01192 2.9084-0.29647 3.7363-1.7402l-5.4629-5.0645c-0.3543 0.061048-0.71888 0.096093-1.082 0.099609-1.4657-0.014184-2.9483-0.51199-3.7305-1.3633z" color="#000000" fill-rule="evenodd" stroke-width="1.3481"/>
<path d="m2.4894 0.99719c-0.41863-0.0076968-0.63077 0.45606-0.33365 0.72948l12.044 11.14c0.43595 0.41129 1.1011-0.18325 0.66606-0.59449l-12.044-11.141c-0.086821-0.083954-0.20659-0.13251-0.33206-0.13463z" stroke-width=".89355"/>
</g>
</svg>
