<svg width="24" height="24" version="1.1" xmlns="http://www.w3.org/2000/svg">
<defs>
<style id="current-color-scheme" type="text/css">.ColorScheme-Text { color:#dfdfdf; } .ColorScheme-Highlight { color:#4285f4; }</style>
</defs>
<g transform="translate(3.9941 4)">
<path d="m3.0665 2.0035c-0.23883 0-0.39406 0.11228-0.48959 0.32648-4e-7 0-2.4718 6.6181-2.4718 6.6181s-0.09553 0.25985-0.09553 0.68924v3.734c0 0.41891 0.25135 0.62878 0.63289 0.62878h14.736c0.37633 0 0.609-0.27789 0.609-0.71342v-3.734s0.04049-0.29811-0.03582-0.50786l-2.5674-6.6543c-0.070511-0.19808-0.24338-0.38233-0.42989-0.38694z" fill="none"/>
<path d="m3.2461 2c-0.23883 0-0.39666 0.11783-0.49219 0.33203l-2.6445 6.6172c-0.061501 0.15393-0.085713 0.2878-0.087891 0.40625l-0.015625 0.013672v4.002c0 0.41891 0.25323 0.62891 0.63477 0.62891h7.3691a0.91369 0.95574 0 0 1 0.12109-0.43359l1.793-3.25 1.7148-3.1055a5 2.5 0 0 1-0.04883 0.023437c-0.04742 0.024532-0.09711 0.046765-0.14648 0.070312a5 2.5 0 0 1-0.60547 0.25c-0.04016 0.013893-0.08205 0.025748-0.12305 0.039063a5 2.5 0 0 1-0.72265 0.19727c-0.047325 0.01031-0.096458 0.017752-0.14453 0.027344a5 2.5 0 0 1-0.80469 0.125c-0.037982 0.00404-0.076939 0.00616-0.11523 0.00977a5 2.5 0 0 1-0.92773 0.04687h-5v-2.5c0-0.084337 0.00908-0.16781 0.025391-0.25 0.016554-0.083399 0.041679-0.16531 0.074219-0.24609 0.00353-0.00876 0.00996-0.016664 0.013672-0.025391a5 2.5 0 0 1 0.26758-0.43359c0.00504-0.00609 0.00854-0.011514 0.013672-0.017578 0.00446-0.00526 0.011099-0.010383 0.015625-0.015625a5 2.5 0 0 1 0.42383-0.39062c0.010638-0.00802 0.018479-0.017437 0.029297-0.025391a5 2.5 0 0 1 0.57617-0.34766c0.013537-0.00688 0.025368-0.014686 0.039063-0.021484a5 2.5 0 0 1 0.68945-0.2832c0.021101-0.00728 0.041166-0.014366 0.0625-0.021484a5 2.5 0 0 1 0.77734-0.21094c0.027666-0.00603 0.054107-0.013747 0.082031-0.019531a5 2.5 0 0 1 0.81055-0.12695c0.052917-0.00596 0.10467-0.012468 0.1582-0.017578a5 2.5 0 0 1 0.94141-0.046875 5 2.5 0 0 1 0.9707 0.048828 5 2.5 0 0 1 0.023437 0.00195c0.023374 0.00236 0.045105 0.00529 0.068359 0.00781a5 2.5 0 0 1 0.88281 0.13867 5 2.5 0 0 1 0.00195 0 5 2.5 0 0 1 0.81055 0.2207c0.01664 0.00552 0.03429 0.01001 0.05078 0.015625a5 2.5 0 0 1 0.69336 0.28516c0.01526 0.0075 0.03181 0.013886 0.04687 0.021484a5 2.5 0 0 1 0.54883 0.33203c0.02272 0.016274 0.0464 0.032275 0.06836 0.048828a5 2.5 0 0 1 0.40039 0.36914c0.01869 0.021074 0.03909 0.041124 0.05664 0.0625a5 2.5 0 0 1 0.25391 0.4082c0.01126 0.025569 0.02547 0.050315 0.03516 0.076172a5 2.5 0 0 1 0.03711 0.12109c0.01117 0.040789 0.02211 0.081656 0.0293 0.12305a5 2.5 0 0 1 0.02148 0.21875 5 2.5 0 0 1-0.02539 0.25c-0.01983 0.09989-0.05696 0.19689-0.09961 0.29297a5 2.5 0 0 1-0.23438 0.37695c-0.02362 0.02974-0.04645 0.058724-0.07227 0.087891a5 2.5 0 0 1-0.07617 0.083984 0.91369 0.95574 0 0 1 0.05664 0 0.91369 0.95574 0 0 1 0.75 0.47656l1.793 3.248 0.90039 1.6328v-2.5781c0.0017-0.01336-8.42e-4 -0.027338 0-0.041016v-0.082031l-0.01172-0.00195c-0.0043-0.065579-2.4e-5 -0.12951-0.02539-0.19922l-2.7363-6.6602c-0.07051-0.19808-0.25099-0.38211-0.4375-0.38672z" fill="#dfdfdf"/>
<path d="m3.2029 2.1788c-0.22992 0-0.37937 0.1081-0.47133 0.31431-4e-7 0-2.4513 6.4196-2.4513 6.4196s-0.091968 0.25016-0.091968 0.66353v3.5947c0 0.5242 0.16968 0.62951 0.60928 0.62951h14.401c0.50559 0 0.58629-0.12243 0.58629-0.711v-3.5947s0.03898-0.28699-0.03449-0.48892l-2.5194-6.5029c-0.06788-0.19069-0.21042-0.31971-0.38997-0.32414z" fill="none"/>
<ellipse cx="8" cy="5.5" rx="3" ry="1.5" color="#000000" fill="#dfdfdf" fill-rule="evenodd"/>
<path class="ColorScheme-Highlight" d="m12.463 8a0.71065 0.79561 0 0 0-0.57812 0.39648l-2.7891 5.4102a0.71065 0.79561 0 0 0-0.0957 0.37891 0.71065 0.79561 0 0 0 0.71094 0.81445h5.5781a0.71065 0.79561 0 0 0 0.61523-1.1934l-2.7891-5.4102a0.71065 0.79561 0 0 0-0.58203-0.39648 0.71065 0.79561 0 0 0-0.07031 0zm-0.46289 1h1v3h-1zm0 4h1v1h-1z" color="#4285f4" fill="currentColor"/>
</g>
</svg>
