<svg width="32" height="32" version="1" xmlns="http://www.w3.org/2000/svg">
<defs>
<filter id="filter1054" color-interpolation-filters="sRGB">
<feFlood flood-color="rgb(0,0,0)" flood-opacity=".2" result="flood"/>
<feComposite in="flood" in2="SourceGraphic" operator="in" result="composite1"/>
<feGaussianBlur in="composite1" result="blur"/>
<feOffset dx="0" dy="0.5" result="offset"/>
<feComposite in="SourceGraphic" in2="offset" result="composite2"/>
</filter>
<filter id="filter1066" color-interpolation-filters="sRGB">
<feFlood flood-color="rgb(255,255,255)" flood-opacity=".10196" result="flood"/>
<feComposite in="flood" in2="SourceGraphic" operator="out" result="composite1"/>
<feGaussianBlur in="composite1" result="blur"/>
<feOffset dx="0" dy="0.5" result="offset"/>
<feComposite in="offset" in2="SourceGraphic" operator="atop" result="composite2"/>
</filter>
</defs>
<path d="m16 8c5.0238-0.84611 9.796 4.5248 11 8.2074l6.8e-5 11.793c0 0.57531-0.46757 1-1.0001 1h-20c-0.5325 0-1-0.42469-1-1v-11.793c0-0.57531 10.468-8.2074 11-8.2074z" color="#000000" fill="#ccc" filter="url(#filter1054)"/>
<g clip-rule="evenodd" fill-rule="evenodd">
<path d="m15 19v9h-7v-9z" fill-opacity=".18557"/>
<path d="m14 20v8h-5v-8z" fill="#7c7e79"/>
<path d="M 13.500425,23 C 13.77669,23 14,23.223148 14,23.497686 14,23.775 13.77669,24 13.500425,24 13.224372,24 13,23.775 13,23.497686 13.000211,23.223148 13.224372,23 13.500425,23 Z" fill="#edd400"/>
</g>
<path d="m16 2-13 11.576-1 4.424 1 1s12.863-10.468 13-10.577l13 10.577 1-1-1.0246-4.424c-4.2488-3.7398-8.7193-8.0879-12.975-11.576z" fill="#ef2929" filter="url(#filter1066)"/>
<rect x="18" y="19" width="6" height="6" rx=".22874" ry=".22963" color="#000000" fill="#3465a4"/>
</svg>
