<svg width="64" height="64" version="1" xmlns="http://www.w3.org/2000/svg">
<defs>
<filter id="filter933" color-interpolation-filters="sRGB">
<feFlood flood-color="rgb(0,0,0)" flood-opacity=".49804" result="flood"/>
<feComposite in="flood" in2="SourceGraphic" operator="in" result="composite1"/>
<feGaussianBlur in="composite1" result="blur"/>
<feOffset dx="0" dy="1" result="offset"/>
<feComposite in="SourceGraphic" in2="offset" result="composite2"/>
</filter>
<filter id="filter969" color-interpolation-filters="sRGB">
<feFlood flood-color="rgb(0,0,0)" flood-opacity=".2" result="flood"/>
<feComposite in="flood" in2="SourceGraphic" operator="in" result="composite1"/>
<feGaussianBlur in="composite1" result="blur"/>
<feOffset dx="0" dy="1" result="offset"/>
<feComposite in="SourceGraphic" in2="offset" result="composite2"/>
</filter>
<filter id="filter981" color-interpolation-filters="sRGB">
<feFlood flood-color="rgb(0,0,0)" flood-opacity=".2" result="flood"/>
<feComposite in="flood" in2="SourceGraphic" operator="in" result="composite1"/>
<feGaussianBlur in="composite1" result="blur"/>
<feOffset dx="0" dy="1" result="offset"/>
<feComposite in="SourceGraphic" in2="offset" result="composite2"/>
</filter>
<filter id="filter996" color-interpolation-filters="sRGB">
<feFlood flood-color="rgb(0,0,0)" flood-opacity=".2" result="flood"/>
<feComposite in="flood" in2="SourceGraphic" operator="in" result="composite1"/>
<feGaussianBlur in="composite1" result="blur"/>
<feOffset dx="0" dy="1" result="offset"/>
<feComposite in="SourceGraphic" in2="offset" result="composite2"/>
</filter>
</defs>
<path d="m5.4694 10h53.062c0.81333 0 1.4682 0.66811 1.4682 1.4979v31.824c0 0.82987-11.036 10.678-11.85 10.678h-42.682c-0.81333 0-1.4681-0.66807-1.4681-1.4979v-41.004c0-0.82987 0.65481-1.4979 1.4681-1.4979z" color="#000000" fill="#66bdb5" filter="url(#filter981)" stroke-width="3.5824"/>
<path d="m10 16.308h44v19.693h-44z" fill="#fff" stroke-width="3.2104"/>
<path d="m47.869 53.959c2.6498 0.43052 12.514-5.9117 12.117-11.09-2.04 3.1622-6.2103 1.6792-11.572 1.8867 0 0 0.51596 8.5505-0.54436 9.2029z" color="#000000" fill="#fafafa" fill-rule="evenodd" filter="url(#filter969)" stroke-width="3.5"/>
<path d="m16.102 22.996c-0.06628 0.3253-0.10156 0.66178-0.10156 1.0039 0 2.8378 2.2972 5 5 5 2.8378 0 5-2.2972 5-5 0-0.34262-0.03792-0.67579-0.10156-0.99611-0.45732 2.2444-2.4198 3.996-4.8984 3.996-2.3764 0-4.435-1.6712-4.8984-4.004z" fill-opacity=".2" stroke-width="3.3332"/>
<g fill="#66bdb5">
<path d="m26.001 23c0 2.7028-2.1622 5-5 5-2.7028 0-5-2.1622-5-5 0-2.7028 2.1622-5 5-5 2.7028 0 5 2.1622 5 5z" stroke-width="3.3332"/>
<path d="m42.135 34.748h-6.8751l8.1849-12.385z" filter="url(#filter996)" stroke-width="3.5"/>
<path transform="matrix(2 0 0 2 .00032641 4.0002)" d="m17.466 16.09h5.9749l0.90033-0.57032h-1.9643s1.8005-0.32591 2.0462-2.3628c0.24555-2.0369-2.7828-4.3181-2.7828-4.3181v0.08148c0.08185 0.48884 0.90033 3.911 0.3274 5.2145-0.24555 1.1407-0.98218 1.3851-0.98218 1.3851h-3.765l0.1637 0.57032z" filter="url(#filter933)" stroke-width="1.75"/>
</g>
</svg>
