<svg width="64" height="64" version="1" xmlns="http://www.w3.org/2000/svg">
<path d="m58 54.333v-42.666c0-1.4777-1.16-2.667-2.6-2.667h-46.8c-1.4404 0-2.6 1.1893-2.6 2.6667v42.667c0 1.4773 1.1596 2.6667 2.6 2.6667h46.8c1.4404 0 2.6-1.1893 2.6-2.6667z" opacity=".2"/>
<path d="m58 53.333v-42.666c0-1.4777-1.16-2.667-2.6-2.667h-46.8c-1.4404 0-2.6 1.1893-2.6 2.6667v42.667c0 1.4773 1.1596 2.6667 2.6 2.6667h46.8c1.4404 0 2.6-1.1893 2.6-2.6667z" fill="#7282d9"/>
<path d="m8.5996 8c-1.4404 0-2.5996 1.1886-2.5996 2.666v1c0-1.4774 1.1592-2.666 2.5996-2.666h46.801c1.44 0 2.5996 1.1883 2.5996 2.666v-0.99805c0-1.4777-1.1596-2.668-2.5996-2.668h-46.801z" fill="#fff" opacity=".2"/>
<g transform="matrix(3.9999 0 0 3.9178 .0005715 -1.6154)" fill-opacity=".2">
<path d="m11.802 11.388s-1.3472-0.59773-2.2102-0.52251c-0.91977 0.08017-2.4563 0.13395-3.0586-0.80604 2.5569 0.76207 3.7365-0.50316 5.467 0.20946l-0.19831 1.1191z"/>
<path d="m7.7665 6.0283c-1.5468 0.084081-2.7665 1.026-2.7665 2.1643 0 1.1934 1.3414 2.1643 2.9941 2.1643s2.9941-0.97092 2.9941-2.1643c0-1.1934-1.3414-2.1643-2.9941-2.1643-0.0065 0-0.01378-2.95e-5 -0.02023 0-0.03853 1.759e-4 -0.07816-0.00122-0.11633 0-0.01864 5.966e-4 -0.03709-8.43e-4 -0.05563 0-0.01222 5.55e-4 -0.02322-6.622e-4 -0.0354 0zm-0.22254 0.34989c0.01024-8.174e-4 0.02 5.55e-4 0.03035 0 0.0217-0.00116 0.04362 0 0.06575 0 0.47201 0 0.85475 0.27227 0.85475 0.60481s-0.38274 0.59981-0.85475 0.59981c-0.472 0-0.85475-0.26727-0.85475-0.59981 0-0.30953 0.3321-0.57077 0.75865-0.60481zm1.8612 0.73477c0.01079-9.597e-4 0.01945 6.878e-4 0.03035 0 0.0189-0.00118 0.03644 3.359e-4 0.05564 0 0.0078-1.396e-4 0.01238 0 0.02023 0 0.50228 0 0.91038 0.29018 0.91038 0.6448 0 0.35461-0.4081 0.6398-0.91038 0.6398-0.50228 2e-7 -0.91038-0.28518-0.91038-0.6398-1e-6 -0.32758 0.35473-0.60506 0.80417-0.6448zm-3.1105 0.50484c0.03525-0.00285 0.07494 0 0.11127 0 0.51668 0 0.93567 0.29468 0.93567 0.65979s-0.419 0.65979-0.93567 0.65979-0.93567-0.29468-0.93567-0.65979c0-0.33944 0.35826-0.6221 0.8244-0.65979zm1.8663 0.81974c0.0039-4.479e-4 0.0062 4.159e-4 0.01012 0 4.37e-4 -1.87e-5 0.0046-5.3e-6 0.0051 0 4.21e-4 7.2e-6 0.0046 1.58e-5 0.0051 0 1e-3 1.7e-5 0.0045 1.84e-5 0.0051 0 0.0042 2.86e-5 0.01093-6.13e-5 0.01517 0 5.18e-4 -1.23e-5 4e-3 -1.33e-5 0.0051 0 0.039-0.00316 0.07614 0 0.11633 0 0.57158 0 1.0368 0.32463 1.0368 0.72977s-0.46524 0.73477-1.0368 0.73477c-0.57158 0-1.0368-0.32962-1.0368-0.73477 0-0.365 0.38219-0.67318 0.87498-0.72977z" color="#000000" fill-rule="evenodd"/>
</g>
<g transform="matrix(3.9999 0 0 3.9178 .0005715 -2.6154)" fill="#fff">
<path d="m11.802 11.388s-1.3472-0.59773-2.2102-0.52251c-0.91977 0.08017-2.4563 0.13395-3.0586-0.80604 2.5569 0.76207 3.7365-0.50316 5.467 0.20946l-0.19831 1.1191z"/>
<path d="m7.7665 6.0283c-1.5468 0.084081-2.7665 1.026-2.7665 2.1643 0 1.1934 1.3414 2.1643 2.9941 2.1643s2.9941-0.97092 2.9941-2.1643c0-1.1934-1.3414-2.1643-2.9941-2.1643-0.0065 0-0.01378-2.95e-5 -0.02023 0-0.03853 1.759e-4 -0.07816-0.00122-0.11633 0-0.01864 5.966e-4 -0.03709-8.43e-4 -0.05563 0-0.01222 5.55e-4 -0.02322-6.622e-4 -0.0354 0zm-0.22254 0.34989c0.01024-8.174e-4 0.02 5.55e-4 0.03035 0 0.0217-0.00116 0.04362 0 0.06575 0 0.47201 0 0.85475 0.27227 0.85475 0.60481s-0.38274 0.59981-0.85475 0.59981c-0.472 0-0.85475-0.26727-0.85475-0.59981 0-0.30953 0.3321-0.57077 0.75865-0.60481zm1.8612 0.73477c0.01079-9.597e-4 0.01945 6.878e-4 0.03035 0 0.0189-0.00118 0.03644 3.359e-4 0.05564 0 0.0078-1.396e-4 0.01238 0 0.02023 0 0.50228 0 0.91038 0.29018 0.91038 0.6448 0 0.35461-0.4081 0.6398-0.91038 0.6398-0.50228 2e-7 -0.91038-0.28518-0.91038-0.6398-1e-6 -0.32758 0.35473-0.60506 0.80417-0.6448zm-3.1105 0.50484c0.03525-0.00285 0.07494 0 0.11127 0 0.51668 0 0.93567 0.29468 0.93567 0.65979s-0.419 0.65979-0.93567 0.65979-0.93567-0.29468-0.93567-0.65979c0-0.33944 0.35826-0.6221 0.8244-0.65979zm1.8663 0.81974c0.0039-4.479e-4 0.0062 4.159e-4 0.01012 0 4.37e-4 -1.87e-5 0.0046-5.3e-6 0.0051 0 4.21e-4 7.2e-6 0.0046 1.58e-5 0.0051 0 1e-3 1.7e-5 0.0045 1.84e-5 0.0051 0 0.0042 2.86e-5 0.01093-6.13e-5 0.01517 0 5.18e-4 -1.23e-5 4e-3 -1.33e-5 0.0051 0 0.039-0.00316 0.07614 0 0.11633 0 0.57158 0 1.0368 0.32463 1.0368 0.72977s-0.46524 0.73477-1.0368 0.73477c-0.57158 0-1.0368-0.32962-1.0368-0.73477 0-0.365 0.38219-0.67318 0.87498-0.72977z" color="#000000" fill-rule="evenodd"/>
</g>
</svg>
