<svg width="64" height="64" version="1" xmlns="http://www.w3.org/2000/svg">
<defs>
<filter id="filter1053" color-interpolation-filters="sRGB">
<feFlood flood-color="rgb(0,0,0)" flood-opacity=".2" result="flood"/>
<feComposite in="flood" in2="SourceGraphic" operator="in" result="composite1"/>
<feGaussianBlur in="composite1" result="blur"/>
<feOffset dx="0" dy="1" result="offset"/>
<feComposite in="SourceGraphic" in2="offset" result="fbSourceGraphic"/>
<feColorMatrix in="fbSourceGraphic" result="fbSourceGraphicAlpha" values="0 0 0 -1 0 0 0 0 -1 0 0 0 0 -1 0 0 0 0 1 0"/>
<feFlood flood-color="rgb(255,255,255)" flood-opacity=".10196" in="fbSourceGraphic" result="flood"/>
<feComposite in="flood" in2="fbSourceGraphic" operator="out" result="composite1"/>
<feGaussianBlur in="composite1" result="blur"/>
<feOffset dx="0" dy="1" result="offset"/>
<feComposite in="offset" in2="fbSourceGraphic" operator="atop" result="composite2"/>
</filter>
</defs>
<path d="m8.759 3.9996c-1.5252 0-2.759 1.1596-2.759 2.603v50.794c0 1.4435 1.2339 2.603 2.759 2.603h46.482c1.5252 0 2.759-1.1596 2.759-2.603v-50.794c0-1.4435-1.2339-2.603-2.759-2.603z" color="#000000" display="block" fill="#d3d7cf" fill-opacity=".99608" filter="url(#filter1053)" stroke-width="3.6054"/>
<g fill="#858585">
<path d="m47.164 26c-0.64448 0-1.1641 0.6244-1.1641 1.4v11.2c0 0.7756 0.51958 1.4 1.1641 1.4h5.6718c0.64448 0 1.1641-0.6244 1.1641-1.4v-11.2c0-0.7756-0.51958-1.4-1.1641-1.4z" color="#000000" display="block" stroke-width="3.5496"/>
<g stroke-width="4">
<rect x="10" y="26" width="8" height="8" rx="1.5511" ry="1.5725" color="#000000" display="block"/>
<rect x="10" y="50" width="8" height="8" rx="1.5511" ry="1.5725" color="#000000" display="block"/>
<rect x="10" y="38" width="8" height="8" rx="1.5511" ry="1.5725" color="#000000" display="block"/>
</g>
<path d="m47.164 44c-0.64448 0-1.1641 0.6244-1.1641 1.4v11.2c0 0.7756 0.51958 1.4 1.1641 1.4h5.6718c0.64448 0 1.1641-0.6244 1.1641-1.4v-11.2c0-0.7756-0.51958-1.4-1.1641-1.4z" color="#000000" display="block" stroke-width="3.5496"/>
</g>
<path d="m12.546 5.9996c-1.4102 0-2.5456 1.5865-2.5456 3.5558v7.3442c0 3.3664 4.8961 5.1 6.3063 5.1h31.387c1.4102 0 6.3063-1.2786 6.3063-5.1v-7.3442c0-1.9692-1.1354-3.5558-2.5456-3.5558zm37.073 1.9968c1.3249 0 2.3914 0.98286 2.3914 2.2068v6.6326c0 2.375-4.5955 3.1712-5.9203 3.1712h-28.161c-1.3249 0-5.9203-1.0789-5.9203-3.1712v-6.6326c0-1.224 1.0664-2.2068 2.3914-2.2068z" color="#000000" display="block" fill="#2e3436" stroke-width="3.4334"/>
<rect x="16" y="10" width="32" height="7" rx=".96618" ry="1.0411" color="#000000" display="block" fill="#777b5e" stroke-width="3.4641"/>
<path d="m35.828 13.537c0.22526 0.05678 0.39602 0.15576 0.51236 0.29696 0.11784 0.13975 0.17674 0.31808 0.17674 0.53498-2e-6 0.32318-0.1268 0.5692-0.3804 0.73804-0.2536 0.16741-0.62354 0.2511-1.1098 0.2511-0.17154 0-0.34384-0.01384-0.51688-0.04149-0.17154-0.02619-0.3416-0.06623-0.51016-0.1201v-0.6485c0.16112 0.07861 0.32072 0.13829 0.47882 0.17905 0.1596 0.03931 0.31624 0.05896 0.46986 0.05895 0.22824 1e-6 0.40274-0.03857 0.52356-0.11574 0.12232-0.07715 0.18346-0.18778 0.18346-0.3319-2e-6 -0.14848-0.06264-0.26058-0.18796-0.33626-0.12382-0.07715-0.30728-0.11572-0.55044-0.11573h-0.3445v-0.54152h0.36248c0.2163 3e-6 0.3774-0.03276 0.4833-0.09826 0.1059-0.06696 0.15886-0.16813 0.15886-0.30352-6e-6 -0.12519-0.05146-0.222-0.1544-0.29042s-0.24838-0.10262-0.43632-0.10263c-0.13872 3e-6 -0.27894 0.0153-0.42064 0.04586-0.14168 0.03057-0.28266 0.0757-0.4229 0.13538v-0.61576c0.17006-0.04658 0.3386-0.08151 0.50564-0.10482 0.16706-0.02325 0.33114-0.03493 0.49226-0.03494 0.43408 4e-6 0.7585 0.06987 0.9733 0.20962 0.21628 0.1383 0.32442 0.3472 0.32444 0.62668-2e-6 0.1907-0.05146 0.3472-0.1544 0.46946-0.10294 0.12082-0.2551 0.20598-0.45648 0.25548m1.5192 0.91274h0.8055v0.84504h-0.80546v-0.84504m1.8057 0.26422h0.76074v-2.1072l-0.7809 0.15721v-0.57208l0.77642-0.15721h0.81892v2.6792h0.76074v0.58082h-2.336v-0.58082m4.3362-1.987-0.94424 1.3647h0.94424v-1.3647m-0.1432-0.69218h0.95764v2.057h0.47658v0.60922h-0.47658v0.59392h-0.81444v-0.59392h-1.4812v-0.72058l1.338-1.9456" stroke-width="3.3806"/>
<g fill="#858585" stroke-width="4">
<rect x="22" y="26" width="8" height="8" rx="1.5511" ry="1.5725" color="#000000" display="block"/>
<rect x="22" y="50" width="8" height="8" rx="1.5511" ry="1.5725" color="#000000" display="block"/>
<rect x="22" y="38" width="8" height="8" rx="1.5511" ry="1.5725" color="#000000" display="block"/>
<rect x="34" y="26" width="8" height="8" rx="1.5511" ry="1.5725" color="#000000" display="block"/>
<rect x="34" y="50" width="8" height="8" rx="1.5511" ry="1.5725" color="#000000" display="block"/>
<rect x="34" y="38" width="8" height="8" rx="1.5511" ry="1.5725" color="#000000" display="block"/>
</g>
<g fill="#fff" fill-rule="evenodd" stroke-width="2">
<rect x="48" y="32" width="4" height="2"/>
<rect x="48" y="48" width="4" height="2"/>
<rect x="48" y="52" width="4" height="2"/>
</g>
<g fill-opacity=".2">
<g stroke-width="4">
<path d="m10 32.428v1c0 0.87114 0.69148 1.5723 1.5508 1.5723h4.8984c0.8593 0 1.5508-0.70112 1.5508-1.5723v-1c0 0.87114-0.69148 1.5723-1.5508 1.5723h-4.8984c-0.8593 0-1.5508-0.70112-1.5508-1.5723z" color="#000000" display="block"/>
<path d="m22 32.428v1c0 0.87114 0.69148 1.5723 1.5508 1.5723h4.8984c0.8593 0 1.5508-0.70112 1.5508-1.5723v-1c0 0.87114-0.69148 1.5723-1.5508 1.5723h-4.8984c-0.8593 0-1.5508-0.70112-1.5508-1.5723z" color="#000000" display="block"/>
<path d="m34 32.428v1c0 0.87114 0.69148 1.5723 1.5508 1.5723h4.8984c0.8593 0 1.5508-0.70112 1.5508-1.5723v-1c0 0.87114-0.69148 1.5723-1.5508 1.5723h-4.8984c-0.8593 0-1.5508-0.70112-1.5508-1.5723z" color="#000000" display="block"/>
<path d="m10 44.428v1c0 0.87114 0.69148 1.5723 1.5508 1.5723h4.8984c0.8593 0 1.5508-0.70112 1.5508-1.5723v-1c0 0.87114-0.69148 1.5723-1.5508 1.5723h-4.8984c-0.8593 0-1.5508-0.70112-1.5508-1.5723z" color="#000000" display="block"/>
<path d="m22 44.428v1c0 0.87114 0.69148 1.5723 1.5508 1.5723h4.8984c0.8593 0 1.5508-0.70112 1.5508-1.5723v-1c0 0.87114-0.69148 1.5723-1.5508 1.5723h-4.8984c-0.8593 0-1.5508-0.70112-1.5508-1.5723z" color="#000000" display="block"/>
<path d="m34 44.428v1c0 0.87114 0.69148 1.5723 1.5508 1.5723h4.8984c0.8593 0 1.5508-0.70112 1.5508-1.5723v-1c0 0.87114-0.69148 1.5723-1.5508 1.5723h-4.8984c-0.8593 0-1.5508-0.70112-1.5508-1.5723z" color="#000000" display="block"/>
<path d="m10 56.428v1c0 0.87114 0.69148 1.5723 1.5508 1.5723h4.8984c0.8593 0 1.5508-0.70112 1.5508-1.5723v-1c0 0.87114-0.69148 1.5723-1.5508 1.5723h-4.8984c-0.8593 0-1.5508-0.70112-1.5508-1.5723z" color="#000000" display="block"/>
<path d="m22 56.428v1c0 0.87114 0.69148 1.5723 1.5508 1.5723h4.8984c0.8593 0 1.5508-0.70112 1.5508-1.5723v-1c0 0.87114-0.69148 1.5723-1.5508 1.5723h-4.8984c-0.8593 0-1.5508-0.70112-1.5508-1.5723z" color="#000000" display="block"/>
<path d="m34 56.428v1c0 0.87114 0.69148 1.5723 1.5508 1.5723h4.8984c0.8593 0 1.5508-0.70112 1.5508-1.5723v-1c0 0.87114-0.69148 1.5723-1.5508 1.5723h-4.8984c-0.8593 0-1.5508-0.70112-1.5508-1.5723z" color="#000000" display="block"/>
</g>
<path d="m46 56.6v1c0 0.7756 0.51956 1.4004 1.1641 1.4004h5.6719c0.64448 0 1.1641-0.62479 1.1641-1.4004v-1c0 0.7756-0.51958 1.4004-1.1641 1.4004h-5.6719c-0.6445 0-1.1641-0.62479-1.1641-1.4004z" color="#000000" display="block" stroke-width="3.5496"/>
<path d="m46 38.6v1c0 0.7756 0.51956 1.4004 1.1641 1.4004h5.6719c0.64448 0 1.1641-0.62479 1.1641-1.4004v-1c0 0.7756-0.51958 1.4004-1.1641 1.4004h-5.6719c-0.6445 0-1.1641-0.62479-1.1641-1.4004z" color="#000000" display="block" stroke-width="3.5496"/>
<path d="m14.4 7.9961c-1.3249 0-2.3926 0.98305-2.3926 2.207v1c0-1.224 1.0677-2.207 2.3926-2.207h35.219c1.3249 0 2.3906 0.98309 2.3906 2.207v-1c0-1.2239-1.0657-2.207-2.3906-2.207zm-4.4004 8.9043v1c0 3.3664 4.8965 5.0996 6.3066 5.0996h31.387c1.4102 0 6.3066-1.2782 6.3066-5.0996v-1c0 3.8214-4.8964 5.0996-6.3066 5.0996h-31.387c-1.4102 0-6.3066-1.7332-6.3066-5.0996z" color="#000000" display="block" stroke-width="3.4334"/>
<path d="m16 15.959v1c0 0.57677 0.43153 1.041 0.9668 1.041h30.066c0.53526 0 0.9668-0.46424 0.9668-1.041v-1c0 0.57677-0.43153 1.041-0.9668 1.041h-30.066c-0.53526 0-0.9668-0.46424-0.9668-1.041z" color="#000000" display="block" stroke-width="3.4641"/>
</g>
</svg>
