<svg width="64" height="64" version="1" xmlns="http://www.w3.org/2000/svg">
<defs>
<filter id="filter1043" color-interpolation-filters="sRGB">
<feFlood flood-color="rgb(0,0,0)" flood-opacity=".2" result="flood"/>
<feComposite in="flood" in2="SourceGraphic" operator="in" result="composite1"/>
<feGaussianBlur in="composite1" result="blur"/>
<feOffset dx="0" dy="1" result="offset"/>
<feComposite in="SourceGraphic" in2="offset" result="composite2"/>
</filter>
</defs>
<g fill-rule="evenodd">
<path d="m10.82 11h41.376c0.96644 0 1.7445 0.64324 1.7445 1.4422l3.0433 41.28 0.01587 2.836c-2.04e-4 0.79901-0.77828 1.4422-1.7447 1.4422h-47.497c-0.96648 0-1.7445-0.64324-1.7445-1.4422l-0.014016-2.6178 3.0732-41.496c0-0.79899 0.77807-1.4422 1.7445-1.4422z" color="#000000" fill="#d3d7cf" fill-opacity=".99608" stroke-width="3.3785"/>
<rect x="6.7506" y="55.013" width="49.501" height="2.9854" rx=".86127" ry=".66034" color="#000000" fill="#a4a4a4" stroke-width="3.1863"/>
<path d="m6.7119 55.678s0.19132-0.61353 0.89285-0.66463h47.638c0.9566 0 1.0204 0.86914 1.0204 0.86914s0.03-1.8735-1.6282-1.8735h-46.18c-1.2755 0.10225-1.7469 0.90222-1.7469 1.6691z" color="#000000" fill="#fff" stroke-width="3.2763"/>
<path d="m8.9945 12.107-0.32577 6.5921s0.40723-1.6891 1.3031-1.6891h43.165c0.91625-0.02345 0.95696 0.46917 1.1199 1.2434l-0.32581-5.818c-0.04071-0.82112-0.28503-1.431-1.0181-1.431h-42.861c-0.59048 0-0.99767 0.51613-1.0588 1.1026z" color="#000000" fill="#a3a4a0" stroke-width="3.6732"/>
</g>
<path d="m11.6 10.897h39.165c0.90829 0 1.6396-0.18918 1.6396 0.58971l2.8603 41.056 0.12602 3.3693c0 0.77887-0.17528 0.80126-1.0836 0.80126h-46.417c-0.51915 0-0.52765-0.13232-0.52765-0.63636l-0.013109-3.3214 2.8884-41.228c0-0.77887 0.45604-0.62859 1.3644-0.62859z" color="#000000" fill="none" opacity=".4386" stroke-width="3.3837"/>
<g fill-rule="evenodd">
<rect x="12" y="19" width="39" height="2" color="#000000" opacity=".2807" stroke-width="4.3976"/>
<g stroke-width="4.4536">
<rect x="12" y="32" width="40" height="2" color="#000000" opacity=".2807"/>
<rect x="12" y="36" width="40" height="2" color="#000000" opacity=".2807"/>
<rect x="12" y="40" width="40" height="2" color="#000000" opacity=".2807"/>
</g>
<rect x="12" y="44" width="13" height="2" color="#000000" opacity=".2807" stroke-width="3.766"/>
<g transform="matrix(1.8888 0 0 1.8846 2.2224 3.3462)" filter="url(#filter1043)" stroke-width="1.7136">
<path d="m25.489 14.418s0.92493 0.05782 1.2869 0.82873c0.37286 0.7942 0 1.6382 0 1.6382l3.2373-1.5226s0.93428-0.54357 0.42224-1.7539c-0.50502-1.1937-1.7292-0.71311-1.7292-0.71311z" color="#000000" fill="#ce1313"/>
<path d="m25.489 14.418s0.92493 0.05782 1.2869 0.82873c0.37286 0.7942 0 1.6382 0 1.6382l1.2869-0.61674s0.53214-0.81339 0.14074-1.6575c-0.40215-0.86728-1.4276-0.80947-1.4276-0.80947z" color="#000000" fill="#c1c1c1"/>
<path d="m12.903 21.684 2.8955-2.7752c0.96515 0.5011 1.4678 1.3298 1.2064 2.2935z" color="#000000" fill="#e7e2b8"/>
<path d="m13.802 20.836-1.0797 0.96321 1.4808-0.27814c0.14074-0.44327-0.05927-0.55015-0.40108-0.68507z" color="#000000"/>
<path d="m15.799 18.915c0.41287 0.18082 0.83862 0.66463 0.93716 0.77092 0.09855 0.10629 9.9893-4.54 9.9893-4.54-0.28595-0.52795-0.81262-0.68206-1.2383-0.72994 0 0-9.7817 4.4579-9.6882 4.499z" color="#000000" fill="#deb873"/>
<path d="m16.998 21.187 0.07973-0.39685 9.8383-4.4102s-0.07091 0.41562-0.13893 0.49932z" color="#000000" fill-opacity=".36364"/>
<path d="m17.066 20.814s0.04143-0.28551-0.07303-0.63208c-0.11096-0.33601-0.25032-0.48753-0.25032-0.48753l9.9776-4.5696c0.22929 0.33734 0.24945 0.94713 0.19559 1.262z" color="#000000" fill="#cb9022"/>
</g>
<rect x="12" y="23" width="39" height="2" color="#000000" opacity=".2807" stroke-width="4.3976"/>
<rect x="12" y="26" width="19" height="2" color="#000000" opacity=".2807" stroke-width="3.0694"/>
</g>
<g fill-opacity=".2" fill-rule="evenodd">
<g stroke-width="3.0001">
<path d="m12 13.801v1c0 0.6648 0.669 1.1992 1.5 1.1992s1.5-0.53442 1.5-1.1992v-1c0 0.6648-0.669 1.1992-1.5 1.1992s-1.5-0.53442-1.5-1.1992z" color="#000000"/>
<path d="m18 13.801v1c0 0.6648 0.669 1.1992 1.5 1.1992s1.5-0.53442 1.5-1.1992v-1c0 0.6648-0.669 1.1992-1.5 1.1992s-1.5-0.53442-1.5-1.1992z" color="#000000"/>
<path d="m24 13.801v1c0 0.6648 0.669 1.1992 1.5 1.1992s1.5-0.53442 1.5-1.1992v-1c0 0.6648-0.669 1.1992-1.5 1.1992s-1.5-0.53442-1.5-1.1992z" color="#000000"/>
<path d="m30 13.801v1c0 0.6648 0.669 1.1992 1.5 1.1992s1.5-0.53442 1.5-1.1992v-1c0 0.6648-0.669 1.1992-1.5 1.1992s-1.5-0.53442-1.5-1.1992z" color="#000000"/>
<path d="m36 13.801v1c0 0.6648 0.669 1.1992 1.5 1.1992s1.5-0.53442 1.5-1.1992v-1c0 0.6648-0.669 1.1992-1.5 1.1992s-1.5-0.53442-1.5-1.1992z" color="#000000"/>
<path d="m42 13.801v1c0 0.6648 0.669 1.1992 1.5 1.1992s1.5-0.53442 1.5-1.1992v-1c0 0.6648-0.669 1.1992-1.5 1.1992s-1.5-0.53442-1.5-1.1992z" color="#000000"/>
<path d="m48 13.801v1c0 0.6648 0.669 1.1992 1.5 1.1992s1.5-0.53442 1.5-1.1992v-1c0 0.6648-0.669 1.1992-1.5 1.1992s-1.5-0.53442-1.5-1.1992z" color="#000000"/>
</g>
<path d="m9.9727 17.01c-0.72521 0-1.1181 1.0666-1.2461 1.4883l-0.058594 1.2012s0.40883-1.6895 1.3047-1.6895h43.164c0.91625-0.02345 0.95819 0.46994 1.1211 1.2441l-0.07617-1.3438c-0.12514-0.56518-0.27861-0.92-1.0449-0.90039z" color="#000000" stroke-width="3.6732"/>
<path d="m6.75 57.338v1c0 0.36583 0.38419 0.66016 0.86133 0.66016h47.779c0.47714 0 0.86133-0.29433 0.86133-0.66016v-1c0 0.36583-0.38419 0.66016-0.86133 0.66016h-47.779c-0.47714 0-0.86133-0.29433-0.86133-0.66016z" color="#000000" stroke-width="3.1863"/>
</g>
<path d="m10.053 11.004c-0.59048 0-0.9975 0.51704-1.0586 1.1035l-0.32617 6.5918s0.028481-0.10195 0.058594-0.20117l0.26758-5.3906c0.06109-0.58648 0.46812-1.1035 1.0586-1.1035h42.861c0.73302 0 0.97687 0.61053 1.0176 1.4316l0.25 4.4746c0.024486 0.11059 0.049513 0.21706 0.076171 0.34375l-0.32617-5.8184c-0.04071-0.82112-0.28456-1.4316-1.0176-1.4316h-42.861z" color="#000000" fill="#fff" fill-opacity=".1" fill-rule="evenodd" stroke-width="3.6732"/>
<g fill="#fce94f" fill-rule="evenodd" stroke-width="3.0001">
<rect x="12" y="9" width="3" height="6" rx="1.5" ry="1.2" color="#000000"/>
<rect x="18" y="9" width="3" height="6" rx="1.5" ry="1.2" color="#000000"/>
<rect x="24" y="9" width="3" height="6" rx="1.5" ry="1.2" color="#000000"/>
<rect x="30" y="9" width="3" height="6" rx="1.5" ry="1.2" color="#000000"/>
<rect x="36" y="9" width="3" height="6" rx="1.5" ry="1.2" color="#000000"/>
<rect x="42" y="9" width="3" height="6" rx="1.5" ry="1.2" color="#000000"/>
<rect x="48" y="9" width="3" height="6" rx="1.5" ry="1.2" color="#000000"/>
</g>
</svg>
