<svg width="64" height="64" version="1" xmlns="http://www.w3.org/2000/svg">
<defs>
<filter id="filter865" color-interpolation-filters="sRGB">
<feFlood flood-color="rgb(0,0,0)" flood-opacity=".2" result="flood"/>
<feComposite in="flood" in2="SourceGraphic" operator="in" result="composite1"/>
<feGaussianBlur in="composite1" result="blur"/>
<feOffset dx="0" dy="1" result="offset"/>
<feComposite in="SourceGraphic" in2="offset" result="composite2"/>
</filter>
</defs>
<path d="m22 37v2c0 1.662 1.338 3 3 3h32c1.662 0 3-1.338 3-3v-2c0 1.662-1.338 3-3 3h-32c-1.662 0-3-1.338-3-3z" opacity=".2"/>
<path d="m4 55v2c0 1.662 1.338 3 3 3h32c1.662 0 3-1.338 3-3v-2c0 1.662-1.338 3-3 3h-32c-1.662 0-3-1.338-3-3z" opacity=".2"/>
<rect transform="rotate(90)" x="4" y="-60" width="38" height="38" rx="3" ry="3" fill="#4f4f4f"/>
<path d="m40 17v3h3v-3h-3zm6 0v3h3v-3h-3zm-1.252 5.0781c-2.3802 0-4.2743 0.76476-5.6816 2.2949-1.3978 1.5208-2.0977 3.7794-2.0977 6.377 0 2.5126 0.73744 4.6046 2.2109 6.0781 1.483 1.4734 3.4901 2.2109 6.0215 2.2109 1.0108 0 2.0079-0.1047 2.9902-0.3125 0.98236-0.2078 1.8735-0.50953 2.8086-0.90625v-2.2656c-0.92576 0.49118-1.7938 0.85989-2.7383 1.1055-0.93502 0.24558-1.9031 0.36914-2.9043 0.36914-1.7286 0-3.0799-0.46722-4.0527-1.4023-0.96346-0.9446-1.5018-2.8323-1.6152-4.627h11.986v-1.0586c0-2.3614-0.62431-4.4253-1.8711-5.7949-1.2374-1.3791-2.922-2.0683-5.0566-2.0684zm0.02734 2.209c1.2845 2e-5 2.3153 0.42531 3.0898 1.2754 0.78394 0.8502 1.1841 2.0034 1.2031 3.4297l-9.2949 0.01562c0.13224-1.4924 0.63295-2.6665 1.502-3.4883 0.8784-0.82176 2.0454-1.2324 3.5-1.2324z" opacity=".2"/>
<path d="m40 16v3h3v-3h-3zm6 0v3h3v-3h-3zm-1.252 5.0781c-2.3802 0-4.2743 0.76476-5.6816 2.2949-1.3978 1.5208-2.0977 3.7794-2.0977 6.377 0 2.5126 0.73744 4.6046 2.2109 6.0781 1.483 1.4734 3.4901 2.2109 6.0215 2.2109 1.0108 0 2.0079-0.1047 2.9902-0.3125 0.98236-0.2078 1.8735-0.50953 2.8086-0.90625v-2.2656c-0.92576 0.49118-1.7938 0.85989-2.7383 1.1055-0.93502 0.24558-1.9031 0.36914-2.9043 0.36914-1.7286 0-3.0799-0.46722-4.0527-1.4023-0.96346-0.9446-1.5018-2.8323-1.6152-4.627h11.986v-1.0586c0-2.3614-0.62431-4.4253-1.8711-5.7949-1.2374-1.3791-2.922-2.0683-5.0566-2.0684zm0.02734 2.209c1.2845 2e-5 2.3153 0.42531 3.0898 1.2754 0.78394 0.8502 1.1841 2.0034 1.2031 3.4297l-9.2949 0.01562c0.13224-1.4924 0.63295-2.6665 1.502-3.4883 0.8784-0.82176 2.0454-1.2324 3.5-1.2324z" fill="#fff"/>
<rect transform="rotate(90)" x="21" y="-42" width="38" height="38" rx="3" ry="3" fill="#e4e4e4"/>
<path d="m25 4c-1.662 0-3 1.338-3 3v1c0-1.662 1.338-3 3-3h32c1.662 0 3 1.338 3 3v-1c0-1.662-1.338-3-3-3h-32z" fill="#fff" opacity=".1"/>
<path d="m7 21c-1.662 0-3 1.338-3 3v1c0-1.662 1.338-3 3-3h32c1.662 0 3 1.338 3 3v-1c0-1.662-1.338-3-3-3h-32z" fill="#fff" opacity=".1"/>
<path d="m33.999 54.57h-3.2762v-2.023c-1.306 1.6354-3.0284 2.453-5.1675 2.453-1.7112 0-3.0678-0.43541-4.0697-1.3062-0.99073-0.88142-1.4861-2.0548-1.4861-3.5202-2e-6 -0.99824 0.20262-1.8637 0.60791-2.5965 0.41654-0.73274 1.0357-1.3274 1.8576-1.784 0.83312-0.45662 1.9139-0.76457 3.2423-0.92386l5.0156-0.63715c-1.6e-5 -1.2531-0.28144-2.1929-0.84434-2.8193-0.55168-0.62653-1.3792-0.9398-2.4824-0.9398-0.91191 1.4e-5 -1.8858 0.16461-2.9215 0.49379-1.0245 0.32922-1.9421 0.80713-2.7526 1.4337v-3.138c2.1053-0.99818 4.0867-1.4973 5.9443-1.4973 2.049 1.6e-5 3.6142 0.53633 4.695 1.6088 1.092 1.0726 1.638 2.5911 1.6381 4.5555v10.641m-3.2762-6.1645v-1.8637c-2.8144 0.33984-4.402 0.53626-4.7624 0.58941-0.34899 0.05311-0.78246 0.18584-1.3003 0.3982-0.50665 0.21242-0.86688 0.49381-1.0808 0.84425-0.20262 0.35046-0.30398 0.86016-0.30398 1.5292 0 0.75398 0.28144 1.3699 0.84434 1.8478 0.57417 0.46726 1.3228 0.70089 2.246 0.70089 1.1483 0 2.1616-0.38758 3.0396-1.1629 0.8781-0.77521 1.3172-1.7363 1.3172-2.8832m1.4185-17.904-4.5429 5.2247h-2.246l3.6646-5.2247h3.1243" fill="#3f3f3f" filter="url(#filter865)" stroke-width="3.5519"/>
</svg>
