<svg width="64" height="64" version="1" xmlns="http://www.w3.org/2000/svg">
<defs>
<filter id="filter987" color-interpolation-filters="sRGB">
<feFlood flood-color="rgb(0,0,0)" flood-opacity=".2" result="flood"/>
<feComposite in="flood" in2="SourceGraphic" operator="in" result="composite1"/>
<feGaussianBlur in="composite1" result="blur"/>
<feOffset dx="0" dy="1" result="offset"/>
<feComposite in="SourceGraphic" in2="offset" result="composite2"/>
</filter>
<filter id="filter999" color-interpolation-filters="sRGB">
<feFlood flood-color="rgb(0,0,0)" flood-opacity=".2" result="flood"/>
<feComposite in="flood" in2="SourceGraphic" operator="in" result="composite1"/>
<feGaussianBlur in="composite1" result="blur"/>
<feOffset dx="0" dy="1" result="offset"/>
<feComposite in="SourceGraphic" in2="offset" result="composite2"/>
</filter>
<filter id="filter1011" color-interpolation-filters="sRGB">
<feFlood flood-color="rgb(0,0,0)" flood-opacity=".2" result="flood"/>
<feComposite in="flood" in2="SourceGraphic" operator="in" result="composite1"/>
<feGaussianBlur in="composite1" result="blur"/>
<feOffset dx="0" dy="1" result="offset"/>
<feComposite in="SourceGraphic" in2="offset" result="composite2"/>
</filter>
<filter id="filter1023" color-interpolation-filters="sRGB">
<feFlood flood-color="rgb(0,0,0)" flood-opacity=".2" result="flood"/>
<feComposite in="flood" in2="SourceGraphic" operator="in" result="composite1"/>
<feGaussianBlur in="composite1" result="blur"/>
<feOffset dx="0" dy="1" result="offset"/>
<feComposite in="SourceGraphic" in2="offset" result="composite2"/>
</filter>
<filter id="filter1035" color-interpolation-filters="sRGB">
<feFlood flood-color="rgb(0,0,0)" flood-opacity=".2" result="flood"/>
<feComposite in="flood" in2="SourceGraphic" operator="in" result="composite1"/>
<feGaussianBlur in="composite1" result="blur"/>
<feOffset dx="0" dy="1" result="offset"/>
<feComposite in="SourceGraphic" in2="offset" result="fbSourceGraphic"/>
<feColorMatrix in="fbSourceGraphic" result="fbSourceGraphicAlpha" values="0 0 0 -1 0 0 0 0 -1 0 0 0 0 -1 0 0 0 0 1 0"/>
<feFlood flood-color="rgb(255,255,255)" flood-opacity=".10196" in="fbSourceGraphic" result="flood"/>
<feComposite in="flood" in2="fbSourceGraphic" operator="out" result="composite1"/>
<feGaussianBlur in="composite1" result="blur"/>
<feOffset dx="0" dy="1" result="offset"/>
<feComposite in="offset" in2="fbSourceGraphic" operator="atop" result="composite2"/>
</filter>
</defs>
<flowRoot transform="matrix(1.3211 0 0 1.3164 .68759 2.4474)" xml:space="preserve"><flowRegion><rect x="86.788" y="412.8" width="40.056" height="16.022"/></flowRegion><flowPara/></flowRoot>
<path d="m31.274 4.0011c-3.6626 0.051198-6.9843 0.93558-9.9323 2.4215-1.4436 2.8328-6.1965 6.2002-8.1445 6.5583-3.8306 4.5542-6.3152 10.272-7.2573 15.771-5.779e-4 0.0034 5.768e-4 0.0068 0 0.01011-1.5672 2.0401-2.2326 4.4716-1.8195 7.2831 1.4811 10.083 4.336 19.599 10.813 21.795 9.4514 3.2041 28.894 2.3509 33.197 0.60326 9.4307-3.83 10.267-12.223 11.746-22.09 0.40367-2.6918-0.19134-5.0564-1.6257-7.0731-0.0119-0.07319-0.0245-0.14674-0.03741-0.22029-1.0321-5.8432-3.7613-11.702-7.8505-16.283-2.766-0.28624-8.1106-4.7078-9.4052-6.8768-2.8437-1.2124-5.9736-1.8994-9.3471-1.8994-0.11271 0-0.22463-0.00157-0.3367 0z" fill="#e4d239" filter="url(#filter1035)" stroke-width="3.7306"/>
<g fill="#ede189" fill-rule="evenodd">
<g stroke-width="3.7306">
<path d="m46.516 12.555 3.3038 1.4815s-1.7311 13.326-8.8102 21.701c2.3405-8.4987 5.534-23.183 5.5063-23.183z" filter="url(#filter999)"/>
<path d="m21.656 7.919c1.9823 11.934 8.5897 25.652 7.9293 26.338-6.0569-9.1906-8.5897-17.01-10.572-23.595 0-0.10974 2.643-2.7161 2.643-2.7435z" filter="url(#filter1023)"/>
<path d="m40.598 7.4799c-5.3961 21.729-5.6166 25.35-5.6166 25.35s8.3696-22.058 8.3696-22.607c0-1e-6 -2.0924-1.9754-2.7531-2.7435z" filter="url(#filter1011)"/>
</g>
<path d="m22.065 47.834-0.05901-12.221h19.147l2.17-1.6136h-22.367l0.05901 13.588z" filter="url(#filter987)" stroke-width="3.6743"/>
<path d="m41.697 35.117 0.1079 12.907 0.90643-0.28269 0.01575-14.288z" stroke-width="3.7306"/>
</g>
<path d="m31.315 5.5924c-3.4531 0.048268-6.5846 0.88203-9.3642 2.283-1.361 2.6707-5.842 5.8453-7.6787 6.1834-3.6115 4.2934-5.9536 9.6848-6.8422 14.869-5.446e-4 0.0032 5.439e-4 0.0065 0 0.0096-1.4776 1.9234-2.4552 4.2738-2.0657 6.9247 1.3964 9.506 3.8677 18.048 9.6803 20.588 7.825 3.4195 28.455 2.3511 32.513 0.70336 8.8914-3.6109 9.3289-11.756 10.724-21.059 0.38058-2.5379-0.18038-4.7673-1.5327-6.6685-0.0112-0.06901-0.0231-0.13835-0.03538-0.20769-0.97293-5.5094-3.5461-11.032-7.4015-15.352-2.6078-0.26986-7.6469-4.4387-8.8673-6.4834-2.6811-1.143-5.632-1.7907-8.8123-1.7907-0.10627 0-0.21178-0.00147-0.31744 0z" fill="none" opacity=".74444" stroke-width="3.7306"/>
<path d="m58.325 32.453c-6.0719 21.643-43.846 23.709-52.638 0.32817-0.05576 21.49 8.3489 27.7 32.242 26.599 4.0448-0.18518 13.224 0.05645 19.307-12.028 2.957-15.153 1.0902-14.899 1.0902-14.899z" fill="#ede189" fill-rule="evenodd" stroke-width="3.7306"/>
</svg>
