<svg width="64" height="64" version="1" xmlns="http://www.w3.org/2000/svg" xmlns:xlink="http://www.w3.org/1999/xlink">
<defs>
<linearGradient id="linearGradient2707" x1="12.207" x2="12.128" y1="53.535" y2="64.893" gradientTransform="matrix(1.6075 0 0 .70286 -3.4628 -16.695)" gradientUnits="userSpaceOnUse">
<stop stop-color="#585956" offset="0"/>
<stop stop-color="#bbbeb8" offset="1"/>
</linearGradient>
<linearGradient id="linearGradient1010" x1="12.207" x2="12.128" y1="53.535" y2="64.893" gradientTransform="matrix(3.215,0,0,1.4057,-6.9257,-31.391)" gradientUnits="userSpaceOnUse" xlink:href="#linearGradient2707"/>
<linearGradient id="linearGradient897" x1="12.207" x2="12.128" y1="53.535" y2="64.893" gradientTransform="matrix(3.215,0,0,1.4065,-6.9257,-31.439)" gradientUnits="userSpaceOnUse" xlink:href="#linearGradient2707"/>
<filter id="filter948" color-interpolation-filters="sRGB">
<feFlood flood-color="rgb(0,0,0)" flood-opacity=".2" result="flood"/>
<feComposite in="flood" in2="SourceGraphic" operator="in" result="composite1"/>
<feGaussianBlur in="composite1" result="blur"/>
<feOffset dx="0" dy="1" result="offset"/>
<feComposite in="SourceGraphic" in2="offset" result="fbSourceGraphic"/>
<feColorMatrix in="fbSourceGraphic" result="fbSourceGraphicAlpha" values="0 0 0 -1 0 0 0 0 -1 0 0 0 0 -1 0 0 0 0 1 0"/>
<feFlood flood-color="rgb(255,255,255)" flood-opacity=".10196" in="fbSourceGraphic" result="flood"/>
<feComposite in="flood" in2="fbSourceGraphic" operator="out" result="composite1"/>
<feGaussianBlur in="composite1" result="blur"/>
<feOffset dx="0" dy="1" result="offset"/>
<feComposite in="offset" in2="fbSourceGraphic" operator="atop" result="composite2"/>
</filter>
<filter id="filter960" color-interpolation-filters="sRGB">
<feFlood flood-color="rgb(0,0,0)" flood-opacity=".2" result="flood"/>
<feComposite in="flood" in2="SourceGraphic" operator="in" result="composite1"/>
<feGaussianBlur in="composite1" result="blur"/>
<feOffset dx="0" dy="1" result="offset"/>
<feComposite in="SourceGraphic" in2="offset" result="composite2"/>
</filter>
</defs>
<ellipse cx="32" cy="54.5" rx="14" ry="5.5" color="#000000" fill="#adb0aa" fill-rule="evenodd" filter="url(#filter960)" stroke-width="3.6592"/>
<ellipse cx="31.994" cy="53.154" rx="12.631" ry="4.6124" color="#000000" fill="none" stroke-width="3.683"/>
<g fill-rule="evenodd">
<rect x="24" y="47" width="16" height="7" color="#000000" fill="url(#linearGradient897)" stroke-width="3.7417"/>
<path d="m6.3609 6c-1.583 0-2.3572 0.90737-2.3574 2.0292v37.045c-0.082346 1.6189 1.272 2.926 2.855 2.926h50.274c1.5829 0 2.9372-1.3073 2.855-2.926l0.0166-37.045c-0.060457-1.1849-1.0686-2.0292-2.3575-2.0292h-51.288z" color="#000000" fill="#dde1d9" filter="url(#filter948)" stroke-width="3.4999"/>
<path d="m8 9.9996-6.86e-5 32h48v-31.864z" fill="#2584d4" stroke-width="3.4916"/>
<path d="m24 52v2h16v-2z" color="#000000" fill="url(#linearGradient1010)" stroke-width="3.7406"/>
</g>
<g transform="translate(-6.88e-5,-3)">
<rect x="14" y="18" width="16" height="24" rx="2.667" ry="2.4" opacity=".2"/>
<rect x="14" y="17" width="16" height="24" rx="2.667" ry="2.4" fill="#5ebae6"/>
<rect x="34" y="18" width="16" height="10" rx="2.667" ry="2.5" opacity=".2"/>
<rect x="34" y="17" width="16" height="10" rx="2.667" ry="2.5" fill="#5ebae6"/>
<rect x="34" y="32" width="16" height="10" rx="2.667" ry="2.5" opacity=".2"/>
<rect x="34" y="31" width="16" height="10" rx="2.667" ry="2.5" fill="#5ebae6"/>
<g fill="#fff">
<path d="m16.668 17c-1.4773 0-2.668 1.0688-2.668 2.3984v1c0-1.3296 1.1906-2.3984 2.668-2.3984h10.664c1.4773 0 2.668 1.0688 2.668 2.3984v-1c0-1.3296-1.1906-2.3984-2.668-2.3984z" opacity=".1"/>
<path d="m36.668 17c-1.4773 0-2.668 1.115-2.668 2.5v1c0-1.385 1.1906-2.5 2.668-2.5h10.664c1.4773 0 2.668 1.115 2.668 2.5v-1c0-1.385-1.1906-2.5-2.668-2.5z" opacity=".1"/>
<path d="m36.668 31c-1.4773 0-2.668 1.115-2.668 2.5v1c0-1.385 1.1906-2.5 2.668-2.5h10.664c1.4773 0 2.668 1.115 2.668 2.5v-1c0-1.385-1.1906-2.5-2.668-2.5z" opacity=".1"/>
</g>
</g>
</svg>
