<svg width="64" height="64" version="1" xmlns="http://www.w3.org/2000/svg">
<defs>
<filter id="filter943" color-interpolation-filters="sRGB">
<feFlood flood-color="rgb(0,0,0)" flood-opacity=".2" result="flood"/>
<feComposite in="flood" in2="SourceGraphic" operator="in" result="composite1"/>
<feGaussianBlur in="composite1" result="blur"/>
<feOffset dx="0" dy="1" result="offset"/>
<feComposite in="SourceGraphic" in2="offset" result="composite2"/>
</filter>
</defs>
<path d="m5.4694 12h53.062c0.81333 0 1.4682 0.66811 1.4682 1.4979v31.824c0 0.82987-11.036 10.678-11.85 10.678h-42.682c-0.81333 0-1.4681-0.66807-1.4681-1.4979v-41.004c0-0.82987 0.65481-1.4979 1.4681-1.4979z" color="#000000" fill="#d2d2d2" filter="url(#filter943)" stroke-width="3.5824"/>
<path d="m10 38v12h40.858v-3h3.1428v-9.0001z" fill="#203557" stroke-width="3.0706"/>
<path d="m10 18.308h44v19.693h-44z" fill="#42669d" stroke-width="3.2104"/>
<path d="m50.001 25c0 2.7028-2.1622 5-5 5-2.7028 0-5-2.1622-5-5 0-2.7028 2.1622-5 5-5 2.7028 0 5 2.1622 5 5z" fill="#f2fa87" fill-opacity=".77255" stroke-width="3.3332"/>
<g transform="matrix(2 0 0 2 .0003258 2)" fill="#515151" stroke-width="1.75">
<path d="m7.4665 18.09h5.9749l0.90033-0.57032h-1.9643s1.8005-0.32591 2.0462-2.3628c0.24555-2.0369-2.7828-4.3181-2.7828-4.3181v0.08148c0.08185 0.48884 0.90033 3.911 0.3274 5.2145-0.24555 1.1407-0.98218 1.3851-0.98218 1.3851h-3.765l0.1637 0.57032z"/>
<path d="m11.067 17.374h-3.4375l4.0924-6.1922z"/>
</g>
<path d="m47.869 55.958c2.6498 0.43052 12.514-5.9117 12.117-11.09-2.04 3.1622-6.2103 1.6792-11.572 1.8867 0 0 0.51596 8.5505-0.54436 9.2029z" color="#000000" fill="#7c7c7c" fill-rule="evenodd" stroke-width="3.5"/>
<path d="m40.103 25.996c-0.06628 0.3253-0.10156 0.66179-0.10156 1.0039 0 2.8378 2.2972 5 5 5 2.8378 0 5-2.2972 5-5 0-0.34262-0.03792-0.67579-0.10156-0.99611-0.45732 2.2444-2.4198 3.996-4.8984 3.996-2.3764 0-4.435-1.6712-4.8984-4.004z" fill-opacity=".2" stroke-width="3.3332"/>
<path d="m63.958 45.848a16 16 0 0 1-15.958 15.152 16 16 0 0 1-15.958-14.848 16 16 0 0 0-0.042 0.848 16 16 0 0 0 16 16 16 16 0 0 0 16-16 16 16 0 0 0-0.04296-1.1523z" fill-rule="evenodd" opacity=".2"/>
<circle cx="48" cy="46" r="16" fill="#4254cd"/>
<path d="m45.928 38-0.17578 2.1074a6.2858 6.2858 0 0 0-1.8379 1.0625l-1.9141-0.90234-2 3.4648 1.7383 1.207a6.2858 6.2858 0 0 0-0.0957 1.0605 6.2858 6.2858 0 0 0 0.0918 1.0645l-1.7344 1.2051 2 3.4629 1.9102-0.89844a6.2858 6.2858 0 0 0 1.8418 1.0547l0.17578 2.1113h4l0.17774-2.1055a6.2858 6.2858 0 0 0 1.8359-1.0645l1.916 0.90234 2-3.4629-1.7402-1.209a6.2858 6.2858 0 0 0 0.09766-1.0605 6.2858 6.2858 0 0 0-0.0918-1.0645l1.7344-1.2031-2-3.4629-1.9121 0.89844a6.2858 6.2858 0 0 0-1.8398-1.0547l-0.17578-2.1133h-4.002zm2.0723 5a3 3 0 0 1 3 3 3 3 0 0 1-3 3 3 3 0 0 1-3-3 3 3 0 0 1 3-3z" fill="#fff"/>
</svg>
