<svg width="64" height="64" version="1" xmlns="http://www.w3.org/2000/svg">
<path d="m4.0508 32c-0.0118 0.334-0.0508 0.662-0.0508 1 0 15.512 12.488 28 28 28s28-12.488 28-28c0-0.33768-0.03904-0.66528-0.05078-1-0.528 15.042-12.776 27-27.95 27-15.174 0-27.422-11.958-27.95-27z" opacity=".2"/>
<rect x="4" y="4" width="56" height="56" rx="28" ry="28" fill="#f5b35d"/>
<path d="m32 4c-15.512 0-28 12.488-28 28 0 0.11345 0.011281 0.22411 0.017578 0.33594 0.35154-15.202 12.693-27.336 27.982-27.336h0.001953c15.289 0 27.631 12.134 27.982 27.336 0.006271-0.11182 0.017578-0.22249 0.017578-0.33594 0-15.512-12.488-28-28-28h-0.001953z" fill="#fff" opacity=".1"/>
<path d="M 63.958,45.848 A 16,16 0 0 1 48,61 16,16 0 0 1 32.042,46.152 16,16 0 0 0 32,47 16,16 0 0 0 48,63 16,16 0 0 0 64,47 16,16 0 0 0 63.95704,45.84766 Z" fill-rule="evenodd" opacity=".2"/>
<path d="m22.408 30c-8.4918 4.8192-9.5516 11.344-7.529 15.207 2.1008 4.011 5.6578 4.7434 9.9008 4.7738l7.1852 0.0196h0.07018l7.1852-0.0196c4.2426-0.03086 7.7998-0.76292 9.9008-4.7738 2.0226-3.8618 0.96282-10.387-7.529-15.207-2.0114 2.108-5.823 3.344-9.592 3.3792-3.7688-0.03528-7.5806-1.2712-9.592-3.3792z" color="#000000" fill="#4d4d4d" fill-rule="evenodd" stroke-width="3.4018"/>
<path d="m32 14c4.4188 0 8 3.5818 8 8 0 4.4188-3.5814 8-8 8-4.418 0-8-3.5814-8-8 0-4.418 3.5818-8 8-8z" fill="#4d4d4d" stroke-width="2.6666"/>
<circle cx="48" cy="46" r="16" fill="#a559d6"/>
<path d="m40 50.436v3.564h3.5638l9.0008-9.0008-3.5638-3.5638zm15.717-8.5782c0.37696-0.37694 0.37696-0.9709 0-1.3479l-2.2274-2.2274c-0.37696-0.37696-0.97092-0.37696-1.3479 0l-1.862 1.874 3.564 3.564z" fill="#fff"/>
</svg>
