<svg width="64" height="64" version="1.1" xmlns="http://www.w3.org/2000/svg">
<defs>
<filter id="filter892" color-interpolation-filters="sRGB">
<feFlood flood-color="rgb(0,0,0)" flood-opacity=".2" result="flood"/>
<feComposite in="flood" in2="SourceGraphic" operator="in" result="composite1"/>
<feGaussianBlur in="composite1" result="blur"/>
<feOffset dx="0" dy="1" result="offset"/>
<feComposite in="SourceGraphic" in2="offset" result="fbSourceGraphic"/>
<feColorMatrix in="fbSourceGraphic" result="fbSourceGraphicAlpha" values="0 0 0 -1 0 0 0 0 -1 0 0 0 0 -1 0 0 0 0 1 0"/>
<feFlood flood-color="rgb(255,255,255)" flood-opacity=".10196" in="fbSourceGraphic" result="flood"/>
<feComposite in="flood" in2="fbSourceGraphic" operator="out" result="composite1"/>
<feGaussianBlur in="composite1" result="blur"/>
<feOffset dx="0" dy="1" result="offset"/>
<feComposite in="offset" in2="fbSourceGraphic" operator="atop" result="composite2"/>
</filter>
</defs>
<path d="m11.228 21.589-8.5086 21.465c-0.24029 0.6062 0.3065 1.2732 0.97086 1.2726l55.749-0.05019c0.97386-8.78e-4 1.6638-0.97108 1.2698-1.8289l-9.484-20.654c-0.26902-0.58583-1.1745-1.0906-2.0484-1.0913l-36.172-0.030492c-0.68424-5.77e-4 -1.4661 0.1343-1.7761 0.91635z" fill="#c1c3ae" fill-rule="evenodd" filter="url(#filter892)" stroke="#c1c3ae" stroke-linecap="round" stroke-linejoin="round" stroke-width="1.3454"/>
<g fill="#5a7aa4" fill-rule="evenodd" stroke="#5a7aa4" stroke-linecap="round" stroke-linejoin="round">
<path d="m3.3969 37.471c0.13299-0.27156 0.44744-0.46755 0.90595-0.46277l2.8284 0.02954 4.5076 4.7656s-0.74244 1.6322-0.42893 2.675c0.64497 0.5111-0.01301 0.84997-0.01301 0.84997h-9.1921c-0.70708 0-1.5891-1.5944-1.149-2.5403 1.1269-2.4221 1.3094-2.8018 2.5411-5.3169z" color="#000000" stroke-width="1.3439"/>
<path d="m60.603 37.471c-0.13299-0.27156-0.44744-0.46755-0.90595-0.46277l-2.8284 0.02954-4.5076 4.7656s0.74244 1.6322 0.42892 2.675c-0.64497 0.5111 0.01294 0.84997 0.01294 0.84997h9.1921c0.70708 0 1.5891-1.5944 1.149-2.5403-1.1269-2.4221-1.3094-2.8018-2.5411-5.3169z" color="#000000" stroke-width="1.3439"/>
<path d="m10.249 24.119 7.6704-3.3516c0.50906-0.22244-0.43319-1.2289-0.9998-1.2289h-6.1238l-1.7496 4.022c-0.24902 0.57241 0.46819 2.3647 0.70298 1.7875z" color="#000000" stroke-width="1.0766"/>
<path d="m52.165 24.119-7.6704-3.3516c-0.50906-0.22244 0.43319-1.2289 0.9998-1.2289h6.1238l1.7496 4.022c0.24902 0.57241-0.46819 2.3647-0.70298 1.7875z" color="#000000" stroke-width="1.0766"/>
</g>
<g fill-rule="evenodd" shape-rendering="auto">
<path d="m0.17188 43.982c-0.11507 0.60819-0.025352 1.2177 0.22461 1.7266 0.15795 0.32156 0.35839 0.61046 0.60938 0.8457 0.25098 0.23524 0.56875 0.44531 0.99805 0.44531h9.1934a0.672 0.672 0 0 0 0.30664-0.07422s0.31236-0.1191 0.52734-0.5c0.10749-0.19045 0.17556-0.496 0.0957-0.78125-0.02116-0.07561-0.08403-0.12528-0.13281-0.18359-0.21071 0.32052-0.49024 0.46484-0.49024 0.46484a0.672 0.672 0 0 1-0.04492 0.02148 0.672 0.672 0 0 1-0.0625 0.02344 0.672 0.672 0 0 1-0.06641 0.01563 0.672 0.672 0 0 1-0.06641 0.0098 0.672 0.672 0 0 1-0.066397 0.00387h-9.1934c-0.42929 0-0.74707-0.21007-0.99805-0.44531-0.25098-0.23524-0.45142-0.52415-0.60938-0.8457-0.10844-0.22076-0.16306-0.47643-0.22461-0.72656z" color="#000000" color-rendering="auto" dominant-baseline="auto" fill="#0e0000" fill-opacity=".2" image-rendering="auto" solid-color="#000000" style="font-feature-settings:normal;font-variant-alternates:normal;font-variant-caps:normal;font-variant-ligatures:normal;font-variant-numeric:normal;font-variant-position:normal;isolation:auto;mix-blend-mode:normal;shape-padding:0;text-decoration-color:#000000;text-decoration-line:none;text-decoration-style:solid;text-indent:0;text-orientation:mixed;text-transform:none;white-space:normal"/>
<g fill-opacity=".2">
<path d="m52.006 45.461c-0.04879 0.05832-0.11164 0.10799-0.13281 0.18359-0.07986 0.28523-0.01177 0.59079 0.0957 0.78125 0.21495 0.38092 0.52734 0.5 0.52734 0.5a0.672 0.672 0 0 0 0.30664 0.074219h9.1934c0.42929 0 0.74707-0.21007 0.99805-0.44531 0.25098-0.23524 0.45142-0.52415 0.60938-0.8457 0.24996-0.50886 0.33968-1.1184 0.22461-1.7266-0.06155 0.25013-0.11617 0.5058-0.22461 0.72656-0.15795 0.32156-0.3584 0.61046-0.60938 0.8457-0.25098 0.23524-0.56875 0.44531-0.99805 0.44531h-9.1934a0.672 0.672 0 0 1-0.04883-2e-3 0.672 0.672 0 0 1-0.06836-0.0078 0.672 0.672 0 0 1-0.06445-0.01563 0.672 0.672 0 0 1-0.06445-0.02148 0.672 0.672 0 0 1-0.06055-0.02734s-0.27955-0.1443-0.49024-0.46484z" color="#000000" color-rendering="auto" dominant-baseline="auto" image-rendering="auto" solid-color="#000000" style="font-feature-settings:normal;font-variant-alternates:normal;font-variant-caps:normal;font-variant-ligatures:normal;font-variant-numeric:normal;font-variant-position:normal;isolation:auto;mix-blend-mode:normal;shape-padding:0;text-decoration-color:#000000;text-decoration-line:none;text-decoration-style:solid;text-indent:0;text-orientation:mixed;text-transform:none;white-space:normal"/>
<path d="m8.5449 24.457c-0.088191 0.27544-0.096634 0.5313-0.058594 0.78516 0.043432 0.28984 0.12474 0.58022 0.22852 0.8418 0.10377 0.26158 0.20151 0.48202 0.41016 0.68945 0.10433 0.10372 0.28238 0.25756 0.58203 0.2207 0.29965-0.03686 0.47533-0.28188 0.54102-0.44336l0.41797-1.0273 7.4688-3.2637c0.15979-0.06982 0.32287-0.21113 0.40234-0.38867 0.07947-0.17754 0.07748-0.35747 0.04883-0.49805-0.03136-0.15389-0.12458-0.24579-0.19531-0.35938-0.08185 0.09288-0.15446 0.20179-0.25586 0.24609l-7.4688 3.2637-0.41797 1.0273c-0.06568 0.16148-0.24136 0.4065-0.54102 0.44336-0.29965 0.036857-0.47771-0.11699-0.58203-0.2207-0.20865-0.20743-0.30638-0.42788-0.41016-0.68945-0.077279-0.19479-0.12392-0.41233-0.16992-0.62695z" color="#000000" color-rendering="auto" dominant-baseline="auto" image-rendering="auto" solid-color="#000000" style="font-feature-settings:normal;font-variant-alternates:normal;font-variant-caps:normal;font-variant-ligatures:normal;font-variant-numeric:normal;font-variant-position:normal;isolation:auto;mix-blend-mode:normal;shape-padding:0;text-decoration-color:#000000;text-decoration-line:none;text-decoration-style:solid;text-indent:0;text-orientation:mixed;text-transform:none;white-space:normal"/>
<path d="m44.023 21.014c-0.07073 0.11358-0.16395 0.20548-0.19531 0.35938-0.02865 0.14058-0.03064 0.32051 0.04883 0.49805 0.07947 0.17754 0.24256 0.31885 0.40234 0.38867l7.4688 3.2637 0.41797 1.0273c0.06568 0.16148 0.24136 0.4065 0.54102 0.44336 0.29965 0.03686 0.47771-0.11699 0.58203-0.2207 0.20865-0.20743 0.30443-0.42788 0.4082-0.68945 0.10377-0.26157 0.18704-0.55195 0.23047-0.8418 0.03813-0.25449 0.0304-0.51085-0.05859-0.78711-0.04658 0.21532-0.09436 0.43351-0.17188 0.62891-0.10377 0.26158-0.19955 0.48202-0.4082 0.68945-0.10432 0.10371-0.28238 0.25756-0.58203 0.2207-0.29965-0.03686-0.47534-0.28188-0.54102-0.44336l-0.41797-1.0273-7.4688-3.2637c-0.1014-0.04431-0.17401-0.15322-0.25586-0.24609z" color="#000000" color-rendering="auto" dominant-baseline="auto" image-rendering="auto" solid-color="#000000" style="font-feature-settings:normal;font-variant-alternates:normal;font-variant-caps:normal;font-variant-ligatures:normal;font-variant-numeric:normal;font-variant-position:normal;isolation:auto;mix-blend-mode:normal;shape-padding:0;text-decoration-color:#000000;text-decoration-line:none;text-decoration-style:solid;text-indent:0;text-orientation:mixed;text-transform:none;white-space:normal"/>
</g>
<path d="m45.494 19c-0.60203 0-0.9897 0.34974-1.3086 0.7168-0.15944 0.18353-0.30013 0.37509-0.35742 0.65625-0.02865 0.14058-0.03064 0.32051 0.04883 0.49805 0.02904 0.06487 0.09936 0.0891 0.14648 0.14258 0.05849-0.09393 0.08994-0.2138 0.16211-0.29688 0.31889-0.36706 0.70656-0.7168 1.3086-0.7168h6.123a0.53834 0.53834 0 0 1 0.0332 2e-3 0.53834 0.53834 0 0 1 0.05273 0.0059 0.53834 0.53834 0 0 1 0.05273 0.01172 0.53834 0.53834 0 0 1 0.05273 0.01563 0.53834 0.53834 0 0 1 0.04883 0.02148 0.53834 0.53834 0 0 1 0.04687 0.02539 0.53834 0.53834 0 0 1 0.04297 0.03125 0.53834 0.53834 0 0 1 0.04102 0.03516 0.53834 0.53834 0 0 1 0.03711 0.03906 0.53834 0.53834 0 0 1 0.0332 0.04297 0.53834 0.53834 0 0 1 0.0293 0.04492 0.53834 0.53834 0 0 1 0.02344 0.04883l1.75 4.0215c0.0172 0.03952-0.0046 0.071 0.0078 0.10938 0.01577-0.07292 0.04761-0.13956 0.05859-0.21289 0.04343-0.28984 0.07455-0.57248-0.06641-0.89648l-1.75-4.0215a0.53834 0.53834 0 0 0-0.49411-0.32431z" color="#000000" color-rendering="auto" dominant-baseline="auto" fill="#fff" fill-opacity=".1" image-rendering="auto" solid-color="#000000" style="font-feature-settings:normal;font-variant-alternates:normal;font-variant-caps:normal;font-variant-ligatures:normal;font-variant-numeric:normal;font-variant-position:normal;isolation:auto;mix-blend-mode:normal;shape-padding:0;text-decoration-color:#000000;text-decoration-line:none;text-decoration-style:solid;text-indent:0;text-orientation:mixed;text-transform:none;white-space:normal"/>
<path d="m10.795 19a0.53834 0.53834 0 0 0-0.49219 0.32422l-1.75 4.0215c-0.14095 0.324-0.10984 0.60664-0.066406 0.89648 0.011088 0.074 0.042824 0.14126 0.058594 0.21484 0.012501-0.03904-0.00969-0.0711 0.00781-0.11133l1.75-4.0215a0.53834 0.53834 0 0 1 0.01367-0.02734 0.53834 0.53834 0 0 1 0.02539-0.04687 0.53834 0.53834 0 0 1 0.03125-0.04492 0.53834 0.53834 0 0 1 0.03711-0.04102 0.53834 0.53834 0 0 1 0.03906-0.03516 0.53834 0.53834 0 0 1 0.04297-0.0332 0.53834 0.53834 0 0 1 0.04492-0.0293 0.53834 0.53834 0 0 1 0.04883-0.02344 0.53834 0.53834 0 0 1 0.05078-0.01758 0.53834 0.53834 0 0 1 0.05078-0.01367 0.53834 0.53834 0 0 1 0.05273-0.0078 0.53834 0.53834 0 0 1 0.0547-0.003919h6.125c0.60203 0 0.9897 0.34974 1.3086 0.7168 0.07217 0.08308 0.10362 0.20294 0.16211 0.29688 0.04713-0.05348 0.11745-0.0777 0.14648-0.14258 0.07947-0.17754 0.07748-0.35747 0.04883-0.49805-0.05729-0.28116-0.19798-0.47272-0.35742-0.65625-0.31889-0.36706-0.70657-0.7168-1.3086-0.7168z" color="#000000" color-rendering="auto" dominant-baseline="auto" fill="#fff" fill-opacity=".1" image-rendering="auto" solid-color="#000000" style="font-feature-settings:normal;font-variant-alternates:normal;font-variant-caps:normal;font-variant-ligatures:normal;font-variant-numeric:normal;font-variant-position:normal;isolation:auto;mix-blend-mode:normal;shape-padding:0;text-decoration-color:#000000;text-decoration-line:none;text-decoration-style:solid;text-indent:0;text-orientation:mixed;text-transform:none;white-space:normal"/>
</g>
</svg>
