<svg width="64" height="64" version="1" xmlns="http://www.w3.org/2000/svg">
<path d="m5.9994 54v1.2969c0 1.4973 1.0331 2.7032 2.316 2.7032h47.369c1.2829 0 2.316-1.2059 2.316-2.7032v-1.2969z" fill="#8e8d87" stroke-width="3.6693"/>
<path d="m8.9573 30h46.083c0.52587 0 1.1978 0.35262 1.6122 0.88585 0.41437 0.53325 2.3716 3.194 2.8112 3.7617 0.43969 0.56783 0.53665 1.1061 0.53665 1.8063v15.528c0 1.118-0.99972 2.0178-2.2416 2.0178h-51.517c-1.2418 0-2.2416-0.89999-2.2416-2.0178v-14.779c0-0.60453 0.13815-2.2214 0.60967-2.773 0.59501-0.69629 2.1912-3.118 2.6122-3.6317 0.42101-0.51351 1.1941-0.79921 1.7383-0.79921z" color="#000000" fill="#dcdcda" stroke-width="3.4156"/>
<path d="m12.065 30.538c-0.60651 0-1.3509 0.1118-1.6528 0.70213l-2.2926 2.9552c-0.34038 0.66547 0.040923 1.8047 1.1256 1.8047h45.415c1.5803 0 1.4715-1.443 1.1256-2.0572l-1.769-2.2608c-0.3867-0.68685-0.89071-1.1441-1.8565-1.1441z" fill="#fbfbfb" fill-rule="evenodd" stroke-width="3.6181"/>
<path d="m9.6047 30.298h44.837c0.49941 0 1.1376 0.37703 1.5311 0.94721 0.39355 0.57021 1.7704 2.8044 2.1878 3.4116 0.41755 0.60705 0.59487 1.1827 0.59487 1.9314v15.588c0 1.1954-0.18264 1.7259-1.362 1.7259h-50.619c-1.1794 0-1.4472-0.53055-1.4472-1.7259v-15.588c0-0.64641 0.30158-1.5733 0.74943-2.1634 0.56505-0.74453 1.4785-2.7232 1.8783-3.2724 0.39981-0.54909 1.1341-0.85457 1.6509-0.85457z" color="#000000" fill="none" stroke-width="3.5001"/>
<rect x="7.9994" y="40" width="48.001" height="6.0001" rx="2.3666" ry="2.4746" fill="#f7f6f5" stroke-width="3.5357"/>
<path d="m58.612 35.898h-53.237" fill="none" stroke-width="3.5001"/>
<path d="m17.452 3.9987h29.098c0.80333 0 1.4501 0.71963 1.4501 1.6136v26.386h-31.998v-26.386c-0.0471-1.1432 1.1189-1.2962 1.4502-1.6136z" color="#000000" display="block" fill="#e0e0e0" stroke-width="3.4156"/>
<g fill-opacity=".2924" stroke-width="3.7417">
<rect x="18" y="7.9992" width="28" height="4.0001" color="#000000"/>
<rect x="18" y="16" width="14" height="4.0001" color="#000000"/>
<rect x="18" y="24" width="28" height="4.0001" color="#000000"/>
</g>
<ellipse cx="12" cy="42" rx="2" ry="2" fill="#9f9f9f" stroke-width="3.9997"/>
<g fill-opacity=".2">
<path d="m6 55.297v1c0 1.4973 1.0335 2.7031 2.3164 2.7031h47.367c1.2829 0 2.3164-1.2057 2.3164-2.7031v-1c0 1.4974-1.0335 2.7031-2.3164 2.7031h-47.367c-1.2829 0-2.3164-1.2058-2.3164-2.7031z" stroke-width="3.6693"/>
<path d="m13.936 42.496a2 2 0 0 1-1.9355 1.5039 2 2 0 0 1-1.9355-1.4961 2 2 0 0 0-0.064453 0.49609 2 2 0 0 0 2 2 2 2 0 0 0 2-2 2 2 0 0 0-0.06445-0.50391z" stroke-width="3.9997"/>
<path d="m4 51.982v1c0 1.1178 1.0004 2.0176 2.2422 2.0176h51.516c1.2419 0 2.2422-0.89962 2.2422-2.0176v-1c0 1.118-1.0003 2.0176-2.2422 2.0176h-51.516c-1.2418 0-2.2422-0.89974-2.2422-2.0176z" color="#000000" stroke-width="3.4156"/>
<rect x="18" y="12" width="28" height="1" color="#000000" stroke-width="1.8708"/>
<rect x="18" y="28" width="28" height="1" color="#000000" stroke-width="1.8708"/>
<rect x="18" y="20" width="14" height="1" color="#000000" stroke-width="1.3229"/>
</g>
</svg>
