<svg width="64" height="64" version="1" xmlns="http://www.w3.org/2000/svg">
<g transform="matrix(1 0 0 1 -68 -1.0019)">
<path d="m83.345 14.001c-0.8363 0-1.389 0.47311-1.7235 1.3331l-9.2602 26.569c-0.07147 0.20507-0.05792 0.35307-0.1026 0.54112h55.604c-0.0102-0.05058 3e-3 -0.097-0.0136-0.14902l-9.5818-26.741c-0.2469-0.79532-0.87885-1.5342-1.532-1.5528z" fill="#8e8e8e" opacity=".9" stroke-width="3.7495"/>
<path d="m82.716 16.014c-0.8363 0-1.3799 0.39297-1.7144 1.1426l-8.6554 23.161s-0.3345 0.90941-0.3345 2.4121v13.068c0 1.4661 0.88014 2.2005 2.2162 2.2005h51.6c1.3178 0 2.1326-0.97257 2.1326-2.4969v-13.068s0.14178-1.0433-0.12544-1.7774l-8.9902-23.289c-0.24692-0.69324-0.85224-1.3381-1.5053-1.3542z" fill="none" stroke-width="3.5007"/>
<path d="m100 20.001c-8.8364 0-16 3.6311-16 8.1112v8.1112h16c8.8358 0 16-3.6311 16-8.1112 0-4.4797-7.1642-8.1112-16-8.1112zm0 3.2443c5.302 0 9.6 2.1787 9.6 4.8667 0 2.6877-4.298 4.8667-9.6 4.8667-5.302 0-9.6-2.1787-9.6-4.8667 0-2.6877 4.298-4.8667 9.6-4.8667z" opacity=".5" stroke-width="3.2221"/>
<path d="m83.194 16.628c-0.8051 0-1.3284 0.37833-1.6504 1.1-3e-6 0-8.5836 22.467-8.5836 22.467s-0.32206 0.87551-0.32206 2.3221v12.581c0 1.8346 0.59418 2.2031 2.1334 2.2031h50.426c1.7704 0 2.053-0.42847 2.053-2.4883v-12.581s0.13648-1.0044-0.12078-1.7111l-8.822-22.759c-0.23768-0.66738-0.73682-1.1189-1.3656-1.1344z" fill="none" stroke-width="3.5007"/>
<path d="m72.322 42.001c-0.1605 0.41695-0.26018 0.80596-0.2668 1.1375l-0.05476 0.04374v12.806c0 1.3405 0.88702 2.0123 2.2234 2.0123h51.64c1.3182 0 2.1346-0.88751 2.1346-2.2811v-12.531c6e-3 -0.04274-3e-3 -0.0875 0-0.13126v-0.26249l-0.0411-6e-3c-0.015-0.20985-1.2e-4 -0.41441-0.0889-0.63748l-0.0684-0.15z" fill="#8e8e8e" stroke-width="3.3479"/>
<path d="m128 55.719c0 1.3936-0.81657 2.2812-2.1348 2.2812h-51.641c-1.3364 0-2.2227-0.67126-2.2227-2.0117v1c0 1.3405 0.88628 2.0117 2.2227 2.0117h51.641c1.3182 0 2.1348-0.88763 2.1348-2.2812z" fill-opacity=".2" stroke-width="3.3479"/>
<path d="m83.344 14.002c-0.8363 0-1.3882 0.472-1.7227 1.332l-9.2598 26.57c-0.07147 0.20507-0.05884 0.35296-0.10352 0.54102h0.26367l9.0996-26.111c0.3345-0.86004 0.88636-1.332 1.7227-1.332h33.391c0.65309 0.01852 1.2863 0.75742 1.5332 1.5527l9.2754 25.891h0.31836c-0.0102-0.05058 3e-3 -0.09642-0.0137-0.14844l-9.5801-26.742c-0.2469-0.79532-0.88011-1.5342-1.5332-1.5527z" fill="#fff" fill-opacity=".1" opacity=".9" stroke-width="3.7495"/>
</g>
<g transform="translate(0,1.2e-4)">
<path d="M 63.958,45.848 A 16,16 0 0 1 48,61 16,16 0 0 1 32.042,46.152 16,16 0 0 0 32,47 16,16 0 0 0 48,63 16,16 0 0 0 64,47 16,16 0 0 0 63.95704,45.84766 Z" opacity=".2"/>
<circle cx="48" cy="46" r="16" fill="#8561c5"/>
<path d="m46 38-0.1764 2.1072a6.2858 6.2858 0 0 0-1.837 1.0625l-1.9152-0.9018-2 3.4642 1.7388 1.2076a6.2858 6.2858 0 0 0-0.096 1.0603 6.2858 6.2858 0 0 0 0.0914 1.0647l-1.7344 1.2031 2 3.4642 1.9107-0.89956a6.2858 6.2858 0 0 0 1.8415 1.0558l0.1764 2.1116h4l0.1764-2.1072a6.2858 6.2858 0 0 0 1.8371-1.0625l1.9152 0.9018 2-3.4642-1.7388-1.2076a6.2858 6.2858 0 0 0 0.096-1.0603 6.2858 6.2858 0 0 0-0.0914-1.0647l1.7344-1.2031-2-3.4642-1.9107 0.89956a6.2858 6.2858 0 0 0-1.842-1.056l-0.176-2.112h-4zm2 5.7144a2.2858 2.2858 0 0 1 2.286 2.286 2.2858 2.2858 0 0 1-2.286 2.286 2.2858 2.2858 0 0 1-2.286-2.286 2.2858 2.2858 0 0 1 2.286-2.286z" fill="#fff"/>
</g>
</svg>
