<svg width="64" height="64" version="1" xmlns="http://www.w3.org/2000/svg">
<rect x="4" y="9" width="56" height="48" rx="4" ry="4" opacity=".2"/>
<rect x="4" y="8" width="56" height="48" rx="4" ry="4" fill="#816130"/>
<g fill="#fff">
<path d="m8 8c-2.216 0-4 1.784-4 4v1c0-2.216 1.784-4 4-4h48c2.216 0 4 1.784 4 4v-1c0-2.216-1.784-4-4-4h-48z" opacity=".2"/>
<path d="m14.072 30.054c-6.133 3.6012-6.8984 8.4772-5.4376 11.363 1.5172 2.9974 4.0862 3.5446 7.1506 3.5674l5.1894 0.0146h0.05068l5.1894-0.0146c3.0642-0.02306 5.6332-0.5701 7.1506-3.5674 1.4608-2.8858 0.69538-7.762-5.4376-11.363-1.4526 1.5752-4.2056 2.499-6.9274 2.5252-2.722-0.02636-5.4748-0.94996-6.9274-2.5252z" color="#000000" fill-rule="evenodd" stroke-width="2.499"/>
<path d="m21 19c2.7618 0 5 2.2386 5 5 0 2.7618-2.2384 5-5 5-2.7612 0-5-2.2384-5-5 0-2.7612 2.2386-5 5-5z" stroke-width="1.6667"/>
<path d="m40.672 26.5c-4.7176 2.53-5.3066 5.9558-4.1828 7.9832 1.1671 2.1058 3.1432 2.4902 5.5006 2.5062l3.9916 0.0102h0.03898l3.9916-0.0102c2.357-0.0162 4.3332-0.40054 5.5006-2.5062 1.1237-2.0274 0.53492-5.453-4.1828-7.9832-1.1174 1.1067-3.2352 1.7556-5.3288 1.7741-2.0938-0.0186-4.2114-0.66736-5.3288-1.7741z" color="#000000" fill-rule="evenodd" stroke-width="1.8371"/>
<path d="m46 17c2.2094 0 4 1.7909 4 4 0 2.2094-1.7907 4-4 4-2.209 0-4-1.7907-4-4 0-2.209 1.7909-4 4-4z" stroke-width="1.3333"/>
</g>
<g fill-opacity=".2">
<path d="m16.025 24.5c-0.016309 0.16434-0.025391 0.33137-0.025391 0.5 0 2.7616 2.2388 5 5 5 2.7616 0 5-2.2382 5-5 0-0.16864-0.0091-0.33565-0.02539-0.5-0.2507 2.5271-2.3817 4.5-4.9746 4.5-2.5926 0-4.7239-1.9731-4.9746-4.5z" stroke-width="1.6667"/>
<path d="m8.0254 39.133c-0.093208 1.2275 0.1408 2.3594 0.60938 3.2852 1.5172 2.9974 4.086 3.5436 7.1504 3.5664l5.1895 0.015625h0.05078l5.1895-0.01563c3.0642-0.02306 5.633-0.56911 7.1504-3.5664 0.46857-0.92566 0.70259-2.0577 0.60938-3.2852-0.06077 0.84019-0.27144 1.6176-0.60938 2.2852-1.5174 2.9973-4.0862 3.5453-7.1504 3.5684l-5.1895 0.013677h-0.05078l-5.1895-0.01367c-3.0644-0.0228-5.6332-0.57096-7.1504-3.5684-0.33793-0.66768-0.54861-1.4449-0.60938-2.2852z" color="#000000" fill-rule="evenodd" stroke-width="2.499"/>
<path d="m42.051 21.5c-0.020864 0.1655-0.050781 0.32884-0.050781 0.5 0 2.2093 1.791 4 4 4 2.2093 0 4-1.7906 4-4 0-0.17116-0.02992-0.3345-0.05078-0.5-0.24839 1.9707-1.9111 3.5-3.9492 3.5-2.0378 0-3.7008-1.5293-3.9492-3.5z" stroke-width="1.3333"/>
<path d="m55.965 33.037c-0.06231 0.52896-0.21672 1.0207-0.45312 1.4473-1.1674 2.1057-3.143 2.4897-5.5 2.5059l-3.9922 0.0098h-0.03906l-3.9902-0.0098c-2.3574-0.016-4.3349-0.40006-5.502-2.5059-0.23556-0.42496-0.38837-0.9147-0.45117-1.4414-0.10284 0.91316 0.07241 1.7562 0.45117 2.4395 1.1671 2.1058 3.1446 2.4918 5.502 2.5078l3.9902 0.0098h0.03906l3.9922-0.0098c2.357-0.0162 4.3326-0.40215 5.5-2.5078 0.37951-0.68474 0.55739-1.53 0.45312-2.4453z" color="#000000" fill-rule="evenodd" stroke-width="1.8371"/>
</g>
</svg>
