<svg width="64" height="64" version="1" xmlns="http://www.w3.org/2000/svg">
<path d="m7.346 6.003h49.305c0.74709 0 1.3485 0.61837 1.3485 1.3865v49.223c0 0.76811-0.60143 1.3865-1.3485 1.3865h-46.767l-3.884-3.9934v-46.619c0-0.76811 0.60143-1.3865 1.3485-1.3865z" fill="#4967a2" stroke-width="2.6"/>
<rect x="14" y="12.001" width="36" height="24" fill="#fff" stroke-width="2.2886"/>
<path d="m17.954 39.801h24.09c1.0831 0 1.955 0.91809 1.955 2.0586v16.141h-28v-16.141c0-1.1404 0.87193-2.0586 1.955-2.0586z" fill="#858585" stroke-width="2.5726"/>
<rect x="21.999" y="42.001" width="7.9999" height="14" rx="1.1948" ry="1.0448" fill="#4967a2" stroke-width="2.7326"/>
<rect x="7.9996" y="11" width="4" height="2" rx=".25242" ry=".12621" fill-opacity=".2" opacity=".73864" stroke-width="2.8284"/>
<rect x="7.9996" y="8.0013" width="4" height="3.9998" rx=".25242" ry=".2524" opacity=".73864" stroke-width="3.9998"/>
<g fill-opacity=".2">
<path d="m6 54.006v1l3.8848 3.9941h46.768c0.74711 0 1.3477-0.61861 1.3477-1.3867v-1c0 0.76811-0.60054 1.3867-1.3477 1.3867h-46.768z" stroke-width="2.6"/>
<path d="m23.193 42c-0.66192 0-1.1934 0.46611-1.1934 1.0449v1c0-0.57881 0.53144-1.0449 1.1934-1.0449h5.6113c0.66192 0 1.1953 0.46611 1.1953 1.0449v-1c0-0.57881-0.53339-1.0449-1.1953-1.0449h-5.6113z" stroke-width="2.7326"/>
<path d="m14 36v1h36v-1z" stroke-width="2.2886"/>
</g>
<path d="m14 6v1h36v-1z" fill="#fff" fill-opacity=".1" stroke-width="2.2886"/>
<rect x="14" y="6.003" width="36" height="5.9981" rx=".15145" ry=".18925" fill="#d31c00" stroke-width="2.777"/>
<path d="m7.3477 6c-0.74711 0-1.3477 0.61861-1.3477 1.3867v1c0-0.76811 0.60054-1.3867 1.3477-1.3867l-0.0019531 0.0039062h49.307c0.74709 0 1.3477 0.61861 1.3477 1.3867v-1.002c0-0.76811-0.60056-1.3848-1.3477-1.3848h-49.307l0.0019531-0.0039062z" fill="#fff" fill-opacity=".1" stroke-width="2.6"/>
</svg>
