<svg width="64" height="64" version="1" xmlns="http://www.w3.org/2000/svg">
<circle cx="32" cy="33" r="28" fill="#00100f" opacity=".2"/>
<circle cx="32" cy="32" r="28" fill="#f5b35d"/>
<path d="m32 4a28 28 0 0 0-28 28 28 28 0 0 0 0.017578 0.49219 28 28 0 0 1 27.982-27.492 28 28 0 0 1 27.975 27.492 28 28 0 0 0 0.025391-0.49219 28 28 0 0 0-28-28z" fill="#fff" opacity=".2"/>
<path d="m24.007 29.755c-7.0765 4.1553-7.9596 9.7816-6.2741 13.112 1.7506 3.4586 4.7148 4.09 8.2506 4.1163l5.9877 0.01685h0.05848l5.9877-0.01685c3.5356-0.02661 6.4998-0.65782 8.2506-4.1163 1.6855-3.3298 0.80236-8.9564-6.2741-13.112-1.6761 1.8176-4.8526 2.8835-7.9931 2.9138-3.1407-0.03042-6.317-1.0961-7.9931-2.9138z" color="#000000" fill="#3f3f3f" fill-rule="evenodd" stroke-width="2.8835"/>
<path d="m32 17c3.3142 0 6 2.6864 6 6.0002 0 3.3143-2.6861 6.0002-6 6.0002-3.3134 0-6-2.6862-6-6.0002 0-3.3135 2.6863-6.0002 6-6.0002z" fill="#3f3f3f" stroke-width="2"/>
<path d="m26.025 23.5c-0.013678 0.16531-0.025391 0.33116-0.025391 0.5 0 3.314 2.6866 6 6 6 3.3139 0 6-2.6857 6-6 0-0.16885-0.01172-0.33468-0.02539-0.5-0.25472 3.0795-2.8296 5.5-5.9746 5.5-3.1446 0-5.7198-2.4206-5.9746-5.5z" fill-opacity=".2" stroke-width="2"/>
<path d="m17.02 40.148c-0.09318 1.389 0.18126 2.6683 0.71289 3.7188 1.7506 3.4586 4.7142 4.0889 8.25 4.1152l5.9883 0.017578h0.05859l5.9883-0.01758c3.5356-0.02661 6.4992-0.65673 8.25-4.1152 0.53163-1.0503 0.80608-2.3297 0.71289-3.7188-0.06137 1.0016-0.31183 1.9264-0.71289 2.7188-1.7508 3.4585-4.7144 4.0886-8.25 4.1152l-5.9883 0.01758h-0.05859l-5.9883-0.01758c-3.5358-0.02631-6.4994-0.65662-8.25-4.1152-0.40101-0.79233-0.65148-1.7172-0.71289-2.7188z" color="#000000" fill-opacity=".2" fill-rule="evenodd" stroke-width="2.8835"/>
</svg>
