<svg width="64" height="64" version="1" xmlns="http://www.w3.org/2000/svg" xmlns:xlink="http://www.w3.org/1999/xlink">
<defs>
<linearGradient id="linearGradient2707" x1="12.207" x2="12.128" y1="53.535" y2="64.893" gradientTransform="matrix(1.6075 0 0 .70286 -3.4628 -16.695)" gradientUnits="userSpaceOnUse">
<stop stop-color="#585956" offset="0"/>
<stop stop-color="#bbbeb8" offset="1"/>
</linearGradient>
<linearGradient id="linearGradient1010" x1="12.207" x2="12.128" y1="53.535" y2="64.893" gradientTransform="matrix(3.215,0,0,1.4057,-6.9257,-31.391)" gradientUnits="userSpaceOnUse" xlink:href="#linearGradient2707"/>
<linearGradient id="linearGradient897" x1="12.207" x2="12.128" y1="53.535" y2="64.893" gradientTransform="matrix(3.215,0,0,1.4065,-6.9257,-31.439)" gradientUnits="userSpaceOnUse" xlink:href="#linearGradient2707"/>
<filter id="filter948" color-interpolation-filters="sRGB">
<feFlood flood-color="rgb(0,0,0)" flood-opacity=".2" result="flood"/>
<feComposite in="flood" in2="SourceGraphic" operator="in" result="composite1"/>
<feGaussianBlur in="composite1" result="blur"/>
<feOffset dx="0" dy="1" result="offset"/>
<feComposite in="SourceGraphic" in2="offset" result="fbSourceGraphic"/>
<feColorMatrix in="fbSourceGraphic" result="fbSourceGraphicAlpha" values="0 0 0 -1 0 0 0 0 -1 0 0 0 0 -1 0 0 0 0 1 0"/>
<feFlood flood-color="rgb(255,255,255)" flood-opacity=".10196" in="fbSourceGraphic" result="flood"/>
<feComposite in="flood" in2="fbSourceGraphic" operator="out" result="composite1"/>
<feGaussianBlur in="composite1" result="blur"/>
<feOffset dx="0" dy="1" result="offset"/>
<feComposite in="offset" in2="fbSourceGraphic" operator="atop" result="composite2"/>
</filter>
<filter id="filter960" color-interpolation-filters="sRGB">
<feFlood flood-color="rgb(0,0,0)" flood-opacity=".2" result="flood"/>
<feComposite in="flood" in2="SourceGraphic" operator="in" result="composite1"/>
<feGaussianBlur in="composite1" result="blur"/>
<feOffset dx="0" dy="1" result="offset"/>
<feComposite in="SourceGraphic" in2="offset" result="composite2"/>
</filter>
</defs>
<ellipse cx="32" cy="54.5" rx="14" ry="5.5" color="#000000" fill="#adb0aa" fill-rule="evenodd" filter="url(#filter960)" stroke-width="3.6592"/>
<ellipse cx="31.994" cy="53.154" rx="12.631" ry="4.6124" color="#000000" fill="none" stroke-width="3.683"/>
<g fill-rule="evenodd">
<rect x="24" y="47" width="16" height="7" color="#000000" fill="url(#linearGradient897)" stroke-width="3.7417"/>
<path d="m6.3609 6c-1.583 0-2.3572 0.90737-2.3574 2.0292v37.045c-0.082346 1.6189 1.272 2.926 2.855 2.926h50.274c1.5829 0 2.9372-1.3073 2.855-2.926l0.0166-37.045c-0.060457-1.1849-1.0686-2.0292-2.3575-2.0292h-51.288z" color="#000000" fill="#dde1d9" filter="url(#filter948)" stroke-width="3.4999"/>
<path d="m8 9.9996-6.86e-5 32h48v-31.864z" fill="#1d83af" stroke-width="3.4916"/>
<path d="m24 52v2h16v-2z" color="#000000" fill="url(#linearGradient1010)" stroke-width="3.7406"/>
</g>
<g transform="translate(-1.688e-4,-3)">
<path d="m43 16a7 7 0 0 0-7 7 7 7 0 0 0 7 7 7 7 0 0 0 7-7 7 7 0 0 0-7-7zm-14 4a3 3 0 0 0-3 3 3 3 0 0 0 3 3 3 3 0 0 0 3-3 3 3 0 0 0-3-3zm-10 6a5 5 0 0 0-5 5 5 5 0 0 0 5 5 5 5 0 0 0 5-5 5 5 0 0 0-5-5zm27.941 8.9414a2 2 0 0 0-2 2 2 2 0 0 0 2 2 2 2 0 0 0 2-2 2 2 0 0 0-2-2zm-10.941 1.0586a4 4 0 0 0-4 4 4 4 0 0 0 4 4 4 4 0 0 0 4-4 4 4 0 0 0-4-4z" opacity=".2"/>
<circle cx="43" cy="22" r="7" fill="#f0f9fd"/>
<circle cx="19" cy="30" r="5" fill="#c4e7f5"/>
<circle cx="36" cy="39" r="4" fill="#a6daf0"/>
<circle cx="29" cy="22" r="3" fill="#c4e7f5"/>
<circle cx="46.941" cy="35.941" r="2" fill="#d3edf8"/>
</g>
<circle cx="48" cy="47" r="16" opacity=".2"/>
<circle cx="48" cy="46" r="16" fill="#c149c0"/>
<path d="m46 38-0.176 2.107a6.2858 6.2858 0 0 0-1.837 1.063l-1.916-0.902-2 3.464 1.739 1.208a6.2858 6.2858 0 0 0-0.096 1.06 6.2858 6.2858 0 0 0 0.092 1.065l-1.735 1.203 2 3.464 1.911-0.9a6.2858 6.2858 0 0 0 1.841 1.056l0.177 2.112h4l0.176-2.107a6.2858 6.2858 0 0 0 1.837-1.063l1.915 0.902 2-3.464-1.738-1.208a6.2858 6.2858 0 0 0 0.096-1.06 6.2858 6.2858 0 0 0-0.092-1.065l1.735-1.203-2-3.464-1.911 0.899a6.2858 6.2858 0 0 0-1.842-1.056l-0.176-2.112h-4zm2 5.714a2.2858 2.2858 0 0 1 2.286 2.286 2.2858 2.2858 0 0 1-2.286 2.286 2.2858 2.2858 0 0 1-2.286-2.286 2.2858 2.2858 0 0 1 2.286-2.286z" fill="#fff"/>
</svg>
