<svg width="64" height="64" version="1" xmlns="http://www.w3.org/2000/svg">
<defs>
<filter id="filter924" color-interpolation-filters="sRGB">
<feFlood flood-color="rgb(0,0,0)" flood-opacity=".2" result="flood"/>
<feComposite in="flood" in2="SourceGraphic" operator="in" result="composite1"/>
<feGaussianBlur in="composite1" result="blur"/>
<feOffset dx="0" dy="1" result="offset"/>
<feComposite in="SourceGraphic" in2="offset" result="fbSourceGraphic"/>
<feColorMatrix in="fbSourceGraphic" result="fbSourceGraphicAlpha" values="0 0 0 -1 0 0 0 0 -1 0 0 0 0 -1 0 0 0 0 1 0"/>
<feFlood flood-color="rgb(255,255,255)" flood-opacity=".10196" in="fbSourceGraphic" result="flood"/>
<feComposite in="flood" in2="fbSourceGraphic" operator="out" result="composite1"/>
<feGaussianBlur in="composite1" result="blur"/>
<feOffset dx="0" dy="1" result="offset"/>
<feComposite in="offset" in2="fbSourceGraphic" operator="atop" result="composite2"/>
</filter>
<filter id="filter936" color-interpolation-filters="sRGB">
<feFlood flood-color="rgb(0,0,0)" flood-opacity=".2" result="flood"/>
<feComposite in="flood" in2="SourceGraphic" operator="in" result="composite1"/>
<feGaussianBlur in="composite1" result="blur"/>
<feOffset dx="0" dy="1" result="offset"/>
<feComposite in="SourceGraphic" in2="offset" result="composite2"/>
</filter>
<filter id="filter948" color-interpolation-filters="sRGB">
<feFlood flood-color="rgb(0,0,0)" flood-opacity=".2" result="flood"/>
<feComposite in="flood" in2="SourceGraphic" operator="in" result="composite1"/>
<feGaussianBlur in="composite1" result="blur"/>
<feOffset dx="0" dy="1" result="offset"/>
<feComposite in="SourceGraphic" in2="offset" result="fbSourceGraphic"/>
<feColorMatrix in="fbSourceGraphic" result="fbSourceGraphicAlpha" values="0 0 0 -1 0 0 0 0 -1 0 0 0 0 -1 0 0 0 0 1 0"/>
<feFlood flood-color="rgb(255,255,255)" flood-opacity=".10196" in="fbSourceGraphic" result="flood"/>
<feComposite in="flood" in2="fbSourceGraphic" operator="out" result="composite1"/>
<feGaussianBlur in="composite1" result="blur"/>
<feOffset dx="0" dy="1" result="offset"/>
<feComposite in="offset" in2="fbSourceGraphic" operator="atop" result="composite2"/>
</filter>
<filter id="filter960" color-interpolation-filters="sRGB">
<feFlood flood-color="rgb(0,0,0)" flood-opacity=".2" result="flood"/>
<feComposite in="flood" in2="SourceGraphic" operator="in" result="composite1"/>
<feGaussianBlur in="composite1" result="blur"/>
<feOffset dx="0" dy="1" result="offset"/>
<feComposite in="SourceGraphic" in2="offset" result="composite2"/>
</filter>
</defs>
<rect transform="matrix(.98081 -.19497 .20014 .97977 0 0)" x="1.1566" y="11.213" width="37.993" height="47.348" rx="3.7225" ry="3.431" fill="#d3d7cf" fill-opacity=".99608" filter="url(#filter924)" opacity=".5" stroke-width="3.6118"/>
<path d="m14.517 14.226c-3.4667 4.8314-4.9643 6.272-4.5287 8.5144 0.42389 2.1796 3.5965 3.528 5.7496 1.678 0.30483 1.0979 0.73468 3.015 0.21701 3.9376 0.10649-0.02116 2.9819-0.55436 2.9819-0.55436-1e-6 0-1.2309-2.2658-1.648-3.8462 2.9999 1.1249 5.2205-1.1856 4.7247-3.722-0.51928-2.6598-2.2593-3.1948-7.4964-6.0072z" fill-rule="evenodd" filter="url(#filter936)" stroke-width="3.6117"/>
<rect transform="matrix(.96609 .25822 -.2554 .96683 0 0)" x="26.42" y="-.11699" width="36.431" height="46.208" rx="3.5693" ry="3.3486" fill="#d3d7cf" fill-opacity=".99608" filter="url(#filter948)" stroke-width="3.4999"/>
<path d="m38.857 28.063c4.7319-2.7594 8.9119 2.0568 7.9186 5.6038-0.90783 3.2424-3.7859 4.1452-11.521 8.2836-5.0129-7.099-6.9554-8.9456-5.8812-12.793 1.1108-3.9834 6.2956-5.8152 9.4843-1.0943z" fill="#c00" fill-rule="evenodd" filter="url(#filter960)" stroke-width="3.4999"/>
</svg>
