<svg width="64" height="64" version="1" xmlns="http://www.w3.org/2000/svg">
<defs>
<filter id="filter933" color-interpolation-filters="sRGB">
<feFlood flood-color="rgb(0,0,0)" flood-opacity=".2" result="flood"/>
<feComposite in="flood" in2="SourceGraphic" operator="in" result="composite1"/>
<feGaussianBlur in="composite1" result="blur"/>
<feOffset dx="0" dy="1" result="offset"/>
<feComposite in="SourceGraphic" in2="offset" result="fbSourceGraphic"/>
<feColorMatrix in="fbSourceGraphic" result="fbSourceGraphicAlpha" values="0 0 0 -1 0 0 0 0 -1 0 0 0 0 -1 0 0 0 0 1 0"/>
<feFlood flood-color="rgb(255,255,255)" flood-opacity=".10196" in="fbSourceGraphic" result="flood"/>
<feComposite in="flood" in2="fbSourceGraphic" operator="out" result="composite1"/>
<feGaussianBlur in="composite1" result="blur"/>
<feOffset dx="0" dy="1" result="offset"/>
<feComposite in="offset" in2="fbSourceGraphic" operator="atop" result="composite2"/>
</filter>
<filter id="filter945" color-interpolation-filters="sRGB">
<feFlood flood-color="rgb(0,0,0)" flood-opacity=".2" result="flood"/>
<feComposite in="flood" in2="SourceGraphic" operator="in" result="composite1"/>
<feGaussianBlur in="composite1" result="blur"/>
<feOffset dx="0" dy="1" result="offset"/>
<feComposite in="SourceGraphic" in2="offset" result="fbSourceGraphic"/>
<feColorMatrix in="fbSourceGraphic" result="fbSourceGraphicAlpha" values="0 0 0 -1 0 0 0 0 -1 0 0 0 0 -1 0 0 0 0 1 0"/>
<feFlood flood-color="rgb(255,255,255)" flood-opacity=".10196" in="fbSourceGraphic" result="flood"/>
<feComposite in="flood" in2="fbSourceGraphic" operator="out" result="composite1"/>
<feGaussianBlur in="composite1" result="blur"/>
<feOffset dx="0" dy="1" result="offset"/>
<feComposite in="offset" in2="fbSourceGraphic" operator="atop" result="composite2"/>
</filter>
<filter id="filter957" color-interpolation-filters="sRGB">
<feFlood flood-color="rgb(0,0,0)" flood-opacity=".2" result="flood"/>
<feComposite in="flood" in2="SourceGraphic" operator="in" result="composite1"/>
<feGaussianBlur in="composite1" result="blur"/>
<feOffset dx="0" dy="1" result="offset"/>
<feComposite in="SourceGraphic" in2="offset" result="fbSourceGraphic"/>
<feColorMatrix in="fbSourceGraphic" result="fbSourceGraphicAlpha" values="0 0 0 -1 0 0 0 0 -1 0 0 0 0 -1 0 0 0 0 1 0"/>
<feFlood flood-color="rgb(255,255,255)" flood-opacity=".10196" in="fbSourceGraphic" result="flood"/>
<feComposite in="flood" in2="fbSourceGraphic" operator="out" result="composite1"/>
<feGaussianBlur in="composite1" result="blur"/>
<feOffset dx="0" dy="1" result="offset"/>
<feComposite in="offset" in2="fbSourceGraphic" operator="atop" result="composite2"/>
</filter>
<filter id="filter969" color-interpolation-filters="sRGB">
<feFlood flood-color="rgb(0,0,0)" flood-opacity=".2" result="flood"/>
<feComposite in="flood" in2="SourceGraphic" operator="in" result="composite1"/>
<feGaussianBlur in="composite1" result="blur"/>
<feOffset dx="0" dy="1" result="offset"/>
<feComposite in="SourceGraphic" in2="offset" result="fbSourceGraphic"/>
<feColorMatrix in="fbSourceGraphic" result="fbSourceGraphicAlpha" values="0 0 0 -1 0 0 0 0 -1 0 0 0 0 -1 0 0 0 0 1 0"/>
<feFlood flood-color="rgb(255,255,255)" flood-opacity=".10196" in="fbSourceGraphic" result="flood"/>
<feComposite in="flood" in2="fbSourceGraphic" operator="out" result="composite1"/>
<feGaussianBlur in="composite1" result="blur"/>
<feOffset dx="0" dy="1" result="offset"/>
<feComposite in="offset" in2="fbSourceGraphic" operator="atop" result="composite2"/>
</filter>
<filter id="filter981" color-interpolation-filters="sRGB">
<feFlood flood-color="rgb(0,0,0)" flood-opacity=".2" result="flood"/>
<feComposite in="flood" in2="SourceGraphic" operator="in" result="composite1"/>
<feGaussianBlur in="composite1" result="blur"/>
<feOffset dx="0" dy="1" result="offset"/>
<feComposite in="SourceGraphic" in2="offset" result="fbSourceGraphic"/>
<feColorMatrix in="fbSourceGraphic" result="fbSourceGraphicAlpha" values="0 0 0 -1 0 0 0 0 -1 0 0 0 0 -1 0 0 0 0 1 0"/>
<feFlood flood-color="rgb(255,255,255)" flood-opacity=".10196" in="fbSourceGraphic" result="flood"/>
<feComposite in="flood" in2="fbSourceGraphic" operator="out" result="composite1"/>
<feGaussianBlur in="composite1" result="blur"/>
<feOffset dx="0" dy="1" result="offset"/>
<feComposite in="offset" in2="fbSourceGraphic" operator="atop" result="composite2"/>
</filter>
</defs>
<g stroke-width="3.25">
<path d="m30.638 6.0039c-0.5485 0.03753-1.0816 0.12248-1.6204 0.18413h-0.03684l-1.289 7.0334c-2.101 0.4784-4.0758 1.2887-5.854 2.392l-5.785-4.16c-1.563 1.2134-2.9838 2.6288-4.2334 4.1616l4.0124 5.855c-1.2188 1.8625-2.1338 3.9894-2.65 6.2234-8.8e-5 0.0106-7.1e-5 0.03498 0 0.03682l-6.996 1.1048c-0.12793 1.0448-0.18525 2.1246-0.18525 3.2038 0 0.88298 0.024388 1.7542 0.11048 2.6146l6.9972 1.252c0.49764 2.4298 1.443 4.6988 2.762 6.702l-4.1616 5.7076c1.1918 1.4795 2.5678 2.8264 4.0512 4.0136l5.8922-4.0508c2.0594 1.3136 4.358 2.2346 6.8498 2.6882l1.1048 6.96c0.78508 0.07148 1.5902 0.07364 2.3938 0.07364 1.1345 0 2.2182-0.043 3.3142-0.1841l1.3258-7.1072c2.3658-0.5887 4.5882-1.61 6.5186-2.9828l5.6712 4.1242c1.4708-1.2512 2.8158-2.6894 3.9772-4.2346l-4.1246-5.9658c1.117-1.929 1.8911-4.0574 2.2832-6.334l6.9602-1.1048c0.06102-0.7263 0.07364-1.4307 0.07364-2.1726 0-1.2894-0.1499-2.5536-0.33146-3.7932l-7.0708-1.2889c-0.55412-2.046-1.4633-3.955-2.6148-5.671l4.1616-5.7076c-1.2899-1.5774-2.7614-3.0344-4.3824-4.2716l-6.0026 4.1242c-1.7253-1.0203-3.5818-1.8032-5.5978-2.2464l-1.1048-6.9966c-1.0056-0.11828-2.0194-0.18412-3.0566-0.18412-0.28034 4e-7 -0.5688-0.00882-0.84702 0-0.13562 0.00428-0.26984-0.00788-0.40512 0-0.03664 0.00214-0.07392-0.0025-0.11048 0zm0.95752 17.897c0.13456-0.0068 0.26886 0 0.40512 0 4.3592 0 7.9182 3.5584 7.9182 7.9174 0 4.359-3.5584 7.8804-7.9182 7.8804-4.3592 2e-6 -7.881-3.5214-7.881-7.8804 2e-6 -4.2228 3.3052-7.7058 7.4762-7.9174z" color="#000000" fill="#729fcf" filter="url(#filter981)"/>
<ellipse cx="32.006" cy="31.802" rx="9.0977" ry="9.0969" color="#000000" fill="none" filter="url(#filter969)" opacity=".64773"/>
<path d="m29.822 7.3959-1.0349 6.8098c-1.9693 0.44842-5.5916 1.8199-7.2582 2.854l-5.5058-4.1094c-1.465 1.1374-1.5655 1.2145-2.737 2.651l3.981 5.9036c-1.1425 1.7458-2.5146 4.8568-3.0072 7.0798l-6.9758 1.1759c-0.11991 0.97932-0.062284 3.0754 0.01844 3.8818l6.6636 1.2003c0.46644 2.2774 2.212 5.9434 3.4482 7.8208l-4.2136 5.5666c1.1171 1.3868 1.3407 1.5137 2.731 2.6266l5.6346-4.1276c1.9303 1.2312 5.7616 2.729 8.097 3.154l0.92472 6.7242c0.73586 0.06698 2.7688 0.25486 3.7964 0.12258l1.0349-6.9998c2.2176-0.55184 6.0492-2.1246 7.8586-3.4112l5.6282 4.0664c1.3786-1.1728 1.3909-1.3495 2.4798-2.7982l-4.1708-5.928c1.047-1.8081 2.4008-5.3444 2.7686-7.478l6.829-1.133c0.0572-0.6808 0.05998-2.5792-0.11022-3.7406l-6.9574-1.2003c-0.51938-1.9178-2.3018-5.3734-3.381-6.9822l4.4218-5.5666c-1.2091-1.4785-1.6587-1.6814-3.178-2.841l-5.8244 4.1704c-1.6172-0.95635-4.8418-2.4142-6.7314-2.8296l-1.0289-6.6628c-0.94256-0.11087-3.6622-0.061636-4.2006 0z" color="#000000" fill="none" filter="url(#filter957)" opacity=".34659"/>
<path d="m16.052 11.454c-1.563 1.2134-2.9742 2.6596-4.2494 4.1922l4.0284 5.8244c-1.2188 1.853-2.4024 4.4492-2.6218 6.2594l-7.0242 1.1052c-0.079954 0.653-0.18525 2.2724-0.18525 2.2724l0.20492 1.8111c0.49582 0.10238 0.97391 0.19766 1.4852 0.25356l0.5796-1.7749c0.39882 0.03302 0.78786 0.07244 1.1954 0.07244 0.40714 0 0.83285-0.0392 1.2317-0.07244l0.54338 1.7749c0.51156-0.05592 1.0256-0.15116 1.5215-0.25356v-1.8112c0.79494-0.18502 1.5441-0.44944 2.2822-0.76066l1.0868 1.4851c0.46642-0.21108 0.8991-0.43564 1.3403-0.68822l-0.5796-1.7387c0.69232-0.4199 1.3467-0.92191 1.9562-1.4489l1.4852 1.0867c0.3775-0.34378 0.7432-0.7092 1.0868-1.0867l-1.0868-1.4489c0.52726-0.60942 0.99285-1.2633 1.4128-1.9561l1.7388 0.54332c0.25262-0.44146 0.51388-0.8741 0.7245-1.3402l-1.4852-1.0867c0.31122-0.73808 0.53902-1.4871 0.7245-2.282h1.8475c0.1024-0.4958 0.16166-1.0099 0.21736-1.5213l-1.7388-0.54332c0.03346-0.39856 0.07244-0.82424 0.07244-1.2316 0-0.40732-0.03944-0.79632-0.07244-1.1954l1.7388-0.54332c-0.0528-0.4867-0.1224-0.97599-0.21736-1.4489-1.3301 0.46284-2.2808 0.98165-3.4584 1.7123z" color="#000000" fill="#fff" filter="url(#filter945)" opacity=".5"/>
<path d="m48.458 22.618c-0.49136 0.24806-0.9559 0.52758-1.4255 0.81448l0.72932 2.3726c-0.89248 0.57758-1.7344 1.2578-2.5194 1.9831l-1.8896-1.4873c-0.48662 0.47308-0.94969 0.9677-1.3923 1.4873l1.3923 2.0186c-0.67898 0.83876-1.3155 1.7382-1.8565 2.6912l-0.69616-0.24788c-0.06108 0.95772-0.30264 1.862-0.663 2.6912l0.1326 0.10624c-0.40092 1.0157-0.72278 2.093-0.96136 3.1872h-1.8896c-0.17446 0.11688-0.34638 0.25308-0.5304 0.35412-0.10034 0.56796-0.17274 1.1178-0.23206 1.6998l2.2542 0.77908c-0.04274 0.54878-0.06628 1.1039-0.06628 1.6644 0 0.56062 0.0234 1.1156 0.06628 1.6644l-2.2542 0.77908c0.07174 0.70398 0.16642 1.4069 0.29836 2.0894l2.3538-0.03526c0.16404 0.75218 0.43878 1.5907 0.68066 2.3072 0.94101-0.41826 1.8362-0.93802 2.7006-1.4927-0.52698-1.6631-0.82876-3.459-0.82876-5.3118 2e-6 -7.1088 4.2152-13.179 10.111-15.51l-1.3923-0.2479c-0.2852-1.1251-0.6546-2.2274-1.1271-3.2578-0.014-0.03026-0.0188-0.07602-0.03302-0.10624l-0.0663-0.07084z" color="#000000" fill="#fff" filter="url(#filter933)" opacity=".5"/>
</g>
</svg>
