<svg width="64" height="64" version="1" xmlns="http://www.w3.org/2000/svg">
<path d="m6 11v50h52v-50z" fill="#c17d11" fill-rule="evenodd" stroke-width="3.6422"/>
<path d="m13.175 3-7.1746 8h52l-7.1746-8z" fill="#e9b96e" fill-rule="evenodd" stroke-width="3.8544"/>
<path d="m7.8928 10.354v49.036h48.216v-49.036l-6.1014-5.639h-36.012z" fill="none" stroke-width="3.6692"/>
<g fill-rule="evenodd">
<rect x="23.334" y="49.4" width="17.333" height="5.8" rx=".73632" ry=".512" color="#000000" fill="#c17d11" stroke-width="3.5448"/>
<path d="m15.594 17c-0.88188 0-1.5938 0.65646-1.5938 1.475v13.05c0 0.81856 0.71188 1.475 1.5938 1.475h8.866c-0.25244-0.09346-0.45118-0.24884-0.45118-0.475v-4.8924c0-0.31768 0.3381-0.57502 0.76174-0.57502h14.474c0.4236 0 0.76174 0.25732 0.76174 0.57502v4.8924c0 0.22618-0.19874 0.38154-0.45116 0.475h8.8518c0.88188 0 1.5938-0.65644 1.5938-1.475v-13.05c0-0.81856-0.71188-1.475-1.5938-1.475z" color="#000000" fill="#e9b96e" stroke-width="3.7946"/>
<path d="m15.594 41c-0.88188 0-1.5938 0.65644-1.5938 1.475v13.05c0 0.81856 0.71188 1.475 1.5938 1.475h8.866c-0.25244-0.09346-0.45118-0.24884-0.45118-0.475v-4.8924c0-0.31768 0.3381-0.57502 0.76174-0.57502h14.474c0.4236 0 0.76174 0.25732 0.76174 0.57502v4.8924c0 0.22618-0.19874 0.38154-0.45116 0.475h8.8518c0.88188 0 1.5938-0.65644 1.5938-1.475v-13.05c0-0.81856-0.71188-1.475-1.5938-1.475z" color="#000000" fill="#e9b96e" stroke-width="3.7946"/>
</g>
<g fill-opacity=".2" fill-rule="evenodd">
<path d="m24.77 27.057c-0.42364 0-0.76172 0.25849-0.76172 0.57617v1c0-0.31768 0.33808-0.57617 0.76172-0.57617h14.475c0.4236 0 0.76172 0.25847 0.76172 0.57617v-1c0-0.3177-0.33812-0.57617-0.76172-0.57617zm-10.77 4.4688v1c0 0.81856 0.71187 1.4746 1.5938 1.4746h8.8652c-0.25244-0.09346-0.45117-0.24845-0.45117-0.47461v-0.52539h-8.4141c-0.88188 0-1.5938-0.65605-1.5938-1.4746zm36 0c0 0.81858-0.71187 1.4746-1.5938 1.4746h-8.4004v0.52539c0 0.22618-0.19875 0.38115-0.45117 0.47461h8.8516c0.88188 0 1.5938-0.65603 1.5938-1.4746z" color="#000000" stroke-width="3.7946"/>
<path d="m24.77 51.057c-0.42364 0-0.76172 0.25849-0.76172 0.57617v1c0-0.31768 0.33808-0.57617 0.76172-0.57617h14.475c0.4236 0 0.76172 0.25847 0.76172 0.57617v-1c0-0.3177-0.33812-0.57617-0.76172-0.57617zm-10.77 4.4688v1c0 0.81856 0.71187 1.4746 1.5938 1.4746h8.8652c-0.25244-0.09346-0.45117-0.24845-0.45117-0.47461v-0.52539h-8.4141c-0.88188 0-1.5938-0.65605-1.5938-1.4746zm36 0c0 0.81858-0.71187 1.4746-1.5938 1.4746h-8.4004v0.52539c0 0.22618-0.19875 0.38115-0.45117 0.47461h8.8516c0.88188 0 1.5938-0.65603 1.5938-1.4746z" color="#000000" stroke-width="3.7946"/>
<rect x="6" y="61" width="52" height="1"/>
</g>
<path d="m13.174 3-7.1738 8h0.89648l6.2773-7h37.652l6.2773 7h0.89648l-7.1738-8h-37.652z" fill="#fff" fill-opacity=".1" fill-rule="evenodd" stroke-width="3.8544"/>
</svg>
