<svg width="64" height="64" version="1.1" xmlns="http://www.w3.org/2000/svg">
<g fill-rule="evenodd">
<path d="m7.0532 21.783c-0.054487-0.04333 2.1405 31.173 2.1411 31.183 0.2059 3.1174 1.9345 4.2569 3.8692 4.2614 0.06913 1.59e-4 36.295-4e-3 37.068-0.0073 3.2582-0.0137 4.0563-1.9977 4.2707-4.1656 0.01719-0.04274 2.211-31.228 2.2282-31.27h-49.577z" fill="#b5c051" stroke="#b5c051" stroke-width="1.5448"/>
<path d="m11.622 6.846c-1.291 0.00287-2.3714 0.031893-2.96 1.2269-0.10229 0.2077-3.2202 8.637-3.3701 8.9585-1.2833 2.752-0.099836 6.2186 2.3788 6.1954 0.47139-0.0042 48.842 0.0215 49.593 0 2.1099-0.05941 2.3799-4.0738 1.4717-5.8796-0.05146-0.1023-4.2671-9.3892-4.3747-9.5537-0.49729-0.73463-1.6109-1.0566-2.4382-1.0264-0.16296 0.00609-40.139 0.0786-40.3 0.078957z" fill="#eff3f4" stroke="#eff3f4" stroke-width="1.5291"/>
<path d="m11.853 9c-1.2172-0.014952-1.2965 0.043051-1.5705 0.86157-0.06325 0.18895-2.6116 7.6279-2.7114 7.9165-0.33971 0.9817 0.14066 1.2408 1.3195 1.2209 0.41762-7e-3 46.155 0 46.82 0 0.9439 0 1.2239-0.29547 1.0107-0.9928-0.086645-0.28335-3.6342-8.2258-3.7295-8.3674-0.44063-0.63171-0.36422-0.62987-1.1338-0.63878-0.14448-0.0016676-39.862 0.0017359-40.004-1.98e-5z" color="#000000" display="block" fill="#575955" stroke-width="1.2047"/>
<path d="m11 9c-0.45835 0.033695-0.4797 0.16447-0.67154 0.74527-0.06325 0.19149-2.6087 7.719-2.7087 8.0116-0.33971 0.99487 0.11094 1.2623 1.2898 1.2421 0.02042-3.48e-4 1.8638 2.87e-4 2.0904 0z" color="#000000" display="block" fill="#2e3436" stroke-width="1.2128"/>
<path d="m52 9c0.55707 0.00451 0.64355-0.00607 0.99967 0.63225 0.0487 0.087295 3.5523 7.9608 3.6781 8.2489 0.42781 1.1099-0.38698 1.0867-1.6793 1.1189-0.24551-3.43e-4 -2.7133-0.02577-2.9985-0.02605z" color="#000000" display="block" fill="#babdb6" stroke-width="1.2034"/>
<g transform="matrix(1.2358 0 0 1.2358 2.3397 2.3399)" fill="#fff">
<path d="m23.791 27.401 5.3918 0.41138 2.085-5.0759-2.467 1.7338s-1.0578-2.4672-1.8181-2.6655c-0.76028-0.19833-4.004-0.13222-4.004-0.13222 1.0317 0.25516 1.8336 2.028 1.8459 2.0481 0.32188 0.5252 1.2229 2.2925 1.2229 2.2925z" fill-opacity=".4881"/>
<path d="m24.458 23.89-1.7848 3.4047-3.6692-2.3139s1.6638-3.1403 2.975-3.1403c1.3223 0 1.9132 1.1398 2.479 2.0495z" color="#000000" fill-opacity=".30952"/>
<path d="m27.085 31.974-3.4763 4.1546 3.3174 4.2839 0.06136-2.6982s2.4435 0.2306 3.0043-0.31972c0.56082-0.55032 2.8939-3.325 2.8939-3.325-0.74906 0.75399-2.6819 0.53091-2.7055 0.53115-0.61596 0.0062-3.0538-0.05064-3.0538-0.05064z" fill-opacity=".4881"/>
<path d="m30.347 34.126-2.0037-3.2807 3.8705-1.9587s1.839 3.041 1.1653 4.1659c-0.67946 1.1344-1.9609 1.0556-3.032 1.0735z" color="#000000" fill-opacity=".30952"/>
<path d="m21.006 31.733-1.7161-4.5195-5.0041 0.35364 2.0542 1.4964s-1.4187 2.0028-1.2214 2.7634c0.19724 0.76057 1.31 3.9116 1.31 3.9116-0.27988-1.0253 0.87756-2.5893 0.88911-2.6099 0.30181-0.53698 1.5671-2.6216 1.5671-2.6216z" fill-opacity=".4881"/>
<path d="m17.573 33.558 3.8429-0.10035-0.23286 4.3316s-3.553 0.07712-4.1919-1.0679c-0.64427-1.1547 0.06313-2.226 0.58187-3.1634z" color="#000000" fill-opacity=".30952"/>
</g>
</g>
</svg>
