<svg width="64" height="64" version="1" xmlns="http://www.w3.org/2000/svg">
<path d="m60 44.322c0 0.82987-11.037 10.678-11.85 10.678h-42.682c-0.81333 0-1.4688-0.66818-1.4688-1.498v1c0 0.82987 0.65542 1.498 1.4688 1.498h42.682c0.81301 0 11.85-9.8479 11.85-10.678z" color="#000000" fill-opacity=".2" stroke-width="3.5824"/>
<path d="m5.4694 11h53.062c0.81333 0 1.4682 0.66811 1.4682 1.4979v31.824c0 0.82987-11.036 10.678-11.85 10.678h-42.682c-0.81333 0-1.4681-0.66807-1.4681-1.4979v-41.004c0-0.82987 0.65481-1.4979 1.4681-1.4979z" color="#000000" fill="#d2d2d2" stroke-width="3.5824"/>
<path d="m10 37v12h40.858v-3h3.1428v-9.0001z" fill="#8595bc" stroke-width="3.0706"/>
<path d="m10 17.308h44v19.693h-44z" fill="#d0d6e5" stroke-width="3.2104"/>
<path d="m26.001 24c0 2.7028-2.1622 5-5 5-2.7028 0-5-2.1622-5-5 0-2.7028 2.1622-5 5-5 2.7028 0 5 2.1622 5 5z" fill="#f2fa87" fill-opacity=".77255" stroke-width="3.3332"/>
<g fill="#515151" stroke-width="3.5">
<path d="m34.933 37.18h11.95l1.8007-1.1406h-3.9286s3.601-0.65183 4.0924-4.7256c0.4911-4.0738-5.5656-8.6363-5.5656-8.6363v0.16296c0.1637 0.97769 1.8007 7.8221 0.6548 10.429-0.4911 2.2814-1.9644 2.7702-1.9644 2.7702h-7.5301l0.3274 1.1406z"/>
<path d="m42.135 35.748h-6.8751l8.1849-12.385z"/>
</g>
<path d="m25.975 24.49c-0.24267 2.4847-2.31 4.5098-4.9746 4.5098-2.5421 0-4.7239-1.9134-4.9746-4.502-0.01653 0.1653-0.025391 0.33303-0.025391 0.50195 0 2.8378 2.2972 5 5 5 2.8378 0 5-2.2972 5-5 0-0.17274-0.0088-0.34236-0.02539-0.50977z" fill-opacity=".2" stroke-width="3.3332"/>
<g stroke-width="3.5">
<g fill="#515151">
<path d="m34.933 37.18h11.95l1.8007-1.1406h-3.9286s3.601-0.65183 4.0924-4.7256c0.4911-4.0738-5.5656-8.6363-5.5656-8.6363v0.16296c0.1637 0.97769 1.8007 7.8221 0.6548 10.429-0.4911 2.2814-1.9644 2.7702-1.9644 2.7702h-7.5301l0.3274 1.1406z"/>
<path d="m42.135 35.748h-6.8751l8.1849-12.385z"/>
<path d="m34.933 37.18h11.95l1.8007-1.1406h-3.9286s3.601-0.65183 4.0924-4.7256c0.4911-4.0738-5.5656-8.6363-5.5656-8.6363v0.16296c0.1637 0.97769 1.8007 7.8221 0.6548 10.429-0.4911 2.2814-1.9644 2.7702-1.9644 2.7702h-7.5301l0.3274 1.1406z"/>
<path d="m42.135 35.748h-6.8751l8.1849-12.385z"/>
</g>
<g fill-opacity=".2">
<path d="m43.445 24.363-0.12695 0.19141-1.1836 11.193h-6.2148l-0.66016 1h6.875z"/>
<path d="m43.281 23.678v0.16211c0.11692 0.69827 0.97163 4.3785 1.041 7.3809 0.11992-2.5312-0.513-5.7604-0.8418-7.3789-0.03205-0.0248-0.19922-0.16406-0.19922-0.16406zm5.5566 7.6895c-0.51723 4.0243-4.084 4.6719-4.084 4.6719h2.0605c0.8999-0.69266 1.8044-1.8274 2.0332-3.7246 0.03777-0.31329 0.02418-0.63049-0.0098-0.94726zm-14.396 5.6719 0.32812 1.1426 0.16406-2e-3h11.949l1.8008-1.1406h-1.5781l-0.22266 0.14063h-11.949l-0.16406 2e-3 -0.04102-0.14258z"/>
<path d="m59.984 44.869c-0.02162 0.03351-0.04626 0.05932-0.06836 0.0918-0.83536 4.7025-8.7651 9.8709-11.645 10-0.09955 0.49013-0.22128 0.88664-0.40234 0.99805 2.6498 0.43052 12.512-5.9116 12.115-11.09zm-11.57 1.8867s0.10069 1.8592 0.11524 3.8789c0.01857-1.5708-0.02607-2.9554-0.06836-3.8789-0.01606 5.93e-4 -0.03079-6.22e-4 -0.04688 0z" color="#000000" fill-rule="evenodd"/>
</g>
<path d="m47.869 54.958c2.6498 0.43052 12.514-5.9117 12.117-11.09-2.04 3.1622-6.2103 1.6792-11.572 1.8867 0 0 0.51596 8.5505-0.54436 9.2029z" color="#000000" fill="#7c7c7c" fill-rule="evenodd"/>
</g>
<path d="m5.4688 11c-0.81333 0-1.4688 0.66818-1.4688 1.498v1c0-0.82987 0.65542-1.498 1.4688-1.498h53.062c0.81333 0 1.4688 0.66822 1.4688 1.498v-1c0-0.82983-0.65542-1.498-1.4688-1.498z" color="#000000" fill="#fff" fill-opacity=".1" stroke-width="3.5824"/>
<circle cx="49" cy="48" r="15" opacity=".2"/>
<circle cx="49" cy="47" r="15" fill="#7bbe4d"/>
<rect x="46" y="42" width="6" height="14" rx=".888" ry=".906" fill="#fff"/>
<path d="m49 38 7 10h-7l-7-1e-6 3.5-5z" fill="#fff"/>
</svg>
