<svg width="24" height="24" version="1" xmlns="http://www.w3.org/2000/svg">
<defs>
<filter id="filter905" color-interpolation-filters="sRGB">
<feFlood flood-color="rgb(255,255,255)" flood-opacity=".10196" result="flood"/>
<feComposite in="flood" in2="SourceGraphic" operator="out" result="composite1"/>
<feGaussianBlur in="composite1" result="blur"/>
<feOffset dx="0" dy="0.5" result="offset"/>
<feComposite in="offset" in2="SourceGraphic" operator="atop" result="fbSourceGraphic"/>
<feColorMatrix in="fbSourceGraphic" result="fbSourceGraphicAlpha" values="0 0 0 -1 0 0 0 0 -1 0 0 0 0 -1 0 0 0 0 1 0"/>
<feFlood flood-color="rgb(0,0,0)" flood-opacity=".2" in="fbSourceGraphic" result="flood"/>
<feComposite in="flood" in2="fbSourceGraphic" operator="in" result="composite1"/>
<feGaussianBlur in="composite1" result="blur"/>
<feOffset dx="0" dy="0.5" result="offset"/>
<feComposite in="fbSourceGraphic" in2="offset" result="composite2"/>
</filter>
<filter id="filter881" color-interpolation-filters="sRGB">
<feFlood flood-color="rgb(0,0,0)" flood-opacity=".2" result="flood"/>
<feComposite in="flood" in2="SourceGraphic" operator="in" result="composite1"/>
<feGaussianBlur in="composite1" result="blur"/>
<feOffset dx="0" dy="0.5" result="offset"/>
<feComposite in="SourceGraphic" in2="offset" result="fbSourceGraphic"/>
<feColorMatrix in="fbSourceGraphic" result="fbSourceGraphicAlpha" values="0 0 0 -1 0 0 0 0 -1 0 0 0 0 -1 0 0 0 0 1 0"/>
<feFlood flood-color="rgb(255,255,255)" flood-opacity=".10196" in="fbSourceGraphic" result="flood"/>
<feComposite in="flood" in2="fbSourceGraphic" operator="out" result="composite1"/>
<feGaussianBlur in="composite1" result="blur"/>
<feOffset dx="0" dy="0.5" result="offset"/>
<feComposite in="offset" in2="fbSourceGraphic" operator="atop" result="composite2"/>
</filter>
</defs>
<g stroke-linejoin="round">
<path d="m3.6828 17.996c-0.21488-0.021337-0.42977-0.25386-0.42977-0.46504v-15.892c0-0.21118 0.21488-0.40103 0.42977-0.37969l13.633 1.3764c0.21488 0.021341 0.42976 0.25386 0.42976 0.46504v6.4938c0 0.30141 0.19398 0.61711 0.4908 0.71605l2.1345 0.56297c0.25925 0.08638 0.37604 0.27926 0.37604 0.67092v7.624c0 0.21118-0.21488 0.40103-0.42976 0.37969z" color="#000000" fill="#b9b9b9" filter="url(#filter905)" stroke="#b9b9b9" stroke-linecap="round" stroke-width=".50812"/>
<path d="m3.4631 1.3827c-0.10601 0.051979-0.21202 0.15594-0.21202 0.31189v16.738c0 0.10397 0.063318 0.26189 0.13253 0.35586 0.19628 0.26653 0.307 0.32907 0.48802 0.44863 1.8625 1.2301 9.6634 2.9172 9.6634 2.9172 0.106 0.05198 0.21202-0.05198 0.21202-0.20792v-17.55c0-0.15594-8.0743-0.83213-9.669-2.4437l-0.61543-0.62221z" color="#000000" display="block" fill="#6194cb" filter="url(#filter881)" stroke="#6194cb" stroke-width=".50401"/>
<path d="m10.84 8.803-4.3597-0.35229v5.0735c-0.30155-0.20929-0.57145-0.3305-1.0305-0.32622-0.79808 0.0075-1.37 0.4291-1.2824 0.93509 0.087557 0.50606 0.80496 0.91403 1.6031 0.90655 0.75419-7e-3 1.2191-0.3832 1.2042-0.85121l0.00251-4.5014 3.3694 0.15194v4.089c-1.8779-0.83661-2.3399 0.0755-2.2523 0.58157 0.087557 0.50606 0.80496 0.91403 1.6031 0.90654 0.70818-0.0066 1.0066-0.37332 1.0568-0.80084z" color="#000000" display="block" fill="#fff" opacity=".75" stroke="#fff" stroke-linecap="round" stroke-width=".31815"/>
</g>
</svg>
