<svg width="24" height="24" version="1" xmlns="http://www.w3.org/2000/svg">
<path d="m3.6866 1.966c-0.17456-0.00913-0.34212 0.12488-0.40111 0.29013-0.0082-0.02023-0.02105-0.03258-0.02854-0.0539v16.296c0 0.0021 0.0015 0.0042 0.0016 0.0063v1.3397c0.02261 0.5842 0.5637 1.0019 1.1923 1.0448 5.9267 0.40439 11.04 0.84818 11.04 0.84818 0.127 0.03684 0.25396-0.08627 0.25367-0.24574v-2.1832l4.5689 0.1411c0.21453 0.01122 0.42965-0.19154 0.42965-0.40587v-7.6083c0-0.21436-0.15516-0.58901-0.53428-0.66905l-1.8942-0.31391c-0.40762-0.08604-0.56916-0.47166-0.56916-0.72136v-6.8332c0-0.21431-0.21511-0.43904-0.42965-0.45026l-13.629-0.48196z" fill="#b9b9b9" stroke="#b9b9b9" stroke-linecap="round" stroke-linejoin="round" stroke-width=".51428"/>
</svg>
