<svg width="24" height="24" version="1" xmlns="http://www.w3.org/2000/svg">
<defs>
<filter id="filter1037-6" color-interpolation-filters="sRGB">
<feFlood flood-color="rgb(255,255,255)" flood-opacity=".10196" result="flood"/>
<feComposite in="flood" in2="SourceGraphic" operator="out" result="composite1"/>
<feGaussianBlur in="composite1" result="blur"/>
<feOffset dx="0" dy="0.5" result="offset"/>
<feComposite in="offset" in2="SourceGraphic" operator="atop" result="fbSourceGraphic"/>
<feColorMatrix in="fbSourceGraphic" result="fbSourceGraphicAlpha" values="0 0 0 -1 0 0 0 0 -1 0 0 0 0 -1 0 0 0 0 1 0"/>
<feFlood flood-color="rgb(0,0,0)" flood-opacity=".2" in="fbSourceGraphic" result="flood"/>
<feComposite in="flood" in2="fbSourceGraphic" operator="in" result="composite1"/>
<feGaussianBlur in="composite1" result="blur"/>
<feOffset dx="0" dy="0.5" result="offset"/>
<feComposite in="fbSourceGraphic" in2="offset" result="composite2"/>
</filter>
<filter id="filter1013-3" color-interpolation-filters="sRGB">
<feFlood flood-color="rgb(0,0,0)" flood-opacity=".2" result="flood"/>
<feComposite in="flood" in2="SourceGraphic" operator="in" result="composite1"/>
<feGaussianBlur in="composite1" result="blur"/>
<feOffset dx="0" dy="0.5" result="offset"/>
<feComposite in="SourceGraphic" in2="offset" result="fbSourceGraphic"/>
<feColorMatrix in="fbSourceGraphic" result="fbSourceGraphicAlpha" values="0 0 0 -1 0 0 0 0 -1 0 0 0 0 -1 0 0 0 0 1 0"/>
<feFlood flood-color="rgb(255,255,255)" flood-opacity=".10196" in="fbSourceGraphic" result="flood"/>
<feComposite in="flood" in2="fbSourceGraphic" operator="out" result="composite1"/>
<feGaussianBlur in="composite1" result="blur"/>
<feOffset dx="0" dy="0.5" result="offset"/>
<feComposite in="offset" in2="fbSourceGraphic" operator="atop" result="composite2"/>
</filter>
</defs>
<path d="m3.6847 18.994c-0.21459-0.01106-0.42918-0.23335-0.42918-0.44458v-15.895c0-0.21123 0.21459-0.4114 0.42918-0.40034l13.63 0.47514c0.21459 0.01106 0.42918 0.23335 0.42918 0.44457v6.7338c0 0.24611 0.16268 0.62636 0.5704 0.71116l1.8953 0.31021c0.37921 0.07889 0.53495 0.44762 0.53495 0.65889v7.4984c0 0.21123-0.21459 0.4114-0.42918 0.40034z" fill="#b9b9b9" filter="url(#filter1037-6)" stroke="#b9b9b9" stroke-linecap="round" stroke-linejoin="round" stroke-width=".51062"/>
<path d="m3.258 19.874c0.022878 0.5757 0.56917 0.988 1.205 1.0302 5.9958 0.3985 11.023 0.83511 11.023 0.83511 0.12848 0.0363 0.25698-0.0845 0.25698-0.24165v-17.298l-11.353-0.93118c-0.50986-0.05765-0.93698-0.23453-1.1338-0.78z" color="#000000" display="block" fill="#6194cb" filter="url(#filter1013-3)" stroke="#6194cb" stroke-linejoin="round" stroke-width=".51349"/>
<path d="m9.8802 13.779c-0.56 0.22084-1.081 0.18241-1.431 0.13194-0.417-0.05916-0.753-0.19666-0.9-0.30693-0.091-0.06736-0.215-0.05303-0.276 0.0337-0.062 0.08666-0.038 0.21234 0.053 0.27971 0.237 0.17757 0.656 0.32587 1.095 0.38857 0.074 0.01018 0.155 0.01984 0.243 0.02599 0.381 0.02664 0.866 0.02356 1.384-0.18122 0.099-0.03908 0.142-0.15407 0.096-0.25729-0.046-0.10222-0.165-0.15354-0.264-0.11446zm2.21-0.14046c0.019-1.7257 0.196-4.9773-3.11-4.9445-3.2645 0.03472-2.3989 3.5433-2.4476 4.6948-0.0431 0.60799-0.2459 1.3408-0.5324 2.0808l0.8824 0.0617c0.0907-0.31566 0.1576-0.62998 0.1866-0.93095 0.053 0.04071 0.11 0.08069 0.17 0.11889 0.099 0.06492 0.184 0.14887 0.274 0.23716 0.21 0.20568 0.448 0.43933 0.914 0.49891 0.031 0.0042 0.063 0.0074 0.093 0.0095 0.471 0.03293 0.793-0.15055 1.052-0.29844 0.124-0.07033 0.231-0.13085 0.332-0.15678 0.287-0.06993 0.537-0.19745 0.724-0.36837 0.029-0.02697 0.056-0.05408 0.082-0.08327 0.104 0.38927 0.247 0.82927 0.405 1.2693l1.884 0.13174c-0.452-0.73061-0.919-1.4473-0.909-2.3206zm-5.2416-1.3055-1e-4 -1e-3c-0.0324-0.56527 0.2377-1.0204 0.6027-1.0169 0.365 0.0045 0.687 0.46704 0.719 1.0333l1e-3 7e-5c1e-3 0.03007 2e-3 0.06014 2e-3 0.09014-0.116 0.02089-0.22 0.05562-0.313 0.09911-1e-3 -0.0051-1e-3 -0.0091-2e-3 -0.01314-0.031-0.32217-0.202-0.57612-0.381-0.56664-0.18 0.0094-0.3 0.27802-0.269 0.60019 0.014 0.14098 0.054 0.26878 0.11 0.36669-0.014 0.01002-0.054 0.03622-0.099 0.06608-0.034 0.02262-0.075 0.04975-0.125 0.08326-0.1359-0.1885-0.229-0.45101-0.2457-0.74118zm3.6986 1.6516c-0.013 0.29709-0.403 0.54982-0.762 0.63672l-3e-3 7.9e-4c-0.149 0.03858-0.283 0.11421-0.424 0.19535-0.237 0.13443-0.483 0.27523-0.837 0.25047-0.024-0.0017-0.048-0.0044-0.071-8e-3 -0.325-0.04173-0.477-0.19036-0.669-0.37878-0.102-0.10013-0.206-0.2024-0.342-0.29192l-2e-3 -0.0011c-0.292-0.18542-0.4736-0.40312-0.4852-0.58193-0.0057-0.0894 0.0338-0.16364 0.1172-0.2208 0.182-0.12327 0.304-0.20374 0.385-0.25708 0.09-0.05971 0.117-0.07782 0.137-0.09542 0.014-0.01202 0.029-0.02597 0.046-0.04178 0.167-0.15032 0.447-0.40274 0.876-0.37274 0.263 0.01839 0.553 0.13967 0.862 0.36028 0.146 0.10521 0.273 0.15809 0.434 0.22435 0.11 0.04569 0.235 0.09743 0.403 0.18118l3e-3 0.0012c0.156 0.07591 0.341 0.20584 0.332 0.39922zm-0.086-0.70601c-0.03-0.0171-0.061-0.03327-0.094-0.04957-0.151-0.07556-0.272-0.12702-0.373-0.16908 0.056-0.10508 0.09-0.23871 0.093-0.3855 8e-3 -0.35744-0.172-0.66003-0.403-0.67718-0.23-0.01708-0.423 0.25942-0.431 0.61686v0.035c-0.142-0.07493-0.282-0.13172-0.418-0.17123-1e-3 -0.01307-2e-3 -0.02714-2e-3 -0.04014-0.013-0.65391 0.387-1.1649 0.894-1.1435 0.507 0.02145 0.928 0.56889 0.942 1.2219 5e-3 0.29535-0.073 0.5619-0.208 0.76246z" fill="#fff" opacity=".75"/>
</svg>
