<svg width="24" height="24" version="1" xmlns="http://www.w3.org/2000/svg">
<defs>
<filter id="filter1037-0" color-interpolation-filters="sRGB">
<feFlood flood-color="rgb(255,255,255)" flood-opacity=".10196" result="flood"/>
<feComposite in="flood" in2="SourceGraphic" operator="out" result="composite1"/>
<feGaussianBlur in="composite1" result="blur"/>
<feOffset dx="0" dy="0.5" result="offset"/>
<feComposite in="offset" in2="SourceGraphic" operator="atop" result="fbSourceGraphic"/>
<feColorMatrix in="fbSourceGraphic" result="fbSourceGraphicAlpha" values="0 0 0 -1 0 0 0 0 -1 0 0 0 0 -1 0 0 0 0 1 0"/>
<feFlood flood-color="rgb(0,0,0)" flood-opacity=".2" in="fbSourceGraphic" result="flood"/>
<feComposite in="flood" in2="fbSourceGraphic" operator="in" result="composite1"/>
<feGaussianBlur in="composite1" result="blur"/>
<feOffset dx="0" dy="0.5" result="offset"/>
<feComposite in="fbSourceGraphic" in2="offset" result="composite2"/>
</filter>
<filter id="filter1013-19" color-interpolation-filters="sRGB">
<feFlood flood-color="rgb(0,0,0)" flood-opacity=".2" result="flood"/>
<feComposite in="flood" in2="SourceGraphic" operator="in" result="composite1"/>
<feGaussianBlur in="composite1" result="blur"/>
<feOffset dx="0" dy="0.5" result="offset"/>
<feComposite in="SourceGraphic" in2="offset" result="fbSourceGraphic"/>
<feColorMatrix in="fbSourceGraphic" result="fbSourceGraphicAlpha" values="0 0 0 -1 0 0 0 0 -1 0 0 0 0 -1 0 0 0 0 1 0"/>
<feFlood flood-color="rgb(255,255,255)" flood-opacity=".10196" in="fbSourceGraphic" result="flood"/>
<feComposite in="flood" in2="fbSourceGraphic" operator="out" result="composite1"/>
<feGaussianBlur in="composite1" result="blur"/>
<feOffset dx="0" dy="0.5" result="offset"/>
<feComposite in="offset" in2="fbSourceGraphic" operator="atop" result="composite2"/>
</filter>
</defs>
<path d="m3.6847 18.994c-0.21459-0.01106-0.42918-0.23335-0.42918-0.44458v-15.895c0-0.21123 0.21459-0.4114 0.42918-0.40034l13.63 0.47514c0.21459 0.01106 0.42918 0.23335 0.42918 0.44457v6.7338c0 0.24611 0.16268 0.62636 0.5704 0.71116l1.8953 0.31021c0.37921 0.07889 0.53495 0.44762 0.53495 0.65889v7.4984c0 0.21123-0.21459 0.4114-0.42918 0.40034z" fill="#b9b9b9" filter="url(#filter1037-0)" stroke="#b9b9b9" stroke-linecap="round" stroke-linejoin="round" stroke-width=".51062"/>
<path d="m3.258 19.874c0.022878 0.5757 0.56917 0.988 1.205 1.0302 5.9958 0.3985 11.023 0.83511 11.023 0.83511 0.12848 0.0363 0.25698-0.0845 0.25698-0.24165v-17.298l-11.353-0.93118c-0.50986-0.05765-0.93698-0.23453-1.1338-0.78z" color="#000000" display="block" fill="#6194cb" filter="url(#filter1013-19)" stroke="#6194cb" stroke-linejoin="round" stroke-width=".51349"/>
<path d="m6.4943 9.2448c-0.26978-0.021215-0.49464 0.18116-0.49464 0.45342v4.4931c0 0.27225 0.22486 0.51047 0.49464 0.53169l4.8351 0.3803c0.09678 0.0075 0.23372-0.05973 0.19007-0.03881 0.02769-0.01324 0.05338-0.02828 0.0802-0.04469l4.64e-4 3.5e-5c0.05322-0.03257 0.11327-0.07334 0.18126-0.12157 0.13662-0.09694 0.3037-0.22424 0.46868-0.3544 0.16494-0.13012 0.32663-0.26231 0.45198-0.37286 0.06289-0.05546 0.11622-0.10547 0.15948-0.15018 0.02011-0.02078 0.04153-0.0428 0.06351-0.07196-0.01994 0.02645 0.0031 0.0086 0.03383-0.04233 0.03074-0.0511 0.04079-0.11373 0.04079-0.17017v-3.4876c0-0.27225-0.22439-0.50997-0.49418-0.53119zm0.16179 0.66917 5.687 0.44732v2.718l-1.0399-0.08182 0.13536-0.07327-0.47655-0.03756s0.43648-0.04353 0.49602-0.52329-0.67451-1.0799-0.67451-1.0799v0.01947c9.58e-4 0.0056 0.0057 0.02954 0.0074 0.03813l-0.98003 1.3771 0.83348 0.06557 0.15345-1.4089c0.04336 0.21392 0.19145 0.90182 0.0649 1.1742-0.05954 0.26662-0.23829 0.31087-0.23829 0.31087l-0.9128-0.0718 0.024567 0.08584-3.0804-0.24229zm1.19 0.44082c-0.45652-0.03591-0.81359 0.30426-0.81359 0.7306 0 0.44571 0.37692 0.82419 0.81359 0.85859 0.45651 0.03591 0.81359-0.30426 0.81359-0.7306 0-0.4457-0.37692-0.82419-0.81359-0.85859z" fill="#fff" opacity=".75" stroke-width=".50001"/>
</svg>
