<svg width="24" height="24" version="1" xmlns="http://www.w3.org/2000/svg">
<defs>
<filter id="filter1037-1" color-interpolation-filters="sRGB">
<feFlood flood-color="rgb(255,255,255)" flood-opacity=".10196" result="flood"/>
<feComposite in="flood" in2="SourceGraphic" operator="out" result="composite1"/>
<feGaussianBlur in="composite1" result="blur"/>
<feOffset dx="0" dy="0.5" result="offset"/>
<feComposite in="offset" in2="SourceGraphic" operator="atop" result="fbSourceGraphic"/>
<feColorMatrix in="fbSourceGraphic" result="fbSourceGraphicAlpha" values="0 0 0 -1 0 0 0 0 -1 0 0 0 0 -1 0 0 0 0 1 0"/>
<feFlood flood-color="rgb(0,0,0)" flood-opacity=".2" in="fbSourceGraphic" result="flood"/>
<feComposite in="flood" in2="fbSourceGraphic" operator="in" result="composite1"/>
<feGaussianBlur in="composite1" result="blur"/>
<feOffset dx="0" dy="0.5" result="offset"/>
<feComposite in="fbSourceGraphic" in2="offset" result="composite2"/>
</filter>
<filter id="filter1013-21" color-interpolation-filters="sRGB">
<feFlood flood-color="rgb(0,0,0)" flood-opacity=".2" result="flood"/>
<feComposite in="flood" in2="SourceGraphic" operator="in" result="composite1"/>
<feGaussianBlur in="composite1" result="blur"/>
<feOffset dx="0" dy="0.5" result="offset"/>
<feComposite in="SourceGraphic" in2="offset" result="fbSourceGraphic"/>
<feColorMatrix in="fbSourceGraphic" result="fbSourceGraphicAlpha" values="0 0 0 -1 0 0 0 0 -1 0 0 0 0 -1 0 0 0 0 1 0"/>
<feFlood flood-color="rgb(255,255,255)" flood-opacity=".10196" in="fbSourceGraphic" result="flood"/>
<feComposite in="flood" in2="fbSourceGraphic" operator="out" result="composite1"/>
<feGaussianBlur in="composite1" result="blur"/>
<feOffset dx="0" dy="0.5" result="offset"/>
<feComposite in="offset" in2="fbSourceGraphic" operator="atop" result="composite2"/>
</filter>
</defs>
<g transform="translate(.99987 .95947)">
<path d="m2.6848 18.035c-0.21459-0.01106-0.42918-0.23335-0.42918-0.44458v-15.895c0-0.21123 0.21459-0.4114 0.42918-0.40034l13.63 0.47514c0.21459 0.01106 0.42918 0.23335 0.42918 0.44457v6.7338c0 0.24611 0.16268 0.62636 0.5704 0.71116l1.8953 0.31021c0.37921 0.078886 0.53495 0.44762 0.53495 0.65889v7.4984c0 0.21123-0.21459 0.4114-0.42918 0.40034z" fill="#b9b9b9" filter="url(#filter1037-1)" stroke="#b9b9b9" stroke-linecap="round" stroke-linejoin="round" stroke-width=".51062"/>
<path d="m2.2581 18.915c0.022878 0.5757 0.56917 0.988 1.205 1.0302 5.9958 0.3985 11.023 0.83511 11.023 0.83511 0.12848 0.0363 0.25698-0.0845 0.25698-0.24165v-17.298l-11.353-0.93118c-0.50986-0.05765-0.93698-0.23453-1.1338-0.78z" color="#000000" display="block" fill="#fdc36d" filter="url(#filter1013-21)" stroke="#fdc36d" stroke-linejoin="round" stroke-width=".51349"/>
<path d="m7.0945 8.0467c-1.6411 0.13554-3.01 1.4781-3.091 3.0813-0.085066 1.6822 1.2844 3.0555 3.0314 3.0402 0.85647-0.0075 1.6546-0.33987 2.2557-0.88155 0.030913 0.08647 0.085135 0.16928 0.14583 0.23951 0.055333 0.06141 0.12615 0.12059 0.20235 0.16297l2.0454 1.1987c0.38831 0.22756 0.91342 0.09812 1.1729-0.28911 0.25947-0.38724 0.15503-0.88562-0.23327-1.1132l-2.0454-1.1987c-0.13815-0.0841-0.30105-0.12951-0.46764-0.12262 0.15131-0.33885 0.23339-0.71101 0.25266-1.0921 0.08507-1.6822-1.272-3.043-3.0189-3.0276-0.081898 7.428e-4 -0.16949-0.00448-0.25019 0.00223zm0.10963 1.2156c0.024715-0.0011 0.054094-4.54e-4 0.079006-7.3e-4 1.0631-0.0093 1.8681 0.79805 1.8163 1.8217-0.051772 1.0236-0.93921 1.8459-2.0023 1.8552-1.0631 0.0093-1.8681-0.79804-1.8163-1.8216 0.050552-0.99962 0.89353-1.8086 1.9233-1.8545z" color="#000000" fill="#fff" fill-rule="evenodd" opacity=".75" stroke-width=".50001"/>
</g>
</svg>
