<svg width="24" height="24" version="1" xmlns="http://www.w3.org/2000/svg">
<defs>
<filter id="filter925-79" color-interpolation-filters="sRGB">
<feFlood flood-color="rgb(0,0,0)" flood-opacity=".2" result="flood"/>
<feComposite in="flood" in2="SourceGraphic" operator="in" result="composite1"/>
<feGaussianBlur in="composite1" result="blur"/>
<feOffset dx="0" dy="0.5" result="offset"/>
<feComposite in="SourceGraphic" in2="offset" result="fbSourceGraphic"/>
<feColorMatrix in="fbSourceGraphic" result="fbSourceGraphicAlpha" values="0 0 0 -1 0 0 0 0 -1 0 0 0 0 -1 0 0 0 0 1 0"/>
<feFlood flood-color="rgb(255,255,255)" flood-opacity=".10196" in="fbSourceGraphic" result="flood"/>
<feComposite in="flood" in2="fbSourceGraphic" operator="out" result="composite1"/>
<feGaussianBlur in="composite1" result="blur"/>
<feOffset dx="0" dy="0.5" result="offset"/>
<feComposite in="offset" in2="fbSourceGraphic" operator="atop" result="composite2"/>
</filter>
<filter id="filter937-016" color-interpolation-filters="sRGB">
<feFlood flood-color="rgb(0,0,0)" flood-opacity=".2" result="flood"/>
<feComposite in="flood" in2="SourceGraphic" operator="in" result="composite1"/>
<feGaussianBlur in="composite1" result="blur"/>
<feOffset dx="0" dy="0.5" result="offset"/>
<feComposite in="SourceGraphic" in2="offset" result="fbSourceGraphic"/>
<feColorMatrix in="fbSourceGraphic" result="fbSourceGraphicAlpha" values="0 0 0 -1 0 0 0 0 -1 0 0 0 0 -1 0 0 0 0 1 0"/>
<feFlood flood-color="rgb(255,255,255)" flood-opacity=".10196" in="fbSourceGraphic" result="flood"/>
<feComposite in="flood" in2="fbSourceGraphic" operator="out" result="composite1"/>
<feGaussianBlur in="composite1" result="blur"/>
<feOffset dx="0" dy="0.5" result="offset"/>
<feComposite in="offset" in2="fbSourceGraphic" operator="atop" result="composite2"/>
</filter>
</defs>
<path d="m3.6865 18.924c-0.21454-0.011221-0.42908-0.23676-0.42908-0.45108v-16.128c0-0.21432 0.21454-0.41742 0.42908-0.4062l14.031 0.48209c0.21454 0.011222 0.42908 0.23676 0.42908 0.45107v6.8323c0 0.24971 0.16264 0.63552 0.57026 0.72156l1.4909 0.31475c0.37912 0.08004 0.53482 0.45417 0.53482 0.66853v7.6081c0 0.21432-0.21454 0.41742-0.42908 0.4062z" fill="#b9b9b9" filter="url(#filter925-79)" stroke="#b9b9b9" stroke-linecap="round" stroke-linejoin="round" stroke-width=".51428"/>
<path d="m3.2585 19.818c0.022614 0.58421 0.56261 1.0026 1.1911 1.0454 5.9267 0.40439 10.896 0.84745 10.896 0.84745 0.127 0.03684 0.25402-0.08575 0.25402-0.24522v-17.554l-11.222-0.94494c-0.50399-0.058502-0.92619-0.238-1.1207-0.79153z" color="#000000" display="block" fill="#6194cb" filter="url(#filter937-016)" stroke="#6194cb" stroke-linejoin="round" stroke-width=".51428"/>
<path d="m6.2505 8.4987c-0.044139-0.00364-0.086509 7.91e-4 -0.125 0.01358-0.11547 0.038346-0.19727 0.14431-0.19727 0.27354v5.1934a0.51789 0.48326 46.436 0 1 0.36719-0.45938 0.51789 0.48326 46.436 0 1 0.13281-0.0071 0.51789 0.48326 46.436 0 1 0.5 0.53349 0.51789 0.48326 46.436 0 1-0.5 0.46651 0.51789 0.48326 46.436 0 1-0.5-0.53349v2.1602c0 0.17229 0.1457 0.32539 0.32227 0.33982l3.0762 0.25184a0.51789 0.48326 46.436 0 1-0.39844-0.51573 0.51789 0.48326 46.436 0 1 0.36719-0.45938 0.51789 0.48326 46.436 0 1 0.1328-0.0071 0.51789 0.48326 46.436 0 1 0.5 0.53349 0.51789 0.48326 46.436 0 1-0.40625 0.46412l3.084 0.25248c0.17658 0.01433 0.32227-0.11492 0.32227-0.28722v-2.1934a0.51789 0.48326 46.436 0 1-0.5 0.46651 0.51789 0.48326 46.436 0 1-0.5-0.53349 0.51789 0.48326 46.436 0 1 0.36719-0.45938 0.51789 0.48326 46.436 0 1 0.1328-0.0071 0.51789 0.48326 46.436 0 1 0.5 0.53349v-5.1602c0-0.1723-0.1457-0.32539-0.32227-0.33982zm3.2715 8.2476-0.19336-0.015218a0.51789 0.48326 46.436 0 0 0.09961 0.01761 0.51789 0.48326 46.436 0 0 0.09374-0.0024zm-0.093744-6.9976a0.51789 0.48326 46.436 0 1 0.5 0.53349 0.51789 0.48326 46.436 0 1-0.5 0.46651 0.51789 0.48326 46.436 0 1-0.5-0.53348 0.51789 0.48326 46.436 0 1 0.36719-0.45938 0.51789 0.48326 46.436 0 1 0.1328-0.00714zm-2 1.8426a0.51789 0.48326 46.436 0 1 0.5 0.53349 0.51789 0.48326 46.436 0 1-0.5 0.46651 0.51789 0.48326 46.436 0 1-0.5-0.53349 0.51789 0.48326 46.436 0 1 0.36719-0.45938 0.51789 0.48326 46.436 0 1 0.13281-0.0071zm2 0.1574a0.51789 0.48326 46.436 0 1 0.5 0.53349 0.51789 0.48326 46.436 0 1-0.5 0.46651 0.51789 0.48326 46.436 0 1-0.5-0.53349 0.51789 0.48326 46.436 0 1 0.36719-0.45938 0.51789 0.48326 46.436 0 1 0.1328-0.0071zm2 0.1574a0.51789 0.48326 46.436 0 1 0.5 0.53349 0.51789 0.48326 46.436 0 1-0.5 0.46651 0.51789 0.48326 46.436 0 1-0.5-0.53349 0.51789 0.48326 46.436 0 1 0.36719-0.45938 0.51789 0.48326 46.436 0 1 0.1328-0.0071zm-2 1.8426a0.51789 0.48326 46.436 0 1 0.5 0.53349 0.51789 0.48326 46.436 0 1-0.5 0.4665 0.51789 0.48326 46.436 0 1-0.5-0.53349 0.51789 0.48326 46.436 0 1 0.36719-0.45938 0.51789 0.48326 46.436 0 1 0.1328-0.0071z" color="#000000" color-rendering="auto" display="block" dominant-baseline="auto" fill="#fff" image-rendering="auto" opacity=".75" shape-rendering="auto" solid-color="#000000" stroke-width=".57623" style="font-feature-settings:normal;font-variant-alternates:normal;font-variant-caps:normal;font-variant-ligatures:normal;font-variant-numeric:normal;font-variant-position:normal;isolation:auto;mix-blend-mode:normal;shape-padding:0;text-decoration-color:#000000;text-decoration-line:none;text-decoration-style:solid;text-indent:0;text-orientation:mixed;text-transform:none;white-space:normal"/>
</svg>
