<svg width="24" height="24" version="1" xmlns="http://www.w3.org/2000/svg">
<defs>
<filter id="filter1037-02" color-interpolation-filters="sRGB">
<feFlood flood-color="rgb(255,255,255)" flood-opacity=".10196" result="flood"/>
<feComposite in="flood" in2="SourceGraphic" operator="out" result="composite1"/>
<feGaussianBlur in="composite1" result="blur"/>
<feOffset dx="0" dy="0.5" result="offset"/>
<feComposite in="offset" in2="SourceGraphic" operator="atop" result="fbSourceGraphic"/>
<feColorMatrix in="fbSourceGraphic" result="fbSourceGraphicAlpha" values="0 0 0 -1 0 0 0 0 -1 0 0 0 0 -1 0 0 0 0 1 0"/>
<feFlood flood-color="rgb(0,0,0)" flood-opacity=".2" in="fbSourceGraphic" result="flood"/>
<feComposite in="flood" in2="fbSourceGraphic" operator="in" result="composite1"/>
<feGaussianBlur in="composite1" result="blur"/>
<feOffset dx="0" dy="0.5" result="offset"/>
<feComposite in="fbSourceGraphic" in2="offset" result="composite2"/>
</filter>
<filter id="filter1013-24" color-interpolation-filters="sRGB">
<feFlood flood-color="rgb(0,0,0)" flood-opacity=".2" result="flood"/>
<feComposite in="flood" in2="SourceGraphic" operator="in" result="composite1"/>
<feGaussianBlur in="composite1" result="blur"/>
<feOffset dx="0" dy="0.5" result="offset"/>
<feComposite in="SourceGraphic" in2="offset" result="fbSourceGraphic"/>
<feColorMatrix in="fbSourceGraphic" result="fbSourceGraphicAlpha" values="0 0 0 -1 0 0 0 0 -1 0 0 0 0 -1 0 0 0 0 1 0"/>
<feFlood flood-color="rgb(255,255,255)" flood-opacity=".10196" in="fbSourceGraphic" result="flood"/>
<feComposite in="flood" in2="fbSourceGraphic" operator="out" result="composite1"/>
<feGaussianBlur in="composite1" result="blur"/>
<feOffset dx="0" dy="0.5" result="offset"/>
<feComposite in="offset" in2="fbSourceGraphic" operator="atop" result="composite2"/>
</filter>
</defs>
<path d="m3.6847 18.994c-0.21459-0.01106-0.42918-0.23335-0.42918-0.44458v-15.895c0-0.21123 0.21459-0.4114 0.42918-0.40034l13.63 0.47514c0.21459 0.01106 0.42918 0.23335 0.42918 0.44457v6.7338c0 0.24611 0.16268 0.62636 0.5704 0.71116l1.8953 0.31021c0.37921 0.07889 0.53495 0.44762 0.53495 0.65889v7.4984c0 0.21123-0.21459 0.4114-0.42918 0.40034z" fill="#b9b9b9" filter="url(#filter1037-02)" stroke="#b9b9b9" stroke-linecap="round" stroke-linejoin="round" stroke-width=".51062"/>
<path d="m3.258 19.874c0.022878 0.5757 0.56917 0.988 1.205 1.0302 5.9958 0.3985 11.023 0.83511 11.023 0.83511 0.12848 0.0363 0.25698-0.0845 0.25698-0.24165v-17.298l-11.353-0.93118c-0.50986-0.05765-0.93698-0.23453-1.1338-0.78z" color="#000000" display="block" fill="#6194cb" filter="url(#filter1013-24)" stroke="#6194cb" stroke-linejoin="round" stroke-width=".51349"/>
<path d="m8.9891 9.2111c-2-0.15741-1.5345 1.7063-2.5588 2.1757-0.035212 0.01748-0.055125 0.03503-0.086737 0.05167 0.67533-0.34848 1.5082-0.61929 2.3913-0.77704 0.74924-0.13341 1.5086-0.18164 2.2084-0.1412 0.018 0.0015 0.036 0.0028 0.054 0.0043-0.67499-0.24436-0.74924-1.2143-2.0081-1.3134zm2.1802 1.8343c-0.70087-0.04166-1.4602 0.0065-2.2084 0.14007-2.4679 0.44026-4.2264 1.6833-3.9281 2.7744 0.1719 0.6244 0.99989 1.0923 2.2339 1.2626-0.00112-0.0046-0.00225-0.0081-0.00225-0.01368-0.066937-0.58238 0.29925-1.0564 0.72899-1.3624 0.42975-0.30706 0.98211-0.51107 1.6031-0.59382s1.2015-0.03032 1.6875 0.15418c0.45674 0.17319 0.88649 0.50627 0.99224 1.0298 1.2364-0.59569 1.8776-1.381 1.692-2.0718-0.19687-0.72311-1.2701-1.2295-2.799-1.3194zm-0.73462 2.7535a1.061 1.9825 81.954 0 0-0.77399 0.01896 1.061 1.9825 81.954 0 0-1.845 1.3172 1.061 1.9825 81.954 0 0 2.0869 0.79198 1.061 1.9825 81.954 0 0 1.8427-1.3175 1.061 1.9825 81.954 0 0-1.3106-0.81077z" fill="#fff" opacity=".75" stroke-width="1.125"/>
</svg>
