<svg width="24" height="24" version="1" xmlns="http://www.w3.org/2000/svg">
<defs>
<filter id="filter1037" color-interpolation-filters="sRGB">
<feFlood flood-color="rgb(255,255,255)" flood-opacity=".10196" result="flood"/>
<feComposite in="flood" in2="SourceGraphic" operator="out" result="composite1"/>
<feGaussianBlur in="composite1" result="blur"/>
<feOffset dx="0" dy="0.5" result="offset"/>
<feComposite in="offset" in2="SourceGraphic" operator="atop" result="fbSourceGraphic"/>
<feColorMatrix in="fbSourceGraphic" result="fbSourceGraphicAlpha" values="0 0 0 -1 0 0 0 0 -1 0 0 0 0 -1 0 0 0 0 1 0"/>
<feFlood flood-color="rgb(0,0,0)" flood-opacity=".2" in="fbSourceGraphic" result="flood"/>
<feComposite in="flood" in2="fbSourceGraphic" operator="in" result="composite1"/>
<feGaussianBlur in="composite1" result="blur"/>
<feOffset dx="0" dy="0.5" result="offset"/>
<feComposite in="fbSourceGraphic" in2="offset" result="composite2"/>
</filter>
<filter id="filter1013" color-interpolation-filters="sRGB">
<feFlood flood-color="rgb(0,0,0)" flood-opacity=".2" result="flood"/>
<feComposite in="flood" in2="SourceGraphic" operator="in" result="composite1"/>
<feGaussianBlur in="composite1" result="blur"/>
<feOffset dx="0" dy="0.5" result="offset"/>
<feComposite in="SourceGraphic" in2="offset" result="fbSourceGraphic"/>
<feColorMatrix in="fbSourceGraphic" result="fbSourceGraphicAlpha" values="0 0 0 -1 0 0 0 0 -1 0 0 0 0 -1 0 0 0 0 1 0"/>
<feFlood flood-color="rgb(255,255,255)" flood-opacity=".10196" in="fbSourceGraphic" result="flood"/>
<feComposite in="flood" in2="fbSourceGraphic" operator="out" result="composite1"/>
<feGaussianBlur in="composite1" result="blur"/>
<feOffset dx="0" dy="0.5" result="offset"/>
<feComposite in="offset" in2="fbSourceGraphic" operator="atop" result="composite2"/>
</filter>
</defs>
<path d="m3.6847 18.994c-0.21459-0.01106-0.42918-0.23335-0.42918-0.44458v-15.895c0-0.21123 0.21459-0.4114 0.42918-0.40034l13.63 0.47514c0.21459 0.01106 0.42918 0.23335 0.42918 0.44457v6.7338c0 0.24611 0.16268 0.62636 0.5704 0.71116l1.8953 0.31021c0.37921 0.07889 0.53495 0.44762 0.53495 0.65889v7.4984c0 0.21123-0.21459 0.4114-0.42918 0.40034z" fill="#b9b9b9" filter="url(#filter1037)" stroke="#b9b9b9" stroke-linecap="round" stroke-linejoin="round" stroke-width=".51062"/>
<path d="m3.258 19.874c0.022878 0.5757 0.56917 0.988 1.205 1.0302 5.9958 0.3985 11.023 0.83511 11.023 0.83511 0.12848 0.0363 0.25698-0.0845 0.25698-0.24165v-17.298l-11.353-0.93118c-0.50986-0.05765-0.93698-0.23453-1.1338-0.78z" color="#000000" display="block" fill="#6194cb" filter="url(#filter1013)" stroke="#6194cb" stroke-linejoin="round" stroke-width=".51349"/>
<path d="m12.145 7.9649c-2.073-0.14209-2.4622 2.5758-1.2964 2.6557 1.1667 0.07997 3.3694-2.5137 1.2964-2.6557zm-3.2397 0.23537c-0.021467-0.00146-0.044801-0.00128-0.069069 7.547e-4 -0.79056 0.070234-0.51148 1.7581-0.09147 1.8179 0.40788 0.05815 0.85216-1.7649 0.16241-1.8186zm-1.4411 0.35865c-0.056935-0.00851-0.11854 1.089e-4 -0.18798 0.030117-0.74034 0.31611-0.11182 1.876 0.30278 1.802 0.37615-0.06662 0.42935-1.7527-0.1148-1.8321zm-1.032 0.84412c-0.065989-0.00723-0.13702 0.017135-0.21327 0.081441-0.60837 0.52094 0.20525 1.9371 0.56328 1.7512 0.31305-0.16335 0.11256-1.7799-0.35001-1.8326zm3.7733 1.1735c-1.4523-0.12608-3.3681 0.52756-3.6949 2.0806-0.35346 1.6801 1.4586 4.1702 3.3468 4.2996 0.9287 0.06365 1.9993-0.94798 2.1999-2.0797 0.15307-0.86137-1.8947-0.65316-1.8247-0.07109 0.084 0.69739-0.47135 1.1854-1.0155 0.70254-1.7323-1.5395 2.9634-1.9267 2.6601-3.8879-0.0952-0.61124-0.80083-0.967-1.6717-1.0422z" fill="#fff" opacity=".75" stroke-width=".92406"/>
</svg>
