<svg width="24" height="24" version="1" xmlns="http://www.w3.org/2000/svg">
<defs>
<filter id="filter905-0" color-interpolation-filters="sRGB">
<feFlood flood-color="rgb(255,255,255)" flood-opacity=".10196" result="flood"/>
<feComposite in="flood" in2="SourceGraphic" operator="out" result="composite1"/>
<feGaussianBlur in="composite1" result="blur"/>
<feOffset dx="0" dy="0.5" result="offset"/>
<feComposite in="offset" in2="SourceGraphic" operator="atop" result="fbSourceGraphic"/>
<feColorMatrix in="fbSourceGraphic" result="fbSourceGraphicAlpha" values="0 0 0 -1 0 0 0 0 -1 0 0 0 0 -1 0 0 0 0 1 0"/>
<feFlood flood-color="rgb(0,0,0)" flood-opacity=".2" in="fbSourceGraphic" result="flood"/>
<feComposite in="flood" in2="fbSourceGraphic" operator="in" result="composite1"/>
<feGaussianBlur in="composite1" result="blur"/>
<feOffset dx="0" dy="0.5" result="offset"/>
<feComposite in="fbSourceGraphic" in2="offset" result="composite2"/>
</filter>
<filter id="filter881-4" color-interpolation-filters="sRGB">
<feFlood flood-color="rgb(0,0,0)" flood-opacity=".2" result="flood"/>
<feComposite in="flood" in2="SourceGraphic" operator="in" result="composite1"/>
<feGaussianBlur in="composite1" result="blur"/>
<feOffset dx="0" dy="0.5" result="offset"/>
<feComposite in="SourceGraphic" in2="offset" result="fbSourceGraphic"/>
<feColorMatrix in="fbSourceGraphic" result="fbSourceGraphicAlpha" values="0 0 0 -1 0 0 0 0 -1 0 0 0 0 -1 0 0 0 0 1 0"/>
<feFlood flood-color="rgb(255,255,255)" flood-opacity=".10196" in="fbSourceGraphic" result="flood"/>
<feComposite in="flood" in2="fbSourceGraphic" operator="out" result="composite1"/>
<feGaussianBlur in="composite1" result="blur"/>
<feOffset dx="0" dy="0.5" result="offset"/>
<feComposite in="offset" in2="fbSourceGraphic" operator="atop" result="composite2"/>
</filter>
</defs>
<path d="m3.6828 17.996c-0.21488-0.021337-0.42977-0.25386-0.42977-0.46504v-15.892c0-0.21118 0.21488-0.40103 0.42977-0.37969l13.633 1.3764c0.21488 0.021341 0.42976 0.25386 0.42976 0.46504v6.4938c0 0.30141 0.19398 0.61711 0.4908 0.71605l2.1345 0.56297c0.25925 0.08638 0.37604 0.27926 0.37604 0.67092v7.624c0 0.21118-0.21488 0.40103-0.42976 0.37969z" color="#000000" fill="#b9b9b9" filter="url(#filter905-0)" stroke="#b9b9b9" stroke-linecap="round" stroke-linejoin="round" stroke-width=".50812"/>
<path d="m3.4631 1.3832c-0.10601 0.051979-0.21202 0.15594-0.21202 0.31189v16.738c0 0.10397 0.063318 0.26189 0.13253 0.35586 0.19628 0.26653 0.307 0.32907 0.48802 0.44863 1.8625 1.2301 9.6634 2.9172 9.6634 2.9172 0.106 0.05198 0.21202-0.05198 0.21202-0.20792v-17.55c0-0.15594-8.0743-0.83213-9.669-2.4437l-0.61543-0.62221z" color="#000000" display="block" fill="#6194cb" filter="url(#filter881-4)" stroke="#6194cb" stroke-linejoin="round" stroke-width=".50401"/>
<path d="m6.2302 8.0609c-0.03153-0.00857-0.06179-0.011127-0.08929-0.0072-0.08248 0.01178-0.14091 0.076411-0.14091 0.16872v3.7095a0.40647 0.31414 48.8 0 1 0.26228-0.27849 0.40647 0.31414 48.8 0 1 0.09486 0.01285 0.40647 0.31414 48.8 0 1 0.35714 0.44865 0.40647 0.31414 48.8 0 1-0.35714 0.26563 0.40647 0.31414 48.8 0 1-0.35714-0.44865v1.543c0 0.12306 0.10407 0.25211 0.23019 0.28629l2.1973 0.59576a0.40647 0.31414 48.8 0 1-0.2846-0.42224 0.40647 0.31414 48.8 0 1 0.26228-0.27849 0.40647 0.31414 48.8 0 1 0.09486 0.01285 0.40647 0.31414 48.8 0 1 0.35714 0.44865 0.40647 0.31414 48.8 0 1-0.29018 0.2766l2.2028 0.59725c0.12613 0.03416 0.23019-0.03847 0.23019-0.16153v-1.5667a0.40647 0.31414 48.8 0 1-0.35714 0.26563 0.40647 0.31414 48.8 0 1-0.35714-0.44865 0.40647 0.31414 48.8 0 1 0.26228-0.27849 0.40647 0.31414 48.8 0 1 0.09486 0.01285 0.40647 0.31414 48.8 0 1 0.35714 0.44865v-3.6859c0-0.12307-0.10407-0.25212-0.23019-0.28629zm2.3368 6.3334-0.13811-0.03701a0.40647 0.31414 48.8 0 0 0.07115 0.02606 0.40647 0.31414 48.8 0 0 0.06696 0.01094zm-0.06696-5.0109a0.40647 0.31414 48.8 0 1 0.35714 0.44865 0.40647 0.31414 48.8 0 1-0.35714 0.26563 0.40647 0.31414 48.8 0 1-0.35714-0.44865 0.40647 0.31414 48.8 0 1 0.26228-0.27849 0.40647 0.31414 48.8 0 1 0.09486 0.012852zm-1.4286 1.0458a0.40647 0.31414 48.8 0 1 0.35714 0.44865 0.40647 0.31414 48.8 0 1-0.35714 0.26563 0.40647 0.31414 48.8 0 1-0.35714-0.44865 0.40647 0.31414 48.8 0 1 0.26228-0.27849 0.40647 0.31414 48.8 0 1 0.09486 0.01286zm1.4286 0.38278a0.40647 0.31414 48.8 0 1 0.35714 0.44865 0.40647 0.31414 48.8 0 1-0.35714 0.26563 0.40647 0.31414 48.8 0 1-0.35714-0.44865 0.40647 0.31414 48.8 0 1 0.26228-0.27849 0.40647 0.31414 48.8 0 1 0.09486 0.01285zm1.4286 0.38278a0.40647 0.31414 48.8 0 1 0.35714 0.44865 0.40647 0.31414 48.8 0 1-0.35714 0.26563 0.40647 0.31414 48.8 0 1-0.35714-0.44865 0.40647 0.31414 48.8 0 1 0.26228-0.27849 0.40647 0.31414 48.8 0 1 0.09486 0.01285zm-1.4286 1.0458a0.40647 0.31414 48.8 0 1 0.35714 0.44865 0.40647 0.31414 48.8 0 1-0.35714 0.26563 0.40647 0.31414 48.8 0 1-0.35714-0.44865 0.40647 0.31414 48.8 0 1 0.26228-0.27849 0.40647 0.31414 48.8 0 1 0.09486 0.01285z" color="#000000" color-rendering="auto" display="block" dominant-baseline="auto" fill="#fff" image-rendering="auto" opacity=".75" shape-rendering="auto" solid-color="#000000" stroke-width=".41159" style="font-feature-settings:normal;font-variant-alternates:normal;font-variant-caps:normal;font-variant-ligatures:normal;font-variant-numeric:normal;font-variant-position:normal;isolation:auto;mix-blend-mode:normal;shape-padding:0;text-decoration-color:#000000;text-decoration-line:none;text-decoration-style:solid;text-indent:0;text-orientation:mixed;text-transform:none;white-space:normal"/>
</svg>
