<svg width="24" height="24" version="1" xmlns="http://www.w3.org/2000/svg">
<defs>
<filter id="filter1037" color-interpolation-filters="sRGB">
<feFlood flood-color="rgb(255,255,255)" flood-opacity=".10196" result="flood"/>
<feComposite in="flood" in2="SourceGraphic" operator="out" result="composite1"/>
<feGaussianBlur in="composite1" result="blur"/>
<feOffset dx="0" dy="0.5" result="offset"/>
<feComposite in="offset" in2="SourceGraphic" operator="atop" result="fbSourceGraphic"/>
<feColorMatrix in="fbSourceGraphic" result="fbSourceGraphicAlpha" values="0 0 0 -1 0 0 0 0 -1 0 0 0 0 -1 0 0 0 0 1 0"/>
<feFlood flood-color="rgb(0,0,0)" flood-opacity=".2" in="fbSourceGraphic" result="flood"/>
<feComposite in="flood" in2="fbSourceGraphic" operator="in" result="composite1"/>
<feGaussianBlur in="composite1" result="blur"/>
<feOffset dx="0" dy="0.5" result="offset"/>
<feComposite in="fbSourceGraphic" in2="offset" result="composite2"/>
</filter>
<filter id="filter1013" color-interpolation-filters="sRGB">
<feFlood flood-color="rgb(0,0,0)" flood-opacity=".2" result="flood"/>
<feComposite in="flood" in2="SourceGraphic" operator="in" result="composite1"/>
<feGaussianBlur in="composite1" result="blur"/>
<feOffset dx="0" dy="0.5" result="offset"/>
<feComposite in="SourceGraphic" in2="offset" result="fbSourceGraphic"/>
<feColorMatrix in="fbSourceGraphic" result="fbSourceGraphicAlpha" values="0 0 0 -1 0 0 0 0 -1 0 0 0 0 -1 0 0 0 0 1 0"/>
<feFlood flood-color="rgb(255,255,255)" flood-opacity=".10196" in="fbSourceGraphic" result="flood"/>
<feComposite in="flood" in2="fbSourceGraphic" operator="out" result="composite1"/>
<feGaussianBlur in="composite1" result="blur"/>
<feOffset dx="0" dy="0.5" result="offset"/>
<feComposite in="offset" in2="fbSourceGraphic" operator="atop" result="composite2"/>
</filter>
</defs>
<path d="m3.6847 18.994c-0.21459-0.01106-0.42918-0.23335-0.42918-0.44458v-15.895c0-0.21123 0.21459-0.4114 0.42918-0.40034l13.63 0.47514c0.21459 0.01106 0.42918 0.23335 0.42918 0.44457v6.7338c0 0.24611 0.16268 0.62636 0.5704 0.71116l1.8953 0.31021c0.37921 0.07889 0.53495 0.44762 0.53495 0.65889v7.4984c0 0.21123-0.21459 0.4114-0.42918 0.40034z" fill="#b9b9b9" filter="url(#filter1037)" stroke="#b9b9b9" stroke-linecap="round" stroke-linejoin="round" stroke-width=".51062"/>
<path d="m3.258 19.874c0.022878 0.5757 0.56917 0.988 1.205 1.0302 5.9958 0.3985 11.023 0.83511 11.023 0.83511 0.12848 0.0363 0.25698-0.0845 0.25698-0.24165v-17.298l-11.353-0.93118c-0.50986-0.05765-0.93698-0.23453-1.1338-0.78z" color="#000000" display="block" fill="#6194cb" filter="url(#filter1013)" stroke="#6194cb" stroke-linejoin="round" stroke-width=".51349"/>
<path d="m9.5055 9.0043c-1.939-0.1526-3.5 1.2856-3.5 3.2246 0 1.5632 1.015 2.9587 2.4242 3.5216v-0.81425c-0.88594 0.12578-1.0724-0.47405-1.0724-0.47405-0.1449-0.3853-0.35376-0.50123-0.35376-0.50123-0.28921-0.22339 0.021368-0.1957 0.021368-0.1957 0.31969 0.04799 0.48792 0.37251 0.48792 0.37251 0.28411 0.51687 0.74568 0.4107 0.92715 0.34213 0.028945-0.20673 0.1116-0.25651 0.20252-0.33022-0.70722-0.13734-1.2891-0.80308-1.3202-1.441-0.019031-0.38967 0.31699-0.79219 0.52073-1.0022-0.032856-0.08445-0.14266-0.77224 0.030756-1.204 0 0 0.016713-0.0039 0.051266-0.0028 0.10364 0.0033 0.33679 0.3055 0.79297 0.65548 0.27542-0.05745 0.56746-0.07147 0.7875-0.05594 0.24812 0.01752 0.49868 0.07988 0.75758 0.17755 0.45631-0.27817 0.74783-0.53988 0.85108-0.52694l8.75e-4 6.8e-5c0.03452 0.0043 0.05127 0.01086 0.05127 0.01086 0.17383 0.45908 0.06427 1.1305 0.03162 1.2098 0.2041 0.24217 0.49878 0.69756 0.49508 1.0822-0.0078 0.81352-0.74413 1.1958-1.4535 1.22 0.11419 0.10891 0.1427 0.3093 0.1427 0.61108 0 0.36449-8.75e-4 0.60134-0.0017 0.75182v0.32386c1.5123-0.26803 2.625-1.5435 2.625-3.1798 0-1.939-1.561-3.6229-3.5-3.7755z" fill="#fff" opacity=".75" stroke-width=".875"/>
</svg>
