<svg width="24" height="24" version="1" xmlns="http://www.w3.org/2000/svg">
<g transform="translate(-24)" stroke-width="2.1303">
<g transform="matrix(.24846 0 0 .24687 -1.549 -22.121)" fill="none" stroke="#000" stroke-opacity=".2">
<path d="m148.53 163.19c-0.26074-0.66602-0.60742-1.4238-1.0293-2.2266l-2.6328 1.125c-1.8701-3.084-1.9834-9.5312-1.6338-11.615 0.83887-5 3.1377-9.4209 1.5625-14.53-1.8115-5.876-5.6768-15.04-11.895-17.446-3.5879-1.3887-6.3232 1.7402-8.0879 4.4873-2.7051 4.2119-4.1904 9.3203-4.6611 14.278-0.53418 5.6133 0.8164 11.363 3.4609 16.322 2.54 4.7656 6.8018 8.7598 8.5039 13.953l-2.2978 0.98242c0.16406 0.53321 0.3418 1.0488 0.53223 1.5332 1.8496 4.7207 8.0674 14.137 14.513 10.945 6.5596-3.25 5.8184-12.311 3.665-17.809z"/>
<path d="m148.53 163.19c-0.26074-0.66602-0.60742-1.4238-1.0293-2.2266l-2.6328 1.125c-1.8701-3.084-1.9834-9.5312-1.6338-11.615 0.83887-5 3.1377-9.4209 1.5625-14.53-1.8115-5.876-5.6768-15.04-11.895-17.446-3.5879-1.3887-6.3232 1.7402-8.0879 4.4873-2.7051 4.2119-4.1904 9.3203-4.6611 14.278-0.53418 5.6133 0.8164 11.363 3.4609 16.322 2.54 4.7656 6.8018 8.7598 8.5039 13.953-0.65886 0.21404-1.5319 0.65495-2.2978 0.98242 0.16406 0.53321 0.3418 1.0488 0.53223 1.5332 1.8496 4.7207 8.0674 14.137 14.513 10.945 6.5596-3.25 5.8184-12.311 3.665-17.809z"/>
</g>
<g transform="matrix(-.24845 0 0 .24687 73.548 -27.346)" fill="none" stroke="#000" stroke-opacity=".2">
<path d="m148.53 163.19c-0.26074-0.66602-0.60742-1.4238-1.0293-2.2266l-2.6328 1.125c-1.8701-3.084-1.9834-9.5312-1.6338-11.615 0.83887-5 3.1377-9.4209 1.5625-14.53-1.8115-5.876-5.6768-15.04-11.895-17.446-3.5879-1.3887-6.3232 1.7402-8.0879 4.4873-2.7051 4.2119-4.1904 9.3203-4.6611 14.278-0.53418 5.6133 0.8164 11.363 3.4609 16.322 2.54 4.7656 6.8018 8.7598 8.5039 13.953l-2.2978 0.98242c0.16406 0.53321 0.3418 1.0488 0.53223 1.5332 1.8496 4.7207 8.0674 14.137 14.513 10.945 6.5596-3.25 5.8184-12.311 3.665-17.809z"/>
<path d="m148.53 163.19c-0.26074-0.66602-0.60742-1.4238-1.0293-2.2266l-2.6328 1.125c-1.8701-3.084-1.9834-9.5312-1.6338-11.615 0.83887-5 3.1377-9.4209 1.5625-14.53-1.8115-5.876-5.6768-15.04-11.895-17.446-3.5879-1.3887-6.3232 1.7402-8.0879 4.4873-2.7051 4.2119-4.1904 9.3203-4.6611 14.278-0.53418 5.6133 0.8164 11.363 3.4609 16.322 2.54 4.7656 6.8018 8.7598 8.5039 13.953l-2.2978 0.98242c0.16406 0.53321 0.3418 1.0488 0.53223 1.5332 1.8496 4.7207 8.0674 14.137 14.513 10.945 6.5596-3.25 5.8184-12.311 3.665-17.809z"/>
</g>
<g transform="matrix(.24846 0 0 .24687 -1.549 -22.621)" fill="#3465a4" stroke="#3465a4">
<path d="m148.53 163.19c-0.26074-0.66602-0.60742-1.4238-1.0293-2.2266l-2.6328 1.125c-1.8701-3.084-1.9834-9.5312-1.6338-11.615 0.83887-5 3.1377-9.4209 1.5625-14.53-1.8115-5.876-5.6768-15.04-11.895-17.446-3.5879-1.3887-6.3232 1.7402-8.0879 4.4873-2.7051 4.2119-4.1904 9.3203-4.6611 14.278-0.53418 5.6133 0.8164 11.363 3.4609 16.322 2.54 4.7656 6.8018 8.7598 8.5039 13.953l-2.2978 0.98242c0.16406 0.53321 0.3418 1.0488 0.53223 1.5332 1.8496 4.7207 8.0674 14.137 14.513 10.945 6.5596-3.25 5.8184-12.311 3.665-17.809z"/>
<path d="m148.53 163.19c-0.26074-0.66602-0.60742-1.4238-1.0293-2.2266l-2.6328 1.125c-1.8701-3.084-1.9834-9.5312-1.6338-11.615 0.83887-5 3.1377-9.4209 1.5625-14.53-1.8115-5.876-5.6768-15.04-11.895-17.446-3.5879-1.3887-6.3232 1.7402-8.0879 4.4873-2.7051 4.2119-4.1904 9.3203-4.6611 14.278-0.53418 5.6133 0.8164 11.363 3.4609 16.322 2.54 4.7656 6.8018 8.7598 8.5039 13.953-0.65886 0.21404-1.5319 0.65495-2.2978 0.98242 0.16406 0.53321 0.3418 1.0488 0.53223 1.5332 1.8496 4.7207 8.0674 14.137 14.513 10.945 6.5596-3.25 5.8184-12.311 3.665-17.809z"/>
</g>
<g transform="matrix(-.24845 0 0 .24687 73.548 -27.846)" fill="#6194cb" stroke="#6194cb">
<path d="m148.53 163.19c-0.26074-0.66602-0.60742-1.4238-1.0293-2.2266l-2.6328 1.125c-1.8701-3.084-1.9834-9.5312-1.6338-11.615 0.83887-5 3.1377-9.4209 1.5625-14.53-1.8115-5.876-5.6768-15.04-11.895-17.446-3.5879-1.3887-6.3232 1.7402-8.0879 4.4873-2.7051 4.2119-4.1904 9.3203-4.6611 14.278-0.53418 5.6133 0.8164 11.363 3.4609 16.322 2.54 4.7656 6.8018 8.7598 8.5039 13.953l-2.2978 0.98242c0.16406 0.53321 0.3418 1.0488 0.53223 1.5332 1.8496 4.7207 8.0674 14.137 14.513 10.945 6.5596-3.25 5.8184-12.311 3.665-17.809z"/>
<path d="m148.53 163.19c-0.26074-0.66602-0.60742-1.4238-1.0293-2.2266l-2.6328 1.125c-1.8701-3.084-1.9834-9.5312-1.6338-11.615 0.83887-5 3.1377-9.4209 1.5625-14.53-1.8115-5.876-5.6768-15.04-11.895-17.446-3.5879-1.3887-6.3232 1.7402-8.0879 4.4873-2.7051 4.2119-4.1904 9.3203-4.6611 14.278-0.53418 5.6133 0.8164 11.363 3.4609 16.322 2.54 4.7656 6.8018 8.7598 8.5039 13.953l-2.2978 0.98242c0.16406 0.53321 0.3418 1.0488 0.53223 1.5332 1.8496 4.7207 8.0674 14.137 14.513 10.945 6.5596-3.25 5.8184-12.311 3.665-17.809z"/>
</g>
</g>
</svg>
