<svg width="24" height="24" version="1" xmlns="http://www.w3.org/2000/svg">
<path d="m12 6.4997c3.1969-0.54393 6.2338 2.9088 7 5.2762l4.4e-5 7.5812c0 0.36984-0.29754 0.64286-0.63642 0.64286h-12.727c-0.33886 0-0.63636-0.27302-0.63636-0.64286v-7.5812c0-0.36984 6.6614-5.2762 7-5.2762z" color="#000000" fill="#ccc" stroke-width=".6396"/>
<g clip-rule="evenodd" fill-rule="evenodd">
<path d="m12 13v6h-5v-6z" fill-opacity=".18557" stroke-width=".69007"/>
<path d="m11 14v5h-3v-5z" fill="#7c7e79" stroke-width=".61237"/>
<path d="M 10.500425,16 C 10.776689,16 11,16.223149 11,16.497686 11,16.775001 10.776689,17 10.500425,17 10.224372,17 10,16.775001 10,16.497686 10.00021,16.223149 10.224372,16 10.500425,16 Z" fill="#edd400"/>
</g>
<path d="m12 3-8.3571 7.4904-0.64286 2.8626 0.64286 0.64706s8.2691-6.7734 8.3571-6.8439l8.3571 6.8439 0.64286-0.64706-0.65867-2.8626c-2.7314-2.4199-5.6053-5.2333-8.3411-7.4904z" fill="#ef2929" stroke-width=".64495"/>
<rect x="13" y="13" width="4" height="4" rx=".15249" ry=".15309" color="#000000" fill="#3465a4" stroke-width=".66667"/>
<g fill-opacity=".2">
<path d="m5 19.357v0.5c0 0.36984 0.29786 0.64258 0.63672 0.64258h12.727c0.33888 0 0.63672-0.27274 0.63672-0.64258v-0.5c0 0.36984-0.29784 0.64258-0.63672 0.64258h-12.727c-0.33886 0-0.63672-0.27274-0.63672-0.64258z" color="#000000" stroke-width=".6396"/>
<path d="m12 7.1562c-0.088071 0.070529-8.3574 6.8438-8.3574 6.8438l-0.55078-0.55469-0.091797 0.4082 0.64258 0.64648s8.2694-6.7732 8.3574-6.8438l8.3574 6.8438 0.64258-0.64648-0.09375-0.40625-0.54883 0.55273z" stroke-width=".64495"/>
<path d="m7 19v0.5h5v-0.5z" clip-rule="evenodd" fill-rule="evenodd" stroke-width=".69007"/>
<path d="m13 16.848v0.5c0 0.08481 0.067862 0.15234 0.15234 0.15234h3.6953c0.084482 0 0.15234-0.067534 0.15234-0.15234v-0.5c0 0.08481-0.067862 0.15234-0.15234 0.15234h-3.6953c-0.084482 0-0.15234-0.067534-0.15234-0.15234z" color="#000000" stroke-width=".66667"/>
<path d="m10.076 16.75c-0.044208 0.074185-0.076101 0.15569-0.076172 0.24805 0 0.27732 0.22395 0.50195 0.5 0.50195 0.27626 0 0.5-0.22464 0.5-0.50195 0-0.092355-0.032115-0.17386-0.076172-0.24805-0.087031 0.14719-0.24088 0.25-0.42383 0.25-0.18281 0-0.3365-0.10281-0.42383-0.25z" clip-rule="evenodd" fill-rule="evenodd"/>
</g>
<path d="m12 3-8.3574 7.4902-0.64258 2.8633 0.091797 0.091796 0.55078-2.4551 8.3574-7.4902c2.7358 2.257 5.6104 5.0704 8.3418 7.4902l0.56445 2.457 0.09375-0.09375-0.6582-2.8633c-2.7314-2.4199-5.606-5.2332-8.3418-7.4902z" fill="#fff" fill-opacity=".1" stroke-width=".64495"/>
</svg>
