<svg width="22" height="22" version="1" xmlns="http://www.w3.org/2000/svg">
<defs>
<filter id="filter888" color-interpolation-filters="sRGB">
<feFlood flood-color="rgb(0,0,0)" flood-opacity=".2" result="flood"/>
<feComposite in="flood" in2="SourceGraphic" operator="in" result="composite1"/>
<feGaussianBlur in="composite1" result="blur"/>
<feOffset dx="0" dy="0.5" result="offset"/>
<feComposite in="SourceGraphic" in2="offset" result="fbSourceGraphic"/>
<feColorMatrix in="fbSourceGraphic" result="fbSourceGraphicAlpha" values="0 0 0 -1 0 0 0 0 -1 0 0 0 0 -1 0 0 0 0 1 0"/>
<feFlood flood-color="rgb(255,255,255)" flood-opacity=".10196" in="fbSourceGraphic" result="flood"/>
<feComposite in="flood" in2="fbSourceGraphic" operator="out" result="composite1"/>
<feGaussianBlur in="composite1" result="blur"/>
<feOffset dx="0" dy="0.5" result="offset"/>
<feComposite in="offset" in2="fbSourceGraphic" operator="atop" result="composite2"/>
</filter>
</defs>
<g fill-rule="evenodd" filter="url(#filter888)">
<path d="m10.185 2.0032c-1.6515-0.069592-3.1954 0.99564-3.6474 2.6231l-2.4115 8.6795c-0.51646 1.86 0.59731 3.7312 2.4963 4.1943l4.4812 1.0928c1.899 0.46314 3.8418-0.66256 4.3583-2.5226l2.4115-8.6795c0.51647-1.86-0.59731-3.7312-2.4963-4.1943l-4.4812-1.0928c-0.23738-0.057893-0.47497-0.090635-0.71088-0.10058zm-3.1907 3.0798 2.5865 0.50288c0.21431 0.065006 0.44606 0.19683 0.36364 0.5056-0.08146 0.30515-0.3297 0.33956-0.56051 0.27455l-2.6056-0.55181zm4.4184 0.8617 4.3855 1.0085c0.70888 0.19502 1.0882 0.77743 1.0882 0.77743l-0.21599 0.82909s-0.49457-0.69907-1.121-0.82909l-4.3364-1.0384c-0.25597-0.068337-0.49124-0.1685-0.39372-0.47299 0.098912-0.30878 0.29658-0.3233 0.59332-0.27455zm-4.8969 0.88888 2.5892 0.50288c0.21431 0.065004 0.44334 0.19683 0.36091 0.5056-0.08146 0.30515-0.3297 0.33956-0.56051 0.27455l-2.603-0.55181zm4.4184 0.89704 4.3855 1.0085c0.70888 0.19502 1.0882 0.81277 1.0882 0.81277l-0.2324 0.78015s-0.47816-0.68275-1.1046-0.81277l-4.3336-1.0411c-0.25597-0.068337-0.49398-0.16578-0.39645-0.47026 0.098912-0.30878 0.29658-0.32602 0.59332-0.27726zm-4.9133 0.85354 2.5892 0.52192c0.21431 0.065005 0.44334 0.1941 0.36091 0.50288-0.08146 0.30515-0.3297 0.34228-0.56051 0.27726l-2.603-0.57084zm4.4348 0.93509 4.3855 1.0085c0.70888 0.19502 1.3015 1.0384 1.3015 1.0384l-0.21327 0.82908s-0.71056-0.95731-1.337-1.0873l-4.3336-1.0411c-0.25597-0.068337-0.49398-0.16578-0.39645-0.47026 0.098912-0.30878 0.29658-0.32602 0.59332-0.27726zm-4.8969 0.8182 2.5892 0.55181c0.21431 0.065 0.44606 0.1941 0.36364 0.50288-0.081459 0.30515-0.3297 0.34228-0.56051 0.27726l-2.6056-0.60074zm4.3528 0.97043 4.3855 1.0058c0.70888 0.19502 1.3015 1.0411 1.3015 1.0411l-0.21327 0.82908s-0.71056-0.96003-1.337-1.09l-4.3336-1.0384c-0.25597-0.068336-0.49398-0.1685-0.39645-0.47299 0.098912-0.30878 0.29658-0.3233 0.59332-0.27455zm-4.8641 0.78015 2.5892 0.55181c0.21431 0.06501 0.44606 0.1941 0.36364 0.50288-0.081459 0.30515-0.3297 0.34228-0.56051 0.27726l-2.6056-0.60074zm4.3855 1.0058 4.3855 1.0085c0.70888 0.19502 1.3015 1.0411 1.3015 1.0411l-0.21326 0.82909s-0.70784-0.96003-1.3343-1.09l-4.3364-1.0411c-0.25597-0.068337-0.46102-0.16578-0.39645-0.47026 0.065336-0.3081 0.29658-0.32602 0.59332-0.27726z" color="#000000" fill="#b0b0b0" stroke-width="1.3955"/>
<path d="m15.748 10.867v7.821-0.10249c0.04808 0.72974-0.51636 1.3014-1.1492 1.1814l-5.6154-1.0026c-0.26087-0.046575-0.94234-0.25506-0.71961-1.0026l-1.1865-0.26002c-0.37214 1.2672 0.68534 2.1614 1.4736 2.324l5.8426 1.1376c1.4116 0.26777 2.6717-0.95374 2.6043-2.2914-5.48e-4 -0.01102 7.13e-4 -0.02149 0-0.0325l-2e-6 -7.7722z" color="#000000" fill="#424242" stroke-width="1.423"/>
<circle cx="16.5" cy="10.5" r="1.5" color="#000000" fill="#424242" stroke-width="1.6832"/>
</g>
</svg>
