<svg width="22" height="22" version="1" xmlns="http://www.w3.org/2000/svg">
<defs>
<filter id="filter1988" color-interpolation-filters="sRGB">
<feFlood flood-color="rgb(0,0,0)" flood-opacity=".2" result="flood"/>
<feComposite in="flood" in2="SourceGraphic" operator="in" result="composite1"/>
<feGaussianBlur in="composite1" result="blur"/>
<feOffset dx="0" dy="0.5" result="offset"/>
<feComposite in="SourceGraphic" in2="offset" result="fbSourceGraphic"/>
<feColorMatrix in="fbSourceGraphic" result="fbSourceGraphicAlpha" values="0 0 0 -1 0 0 0 0 -1 0 0 0 0 -1 0 0 0 0 1 0"/>
<feFlood flood-color="rgb(255,255,255)" flood-opacity=".10196" in="fbSourceGraphic" result="flood"/>
<feComposite in="flood" in2="fbSourceGraphic" operator="out" result="composite1"/>
<feGaussianBlur in="composite1" result="blur"/>
<feOffset dx="0" dy="0.5" result="offset"/>
<feComposite in="offset" in2="fbSourceGraphic" operator="atop" result="composite2"/>
</filter>
</defs>
<g filter="url(#filter1988)">
<g>
<path d="m14.038 4.6253s0.08488-0.64232 0.79219-0.62496h4.1496c0.77333 0 1.0468 0.52948 1.0185 1.1458v2.847c-0.0094 0.57288-0.42439 0.92876-0.94309 0.97216l-4.8286 0.03472-0.22634-1.4582z" color="#000000" fill="#b6b6b6"/>
<path d="m19.012 5.0036-4.15 1.6672-2.8512-0.16672 4.1183-1.5005z" color="#000000" fill="#c6c6c6"/>
<path d="m19.012 5.0354-4.2451 1.1741v2.1676l4.2451-1.3849z" color="#000000" fill="#919191"/>
</g>
<path d="m2.3788 6.4677 7.9018-0.18167c0.96277 0 1.7378 0.77782 1.7378 1.744v8.5747c0 0.96618-0.77508 2.3953-1.7378 2.3953l-7.5216-0.072667c-1.6145 0.072667-2.7516-1.6471-2.7516-3.4126v-6.2221c-0.080114-1.2616 0.47787-2.671 2.3714-2.8249z" fill="#ddd"/>
<path d="m14.277 6.0492-7.209-0.050749c-2.5023 0.015568-3.8951 1.7552-3.8951 3.2848 0 1.4387 1.1089 2.4642 1.8671 2.7244v3.5691c0 1.7291-0.28897 3.0787 2.8006 3.1447 0 0 7.6454 0.07784 7.6454 0.07784 1.0308 0.0307 2.527-0.95304 2.527-1.8993v-7.891c0-1.9755-1.2441-3.0119-3.736-2.9598z" fill="#d7d7d7"/>
<g>
<ellipse cx="6.0871" cy="9.1111" rx="2.0908" ry="2.13" color="#000000"/>
<g transform="matrix(.50687 0 0 .50867 -.69235 -.8956)">
<g transform="translate(.17678 .17678)">
<circle transform="matrix(.44445 0 0 .44445 2.8333 18.056)" cx="3.75" cy="32.5" r="1.125" color="#000000"/>
<circle transform="matrix(.44445 0 0 .44445 4.8333 18.056)" cx="3.75" cy="32.5" r="1.125" color="#000000"/>
<circle transform="matrix(.44445 0 0 .44445 6.8333 18.056)" cx="3.75" cy="32.5" r="1.125" color="#000000"/>
<circle transform="matrix(.44445 0 0 .44445 8.8333 18.056)" cx="3.75" cy="32.5" r="1.125" color="#000000"/>
<circle transform="matrix(.44445 0 0 .44445 7.8333 19.056)" cx="3.75" cy="32.5" r="1.125" color="#000000"/>
<circle transform="matrix(.44445 0 0 .44445 5.8333 19.056)" cx="3.75" cy="32.5" r="1.125" color="#000000"/>
<circle transform="matrix(.44445 0 0 .44445 3.8333 19.056)" cx="3.75" cy="32.5" r="1.125" color="#000000"/>
<circle transform="matrix(.44445 0 0 .44445 2.8333 20.056)" cx="3.75" cy="32.5" r="1.125" color="#000000"/>
<circle transform="matrix(.44445 0 0 .44445 4.8333 20.056)" cx="3.75" cy="32.5" r="1.125" color="#000000"/>
<circle transform="matrix(.44445 0 0 .44445 6.8333 20.056)" cx="3.75" cy="32.5" r="1.125" color="#000000"/>
<circle transform="matrix(.44445 0 0 .44445 8.8333 20.056)" cx="3.75" cy="32.5" r="1.125" color="#000000"/>
<circle transform="matrix(.44445 0 0 .44445 7.8333 21.056)" cx="3.75" cy="32.5" r="1.125" color="#000000"/>
<circle transform="matrix(.44445 0 0 .44445 8.8333 22.056)" cx="3.75" cy="32.5" r="1.125" color="#000000"/>
<circle transform="matrix(.44445 0 0 .44445 6.8333 22.056)" cx="3.75" cy="32.5" r="1.125" color="#000000"/>
<circle transform="matrix(.44445 0 0 .44445 5.8333 21.056)" cx="3.75" cy="32.5" r="1.125" color="#000000"/>
<circle transform="matrix(.44445 0 0 .44445 4.8333 22.056)" cx="3.75" cy="32.5" r="1.125" color="#000000"/>
<circle transform="matrix(.44445 0 0 .44445 3.8333 21.056)" cx="3.75" cy="32.5" r="1.125" color="#000000"/>
</g>
<circle transform="matrix(.44445 0 0 .44445 2.8333 18.056)" cx="3.75" cy="32.5" r="1.125" color="#000000"/>
<circle transform="matrix(.44445 0 0 .44445 4.8333 18.056)" cx="3.75" cy="32.5" r="1.125" color="#000000"/>
<circle transform="matrix(.44445 0 0 .44445 6.8333 18.056)" cx="3.75" cy="32.5" r="1.125" color="#000000"/>
<circle transform="matrix(.44445 0 0 .44445 8.8333 18.056)" cx="3.75" cy="32.5" r="1.125" color="#000000"/>
<circle transform="matrix(.44445 0 0 .44445 7.8333 19.056)" cx="3.75" cy="32.5" r="1.125" color="#000000"/>
<circle transform="matrix(.44445 0 0 .44445 5.8333 19.056)" cx="3.75" cy="32.5" r="1.125" color="#000000"/>
<circle transform="matrix(.44445 0 0 .44445 3.8333 19.056)" cx="3.75" cy="32.5" r="1.125" color="#000000"/>
<circle transform="matrix(.44445 0 0 .44445 2.8333 20.056)" cx="3.75" cy="32.5" r="1.125" color="#000000"/>
<circle transform="matrix(.44445 0 0 .44445 4.8333 20.056)" cx="3.75" cy="32.5" r="1.125" color="#000000"/>
<circle transform="matrix(.44445 0 0 .44445 6.8333 20.056)" cx="3.75" cy="32.5" r="1.125" color="#000000"/>
<circle transform="matrix(.44445 0 0 .44445 8.8333 20.056)" cx="3.75" cy="32.5" r="1.125" color="#000000"/>
<circle transform="matrix(.44445 0 0 .44445 7.8333 21.056)" cx="3.75" cy="32.5" r="1.125" color="#000000"/>
<circle transform="matrix(.44445 0 0 .44445 8.8333 22.056)" cx="3.75" cy="32.5" r="1.125" color="#000000"/>
<circle transform="matrix(.44445 0 0 .44445 6.8333 22.056)" cx="3.75" cy="32.5" r="1.125" color="#000000"/>
<circle transform="matrix(.44445 0 0 .44445 5.8333 21.056)" cx="3.75" cy="32.5" r="1.125" color="#000000"/>
<circle transform="matrix(.44445 0 0 .44445 4.8333 22.056)" cx="3.75" cy="32.5" r="1.125" color="#000000"/>
<circle transform="matrix(.44445 0 0 .44445 3.8333 21.056)" cx="3.75" cy="32.5" r="1.125" color="#000000"/>
</g>
<rect x="5.3901" y="13.347" width="2.0275" height="1.526" rx=".25523" ry=".25614" color="#000000"/>
</g>
<rect transform="matrix(1 0 -.061237 .99812 0 0)" x="10.204" y="12.07" width="2.5525" height="3.6176" rx=".14482" ry=".14533" color="#000000" fill="#b6b6b6"/>
<rect transform="matrix(1 0 -.063333 .99799 0 0)" x="11.752" y="10.02" width="10.921" height="8.0161" rx=".65169" ry=".63235" color="#000000" fill="#b6b6b6"/>
<rect transform="matrix(1 0 -.061237 .99812 0 0)" x="13.035" y="10.889" width="8.1371" height="6.1428" rx=".13804" ry=".13853" fill="#174992"/>
</g>
</svg>
