<svg width="22" height="22" version="1.1" xmlns="http://www.w3.org/2000/svg" xmlns:xlink="http://www.w3.org/1999/xlink">
<defs>
<linearGradient id="linearGradient2981" x1="18.317" x2="18.177" y1="48.643" y2="52.536" gradientTransform="matrix(.49336 0 0 .36798 .90952 1.6802)" gradientUnits="userSpaceOnUse" xlink:href="#linearGradient2245"/>
<linearGradient id="linearGradient2245">
<stop stop-color="#dde1d9" offset="0"/>
<stop stop-color="#cacdc6" offset="1"/>
</linearGradient>
<linearGradient id="linearGradient2251" x1="8.6116" x2="34.784" y1="7.2294" y2="33.34" gradientTransform="matrix(.50793 0 0 .39738 .43548 -.44922)" gradientUnits="userSpaceOnUse" xlink:href="#linearGradient2245"/>
<linearGradient id="linearGradient2707" x1="12.207" x2="12.128" y1="53.535" y2="64.893" gradientTransform="matrix(.80372 0 0 .24719 1.2686 -.015811)" gradientUnits="userSpaceOnUse">
<stop stop-color="#585956" offset="0"/>
<stop stop-color="#bbbeb8" offset="1"/>
</linearGradient>
<filter id="filter1366" color-interpolation-filters="sRGB">
<feFlood flood-color="rgb(0,0,0)" flood-opacity=".2" result="flood"/>
<feComposite in="flood" in2="SourceGraphic" operator="in" result="composite1"/>
<feGaussianBlur in="composite1" result="blur"/>
<feOffset dx="0" dy="0.5" result="offset"/>
<feComposite in="SourceGraphic" in2="offset" result="fbSourceGraphic"/>
<feColorMatrix in="fbSourceGraphic" result="fbSourceGraphicAlpha" values="0 0 0 -1 0 0 0 0 -1 0 0 0 0 -1 0 0 0 0 1 0"/>
<feFlood flood-color="rgb(255,255,255)" flood-opacity=".10196" in="fbSourceGraphic" result="flood"/>
<feComposite in="flood" in2="fbSourceGraphic" operator="out" result="composite1"/>
<feGaussianBlur in="composite1" result="blur"/>
<feOffset dx="0" dy="0.5" result="offset"/>
<feComposite in="offset" in2="fbSourceGraphic" operator="atop" result="composite2"/>
</filter>
</defs>
<path d="m12.412 13.052-0.02806 0.44899s1.9415 1.616 4.0409 1.8869c1.0497 0.13545 2.1343 0.31538 3.0307 0.53317 0.89633 0.2178 1.6111 0.50269 1.8521 0.74364 0.13937 0.13937 0.20252 0.25756 0.2245 0.35077 0.02197 0.09321 0.01716 0.15931-0.04209 0.25256-0.1185 0.1865-0.48484 0.43446-1.1084 0.63139-1.2472 0.39385-3.4664 0.64542-6.5384 0.64542v0.44899c3.0962 0 5.3266-0.23692 6.6647-0.65945 0.66901-0.21127 1.1337-0.45603 1.361-0.81379 0.11366-0.17888 0.16043-0.3989 0.11225-0.60333-0.04819-0.20442-0.17266-0.39716-0.35077-0.57527-0.39402-0.39402-1.139-0.63148-2.0625-0.85588-0.92353-0.22441-2.0275-0.41052-3.0868-0.5472-2.1186-0.27336-4.069-1.8869-4.069-1.8869z" fill="#d0d0d0" fill-rule="evenodd"/>
<g fill-rule="evenodd" filter="url(#filter1366)">
<g>
<ellipse cx="11" cy="14.917" rx="4" ry="1.7688" color="#000000" fill="#adb0aa"/>
<rect x="9" y="13.77" width="4" height="1.2302" color="#000000" fill="url(#linearGradient2707)"/>
<path d="m3.7482 1h14.504c0.4097 0 0.74938 0.15922 0.74929 0.52704l-0.0027 11.562c-1.19e-4 0.50253-0.40507 0.90709-0.90824 0.90709h-14.181c-0.50316 0-0.90814-0.40456-0.90824-0.90709l-0.002273-11.562c-6.7e-5 -0.34778 0.24613-0.52704 0.7493-0.52704z" color="#000000" fill="url(#linearGradient2251)"/>
</g>
<path d="m4 2v10h14v-9.9576z" fill="#5b5b97"/>
<path d="m3.7313 16.988h13.537c0.48873 0 0.42677 0.11285 0.47693 0.2548l1.2378 3.5027c0.050163 0.14195 0.011797 0.2548-0.47693 0.2548h-16.013c-0.48873 0-0.52709-0.11285-0.47693-0.2548l1.2378-3.5027c0.05016-0.14194-0.0118-0.2548 0.47693-0.2548z" color="#000000" fill="url(#linearGradient2981)"/>
<path d="m17.325 18 0.67531 2h-2.3349l-0.65612-2z" color="#000000" fill="#9d9d9d"/>
<path d="m3.7692 18-0.76923 2h12l-0.73077-2z" fill="#9d9d9d"/>
</g>
</svg>
