<svg width="22" height="22" version="1" xmlns="http://www.w3.org/2000/svg">
<path d="m5.6466 4.0001c-0.26882 0-0.44647 0.15005-0.55399 0.42282l-2.9766 8.4266c-0.022973 0.06504-0.018617 0.11198-0.032979 0.17162h17.873c-0.0033-0.01604 9.07e-4 -0.03076-0.0044-0.04726l-3.0799-8.4814c-0.07936-0.25224-0.2825-0.4866-0.49243-0.49247z" fill="#8e8e8e" opacity=".9" stroke-width="1.1972"/>
<path d="m2.1034 12.988c-0.05159 0.1306-0.08363 0.25246-0.08576 0.3563l-0.017601 0.013702v4.0114c0 0.41989 0.28512 0.63038 0.71471 0.63038h16.599c0.42372 0 0.68612-0.27801 0.68612-0.71456v-3.9252c0.0019-0.01339-9.46e-4 -0.0274 0-0.04112v-0.08222l-0.0132-0.0019c-0.0048-0.06573-3.6e-5 -0.12981-0.02859-0.19969l-0.02199-0.04699z" fill="#8e8e8e" stroke-width="1.0623"/>
<g transform="matrix(.59685 0 0 .59685 4.478 2.2568)" opacity=".5">
<rect x="9" y="15" width="4" height="1"/>
<rect x="9" y="17" width="4" height="1"/>
<path d="m11 8a3 3 0 0 0-3 3 3 3 0 0 0 3 3 3 3 0 0 0 3-3 3 3 0 0 0-3-3zm0 1a2 2 0 0 1 2 2 2 2 0 0 1-2 2 2 2 0 0 1-2-2 2 2 0 0 1 2-2z"/>
<rect transform="rotate(135)" x="-2" y="-11.5" width="4" height="1"/>
<rect transform="rotate(135)" x="-2" y="-9.5" width="4" height="1"/>
<rect transform="rotate(225)" x="-17.5" y="4" width="4" height="3"/>
</g>
</svg>
