<svg width="22" height="22" version="1" xmlns="http://www.w3.org/2000/svg" xmlns:xlink="http://www.w3.org/1999/xlink">
<defs>
<filter id="filter1007" color-interpolation-filters="sRGB">
<feFlood flood-color="rgb(0,0,0)" flood-opacity=".2" result="flood"/>
<feComposite in="flood" in2="SourceGraphic" operator="in" result="composite1"/>
<feGaussianBlur in="composite1" result="blur"/>
<feOffset dx="0" dy="0.5" result="offset"/>
<feComposite in="SourceGraphic" in2="offset" result="composite2"/>
</filter>
<filter id="filter1035" color-interpolation-filters="sRGB">
<feFlood flood-color="rgb(255,255,255)" flood-opacity=".10196" result="flood"/>
<feComposite in="flood" in2="SourceGraphic" operator="out" result="composite1"/>
<feGaussianBlur in="composite1" result="blur"/>
<feOffset dx="0" dy="0.5" result="offset"/>
<feComposite in="offset" in2="SourceGraphic" operator="atop" result="composite2"/>
</filter>
</defs>
<path d="m1.0062 17.193 0.36552-0.33064 17.979 0.02985 1.6552 0.15156v3.0754c0 0.53763-0.29018 0.88047-0.76099 0.88047h-18.445c-0.47732 0-0.79444-0.25891-0.79444-0.77602z" fill="#bbb" fill-rule="evenodd" filter="url(#filter1007)"/>
<g filter="url(#filter1035)">
<path d="m3.8779 10.968c-0.29853 0-0.49258 0.1386-0.61199 0.40302-5e-7 0-2.1345 5.3036-2.1345 5.3036s-0.11941 0.32077-0.11941 0.85081v2.6987c0 0.51711 0.31419 0.77618 0.79111 0.77618h18.419c0.47042 0 0.76126-0.34304 0.76126-0.88067v-2.6987s0.05061-0.36799-0.04478-0.62692l-2.2539-5.3484c-0.08814-0.24451-0.30422-0.47196-0.53736-0.47765z" fill="none"/>
<path d="m11.522 9.8843c-1.2537 0-2.2496 0.50245-2.3285 1.1344h-0.029853l-0.61199 2.4778c-0.10449 0.52243 0.99291 1.4479 2.9704 1.4479 1.9925 0 3.1346-0.94037 2.9405-1.6419l-0.56721-2.2838h-0.02985c-0.078166-0.63235-1.0893-1.1344-2.3435-1.1344z" color="#000000" fill="none"/>
<path d="m1.1378 16.834c-0.34118 0.71432-2.94e-4 1.1673 0.49471 1.1673h18.628c0.53451-0.01162 0.88138-0.49364 0.68236-1.0454l-2.2518-5.4689c-0.08814-0.24972-0.31275-0.48202-0.54589-0.48783h-14.261c-0.29853 0-0.49471 0.14809-0.61412 0.41814 0 0-2.1324 5.4167-2.1324 5.4167z" fill="#e4e4e4" fill-rule="evenodd"/>
<path d="m4.0483 11.184c-0.2874 0-0.47421 0.13344-0.58917 0.38799-5e-7 0-2.1088 5.0587-2.1088 5.0587s-0.11496 0.30881-0.11496 0.81909v2.5268c0 0.64709 0.2121 0.77709 0.76161 0.77709h18.001c0.63199 0 0.73287-0.15113 0.73287-0.87768v-2.5268s0.04872-0.35427-0.04311-0.60354l-2.1939-5.1615c-0.08485-0.23539-0.26302-0.39466-0.48746-0.40013z" fill="none"/>
<g>
<ellipse cx="11.5" cy="14.196" rx="5.5" ry="2.8039" color="#000000" fill="#fff" fill-opacity=".48023" fill-rule="evenodd"/>
<ellipse cx="11.527" cy="13.423" rx="2.9553" ry="1.5137" color="#000000" fill="#c9c9c9" fill-rule="evenodd"/>
<path d="m11.522 1.0925c-1.7479 0-3.1644 1.4166-3.1644 3.1644 0 1.2455 0.74469 2.2893 1.7912 2.8062v4.0451 0.02985c0 0.38879 0.61418 0.70155 1.3732 0.70155 0.75907 0 1.3732-0.31276 1.3732-0.70155v-0.02985-4.0302c1.0558-0.51357 1.7912-1.5688 1.7912-2.8211 0-1.7479-1.4166-3.1644-3.1644-3.1644z" color="#000000" fill="none"/>
<path d="m13.896 11.074 0.56721 2.2838c0.19404 0.70155-0.94807 1.6419-2.9405 1.6419-1.9775 0-3.0749-0.92545-2.9704-1.4479l0.61199-2.4778z" color="#000000" fill="#aaa" fill-rule="evenodd"/>
<ellipse id="path4345" cx="11.527" cy="11.15" rx="2.3642" ry="1.211" color="#000000" fill="#e4e4e4" fill-rule="evenodd"/>
<path transform="matrix(.63364 0 0 .63364 9.2512 4.1416)" d="m11.527 9.8828a2.3642 1.211 0 0 0-2.3652 1.2109 2.3642 1.211 0 0 0 2.3652 1.2109 2.3642 1.211 0 0 0 2.3633-1.2109 2.3642 1.211 0 0 0-2.3633-1.2109z" color="#000000" fill="none" xlink:href="#path4345"/>
</g>
<g fill-rule="evenodd">
<path d="m11.5 3.4509c-0.82913 0-1.5 0.31276-1.5 0.70155 0 0.012832 0.03116 0.01719 0.03261 0.029853h-0.03261v6.6274h0.03261c-0.0014 0.01266-0.03261 0.01702-0.03261 0.02985 0 0.38879 0.67087 0.70155 1.5 0.70155 0.82914 0 1.5-0.31276 1.5-0.70155 0-0.01283-0.03116-0.01719-0.03261-0.02985h0.03261v-6.6274h-0.03261c0.0014-0.012663 0.03261-0.017022 0.03261-0.029853 0-0.38879-0.67086-0.70155-1.5-0.70155z" color="#000000" fill="#aaa"/>
<circle cx="11.5" cy="3.5" r="2.5" color="#000000" fill="#ff8a2b"/>
<ellipse cx="4.4018" cy="16.094" rx="1.6159" ry=".95441" color="#000000" fill="#ff8a2b"/>
</g>
<path d="m11.523 1.4403c-1.569 0-2.8389 1.2837-2.8389 2.8528 0 1.1047 0.79291 2.0362 1.7141 2.5066v3.4018c-0.41424 0.18886-1.0284 0.49828-1.0356 0.8032l-0.59548 2.4576c-0.096938 0.48469 0.92119 1.3433 2.7558 1.3433 1.8485 0 2.9082-0.87245 2.7281-1.5233l-0.58163-2.3191c-0.0076-0.32661-0.58545-0.5311-1.0516-0.72012v-3.4434c0.92122-0.47036 1.7578-1.4019 1.7578-2.5066 0-1.569-1.2837-2.8528-2.8528-2.8528z" color="#000000" fill="none" opacity=".52571"/>
</g>
</svg>
