<svg width="22" height="22" version="1" xmlns="http://www.w3.org/2000/svg">
<defs>
<filter id="filter1117" color-interpolation-filters="sRGB">
<feFlood flood-color="rgb(0,0,0)" flood-opacity=".2" result="flood"/>
<feComposite in="flood" in2="SourceGraphic" operator="in" result="composite1"/>
<feGaussianBlur in="composite1" result="blur"/>
<feOffset dx="0" dy="0.5" result="offset"/>
<feComposite in="SourceGraphic" in2="offset" result="composite2"/>
</filter>
<filter id="filter1151" color-interpolation-filters="sRGB">
<feFlood flood-color="rgb(255,255,255)" flood-opacity=".10196" result="flood"/>
<feComposite in="flood" in2="SourceGraphic" operator="out" result="composite1"/>
<feGaussianBlur in="composite1" result="blur"/>
<feOffset dx="0" dy="0.5" result="offset"/>
<feComposite in="offset" in2="SourceGraphic" operator="atop" result="composite2"/>
</filter>
</defs>
<rect x="4.9009" y="-3.257" width="12.194" height="9.2953" rx=".086227" ry=".087236" color="#000000" display="block" fill="none" stroke-width="1.25"/>
<g filter="url(#filter1151)">
<path d="m1.6097 13.712v0.41743c0 0.48195 0.37252 0.87008 0.83508 0.87008h17.08c0.46257 0 0.83508-0.38813 0.83508-0.87008v-0.41743z" fill="#8e8d87" stroke-width="1.25"/>
<path d="m2.7709 5h16.458c0.18781 0 0.42779 0.13649 0.57578 0.34291s0.84699 1.2363 1.004 1.4562c0.15703 0.2198 0.19166 0.42815 0.19166 0.69919v5.7206c0 0.43274-0.35704 0.78112-0.80056 0.78112h-18.399c-0.4435 0-0.80056-0.34838-0.80056-0.78112v-5.7206c0-0.234 0.049338-0.56956 0.21774-0.78315 0.2125-0.26953 0.78256-1.2069 0.93291-1.4057 0.15036-0.19878 0.42647-0.30937 0.62082-0.30937z" color="#000000" fill="#dcdcda" stroke-width="1.27"/>
<path d="m3.7322 5.212c-0.22113 0-0.49252 0.02882-0.6026 0.18103l-0.83586 1.1557c-0.1241 0.17158 0.014925 0.46531 0.4104 0.46531h16.558c0.57618 0 0.5365-0.37203 0.4104-0.53042l-0.77754-0.97665c-0.14099-0.17709-0.19216-0.29497-0.54428-0.29497z" fill="#fbfbfb" fill-rule="evenodd" stroke-width="1.1093"/>
<path d="m3.0022 5.106h16.013c0.17836 0 0.40628 0.13465 0.54682 0.33829 0.14055 0.20364 0.63227 1.0016 0.78139 1.2184s0.21245 0.42239 0.21245 0.68979v5.567c0 0.42693-0.06523 0.6164-0.48643 0.6164h-18.078c-0.4212 0-0.51685-0.18948-0.51685-0.6164v-5.567c0-0.23086 0.10771-0.56189 0.26765-0.77262 0.2018-0.2659 0.52803-0.97258 0.67082-1.1687 0.14279-0.1961 0.40502-0.3052 0.58959-0.3052z" color="#000000" fill="none" stroke-width="1.25"/>
<path d="m5.5221 1h10.956c0.28921 0 0.52205 0.1285 0.52205 0.28813v4.7118h-12v-4.7118c0-0.15962 0.23284-0.28813 0.52205-0.28813z" color="#000000" display="block" fill="#e0e0e0" stroke-width=".86599"/>
<rect x="2" y="9" width="18" height="2" rx=".91283" ry=".65987" fill="#f7f6f5" stroke-width="1.1339"/>
<ellipse cx="4.5001" cy="9.5" rx=".50011" ry=".5" fill="#9f9f9f"/>
<path d="m20.505 7.106h-19.013" fill="none" stroke-width="1.25"/>
</g>
<g filter="url(#filter1117)">
<rect transform="matrix(0,-1,-1,0,0,0)" x="-21" y="-21" width="6" height="20" rx="1" ry="1" fill="#dcdcda"/>
<g stroke="#000" stroke-linecap="round">
<path d="m7.5 16.5-1 3" opacity=".5"/>
<path d="m5.5 16.5-1 3" opacity=".5"/>
<path d="m3.5 16.5-1 3" opacity=".5"/>
<path d="m9.5 16.5-1 3" opacity=".5"/>
</g>
<circle cx="14" cy="17" r="1" fill="#76ff03"/>
<circle cx="16.5" cy="17" r="1" fill="#ff0"/>
<circle cx="19" cy="17" r="1" fill="#ffcd40"/>
</g>
</svg>
