<svg width="16" height="16" version="1" xmlns="http://www.w3.org/2000/svg">
<g fill-rule="evenodd">
<path d="m1.417 2h12.17c0.28425 0 0.5131 0.19161 0.5131 0.42961l0.89511 12.296 0.0047 0.84482c-4.8e-5 0.23801-0.22889 0.42962-0.51314 0.42962h-13.97c-0.28426 0-0.5131-0.19161-0.5131-0.42962l-0.0041169-0.77979 0.90392-12.361c0-0.23801 0.22884-0.42961 0.5131-0.42961z" color="#000000" fill="#d3d7cf" fill-opacity=".99608"/>
<rect x=".22906" y="15" width="14.555" height="1" rx=".25324" ry=".22119" color="#000000" fill="#a4a4a4"/>
<path d="m0.21031 15.194s0.05623-0.19445 0.26243-0.21065h14.002c0.28117 0 0.29992 0.27547 0.29992 0.27547s0.0088-0.59382-0.47857-0.59382h-13.573c-0.3749 0.03241-0.51346 0.28595-0.51346 0.52901z" color="#000000" fill="#fff"/>
<path d="m1.0929 2.2866-0.092901 1.7134s0.11612-0.43902 0.37159-0.43902h12.309c0.26128-0.0061 0.27289 0.12195 0.31934 0.32317l-0.09291-1.5122c-0.01161-0.21342-0.08128-0.37195-0.29031-0.37195h-12.222c-0.16838 0-0.2845 0.13415-0.30192 0.28659z" color="#000000" fill="#a3a4a0"/>
</g>
<path d="m1.6588 2.1148h11.605c0.26914 0 0.48582-0.05577 0.48582 0.17384l0.84752 12.103s0.03734 0.99325 0.03734 0.99325c0 0.22961-0.05194 0.23621-0.32108 0.23621h-13.754c-0.15383 0-0.15635-0.03901-0.15635-0.1876l-0.0038882-0.97913 0.85586-12.154c0-0.22961 0.13513-0.1853 0.40428-0.1853z" color="#000000" fill="none" opacity=".4386"/>
<g fill-rule="evenodd">
<rect x="2" y="4.6333" width="11" height=".36666" color="#000000" opacity=".2807"/>
<rect x="2" y="5.6333" width="11" height=".36666" color="#000000" opacity=".2807"/>
<rect x="2" y="6.6333" width="5" height=".36666" color="#000000" opacity=".2807"/>
<rect x="2" y="8.6333" width="11" height=".36666" color="#000000" opacity=".2807"/>
<rect x="2" y="9.6333" width="11" height=".36666" color="#000000" opacity=".2807"/>
<rect x="2" y="10.633" width="11" height=".36666" color="#000000" opacity=".2807"/>
<rect x="2" y="11.633" width="3" height=".36666" color="#000000" opacity=".2807"/>
<g fill="#fce94f">
<rect x="12" y="1" width="1" height="2" rx=".5" ry=".4" color="#000000"/>
<rect x="10" y="1" width="1" height="2" rx=".5" ry=".4" color="#000000"/>
<rect x="8" y="1" width="1" height="2" rx=".5" ry=".4" color="#000000"/>
<rect x="6" y="1" width="1" height="2" rx=".5" ry=".4" color="#000000"/>
<rect x="4" y="1" width="1" height="2" rx=".5" ry=".4" color="#000000"/>
<rect x="2" y="1" width="1" height="2" rx=".5" ry=".4" color="#000000"/>
</g>
<g transform="matrix(.97703 0 0 .9345 -11.171 .96832)">
<path d="m24.888 7.4165s0.52982 0.034374 0.73714 0.49269c0.21358 0.47216 0 0.97393 0 0.97393l1.8544-0.90518s0.53518-0.32316 0.24187-1.0427c-0.28929-0.70969-0.99053-0.42395-0.99053-0.42395z" color="#000000" fill="#ce1313"/>
<path d="m24.888 7.4165s0.52982 0.034374 0.73714 0.49269c0.21358 0.47216 0 0.97393 0 0.97393l0.73714-0.36666s0.30482-0.48357 0.08062-0.98539c-0.23036-0.51561-0.81776-0.48124-0.81776-0.48124z" color="#000000" fill="#c1c1c1"/>
<path d="m17.678 11.736 1.6586-1.6499c0.55286 0.29791 0.8408 0.7906 0.69107 1.3635z" color="#000000" fill="#e7e2b8"/>
<path d="m18.193 11.232-0.61846 0.57264 0.84821-0.16536c0.08062-0.26353-0.03395-0.32707-0.22975-0.40728z" color="#000000"/>
<path d="m19.337 10.09c0.2365 0.1075 0.48038 0.39513 0.53683 0.45832s5.7221-2.6991 5.7221-2.6991c-0.1638-0.31387-0.46549-0.40549-0.70934-0.43396 0 0-5.6032 2.6503-5.5496 2.6747z" color="#000000" fill="#deb873"/>
<path d="m20.024 11.441 0.04567-0.23593 5.6356-2.6219s-0.04062 0.24709-0.07958 0.29685z" color="#000000" fill-opacity=".36364"/>
<path d="m20.063 11.219s0.02373-0.16974-0.04183-0.37578c-0.06356-0.19976-0.14339-0.28984-0.14339-0.28984l5.7154-2.7167c0.13134 0.20055 0.14289 0.56308 0.11204 0.75029z" color="#000000" fill="#cb9022"/>
</g>
</g>
</svg>
