<svg width="16" height="16" version="1" xmlns="http://www.w3.org/2000/svg">
<path d="m1.7422 0c-0.41065 0-0.74219 0.33171-0.74219 0.74414v14.512c0 0.41243 0.33154 0.74414 0.74219 0.74414h12.516c0.41065 0 0.74219-0.33171 0.74219-0.74414v-14.512c0-0.41243-0.33154-0.74414-0.74219-0.74414zm10.443 8.3379h0.62891v0.32422h-0.62891zm0.19531 4.1152h0.23828v0.44727h0.52344v0.19922h-0.52344v0.44727h-0.23828v-0.44727h-0.52344v-0.19922h0.52344z" color="#000000" display="block" fill="#d3d7cf" fill-opacity=".99608"/>
<path d="m2.7198 1c-0.39874 0-0.71978 0.47596-0.71978 1.0667v2.4033c0 1.0099 1.3844 1.53 1.7831 1.53h8.4338c0.39874 0 1.7831-0.3836 1.7831-1.53v-2.4033c0-0.59078-0.32104-1.0667-0.71978-1.0667zm0.33081 0.30529h9.9206c0.37462 0 0.67616 0.29486 0.67616 0.66205v2.0843c0 0.71254-1.2994 0.95137-1.674 0.95137h-7.9249c-0.37462 0-1.674-0.32368-1.674-0.95137v-2.0843c0-0.3672 0.30154-0.66205 0.67616-0.66205z" color="#000000" display="block" fill="#2e3436"/>
<rect x="2" y="7" width="2" height="2" rx=".38777" ry=".39312" color="#000000" display="block" fill="#858585"/>
<rect x="3" y="2" width="10" height="2" rx=".28181" ry=".29746" color="#000000" display="block" fill="#777b5e"/>
<path d="m9.2904 2.961c0.065698 0.017033 0.11551 0.04673 0.14945 0.089091 0.034372 0.041926 0.051556 0.095425 0.051557 0.1605-8e-7 0.096952-0.036984 0.17076-0.11095 0.22142-0.073965 0.050223-0.18187 0.075335-0.3237 0.075335-0.050035 0-0.10029-0.00415-0.15076-0.012447-0.050035-0.00786-0.099635-0.019871-0.1488-0.03603v-0.19456c0.046989 0.023583 0.093543 0.041489 0.13966 0.053717 0.046555 0.011792 0.092238 0.017689 0.13705 0.017685 0.066567 4e-7 0.11747-0.011571 0.15271-0.034722 0.035677-0.023146 0.053515-0.056337 0.053516-0.099573-8e-7 -0.044545-0.018274-0.078174-0.054821-0.10088-0.036113-0.023145-0.089628-0.034718-0.16055-0.034719h-0.1005v-0.16246h0.10573c0.063087 8e-7 0.11008-0.00983 0.14097-0.029479 0.030892-0.020088 0.046336-0.050441 0.046337-0.091057-8e-7 -0.037557-0.015011-0.066599-0.045032-0.087127-0.030021-0.020525-0.072442-0.030788-0.12726-0.030789-0.040463 8e-7 -0.081362 0.00459-0.12269 0.013757-0.041333 0.00917-0.082449 0.02271-0.12335 0.040615v-0.18473c0.0496-0.013974 0.098764-0.024455 0.14749-0.031445 0.048729-0.00698 0.096589-0.01048 0.14358-0.010481 0.12661 1.2e-6 0.22124 0.020963 0.28389 0.062888 0.063087 0.04149 0.09463 0.10416 0.094631 0.18801-8e-7 0.057211-0.015011 0.10416-0.045032 0.14084-0.030021 0.036248-0.074401 0.061797-0.13314 0.076645m0.44313 0.27383h0.23495v0.25352h-0.23494v-0.25352m0.52667 0.079265h0.22189v-0.63216l-0.22777 0.047166v-0.17163l0.22646-0.047166h0.23886v0.80379h0.22189v0.17425h-0.68134v-0.17425m1.2648-0.59613-0.27541 0.40943h0.27541v-0.40943m-0.04177-0.20766h0.27932v0.61709h0.13901v0.18277h-0.13901v0.17818h-0.23756v-0.17818h-0.43204v-0.21618l0.39027-0.58368"/>
<path d="m11.66 11c-0.36566 0-0.66016 0.22785-0.66016 0.50977v2.9805c0 0.28192 0.29449 0.50977 0.66016 0.50977h1.6797c0.36566 0 0.66016-0.22785 0.66016-0.50977v-2.9805c0-0.28192-0.29449-0.50977-0.66016-0.50977zm0.7207 1.4531h0.23828v0.44727h0.52344v0.19922h-0.52344v0.44727h-0.23828v-0.44727h-0.52344v-0.19922h0.52344z" color="#000000" display="block" fill="#8d8d8d"/>
<path d="m11.58 7c-0.32108 0-0.58008 0.25993-0.58008 0.58203v1.8359c0 0.3221 0.25899 0.58203 0.58008 0.58203h1.8398c0.32108 0 0.58008-0.25993 0.58008-0.58203v-1.8359c0-0.3221-0.25899-0.58203-0.58008-0.58203zm0.60547 1.3379h0.62891v0.32422h-0.62891z" color="#000000" display="block" fill="#8d8d8d"/>
<g fill="#858585">
<rect x="5" y="7" width="2" height="2" rx=".38777" ry=".39312" color="#000000" display="block"/>
<rect x="8" y="7" width="2" height="2" rx=".38777" ry=".39312" color="#000000" display="block"/>
<rect x="8" y="10" width="2" height="2" rx=".38777" ry=".39312" color="#000000" display="block"/>
<rect x="8" y="13" width="2" height="2" rx=".38777" ry=".39312" color="#000000" display="block"/>
<rect x="5" y="13" width="2" height="2" rx=".38777" ry=".39312" color="#000000" display="block"/>
<rect x="5" y="10" width="2" height="2" rx=".38777" ry=".39312" color="#000000" display="block"/>
<rect x="2" y="10" width="2" height="2" rx=".38777" ry=".39312" color="#000000" display="block"/>
<rect x="2" y="13" width="2" height="2" rx=".38777" ry=".39312" color="#000000" display="block"/>
</g>
</svg>
