<svg width="16" height="16" version="1" xmlns="http://www.w3.org/2000/svg">
<rect x="4.8828e-7" y="1.7242e-8" width="16" height="16" rx="1.9605" ry="1.9605" color="#000000" display="block" fill="#d3d7cf" fill-opacity=".99608"/>
<path d="m11.646 10.777h-0.90724v-0.57897c-0.36165 0.46804-0.83865 0.70206-1.431 0.70206-0.47388 0-0.84956-0.12461-1.127-0.37383-0.27435-0.25226-0.41153-0.58809-0.41153-1.0075-1e-6 -0.28569 0.05611-0.53338 0.16835-0.74309 0.11535-0.20971 0.28682-0.3799 0.51441-0.51059 0.23071-0.13068 0.53-0.21882 0.89788-0.26441l1.3889-0.18235c-4e-6 -0.35863-0.07794-0.6276-0.23382-0.80692-0.15277-0.17931-0.38192-0.26897-0.68744-0.26897-0.25253 4.3e-6 -0.52221 0.047113-0.80903 0.14132-0.28371 0.094221-0.5378 0.23099-0.76227 0.4103v-0.89809c0.583-0.28568 1.1317-0.42853 1.6461-0.42853 0.56741 4.6e-6 1.0008 0.15349 1.3001 0.46044 0.30241 0.30697 0.45361 0.74158 0.45362 1.3038v3.0453m-0.90724-1.7643v-0.53339c-0.77942 0.097258-1.219 0.15348-1.3188 0.16868-0.09664 0.015199-0.21668 0.053189-0.36009 0.11397-0.1403 0.060787-0.24006 0.14133-0.2993 0.24162-0.05611 0.1003-0.08418 0.24618-0.08418 0.43765-1e-6 0.21579 0.07794 0.39206 0.23382 0.52883 0.159 0.13373 0.36632 0.20059 0.62197 0.20059 0.318 0 0.59859-0.11093 0.84177-0.3328 0.24317-0.22186 0.36476-0.49691 0.36477-0.82515m0.39282-5.1242-1.258 1.4953h-0.62197l1.0148-1.4953h0.86515"/>
</svg>
