<svg width="16" height="16" version="1" xmlns="http://www.w3.org/2000/svg">
<g transform="rotate(-45 7.9998 7.9994)">
<g>
<path d="m2.3431 13.657-1e-7 -11.314 11.314-4e-7v11.314z" fill="#fcaf3e"/>
<path d="m13.416 11.459-0.50079 0.08118c-0.10463-0.25719-0.23171-0.50734-0.38108-0.74752l0.44963-0.44638c-0.096424-0.14662-0.20083-0.28954-0.31245-0.42856l-0.56358 0.28981c-0.089655-0.10583-0.18399-0.20907-0.28388-0.30897-0.099783-0.099783-0.20304-0.19422-0.30892-0.28383l0.28985-0.56356c-0.13908-0.11167-0.28196-0.21602-0.42858-0.31245l-0.44636 0.44976c-0.24018-0.14947-0.49027-0.2765-0.74746-0.38113l0.10143-0.62561c-0.16605-0.062578-0.33435-0.11696-0.50442-0.16319l-0.28559 0.56562c-0.2726-0.066761-0.54977-0.11035-0.82831-0.13055l-0.096696-0.62616c-0.17678-0.00826-0.35389-0.00826-0.53062 5.5e-5l-0.096701 0.62605c-0.2786 0.020144-0.55571 0.063678-0.82842 0.13055l-0.28553-0.56568c-0.17012 0.046287-0.33854 0.10066-0.50442 0.1633l0.10143 0.6255c-0.25719 0.10463-0.50734 0.23171-0.74763 0.38108l-0.44632-0.44958c-0.14662 0.096424-0.28955 0.20083-0.42858 0.31256l0.28977 0.56353c-0.10589 0.089492-0.20909 0.18399-0.30893 0.28383-0.099838 0.099838-0.19418 0.20308-0.28388 0.30897l-0.56353-0.28976c-0.11173 0.13891-0.21597 0.28189-0.31256 0.42845l0.44976 0.44636c-0.14943 0.24024-0.27651 0.49038-0.38113 0.74746l-0.6255-0.10143c-0.062688 0.16594-0.11696 0.33435-0.16335 0.50436l0.56573 0.28559c-0.066815 0.27266-0.11035 0.54977-0.13049 0.82826l-0.62611 0.09676c-0.00782 0.16599-0.00765 0.33215-7.705e-4 0.4982l10.705-8.3e-5v-0.57217l-0.147-0.02273c-0.0202-0.27854-0.06373-0.55566-0.13055-0.82831l0.27761-0.14012v-0.62963z" fill="#fff" opacity=".5"/>
<path d="m9.1506 4.0895c-1.8424 1.8424-4.6064 2.2006-6.8077 1.0759l-5.58e-5 1.2655c0.00677 0.00281 0.013308 0.00595 0.020092 0.00864l-0.019979 0.12312-5e-7 0.80234c0.19378 0.069405 0.38956 0.13132 0.58725 0.18515l0.40205-0.79645c0.38383 0.094224 0.77405 0.15543 1.1661 0.18382l0.13622 0.88154c0.24893 0.011723 0.49814 0.011723 0.74697-6e-7l0.13622-0.88142c0.39214-0.028456 0.7823-0.089711 1.1661-0.18383l0.4021 0.7965c0.23952-0.065275 0.47657-0.14183 0.7102-0.23006l-0.14288-0.8806c0.36204-0.14728 0.71422-0.32621 1.0524-0.53662l0.62831 0.63315c0.20639-0.13584 0.40772-0.28279 0.60333-0.43997l-0.408-0.79348c0.14904-0.12615 0.29434-0.25912 0.43486-0.39963 0.14057-0.14057 0.27354-0.28587 0.39968-0.43491l0.79331 0.40816c0.1573-0.19571 0.30419-0.39699 0.43997-0.60343l-0.63303-0.62832c0.21039-0.33819 0.38932-0.69037 0.5366-1.0524l0.88065 0.14282c0.04898-0.12989 0.09406-0.26104 0.13589-0.3928l-2.1614-1.094e-4c-0.28361 0.63365-0.68517 1.2274-1.2052 1.7474z" fill="#fff" opacity=".5"/>
</g>
<path d="m2.7952 13.205 2e-7 -10.41 10.41-5e-7v10.41z" fill="none" opacity=".47253"/>
</g>
</svg>
