<svg width="16" height="16" version="1" xmlns="http://www.w3.org/2000/svg">
<g fill-rule="evenodd">
<rect y="1" width="16" height="15" rx="1.6322" ry="1.6424" fill="#c3c6c0"/>
<rect x="2" y="3" width="12" height="10" rx=".54699" ry=".58529" fill="#5187d6"/>
<path d="m3.5374 7h-1.5374v1.0232l2.5-0.046358 0.50399-1.9768 1.1956 6 1.2785-4.2525 0.90064 2.0086 1.5235-1.7329 4.0978-0.046357v-0.97682h-4.3895l-1.0886 1-1.2155-3.0226-0.94186 3.0226-1.2577-5z" fill="#ecffd9"/>
</g>
<g fill="#e0e2df">
<path d="m13 14.272-0.28333-0.12578c-0.06848-0.03745-0.14996-0.0587-0.23333-0.0587-0.2668 0-0.48333 0.21789-0.48333 0.48635s0.21653 0.48635 0.48333 0.48635c0.25846 0 0.47038-0.20434 0.48333-0.4612 1.04e-4 -0.0021-7.9e-5 -0.0063 0-0.0084z" color="#000000"/>
<path d="m10.031 14.173-0.02739 0.32306c-0.010282 0.08038-2.04e-4 0.1673 0.03093 0.24813 0.09963 0.25866 0.3891 0.38722 0.64615 0.28697s0.38481-0.39153 0.28518-0.65019c-0.09652-0.25057-0.3713-0.37972-0.62206-0.29636-2e-3 6.66e-4 -6e-3 0.0024-0.0081 0.0031z" color="#000000"/>
<path d="m9 14.245-0.25861-0.13011c-0.070843-0.03874-0.15512-0.06072-0.24137-0.06072-0.27599 0-0.49998 0.22539-0.49998 0.50311s0.22399 0.50311 0.49998 0.50311c0.26737 0 0.48658-0.21138 0.49998-0.47708 1.082e-4 -0.0022-8.17e-5 -0.0065 0-0.0087z" color="#000000"/>
</g>
</svg>
