<svg width="16" height="16" version="1" xmlns="http://www.w3.org/2000/svg">
<rect x="1" y="7" width="14" height="9" rx=".41948" ry=".41496" color="#000000" display="block" fill="#5d5d5d"/>
<g transform="translate(-16)">
<g fill="none" stroke-width=".36309">
<path d="m18.521 11.591h10.167"/>
<path d="m18.521 13.095h10.167"/>
<path d="m26.69 11.436v-1.4524"/>
<path d="m18.521 13.095h10.167"/>
<path d="m23.059 11.436v-1.4524"/>
</g>
<g fill="#fff">
<g stroke-width=".24982">
<path d="m22.692 12.121c0.02838 0.24112 0.06117 0.48158 0.09866 0.72146l-0.52655 0.27862c-0.033217-0.23567-0.061077-0.47298-0.11267-0.70544z"/>
<path d="m23.653 12.329c-6e-3 0.51943 0.16938 0.29798-0.47741 0.64681 0.20371-0.32567 0.54751-0.65413 0.88651-0.36099 0.64733 0.10534-0.35819 0.62005 0.08873 0.07853 0.64953-0.56707 0.55518-0.2492 1.1003-0.21698 0.44473 0.10748 0.44873 0.01407-0.14246 0.35392 8e-3 -7e-3 0.016-0.01395 0.02401-0.02093l0.55925-0.23657c-0.0063 0.0097-0.01264 0.01933-0.01895 0.029-0.70232 0.41907-0.4168 0.29574-0.91117 0.23141-0.46626-0.08186-0.71833-0.13823-0.05517-0.37091-0.28464 0.32324-0.74476 0.82438-1.1538 0.47039-0.39684-0.29241 0.53274-0.60289 0.19102-0.18261-0.67017 0.36938-0.59969 0.3877-0.63971-0.14138z"/>
<path d="m26.529 11.719c0.03646 0.37673 0.05641 0.75433 0.10121 1.1304 0.35562 0.46234-0.45642 1.1577-0.33656 0.45187 0.08546-0.81037 0.16246-0.96036 0.88154-1.2191 0.13682 0.24566 0.21178 0.53409 0.42569 0.68151-1.2092 0.63746 0.42312-0.37003 0.60479-0.46649 0.11615-0.02726 0.23479-0.0413 0.35282-0.05765l-0.47985 0.35907c-0.11613 0.017-0.2336 0.0297-0.346 0.06524 0.74911-0.47756-0.142 0.21032-0.62605 0.45407-0.23077-0.18092-0.28567-0.47326-0.44548-0.71956 0.78593-0.5543 0.15804-0.03528 0.15936 0.64386-0.07083 0.5871-0.82945 0.88684-0.70324 0.07656-0.04316-0.37018-0.06245-0.74506-0.13243-1.111z"/>
</g>
<g stroke-width=".36816">
<path d="m19.738 10.04c0.67038-0.49083 0.41499-0.10349 0.41543 0.42224-0.0054 0.47356 0.06475 0.94135 0.17024 1.4014l-0.46495 0.25114c-0.10572-0.46384-0.17649-0.93524-0.175-1.4124-0.0073-0.57168-0.10627-0.71887 0.49598-0.98332z"/>
<path d="m21.319 10.054c-9e-3 0.29096-0.0088 0.58217-0.0099 0.87324-4.05e-4 0.1222-3.68e-4 0.24441-4.79e-4 0.36661l-0.46561 0.23724c-1.13e-4 -0.12204-9.5e-5 -0.24408-4.78e-4 -0.36611-0.0011-0.2877-8.84e-4 -0.57554-0.0099-0.86312z"/>
<path d="m22.137 9.6079c0.03636 0.29318 0.04312 0.60938 0.05344 0.91039 3e-3 0.08879 0.0049 0.17761 0.0073 0.26641l-0.463 0.23753c-0.0029-0.08841-0.0049-0.17684-0.0086-0.26522-0.01318-0.30009-0.01536-0.6068-0.07558-0.90126z"/>
<path d="m23.03 9.3848c-0.07222 0.25116-0.09898 0.51391-0.12431 0.77446-0.02481 0.28026-0.03594 0.56141-0.04737 0.84242l-0.46281 0.23367c0.01103-0.28105 0.02193-0.56214 0.04254-0.84272 0.02038-0.25334 0.03056-0.51749 0.10548-0.75999z"/>
<path d="m19.216 10.016c0.33382 0.07029 0.67255 0.12832 1.0096 0.18546 0.79151 0.12228 1.5855 0.23081 2.3813 0.32163 0.33279 0.03406 0.66534 0.07005 0.99757 0.10924l-0.43001 0.30425c-0.3292-0.04068-0.65871-0.07871-0.98844-0.11495-0.79607-0.09588-1.5909-0.20422-2.3838-0.32294-0.3417-0.05493-0.68548-0.12201-1.0278-0.16177z"/>
</g>
</g>
<rect transform="matrix(-1 .0006412 -.002713 1 0 0)" x="-31.022" y="5.0197" width="13.999" height="2.9916" rx=".40191" ry=".52528" color="#000000" display="block" fill="#d3d7cf" fill-opacity=".99608"/>
<g transform="translate(16)" fill-rule="evenodd">
<path d="m13.043 5.15 1.3897 2.7h-1.7738l-1.367-2.7z"/>
<path d="m9.637 5.15 1.3333 2.7h-1.7623l-1.3218-2.7z"/>
<path d="m6.0676 5.15 1.3276 2.7h-1.7623l-1.3161-2.7z"/>
</g>
<path d="m17.775 5.15c-0.06859 0.093579-0.11287 0.27529-0.11322 0.41332l-0.01165 1.4532 0.41731 0.83349h1.7481l-1.3202-2.7z" color="#000000" display="block"/>
<rect transform="matrix(.98846 -.15146 .14624 .98925 0 0)" x="16.449" y="4.5835" width="13.863" height="3.0468" rx=".398" ry=".53497" color="#000000" display="block" fill="#d3d7cf" fill-opacity=".99608" stroke-width="1.0043"/>
<g fill-rule="evenodd" stroke-width="1.0042">
<path d="m21.504 1.4936-0.91001 2.9222 1.7249-0.26546 0.89876-2.9204z"/>
<path d="m24.992 0.95686-0.90443 2.9213 1.7249-0.26546 0.89318-2.9196z"/>
<path d="m28.326 0.44376-0.90443 2.9213 1.7249-0.26546 0.89318-2.9196z"/>
</g>
<path d="m18.107 4.7964c-0.080821-0.083987-0.15074-0.26046-0.17128-0.39953l-0.22398-1.4629 0.28652-0.90293 1.711-0.26332-0.89719 2.9202z" color="#000000" display="block" stroke-width="1.0042"/>
<path d="m17.263 3.7718v2.8269c0 0.16858 0.14264 0.32418 0.31122 0.33715h2.8658c0.31358 0 0.46252-0.45816 0.22044-0.70024l-2.2563-2.6453c-0.35012-0.50573-1.1411-0.25935-1.1411 0.18154z" fill="#939393" fill-rule="evenodd"/>
<g transform="translate(16)" fill="#fff">
<circle cx="1.9696" cy="4.2581" r=".17506" color="#000000" display="block"/>
<circle cx="1.9696" cy="6.1772" r=".17506" color="#000000" display="block"/>
<circle cx="3.798" cy="6.1772" r=".17506" color="#000000" display="block"/>
</g>
</g>
</svg>
