<svg width="16" height="16" version="1.1" xmlns="http://www.w3.org/2000/svg">
<path d="m16 0-11 16h11v-16zm-2 7v7h-5l5-7z" fill="#e8cf33"/>
<path d="m15.623 15.432v-14.247l-9.765 14.222z" fill="none" opacity=".63874"/>
<path d="m9.1278-1.0065e-8c0.065261 0.021381 0.12848 0.045152 0.19213 0.067887 0.20058 0.68574 1.1305 1.3792 0.77687 2.0621-1.178 1.9915-2.3476 4.0094-3.5168 6.0166-0.22962 0.045851-0.46126 0.070824-0.69334 0.076374-0.48846 0.012546-0.98991-0.060706-1.4535-0.22912 1.5552-2.6691 3.1111-5.344 4.6947-7.9938z" fill="#d3d7cf" fill-opacity=".99608"/>
<polygon transform="matrix(1.1201,0,0,1.0832,-326.58,-5.5034)" points="296.4 13.385 295.13 14.719 294.73 13.673 295.75 11.96 297.04 12.3" fill="#df2a2a"/>
<path d="m2.5958-1.0065e-8c-0.064085 0.021381-0.12617 0.045152-0.18867 0.067887-0.19696 0.68574-1.1101 1.3792-0.76288 2.0621 1.1568 1.9915 2.3053 4.0094 3.4535 6.0166 0.22549 0.045851 0.45295 0.070824 0.68085 0.076374 0.47967 0.012546 0.97208-0.060706 1.4273-0.22912-1.5272-2.6691-3.0551-5.344-4.6101-7.9938z" fill="#d3d7cf" fill-opacity=".99608"/>
<ellipse cx="5.7034" cy="6.9892" rx=".29645" ry=".30667" color="#000000" fill="#b9b9b9"/>
<g fill="#df2a2a">
<path d="m4.0553 8.9461c0.99609 0.53893 1.0764 2.0641 0.17796 3.4066-0.89844 1.3434-2.4339 1.9961-3.4304 1.4595-0.99655-0.53893-1.0764-2.0633-0.17795-3.4058 0.89798-1.3426 2.4339-1.9953 3.4304-1.4603zm-0.57121 0.85589c-0.44232-0.23835-1.3879 0.16871-1.991 1.0718-0.6044 0.90313-0.56129 1.8458-0.11939 2.0834 0.4419 0.23978 1.3883-0.16871 1.9915-1.0718 0.60481-0.90313 0.56129-1.845 0.11898-2.0834z"/>
<path d="m7.9447 8.9461c-0.99609 0.53893-1.0764 2.0641-0.17795 3.4066 0.89844 1.3434 2.4339 1.9961 3.4304 1.4595 0.99655-0.53893 1.0764-2.0633 0.17795-3.4058-0.89798-1.3426-2.4339-1.9953-3.4304-1.4603zm0.57121 0.85589c0.44232-0.23835 1.3879 0.16871 1.991 1.0718 0.6044 0.90313 0.56129 1.8458 0.11939 2.0834-0.4419 0.23978-1.3883-0.16871-1.9915-1.0718-0.60481-0.90313-0.56129-1.845-0.11898-2.0834z"/>
<polygon transform="matrix(1.116,0,0,1.1313,-325.68,-5.7656)" points="298.25 11.96 296.96 12.3 297.6 13.385 298.87 14.719 299.27 13.673"/>
</g>
<g fill="#2e3436" fill-opacity=".75" fill-rule="evenodd">
<path d="m15.626 14.311h-0.29477"/>
<path d="m15.626 12.757h-0.29477"/>
<path d="m15.626 11.202h-0.29477"/>
<path d="m15.626 9.6474h-0.29477"/>
<path d="m15.626 8.0927h-0.29477"/>
<path d="m15.626 6.5381h-0.29477"/>
<path d="m15.626 4.9835h-0.29477"/>
</g>
</svg>
