<svg width="16" height="16" version="1" xmlns="http://www.w3.org/2000/svg" xmlns:xlink="http://www.w3.org/1999/xlink">
<defs>
<linearGradient id="linearGradient6343" x1="48.906" x2="50.988" y1="17.376" y2="22.251" gradientTransform="matrix(.0019151 .36411 .36411 -.0019151 .38327 -4.1317)" gradientUnits="userSpaceOnUse">
<stop stop-color="#ffd1d1" offset="0"/>
<stop stop-color="#ff1d1d" offset=".5"/>
<stop stop-color="#6f0000" offset="1"/>
</linearGradient>
<linearGradient id="linearGradient6345" x1="46" x2="47.688" y1="19.812" y2="22.625" gradientTransform="matrix(.0019151 .36411 .36411 -.0019151 .38327 -4.1317)" gradientUnits="userSpaceOnUse">
<stop stop-color="#c1c1c1" offset="0"/>
<stop stop-color="#acacac" offset="1"/>
</linearGradient>
</defs>
<g fill-rule="evenodd">
<ellipse cx="8.4178" cy="14.641" rx="3.1177" ry="1.0696" color="#000000" fill="#fff" opacity=".6978"/>
<ellipse cx="8.5" cy="7" rx="4.5" ry="2" color="#000000" fill="#d3d7cf" fill-opacity=".99608" stroke-width=".97717"/>
<path d="m7.7496 11.851s0.036888 0.52323 0.49311 0.72564c0.46999 0.20853 0.96715-0.0051 0.96715-0.0051l-0.88927 1.8366s-0.31813 0.53036-1.0342 0.24439c-0.70626-0.28207-0.42615-0.97631-0.42615-0.97631z" color="#000000" fill="url(#linearGradient6343)" stroke-width=".36411"/>
<path d="m7.7496 11.851s0.036888 0.52323 0.49311 0.72564c0.46999 0.20853 0.96715-0.0051 0.96715-0.0051l-0.36028 0.73011s-0.47862 0.30365-0.97811 0.08479c-0.51321-0.22486-0.48215-0.80532-0.48215-0.80532z" color="#000000" fill="url(#linearGradient6345)" stroke-width=".36411"/>
</g>
<g transform="translate(-.28764)" fill-rule="evenodd">
<path d="m14.29 1.0432e-5 -2.0373 2.0589-5.5596 11.522c-0.44891 1.1857 1.2388 1.8823 1.825 0.83243l5.4234-11.499z" color="#000000" fill="#cb9022" stroke-width=".36411"/>
<path d="m14.285 0.0040299-2.0327 2.0548c0.37253 0.67942 0.98457 1.0311 1.6931 0.84281z" color="#000000" fill="#e7e2b8" stroke-width=".45417"/>
<path d="m13.64 0.67812 0.64498-0.67522-0.12213 0.96955c-0.29197 0.09199-0.43272-0.075199-0.52284-0.29433z" color="#000000" stroke-width=".41012"/>
</g>
<path d="m12.342 7.6408-0.76966 6.6751c-0.30697 1.7404-6.0975 1.7594-6.4463 0l-0.80184-6.6526c0.76746 1.9044 7.6509 1.6223 8.0178-0.022506z" color="#000000" fill="none" opacity=".53846"/>
<g transform="translate(-17)" fill-rule="evenodd">
<path d="m26.077 10.25c0.32129-0.22116 1.231 0.57701 2.0506 1.7678 0.81967 1.1908 0.98995 2.4979 0.91916 2.5466-0.07889 0.05431-1.231-0.57701-2.0506-1.7678-0.81967-1.1908-1.2405-2.3255-0.91916-2.5466z" color="#000000" fill="#e7e7e7"/>
<g>
<path d="m24.05 9.3556c1.0711 1.5128 2.1238 2.8229 2.9924 3.7644l1.4082-0.96932c-0.64131-1.2927-1.6401-2.9656-2.8512-4.725-2.1861-3.1758-4.3538-5.5953-5.2113-5.8823-0.02631-0.00834-0.0616-0.019317-0.08534-0.023479-0.01669-0.00254-0.04142-0.00168-0.05675-0.00205-0.0241 1.115e-4 -0.055 0.00509-0.07553 0.010878-5e-3 0.00163-0.02039 0.00164-0.02518 0.00363-0.0047 0.00217-0.01433 0.010392-0.01878 0.012924-0.0022 0.00136-0.0073 0.00501-0.0094 0.00646s-0.0073 0.00493-0.0094 0.00646c-0.0039 0.00325-0.01508 0.00933-0.01878 0.012924-0.0036 0.00376-0.0091 0.018116-0.01238 0.022223-0.01274 0.017108-0.02842 0.044196-0.03713 0.066668-0.0051 0.014458-0.01477 0.037246-0.01835 0.053744-0.0046 0.02366-0.0069 0.060541-0.0085 0.088099-0.03802 0.90341 1.448 3.7921 3.6341 6.968 0.13602 0.19761 0.2677 0.39439 0.40323 0.5858z" color="#000000" fill="#729fcf"/>
<path d="m22.388 7.1013c0.27201 0.38143 0.55379 0.74792 0.82139 1.0928l1.9715-1.357c-0.32232-0.53069-0.68027-1.0888-1.0667-1.6502-1.8445-2.6796-3.7477-4.6696-4.567-4.8458-0.0072-0.001424-0.02455-0.004538-0.03158-0.005672-0.0069-9.9038e-4 -0.02481-0.004973-0.03158-0.005672-0.01669-0.001384-0.04117-0.002501-0.05675-0.002046-0.0061 3.2985e-4 -0.01921 3e-3 -0.02518 0.003627-0.01761 0.00233-0.0438 0.008669-0.05974 0.013714-0.0052 0.001835-0.02015 0.001486-0.02518 0.003627-0.0074 0.003437-0.02119 0.015254-0.02816 0.019386-0.0023 0.001456-0.0072 0.00493-0.0094 0.006462-0.0022 0.001533-0.0072 0.004856-0.0094 0.006462-0.0064 0.005036-0.02231 0.013699-0.02816 0.019387-0.0038 0.003935-0.0088 0.018001-0.01238 0.022223-0.0104 0.01309-0.02567 0.03529-0.03414 0.050907-0.0027 0.005344-0.0099 0.016603-0.01237 0.022223-6e-3 0.014392-0.01368 0.037657-0.01835 0.053744-0.0018 0.006568-0.0044 0.024686-6e-3 0.031521-0.0015 0.006967-0.0047 0.02429-6e-3 0.031521-0.12787 0.82819 1.0514 3.3164 2.8959 5.9961 0.11477 0.16673 0.22432 0.33169 0.33922 0.49281z" color="#000000" fill="#5b90c8"/>
<path d="m19.641 2.4277 1.3894-0.9564c-0.73727-0.82462-1.4027-1.3339-1.7619-1.3134-0.0023 1.7623e-4 -0.01103 5.6437e-4 -0.01329 7.8647e-4 -0.0022 2.6456e-4 -0.01108 4.7699e-4 -0.01329 7.8648e-4 -0.0022 3.5307e-4 -0.01113 3.8959e-4 -0.01329 7.8647e-4 -0.01282 0.002651-0.03351 0.010226-0.04537 0.014497-2e-3 7.5734e-4 -0.0075 0.005659-0.0094 0.006462-0.0019 8.4837e-4 -0.01143-1.0734e-4 -0.01329 7.8647e-4 -0.0018 9.394e-4 -0.0076 0.005477-0.0094 0.006462-0.0018 0.00103-0.0076 0.005384-0.0094 0.006462-0.0017 0.001125-0.0077 0.005292-0.0094 0.006462-0.0017 0.001169-0.0077 0.005249-0.0094 0.006462-0.0016 0.001256-0.0078 0.005163-0.0094 0.006462-0.0016 0.00134-0.0079 0.005079-0.0094 0.006462-0.0015 0.001424-4e-3 0.01067-0.0055 0.012138-0.0014 0.001511-8e-3 0.004911-0.0094 0.006462-0.0082 0.009555-0.02268 0.026172-0.02974 0.0372-0.0011 0.001879-0.0044 0.010219-0.0055 0.012138-0.0011 0.001959-0.0044 0.01014-0.0055 0.012138-1e-3 0.002039-0.0045 0.01006-0.0055 0.012138-0.1474 0.32818 0.09077 1.1316 0.59782 2.1147z" color="#000000" fill="#729fcf"/>
</g>
</g>
<path d="m4.9971 7.2432c0.068753 0.097332 0.13768 0.18802 0.20598 0.28333l1.3653-0.94087c-0.18684-0.2834-0.45029-0.74567-0.64675-1.0403-2.2618-3.3923-4.4785-5.0873-4.5709-5.024-0.10166 0.069624 0.78811 2.7225 3.0939 5.927 0.13538 0.18815 0.42221 0.61039 0.55248 0.7948z" color="#000000" fill="none" opacity=".35714"/>
<path d="m13 7-1.0313 7.6055c-0.32884 1.8492-6.5319 1.8694-6.9056 0l-1.0631-7.3991c1 2.3425 8 2.3792 9-0.0027z" color="#000000" fill="#d3d7cf" fill-opacity=".99608" fill-rule="evenodd" stroke-width=".98122"/>
</svg>
