<svg width="16" height="16" version="1" xmlns="http://www.w3.org/2000/svg">
<defs>
<linearGradient id="linearGradient2707" x1="12.207" x2="12.128" y1="53.535" y2="64.893" gradientTransform="matrix(.80372 0 0 .40186 -1.7313 -10.412)" gradientUnits="userSpaceOnUse">
<stop stop-color="#585956" offset="0"/>
<stop stop-color="#bbbeb8" offset="1"/>
</linearGradient>
</defs>
<g transform="matrix(1.0802 0 0 1.0253 -20.085 .23919)">
<ellipse cx="26" cy="13.819" rx="3.7031" ry="1.5529" color="#000000" fill="#adb0aa" fill-rule="evenodd"/>
<ellipse cx="26" cy="13.688" rx="3.3415" ry="1.2853" color="#000000" fill="none"/>
</g>
<ellipse cx="7.9748" cy="13.378" rx="3.1798" ry="1.3575" color="#000000" fill="none"/>
<g fill-rule="evenodd">
<rect x="6.0001" y="11.999" width="4" height="2" color="#000000" fill="url(#linearGradient2707)"/>
<path d="m1.213 0.99892h13.574c0.3683 0 0.65637 0.24144 0.67359 0.57997l0.53832 10.584c0.02352 0.46251-0.36415 0.83599-0.81647 0.83599h-14.365c-0.45233 0-0.84-0.37348-0.81647-0.83599l0.53832-10.584c0.01628-0.32008 0.22126-0.57997 0.67359-0.57997z" color="#000000" fill="#dde1d9"/>
<path d="m1.5103 1.9989-0.51022 9h13l-0.54834-8.9619z" fill="#2584d4"/>
</g>
<path d="m0.84796 12.188h14.318" fill="none"/>
<path d="m1.1458 1.4171 13.678-0.015642c0.11465-1.311e-4 0.22603 0.098173 0.23525 0.27002l0.55039 10.263c0.02346 0.43739-0.21813 0.73898-0.64596 0.73898h-13.952c-0.42783 0-0.64379-0.30157-0.6207-0.73898l0.53511-10.136c0.01563-0.29621 0.06724-0.3821 0.2201-0.38227z" color="#000000" fill="none"/>
<g transform="translate(.00014811 -.0010793)" fill="#909090" fill-rule="evenodd">
<ellipse cx="14.469" cy="2.5523" rx=".45175" ry=".22878" color="#000000"/>
<ellipse cx="14.515" cy="3.4237" rx=".45175" ry=".22878" color="#000000"/>
<ellipse cx="14.561" cy="4.2513" rx=".45175" ry=".22878" color="#000000"/>
<ellipse cx="14.607" cy="5.0789" rx=".45175" ry=".22878" color="#000000"/>
<ellipse cx="14.653" cy="5.9065" rx=".45175" ry=".22878" color="#000000"/>
</g>
<path d="m7.0001 11.721h0.11385c0.03384 1e-6 0.0598 0.0077 0.07786 0.02317 0.01818 0.01532 0.02726 0.03722 0.02726 0.06568 0 0.02859-0.0091 0.05059-0.02726 0.06604-0.01806 0.01532-0.044 0.02299-0.07786 0.02299h-0.04526v0.0945h-0.06859v-0.27237m0.06859 0.0509v0.07607h0.03796c0.01331 0 0.02357-0.0033 0.03083-0.0098 0.0073-0.0068 0.01087-0.01612 0.01087-0.02828s-0.0036-0.02152-0.01087-0.02809c-0.0073-0.0067-0.01751-0.0098-0.03083-0.0098h-0.03796m0.32017-0.0049c-0.02091 0-0.03712 0.0079-0.04864 0.02371-0.01151 0.01581-0.01729 0.03808-0.01729 0.06678 0 0.02859 0.0058 0.05077 0.01729 0.06658 0.01151 0.01581 0.02773 0.02371 0.04864 0.02371 0.02102 0 0.0373-0.0079 0.04882-0.02371 0.01151-0.01581 0.01729-0.03801 0.01729-0.06658 0-0.0287-0.0058-0.05096-0.01729-0.06678-0.01152-0.01581-0.0278-0.02371-0.04882-0.02371m0-0.0509c0.04275 1e-6 0.07626 0.01252 0.10049 0.03758 0.02423 0.02505 0.03634 0.05966 0.03634 0.1038 0 0.04403-0.01212 0.07856-0.03634 0.10362-0.02423 0.02506-0.05772 0.03758-0.10049 0.03758-0.04264 0-0.07614-0.01252-0.10048-0.03758-0.02423-0.02506-0.03635-0.05959-0.03635-0.10362 0-0.04414 0.01212-0.07875 0.03635-0.1038 0.02435-0.02506 0.05785-0.03758 0.10048-0.03758m0.1885 0.0049h0.07662l0.09674 0.18686v-0.18681h0.06503v0.27237h-0.07662l-0.09674-0.18681v0.18681h-0.06503v-0.27237m0.26797 0h0.07501l0.06057 0.09705 0.06058-0.09705h0.07519l-0.10138 0.15762v0.11475h-0.06859v-0.11475l-0.10138-0.15762" fill="#4a4a4a"/>
<ellipse cx="7.0412" cy="7" r="1" fill="#fff"/>
<g fill="#5ebae6">
<path d="m3.3071 9.998h2.25c0.25904 0 0.46639-0.2889 0.46639-0.64337v-4.7865c0-0.29024-0.18382-0.56819-0.41467-0.56819h-1.9931c-0.24315-0.017511-0.45451 0.2363-0.47283 0.53566l-0.29336 4.7936c-0.022543 0.36837 0.18214 0.66874 0.45758 0.66874"/>
<path d="m8.5874 6h2.7271c0.32221 0 0.56363-0.27414 0.54182-0.61121 0 0-0.0515-0.7959-0.0515-0.7959-0.021-0.32448-0.28837-0.5839-0.59998-0.58487l-2.637-0.0082c-0.31448-9.783e-4 -0.56789 0.25835-0.56789 0.5847v0.80059c-1e-6 0.33909 0.26211 0.61489 0.5874 0.61489" stroke-width=".992"/>
<path d="m8.5709 9.998h2.9559c0.3509 0 0.61541-0.27471 0.59327-0.61271 0 0-0.05233-0.79905-0.05233-0.79905-0.021364-0.32616-0.31214-0.58629-0.65217-0.58629h-2.8643c-0.34003 0-0.61377 0.26013-0.61377 0.58629v0.79905c0 0.33799 0.2825 0.61271 0.6334 0.61271"/>
</g>
</svg>
