<svg width="16" height="16" version="1" xmlns="http://www.w3.org/2000/svg" xmlns:xlink="http://www.w3.org/1999/xlink">
<defs>
<linearGradient id="linearGradient2707" x1="12.207" x2="12.128" y1="53.535" y2="64.893" gradientTransform="matrix(.80372 0 0 .40186 -1.7313 -10.412)" gradientUnits="userSpaceOnUse">
<stop stop-color="#585956" offset="0"/>
<stop stop-color="#bbbeb8" offset="1"/>
</linearGradient>
</defs>
<g transform="matrix(1.0802 0 0 1.0253 -20.085 .23919)">
<ellipse cx="26" cy="13.819" rx="3.7031" ry="1.5529" color="#000000" fill="#adb0aa" fill-rule="evenodd"/>
<ellipse cx="26" cy="13.688" rx="3.3415" ry="1.2853" color="#000000" fill="none"/>
</g>
<ellipse cx="7.9748" cy="13.378" rx="3.1798" ry="1.3575" color="#000000" fill="none"/>
<g fill-rule="evenodd">
<rect x="6.0001" y="11.999" width="4" height="2" color="#000000" fill="url(#linearGradient2707)"/>
<path d="m1.213 0.99892h13.574c0.3683 0 0.65637 0.24144 0.67359 0.57997l0.53832 10.584c0.02352 0.46251-0.36415 0.83599-0.81647 0.83599h-14.365c-0.45233 0-0.84-0.37348-0.81647-0.83599l0.53832-10.584c0.01628-0.32008 0.22126-0.57997 0.67359-0.57997z" color="#000000" fill="#dde1d9"/>
<path d="m1.5103 1.9989-0.51022 9h13l-0.54834-8.9619z" fill="#dc4f47"/>
</g>
<path d="m0.84796 12.188h14.318" fill="none"/>
<path d="m1.1458 1.4171 13.678-0.015642c0.11465-1.311e-4 0.22603 0.098173 0.23525 0.27002l0.55039 10.263c0.02346 0.43739-0.21813 0.73898-0.64596 0.73898h-13.952c-0.42783 0-0.64379-0.30157-0.6207-0.73898l0.53511-10.136c0.01563-0.29621 0.06724-0.3821 0.2201-0.38227z" color="#000000" fill="none"/>
<g transform="translate(.00014811 -.0010793)" fill="#909090" fill-rule="evenodd">
<ellipse cx="14.469" cy="2.5523" rx=".45175" ry=".22878" color="#000000"/>
<ellipse cx="14.515" cy="3.4237" rx=".45175" ry=".22878" color="#000000"/>
<ellipse cx="14.561" cy="4.2513" rx=".45175" ry=".22878" color="#000000"/>
<ellipse cx="14.607" cy="5.0789" rx=".45175" ry=".22878" color="#000000"/>
<ellipse cx="14.653" cy="5.9065" rx=".45175" ry=".22878" color="#000000"/>
</g>
<path d="m7.0001 11.721h0.11385c0.03384 1e-6 0.0598 0.0077 0.07786 0.02317 0.01818 0.01532 0.02726 0.03722 0.02726 0.06568 0 0.02859-0.0091 0.05059-0.02726 0.06604-0.01806 0.01532-0.044 0.02299-0.07786 0.02299h-0.04526v0.0945h-0.06859v-0.27237m0.06859 0.0509v0.07607h0.03796c0.01331 0 0.02357-0.0033 0.03083-0.0098 0.0073-0.0068 0.01087-0.01612 0.01087-0.02828s-0.0036-0.02152-0.01087-0.02809c-0.0073-0.0067-0.01751-0.0098-0.03083-0.0098h-0.03796m0.32017-0.0049c-0.02091 0-0.03712 0.0079-0.04864 0.02371-0.01151 0.01581-0.01729 0.03808-0.01729 0.06678 0 0.02859 0.0058 0.05077 0.01729 0.06658 0.01151 0.01581 0.02773 0.02371 0.04864 0.02371 0.02102 0 0.0373-0.0079 0.04882-0.02371 0.01151-0.01581 0.01729-0.03801 0.01729-0.06658 0-0.0287-0.0058-0.05096-0.01729-0.06678-0.01152-0.01581-0.0278-0.02371-0.04882-0.02371m0-0.0509c0.04275 1e-6 0.07626 0.01252 0.10049 0.03758 0.02423 0.02505 0.03634 0.05966 0.03634 0.1038 0 0.04403-0.01212 0.07856-0.03634 0.10362-0.02423 0.02506-0.05772 0.03758-0.10049 0.03758-0.04264 0-0.07614-0.01252-0.10048-0.03758-0.02423-0.02506-0.03635-0.05959-0.03635-0.10362 0-0.04414 0.01212-0.07875 0.03635-0.1038 0.02435-0.02506 0.05785-0.03758 0.10048-0.03758m0.1885 0.0049h0.07662l0.09674 0.18686v-0.18681h0.06503v0.27237h-0.07662l-0.09674-0.18681v0.18681h-0.06503v-0.27237m0.26797 0h0.07501l0.06057 0.09705 0.06058-0.09705h0.07519l-0.10138 0.15762v0.11475h-0.06859v-0.11475l-0.10138-0.15762" fill="#4a4a4a"/>
<ellipse cx="7.0412" cy="7" r="1" fill="#fff"/>
<path d="m3.4689 4c-0.79143 0-1.4277 0.53442-1.4277 1.1992v0.80078h0.71484v-0.80078c0-0.34278 0.30482-0.59961 0.71289-0.59961h0.57227v-0.59961zm1.5723 0v0.59961h1.5v-0.59961zm2.5 0v0.59961h1.5v-0.59961zm2.5 0v0.59961h0.57227c0.40807 0 0.71289 0.25683 0.71289 0.59961v0.80078h0.71484v-0.80078c0-0.6648-0.63631-1.1992-1.4277-1.1992zm-8 3v1h0.71484v-1zm9.2852 0v1h0.71484v-1zm-9.2617 2c0.11294 0.56872 0.69421 1 1.4043 1h0.57227v-0.59961h-0.57227c-0.3227 0-0.57372-0.16357-0.66797-0.40039zm9.2168 0c-0.09424 0.23682-0.34527 0.40039-0.66797 0.40039h-0.57227v0.59961h0.57227c0.71008 0 1.2914-0.43128 1.4043-1zm-6.2402 0.40039v0.59961h1.5v-0.59961zm2.5 0v0.59961h1.5v-0.59961z" fill="#fff"/>
</svg>
