<svg width="16" height="16" version="1" xmlns="http://www.w3.org/2000/svg">
<g transform="translate(-19)">
<g>
<path d="m19.488 14.97v0.33394c0 0.38556 0.29801 0.69606 0.66806 0.69606h13.664c0.37005 0 0.66806-0.3105 0.66806-0.69606v-0.33394z" fill="#8e8d87"/>
<path d="m20.417 8h13.166c0.15025 0 0.34223 0.10578 0.46062 0.26575 0.11839 0.15997 0.67759 0.95813 0.80321 1.1285 0.12562 0.17034 0.15333 0.33181 0.15333 0.54186v4.4334c0 0.33537-0.28563 0.60536-0.64044 0.60536h-14.719c-0.3548 0-0.64044-0.26999-0.64044-0.60536v-4.4334c0-0.18135 0.03947-0.4414 0.17419-0.60693 0.17-0.20888 0.62604-0.93534 0.74632-1.0894 0.12029-0.15405 0.34117-0.23976 0.49665-0.23976z" color="#000000" fill="#dcdcda"/>
<path d="m21.186 8.1695c-0.1769 0-0.39401 0.029277-0.48208 0.18389l-0.66868 1.174c-0.099275 0.17429 0.011939 0.47266 0.32832 0.47266h13.246c0.46094 0 0.4292-0.37791 0.32832-0.5388l-0.62203-0.99209c-0.11279-0.17989-0.15373-0.29963-0.43542-0.29963z" fill="#fbfbfb" fill-rule="evenodd"/>
</g>
<g>
<path d="m20.602 8.0846h12.81c0.14269 0 0.32502 0.10772 0.43745 0.27063 0.11244 0.16291 0.50581 0.80127 0.62511 0.97474 0.1193 0.17347 0.16996 0.33791 0.16996 0.55183v4.4536c0 0.34154-0.05218 0.49312-0.38914 0.49312h-14.462c-0.33696 0-0.41348-0.15158-0.41348-0.49312v-4.4536c0-0.18469 0.08617-0.44951 0.21412-0.61809 0.16144-0.21272 0.42242-0.77806 0.53665-0.93495 0.11423-0.15688 0.32401-0.24416 0.47167-0.24416z" color="#000000" fill="none"/>
<path d="m22.435 1h9.1299c0.24101 0 0.43504 0.20561 0.43504 0.46101v7.539h-10v-7.539c0-0.2554 0.19403-0.46101 0.43504-0.46101z" color="#000000" display="block" fill="#e0e0e0"/>
<rect x="22.121" y="1.3945" width="9.7555" height="7.4362" rx=".068981" ry=".069788" color="#000000" display="block" fill="none"/>
</g>
<rect x="20" y="11" width="14" height="2" rx=".70998" ry=".65987" fill="#f7f6f5"/>
<ellipse cx="21.5" cy="11.5" rx=".50011" ry=".5" fill="#9f9f9f"/>
<path d="m34.604 9.6852h-15.21" fill="none"/>
<g fill-opacity=".2924">
<rect x="23" y="2" width="8" height="1" color="#000000"/>
<rect x="23" y="4" width="4" height="1" color="#000000"/>
<rect x="23" y="6" width="8" height="1" color="#000000"/>
</g>
</g>
</svg>
