<svg width="16" height="16" version="1.1" xmlns="http://www.w3.org/2000/svg">
<defs>
<style id="current-color-scheme" type="text/css">.ColorScheme-Text { color:#444444; } .ColorScheme-Highlight { color:#4285f4; }</style>
</defs>
<path d="m0.097656 9c-0.04582 0.1303-0.07427 0.25187-0.07617 0.35547l-0.01563 0.013672v4.002c0 0.41891 0.25323 0.62891 0.63477 0.62891h14.742c0.37633 0 0.60938-0.27736 0.60938-0.71289v-3.916c0.0017-0.01336-8.41e-4 -0.027338 0-0.041016v-0.082031l-0.01172-0.00195c-0.0043-0.065576-3e-5 -0.12951-0.02539-0.19922l-0.019527-0.046878z" fill="#8561c5"/>
<path d="m3.2461 2c-0.23883 0-0.39666 0.11783-0.49219 0.33203l-2.6445 6.6172c-0.02041 0.051074-0.01654 0.087939-0.0293 0.13477h15.879c-0.0029-0.012598 8.05e-4 -0.02416-0.0039-0.037109l-2.7363-6.6602c-0.07051-0.19808-0.25099-0.38211-0.4375-0.38672z" fill="#8561c5" opacity=".9"/>
<path d="m3.0665 2.0035c-0.23883 0-0.39406 0.11228-0.48959 0.32648-4e-7 0-2.4718 6.6181-2.4718 6.6181s-0.09553 0.25985-0.09553 0.68924v3.734c0 0.41891 0.25135 0.62878 0.63289 0.62878h14.736c0.37633 0 0.609-0.27789 0.609-0.71342v-3.734s0.04049-0.29811-0.03582-0.50786l-2.5674-6.6543c-0.070511-0.19808-0.24338-0.38233-0.42989-0.38694z" fill="none"/>
<path d="m8 3c-2.7614 0-5 1.1193-5 2.5v2.5h5c2.7612 0 5-1.1193 5-2.5s-2.2388-2.5-5-2.5zm0 1c1.6569 0 3 0.67155 3 1.5s-1.3431 1.5-3 1.5-3-0.67155-3-1.5 1.3431-1.5 3-1.5z" opacity=".3"/>
<path d="m3.2029 2.1788c-0.22992 0-0.37937 0.1081-0.47133 0.31431-4e-7 0-2.4513 6.4196-2.4513 6.4196s-0.091968 0.25016-0.091968 0.66353v3.5947c0 0.5242 0.16968 0.62951 0.60928 0.62951h14.401c0.50559 0 0.58629-0.12243 0.58629-0.711v-3.5947s0.03898-0.28699-0.03449-0.48892l-2.5194-6.5029c-0.06788-0.19069-0.21042-0.31971-0.38997-0.32414z" fill="none"/>
</svg>
