<svg width="16" height="16" version="1" xmlns="http://www.w3.org/2000/svg">
<defs>
<linearGradient id="linearGradient2707" x1="12.207" x2="12.128" y1="53.535" y2="64.893" gradientTransform="matrix(.80372 0 0 .40186 -1.7313 -10.412)" gradientUnits="userSpaceOnUse">
<stop stop-color="#585956" offset="0"/>
<stop stop-color="#bbbeb8" offset="1"/>
</linearGradient>
</defs>
<g transform="matrix(1.0802 0 0 1.0253 -20.085 .23919)">
<ellipse cx="26" cy="13.819" rx="3.7031" ry="1.5529" color="#000000" fill="#adb0aa" fill-rule="evenodd"/>
<ellipse cx="26" cy="13.688" rx="3.3415" ry="1.2853" color="#000000" fill="none"/>
</g>
<ellipse cx="7.9748" cy="13.378" rx="3.1798" ry="1.3575" color="#000000" fill="none"/>
<g fill-rule="evenodd">
<rect x="6.0001" y="11.999" width="4" height="2" color="#000000" fill="url(#linearGradient2707)"/>
<path d="m1.213 0.99892h13.574c0.3683 0 0.65637 0.24144 0.67359 0.57997l0.53832 10.584c0.02352 0.46251-0.36415 0.83599-0.81647 0.83599h-14.365c-0.45233 0-0.84-0.37348-0.81647-0.83599l0.53832-10.584c0.01628-0.32008 0.22126-0.57997 0.67359-0.57997z" color="#000000" fill="#dde1d9"/>
<path d="m1.5103 1.9989-0.51022 9h13l-0.54834-8.9619z" fill="#333"/>
</g>
<path d="m0.84796 12.188h14.318" fill="none"/>
<path d="m1.1458 1.4171 13.678-0.015642c0.11465-1.311e-4 0.22603 0.098173 0.23525 0.27002l0.55039 10.263c0.02346 0.43739-0.21813 0.73898-0.64596 0.73898h-13.952c-0.42783 0-0.64379-0.30157-0.6207-0.73898l0.53511-10.136c0.01563-0.29621 0.06724-0.3821 0.2201-0.38227z" color="#000000" fill="none"/>
<g transform="translate(.00014811 -.0010793)" fill="#909090" fill-rule="evenodd">
<ellipse cx="14.469" cy="2.5523" rx=".45175" ry=".22878" color="#000000"/>
<ellipse cx="14.515" cy="3.4237" rx=".45175" ry=".22878" color="#000000"/>
<ellipse cx="14.561" cy="4.2513" rx=".45175" ry=".22878" color="#000000"/>
<ellipse cx="14.607" cy="5.0789" rx=".45175" ry=".22878" color="#000000"/>
<ellipse cx="14.653" cy="5.9065" rx=".45175" ry=".22878" color="#000000"/>
</g>
<path d="m7.0001 11.721h0.11385c0.03384 1e-6 0.0598 0.0077 0.07786 0.02317 0.01818 0.01532 0.02726 0.03722 0.02726 0.06568 0 0.02859-0.0091 0.05059-0.02726 0.06604-0.01806 0.01532-0.044 0.02299-0.07786 0.02299h-0.04526v0.0945h-0.06859v-0.27237m0.06859 0.0509v0.07607h0.03796c0.01331 0 0.02357-0.0033 0.03083-0.0098 0.0073-0.0068 0.01087-0.01612 0.01087-0.02828s-0.0036-0.02152-0.01087-0.02809c-0.0073-0.0067-0.01751-0.0098-0.03083-0.0098h-0.03796m0.32017-0.0049c-0.02091 0-0.03712 0.0079-0.04864 0.02371-0.01151 0.01581-0.01729 0.03808-0.01729 0.06678 0 0.02859 0.0058 0.05077 0.01729 0.06658 0.01151 0.01581 0.02773 0.02371 0.04864 0.02371 0.02102 0 0.0373-0.0079 0.04882-0.02371 0.01151-0.01581 0.01729-0.03801 0.01729-0.06658 0-0.0287-0.0058-0.05096-0.01729-0.06678-0.01152-0.01581-0.0278-0.02371-0.04882-0.02371m0-0.0509c0.04275 1e-6 0.07626 0.01252 0.10049 0.03758 0.02423 0.02505 0.03634 0.05966 0.03634 0.1038 0 0.04403-0.01212 0.07856-0.03634 0.10362-0.02423 0.02506-0.05772 0.03758-0.10049 0.03758-0.04264 0-0.07614-0.01252-0.10048-0.03758-0.02423-0.02506-0.03635-0.05959-0.03635-0.10362 0-0.04414 0.01212-0.07875 0.03635-0.1038 0.02435-0.02506 0.05785-0.03758 0.10048-0.03758m0.1885 0.0049h0.07662l0.09674 0.18686v-0.18681h0.06503v0.27237h-0.07662l-0.09674-0.18681v0.18681h-0.06503v-0.27237m0.26797 0h0.07501l0.06057 0.09705 0.06058-0.09705h0.07519l-0.10138 0.15762v0.11475h-0.06859v-0.11475l-0.10138-0.15762" fill="#4a4a4a"/>
<ellipse cx="7.0412" cy="7" r="1" fill="#fff"/>
<path d="m7.5433 3.983c-1.6769-0.00629-2.4943-0.0095-2.5235 1.2329l-0.019729 0.78404-0.17774-0.0013334c-0.43163-0.0032381-0.80214 0.34434-0.8173 0.65894l-0.13131 2.7239c-0.016468 0.34161 0.33964 0.61851 0.79813 0.61851h5.7595c0.45372 0 0.80438-0.27563 0.78668-0.61568l-0.1411-2.712c-0.01629-0.31309-0.34511-0.65797-0.81413-0.66747l-0.26273-0.0048426-0.021738-0.76929c-0.03501-1.239-0.76194-1.2414-2.435-1.2477m0.00189 0.93384c0.84865 0.00269 1.437 0.040544 1.4471 0.47149l0.0077308 0.61164h-3l0.01408-0.62018c0.009793-0.43138 0.68119-0.46564 1.5311-0.46294" fill="#bcbcbc" stroke-width="1.0801"/>
</svg>
