<svg width="16" height="16" version="1" xmlns="http://www.w3.org/2000/svg" xmlns:xlink="http://www.w3.org/1999/xlink">
<ellipse cx="7.9994" cy="7.9997" rx="7.9999" ry="7.9998" fill="#729fcf" stroke-width="1.096"/>
<path d="m8.2016 3.8891c-0.35073 8.5e-6 -0.70934 0.040734-1.0848 0.11248-0.3752 0.071723-0.79409 0.1768-1.2478 0.3273a0.044697 0.043913 0 0 0-0.030403 0.041307v1.6777a0.044697 0.043913 0 0 0 0.068566 0.036859c0.37835-0.23396 0.7403-0.40786 1.0874-0.52428a0.044697 0.043913 0 0 0 6.624e-4 0c0.34712-0.11999 0.67211-0.18048 0.96832-0.18048 0.31437 6.5e-6 0.54735 0.069142 0.71672 0.20399a0.044697 0.043913 0 0 0 6.624e-4 0c0.16848 0.13083 0.25227 0.31604 0.25227 0.55542-3.3e-6 0.1564-0.041286 0.30702-0.13843 0.46519a0.044697 0.043913 0 0 0-6.624e-4 6.507e-4c-0.093722 0.15846-0.24646 0.33465-0.45667 0.51793l-0.36159 0.30504a0.044697 0.043913 0 0 0-6.624e-4 6.507e-4c-0.39792 0.35157-0.65817 0.64974-0.78591 0.88652-0.1267 0.23136-0.19147 0.49457-0.19147 0.7931v0.26437a0.044697 0.043913 0 0 0 0.044634 0.043818h2.0182a0.044697 0.043913 0 0 0 0.044634-0.043851v-0.24403c-4e-6 -0.15234 0.043316-0.28861 0.11837-0.41498a0.044697 0.043913 0 0 0 0-6.508e-4c0.07362-0.12731 0.2358-0.30795 0.48774-0.52747l0.35189-0.30504a0.044697 0.043913 0 0 0 6.62e-4 -6.507e-4c0.35324-0.31962 0.60501-0.61512 0.75421-0.8967 0.14879-0.28439 0.23286-0.60956 0.23286-0.96598-6e-6 -0.69185-0.25344-1.2194-0.74192-1.5805-0.48857-0.36471-1.1905-0.54777-2.1074-0.54777zm-1.1637 6.2329a0.044697 0.043913 0 0 0-0.040103 0.04385v1.9014a0.044697 0.043913 0 0 0 0.044634 0.04385h2.0182a0.044697 0.043913 0 0 0 0.044634-0.04385v-1.9014a0.044697 0.043913 0 0 0-0.044634-0.04385h-2.0182a0.044697 0.043913 0 0 0-0.00453 0z" fill="#fff" stroke-width=".32827" xlink:href="#text2215"/>
</svg>
