<svg width="16" height="16" version="1" xmlns="http://www.w3.org/2000/svg">
<path d="m5.743 2c-0.41444 0-0.743 0.33436-0.743 0.74104v5.8327c0 0.40668 0.32856 0.72908 0.743 0.72908h5.4689c0.33126 0.42741 0.97591 1.1204 2.5213 1.6972-0.68805-0.79345-0.68659-1.3323-0.60901-1.6972h1.1206c0.41444 0 0.75518-0.32241 0.75518-0.72908v-5.8327c0-0.40668-0.34074-0.74104-0.75518-0.74104z" color="#000000" display="block" fill="#0286c2"/>
<path d="m10.257 6c0.41444 0 0.743 0.33436 0.743 0.74104v5.8327c0 0.40668-0.32856 0.72908-0.743 0.72908h-5.4689c-0.33126 0.42741-0.97591 1.1204-2.5213 1.6972 0.68805-0.79346 0.68659-1.3323 0.60901-1.6972h-1.1206c-0.41444 0-0.75518-0.32241-0.75518-0.72908v-5.8327c0-0.40668 0.34074-0.74104 0.75518-0.74104z" color="#000000" display="block" fill="#35b9f5"/>
</svg>
