<svg width="16" height="16" version="1" xmlns="http://www.w3.org/2000/svg">
<rect y="1" width="16" height="14" rx="1" ry="1" fill="#816130"/>
<g fill="#fff">
<path d="m6.5 4c0.8284 0 1.5 0.6716 1.5 1.5s-0.6716 1.5-1.5 1.5-1.5-0.6716-1.5-1.5 0.6716-1.5 1.5-1.5z"/>
<path d="m12 4c0.5525 0 1 0.4475 1 1s-0.448 1-1 1-1-0.4475-1-1c0-0.5522 0.448-1 1-1z"/>
<path d="m4.6349 7.9166c-1.6512 0.98393-1.8573 2.3162-1.464 3.1047 0.40848 0.81896 1.1001 0.96842 1.9252 0.97466l1.3971 0.004025h0.01364l1.3971-4e-3c0.82497-0.0063 1.5166-0.15577 1.9252-0.97466 0.39329-0.78848 0.18722-2.1207-1.464-3.1047-0.39109 0.43038-1.1323 0.68275-1.8651 0.68993-0.73286-0.00717-1.474-0.25954-1.8651-0.68993z" color="#000000" fill-rule="evenodd" stroke-width=".67779"/>
<path d="m10.934 6.6666c-0.94352 0.56225-1.0613 1.3235-0.83656 1.7741 0.23342 0.46798 0.62865 0.55338 1.1001 0.55695l0.79835 0.0023h0.0078l0.79835-0.0023c0.47141-0.0036 0.86666-0.08901 1.1001-0.55695 0.22474-0.45056 0.10698-1.2118-0.83655-1.7741-0.22348 0.24593-0.64702 0.39014-1.0658 0.39424-0.41878-0.0041-0.84229-0.14831-1.0658-0.39424z" color="#000000" fill-rule="evenodd" stroke-width=".38731"/>
</g>
</svg>
