<svg width="16" height="16" version="1" xmlns="http://www.w3.org/2000/svg">
<rect width="16" height="16" rx=".857" ry=".857" fill="#c28f42"/>
<path d="m13 12.64c-0.91387-0.07485-1.0101-0.07415-1.2185-1.167l-1.5071-8.473h-0.28783l-4.7785 7.485c-1.2666 1.991-1.5667 2.0352-2.208 2.155v0.35998h3.138v-0.35998c-0.81768-0.07485-0.94595-0.02923-0.94595-0.40348 0-0.28443 0.048105-0.41917 0.32067-0.92815l0.91387-1.5109h3.5272l0.32067 1.7803c0.016 0.13473 0.03207 0.26947 0.03207 0.38922 0 0.56887-0.0847 0.58313-1.1108 0.67295v0.35998h3.8043v-0.35998m-6.2368-3.5622 2.405-3.8922 0.70545 3.8922h-3.1103" fill="#fff" stroke-width="1.6667"/>
</svg>
