<svg width="16" height="16" version="1" xmlns="http://www.w3.org/2000/svg">
 <path d="m0.419 2h15.161c0.23238 0 0.41947 0.18221 0.41947 0.40853v8.6793c0 0.22633-3.1532 2.9121-3.3855 2.9121h-12.195c-0.23238 0-0.41946-0.1822-0.41946-0.40853v-11.183c0-0.22633 0.18708-0.40853 0.41946-0.40853z" color="#000000" fill="#d2d2d2"/>
 <path d="m1 9v4h13v-1h1v-3z" fill="#203557"/>
 <path d="m1 2.995h14v6.005h-14z" fill="#979af2"/>
 <path d="M 6,5.5 C 6,6.31081 5.35135,7 4.5,7 3.68919,7 3,6.35135 3,5.5 3,4.68919 3.64865,4 4.5,4 5.31081,4 6,4.64865 6,5.5 Z" fill="#fffa6a"/>
 <path d="m12.533 13.988c0.75706 0.123 3.5753-1.689 3.4618-3.1685-0.58288 0.90347-1.7743 0.47977-3.3062 0.53906 0 0 0.14742 2.443-0.15553 2.6294z" color="#000000" fill="#7c7c7c" fill-rule="evenodd"/>
 <g transform="translate(-30 -1.4545)" fill="#515151">
  <path d="m38.941 10.467h3.4142l0.51447-0.3259h-1.1225s1.0289-0.18623 1.1692-1.3502c0.14031-1.1639-1.5902-2.4675-1.5902-2.4675v0.046557c0.04677 0.27934 0.51447 2.2348 0.18708 2.9797-0.14031 0.6518-0.56124 0.79148-0.56124 0.79148h-2.1514l0.09354 0.3259z"/>
  <path d="m40.999 9.9544h-1.9643l2.3385-3.5384z"/>
 </g>
</svg>
