<svg width="16" height="16" version="1" xmlns="http://www.w3.org/2000/svg">
<g transform="translate(-20,-1)">
<path d="m20.419 3h15.161c0.23238 0 0.41947 0.18221 0.41947 0.40853v8.6793c0 0.22633-3.1532 2.9121-3.3855 2.9121h-12.195c-0.23238 0-0.41946-0.1822-0.41946-0.40853v-11.183c0-0.22633 0.18708-0.40853 0.41946-0.40853z" color="#000000" fill="#d2d2d2"/>
<path d="m21 10v4h13v-1h1v-3z" fill="#203557"/>
<path d="m21 3.995h14v6.005h-14z" fill="#42669d"/>
<path d="m26 6.5c0 0.81081-0.64865 1.5-1.5 1.5-0.81081 0-1.5-0.64865-1.5-1.5 0-0.81081 0.64865-1.5 1.5-1.5 0.81081 0 1.5 0.64865 1.5 1.5z" fill="#f2fa87" fill-opacity=".77255"/>
<path d="m32.533 14.988c0.75706 0.123 3.5753-1.689 3.4618-3.1685-0.58288 0.90347-1.7743 0.47977-3.3062 0.53906 0 0 0.14742 2.443-0.15553 2.6294z" color="#000000" fill="#7c7c7c" fill-rule="evenodd"/>
<g transform="translate(-10 -.45453)" fill="#515151">
<path d="m38.941 10.467h3.4142l0.51447-0.3259h-1.1225s1.0289-0.18623 1.1692-1.3502c0.14031-1.1639-1.5902-2.4675-1.5902-2.4675v0.046557c0.04677 0.27934 0.51447 2.2348 0.18708 2.9797-0.14031 0.6518-0.56124 0.79148-0.56124 0.79148h-2.1514l0.09354 0.3259z"/>
<path d="m40.999 9.9544h-1.9643l2.3385-3.5384z"/>
</g>
</g>
</svg>
