<svg width="16" height="16" version="1" xmlns="http://www.w3.org/2000/svg">
<path d="m0.013636 14.212c-0.086383 0.39393 0.24475 0.80193 0.79185 0.78786h14.585c0.5183-0.01407 0.69107-0.47834 0.57589-0.8582l-0.86793-3.1414h-14.44z" fill="#b9b9b9" fill-rule="evenodd"/>
<path d="m1.9581 11.017h11.91c0.33768 0 0.60953 0.25656 0.60953 0.57524l0.52282 1.8321c0 0.31868-0.27185 0.57524-0.60953 0.57524h-12.781c-0.33768 0-0.60953-0.25656-0.60953-0.57524l0.34855-1.8321c0-0.31868 0.27185-0.57524 0.60953-0.57524z" color="#000000" fill="#d3d7cf" fill-opacity=".99608" fill-rule="evenodd"/>
<path d="m0.48814 13.966c-0.079673 0.36741-0.15891 0.62227 0.18932 0.62227h14.476c0.36517 0 0.29568-0.29138 0.18946-0.64568l-3.0067-10.744h-9.6668z" fill="none"/>
<path d="m1.9581 11h11.91c0.33768 0 0.60953 0.17204 0.60953 0.38573l0.52282 1.2285c0 0.21369-0.27185 0.38573-0.60953 0.38573h-12.781c-0.33768 0-0.60953-0.17204-0.60953-0.38573l0.34855-1.2285c0-0.21369 0.27185-0.38573 0.60953-0.38573z" color="#000000" fill="#e2e2e2" fill-rule="evenodd"/>
<path d="m2.0253 3.6165-1.6234 8.3835 9.8764 1e-6c4.7285 0 5.7217-1.4737 5.7217-1.4737s-1.2614-0.43421-1.7981-2.2632l-1.1501-4.6467z" fill="#e7ebeb" fill-rule="evenodd"/>
<path d="m2.4236 4.4365-1.4997 7.3387h9.1776c4.2182 0 5.3017-1.0585 5.3017-1.0585s-1.1246-0.69167-1.6132-2.3694l-1.029-3.8842z" fill="none"/>
<path d="m6.3033 7.9129c0.38563 0.032154 0.672 0.12771 0.85909 0.28667 0.18732 0.15718 0.26452 0.35812 0.2316 0.60281-0.048301 0.35901-0.26873 0.64835-0.66127 0.86805-0.39255 0.21969-0.9003 0.32954-1.5233 0.32954-0.47826 0-0.88141-0.06608-1.2094-0.19826l0.093715-0.69658c0.34468 0.20897 0.73653 0.31347 1.1756 0.31347 0.35072 3e-7 0.62723-0.05001 0.82955-0.15003 0.20255-0.10181 0.3162-0.24469 0.34095-0.42866 0.025951-0.1929-0.055618-0.334-0.24472-0.42331-0.1891-0.0893-0.50438-0.13396-0.94585-0.13396h-0.49665l0.08074-0.60014h0.52976c0.34826 2.1e-6 0.62063-0.046437 0.81707-0.13931 0.19668-0.094663 0.30668-0.22862 0.32999-0.40188 0.021861-0.16253-0.035393-0.29292-0.17179-0.39116-0.1364-0.098232-0.35297-0.14735-0.64973-0.14736-0.37525 3.2e-6 -0.74263 0.096456-1.1022 0.28935l0.089761-0.66712c0.40279-0.15003 0.85436-0.22504 1.3547-0.22505 0.48316 3.7e-6 0.85387 0.088412 1.1121 0.26524 0.26071 0.17682 0.37257 0.40277 0.33556 0.67783-0.03437 0.25542-0.14955 0.46439-0.34555 0.62692-0.19577 0.16075-0.47235 0.27507-0.82975 0.34293" stroke-width=".92306"/>
<path d="m11 9.9919h-0.97859l-0.43358-3.2096-1.2066 0.27327-0.081432-0.60281 2.162-0.44474 0.53818 3.984" stroke-width=".92306"/>
<path d="m2.7321 2h9.5357c0.33067 0 0.59687 0.26345 0.59687 0.59069l0.13526 0.84454c0 0.32724-0.2662 0.59069-0.59687 0.59069h-9.8063c-0.33067 0-0.59687-0.26345-0.59687-0.59069l0.13526-0.84454c0-0.32724 0.26621-0.59069 0.59687-0.59069z" color="#000000" fill="#f54b3e" fill-rule="evenodd"/>
</svg>
