<svg width="16" height="16" version="1.1" xmlns="http://www.w3.org/2000/svg" xmlns:xlink="http://www.w3.org/1999/xlink">
<defs>
<linearGradient id="linearGradient3560">
<stop stop-color="#f0f0f0" offset="0"/>
<stop stop-color="#c9c9c9" offset="1"/>
</linearGradient>
<linearGradient id="linearGradient3550">
<stop stop-color="#8b8b8b" offset="0"/>
<stop stop-color="#a9a9a9" offset="1"/>
</linearGradient>
<radialGradient id="radialGradient3566" cx="12.911" cy="13.002" r="7.489" gradientTransform="matrix(.7117 0 0 .59351 -6.3264 -3.1952)" gradientUnits="userSpaceOnUse" xlink:href="#linearGradient3560"/>
<radialGradient id="radialGradient3548" cx="17.097" cy="19.777" r="4.5474" gradientTransform="matrix(.47704 0 0 .25128 -3.641 1.2821)" gradientUnits="userSpaceOnUse" xlink:href="#linearGradient3550"/>
<radialGradient id="radialGradient1690" cx="12.911" cy="13.002" r="7.489" gradientTransform="matrix(.7117 0 0 .59351 .67362 -7.1952)" gradientUnits="userSpaceOnUse" xlink:href="#linearGradient3560"/>
<radialGradient id="radialGradient1692" cx="17.097" cy="19.777" r="4.5474" gradientTransform="matrix(.47704 0 0 .25128 3.359 -2.7179)" gradientUnits="userSpaceOnUse" xlink:href="#linearGradient3550"/>
</defs>
<g>
<path d="m10.831 1.5924h1.3374c1.5483 0 3.4486 0.60069 3.4486 0.60069v8.7129h-8.2346v-8.7129s1.8681-0.60069 3.4486-0.60069z" color="#000000" fill="none" opacity=".61988"/>
<path d="m11.644 4.5313-0.79165 1.7415v4.3617l0.84232 0.81077 0.76631-0.81077v-4.4124z" color="#000000" fill="none" opacity=".46784"/>
<path d="m10.769 1.2523h1.4617c1.6923 0 3.7691 0.52015 3.7691 0.7328v8.6324c0 0.21265-0.17248 0.38385-0.38672 0.38385h-8.2266c-0.21424 0-0.38672-0.1712-0.38672-0.38385v-8.6324c0-0.21265 2.0417-0.7328 3.7691-0.7328z" color="#000000" fill="#5079ad" fill-rule="evenodd"/>
<path d="m10.831 1.5924h1.3374c1.5483 0 3.4486 0.60069 3.4486 0.60069v8.7129h-8.2346v-8.7129s1.8681-0.60069 3.4486-0.60069z" color="#000000" fill="none" opacity=".61988"/>
<path d="m11.644 4.5313-0.79165 1.7415v4.3617l0.84232 0.81077 0.76631-0.81077v-4.4124z" color="#000000" fill="none" opacity=".46784"/>
</g>
<g fill-rule="evenodd">
<path d="m11.5 3.034-1.989 1.5005s-0.7328-2.1978-0.7328-3.1755c4e-7 -0.97706 0.52343-1.3609 1.0818-1.3609h3.315c0.37765 0 1.0381 0.15703 1.1166 1.2911 0.07851 1.1341-0.80259 3.2453-0.80259 3.2453z" color="#000000" fill="url(#radialGradient1690)"/>
<path d="m10.26 0.94031s-0.71681 0.19265-0.59031 0.65501c0.1265 0.46236 1.0963 1.1944 1.0963 1.1944h1.8131s0.83276-0.61648 0.92763-1.0788c0.09487-0.46236-0.54814-0.7706-0.54814-0.7706z" color="#000000" fill="#fff"/>
<path d="m10.19 0.55647s-0.71681 0.19265-0.59031 0.65501c0.12649 0.46236 1.0963 1.1944 1.0963 1.1944h1.8131s0.83276-0.61648 0.92763-1.0788c0.09487-0.46236-0.54814-0.7706-0.54814-0.7706z" color="#000000" fill="url(#radialGradient1692)"/>
<path d="m11.493 2.6565s-0.49275 1.7441-0.49275 2.6869v5.6565l0.52174 1 0.47826-1v-5.7263c0-0.78959-0.50725-2.6171-0.50725-2.6171z" color="#000000" fill="#75507b"/>
<circle cx="11.5" cy="3" r="1" color="#000000" fill="#75507b"/>
<path d="m11.5 3.034-1.989 1.5005s-0.7328-2.1978-0.7328-3.1755c4e-7 -0.97706 0.52343-1.3609 1.0818-1.3609h3.315c0.37765 0 1.0381 0.15703 1.1166 1.2911 0.07851 1.1341-0.80259 3.2453-0.80259 3.2453z" color="#000000" fill="#c8d5e6"/>
<path d="m10.19 1s-0.71681 0.20833-0.59031 0.70833c0.12649 0.5 0.65215 1.2917 1.0963 1.2917h1.8131c0.2961 0 0.83276-0.66667 0.92763-1.1667 0.09487-0.5-0.54814-0.83333-0.54814-0.83333z" color="#000000" fill="#204a87"/>
</g>
<g>
<path d="m3.8313 5.5924h1.3374c1.5483 0 3.4486 0.60069 3.4486 0.60069v8.7129h-8.2346v-8.7129s1.8681-0.60069 3.4486-0.60069z" color="#000000" fill="none" opacity=".61988"/>
<path d="m4.6444 8.5313-0.79165 1.7415v4.3617l0.84232 0.81077 0.76631-0.81077v-4.4124z" color="#000000" fill="none" opacity=".46784"/>
<path d="m3.7691 5.2523h1.4617c1.6923 0 3.7691 0.52015 3.7691 0.7328v8.6324c0 0.21265-0.17248 0.38385-0.38672 0.38385h-8.2266c-0.21424 0-0.38672-0.1712-0.38672-0.38385v-8.6324c0-0.21265 2.0417-0.7328 3.7691-0.7328z" color="#000000" fill="#d6d6d6" fill-rule="evenodd"/>
<path d="m3.8313 5.5924h1.3374c1.5483 0 3.4486 0.60069 3.4486 0.60069v8.7129h-8.2346v-8.7129s1.8681-0.60069 3.4486-0.60069z" color="#000000" fill="none" opacity=".61988"/>
<path d="m4.6444 8.5313-0.79165 1.7415v4.3617l0.84232 0.81077 0.76631-0.81077v-4.4124z" color="#000000" fill="none" opacity=".46784"/>
</g>
<g fill-rule="evenodd">
<path d="m4.5 7.034-1.989 1.5005s-0.7328-2.1978-0.7328-3.1755c4e-7 -0.97706 0.52343-1.3609 1.0818-1.3609h3.315c0.37765 0 1.0381 0.15703 1.1166 1.2911 0.078514 1.1341-0.80259 3.2453-0.80259 3.2453z" color="#000000" fill="url(#radialGradient3566)"/>
<path d="m3.2595 4.9403s-0.71681 0.19265-0.59031 0.65501c0.1265 0.46236 1.0963 1.1944 1.0963 1.1944h1.8131s0.83276-0.61648 0.92763-1.0788c0.094871-0.46236-0.54814-0.7706-0.54814-0.7706z" color="#000000" fill="#fff"/>
<path d="m3.1897 4.5565s-0.71681 0.19265-0.59031 0.65501c0.12649 0.46236 1.0963 1.1944 1.0963 1.1944h1.8131s0.83276-0.61648 0.92763-1.0788c0.094871-0.46236-0.54814-0.7706-0.54814-0.7706z" color="#000000" fill="url(#radialGradient3548)"/>
<path d="m4.4928 6.6565s-0.49275 1.7441-0.49275 2.6869v5.6565l0.52174 1 0.47826-1v-5.7263c0-0.78959-0.50725-2.6171-0.50725-2.6171z" color="#000000" fill="#555753"/>
<circle cx="4.5" cy="7" r="1" color="#000000" fill="#80837d"/>
<path d="m4.5 7.034-1.989 1.5005s-0.7328-2.1978-0.7328-3.1755c4e-7 -0.97706 0.52343-1.3609 1.0818-1.3609h3.315c0.37765 0 1.0381 0.15703 1.1166 1.2911 0.078514 1.1341-0.80259 3.2453-0.80259 3.2453z" color="#000000" fill="#f0f0f0"/>
<path d="m3.1897 5s-0.71681 0.20833-0.59031 0.70833c0.12649 0.5 0.65215 1.2917 1.0963 1.2917h1.8131c0.2961 0 0.83276-0.66667 0.92763-1.1667 0.094871-0.5-0.54814-0.83333-0.54814-0.83333z" color="#000000" fill="#8b8b8b"/>
</g>
</svg>
