<svg width="16" height="16" version="1" xmlns="http://www.w3.org/2000/svg">
<g>
<path d="m7.5807 0.001206c-0.16877 0.011547-0.33281 0.037685-0.49858 0.056653h-0.011332l-0.3966 2.1641c-0.64643 0.1472-1.2541 0.39653-1.8012 0.736l-1.78-1.28c-0.48092 0.37334-0.91807 0.8089-1.3026 1.2805l1.2346 1.8015c-0.37502 0.57306-0.65654 1.2275-0.81537 1.9149-2.71e-5 0.00325-2.21e-5 0.010764 0 0.011331l-2.1526 0.33992c-0.039362 0.32147-0.057 0.65371-0.057 0.98576 0 0.27168 0.007502 0.53973 0.033994 0.80447l2.153 0.38524c0.15312 0.7476 0.444 1.4458 0.84986 2.0622l-1.2805 1.7562c0.36671 0.45522 0.79008 0.86969 1.2465 1.235l1.813-1.2464c0.63363 0.40417 1.3409 0.68758 2.1076 0.82713l0.33994 2.1415c0.24156 0.021988 0.48928 0.022662 0.73654 0.022662 0.34908 0 0.68251-0.01323 1.0198-0.05665l0.40793-2.1868c0.72795-0.18114 1.4118-0.49539 2.0057-0.91778l1.745 1.269c0.45254-0.38499 0.86637-0.8275 1.2238-1.303l-1.2691-1.8356c0.3437-0.59354 0.58185-1.2484 0.70255-1.9489l2.1416-0.33992c0.018782-0.22347 0.022663-0.4402 0.022663-0.6685 0-0.39674-0.046117-0.78574-0.10198-1.1671l-2.1756-0.39657c-0.1705-0.62952-0.45024-1.2169-0.80453-1.7449l1.2805-1.7562c-0.3969-0.48535-0.84965-0.93371-1.3484-1.3143l-1.847 1.269c-0.53085-0.31393-1.1021-0.55481-1.7224-0.69117l-0.33994-2.1528c-0.30941-0.036394-0.62137-0.056653-0.94051-0.056653-0.086254 1e-8 -0.17502-0.0027138-0.26062 0-0.04173 0.0013228-0.083024-0.0024274-0.12465 0-0.011271 6.5731e-4 -0.022742-7.6965e-4 -0.033994 0zm0.29462 5.5067c0.041397-0.0021 0.082729 0 0.12465 0 1.3413 0 2.4363 1.0949 2.4363 2.4361 0 1.3412-1.0949 2.4247-2.4363 2.4247-1.3413 1e-6 -2.4249-1.0835-2.4249-2.4247 4e-7 -1.2993 1.017-2.371 2.3003-2.4361z" color="#000000" fill="#729fcf"/>
<ellipse cx="8.0014" cy="7.9388" rx="2.7992" ry="2.799" color="#000000" fill="none" opacity=".64773"/>
<path d="m7.3297 0.42954-0.31844 2.0953c-0.60591 0.13798-1.7205 0.55997-2.2333 0.87816l-1.6941-1.2644c-0.45078 0.34995-0.48169 0.37368-0.84216 0.81571l1.2249 1.8165c-0.35152 0.53715-0.77373 1.4944-0.92532 2.1784 0 0-2.1464 0.3618-2.1464 0.3618-0.036895 0.30133-0.019164 0.94626 0.005668 1.1944l2.0503 0.36932c0.14352 0.70074 0.68062 1.8287 1.061 2.4064l-1.2965 1.7128c0.34373 0.42669 0.41252 0.46574 0.8403 0.80819l1.7337-1.27c0.59392 0.37884 1.7728 0.83969 2.4914 0.97049l0.28453 2.069c0.22642 0.02061 0.85194 0.07842 1.1681 0.03772l0.31844-2.1538c0.68233-0.16979 1.8613-0.65372 2.418-1.0496l1.7318 1.2512c0.42418-0.36086 0.42798-0.41523 0.76301-0.86095l-1.2833-1.824c0.32216-0.55634 0.73871-1.6444 0.85185-2.3009l2.1012-0.34861c0.0176-0.20947 0.01846-0.79361-0.03391-1.151l-2.1407-0.36932c-0.15981-0.59007-0.70825-1.6534-1.0403-2.1483l1.3606-1.7128c-0.37202-0.45493-0.51035-0.51735-0.97788-0.87414l-1.7921 1.2832c-0.49758-0.29426-1.4898-0.74283-2.0712-0.87064l-0.31658-2.0501c-0.29002-0.034113-1.1268-0.018965-1.2925 0z" color="#000000" fill="none" opacity=".34659"/>
<path d="m3.093 1.678c-0.48092 0.37334-0.9151 0.81833-1.3075 1.2899l1.2395 1.7921c-0.37502 0.57014-0.7392 1.369-0.8067 1.9259l-2.1613 0.34006c-0.024601 0.20092-0.057 0.69919-0.057 0.69919l0.063052 0.55727c0.15256 0.031503 0.29966 0.060814 0.45699 0.078017l0.17834-0.54612c0.12271 0.010158 0.24242 0.022291 0.36782 0.022291 0.12527 0 0.25626-0.012065 0.37897-0.022291l0.16719 0.54612c0.1574-0.017205 0.31558-0.046513 0.46814-0.078018v-0.55727c0.24459-0.05693 0.4751-0.13829 0.70221-0.23405l0.33439 0.45696c0.14351-0.064944 0.27664-0.13404 0.41241-0.21176l-0.17834-0.53498c0.21302-0.1292 0.41437-0.28366 0.60189-0.44581l0.45699 0.33436c0.11615-0.10578 0.22867-0.21822 0.33439-0.33436l-0.33439-0.44581c0.16223-0.18751 0.30549-0.38871 0.4347-0.60185l0.53502 0.16718c0.077731-0.13583 0.15811-0.26895 0.22292-0.41238l-0.45699-0.33436c0.095764-0.2271 0.16585-0.45758 0.22292-0.70216h0.56846c0.031506-0.15255 0.049742-0.31072 0.066877-0.4681l-0.53502-0.16718c0.010294-0.12263 0.022292-0.25361 0.022292-0.37894-3e-7 -0.12533-0.012134-0.24502-0.022292-0.3678l0.53502-0.16718c-0.016247-0.14975-0.037662-0.3003-0.066877-0.44581-0.40926 0.14241-0.70176 0.30204-1.0641 0.52686z" color="#000000" fill="#fff" opacity=".5"/>
<path d="m13.064 5.113c-0.15118 0.076325-0.29412 0.16233-0.4386 0.25061l0.2244 0.73003c-0.27461 0.17771-0.53367 0.38701-0.77521 0.61017l-0.5814-0.45763c-0.14973 0.14556-0.29221 0.29775-0.4284 0.45763l0.4284 0.62107c-0.20891 0.25808-0.40478 0.53482-0.57121 0.82809l-0.2142-0.076272c-0.01879 0.29468-0.09312 0.57292-0.204 0.82809l0.0408 0.032689c-0.12336 0.31252-0.22239 0.644-0.2958 0.98063h-0.58141c-0.053682 0.035958-0.10658 0.077875-0.1632 0.10896-0.030871 0.17475-0.05315 0.34394-0.071399 0.523l0.69361 0.23971c-0.01315 0.16886-0.02039 0.33967-0.02039 0.51211 0 0.1725 0.0072 0.34325 0.02039 0.51211l-0.69361 0.23971c0.022068 0.21661 0.051205 0.43287 0.091803 0.64286l0.72421-0.01085c0.05047 0.23144 0.13501 0.48945 0.20943 0.70988 0.28954-0.1287 0.56496-0.28862 0.83098-0.45928-0.16214-0.51172-0.255-1.0643-0.255-1.6344 1e-6 -2.1873 1.297-4.0551 3.111-4.7724l-0.42841-0.076277c-0.08775-0.34618-0.20142-0.68532-0.3468-1.0024-0.0043-0.00931-0.0058-0.023388-0.01016-0.032688l-0.0204-0.021795z" color="#000000" fill="#fff" opacity=".5"/>
</g>
</svg>
