<svg width="16" height="16" version="1" xmlns="http://www.w3.org/2000/svg">
<rect x="3.8896e-7" y="1.2817e-7" width="16" height="16" rx="1.6848" ry="1.6848" color="#000000" fill="#6194cb" fill-rule="evenodd"/>
<circle cx="7.5" cy="4.5" r="1.5" color="#000000" fill="#fff"/>
<path d="m7.1549 4.3441 0.8005 5.5922 3.9554-0.85304 0.8005 3.1752 1.1772-0.33174" fill="none" stroke="#fff" stroke-width=".82669"/>
<path d="m5.8747 7.3549c-1.0941 0.60821-1.8747 1.7364-1.8747 3.0789 0 1.964 1.5919 3.5662 3.5434 3.5662 1.8493 0 3.3268-1.4539 3.4816-3.2759l-0.85495 0.19697c-0.23461 1.2725-1.2927 2.2496-2.6266 2.2496-1.5056 0-2.7193-1.2216-2.7193-2.7368 0-0.94704 0.5129-1.7378 1.2361-2.2289z" color="#000000" fill="#fff"/>
<path d="m7.5587 7.2811 3.7953-0.36965" color="#000000" fill="none" stroke="#fff" stroke-width=".82669"/>
</svg>
