<svg width="16" height="16" version="1" xmlns="http://www.w3.org/2000/svg">
<path d="m5.8068 3c-0.18858 0.0043616-0.28893 0.17449-0.31301 0.37932l-0.4938 7.8803c3.3062 1.1854 7.721 0.76701 9.9999 0l-0.63705-7.7742c-0.024074-0.22662-0.14457-0.48108-0.39332-0.48543z" color="#000000" fill="#e6e5e1" fill-rule="evenodd" stroke-width=".95772"/>
<path d="m6.5513 3.6231c0.096296-2.3359 0.36913-2.9984 1.3802-2.9984 1.0432 0 1.7333-0.27892 3.0814-1.0111" color="#000000" fill="none" stroke-width=".95772"/>
<rect x="6" y="3" width="1" height="1" rx=".42786" ry=".40827" color="#000000" fill="#4f4f4f" fill-rule="evenodd" stroke-width=".88815"/>
<rect x="7" y="4" width="2" height="1" color="#000000" fill="#4f4f4f" fill-rule="evenodd" stroke-width="1.9758"/>
<path d="m5.8401 3.3146c-0.11908-0.0045838-0.1009 0.17977-0.12319 0.36946l-0.45731 7.3362c3.0618 1.0977 7.2536 0.69734 9.364-0.01293l-0.61378-7.2681c-0.02229-0.20986 0.01693-0.42057-0.21345-0.42461z" color="#000000" fill="none" opacity=".60795" stroke-width=".95772"/>
<path d="m3.7849 8.1404c0.40531-1.9587-1.3635-2.2742 0.44535-4.6169 1.7962-2.3264-1.791-3.0888-1.791-3.0888" fill="none"/>
<path d="m0.35352 10.999-0.24024 0.90838c-0.5704 2.424 1.0905 4.0926 3.5859 4.0926 2.4684 0 3.6958-1.9325 3.1875-4.0926l-0.25391-0.90838z" fill="#4f4f4f" fill-rule="evenodd" opacity=".9" stroke-width="1.0001"/>
<ellipse cx="3.5" cy="9.5" rx="1" ry="1.5" color="#000000" fill="#fff" fill-rule="evenodd"/>
<path d="m0.31747 12.319c-0.31912 1.8245 1.0513 3.3784 3.3935 3.3784s3.2386-1.8757 2.9724-3.3784l-0.84433-3.01c-0.070057-0.47355-0.27643-0.51922-0.39865-0.56485-1.3263-0.49514-2.8727-0.53599-3.9532 0-0.13541 0.067168-0.24757 0.041639-0.32984 0.38326z" fill="none"/>
<g fill-rule="evenodd">
<ellipse cx="3.5117" cy="9.0976" rx=".5" ry="1" color="#000000" fill="#b1b1b1"/>
<path d="m3.5 11h3.1328l-0.55664-1.9824c-0.09454-0.40508-0.29589-0.536-0.43164-0.58008-0.60356-0.25932-1.3202-0.40051-2.0312-0.42773a1 1.5 0 0 1 0.88672 1.4902 1 1.5 0 0 1-1 1.5z" fill="#4f4f4f"/>
<path d="m0.35352 11h3.1465a1 1.5 0 0 1-1-1.5 1 1.5 0 0 1 0.95117-1.498c-0.017565-2.24e-4 -0.035189-0.00188-0.052734-0.00195-0.78031-0.00344-1.5404 0.13826-2.125 0.4375-0.14856 0.077157-0.25523 0.077108-0.36328 0.46289z" fill="#4f4f4f" opacity=".8"/>
<rect x="11" y="4" width="2" height="1" color="#000000" fill="#4f4f4f" stroke-width="1.9758"/>
<path d="m12.525 0.5257c0.22469-0.24405 0.60986 0.13946 0.41728 0.45324 0 0-1.0833 1.8304-2.2147 3.2424-1.1315 1.4121-2.311 2.3795-2.311 2.3795-0.17654 0.16561-0.72221 0.39223-0.72221 0.39223l-0.14404-0.17728s0.23232-0.56358 0.38478-0.73791l0.51357-0.63628z" color="#000000" fill="#d3d7cf" fill-opacity=".99608" stroke-width=".95772"/>
<rect transform="matrix(.64924 -.76058 .70461 .7096 0 0)" x="2.026" y="9.7394" width="2.521" height=".60129" rx=".45286" ry=".45005" color="#000000" fill="#4f4f4f" stroke-width=".95934"/>
</g>
</svg>
