<svg width="16" height="16" version="1" xmlns="http://www.w3.org/2000/svg">
<defs>
<linearGradient id="linearGradient2707" x1="12.207" x2="12.128" y1="53.535" y2="64.893" gradientTransform="matrix(.80372 0 0 .24089 -1.731 -.63285)" gradientUnits="userSpaceOnUse">
<stop stop-color="#585956" offset="0"/>
<stop stop-color="#bbbeb8" offset="1"/>
</linearGradient>
</defs>
<path d="m0.66442 1.7124-2.078e-5 9.6712h14.527v-9.6302z" fill="#5b5b97" fill-rule="evenodd" stroke-width="1.056"/>
<ellipse cx="8" cy="14.409" rx="4.0001" ry="1.5922" color="#000000" fill="#adb0aa" fill-rule="evenodd" stroke-width="1.0524"/>
<ellipse cx="8" cy="14.275" rx="3.6095" ry="1.3178" color="#000000" fill="none" stroke-width="1.0524"/>
<rect x="6" y="12.801" width="4" height="1.1989" color="#000000" fill="url(#linearGradient2707)" fill-rule="evenodd" stroke-width=".77423"/>
<path d="m0.67578 1c-0.45233 0-0.67379 0.25959-0.67383 0.58008v10.584c-0.02353 0.46251 0.36408 0.83594 0.81641 0.83594h14.363c0.45232 0 0.83993-0.37343 0.81641-0.83594l0.005859-10.584c-0.01722-0.33853-0.30553-0.58008-0.67383-0.58008h-14.117-0.53711zm0.32422 1 14 0.039062v8.9609h-14v-9z" color="#000000" fill="#dde1d9" fill-rule="evenodd"/>
<path d="m11.626 4.5328c0.67468 3.1777-1.3293 5.0229-4.6263 3.1752 0.25343 0.97244 0.91602 1.8127 1.9206 2.1439 1.5714 0.51814 3.257-0.36695 3.7631-1.9759 0.39918-1.2692-0.07665-2.5786-1.0574-3.3432z" color="#000000" fill="#fce94f"/>
<g transform="translate(-18)" fill="#fff">
<path d="m23.391 3.9979-1.2286 0.11049-0.12883 1.2793-0.10791-1.2579-1.2494-0.13191 1.2286-0.11049 0.12883-1.2793 0.10791 1.2579z" color="#000000" stroke-width=".40893"/>
<g stroke-width=".25827">
<path d="m25.866 3.6826-0.77593 0.06978-0.08137 0.80798-0.06815-0.79447-0.78913-0.08331 0.77593-0.06978 0.08137-0.80798 0.06815 0.79447z" color="#000000"/>
<path d="m23.886 6.0145-0.77593 0.06978-0.08137 0.80798-0.06815-0.79447-0.78913-0.08331 0.77593-0.06978 0.08137-0.80798 0.06815 0.79447z" color="#000000"/>
<path d="m21.862 6.9971-0.77593 0.06978-0.08137 0.80798-0.06815-0.79447-0.78913-0.08331 0.77593-0.06978 0.08137-0.80798 0.06815 0.79447z" color="#000000"/>
</g>
</g>
</svg>
