<svg width="16" height="16" version="1" xmlns="http://www.w3.org/2000/svg">
<g fill-rule="evenodd">
<rect x="2.3842e-7" width="14" height="14" rx=".66667" ry=".68571" color="#000000" fill="#729fcf"/>
<rect x="5" y="5" width="6" height="6" rx=".41257" ry=".41784" color="#000000" fill="#fff"/>
<rect x="7" y="6" width="3" height="1" rx=".051293" ry=".11114" color="#000000" fill="#547299"/>
</g>
<rect x=".35975" y=".36155" width="13.698" height="13.294" rx=".41006" ry=".41006" color="#000000" fill="none" opacity=".28655"/>
<path d="m10.58 15.49h2.6186c2.3064 0.04743 2.3605-6.3971 0.03796-6.3971l-2.6565 0.085947c2.5853-0.067537 2.4875 6.3586 0 6.3111z" color="#000000" fill="none" opacity=".27807"/>
<g fill-rule="evenodd">
<path d="m9.6321 15.992h3.1915c2.8548 0.05207 2.9284-6.9978 0-6.9975l-3.1915 0.005836c3.2315 0.010401 3.079 7.0438 0 6.9917z" color="#000000" fill="#f3f3f3"/>
<path d="m13.068 15.989-3.7365 0.011053c-0.8784 0-2.0524-1.3036-2.049-3h3.9677c0 1.406 0.55509 3.041 1.8178 2.9889z" color="#000000" fill="#a0a0a0"/>
<path d="m5.6857 10 3.8143 2 4.4833-2h-2.5254s0.69376-1.0496 1.7369-0.99754l-3.7366-0.0024569c-0.98821 0.0026125-1.3619 1-1.3619 1z" color="#000000" fill="#d8d8d8"/>
</g>
<path d="m11.571 15.641-2.0752 0.0087c-0.73041 0-1.6415-0.73679-1.7558-2.0265h3.1811c-0.07785 0.86765 0.1399 1.358 0.64979 2.0178z" color="#000000" fill="none" opacity=".81818"/>
<path d="m6.8566 10.101 2.3968 1.6935 3.1796-1.5922c-0.39461 0.01439-1.1764 0-1.7646 0 0 0 0.46903-0.8382 0.97686-1.1487l-2.2197 0.13743c-0.72096-0.040053-1.1069 0.90993-1.1069 0.90993z" color="#000000" fill="none"/>
<g fill-rule="evenodd">
<rect x="-4.959e-8" y="1" width="14" height="1" rx=".45662" ry=".4257" color="#000000" fill="#fff"/>
<rect x="1" y="1" width="3" height="1" rx=".19063" ry=".25181" color="#000000" opacity=".36257"/>
<rect x="5" y="1" width="2" height="1" rx=".15452" ry=".25181" color="#000000" opacity=".36257"/>
<rect x="1" y="3" width="6" height="6" rx=".41257" ry=".41784" color="#000000" fill="#f3f3f3"/>
<rect x="2" y="4" width="4" height="1" rx=".068391" ry=".11114" color="#000000" fill="#547299"/>
</g>
</svg>
