<svg width="16" height="16" version="1" xmlns="http://www.w3.org/2000/svg">
<rect x="9" y="2" width="6" height="5.9855" rx=".73519" ry=".73342" color="#000000" display="block" fill="#babdb6"/>
<rect x="1" y="9" width="11" height="6" rx=".85131" ry=".73124" color="#000000" display="block" fill="#babdb6"/>
<rect x="2" y="10" width="9" height="4" rx=".43534" ry=".40256" color="#000000" display="block" fill="#f2f4f1"/>
<rect x="1" y="2" width="6" height="5.9855" rx=".73519" ry=".73342" color="#000000" display="block" fill="#babdb6"/>
<rect transform="scale(-1,1)" x="-6" y="3" width="4" height="4" rx=".49013" ry=".49013" color="#000000" display="block" fill="#f2f4f1"/>
<rect x="1.2985" y="2.2842" width="5.409" height="5.4291" rx=".46727" ry=".44491" color="#000000" display="block" fill="none" opacity=".48889"/>
<path d="m5.3929 4-0.64063 1.5508c-0.062341 0.14972-0.13957 0.26179-0.23169 0.33621-0.092116 0.075304-0.19866 0.11296-0.31962 0.11296-0.044661-9e-7 -0.091651-0.00531-0.14097-0.015945v-0.24452c0.054901 0.015945 0.10468 0.023921 0.14934 0.023921 0.053962-3e-7 0.10328-0.015505 0.14795-0.046511 0.045592-0.030122 0.082345-0.076191 0.11026-0.13821l0.099096-0.21794-0.56666-1.3608h0.30008l0.36986 1.0206c0.00654 0.015948 0.014887 0.051385 0.02512 0.10631h0.00839c0.013951-0.055814 0.023723-0.091252 0.029309-0.10631l0.37963-1.0206h0.28054"/>
<path d="m4.7693 12.882c-0.17928 0.07874-0.40175 0.1181-0.66739 0.1181-0.33342 0-0.6007-0.08523-0.80185-0.25568-0.20005-0.17045-0.30008-0.39455-0.30008-0.67229-1.1e-6 -0.29505 0.11478-0.53472 0.34435-0.71902 0.23066-0.18516 0.51653-0.27774 0.8576-0.27774 0.23066 2e-6 0.41978 0.02639 0.56736 0.07917v0.27385c-0.17382-0.081329-0.36403-0.122-0.57064-0.122-0.25581 1e-6 -0.46406 0.06836-0.62475 0.20506-0.1607 0.13584-0.24105 0.31841-0.24105 0.5477-1e-6 0.21718 0.074336 0.39022 0.22301 0.51914 0.14867 0.12806 0.34599 0.19208 0.59196 0.19208 0.23831 0 0.44547-0.04499 0.62147-0.13498v0.24659m1.2577 0.06749c-0.068868 0.02769-0.15742 0.04153-0.26564 0.04153-0.15633 0-0.2733-0.03331-0.35091-0.09994-0.077618-0.06748-0.11643-0.16872-0.11642-0.3037v-0.74886h-0.28204v-0.19987h0.28204v-0.31668l0.31648-0.07917v0.39585h0.4165v0.19987h-0.4165v0.70084c-1.1e-6 0.08652 0.018584 0.14839 0.055752 0.1856 0.037168 0.03635 0.10221 0.05451 0.19513 0.05451 0.060127 0 0.11533-0.01427 0.16562-0.04283v0.21285m1.3033-1.0552c-0.056846-0.03028-0.12954-0.04542-0.21809-0.04542-0.10495 0-0.28794 0.03806-0.36009 0.11421-0.072149 0.07614-0.10823 0.17694-0.10823 0.3024v0.70214h-0.31484v-1.329h0.31484v0.26347c0.04045-0.09344 0.099479-0.16439 0.1771-0.21285 0.077619-0.04931 0.25679-0.07397 0.34862-0.07397 0.068868 1e-6 0.12244 0.0061 0.1607 0.01817v0.26087m0.66968 1.0733h-0.31812v-1.9676h0.31812v1.9676"/>
<rect transform="scale(-1,1)" x="-14" y="3" width="4" height="4" rx=".49013" ry=".49013" color="#000000" display="block" fill="#f2f4f1"/>
<path d="m12.741 4.0806-0.52502 0.78752 0.52196 0.77531h-0.3434l-0.36018-0.60896-0.3724 0.60896h-0.33729l0.53875-0.76921-0.5067-0.79363h0.3434l0.34645 0.63796 0.37239-0.63796h0.32203"/>
</svg>
