<svg width="16" height="16" version="1" xmlns="http://www.w3.org/2000/svg">
<rect transform="matrix(.98081 -.19496 .20015 .97977 0 0)" x="-.56058" y="1.8599" width="10.855" height="13.528" rx="1.0636" ry=".98024" fill="#d3d7cf" fill-opacity=".99608" opacity=".5" stroke-width="1.0319"/>
<path d="m3.0049 2.9218c-0.9905 1.3804-1.4184 1.792-1.2939 2.4326 0.12111 0.62273 1.0276 1.008 1.6428 0.47941 0.087098 0.31367 0.20991 0.86144 0.062002 1.125 0.030426-0.00605 0.85196-0.15838 0.85196-0.15838-2e-7 4e-7 -0.35168-0.64735-0.47085-1.0989 0.8571 0.32138 1.4916-0.33873 1.3499-1.0634-0.14837-0.75994-0.64554-0.91281-2.1418-1.7163z" fill-rule="evenodd" stroke-width="1.0319"/>
<rect transform="matrix(.96609 .25821 -.25541 .96683 0 0)" x="6.1514" y="-.84232" width="10.409" height="13.202" rx="1.0198" ry=".95668" fill="#d3d7cf" fill-opacity=".99608"/>
<path d="m9.9594 6.8749c1.352-0.78841 2.5463 0.58764 2.2625 1.601-0.25938 0.92641-1.0817 1.1843-3.2919 2.3667-1.4322-2.0282-1.9873-2.5558-1.6804-3.6551 0.31738-1.1381 1.7988-1.6614 2.7098-0.31264z" fill="#c00" fill-rule="evenodd"/>
</svg>
