<svg width="16" height="16" version="1" xmlns="http://www.w3.org/2000/svg">
<defs>
<linearGradient id="linearGradient2707" x1="12.207" x2="12.128" y1="53.535" y2="64.893" gradientTransform="matrix(.80372 0 0 .24089 -1.731 -.63285)" gradientUnits="userSpaceOnUse">
<stop stop-color="#585956" offset="0"/>
<stop stop-color="#bbbeb8" offset="1"/>
</linearGradient>
</defs>
<path d="m0.80824 1.7603-2.068e-5 9.4794h14.479v-9.4393z" fill="#babdb6" fill-rule="evenodd" stroke-width="1.0437"/>
<ellipse cx="8" cy="14.409" rx="4.0001" ry="1.5922" color="#000000" fill="#adb0aa" fill-rule="evenodd" stroke-width="1.0524"/>
<ellipse cx="8" cy="14.275" rx="3.6095" ry="1.3178" color="#000000" fill="none" stroke-width="1.0524"/>
<rect x="6" y="12.801" width="4" height="1.1989" color="#000000" fill="url(#linearGradient2707)" fill-rule="evenodd" stroke-width=".77423"/>
<path d="m0.67578 1c-0.45233 0-0.67379 0.25959-0.67383 0.58008v10.584c-0.02353 0.46251 0.36408 0.83594 0.81641 0.83594h14.363c0.45232 0 0.83993-0.37343 0.81641-0.83594l0.005859-10.584c-0.01722-0.33853-0.30553-0.58008-0.67383-0.58008h-14.117-0.53711zm0.32422 1 14 0.039062v8.9609h-14v-9z" color="#000000" fill="#dde1d9" fill-rule="evenodd"/>
<g transform="matrix(.99953 0 0 1 21.992 -16)">
<ellipse cx="-12.245" cy="30.226" rx="3.468" ry="1.325" color="#000000" fill="none"/>
<ellipse cx="-12.271" cy="29.772" rx="3.2189" ry="1.365" color="#000000" fill="none"/>
<path d="m-17 18s0.12784 3.6255 0.12784 3.962c0 0.31112-0.29404 0.82541 0.10227 0.82541 0.37074 0 0.07671-0.52699 0.10227-0.82541 0.0234-0.27321 0.07671-1.981 0.07671-1.981s0.28125 0.0381 0.40909-0.33016 0.10227-1.1429 0.10227-1.1429l0.20454 0.30477c0.40909 2.6921 0.21916 4.4065 0.23012 4.6096 0.0095 0.17778-0.2942 0.9778 0.12784 0.9778 0.5371 0 0.14627-0.77784 0.15341-0.9651 0.0076-0.19994 0.06186-1.6699 0.35796-3.4032 0.44951 0.65398 0.16992-0.60954 0.68128 2.0826l6.3244 0.55874c-0.10227-2.6921-1.2348-4.6168-2-4.6223l-7-0.0508z" color="#000000" fill="#204a87"/>
<path d="m-13.778 25.005h5.7778s0.083337-1.9892-0.47222-2.4865c-0.52709-0.47182-1.2778-0.36643-1.2778-0.36643l-0.027776 0.20939s-0.27778-0.18322-0.77778-0.20939c-0.5-0.02618-0.86111 0.02618-0.86111 0.02618l0.16667 0.15704s-0.69444-0.26174-1.3611-0.26174c-0.66667 0-0.80556 0.02618-0.80556 0.02618l0.25 0.13087s-0.55556-0.23556-1-0.23556-0.83333 0.18322-0.83333 0.18322 0.63889 0.31409 0.88889 0.73287 0.11111 2.0939 0.11111 2.0939z" color="#000000" fill="#6a6352"/>
<path d="m-14 25v1.2203c0 0.43144 0.33024 0.78206 0.73661 0.78206h1.2634c-0.10254 1.0913-0.33214 2.6843-0.28125 3.6326 0.03187 0.59404 0.51662 1.365 1.2857 1.365 0.68879 0 1.1841-0.71279 1.2321-1.4219 0.053578-0.79084-0.088148-2.4824-0.23661-3.5757h1.2634c0.40637 0 0.73661-0.35061 0.73661-0.78206v-1.2203z" color="#000000" fill="#e5d28f"/>
<path d="m-11.486 27.201c-0.08343 0.87699-0.38848 2.4788-0.34709 3.2409 0.02593 0.4774 0.28798 1.1329 0.91362 1.1329 0.56032 0 0.8512-0.58018 0.89028-1.1501 0.043581-0.63556-0.33371-2.3451-0.45448-3.2238z" color="#000000" fill="none" opacity=".5731"/>
<path d="m-9 25v0.72165c0 0.15421-0.12811 0.27835-0.28723 0.27835h-3.4255c-0.15913 0-0.28723-0.12414-0.28723-0.27835v-0.72165h4z" color="#000000" fill="#e7e5e0"/>
</g>
</svg>
