<svg width="16" height="16" version="1" xmlns="http://www.w3.org/2000/svg">
<g transform="scale(.75)">
<rect x="3.8896e-7" y="1.2817e-7" width="16" height="16" rx="1.6848" ry="1.6848" color="#000000" fill="#729fcf" fill-rule="evenodd"/>
<circle cx="7.5" cy="4.5" r="1.5" color="#000000" fill="#fff"/>
<path d="m7.1549 4.3441 0.8005 5.5922 3.9554-0.85304 0.8005 3.1752 1.1772-0.33174" fill="none" stroke="#fff" stroke-width=".82669"/>
<path d="m5.8747 7.3549c-1.0941 0.60821-1.8747 1.7364-1.8747 3.0789 0 1.964 1.5919 3.5662 3.5434 3.5662 1.8493 0 3.3268-1.4539 3.4816-3.2759l-0.85495 0.19697c-0.23461 1.2725-1.2927 2.2496-2.6266 2.2496-1.5056 0-2.7193-1.2216-2.7193-2.7368 0-0.94704 0.5129-1.7378 1.2361-2.2289z" color="#000000" fill="#fff"/>
<path d="m7.5587 7.2811 3.7953-0.36965" color="#000000" fill="none" stroke="#fff" stroke-width=".82669"/>
</g>
<path d="m10.738 6.0008c-0.10548 0.00721-0.20889 0.025253-0.3125 0.037107h-0.0059l-0.24805 1.3515c-0.40402 0.091994-0.78501 0.24875-1.127 0.4609l-1.1113-0.80072c-0.30058 0.23332-0.5741 0.506-0.81445 0.80072l0.77148 1.1249c-0.23439 0.35814-0.4105 0.76755-0.50977 1.1972-1.7e-5 2e-3 -1.4e-5 0.0074 0 0.0078l-1.3457 0.21092c-0.024599 0.20091-0.035156 0.40962-0.035156 0.61714 0 0.16979 0.0049 0.33646 0.02148 0.50192l1.3457 0.24217c0.0957 0.46722 0.27759 0.9018 0.53125 1.287l-0.80078 1.0976c0.2292 0.28449 0.49406 0.54506 0.7793 0.77338l1.1328-0.77924c0.39602 0.25259 0.83917 0.42838 1.3184 0.51559l0.21094 1.3397c0.15098 0.01375 0.3064 0.01367 0.46094 0.01367 0.21817 0 0.4259-0.0081 0.63672-0.03515l0.25586-1.3671c0.45497-0.11321 0.88274-0.3102 1.2539-0.57418l1.0898 0.79291c0.28284-0.2406 0.54223-0.51526 0.76562-0.81244l-0.79297-1.1484c0.21481-0.37093 0.36206-0.77896 0.4375-1.2167l1.3398-0.21288c0.01174-0.13966 0.01367-0.27526 0.01367-0.41794 0-0.24794-0.02953-0.49211-0.06445-0.73041l-1.3594-0.24802c-0.10656-0.39342-0.28052-0.75975-0.50195-1.0898l0.79883-1.0976c-0.24806-0.30332-0.53005-0.58432-0.8418-0.8222l-1.1543 0.79486c-0.33178-0.19619-0.68851-0.34835-1.0762-0.43356l-0.21289-1.3436c-0.19338-0.022744-0.38843-0.037107-0.58789-0.037107-0.05392 0-0.10861-0.00169-0.16211 0-0.02608 8.268e-4 -0.0521-0.00152-0.07813 0-0.0069 4.108e-4 -0.01445-4.811e-4 -0.02148 4e-7zm0.26172 3.033a1.9281 1.9278 0 0 1 1.9297 1.9276 1.9281 1.9278 0 0 1-1.9297 1.9295 1.9281 1.9278 0 0 1-1.9277-1.9295 1.9281 1.9278 0 0 1 1.9277-1.9276z" color="#000000" fill="#c9c9c9"/>
</svg>
