<svg width="16" height="16" version="1" xmlns="http://www.w3.org/2000/svg">
<rect x="1.2207e-7" y="1.03e-8" width="16" height="16" rx="2.1786" ry="2.1786" color="#000000" fill="#d3d7cf" fill-opacity=".99608" fill-rule="evenodd"/>
<g transform="translate(-18.597,1.6508)">
<path d="m24.497-0.035747-0.91265 3.1732-0.10297 0.4259c-0.0093 0.040563-0.01405 0.074885-0.01405 0.10297-4e-6 0.049923 0.0156 0.093605 0.0468 0.13105 0.02496 0.02808 0.05616 0.042122 0.09361 0.042122 0.04056 0 0.09361-0.024961 0.15913-0.074884 0.12168-0.090485 0.28393-0.27769 0.48675-0.56163l0.15913 0.11233c-0.2153 0.3245-0.43683 0.57255-0.6646 0.74416-0.22778 0.16849-0.43839 0.25273-0.63183 0.25273-0.13417 0-0.23558-0.034323-0.30422-0.10297-0.06552-0.065524-0.09829-0.16225-0.09828-0.29018-4e-6 -0.15289 0.03432-0.35414 0.10296-0.60375l0.09829-0.35102c-0.40874 0.53355-0.78472 0.90641-1.1279 1.1186-0.24649 0.15289-0.48831 0.22933-0.72544 0.22933-0.22777 0-0.42434-0.093605-0.58971-0.28082-0.16537-0.19033-0.24805-0.45086-0.24805-0.7816 0-0.49611 0.14821-1.0187 0.44462-1.5679 0.29953-0.55227 0.67864-0.99377 1.1373-1.3245 0.35882-0.26209 0.69736-0.39314 1.0156-0.39314 0.19033 4.26e-6 0.3479 0.049927 0.4727 0.14977 0.12792 0.09985 0.22465 0.26522 0.29018 0.49611l0.16849-0.53355 0.74416-0.11233m-1.6662 0.24337c-0.19969 4.03e-6 -0.41186 0.093609-0.63651 0.28082-0.31826 0.26522-0.60219 0.65836-0.85181 1.1794-0.24649 0.52107-0.36974 0.99222-0.36974 1.4134-1e-6 0.21217 0.05304 0.38066 0.15913 0.50547 0.10609 0.12169 0.22777 0.18253 0.36506 0.18253 0.3401 4e-7 0.70984-0.25117 1.1092-0.75352 0.53354-0.66771 0.80032-1.3526 0.80032-2.0546-2e-6 -0.26521-0.05149-0.4571-0.15445-0.57567-0.10296-0.11856-0.24337-0.17785-0.42122-0.17785"/>
<path d="m26.357 4.9888v2.3597c0.29048-0.3018 0.58662-0.53192 0.88842-0.69037 0.3018-0.16221 0.67528-0.24332 1.1204-0.24333 0.51306 6.1e-6 0.96198 0.12261 1.3468 0.36782 0.38856 0.24145 0.68848 0.59418 0.89974 1.0582 0.21503 0.46025 0.32254 1.0073 0.32255 1.641-7e-6 0.46779-0.06036 0.89786-0.18108 1.2902-0.11695 0.38857-0.2886 0.72621-0.51495 1.0129-0.22636 0.28671-0.50175 0.50929-0.82618 0.66773-0.32067 0.15467-0.67528 0.23201-1.0638 0.23201-0.23767 0-0.46214-0.02829-0.67339-0.08488-0.20749-0.05659-0.3848-0.13015-0.53192-0.22069-0.14713-0.09431-0.27351-0.19051-0.37914-0.2886-0.10186-0.09808-0.23767-0.24521-0.40743-0.44138v0.15279c-3e-6 0.29048-0.0698 0.51117-0.20937 0.66208-0.13959 0.14713-0.31689 0.22069-0.53192 0.22069-0.21881 0-0.39423-0.07357-0.52626-0.22069-0.12827-0.1509-0.1924-0.37159-0.1924-0.66208v-6.7452c-1e-6 -0.31311 0.06225-0.54889 0.18674-0.70735 0.12826-0.16221 0.30557-0.24332 0.53192-0.24333 0.23767 8.4e-6 0.42063 0.077344 0.5489 0.23201 0.12826 0.15091 0.1924 0.36783 0.1924 0.65076m0.07357 4.5893c-2e-6 0.61492 0.13958 1.0884 0.41875 1.4203 0.28294 0.32821 0.65264 0.49231 1.1091 0.49231 0.38856 1e-6 0.72243-0.16788 1.0016-0.50363 0.28293-0.33952 0.4244-0.82429 0.42441-1.4543-6e-6 -0.40743-0.05848-0.75827-0.17542-1.0525-0.11696-0.29425-0.28295-0.5206-0.49798-0.67905-0.21504-0.16221-0.46591-0.24332-0.75262-0.24333-0.29426 4.8e-6 -0.55645 0.081113-0.78657 0.24333-0.23013 0.15845-0.41121 0.39046-0.54324 0.69603-0.13204 0.3018-0.19806 0.66208-0.19806 1.0808"/>
<path d="m32.491 1.994c-2e-6 0.07797-0.0052 0.19232-0.0156 0.34305-0.0052 0.14554-0.0078 0.2521-0.0078 0.31966h-1.0915v-0.95899c-2e-6 -0.18712-0.10396-0.28068-0.31187-0.28068-0.20791 4.4e-6 -0.31187 0.093565-0.31187 0.28068v3.0797c-2e-6 0.19232 0.10396 0.28848 0.31187 0.28848 0.20791 8e-7 0.31186-0.096158 0.31187-0.28848v-1.0214h1.0915v0.99797c-4e-6 0.30667-0.16633 0.54057-0.49899 0.7017-0.26509 0.12994-0.56656 0.19492-0.90441 0.19492-0.34306 0-0.64453-0.064972-0.90442-0.19492-0.33266-0.16113-0.49899-0.39503-0.49899-0.7017v-3.0017c0-0.57695 0.4678-0.86543 1.4034-0.86543 0.4678 4.62e-6 0.81085 0.070174 1.0292 0.21051 0.26508 0.17153 0.39763 0.4704 0.39763 0.89662"/>
</g>
</svg>
