<svg width="16" height="16" version="1" xmlns="http://www.w3.org/2000/svg" xmlns:xlink="http://www.w3.org/1999/xlink">
<defs>
<linearGradient id="linearGradient4750">
<stop stop-color="#fff" offset="0"/>
<stop stop-color="#fefefe" offset=".37931"/>
<stop stop-color="#1d1d1d" offset="1"/>
</linearGradient>
<radialGradient id="radialGradient1530" cx="18.634" cy="17.486" r="40.693" fx="18.934" fy="17.81" gradientTransform="matrix(.35071 0 0 .32899 26.974 .38976)" gradientUnits="userSpaceOnUse" xlink:href="#linearGradient4750"/>
</defs>
<g fill-opacity=".71345"></g>
<g fill="url(#radialGradient1530)"></g>
<g transform="matrix(.74945 0 0 .74945 2.0043 2.0046)" stroke="#729fcf">
<path d="M 16,7.9995 C 16,12.418 12.418,16 8.0001,16 3.5818,16 0,12.418 0,7.9995 0,3.5812 3.5818,-4e-4 8.0001,-4e-4 12.418,-4e-4 16,3.5812 16,7.9995 Z" fill="#729fcf" stroke-width=".011429"/>
<g transform="matrix(.41417 0 0 .41461 -2.357 -1.8044)" color="#000000" fill="#fff" stroke-width=".02758">
<g color="#000000">
<g color="#000000" fill="#fff" stroke="#729fcf" stroke-width=".02758">
<path d="m44.071 20.714c-0.01989 0.26195 0 0 0 0l-0.5449 0.6172c-0.334-0.3936-0.709-0.7246-1.0898-1.0703l-0.8359 0.123-0.7637-0.8633v1.0684l0.6543 0.4951 0.4355 0.4932 0.582-0.6582c0.1465 0.2744 0.291 0.5488 0.4365 0.8232v0.8223l-0.6553 0.7402-1.1992 0.8232-0.9082 0.9063-0.582-0.6602 0.291-0.7402-0.5811-0.6582-0.9814-2.0977-0.8359-0.9453-0.2188 0.2461 0.3281 1.1934 0.6172 0.6992c0.3525 1.0176 0.7012 1.9902 1.1641 2.9629 0.7178 0 1.3945-0.0762 2.1074-0.166v0.5762l-0.8721 2.1392-0.7998 0.9043-0.6543 1.4004v2.3027l0.2188 0.9063-0.3633 0.4102-0.8008 0.4941-0.8359 0.6992 0.6914 0.7813-0.9453 0.8242 0.1816 0.5332-1.418 1.6055h-0.9443l-0.7998 0.4941h-0.5098v-0.6582l-0.2168-1.3184c-0.2813-0.8262-0.5742-1.6465-0.8721-2.4668 0-0.6055 0.0361-1.2051 0.0723-1.8105l0.3643-0.8223-0.5098-0.9883 0.0371-1.3574-0.6914-0.7813 0.3457-1.1309-0.5625-0.6382h-0.9824l-0.3271-0.3701-0.9814 0.6177-0.3994-0.4536-0.9092 0.7817c-0.6172-0.6997-1.2354-1.3989-1.8535-2.0981l-0.7266-1.7285 0.6543-0.9863-0.3633-0.4111 0.7988-1.8936c0.6563-0.8164 1.3418-1.5996 2.0352-2.3857l1.2363-0.3291 1.3809-0.1641 0.9453 0.2471 1.3447 1.3564 0.4727-0.5342 0.6533-0.082 1.2363 0.4111h0.9453l0.6543-0.5762 0.291-0.4111-0.6553-0.4111-1.0908-0.082c-0.3027-0.4199-0.584-0.8613-0.9434-1.2344l-0.3643 0.1641-0.1455 1.0703-0.6543-0.7402-0.1445-0.8242-0.7266-0.5742h-0.292l0.7275 0.8223-0.291 0.7402-0.5811 0.1641 0.3633-0.7402-0.6553-0.3281-0.5801-0.6582-1.0918 0.2461-0.1445 0.3281-0.6543 0.4121-0.3633 0.9053-0.9082 0.4521-0.4004-0.4521h-0.4355v-1.4814l0.9453-0.4941h0.7266l-0.1465-0.5752-0.5801-0.5762 0.9805-0.2061 0.5449-0.6162 0.4355-0.7412h0.8008l-0.2188-0.5752 0.5098-0.3291v0.6582l1.0898 0.2461 1.0898-0.9043 0.0732-0.4121 0.9443-0.6577c-0.3418 0.0425-0.6836 0.0737-1.0176 0.1646v-0.7411l0.3633-0.8228h-0.3633l-0.7984 0.7402-0.2188 0.4116 0.2188 0.5767-0.3643 0.9863-0.5811-0.3291-0.5078-0.5752-0.8008 0.5752-0.291-1.3159 1.3809-0.9048v-0.4941l0.873-0.5757 1.3809-0.3296 0.9453 0.3296 1.7441 0.3291-0.4355 0.4932h-0.9453l0.9453 0.9873 0.7266-0.8223 0.33004-0.37202s2.5723 1.987 4.3799 5.2407c1.5928 2.7334 2.3069 5.6159 2.2315 6.6094z" color="#000000" fill="#fff" stroke="#729fcf" stroke-width=".02758"/>
</g>
</g>
<g color="#000000">
<g color="#000000" fill="#fff" stroke="#729fcf" stroke-width=".02758">
<path d="m26.07 9.2363-0.0732 0.4932 0.5098 0.3291 0.8711-0.5757-0.4355-0.4937-0.582 0.3296-0.29-0.0825" color="#000000" fill="#fff" stroke="#729fcf" stroke-width=".02758"/>
</g>
</g>
<g color="#000000">
<g color="#000000" fill="#fff" stroke="#729fcf" stroke-width=".02758">
<path d="m26.87 5.8633-1.8906-0.7407-2.1797 0.2466-2.6904 0.7402-0.5088 0.4941 1.6719 1.1514v0.6582l-0.6543 0.6582 0.873 1.729 0.5801-0.3301 0.7285-1.1514c1.123-0.3472 2.1299-0.7407 3.1973-1.2344l0.873-2.2212" color="#000000" fill="#fff" stroke="#729fcf" stroke-width=".02758"/>
</g>
</g>
<g color="#000000">
<g color="#000000" fill="#fff" stroke="#729fcf" stroke-width=".02758">
<path d="m28.833 12.775-0.291-0.7412-0.5098 0.165 0.1465 0.9043 0.6543-0.3281" color="#000000" fill="#fff" stroke="#729fcf" stroke-width=".02758"/>
</g>
</g>
<g color="#000000">
<g color="#000000" fill="#fff" stroke="#729fcf" stroke-width=".02758">
<path d="m29.123 12.609-0.1455 0.9883 0.7998-0.165 0.5811-0.5752-0.5088-0.4941c-0.1709-0.4551-0.3672-0.8799-0.5811-1.3164h-0.4355v0.4932l0.29 0.3291v0.7402" color="#000000" fill="#fff" stroke="#729fcf" stroke-width=".02758"/>
</g>
</g>
<g color="#000000">
<g color="#000000" fill="#fff" stroke="#729fcf" stroke-width=".02758">
<path d="m18.365 28.242-0.582-1.1523-1.0903-0.2466-0.5815-1.5625-1.4536 0.1641-1.2354-0.9043-1.3091 1.1514v0.1816c-0.396-0.1143-0.8828-0.1299-1.2354-0.3467l-0.291-0.8223v-0.9053l-0.8721 0.082c0.0728-0.5762 0.145-1.1514 0.2183-1.7275h-0.5093l-0.5083 0.6582-0.5093 0.2461-0.7271-0.4102-0.0728-0.9053 0.1455-0.9873 1.0908-0.8223h0.8721l0.145-0.4941 1.0903 0.2461 0.7998 0.9883 0.1455-1.6465 1.3813-1.1514 0.5088-1.2344 1.0176-0.4111 0.5815-0.8223 1.3081-0.248 0.6548-0.9863h-1.9629l1.2358-0.5762h0.8716l1.2363-0.4121 0.1455-0.4922-0.4365-0.4121-0.5088-0.165 0.1455-0.4932-0.3633-0.7402-0.8726 0.3281 0.1455-0.6577-1.0176-0.5762-0.7993 1.3979 0.0723 0.4941-0.7993 0.3301-0.5093 1.0693-0.2178-0.9873-1.3813-0.5762-0.2183-0.7402 1.8174-1.0703 0.7998-0.7402 0.0728-0.9048-0.436-0.2471-0.5815-0.069176-0.3633 0.89198s-0.81539 0.1191-0.97169 0.1577c-0.70567 0.62764-1.5421 0.99921-3.6445 4.0937-1.5561 2.2903-2.7118 5.1723-3.1143 9.2125 0.0371 0.1738 0.6792 1.1816 0.6792 1.1816l1.5264 0.9043 1.5264 0.4121 0.6548 0.8232 1.0171 0.7402 0.5815-0.082 0.436 0.1963v0.1328l-0.5811 1.563-0.4365 0.6582 0.1455 0.3301-0.3633 1.2324 1.3086 2.3867 1.3081 1.1523 0.582 0.8223-0.0732 1.7285 0.4365 0.9863-0.4365 1.8926s-0.0342-0.05258 0.0215 0.13682c0.39573 0.37793 2.3291 1.4921 2.4736 1.3847 0.144-0.1094 0.2671-0.2051 0.2671-0.2051l-0.145-0.4102 0.5811-0.5762 0.2183-0.5762 0.9453-0.3301 0.7266-1.8105-0.2178-0.4922 0.5078-0.7402 1.0908-0.248 0.582-1.3164-0.1455-1.6445 0.8721-1.2344 0.1455-1.2344c-1.1934-0.5918-2.377-1.2012-3.5615-1.8105" color="#000000" fill="#fff" stroke="#729fcf" stroke-width=".02758"/>
</g>
</g>
<g color="#000000">
<g color="#000000" fill="#fff" stroke="#729fcf" stroke-width=".02758">
<path d="m16.766 9.5649 0.7266 0.4937h0.582v-0.5757l-0.7266-0.3291-0.582 0.4111" color="#000000" fill="#fff" stroke="#729fcf" stroke-width=".02758"/>
</g>
</g>
<g color="#000000">
<g color="#000000" fill="#fff" stroke="#729fcf" stroke-width=".02758">
<path d="m14.876 8.9072-0.3638 0.9048h0.7271l0.3638-0.8228c0.3135-0.2217 0.6255-0.4448 0.9448-0.6582l0.7271 0.2471c0.4844 0.3291 0.9688 0.6582 1.4536 0.9868l0.7275-0.6577-0.8003-0.3291-0.3638-0.7407-1.3809-0.1646-0.0728-0.4116-0.6543 0.165-0.2904 0.5758-0.3638-0.7407-0.145 0.3291 0.0728 0.8228-0.5816 0.494" color="#000000" fill="#fff" stroke="#729fcf" stroke-width=".02758"/>
</g>
</g>
<g color="#000000">
<g color="#000000" fill="#fff" stroke="#729fcf" stroke-width=".02758">
<path d="m17.492 6.8496 0.3638-0.3286 0.7271-0.1646c0.498-0.2422 0.998-0.4053 1.5264-0.5762l-0.29-0.4937-0.9385 0.1348-0.4434 0.4419-0.731 0.106-0.6499 0.3052-0.3159 0.1528-0.1929 0.2583 0.9443 0.1641" color="#000000" fill="#fff" stroke="#729fcf" stroke-width=".02758"/>
</g>
</g>
<g color="#000000">
<g color="#000000" fill="#fff" stroke="#729fcf" stroke-width=".02758">
<path d="m18.728 14.666 0.4365-0.6582-0.6548-0.4932 0.2183 1.1514" color="#000000" fill="#fff" stroke="#729fcf" stroke-width=".02758"/>
</g>
</g>
</g>
</g>
<g transform="matrix(.88818 0 0 .90293 -22.194 .75321)">
<path d="m40.107 2.4178c1.7435-2.0685 3.1447-0.27304 1.7807 2.2916-1.3572 2.552 1.1337 3.9039 0.48695 6.1171-0.66828 2.2869-1.5522 1.8369-2.5869 2.705-1.0348 0.86807-5.4174 0.73658-5.4174 0.73658l-0.13787-0.69445" color="#000000" fill="none" stroke="#888a85" stroke-width="1.0373"/>
<path d="m37.526 2.4253 2.2617 2.5902 0.71205-0.60418c0.54736-0.48601 0.65987-1.5026 0.35397-1.853l-0.72168-0.82652c-0.28075-0.32153-1.2413-0.51829-1.8849 0.053181z" color="#000000" fill="#ef2929" fill-rule="evenodd"/>
</g>
<g fill-rule="evenodd">
<path d="m0.49376 6.9991h8.8648c0.22513 0 0.41146 0.16067 0.41174 0.38669l0.00853 7.0568c3.786e-4 0.30879-0.22259 0.55739-0.49907 0.55739h-8.7807c-0.27649 0-0.49986-0.2486-0.49907-0.55739l0.018091-7.0568c5.4851e-4 -0.2137 0.13525-0.38669 0.41174-0.38669z" color="#000000" fill="#dde1d9"/>
<path d="m1 8v5h8.0009v-5z" fill="#729fcf"/>
<g>
<rect x="5" y="9.249" width="3" height="2.751" color="#000000" fill="#eeeeec"/>
<rect x="2" y="9.249" width="2" height="1.751" color="#000000" fill="#eeeeec"/>
<rect x="5" y="9" width="3" height=".25" color="#000000" fill="#204a87"/>
<rect x="2" y="9" width="2" height=".25" color="#000000" fill="#204a87"/>
</g>
</g>
</svg>
