<svg width="16" height="16" version="1" xmlns="http://www.w3.org/2000/svg">
<g fill-rule="evenodd" stroke-width=".99998">
<path d="m2.553 6c-2.5706 1.697-2.8907 4.017-2.2988 5.373 0.60293 1.3814 1.6226 1.627 2.8403 1.627h4.0581c1.15 0 2.29-0.44105 2.7074-1.6973 0.39631-1.1929 0.067503-3.4644-2.5031-5.3027z" color="#000000" fill="#727e0a"/>
<path d="m4.2369 6.6059s-0.82325 0.63233-0.75233 1.3941c-0.78112-0.68582-0.80356-2-0.80356-2z" color="#000000" fill="#9db029"/>
<path d="m5.6639 6.6059s0.82325 0.63233 0.75233 1.3941c0.78112-0.68582 0.80356-2 0.80356-2z" color="#000000" fill="#9db029"/>
<ellipse cx="4.9989" cy="4" rx="2.9998" ry="3" color="#000000" fill="#966416"/>
<path d="m8.5527 9c-2.5706 1.697-2.8907 4.017-2.2988 5.373 0.60293 1.3814 1.6226 1.627 2.8403 1.627h4.0581c1.15 0 2.29-0.44105 2.7074-1.6973 0.39631-1.1929 0.0675-3.4644-2.5031-5.3027z" color="#000000" fill="#3b74bc"/>
<path d="m12.524 9.6523c-0.93441 1.186-1.4683 5.2324-1.4683 5.2324s-0.53478-4.0479-1.7362-5.1641z" color="#000000" fill="#fff"/>
<path d="m10.238 9.6059s-0.82325 0.63233-0.75233 1.3941c-0.78112-0.68582-0.80356-2-0.80356-2z" color="#000000" fill="#729fcf"/>
<path d="m11.665 9.6059s0.82325 0.63233 0.75233 1.3941c0.78112-0.68582 0.80356-2 0.80356-2z" color="#000000" fill="#729fcf"/>
<ellipse cx="11" cy="7" rx="2.9998" ry="3" color="#000000" fill="#df9725"/>
</g>
<ellipse cx="3.252" cy="7.0064" rx="3.0195" ry="3.0197" color="#000000" fill="none" opacity=".1962" stroke-width=".99998"/>
</svg>
