<svg width="16" height="16" version="1" xmlns="http://www.w3.org/2000/svg">
<g fill-rule="evenodd">
<path d="m1.7644 4.823c-0.013619-0.01098 0.53501 7.9003 0.53515 7.9026 0.051464 0.79003 0.48351 1.0788 0.96712 1.08 0.01728 4.1e-5 9.0715-1e-3 9.2652-0.0019 0.81437-0.0035 1.0139-0.50628 1.0674-1.0557 0.0043-0.01083 0.55264-7.9143 0.55693-7.9244h-12.392z" fill="#b5c051" stroke="#b5c051" stroke-width=".38879"/>
<path d="m2.9044 1.237c-0.3228 8.005e-4 -0.59296 0.0089011-0.74013 0.34236-0.025577 0.057957-0.80516 2.4101-0.84268 2.4998-0.32088 0.76793-0.024963 1.7353 0.59482 1.7288 0.11787-0.00118 12.212 6e-3 12.401 0 0.52759-0.016578 0.5951-1.1367 0.36799-1.6407-0.01286-0.028548-1.067-2.62-1.0938-2.6659-0.12434-0.20499-0.4028-0.29484-0.60965-0.28642-0.04074 0.0017-10.037 0.021933-10.077 0.022032z" fill="#eff3f4" stroke="#eff3f4" stroke-width=".40389"/>
<g transform="matrix(.77774 0 0 .87302 -.55416 -1.4629)" stroke-width=".39992">
<path d="m4.5237 4.0029c-0.39118-0.00513-0.41667-0.02046-0.50472 0.26022-0.020327 0.064794-0.8393 2.6157-0.87139 2.7147-0.10917 0.33663 0.045206 0.42549 0.42406 0.41864 0.13421-0.00242 14.833 0 15.047 0 0.30334 0 0.39333-0.10132 0.3248-0.34044-0.02785-0.097163-1.168-2.8207-1.1986-2.8693-0.14161-0.21662-0.11705-0.21599-0.36439-0.21904-0.046433-5.718e-4 -12.811 0.03583-12.856 0.035228z" color="#000000" display="block" fill="#575955"/>
<path d="m4.3136 4.0016c-0.1473 0.011401-0.21815 0.055652-0.2798 0.25218-0.020327 0.064794-0.83838 2.6119-0.87051 2.7109-0.10917 0.33663 0.035654 0.42714 0.41452 0.42029 0.00656-1.176e-4 0.77579 9.74e-5 0.84863 0z" color="#000000" display="block" fill="#2e3436"/>
<path d="m17.401 3.9666c0.17903 0.00155 0.2316-0.00209 0.34605 0.21726 0.01565 0.029997 1.1416 2.7356 1.1821 2.8346 0.13749 0.38139-0.12437 0.37342-0.53967 0.38448-0.0789-1.18e-4 -1.0123-0.00885-1.104-0.00895z" color="#000000" display="block" fill="#babdb6"/>
</g>
<g transform="matrix(.77774 0 0 .77774 -.55416 -1.5536)" fill="#fff" stroke-width=".39992">
<path d="m10.915 12.898 2.1415 0.16566 0.8281-2.044-0.97982 0.6982s-0.42012-0.99353-0.72209-1.0734c-0.30196-0.07987-1.5903-0.05325-1.5903-0.05325 0.40976 0.10275 0.72825 0.81667 0.73313 0.82476 0.12784 0.2115 0.4857 0.92318 0.4857 0.92318z" fill-opacity=".4881"/>
<path d="m11.18 11.484-0.70887 1.3711-1.4573-0.9318s0.66081-1.2646 1.1816-1.2646c0.52518 0 0.75986 0.45899 0.98458 0.82533z" color="#000000" fill-opacity=".30952"/>
<path d="m12.224 14.739-1.3807 1.673 1.3176 1.7251 0.02437-1.0866s0.97048 0.09286 1.1932-0.12875c0.22274-0.22161 1.1494-1.339 1.1494-1.339-0.2975 0.30363-1.0652 0.2138-1.0745 0.21389-0.24464 0.0025-1.2129-0.02039-1.2129-0.02039z" fill-opacity=".4881"/>
<path d="m13.519 15.606-0.79581-1.3211 1.5372-0.78876s0.73039 1.2246 0.46282 1.6776c-0.26986 0.45682-0.77881 0.42509-1.2042 0.4323z" color="#000000" fill-opacity=".30952"/>
<path d="m9.8094 14.642-0.68158-1.82-1.9875 0.14241 0.81586 0.6026s-0.56346 0.80652-0.4851 1.1128c0.078337 0.30628 0.52029 1.5752 0.52029 1.5752-0.11116-0.41288 0.34854-1.0427 0.35313-1.051 0.11987-0.21624 0.6224-1.0557 0.6224-1.0557z" fill-opacity=".4881"/>
<path d="m8.4459 15.377 1.5263-0.04041-0.092485 1.7443s-1.4111 0.03105-1.6649-0.43004c-0.25588-0.46499 0.025073-0.8964 0.2311-1.2739z" color="#000000" fill-opacity=".30952"/>
</g>
</g>
</svg>
