<svg width="16" height="16" version="1" xmlns="http://www.w3.org/2000/svg">
<rect x="2" y="5" width="12" height="9" rx=".32173" ry=".32377" color="#000000" fill="#d3d7cf" fill-opacity=".99608" fill-rule="evenodd"/>
<rect x="1.9833" y="5.0758" width="11.717" height="8.534" rx="0" ry="0" color="#000000" fill="none"/>
<g>
<rect x="4" y="10" width="1" height="3" color="#000000" fill="#677579"/>
<rect x="3.5" y="8" width="2" height="2" color="#000000" fill="#eeeeec"/>
<rect x="4" y="10" width="1" height="3" color="#000000" fill="#677579"/>
</g>
<rect x="3.9549" y="8.911" width="1.6033" height="1.189" color="#000000" fill="none"/>
<path d="m1.9965 6-1.3237-4h14.663l-1.3355 4z" color="#000000" fill="#a5a5a5"/>
<g fill="#ddd">
<rect y="2" width="16" height="1" color="#000000"/>
<rect x="3" y="5" width="2" height="1" rx=".35955" ry=".5" color="#000000"/>
<rect x="11" y="5" width="2" height="1" rx=".35955" ry=".5" color="#000000"/>
</g>
<g transform="matrix(1,0,0,-1,3.5,21)">
<g>
<rect x="4" y="10" width="1" height="3" color="#000000" fill="#677579"/>
<rect x="3.5" y="8" width="2" height="2" color="#000000" fill="#eeeeec"/>
<rect x="4" y="10" width="1" height="3" color="#000000" fill="#677579"/>
</g>
</g>
<g transform="matrix(1,0,0,-1,7,21)">
<g>
<rect x="4" y="10" width="1" height="3" color="#000000" fill="#677579"/>
<rect x="3.5" y="8" width="2" height="2" color="#000000" fill="#eeeeec"/>
<rect x="4" y="10" width="1" height="3" color="#000000" fill="#677579"/>
</g>
</g>
</svg>
