<svg width="48" height="48" version="1" xmlns="http://www.w3.org/2000/svg">
<defs>
<filter id="filter1044" color-interpolation-filters="sRGB">
<feFlood flood-color="rgb(0,0,0)" flood-opacity=".2" result="flood"/>
<feComposite in="flood" in2="SourceGraphic" operator="in" result="composite1"/>
<feGaussianBlur in="composite1" result="blur"/>
<feOffset dx="0" dy="1" result="offset"/>
<feComposite in="SourceGraphic" in2="offset" result="composite2"/>
</filter>
<filter id="filter1056" color-interpolation-filters="sRGB">
<feFlood flood-color="rgb(0,0,0)" flood-opacity=".2" result="flood"/>
<feComposite in="flood" in2="SourceGraphic" operator="in" result="composite1"/>
<feGaussianBlur in="composite1" result="blur"/>
<feOffset dx="0" dy="1" result="offset"/>
<feComposite in="SourceGraphic" in2="offset" result="fbSourceGraphic"/>
<feColorMatrix in="fbSourceGraphic" result="fbSourceGraphicAlpha" values="0 0 0 -1 0 0 0 0 -1 0 0 0 0 -1 0 0 0 0 1 0"/>
<feFlood flood-color="rgb(255,255,255)" flood-opacity=".10196" in="fbSourceGraphic" result="flood"/>
<feComposite in="flood" in2="fbSourceGraphic" operator="out" result="composite1"/>
<feGaussianBlur in="composite1" result="blur"/>
<feOffset dx="0" dy="1" result="offset"/>
<feComposite in="offset" in2="fbSourceGraphic" operator="atop" result="composite2"/>
</filter>
<filter id="filter1068" color-interpolation-filters="sRGB">
<feFlood flood-color="rgb(0,0,0)" flood-opacity=".2" result="flood"/>
<feComposite in="flood" in2="SourceGraphic" operator="in" result="composite1"/>
<feGaussianBlur in="composite1" result="blur"/>
<feOffset dx="0" dy="1" result="offset"/>
<feComposite in="SourceGraphic" in2="offset" result="fbSourceGraphic"/>
<feColorMatrix in="fbSourceGraphic" result="fbSourceGraphicAlpha" values="0 0 0 -1 0 0 0 0 -1 0 0 0 0 -1 0 0 0 0 1 0"/>
<feFlood flood-color="rgb(255,255,255)" flood-opacity=".10196" in="fbSourceGraphic" result="flood"/>
<feComposite in="flood" in2="fbSourceGraphic" operator="out" result="composite1"/>
<feGaussianBlur in="composite1" result="blur"/>
<feOffset dx="0" dy="1" result="offset"/>
<feComposite in="offset" in2="fbSourceGraphic" operator="atop" result="composite2"/>
</filter>
<filter id="filter1080" color-interpolation-filters="sRGB">
<feFlood flood-color="rgb(255,255,255)" flood-opacity=".10196" result="flood"/>
<feComposite in="flood" in2="SourceGraphic" operator="out" result="composite1"/>
<feGaussianBlur in="composite1" result="blur"/>
<feOffset dx="0" dy="1" result="offset"/>
<feComposite in="offset" in2="SourceGraphic" operator="atop" result="fbSourceGraphic"/>
<feColorMatrix in="fbSourceGraphic" result="fbSourceGraphicAlpha" values="0 0 0 -1 0 0 0 0 -1 0 0 0 0 -1 0 0 0 0 1 0"/>
<feFlood flood-color="rgb(0,0,0)" flood-opacity=".2" in="fbSourceGraphic" result="flood"/>
<feComposite in="flood" in2="fbSourceGraphic" operator="in" result="composite1"/>
<feGaussianBlur in="composite1" result="blur"/>
<feOffset dx="0" dy="1" result="offset"/>
<feComposite in="fbSourceGraphic" in2="offset" result="composite2"/>
</filter>
<filter id="filter1128" color-interpolation-filters="sRGB">
<feFlood flood-color="rgb(0,0,0)" flood-opacity=".2" result="flood"/>
<feComposite in="flood" in2="SourceGraphic" operator="in" result="composite1"/>
<feGaussianBlur in="composite1" result="blur"/>
<feOffset dx="0" dy="1" result="offset"/>
<feComposite in="SourceGraphic" in2="offset" result="composite2"/>
</filter>
<filter id="filter1140" color-interpolation-filters="sRGB">
<feFlood flood-color="rgb(0,0,0)" flood-opacity=".2" result="flood"/>
<feComposite in="flood" in2="SourceGraphic" operator="in" result="composite1"/>
<feGaussianBlur in="composite1" result="blur"/>
<feOffset dx="0" dy="1" result="offset"/>
<feComposite in="SourceGraphic" in2="offset" result="composite2"/>
</filter>
</defs>
<g stroke-width="2">
<path d="m30.076 10.25s0.16976-1.2847 1.5844-1.2499h8.2994c1.5467 0 2.0936 1.059 2.037 2.2916v5.6941c-0.0188 1.1458-0.8488 1.8576-1.8862 1.9444l-9.6574 0.06944-0.45269-2.9165z" color="#000000" fill="#b6b6b6" filter="url(#filter1080)"/>
<path d="m40.025 11.007-8.3002 3.3345-5.7025-0.33345 8.2368-3.0011z" color="#000000" fill="#c6c6c6"/>
<path d="m40.025 11.07-8.4904 2.3482v4.3353l8.4904-2.7699z" color="#000000" fill="#919191"/>
<path d="m6.7576 13.935 15.804-0.36335c1.9256 0 3.4757 1.5557 3.4757 3.4881v17.15c0 1.9324-1.5502 4.7907-3.4757 4.7907l-15.043-0.14534c-3.2291 0.14534-5.5033-3.2943-5.5033-6.8253v-12.444c-0.16023-2.5232 0.95576-5.3421 4.7429-5.6499z" fill="#ddd" filter="url(#filter1056)"/>
<path d="m30.554 13.098-14.418-0.1015c-5.0047 0.03114-7.7903 3.5105-7.7903 6.5697 0 2.8775 2.2178 4.9285 3.7343 5.4489v7.1383c0 3.4583-0.57795 6.1575 5.6013 6.2895l15.291 0.15568c2.0616 0.0614 5.0541-1.9061 5.0541-3.7987v-15.782c0-3.9511-2.4882-6.0239-7.4721-5.9197z" fill="#d7d7d7" filter="url(#filter1068)"/>
<ellipse cx="14.174" cy="19.222" rx="4.1817" ry="4.2601" color="#000000" filter="url(#filter1044)"/>
</g>
<g transform="matrix(1.0138 0 0 1.0174 .61523 -.79199)">
<g transform="translate(.17678 .17678)">
<circle transform="matrix(.44445 0 0 .44445 2.8333 18.056)" cx="3.75" cy="32.5" r="1.125" color="#000000"/>
<circle transform="matrix(.44445 0 0 .44445 4.8333 18.056)" cx="3.75" cy="32.5" r="1.125" color="#000000"/>
<circle transform="matrix(.44445 0 0 .44445 6.8333 18.056)" cx="3.75" cy="32.5" r="1.125" color="#000000"/>
<circle transform="matrix(.44445 0 0 .44445 8.8333 18.056)" cx="3.75" cy="32.5" r="1.125" color="#000000"/>
<circle transform="matrix(.44445 0 0 .44445 7.8333 19.056)" cx="3.75" cy="32.5" r="1.125" color="#000000"/>
<circle transform="matrix(.44445 0 0 .44445 5.8333 19.056)" cx="3.75" cy="32.5" r="1.125" color="#000000"/>
<circle transform="matrix(.44445 0 0 .44445 3.8333 19.056)" cx="3.75" cy="32.5" r="1.125" color="#000000"/>
<circle transform="matrix(.44445 0 0 .44445 2.8333 20.056)" cx="3.75" cy="32.5" r="1.125" color="#000000"/>
<circle transform="matrix(.44445 0 0 .44445 4.8333 20.056)" cx="3.75" cy="32.5" r="1.125" color="#000000"/>
<circle transform="matrix(.44445 0 0 .44445 6.8333 20.056)" cx="3.75" cy="32.5" r="1.125" color="#000000"/>
<circle transform="matrix(.44445 0 0 .44445 8.8333 20.056)" cx="3.75" cy="32.5" r="1.125" color="#000000"/>
<circle transform="matrix(.44445 0 0 .44445 7.8333 21.056)" cx="3.75" cy="32.5" r="1.125" color="#000000"/>
<circle transform="matrix(.44445 0 0 .44445 8.8333 22.056)" cx="3.75" cy="32.5" r="1.125" color="#000000"/>
<circle transform="matrix(.44445 0 0 .44445 6.8333 22.056)" cx="3.75" cy="32.5" r="1.125" color="#000000"/>
<circle transform="matrix(.44445 0 0 .44445 5.8333 21.056)" cx="3.75" cy="32.5" r="1.125" color="#000000"/>
<circle transform="matrix(.44445 0 0 .44445 4.8333 22.056)" cx="3.75" cy="32.5" r="1.125" color="#000000"/>
<circle transform="matrix(.44445 0 0 .44445 3.8333 21.056)" cx="3.75" cy="32.5" r="1.125" color="#000000"/>
</g>
<circle transform="matrix(.44445 0 0 .44445 2.8333 18.056)" cx="3.75" cy="32.5" r="1.125" color="#000000"/>
<circle transform="matrix(.44445 0 0 .44445 4.8333 18.056)" cx="3.75" cy="32.5" r="1.125" color="#000000"/>
<circle transform="matrix(.44445 0 0 .44445 6.8333 18.056)" cx="3.75" cy="32.5" r="1.125" color="#000000"/>
<circle transform="matrix(.44445 0 0 .44445 8.8333 18.056)" cx="3.75" cy="32.5" r="1.125" color="#000000"/>
<circle transform="matrix(.44445 0 0 .44445 7.8333 19.056)" cx="3.75" cy="32.5" r="1.125" color="#000000"/>
<circle transform="matrix(.44445 0 0 .44445 5.8333 19.056)" cx="3.75" cy="32.5" r="1.125" color="#000000"/>
<circle transform="matrix(.44445 0 0 .44445 3.8333 19.056)" cx="3.75" cy="32.5" r="1.125" color="#000000"/>
<circle transform="matrix(.44445 0 0 .44445 2.8333 20.056)" cx="3.75" cy="32.5" r="1.125" color="#000000"/>
<circle transform="matrix(.44445 0 0 .44445 4.8333 20.056)" cx="3.75" cy="32.5" r="1.125" color="#000000"/>
<circle transform="matrix(.44445 0 0 .44445 6.8333 20.056)" cx="3.75" cy="32.5" r="1.125" color="#000000"/>
<circle transform="matrix(.44445 0 0 .44445 8.8333 20.056)" cx="3.75" cy="32.5" r="1.125" color="#000000"/>
<circle transform="matrix(.44445 0 0 .44445 7.8333 21.056)" cx="3.75" cy="32.5" r="1.125" color="#000000"/>
<circle transform="matrix(.44445 0 0 .44445 8.8333 22.056)" cx="3.75" cy="32.5" r="1.125" color="#000000"/>
<circle transform="matrix(.44445 0 0 .44445 6.8333 22.056)" cx="3.75" cy="32.5" r="1.125" color="#000000"/>
<circle transform="matrix(.44445 0 0 .44445 5.8333 21.056)" cx="3.75" cy="32.5" r="1.125" color="#000000"/>
<circle transform="matrix(.44445 0 0 .44445 4.8333 22.056)" cx="3.75" cy="32.5" r="1.125" color="#000000"/>
<circle transform="matrix(.44445 0 0 .44445 3.8333 21.056)" cx="3.75" cy="32.5" r="1.125" color="#000000"/>
</g>
<rect x="12.78" y="27.694" width="4.0551" height="3.0521" rx=".51047" ry=".51229" color="#000000" stroke-width="2"/>
<rect transform="matrix(1 0 -.061237 .99812 0 0)" x="22.47" y="25.141" width="5.1051" height="7.2353" rx=".28965" ry=".29066" color="#000000" fill="#b6b6b6" stroke-width="2"/>
<rect transform="matrix(1 0 -.063333 .99799 0 0)" x="25.568" y="21.042" width="21.842" height="16.032" rx="1.3034" ry="1.2647" color="#000000" fill="#b6b6b6" filter="url(#filter1128)" stroke-width="2"/>
<rect transform="matrix(1 0 -.061237 .99812 0 0)" x="28.132" y="22.779" width="16.274" height="12.286" rx=".27609" ry=".27706" fill="#174992" filter="url(#filter1140)" stroke-width="2"/>
</svg>
