<svg width="48" height="48" version="1" xmlns="http://www.w3.org/2000/svg" xmlns:xlink="http://www.w3.org/1999/xlink">
<g stroke-width="1.9994">
<path d="m4.0123 36.388 0.73083-0.66109 35.947 0.05968 3.3094 0.30303v6.149c0 1.0749-0.58019 1.7604-1.5215 1.7604h-36.879c-0.95436 0-1.5884-0.51767-1.5884-1.5516z" fill="#bbb" fill-rule="evenodd"/>
<path d="m9.754 23.941c-0.59688 0-0.98487 0.27712-1.2236 0.8058-1e-6 0-4.2677 10.604-4.2677 10.604s-0.23875 0.64135-0.23875 1.7011v5.3958c0 1.0339 0.6282 1.5519 1.5818 1.5519h36.827c0.94056 0 1.5221-0.68588 1.5221-1.7608v-5.3958s0.10119-0.73576-0.08953-1.2535l-4.5065-10.694c-0.17623-0.48888-0.60826-0.94364-1.0744-0.95502z" fill="none"/>
<path d="m25.038 21.775c-2.5067 0-4.4979 1.0046-4.6556 2.2681h-0.05969l-1.2236 4.9541c-0.20892 1.0446 1.9852 2.8949 5.9391 2.8949 3.9838 0 6.2674-1.8802 5.8793-3.2828l-1.1341-4.5663h-0.05968c-0.15629-1.2643-2.178-2.2681-4.6856-2.2681z" color="#000000" fill="none"/>
<path d="m4.2754 35.67c-0.68216 1.4282-5.878e-4 2.3339 0.98913 2.3339h37.245c1.0687-0.02323 1.7622-0.98699 1.3643-2.0902l-4.5023-10.935c-0.17623-0.49929-0.62532-0.96376-1.0915-0.97537h-28.514c-0.59688 0-0.98913 0.29609-1.2279 0.83603l-4.2635 10.83z" fill="#e4e4e4" fill-rule="evenodd"/>
<path d="m10.095 24.373c-0.57463 0-0.94814 0.2668-1.178 0.77575-1e-6 0-4.2164 10.114-4.2164 10.114s-0.22985 0.61744-0.22985 1.6377v5.0521c0 1.2938 0.42408 1.5537 1.5228 1.5537h35.991c1.2636 0 1.4653-0.30217 1.4653-1.7548v-5.0521s0.09741-0.70833-0.08619-1.2067l-4.3865-10.32c-0.16965-0.47064-0.52589-0.78909-0.97463-0.80002z" fill="none"/>
<ellipse cx="24.994" cy="30.395" rx="10.997" ry="5.6062" color="#000000" fill="#fff" fill-opacity=".48023" fill-rule="evenodd"/>
<ellipse cx="25.048" cy="28.85" rx="5.9089" ry="3.0265" color="#000000" fill="#c9c9c9" fill-rule="evenodd"/>
<path d="m25.038 4.1961c-3.4948 0-6.3269 2.8324-6.3269 6.3269 0 2.4903 1.4889 4.5773 3.5813 5.6108v8.1476c0 0.77735 1.228 1.4027 2.7456 1.4027 1.5177 0 2.7456-0.62534 2.7456-1.4027v-8.1176c2.111-1.0268 3.5813-3.1367 3.5813-5.6405 0-3.4948-2.8324-6.3269-6.3269-6.3269z" color="#000000" fill="none"/>
</g>
<path d="m35.101 22.813a2.9952 1.5342 0 0 0-2.9965 1.5341 2.9952 1.5342 0 0 0 2.9965 1.5341 2.9952 1.5342 0 0 0 2.9941-1.5341 2.9952 1.5342 0 0 0-2.9941-1.5341z" color="#000000" fill="none" stroke-width="1.2669" xlink:href="#path4345"/>
<ellipse cx="11" cy="34" rx="3" ry="2" color="#000000" fill="#ff8a2b" fill-rule="evenodd" stroke-width="1.9724"/>
<path d="m25.04 4.8915c-3.1371 0-5.6761 2.5666-5.6761 5.7039 0 2.2088 1.5854 4.0712 3.4272 5.0117v6.8016c-0.82824 0.37761-2.0562 0.99627-2.0706 1.6059l-1.1906 4.9138c-0.19382 0.9691 1.8418 2.6858 5.51 2.6858 3.6959 0 5.8147-1.7444 5.4546-3.0457l-1.1629-4.6368c-0.0152-0.65303-1.1706-1.0619-2.1026-1.4398v-6.8848c1.8419-0.94044 3.5146-2.803 3.5146-5.0117 0-3.1371-2.5666-5.7039-5.7039-5.7039z" color="#000000" fill="none" opacity=".52571" stroke-width="1.9994"/>
<g fill-opacity=".2" fill-rule="evenodd">
<path d="m44 42.242c0 1.0749-0.58014 1.7598-1.5215 1.7598h-36.879c-0.95436 0-1.5879-0.51686-1.5879-1.5508v0.99805c-1e-7 1.0339 0.63353 1.5508 1.5879 1.5508h36.879c0.94134 0 1.5215-0.68482 1.5215-1.7598z" stroke-width="1.9994"/>
<path d="m13.902 34.496a3 2 0 0 1-2.9023 1.5039 3 2 0 0 1-2.9023-1.4961 3 2 0 0 0-0.097656 0.49609 3 2 0 0 0 3 2 3 2 0 0 0 3-2 3 2 0 0 0-0.09766-0.50391z" color="#000000" stroke-width="1.9724"/>
<path d="m30.869 29.52c-0.45244 1.2254-2.5722 2.4824-5.8301 2.4824-3.3135 0-5.369-1.2963-5.832-2.332l-0.10742 0.4375c-0.20894 1.0446 1.9856 2.8945 5.9395 2.8945 3.9837 0 6.2669-1.8805 5.8789-3.2832z" color="#000000" stroke-width="1.9994"/>
</g>
<g fill-rule="evenodd">
<g stroke-width="1.9994">
<path d="m9.7656 24.004c-0.59688 0-0.98781 0.296-1.2266 0.83594l-4.2637 10.83c-0.29476 0.61712-0.32463 1.1284-0.19531 1.5195 0.04483-0.16452 0.10821-0.33717 0.19531-0.51953l4.2637-10.83c0.23875-0.53994 0.62968-0.83594 1.2266-0.83594h28.514c0.46614 0.01162 0.91557 0.47532 1.0918 0.97461l4.502 10.936c0.01482 0.04107 0.01747 0.08045 0.0293 0.12109 0.11415-0.3287 0.11743-0.71432-0.0293-1.1211l-4.502-10.936c-0.17623-0.49929-0.62565-0.96299-1.0918-0.97461z" fill="#fff" fill-opacity=".1"/>
<path d="m29.784 24.153 1.1341 4.5663c0.38797 1.4027-1.8956 3.2828-5.8793 3.2828-3.9538 0-6.148-1.8504-5.9391-2.8949l1.2236-4.9541z" color="#000000" fill="#aaa"/>
<ellipse id="path4345" cx="25.048" cy="24.305" rx="4.727" ry="2.4213" color="#000000" fill="#e4e4e4" fill-rule="evenodd" stroke-width="1.9994"/>
<path d="m24.994 8.9115c-1.6578 0-2.9991 0.62534-2.9991 1.4027 0 0.02566 0.0623 0.03437 0.0652 0.05969h-0.0652v13.251h0.0652c-0.0028 0.02531-0.0652 0.03403-0.0652 0.05968 0 0.77735 1.3413 1.4027 2.9991 1.4027 1.6578 0 2.9991-0.62534 2.9991-1.4027 0-0.02565-0.0623-0.03437-0.0652-0.05968h0.0652v-13.251h-0.0652c0.0028-0.02532 0.0652-0.03403 0.0652-0.05969 0-0.77735-1.3413-1.4027-2.9991-1.4027z" color="#000000" fill="#aaa"/>
</g>
<g stroke-width="2">
<circle cx="25" cy="9" r="5" color="#000000" fill="#ff8a2b"/>
<path d="m20.027 9.4844a5 5 0 0 0-0.027344 0.51562 5 5 0 0 0 5 5 5 5 0 0 0 5-5 5 5 0 0 0-0.027344-0.48438 5 5 0 0 1-4.9727 4.4844 5 5 0 0 1-4.9727-4.5156z" color="#000000" fill-opacity=".2"/>
<path d="m20.027 9.5156a5 5 0 0 1-0.027344-0.51562 5 5 0 0 1 5-5 5 5 0 0 1 5 5 5 5 0 0 1-0.02734 0.48438 5 5 0 0 0-4.9727-4.4844 5 5 0 0 0-4.9727 4.5156z" color="#000000" fill="#fff" fill-opacity=".1"/>
</g>
</g>
</svg>
