<svg width="48" height="48" version="1" xmlns="http://www.w3.org/2000/svg" xmlns:xlink="http://www.w3.org/1999/xlink">
<defs>
<linearGradient id="linearGradient6208" x1="21.617" x2="26.444" y1="4.6076" y2="47.007" gradientTransform="matrix(.88871 0 0 .88085 3.1179 2.5923)" gradientUnits="userSpaceOnUse">
<stop stop-color="#555753" offset="0"/>
<stop stop-color="#3e3f3c" offset="1"/>
</linearGradient>
<filter id="filter951" color-interpolation-filters="sRGB">
<feFlood flood-color="rgb(0,0,0)" flood-opacity=".2" result="flood"/>
<feComposite in="flood" in2="SourceGraphic" operator="in" result="composite1"/>
<feGaussianBlur in="composite1" result="blur"/>
<feOffset dx="0" dy="1" result="offset"/>
<feComposite in="SourceGraphic" in2="offset" result="composite2"/>
</filter>
<filter id="filter963" color-interpolation-filters="sRGB">
<feFlood flood-color="rgb(0,0,0)" flood-opacity=".2" result="flood"/>
<feComposite in="flood" in2="SourceGraphic" operator="in" result="composite1"/>
<feGaussianBlur in="composite1" result="blur"/>
<feOffset dx="0" dy="1" result="offset"/>
<feComposite in="SourceGraphic" in2="offset" result="fbSourceGraphic"/>
<feColorMatrix in="fbSourceGraphic" result="fbSourceGraphicAlpha" values="0 0 0 -1 0 0 0 0 -1 0 0 0 0 -1 0 0 0 0 1 0"/>
<feFlood flood-color="rgb(255,255,255)" flood-opacity=".10196" in="fbSourceGraphic" result="flood"/>
<feComposite in="flood" in2="fbSourceGraphic" operator="out" result="composite1"/>
<feGaussianBlur in="composite1" result="blur"/>
<feOffset dx="0" dy="1" result="offset"/>
<feComposite in="offset" in2="fbSourceGraphic" operator="atop" result="composite2"/>
</filter>
<filter id="filter975" color-interpolation-filters="sRGB">
<feFlood flood-color="rgb(0,0,0)" flood-opacity=".2" result="flood"/>
<feComposite in="flood" in2="SourceGraphic" operator="in" result="composite1"/>
<feGaussianBlur in="composite1" result="blur"/>
<feOffset dx="0" dy="1" result="offset"/>
<feComposite in="SourceGraphic" in2="offset" result="composite2"/>
</filter>
</defs>
<path id="path4291" d="m8.0058 5.5577v36.203c0.061939 0.94155 0.88759 1.8848 2.1182 1.7907h28.308c0.79411-0.03864 1.5799-0.70485 1.5683-2.0244v-33.11c0-0.64239-0.20552-1.0739-0.67209-1.5364l-2.443-2.5422c-0.2553-0.2433-0.41231-0.3399-1.1193-0.3399h-26.662c-0.83317 0.055053-1.1533 0.89651-1.0978 1.5571z" color="#000000" fill="url(#linearGradient6208)" fill-rule="evenodd" filter="url(#filter963)" stroke-width="2"/>
<rect x="12" y="8.0005" width="24" height="14" rx="1.6277" ry="1.5626" color="#000000" fill="#edd400" fill-rule="evenodd" filter="url(#filter975)" stroke-width="2"/>
<rect transform="matrix(1 0 -.0059706 .99998 0 0)" x="12.54" y="8.8241" width="23.106" height="12.353" rx="1.0186" ry=".94384" color="#000000" fill="none" opacity=".44944" stroke-width="2"/>
<g transform="matrix(2 0 0 2 -40 2.0006)" fill-rule="evenodd" filter="url(#filter951)">
<rect x="25" y="16.069" width="14" height="4.931" rx=".36905" ry=".36632" color="#000000" fill="#2e3436"/>
<rect x="25.558" y="16.517" width="12.886" height="4.0344" rx=".057624" ry=".058131" color="#000000" fill="#eeeeec"/>
<rect x="25.558" y="16.517" width="12.886" height="1.4827" rx=".057624" ry=".064091" color="#000000" fill="#8f5902"/>
<rect x="26" y="17" width="4" height="1" rx=".051683" ry=".064839" color="#000000" fill="#e9b96e"/>
<rect x="32" y="17" width="2" height="1" rx=".064254" ry=".064839" color="#000000" fill="#e9b96e"/>
</g>
<path d="m10.008 6.0005v35.553a2.001 2.001 0 0 1 0.11718-4e-3h28.208c-0.2553 0.0124-0.32748 0.51331-0.33204-4e-3a2.001 2.001 0 0 1 0-0.0196v-33.11c0-0.21616 0.15224 0.11892-0.08204-0.11328a2.001 2.001 0 0 1-0.03126-0.035156l-2.1836-2.2696z" color="#000000" fill="none" opacity=".17978" stroke-width="2" xlink:href="#path4291"/>
<g transform="matrix(2 0 0 2 -40 2.0006)" fill="#fff" fill-rule="evenodd">
<path d="m29 3v2h1v-2z" color="#000000" opacity=".44944"/>
<path d="m31 3v3h1v-3z" color="#000000" opacity=".44944"/>
<path d="m33 3v3h1v-3z" color="#000000" opacity=".44944"/>
<path d="m35 3v4h1v-4z" color="#000000" opacity=".44944"/>
<path d="m27 3v7h1v-7z" color="#000000" opacity=".44944"/>
<path d="m29 6v4h1v-4z" color="#000000" opacity=".44944"/>
<path d="m31 7v3h1v-3z" color="#000000" opacity=".44944"/>
<path d="m33 7v3h1v-3z" color="#000000" opacity=".44944"/>
<path d="m35 8v2h1v-2z" color="#000000" opacity=".44944"/>
</g>
</svg>
