<svg width="16" height="16" version="1.1" xmlns="http://www.w3.org/2000/svg">
<path d="m0.99023 0c-0.53956 7.7e-6 -0.99023 0.4416-0.99023 0.98828v9.0215c0 0.54666 0.45066 0.99024 0.99023 0.99023h0.32422c1.3181-2.0709 3.3956-4 7.5605-4 2.1934 0 3.8048 0.53913 5.0371 1.3477 0.0051-0.00831 4.92e-4 0.00157 0.0059-0.00781 0.06144-0.10746 0.081991-0.23432 0.081991-0.34766v-7.0039c0-0.54666-0.44872-0.98826-0.98828-0.98828zm0.0097656 1h12v6h-2.3926l0.26953-0.39258h-0.95312s0.8731-0.1562 0.99219-1.1289c0.11909-0.97276-1.3477-2.0625-1.3477-2.0625v0.039063c0.0019 0.011123 0.010332 0.059198 0.013672 0.076172l-1.959 2.9199h1.666l0.30664-2.8535c0.08672 0.42269 0.38398 1.7806 0.13086 2.3477-0.11909 0.54476-0.47656 0.66211-0.47656 0.66211h-1.8262l0.048828 0.39258h-6.4727zm2.5 1c-0.84167-7.1e-6 -1.5 0.69516-1.5 1.5 0 0.84139 0.6949 1.4999 1.5 1.5 0.84165 8.7e-6 1.5-0.69516 1.5-1.5 0-0.84137-0.6949-1.4999-1.5-1.5z" fill="#444" stroke-width="1.002"/>
<path d="m9 8c-4 0-5.845 2-7 4 1.155 2 3 4 7 4s5.845-2 7-4c-1.155-2-3-4-7-4zm0 1.5a2.5 2.5 0 0 1 2.5 2.5 2.5 2.5 0 0 1-2.5 2.5 2.5 2.5 0 0 1-2.5-2.5 2.5 2.5 0 0 1 2.5-2.5zm0 1.5a1 1 0 0 0-1 1 1 1 0 0 0 1 1 1 1 0 0 0 1-1 1 1 0 0 0-1-1z" fill="#444"/>
</svg>
