<svg width="16" height="16" version="1.1" xmlns="http://www.w3.org/2000/svg">
<path d="m0.99023 0c-0.53956 7.7e-6 -0.99023 0.4416-0.99023 0.98828v9.0215c0 0.54666 0.45066 0.99024 0.99023 0.99023h2.0332l-0.023438-2.9629c0-0.081707 0.022737-0.17083 0.068359-0.26172 0.13708-0.27308 0.56065-0.564 1.5-0.77344 0.0023804-5.316e-4 0.0034697-0.0014231 0.0058598-0.0019531h-3.5742v-6h12v2.5293h0.46289c0.15399 1e-5 0.28257 0.085914 0.35547 0.20898h0.11719l0.064453 0.26172v-3.0117c-4.1e-5 -0.54666-0.44872-0.98826-0.98828-0.98828zm2.5098 2c-0.84167-7.1e-6 -1.5 0.69516-1.5 1.5 0 0.84139 0.6949 1.4999 1.5 1.5 0.84165 9e-6 1.5-0.69516 1.5-1.5 0-0.84137-0.6949-1.4999-1.5-1.5zm5.5605 2.3066-1.4375 2.1445h0.70508l0.37891-0.34961z" fill="#444" stroke-width="1.002"/>
<g transform="translate(-.00016 1e-5)" fill="#444">
<path d="m10.701 4.5296c-0.15392 5.1e-6 -0.28247 0.086157-0.35539 0.20914l-0.17074-4.6e-6 -0.46733 2.3634-0.54738 0.50602s-1.8987 0.061033-3.3709 0.33578c-1.4722 0.27474-1.7891 0.74373-1.7891 1.0923l0.040026 4.9226 0.098861-6.4e-5c0.19724 0.29634 0.89904 0.51635 1.7427 0.51634 0.84329 1e-6 1.5443-0.22016 1.7418-0.51634l1.2394 1e-6c-0.11999-0.32778-0.18189-0.67315-0.18301-1.0212-4.911e-4 -1.692 1.4042-3.0639 3.1372-3.0638 1.7328 7.54e-5 3.1376 1.3718 3.1372 3.0637-0.0011 0.3481-0.06301 0.69346-0.183 1.0212l0.60214 9e-6c0.31372 0.02905 0.62661-0.33098 0.62661-0.5343v-5.0744c-0.02852-0.31953-1.1208-0.69727-1.3775-0.72629l-0.68626-7e-7 -0.41913-0.52156-0.58169-2.3632-0.11684 1.1e-6c-0.0729-0.12307-0.2014-0.20915-0.35539-0.20916zm9e-3 1.7153 1.7744 8.3e-6 0.25245 0.85716-2.2385-8.9e-6zm-1.8456 7.7167c0.032792 0.08989 0.069861 0.1782 0.11111 0.26471-0.041245-0.08651-0.078314-0.17484-0.11111-0.26471zm5.8742 0.08252c-0.03663 0.09203-0.07781 0.18228-0.12337 0.27043 0.04556-0.08815 0.08673-0.1784 0.12337-0.27043zm-5.7533 0.20423c0.042431 0.08707 0.089055 0.17213 0.13971 0.25491-0.05065-0.08277-0.097274-0.16783-0.13971-0.25491zm5.6231 0.07925c-0.04656 0.08899-0.09754 0.17569-0.15277 0.25981 0.05523-0.08411 0.10621-0.17082 0.15277-0.25981zm-5.4763 0.18709c0.047994 0.0779 0.099513 0.1537 0.15441 0.22712-0.054893-0.07344-0.10641-0.14922-0.15441-0.22712zm0.15441 0.22712c0.00869 0.01176 0.01734 0.02348 0.026144 0.03512-0.00885-0.01158-0.017507-0.02335-0.026144-0.03512zm0.026144 0.03512c0.051234 0.06612 0.10519 0.13017 0.16176 0.192-0.056564-0.06183-0.11052-0.12588-0.16176-0.19199zm0.16176 0.19199c0.014199 0.01621 0.0287 0.03229 0.0433 0.04821-0.014533-0.01592-0.029034-0.032-0.0433-0.04821zm0.0433 0.04821c0.055495 0.058 0.11326 0.11388 0.1732 0.16749-0.059938-0.05363-0.1177-0.10949-0.1732-0.16749zm0.1732 0.16749c0.016972 0.0157 0.034129 0.03122 0.051469 0.04657-0.01734-0.01533-0.034496-0.03087-0.051469-0.04657zm0.051469 0.04657c0.061943 0.05282 0.12599 0.10323 0.19199 0.15114-0.066002-0.04791-0.13005-0.09832-0.19199-0.15114zm0.19199 0.15114c0.017023 0.01301 0.034179 0.02578 0.051469 0.0384-0.01729-0.01266-0.034446-0.02542-0.051469-0.0384zm0.051469 0.0384c0.065284 0.04552 0.13232 0.08857 0.20098 0.12908-0.06866-0.0405-0.1357-0.08356-0.20098-0.12908zm0.20098 0.12908c0.02162 0.01336 0.0434 0.0264 0.06535 0.03921-0.02195-0.01283-0.04373-0.02588-0.06535-0.03921zm0.06535 0.03921c0.06964 0.0386 0.14078 0.07457 0.21324 0.10784-0.07247-0.03327-0.1436-0.06924-0.21324-0.10784zm0.21324 0.10784c0.02193 0.01066 0.04398 0.02096 0.06617 0.03106-0.02219-0.01014-0.04424-0.02046-0.06617-0.03106zm0.06617 0.03106c0.06445 0.02802 0.12985 0.0539 0.19608 0.07762-0.06624-0.02372-0.13164-0.0496-0.19608-0.07762zm0.19608 0.07762c0.03679 0.0138 0.07382 0.02683 0.11111 0.03922-0.03729-0.01243-0.07432-0.02547-0.11111-0.03922zm0.11111 0.03922c0.05536 0.01731 0.11122 0.03312 0.16749 0.04739-0.05626-0.01427-0.11213-0.03008-0.16749-0.04739zm0.16749 0.04739c0.04602 0.01248 0.09233 0.0239 0.13889 0.03431-0.04656-0.01044-0.09286-0.02184-0.13889-0.03431zm0.13889 0.03431c0.05419 0.01124 0.10867 0.02102 0.16339 0.02942-0.05473-0.0084-0.1092-0.01821-0.16339-0.02942zm0.16339 0.02942c0.04885 0.0083 0.09788 0.01529 0.14706 0.02124-0.04918-0.0059-0.09821-0.01303-0.14706-0.02124zm0.14706 0.02124c0.05461 0.0057 0.10937 0.01013 0.16421 0.01307-0.05484-3e-3 -0.1096-0.0074-0.16421-0.01307zm0.16421 0.01307c0.0655 0.0053 0.13117 0.0086 0.19689 0.0098-0.06572-0.0013-0.13139-0.0045-0.19689-0.0098zm0.19689 0.0098c0.08812-8.16e-4 0.17616-0.0051 0.26389-0.01311-0.08774 8e-3 -0.17577 0.01236-0.26389 0.01311zm0.26389-0.01311c0.05162-0.0047 0.1031-0.01072 0.15441-0.01798-0.0513 0.0073-0.10279 0.0132-0.15441 0.01798zm0.15441-0.01798c0.05633-0.0069 0.11244-0.01538 0.1683-0.0253-0.05586 0.0099-0.11198 0.01835-0.1683 0.0253zm0.1683-0.0253c0.03993-8e-3 0.0797-0.0166 0.11928-0.02615-0.03957 0.0094-0.07935 0.01824-0.11928 0.02615zm0.11928-0.02615c0.0634-0.01396 0.12632-0.02968 0.18872-0.04738-0.06239 0.01773-0.12532 0.03349-0.18872 0.04738zm0.18872-0.04738c0.03368-0.01037 0.06717-0.02124 0.10048-0.03269-0.03331 0.01152-0.0668 0.02235-0.10048 0.03269zm0.10048-0.03269c0.06921-0.02218 0.13762-0.04671 0.20507-0.07353-0.06745 0.02682-0.13586 0.05135-0.20507 0.07353zm0.20507-0.07353c0.02272-0.0096 0.04532-0.01937 0.06781-0.02942-0.02249 0.01009-0.04509 0.01987-0.06781 0.02942zm0.06781-0.02942c0.07347-0.03133 0.1457-0.0654 0.2165-0.10212-0.0708 0.03672-0.14303 0.07079-0.2165 0.10212zm0.2165-0.10212c0.02111-0.0115 0.04208-0.02319 0.06291-0.03514-0.02083 0.01198-0.0418 0.02365-0.06291 0.03514zm0.06291-0.03514c0.06966-0.0383 0.13778-0.07918 0.20424-0.12255-0.06645 0.04337-0.13458 0.08425-0.20424 0.12255zm0.20424-0.12255c0.02088-0.01416 0.04158-0.02862 0.06209-0.0433-0.02051 0.01463-0.04121 0.02911-0.06209 0.0433zm0.06209-0.0433c0.0647-0.0445 0.12764-0.09138 0.18872-0.14052-0.06107 0.04916-0.12402 0.09602-0.18872 0.14052zm0.18872-0.14052c0.01759-0.01459 0.03503-0.02923 0.05229-0.04412-0.01726 0.01491-0.0347 0.02961-0.05229 0.04412zm0.05229-0.04412c0.0656-0.05515 0.12883-0.11295 0.18954-0.17321-0.06071 0.06026-0.12394 0.11805-0.18954 0.17321zm0.58331-0.65684c-0.05508 0.08308-0.11425 0.16351-0.17729 0.24101 0.06304-0.07749 0.12222-0.15792 0.17729-0.24101zm-0.18461 0.25166c-0.06106 0.07481-0.12567 0.14679-0.19363 0.21569 0.06796-0.0689 0.13257-0.14087 0.19363-0.21569z" color="#000000" display="block" stroke-width="1.6705"/>
<ellipse transform="skewY(1.1439e-4)" cx="11.816" cy="12.928" rx="2.7523" ry="2.6872" color="#000000" display="block" stroke-width="1.6685"/>
</g>
</svg>
