<svg width="16" height="16" version="1.1" xmlns="http://www.w3.org/2000/svg">
<circle cx="25.042" cy="7" r="0" fill="#fff"/>
<g transform="translate(-18.001)">
<g transform="matrix(1.0802 0 0 1.0253 -2.0846 .23919)" fill="#444">
<ellipse cx="26" cy="13.819" rx="3.7031" ry="1.5529" color="#000000" fill-rule="evenodd"/>
<ellipse cx="26" cy="13.688" rx="3.3415" ry="1.2853" color="#000000"/>
</g>
<ellipse cx="25.975" cy="13.378" rx="3.1798" ry="1.3575" color="#000000" fill="none"/>
<path d="m19.213 0.99805-0.53711 0.003906c-0.45232 0.00329-0.67379 0.25959-0.67383 0.58008v10.58c-0.02353 0.46251 0.36408 0.83594 0.81641 0.83594h14.363c0.45232 0 0.83993-0.37343 0.81641-0.83594l0.001953-10.584c-0.01722-0.33853-0.30358-0.5781-0.67188-0.57812zm-0.21289 1.002h14v9h-14z" color="#000000" fill="#444" fill-rule="evenodd"/>
<path d="m18.848 12.188h14.318" fill="none"/>
<path d="m19.146 1.4171 13.678-0.015642c0.11465-1.311e-4 0.22603 0.098173 0.23525 0.27002l0.55039 10.263c0.02346 0.43739-0.21813 0.73898-0.64596 0.73898h-13.952c-0.42783 0-0.64379-0.30157-0.6207-0.73898l0.53511-10.136c0.01563-0.29621 0.06724-0.3821 0.2201-0.38227z" color="#000000" fill="none"/>
<g transform="translate(18)" fill="#444">
<path d="m10.48 4.69c0.32 0.39 0.52 0.89 0.52 1.43 0 1.25-1.01 2.26-2.26 2.26-0.54 0-1.04-0.2-1.43-0.52 0.28 1.16 1.32 2.02 2.56 2.02 1.45 0 2.63-1.18 2.63-2.63 0-1.24-0.86-2.29-2.02-2.56z"/>
<path d="M 5.5,7.5 5,6 3.5,5.5 5,5 5.5,3.5 6,5 7.5,5.5 6,6 Z"/>
<path d="m13 3.5a0.5 0.5 0 0 1-0.5 0.5 0.5 0.5 0 0 1-0.5-0.5 0.5 0.5 0 0 1 0.5-0.5 0.5 0.5 0 0 1 0.5 0.5z"/>
<path d="M 9,5.5 A 0.5,0.5 0 0 1 8.5,6 0.5,0.5 0 0 1 8,5.5 0.5,0.5 0 0 1 8.5,5 0.5,0.5 0 0 1 9,5.5 Z"/>
<path d="M 5,8.5 A 0.5,0.5 0 0 1 4.5,9 0.5,0.5 0 0 1 4,8.5 0.5,0.5 0 0 1 4.5,8 0.5,0.5 0 0 1 5,8.5 Z"/>
</g>
</g>
</svg>
