<svg width="16" height="16" version="1.1" xmlns="http://www.w3.org/2000/svg">
<g fill="none">
<ellipse cx="24.585" cy="14.98" rx="3.1798" ry="1.3575" color="#000000"/>
<path d="m17.459 13.79h14.318"/>
<path d="m17.756 3.0193 13.678-0.015642c0.11465-1.311e-4 0.22603 0.098173 0.23525 0.27002l0.55039 10.263c0.02346 0.43739-0.21813 0.73898-0.64596 0.73898h-13.952c-0.42783 0-0.64379-0.30157-0.6207-0.73898l0.53511-10.136c0.01563-0.29621 0.06724-0.3821 0.2201-0.38227z" color="#000000"/>
</g>
<circle cx="23.652" cy="8.6022" r="0" fill="#fff"/>
<g transform="translate(-15.999)" fill="#444">
<g transform="matrix(1.0802 0 0 1.0253 -3.4744 .23919)">
<ellipse cx="26" cy="13.819" rx="3.7031" ry="1.5529" color="#000000" fill-rule="evenodd"/>
<ellipse cx="26" cy="13.688" rx="3.3415" ry="1.2853" color="#000000"/>
</g>
<path d="m17.215 1-0.53906 0.00391c-0.45232 0.00329-0.67184 0.25959-0.67188 0.58008v0.41797l0.99805 0.58203v-0.58399h14v8.752l0.42578 0.24805h-15.428v1.1641c-0.02353 0.46251 0.36408 0.83594 0.81641 0.83594h14.365c0.45232 1e-6 0.83993-0.37343 0.81641-0.83594v-10.584c-0.01722-0.33853-0.30162-0.58005-0.66992-0.58008z" color="#000000" fill-rule="evenodd"/>
<path d="m16 3v7h12zm2 3 3 2h-3z"/>
</g>
</svg>
