<svg width="16" height="16" version="1.1" xmlns="http://www.w3.org/2000/svg">
<g transform="matrix(1.2999 0 0 1.2999 22.425 -4.3607)">
<circle cx="-12.212" cy="5.4915" r="1.5" color="#000000" fill="#444"/>
<path d="m-12.557 5.3356 0.8005 5.5922 3.9554-0.85304 0.8005 3.1752 1.1772-0.33174" fill="none" stroke="#444" stroke-width=".82669"/>
<path d="m-13.837 8.3464c-1.0941 0.60821-1.8747 1.7364-1.8747 3.0789 0 1.964 1.5919 3.5662 3.5434 3.5662 1.8493 0 3.3268-1.4539 3.4816-3.2759l-0.85495 0.19697c-0.23461 1.2725-1.2927 2.2496-2.6266 2.2496-1.5056 0-2.7193-1.2216-2.7193-2.7368 0-0.94704 0.5129-1.7378 1.2361-2.2289z" color="#000000" fill="#444"/>
<path d="m-12.153 8.2726 3.7953-0.36965" color="#000000" fill="#444" stroke="#444" stroke-width=".82669"/>
</g>
</svg>
