<svg width="16" height="16" version="1.1" xmlns="http://www.w3.org/2000/svg">
<path d="m2.9316 0-1.9316 2v14h14v-14l-1.9316-2zm0.50976 4h9.1172c0.24497 0 0.44141 0.1645 0.44141 0.36914v3.2617c0 0.20464-0.19644 0.36914-0.44141 0.36914h-2.6719c0.063198-0.025686 0.11328-0.077364 0.11328-0.15234v-1.6465c0-0.097809-0.075786-0.17773-0.16992-0.17773h-3.6602c-0.094136 0-0.16992 0.079926-0.16992 0.17773v1.6465c0 0.07498 0.050083 0.12666 0.11328 0.15234h-2.6719c-0.24497 0-0.44141-0.1645-0.44141-0.36914v-3.2617c0-0.20464 0.19644-0.36914 0.44141-0.36914zm0 6h9.1172c0.24497 0 0.44141 0.1645 0.44141 0.36914v3.2617c0 0.20464-0.19644 0.36914-0.44141 0.36914h-2.6719c0.063198-0.025686 0.11328-0.077364 0.11328-0.15234v-1.6465c0-0.09781-0.07579-0.17773-0.16992-0.17773h-3.6602c-0.094136 0-0.16992 0.079925-0.16992 0.17773v1.6465c0 0.07498 0.050083 0.12666 0.11328 0.15234h-2.6719c-0.24497 0-0.44141-0.1645-0.44141-0.36914v-3.2617c0-0.20464 0.19644-0.36914 0.44141-0.36914z" fill="#444" fill-rule="evenodd"/>
<path d="m20.51 2.0286v13.527h12.981v-13.527l-1.6427-1.5556h-9.6954z" fill="none"/>
</svg>
