<svg width="16" height="16" version="1.1" xmlns="http://www.w3.org/2000/svg">
<g transform="translate(-20)">
<path d="m22.553 6c-2.5706 1.697-2.8907 4.017-2.2988 5.373 0.60293 1.3814 1.6221 1.627 2.8398 1.627h1.9121c-0.0526-1.3486 0.60218-3.0151 2.4746-4.3711a2.9998 3 0 0 1-0.47852-1.5859c-0.1178 0.33986-0.28481 0.69264-0.58594 0.95703 0.07092-0.76177-0.75195-1.3945-0.75195-1.3945l1.5039-0.58594a2.9998 3 0 0 1 0.007812-0.019531h-4.4961l1.5566 0.60547s-0.82287 0.63276-0.75195 1.3945c-0.78112-0.68582-0.80469-2-0.80469-2z" color="#000000" fill="#444" fill-rule="evenodd" stroke-width=".99998"/>
<ellipse cx="23.251" cy="7.0064" rx="3.0195" ry="3.0197" color="#000000" fill="none" opacity=".1962" stroke-width=".99998"/>
<g fill-rule="evenodd">
<path d="m32.067 9.1233c-1.0123 1.2848-1.5907 5.6684-1.5907 5.6684s-0.57934-4.3852-1.8809-5.5944z" color="#000000" fill="#fff" stroke-width="1.0833"/>
<g stroke-width=".99998">
<path d="m28.553 9c-2.5706 1.697-2.8907 4.017-2.2988 5.373 0.60293 1.3814 1.6221 1.627 2.8398 1.627h4.0586c1.15 0 2.2896-0.44102 2.707-1.6973 0.39631-1.1929 0.066694-3.4644-2.5039-5.3027h-0.13477s-0.02357 1.3142-0.80469 2c0.07092-0.76177-0.75195-1.3945-0.75195-1.3945l1.5566-0.60547h-4.5391l1.5566 0.60547s-0.82483 0.63276-0.75391 1.3945c-0.78112-0.68582-0.80273-2-0.80273-2z" color="#000000" fill="#444"/>
<path d="m32.523 9.6523c-0.93441 1.186-1.4683 5.2324-1.4683 5.2324s-0.53478-4.0479-1.7362-5.1641z" color="#000000" fill="#fff"/>
<ellipse cx="30.999" cy="7" rx="2.9998" ry="3" color="#000000" fill="#444"/>
<path d="m25 1a2.9998 3 0 0 0-3 3 2.9998 3 0 0 0 3 3 2.9998 3 0 0 0 2.1406-0.90039 2.9998 3 0 0 1 0.71875-1.1992 2.9998 3 0 0 0 0.14062-0.90039 2.9998 3 0 0 0-3-3z" color="#000000" fill="#444"/>
</g>
</g>
</g>
</svg>
