<svg width="16" height="16" version="1.1" xmlns="http://www.w3.org/2000/svg">
<g transform="translate(-18)">
<path d="m20.322 5c-0.17824 0-0.32227 0.14485-0.32227 0.32422v8.3516c0 0.17937 0.14403 0.32422 0.32227 0.32422h11.355c0.17824 0 0.32227-0.14485 0.32227-0.32422v-8.3516c0-0.17937-0.14403-0.32422-0.32227-0.32422h-1.0371c0.19919 0 0.35938 0.223 0.35938 0.5s-0.16018 0.5-0.35938 0.5h-1.2812c-0.19919 0-0.35938-0.223-0.35938-0.5s0.16018-0.5 0.35938-0.5h-6.7188c0.19919 0 0.35938 0.223 0.35938 0.5s-0.16018 0.5-0.35938 0.5h-1.2812c-0.19919 0-0.35938-0.223-0.35938-0.5s0.16018-0.5 0.35938-0.5zm1.1777 3h2v2h-0.5v3h-1v-3h-0.5zm4 0h1v3h0.5v2h-2v-2h0.5zm3.5 0h1v3h0.5v2h-2v-2h0.5z" color="#000000" fill="#444" fill-rule="evenodd"/>
<rect x="19.983" y="5.0758" width="11.717" height="8.534" rx="0" ry="0" color="#000000" fill="none"/>
<rect x="21.955" y="8.911" width="1.6033" height="1.189" color="#000000" fill="none"/>
<path d="m18.672 2 1.3242 4h1.3633c-0.19919 0-0.35938-0.223-0.35938-0.5s0.16018-0.5 0.35938-0.5h1.2812c0.19919 0 0.35938 0.223 0.35938 0.5s-0.16018 0.5-0.35938 0.5h6.7188c-0.19919 0-0.35938-0.223-0.35938-0.5s0.16018-0.5 0.35938-0.5h1.2812c0.19919 0 0.35938 0.223 0.35938 0.5s-0.16018 0.5-0.35938 0.5h1.3594l1.3359-4z" color="#000000" fill="#444"/>
<rect x="18" y="2" width="16" height="1" color="#000000" fill="#444"/>
</g>
</svg>
