<svg width="16" height="16" version="1.1" xmlns="http://www.w3.org/2000/svg">
<g fill="#444">
<path d="m13.566 1c-0.083978 0.008552-0.16468 0.045495-0.23047 0.11719 0 0-0.67745 0.70891-0.93164 0.97266 0.4225 0.07658 0.75492 0.20325 0.98047 0.35742 0.35954-0.55368 0.58984-0.92383 0.58984-0.92383 0.11168-0.31906-0.15627-0.54909-0.4082-0.52344zm-4.0742 4.1582c-1.1348 1.2084-2.2848 2.4481-3.0918 3.377l1.4102 1.3203c0.31374-0.30895 0.64552-0.67587 0.98633-1.0742l0.13672-2.7969 0.55859-0.82617z" color="#000000"/>
<path d="m3.6817 12.153 0.80352 0.69174 3.0379-2.6352 0.098391-0.25248 0.39148-0.00637c-0.1565-0.55892-1.0522-1.568-1.7229-1.568l0.029339 0.38993-0.23966 0.13594z" color="#000000"/>
<path d="m0 14.982c2.3628 0 4.1559 0.28917 4.4954-1.4775 0.27357-1.4237-1.6313-2.1059-2.5752-0.83488-0.90929 1.2244-1.9202 2.3124-1.9202 2.3124z" color="#000000"/>
</g>
<path d="m6.1467 9.8586-1.897 2.1974" color="#000000" fill="none"/>
<path d="m8.9629 13.764 0.33315-7.6952 0.69856-1.1557c0.69043-0.22565 2.3559-0.22565 2.9795 0l0.74432 0.96507 0.931 8.0969z" color="#000000" fill="none" opacity=".59444" stroke-width="1.0633"/>
<g fill="#444" stroke-width=".98152">
<path d="m12.018 3.0008c-1.0716 0.030703-1.922 0.37147-1.922 0.7824v1.2558c0 0.43113 0.93602 0.7824 2.0822 0.7824 1.1462 0 2.0733-0.35126 2.0733-0.7824v-1.2558c0-0.43113-0.92713-0.7824-2.0733-0.7824-0.05373 0-0.10746-0.0015-0.16016 0z" color="#000000"/>
<ellipse cx="12.2" cy="5.2026" rx="1.6694" ry=".24741" color="#000000"/>
<path d="m9.4954 14.188 0.36692-7.5095 0.87144-1.2887c0.69083-0.22351 2.3573-0.22351 2.9813 0l0.87144 1.0664 0.9173 7.9094z" color="#000000"/>
</g>
<path d="m9.8887 13.859 0.30752-7.1032 0.64482-1.0668c0.63731-0.20829 2.1747-0.20829 2.7502 0l0.68705 0.89082 0.85937 7.474z" color="#000000" fill="none" opacity=".59444" stroke-width=".98152"/>
<rect x="9" y="14" width="7" height=".99995" rx=".30984" ry=".29957" color="#000000" fill="#444" stroke-width=".98152"/>
</svg>
