<svg width="16" height="16" version="1.1" xmlns="http://www.w3.org/2000/svg">
<g transform="matrix(1 0 0 1 -18.002 0)" fill="#444">
<path d="m27.85 0.017578c-0.13479-0.023646-0.27739-0.024813-0.42188 0.0039063l-0.90234 0.17969 2.1387 0.57227c-0.0824-0.39773-0.41094-0.68507-0.81445-0.75586zm-4.5801 0.83203-4.4023 0.875c-0.57793 0.11488-0.95635 0.6359-0.84766 1.168l2.0527 10.055 1.5957-6.0352c-0.10558 0.01958-0.24297 0.045089-0.25195 0.046875 0.14791-0.26356 0.02655-0.81133-0.06055-1.125-0.6152 0.52859-1.5234 0.14226-1.6445-0.48047-0.1245-0.6406 0.30442-1.0512 1.2949-2.4316 0.70094 0.37641 1.1666 0.60787 1.4961 0.82812zm-1.4727 4.8516c0.02413 0.091435 0.07482 0.19048 0.11328 0.29102l0.06641-0.24609c-0.05987-0.013358-0.11726-0.021513-0.17969-0.044922zm-1.4922 8.3828 0.0293 0.14062c0.10869 0.53207 0.66231 0.86878 1.2402 0.75391l0.71289-0.14258-1.3984-0.37305c-0.24304-0.06496-0.43171-0.20874-0.58398-0.37891z" stroke-width="1.0319"/>
<path d="m24.739 1.0077c-0.39084 0.045469-0.72465 0.30709-0.82617 0.69141l-2.8828 10.914c-0.13537 0.51242 0.19442 1.0416 0.74023 1.1875l8.0859 2.1621c0.54581 0.14588 1.0951-0.14969 1.2305-0.66211l2.8828-10.914c0.13537-0.51242-0.19442-1.0436-0.74023-1.1895l-8.0859-2.1602c-0.13645-0.03647-0.27402-0.044453-0.4043-0.029297zm2.0469 5.0723c0.41059 0.045569 0.8322 0.28914 1.1738 0.79492 1.352-0.78841 2.5455 0.5882 2.2617 1.6016-0.25938 0.92641-1.0808 1.1828-3.291 2.3652-1.4322-2.0282-1.9885-2.555-1.6816-3.6543 0.19836-0.71131 0.85279-1.1834 1.5371-1.1074z"/>
</g>
</svg>
