<svg width="16" height="16" version="1.1" xmlns="http://www.w3.org/2000/svg">
<g transform="matrix(.99921 0 0 1 -17.986 0)">
<path d="m23.628 6.4064 8.0142 8.2163c0.31167 0.35619 1.2992 0.63148 1.959 0 0.63718-0.6098 0.48976-1.4693-0.13357-2.0926l-7.7026-8.2608c0.91251-2.5347-0.93436-4.6638-3.317-4.2075l-0.51202 0.4675 1.6029 1.5138 0.08905 1.3357-1.1967 1.0924-1.4302-0.15742-1.4693-1.3802-0.51511 0.50894c-0.23959 2.2879 2.1526 4.3327 4.6113 2.9639z" color="#000000" fill="#444"/>
<g fill="none">
<path d="m23.385 5.8891 7.7879 8.1224c0.24127 0.27574 1.0058 0.48885 1.5166 0 0.49326-0.47207 0.37914-1.1374-0.1034-1.62l-7.4994-7.9575c0.60834-2.6361-0.75385-4.0575-2.7816-4.0068l-0.10955 0.11087 1.4612 1.3125 0.05279 1.696-1.4657 1.3377-1.7205-0.18583-1.2883-1.2132-0.14302 0.17441c-0.12674 2.4207 2.6328 3.5222 4.293 2.2295z" color="#000000" opacity=".42614"/>
<rect transform="rotate(45.738)" x="21.05" y="-14.081" width="9.4367" height=".83362" rx=".35847" ry=".35847" color="#000000" opacity=".17045"/>
<path d="m25.122 9.5981c0.2623-0.22483 5.2822-5.3655 5.2822-5.3655l1.1877-0.10058 1.709-2.2963-1.172-1.0338-2.2211 1.9132 0.06297 1.1562-5.1409 5.3908c-0.19001 0.19001 0.05027 0.54313 0.29211 0.33585z" color="#000000" opacity=".53977"/>
<path d="m23.612 9.8168s-2.9078 2.9604-4.27 3.4623" color="#000000"/>
<path d="m19.608 15.033c0.58452 0.70795 1.8654 0.87651 2.2675-0.1503 0.27631-0.70547 1.352-2.2978 3.3246-4.0732 0.3313-0.29784 0.68225-0.97915 0.38474-1.3467l-0.77004-0.77004c-0.31502-0.35002-1.1906-0.18675-1.5499 0.30316-1.0709 1.4654-3.4405 3.3822-4.0133 3.5712-0.88687 0.29266-0.72068 1.3064-0.22121 1.8358z" color="#000000" opacity=".19886"/>
<path d="m24.483 10.481s-2.9698 2.6837-3.6151 4.4044" color="#000000" opacity=".27841"/>
</g>
<path d="m25.047 9.7835c0.33907-0.28204 4.7337-4.651 4.7337-4.651l1.2415-0.070716 1.9783-2.6566-1.4086-1.4056-2.7519 2.0636-0.01136 1.2338-4.5114 4.566c-0.24594 0.23893 0.41709 1.1806 0.72967 0.92055z" color="#000000" fill="#444" stroke-width=".99496"/>
<path d="m19.217 15.47c0.53327 0.6035 2.0273 0.89413 2.7015-0.2508 0.29398-0.49923 0.87442-1.9007 3.4271-4.13 0.42871-0.37398 0.88712-1.2368 0.50963-1.711l-0.97927-0.9962c-0.4002-0.45219-1.5259-0.25969-1.9927 0.35886-1.3916 1.8501-3.6507 3.3066-4.1587 3.4793-0.97212 0.33036-0.87612 1.7515-0.24136 2.4358z" color="#000000" fill="#444" stroke-width=".99496"/>
</g>
</svg>
