<svg width="16" height="16" version="1.1" xmlns="http://www.w3.org/2000/svg">
<path d="m3 1c-2 0-2 2-2 2v9c0 2 2 2 2 2h10c2 0 2-2 2-2v-9s0-2-2-2h-10zm8.8203 2.2852c0.10046-0.00335 0.18369 0.077227 0.18359 0.17773l-0.005859 5.6289c-4.3e-5 0.0085-6.48e-4 0.016991-0.001953 0.025391-0.04281 0.28077-0.23966 0.53188-0.53125 0.73828-0.29159 0.2064-0.68636 0.37179-1.1641 0.4668-0.53698 0.10682-1.0463 0.10606-1.4531 0.011718-0.40675-0.09434-0.74309-0.28776-0.82422-0.62305-0.08256-0.34058 0.11925-0.76821 0.625-1.0625 0.46561-0.27093 1.2785-0.37266 2.3574-0.25977v-3.5898l-4 0.60742-0.0039063 4.1875c0.01331 0.31048-0.18902 0.59271-0.49414 0.81836s-0.72799 0.40474-1.2363 0.50586c-0.5367 0.10676-1.0405 0.10634-1.4414 0.011719-0.40093-0.094621-0.73015-0.28886-0.81055-0.62109-0.07512-0.31038 0.069236-0.63294 0.34766-0.88281 0.27842-0.24988 0.69705-0.44741 1.2363-0.55469 0.53152-0.10572 0.99955-0.051756 1.4043 0.041016v-4.7246c2.97e-4 -0.089615 0.06729-0.16498 0.15625-0.17578l5.6387-0.72461c0.0058-9.425e-4 0.011689-0.0015932 0.017578-0.0019532z" fill="#444"/>
</svg>
