<svg width="16" height="16" version="1.1" xmlns="http://www.w3.org/2000/svg" xmlns:xlink="http://www.w3.org/1999/xlink">
<defs>
<style id="current-color-scheme" type="text/css">.ColorScheme-Text { color:#444444; } .ColorScheme-Highlight { color:#4285f4; }</style>
<linearGradient id="linearGradient6208" x1="21.617" x2="26.444" y1="4.6076" y2="47.007" gradientTransform="matrix(.33327 0 0 .33032 .16931 .48568)" gradientUnits="userSpaceOnUse">
<stop stop-color="#555753" offset="0"/>
<stop stop-color="#3e3f3c" offset="1"/>
</linearGradient>
</defs>
<path d="m4 3h1v3h-1z" color="#444444" fill="currentColor"/>
<path d="m2.4141 1.0137c-0.31244 0.020645-0.43294 0.33624-0.41211 0.58398v13.576c0.023236 0.35308 0.33345 0.70716 0.79492 0.67188h0.22852c-0.0064794-0.019397-0.025391-0.033491-0.025391-0.054687v-2.5547c0-0.12347 0.11763-0.22266 0.26367-0.22266h9.4727c0.14604 0 0.26367 0.099188 0.26367 0.22266v2.5547c0 0.021196-0.018911 0.03529-0.025391 0.054687h0.4375c0.2978-0.01449 0.59225-0.26497 0.58789-0.75976v-12.416c0-0.2409-0.076977-0.40275-0.25195-0.57617l-0.91602-0.95312c-0.09574-0.09124-0.15481-0.12695-0.41992-0.12695h-9.998zm1.1953 0.98633h7.7812c0.33816 0 0.60938 0.24942 0.60938 0.55859v3.8828c0 0.30917-0.27121 0.55859-0.60938 0.55859h-7.7812c-0.33816 0-0.60938-0.24942-0.60938-0.55859v-3.8828c0-0.30917 0.27121-0.55859 0.60938-0.55859z" color="#000000" fill="url(#linearGradient6208)" fill-rule="evenodd"/>
<path transform="translate(0,1)" d="m4 4v3h8v-3z" color="#000000" fill="none" opacity=".17978" xlink:href="#path4291"/>
<g fill="currentColor">
<path d="m6 3h1v3h-1z" color="#444444"/>
<path d="m8 3h1v3h-1z" color="#444444"/>
<path d="m10 3h1v3h-1z" color="#444444"/>
<path d="m4 3h1v3h-1z" color="#444444"/>
</g>
</svg>
