<svg width="16" height="16" version="1.1" xmlns="http://www.w3.org/2000/svg">
<circle cx="25.042" cy="7" r="0" fill="#fff"/>
<g transform="matrix(1.0802 0 0 1.0253 -20.086 .23919)" fill="#444">
<ellipse cx="26" cy="13.819" rx="3.7031" ry="1.5529" color="#000000" fill-rule="evenodd"/>
<ellipse cx="26" cy="13.688" rx="3.3415" ry="1.2853" color="#000000"/>
</g>
<ellipse cx="7.974" cy="13.378" rx="3.1798" ry="1.3575" color="#000000" fill="none"/>
<path d="m1.212 0.99805-0.53711 0.003906c-0.45232 0.00329-0.67379 0.25959-0.67383 0.58008v10.58c-0.02353 0.46251 0.36408 0.83594 0.81641 0.83594h14.363c0.45232 0 0.83993-0.37343 0.81641-0.83594l2e-3 -10.584c-0.01722-0.33853-0.30358-0.5781-0.67188-0.57812zm-0.21289 1.002h14v9h-14z" color="#000000" fill="#444" fill-rule="evenodd"/>
<path d="m0.847 12.188h14.318" fill="none"/>
<path d="m1.145 1.4171 13.678-0.015642c0.11465-1.311e-4 0.22603 0.098173 0.23525 0.27002l0.55039 10.263c0.02346 0.43739-0.21813 0.73898-0.64596 0.73898h-13.952c-0.42783 0-0.64379-0.30157-0.6207-0.73898l0.53511-10.136c0.01563-0.29621 0.06724-0.3821 0.2201-0.38227z" color="#000000" fill="none"/>
</svg>
