<svg width="22" height="22" version="1" xmlns="http://www.w3.org/2000/svg">
<defs>
<filter id="filter1013" color-interpolation-filters="sRGB">
<feFlood flood-color="rgb(0,0,0)" flood-opacity=".2" result="flood"/>
<feComposite in="flood" in2="SourceGraphic" operator="in" result="composite1"/>
<feGaussianBlur in="composite1" result="blur"/>
<feOffset dx="0" dy="0.5" result="offset"/>
<feComposite in="SourceGraphic" in2="offset" result="fbSourceGraphic"/>
<feColorMatrix in="fbSourceGraphic" result="fbSourceGraphicAlpha" values="0 0 0 -1 0 0 0 0 -1 0 0 0 0 -1 0 0 0 0 1 0"/>
<feFlood flood-color="rgb(255,255,255)" flood-opacity=".10196" in="fbSourceGraphic" result="flood"/>
<feComposite in="flood" in2="fbSourceGraphic" operator="out" result="composite1"/>
<feGaussianBlur in="composite1" result="blur"/>
<feOffset dx="0" dy="0.5" result="offset"/>
<feComposite in="offset" in2="fbSourceGraphic" operator="atop" result="composite2"/>
</filter>
<filter id="filter1037" color-interpolation-filters="sRGB">
<feFlood flood-color="rgb(255,255,255)" flood-opacity=".10196" result="flood"/>
<feComposite in="flood" in2="SourceGraphic" operator="out" result="composite1"/>
<feGaussianBlur in="composite1" result="blur"/>
<feOffset dx="0" dy="0.5" result="offset"/>
<feComposite in="offset" in2="SourceGraphic" operator="atop" result="fbSourceGraphic"/>
<feColorMatrix in="fbSourceGraphic" result="fbSourceGraphicAlpha" values="0 0 0 -1 0 0 0 0 -1 0 0 0 0 -1 0 0 0 0 1 0"/>
<feFlood flood-color="rgb(0,0,0)" flood-opacity=".2" in="fbSourceGraphic" result="flood"/>
<feComposite in="flood" in2="fbSourceGraphic" operator="in" result="composite1"/>
<feGaussianBlur in="composite1" result="blur"/>
<feOffset dx="0" dy="0.5" result="offset"/>
<feComposite in="fbSourceGraphic" in2="offset" result="composite2"/>
</filter>
</defs>
<path d="m2.6848 18.035c-0.21459-0.01106-0.42918-0.23335-0.42918-0.44458v-15.895c0-0.21123 0.21459-0.4114 0.42918-0.40034l13.63 0.47514c0.21459 0.01106 0.42918 0.23335 0.42918 0.44457v6.7338c0 0.24611 0.16268 0.62636 0.5704 0.71116l1.8953 0.31021c0.37921 0.078886 0.53495 0.44762 0.53495 0.65889v7.4984c0 0.21123-0.21459 0.4114-0.42918 0.40034z" fill="#b9b9b9" filter="url(#filter1037)" stroke="#b9b9b9" stroke-linecap="round" stroke-linejoin="round" stroke-width=".51062"/>
<path d="m2.2581 18.915c0.022878 0.5757 0.56917 0.988 1.205 1.0302 5.9958 0.3985 11.023 0.83511 11.023 0.83511 0.12848 0.0363 0.25698-0.0845 0.25698-0.24165v-17.298l-11.353-0.93118c-0.50986-0.05765-0.93698-0.23453-1.1338-0.78z" color="#000000" display="block" fill="#6194cb" filter="url(#filter1013)" stroke="#6194cb" stroke-linejoin="round" stroke-width=".51349"/>
<path d="m8.4998 7.8466c-1.933-0.13517-3.5 1.3223-3.5 3.2553s1.567 3.6096 3.5 3.7447l2.188 0.153s0.41 0.02867 0.437-0.40744c0-0.437-0.437-0.46756-0.437-0.46756l-2.188-0.153c-1.45-0.10139-2.625-1.3586-2.625-2.8086s1.175-2.5428 2.625-2.4414c1.45 0.10139 2.625 1.3586 2.625 2.8086v0.438c0 0.241-0.196 0.42329-0.437 0.40644-0.242-0.01692-0.438-0.22663-0.438-0.46763v-0.438c0-0.966-0.783-1.8048-1.75-1.8724-0.966-0.06755-1.75 0.66163-1.75 1.6276 0 0.967 0.784 1.8048 1.75 1.8724 0.458 0.03203 0.871-0.12009 1.183-0.38528 0.249 0.31341 0.617 0.51114 1.005 0.53828 0.725 0.0507 1.312-0.49626 1.312-1.2213v-0.437c0-1.933-1.567-3.6096-3.5-3.7447zm0 2.625c0.483 0.03378 0.875 0.45319 0.875 0.93619s-0.392 0.84759-0.875 0.81381-0.875-0.45319-0.875-0.93619 0.392-0.84759 0.875-0.81381z" fill="#fff" opacity=".75"/>
</svg>
