<svg width="22" height="22" version="1" xmlns="http://www.w3.org/2000/svg">
<defs>
<filter id="filter881" color-interpolation-filters="sRGB">
<feFlood flood-color="rgb(0,0,0)" flood-opacity=".2" result="flood"/>
<feComposite in="flood" in2="SourceGraphic" operator="in" result="composite1"/>
<feGaussianBlur in="composite1" result="blur"/>
<feOffset dx="0" dy="0.5" result="offset"/>
<feComposite in="SourceGraphic" in2="offset" result="fbSourceGraphic"/>
<feColorMatrix in="fbSourceGraphic" result="fbSourceGraphicAlpha" values="0 0 0 -1 0 0 0 0 -1 0 0 0 0 -1 0 0 0 0 1 0"/>
<feFlood flood-color="rgb(255,255,255)" flood-opacity=".10196" in="fbSourceGraphic" result="flood"/>
<feComposite in="flood" in2="fbSourceGraphic" operator="out" result="composite1"/>
<feGaussianBlur in="composite1" result="blur"/>
<feOffset dx="0" dy="0.5" result="offset"/>
<feComposite in="offset" in2="fbSourceGraphic" operator="atop" result="composite2"/>
</filter>
<filter id="filter905" color-interpolation-filters="sRGB">
<feFlood flood-color="rgb(255,255,255)" flood-opacity=".10196" result="flood"/>
<feComposite in="flood" in2="SourceGraphic" operator="out" result="composite1"/>
<feGaussianBlur in="composite1" result="blur"/>
<feOffset dx="0" dy="0.5" result="offset"/>
<feComposite in="offset" in2="SourceGraphic" operator="atop" result="fbSourceGraphic"/>
<feColorMatrix in="fbSourceGraphic" result="fbSourceGraphicAlpha" values="0 0 0 -1 0 0 0 0 -1 0 0 0 0 -1 0 0 0 0 1 0"/>
<feFlood flood-color="rgb(0,0,0)" flood-opacity=".2" in="fbSourceGraphic" result="flood"/>
<feComposite in="flood" in2="fbSourceGraphic" operator="in" result="composite1"/>
<feGaussianBlur in="composite1" result="blur"/>
<feOffset dx="0" dy="0.5" result="offset"/>
<feComposite in="fbSourceGraphic" in2="offset" result="composite2"/>
</filter>
</defs>
<path d="m2.6838 16.993c-0.21488-0.021337-0.42977-0.25386-0.42977-0.46504v-15.892c0-0.21118 0.21488-0.40103 0.42977-0.37969l13.633 1.3764c0.21488 0.021341 0.42976 0.25386 0.42976 0.46504v6.4938c0 0.30141 0.19398 0.61711 0.4908 0.71605l2.1345 0.56297c0.25925 0.086382 0.37604 0.27926 0.37604 0.67092v7.624c0 0.21118-0.21488 0.40103-0.42976 0.37969z" color="#000000" fill="#b9b9b9" filter="url(#filter905)" stroke="#b9b9b9" stroke-linecap="round" stroke-linejoin="round" stroke-width=".50812"/>
<path d="m2.4641 0.3801c-0.10601 0.051979-0.21202 0.15594-0.21202 0.31189v16.738c0 0.10397 0.063318 0.26189 0.13253 0.35586 0.19628 0.26653 0.307 0.32907 0.48802 0.44863 1.8625 1.2301 9.6634 2.9172 9.6634 2.9172 0.106 0.05198 0.21202-0.05198 0.21202-0.20792v-17.55c0-0.15594-8.0743-0.83213-9.669-2.4437l-0.61543-0.62221z" color="#000000" display="block" fill="#6194cb" filter="url(#filter881)" stroke="#6194cb" stroke-linejoin="round" stroke-width=".50401"/>
<path d="m5.2303 6.6999c-0.031528-9e-3 -0.061792-0.01008-0.089285-0.0022-0.082478 0.02395-0.14091 0.11971-0.14091 0.24894v5.1934a0.51813 0.34502 76.192 0 1 0.26228-0.4136 0.51813 0.34502 76.192 0 1 0.094863 0.0098 0.51813 0.34502 76.192 0 1 0.35714 0.59583 0.51813 0.34502 76.192 0 1-0.35714 0.40417 0.51813 0.34502 76.192 0 1-0.35714-0.59583v2.1602c0 0.17229 0.10407 0.34356 0.23019 0.38l2.1973 0.63538a0.51813 0.34502 76.192 0 1-0.2846-0.56541 0.51813 0.34502 76.192 0 1 0.26228-0.4136 0.51813 0.34502 76.192 0 1 0.094864 0.0098 0.51813 0.34502 76.192 0 1 0.35714 0.59583 0.51813 0.34502 76.192 0 1-0.29018 0.41347l2.2028 0.63699c0.12613 0.03641 0.23019-0.07465 0.23019-0.24696v-2.1934a0.51813 0.34502 76.192 0 1-0.35714 0.40417 0.51813 0.34502 76.192 0 1-0.35714-0.59583 0.51813 0.34502 76.192 0 1 0.26228-0.4136 0.51813 0.34502 76.192 0 1 0.094863 0.0098 0.51813 0.34502 76.192 0 1 0.35714 0.59583v-5.1602c0-0.1723-0.10407-0.34356-0.23019-0.38zm2.3368 8.6556-0.13811-0.03932a0.51813 0.34502 76.192 0 0 0.071149 0.03001 0.51813 0.34502 76.192 0 0 0.066964 0.0095zm-0.066964-7.0093a0.51813 0.34502 76.192 0 1 0.35714 0.59583 0.51813 0.34502 76.192 0 1-0.35714 0.40417 0.51813 0.34502 76.192 0 1-0.35714-0.59583 0.51813 0.34502 76.192 0 1 0.26228-0.4136 0.51813 0.34502 76.192 0 1 0.094863 0.0098zm-1.4286 1.5932a0.51813 0.34502 76.192 0 1 0.35714 0.59583 0.51813 0.34502 76.192 0 1-0.35714 0.40417 0.51813 0.34502 76.192 0 1-0.35714-0.59583 0.51813 0.34502 76.192 0 1 0.26228-0.41359 0.51813 0.34502 76.192 0 1 0.094863 0.0098zm1.4286 0.40676a0.51813 0.34502 76.192 0 1 0.35714 0.59583 0.51813 0.34502 76.192 0 1-0.35714 0.40417 0.51813 0.34502 76.192 0 1-0.35714-0.59583 0.51813 0.34502 76.192 0 1 0.26228-0.4136 0.51813 0.34502 76.192 0 1 0.094863 0.0098zm1.4286 0.40676a0.51813 0.34502 76.192 0 1 0.35714 0.59582 0.51813 0.34502 76.192 0 1-0.35714 0.40418 0.51813 0.34502 76.192 0 1-0.35714-0.59583 0.51813 0.34502 76.192 0 1 0.26228-0.4136 0.51813 0.34502 76.192 0 1 0.094864 0.0098zm-1.4286 1.5932a0.51813 0.34502 76.192 0 1 0.35714 0.59583 0.51813 0.34502 76.192 0 1-0.35714 0.40417 0.51813 0.34502 76.192 0 1-0.35714-0.59583 0.51813 0.34502 76.192 0 1 0.26228-0.4136 0.51813 0.34502 76.192 0 1 0.094863 0.0098z" color="#000000" color-rendering="auto" display="block" dominant-baseline="auto" fill="#fff" image-rendering="auto" opacity=".75" shape-rendering="auto" solid-color="#000000" stroke-width=".487" style="font-feature-settings:normal;font-variant-alternates:normal;font-variant-caps:normal;font-variant-ligatures:normal;font-variant-numeric:normal;font-variant-position:normal;isolation:auto;mix-blend-mode:normal;shape-padding:0;text-decoration-color:#000000;text-decoration-line:none;text-decoration-style:solid;text-indent:0;text-orientation:mixed;text-transform:none;white-space:normal"/>
</svg>
