<svg width="22" height="22" version="1" xmlns="http://www.w3.org/2000/svg">
<defs>
<filter id="filter1013" color-interpolation-filters="sRGB">
<feFlood flood-color="rgb(0,0,0)" flood-opacity=".2" result="flood"/>
<feComposite in="flood" in2="SourceGraphic" operator="in" result="composite1"/>
<feGaussianBlur in="composite1" result="blur"/>
<feOffset dx="0" dy="0.5" result="offset"/>
<feComposite in="SourceGraphic" in2="offset" result="fbSourceGraphic"/>
<feColorMatrix in="fbSourceGraphic" result="fbSourceGraphicAlpha" values="0 0 0 -1 0 0 0 0 -1 0 0 0 0 -1 0 0 0 0 1 0"/>
<feFlood flood-color="rgb(255,255,255)" flood-opacity=".10196" in="fbSourceGraphic" result="flood"/>
<feComposite in="flood" in2="fbSourceGraphic" operator="out" result="composite1"/>
<feGaussianBlur in="composite1" result="blur"/>
<feOffset dx="0" dy="0.5" result="offset"/>
<feComposite in="offset" in2="fbSourceGraphic" operator="atop" result="composite2"/>
</filter>
<filter id="filter1037" color-interpolation-filters="sRGB">
<feFlood flood-color="rgb(255,255,255)" flood-opacity=".10196" result="flood"/>
<feComposite in="flood" in2="SourceGraphic" operator="out" result="composite1"/>
<feGaussianBlur in="composite1" result="blur"/>
<feOffset dx="0" dy="0.5" result="offset"/>
<feComposite in="offset" in2="SourceGraphic" operator="atop" result="fbSourceGraphic"/>
<feColorMatrix in="fbSourceGraphic" result="fbSourceGraphicAlpha" values="0 0 0 -1 0 0 0 0 -1 0 0 0 0 -1 0 0 0 0 1 0"/>
<feFlood flood-color="rgb(0,0,0)" flood-opacity=".2" in="fbSourceGraphic" result="flood"/>
<feComposite in="flood" in2="fbSourceGraphic" operator="in" result="composite1"/>
<feGaussianBlur in="composite1" result="blur"/>
<feOffset dx="0" dy="0.5" result="offset"/>
<feComposite in="fbSourceGraphic" in2="offset" result="composite2"/>
</filter>
</defs>
<path d="m2.6848 18.035c-0.21459-0.01106-0.42918-0.23335-0.42918-0.44458v-15.895c0-0.21123 0.21459-0.4114 0.42918-0.40034l13.63 0.47514c0.21459 0.01106 0.42918 0.23335 0.42918 0.44457v6.7338c0 0.24611 0.16268 0.62636 0.5704 0.71116l1.8953 0.31021c0.37921 0.078886 0.53495 0.44762 0.53495 0.65889v7.4984c0 0.21123-0.21459 0.4114-0.42918 0.40034z" fill="#b9b9b9" filter="url(#filter1037)" stroke="#b9b9b9" stroke-linecap="round" stroke-linejoin="round" stroke-width=".51062"/>
<path d="m2.2581 18.915c0.022878 0.5757 0.56917 0.988 1.205 1.0302 5.9958 0.3985 11.023 0.83511 11.023 0.83511 0.12848 0.0363 0.25698-0.0845 0.25698-0.24165v-17.298l-11.353-0.93118c-0.50986-0.05765-0.93698-0.23453-1.1338-0.78z" color="#000000" display="block" fill="#6194cb" filter="url(#filter1013)" stroke="#6194cb" stroke-linejoin="round" stroke-width=".51349"/>
<path d="m3.9999 11.95 1.9611 1.1321c-0.020958 0.10221-0.031886 0.20635-0.032658 0.31114 0 0.88777 0.71955 1.6072 1.6072 1.6072 0.88777 0 1.6072-0.71936 1.6072-1.6072-6.426e-4 -0.0675-0.00515-0.135-0.014146-0.20185l1.6701-1.4265c0.09 0.0135 0.18129 0.02057 0.27257 0.02121 1.0652 0 1.9285-0.86336 1.9285-1.9285 0-1.0652-0.86336-1.9285-1.9285-1.9285-1.0067 2.56e-4 -1.8437 0.77464-1.9221 1.7781l-1.3487 2.1015c-0.087428-0.01478-0.17614-0.0225-0.26486-0.0225-0.29507 6.42e-4 -0.58461 0.08293-0.8363 0.23721l-2.6994-1.5583m7.0714-1.8932c0.71036 0 1.2857 0.57536 1.2857 1.2857 0 0.71036-0.57536 1.2857-1.2857 1.2857-0.71036 0-1.2857-0.57536-1.2857-1.2857 0-0.71036 0.57536-1.2857 1.2857-1.2857zm0 0.64286c-0.35486 0-0.64285 0.288-0.64285 0.64285 0 0.35486 0.288 0.64286 0.64285 0.64286 0.35486 0 0.64285-0.288 0.64285-0.64286s-0.288-0.64285-0.64285-0.64285zm-3.5607 3.2143h0.025072c0.53229 0 0.96427 0.432 0.96427 0.96427s-0.432 0.96427-0.96427 0.96427c-0.51596 0-0.94041-0.40629-0.9631-0.92185l0.32021 0.18514c0.31853 0.18386 0.71814 0.08357 0.89619-0.225s0.064928-0.70522-0.25328-0.8891l-0.12086-0.06879c0.0315-0.0045 0.063643-0.0077 0.095788-9e-3z" fill="#fff" opacity=".75" stroke-width=".64286"/>
</svg>
