<svg width="22" height="22" version="1" xmlns="http://www.w3.org/2000/svg">
<defs>
<filter id="filter1013" color-interpolation-filters="sRGB">
<feFlood flood-color="rgb(0,0,0)" flood-opacity=".2" result="flood"/>
<feComposite in="flood" in2="SourceGraphic" operator="in" result="composite1"/>
<feGaussianBlur in="composite1" result="blur"/>
<feOffset dx="0" dy="0.5" result="offset"/>
<feComposite in="SourceGraphic" in2="offset" result="fbSourceGraphic"/>
<feColorMatrix in="fbSourceGraphic" result="fbSourceGraphicAlpha" values="0 0 0 -1 0 0 0 0 -1 0 0 0 0 -1 0 0 0 0 1 0"/>
<feFlood flood-color="rgb(255,255,255)" flood-opacity=".10196" in="fbSourceGraphic" result="flood"/>
<feComposite in="flood" in2="fbSourceGraphic" operator="out" result="composite1"/>
<feGaussianBlur in="composite1" result="blur"/>
<feOffset dx="0" dy="0.5" result="offset"/>
<feComposite in="offset" in2="fbSourceGraphic" operator="atop" result="composite2"/>
</filter>
<filter id="filter1037" color-interpolation-filters="sRGB">
<feFlood flood-color="rgb(255,255,255)" flood-opacity=".10196" result="flood"/>
<feComposite in="flood" in2="SourceGraphic" operator="out" result="composite1"/>
<feGaussianBlur in="composite1" result="blur"/>
<feOffset dx="0" dy="0.5" result="offset"/>
<feComposite in="offset" in2="SourceGraphic" operator="atop" result="fbSourceGraphic"/>
<feColorMatrix in="fbSourceGraphic" result="fbSourceGraphicAlpha" values="0 0 0 -1 0 0 0 0 -1 0 0 0 0 -1 0 0 0 0 1 0"/>
<feFlood flood-color="rgb(0,0,0)" flood-opacity=".2" in="fbSourceGraphic" result="flood"/>
<feComposite in="flood" in2="fbSourceGraphic" operator="in" result="composite1"/>
<feGaussianBlur in="composite1" result="blur"/>
<feOffset dx="0" dy="0.5" result="offset"/>
<feComposite in="fbSourceGraphic" in2="offset" result="composite2"/>
</filter>
</defs>
<path d="m2.6848 18.035c-0.21459-0.01106-0.42918-0.23335-0.42918-0.44458v-15.895c0-0.21123 0.21459-0.4114 0.42918-0.40034l13.63 0.47514c0.21459 0.01106 0.42918 0.23335 0.42918 0.44457v6.7338c0 0.24611 0.16268 0.62636 0.5704 0.71116l1.8953 0.31021c0.37921 0.078886 0.53495 0.44762 0.53495 0.65889v7.4984c0 0.21123-0.21459 0.4114-0.42918 0.40034z" fill="#b9b9b9" filter="url(#filter1037)" stroke="#b9b9b9" stroke-linecap="round" stroke-linejoin="round" stroke-width=".51062"/>
<path d="m2.2581 18.915c0.022878 0.5757 0.56917 0.988 1.205 1.0302 5.9958 0.3985 11.023 0.83511 11.023 0.83511 0.12848 0.0363 0.25698-0.0845 0.25698-0.24165v-17.298l-11.353-0.93118c-0.50986-0.05765-0.93698-0.23453-1.1338-0.78z" color="#000000" display="block" fill="#6194cb" filter="url(#filter1013)" stroke="#6194cb" stroke-linejoin="round" stroke-width=".51349"/>
<path d="m8.8787 12.938a0.38853 0.36229 46 0 1-0.37519 0.34894 0.38853 0.36229 46 0 1-0.37519-0.40142 0.38853 0.36229 46 0 1 0.37519-0.34894 0.38853 0.36229 46 0 1 0.37519 0.40142zm-0.84313-3.2801c-0.020848-0.00148-0.038204 0.025758-0.038204 0.059859l0.17341 2.364c0 0.0341 0.017375 0.06375 0.038204 0.06521 0 0 0.13695 0.01144 0.24984 0.01747 0.037191 0.0021 0.048564 0.0068 0.082292 0.0058 0.11289 0.0097 0.24984 0.01747 0.24984 0.01747 0.020848 0.0015 0.038204-0.02576 0.038204-0.05987l0.17342-2.3397c0-0.034101-0.017366-0.058924-0.038204-0.060381l-0.4203-0.029428c-0.00148-4.23e-4 -0.00138-0.00492-0.00295-0.00502zm3.9644 2.0784a3.6245 3.3798 46.002 0 1-3.5 3.2553 3.6245 3.3798 46.002 0 1-3.5-3.7447 3.6245 3.3798 46.002 0 1 3.5-3.2553 3.6245 3.3798 46.002 0 1 3.5 3.7447z" fill="#fff" fill-rule="evenodd" opacity=".75" stroke-width=".27849"/>
</svg>
