<svg width="22" height="22" version="1" xmlns="http://www.w3.org/2000/svg">
<defs>
<filter id="filter881" color-interpolation-filters="sRGB">
<feFlood flood-color="rgb(0,0,0)" flood-opacity=".2" result="flood"/>
<feComposite in="flood" in2="SourceGraphic" operator="in" result="composite1"/>
<feGaussianBlur in="composite1" result="blur"/>
<feOffset dx="0" dy="0.5" result="offset"/>
<feComposite in="SourceGraphic" in2="offset" result="fbSourceGraphic"/>
<feColorMatrix in="fbSourceGraphic" result="fbSourceGraphicAlpha" values="0 0 0 -1 0 0 0 0 -1 0 0 0 0 -1 0 0 0 0 1 0"/>
<feFlood flood-color="rgb(255,255,255)" flood-opacity=".10196" in="fbSourceGraphic" result="flood"/>
<feComposite in="flood" in2="fbSourceGraphic" operator="out" result="composite1"/>
<feGaussianBlur in="composite1" result="blur"/>
<feOffset dx="0" dy="0.5" result="offset"/>
<feComposite in="offset" in2="fbSourceGraphic" operator="atop" result="composite2"/>
</filter>
<filter id="filter905" color-interpolation-filters="sRGB">
<feFlood flood-color="rgb(255,255,255)" flood-opacity=".10196" result="flood"/>
<feComposite in="flood" in2="SourceGraphic" operator="out" result="composite1"/>
<feGaussianBlur in="composite1" result="blur"/>
<feOffset dx="0" dy="0.5" result="offset"/>
<feComposite in="offset" in2="SourceGraphic" operator="atop" result="fbSourceGraphic"/>
<feColorMatrix in="fbSourceGraphic" result="fbSourceGraphicAlpha" values="0 0 0 -1 0 0 0 0 -1 0 0 0 0 -1 0 0 0 0 1 0"/>
<feFlood flood-color="rgb(0,0,0)" flood-opacity=".2" in="fbSourceGraphic" result="flood"/>
<feComposite in="flood" in2="fbSourceGraphic" operator="in" result="composite1"/>
<feGaussianBlur in="composite1" result="blur"/>
<feOffset dx="0" dy="0.5" result="offset"/>
<feComposite in="fbSourceGraphic" in2="offset" result="composite2"/>
</filter>
</defs>
<g stroke-linejoin="round">
<path d="m2.6838 16.993c-0.21488-0.021337-0.42977-0.25386-0.42977-0.46504v-15.892c0-0.21118 0.21488-0.40103 0.42977-0.37969l13.633 1.3764c0.21488 0.021341 0.42976 0.25386 0.42976 0.46504v6.4938c0 0.30141 0.19398 0.61711 0.4908 0.71605l2.1345 0.56297c0.25925 0.086382 0.37604 0.27926 0.37604 0.67092v7.624c0 0.21118-0.21488 0.40103-0.42976 0.37969z" color="#000000" fill="#b9b9b9" filter="url(#filter905)" stroke="#b9b9b9" stroke-linecap="round" stroke-width=".50812"/>
<path d="m2.4641 0.3801c-0.10601 0.051979-0.21202 0.15594-0.21202 0.31189v16.738c0 0.10397 0.063318 0.26189 0.13253 0.35586 0.19628 0.26653 0.307 0.32907 0.48802 0.44863 1.8625 1.2301 9.6634 2.9172 9.6634 2.9172 0.106 0.05198 0.21202-0.05198 0.21202-0.20792v-17.55c0-0.15594-8.0743-0.83213-9.669-2.4437l-0.61543-0.62221z" color="#000000" display="block" fill="#6194cb" filter="url(#filter881)" stroke="#6194cb" stroke-width=".50401"/>
<path d="m9.8409 8.3127-4.3604-0.70336v5.0752c-0.3016-0.23364-0.57155-0.37662-1.0306-0.40928-0.79821-0.05678-1.3702 0.31896-1.2826 0.83217 0.087571 0.51328 0.80509 0.97913 1.6034 1.0359 0.75431 0.05368 1.2193-0.28519 1.2044-0.75456l0.00251-4.5027 3.37 0.42323v4.0904c-1.8782-0.98805-2.3403-0.11284-2.2527 0.40045 0.087571 0.51328 0.80509 0.97913 1.6034 1.0359 0.70829 0.0504 1.0068-0.29241 1.057-0.71603z" color="#000000" display="block" fill="#fff" opacity=".75" stroke="#fff" stroke-linecap="round" stroke-width=".31823"/>
</g>
</svg>
