<svg width="22" height="22" version="1" xmlns="http://www.w3.org/2000/svg">
<defs>
<filter id="filter1013" color-interpolation-filters="sRGB">
<feFlood flood-color="rgb(0,0,0)" flood-opacity=".2" result="flood"/>
<feComposite in="flood" in2="SourceGraphic" operator="in" result="composite1"/>
<feGaussianBlur in="composite1" result="blur"/>
<feOffset dx="0" dy="0.5" result="offset"/>
<feComposite in="SourceGraphic" in2="offset" result="fbSourceGraphic"/>
<feColorMatrix in="fbSourceGraphic" result="fbSourceGraphicAlpha" values="0 0 0 -1 0 0 0 0 -1 0 0 0 0 -1 0 0 0 0 1 0"/>
<feFlood flood-color="rgb(255,255,255)" flood-opacity=".10196" in="fbSourceGraphic" result="flood"/>
<feComposite in="flood" in2="fbSourceGraphic" operator="out" result="composite1"/>
<feGaussianBlur in="composite1" result="blur"/>
<feOffset dx="0" dy="0.5" result="offset"/>
<feComposite in="offset" in2="fbSourceGraphic" operator="atop" result="composite2"/>
</filter>
<filter id="filter1037" color-interpolation-filters="sRGB">
<feFlood flood-color="rgb(255,255,255)" flood-opacity=".10196" result="flood"/>
<feComposite in="flood" in2="SourceGraphic" operator="out" result="composite1"/>
<feGaussianBlur in="composite1" result="blur"/>
<feOffset dx="0" dy="0.5" result="offset"/>
<feComposite in="offset" in2="SourceGraphic" operator="atop" result="fbSourceGraphic"/>
<feColorMatrix in="fbSourceGraphic" result="fbSourceGraphicAlpha" values="0 0 0 -1 0 0 0 0 -1 0 0 0 0 -1 0 0 0 0 1 0"/>
<feFlood flood-color="rgb(0,0,0)" flood-opacity=".2" in="fbSourceGraphic" result="flood"/>
<feComposite in="flood" in2="fbSourceGraphic" operator="in" result="composite1"/>
<feGaussianBlur in="composite1" result="blur"/>
<feOffset dx="0" dy="0.5" result="offset"/>
<feComposite in="fbSourceGraphic" in2="offset" result="composite2"/>
</filter>
</defs>
<path d="m2.6848 18.035c-0.21459-0.01106-0.42918-0.23335-0.42918-0.44458v-15.895c0-0.21123 0.21459-0.4114 0.42918-0.40034l13.63 0.47514c0.21459 0.01106 0.42918 0.23335 0.42918 0.44457v6.7338c0 0.24611 0.16268 0.62636 0.5704 0.71116l1.8953 0.31021c0.37921 0.078886 0.53495 0.44762 0.53495 0.65889v7.4984c0 0.21123-0.21459 0.4114-0.42918 0.40034z" fill="#b9b9b9" filter="url(#filter1037)" stroke="#b9b9b9" stroke-linecap="round" stroke-linejoin="round" stroke-width=".51062"/>
<path d="m2.2581 18.915c0.022878 0.5757 0.56917 0.988 1.205 1.0302 5.9958 0.3985 11.023 0.83511 11.023 0.83511 0.12848 0.0363 0.25698-0.0845 0.25698-0.24165v-17.298l-11.353-0.93118c-0.50986-0.05765-0.93698-0.23453-1.1338-0.78z" color="#000000" display="block" fill="#6194cb" filter="url(#filter1013)" stroke="#6194cb" stroke-linejoin="round" stroke-width=".51349"/>
<path d="m7.5858 7.8312s0.413 0.26188 0.122 0.85253c-0.441 0.89016 0.406 1.1604 0.406 1.1604s-0.269-0.23581 0.09-0.97071c0.396-0.81431-0.618-1.0422-0.618-1.0422zm1.6 1.0319s-0.821 0.25759-0.292 1.1556c0.35 0.59448-0.038 0.85034-0.038 0.85034s0.992-0.21163 0.514-1.0331c-0.431-0.74214-0.184-0.97287-0.184-0.97287zm-2.365-0.14238s-0.718 0.49779-6e-3 1.2206c0.47 0.48087 0.162 0.84733 0.162 0.84733s0.891-0.5037 0.247-1.1687c-0.582-0.5987-0.403-0.89818-0.403-0.89818zm0.156 2.0679-1.977-0.13824 1 4.0699 4 0.27971 0.138-0.53935c0.116 0.03711 0.237 0.06557 0.362 0.07431 0.828 0.0579 1.5-0.56711 1.5-1.3951 0-0.703-0.485-1.3229-1.138-1.5306l0.138-0.53935-4.024-0.28138zm3.765 1.2943c6e-3 0.0014 0.011 0.0028 0.017 0.0042 0.267 0.08967 0.367 0.58766 0.224 1.1117-0.14 0.51021-0.46 0.85883-0.725 0.7883z" fill="#fff" opacity=".75"/>
</svg>
