<svg width="22" height="22" version="1" xmlns="http://www.w3.org/2000/svg">
<defs>
<filter id="filter1013" color-interpolation-filters="sRGB">
<feFlood flood-color="rgb(0,0,0)" flood-opacity=".2" result="flood"/>
<feComposite in="flood" in2="SourceGraphic" operator="in" result="composite1"/>
<feGaussianBlur in="composite1" result="blur"/>
<feOffset dx="0" dy="0.5" result="offset"/>
<feComposite in="SourceGraphic" in2="offset" result="fbSourceGraphic"/>
<feColorMatrix in="fbSourceGraphic" result="fbSourceGraphicAlpha" values="0 0 0 -1 0 0 0 0 -1 0 0 0 0 -1 0 0 0 0 1 0"/>
<feFlood flood-color="rgb(255,255,255)" flood-opacity=".10196" in="fbSourceGraphic" result="flood"/>
<feComposite in="flood" in2="fbSourceGraphic" operator="out" result="composite1"/>
<feGaussianBlur in="composite1" result="blur"/>
<feOffset dx="0" dy="0.5" result="offset"/>
<feComposite in="offset" in2="fbSourceGraphic" operator="atop" result="composite2"/>
</filter>
<filter id="filter1037" color-interpolation-filters="sRGB">
<feFlood flood-color="rgb(255,255,255)" flood-opacity=".10196" result="flood"/>
<feComposite in="flood" in2="SourceGraphic" operator="out" result="composite1"/>
<feGaussianBlur in="composite1" result="blur"/>
<feOffset dx="0" dy="0.5" result="offset"/>
<feComposite in="offset" in2="SourceGraphic" operator="atop" result="fbSourceGraphic"/>
<feColorMatrix in="fbSourceGraphic" result="fbSourceGraphicAlpha" values="0 0 0 -1 0 0 0 0 -1 0 0 0 0 -1 0 0 0 0 1 0"/>
<feFlood flood-color="rgb(0,0,0)" flood-opacity=".2" in="fbSourceGraphic" result="flood"/>
<feComposite in="flood" in2="fbSourceGraphic" operator="in" result="composite1"/>
<feGaussianBlur in="composite1" result="blur"/>
<feOffset dx="0" dy="0.5" result="offset"/>
<feComposite in="fbSourceGraphic" in2="offset" result="composite2"/>
</filter>
</defs>
<path d="m2.6848 18.035c-0.21459-0.01106-0.42918-0.23335-0.42918-0.44458v-15.895c0-0.21123 0.21459-0.4114 0.42918-0.40034l13.638 0.47514c0.21459 0.01106 0.42918 0.23335 0.42918 0.44457v6.7338c0 0.24611 0.16268 0.62636 0.5704 0.71116l1.8874 0.31021c0.37921 0.078886 0.53495 0.44762 0.53495 0.65889v7.4984c0 0.21123-0.21459 0.4114-0.42918 0.40034z" fill="#b9b9b9" filter="url(#filter1037)" stroke="#b9b9b9" stroke-linecap="round" stroke-linejoin="round" stroke-width=".51062"/>
<path d="m2.2581 18.915c0.022878 0.5757 0.56917 0.988 1.205 1.0302 5.9958 0.3985 11.023 0.83511 11.023 0.83511 0.12848 0.0363 0.25698-0.0845 0.25698-0.24165v-17.298l-11.353-0.93118c-0.50986-0.05765-0.93698-0.23453-1.1338-0.78z" color="#000000" display="block" fill="#6194cb" filter="url(#filter1013)" stroke="#6194cb" stroke-linejoin="round" stroke-width=".51349"/>
<path d="m8.1992 8.3704a3.1462 2.9257 54.992 0 0-2.8387 1.8862 2.517 2.3405 54.995 0 0-1.3608 2.1155 2.517 2.3405 54.995 0 0 2.3995 2.6225 2.517 2.3405 54.995 0 0 1.5953-0.51283 3.1462 2.9257 54.992 0 0 0.20475 0.02557 3.1462 2.9257 54.992 0 0 1.2679-0.20384 2.517 2.3405 54.995 0 0 1.1329 0.37173 2.517 2.3405 54.995 0 0 2.3997-2.2869 2.517 2.3405 54.995 0 0-2.4008-2.6226 2.517 2.3405 54.995 0 0-0.0045-3.138e-4 3.1462 2.9257 54.992 0 0-2.3952-1.3949z" fill="#fff" opacity=".75" stroke-width="1.125"/>
</svg>
