<svg width="22" height="22" version="1" xmlns="http://www.w3.org/2000/svg">
<defs>
<filter id="filter1013" color-interpolation-filters="sRGB">
<feFlood flood-color="rgb(0,0,0)" flood-opacity=".2" result="flood"/>
<feComposite in="flood" in2="SourceGraphic" operator="in" result="composite1"/>
<feGaussianBlur in="composite1" result="blur"/>
<feOffset dx="0" dy="0.5" result="offset"/>
<feComposite in="SourceGraphic" in2="offset" result="fbSourceGraphic"/>
<feColorMatrix in="fbSourceGraphic" result="fbSourceGraphicAlpha" values="0 0 0 -1 0 0 0 0 -1 0 0 0 0 -1 0 0 0 0 1 0"/>
<feFlood flood-color="rgb(255,255,255)" flood-opacity=".10196" in="fbSourceGraphic" result="flood"/>
<feComposite in="flood" in2="fbSourceGraphic" operator="out" result="composite1"/>
<feGaussianBlur in="composite1" result="blur"/>
<feOffset dx="0" dy="0.5" result="offset"/>
<feComposite in="offset" in2="fbSourceGraphic" operator="atop" result="composite2"/>
</filter>
<filter id="filter1037" color-interpolation-filters="sRGB">
<feFlood flood-color="rgb(255,255,255)" flood-opacity=".10196" result="flood"/>
<feComposite in="flood" in2="SourceGraphic" operator="out" result="composite1"/>
<feGaussianBlur in="composite1" result="blur"/>
<feOffset dx="0" dy="0.5" result="offset"/>
<feComposite in="offset" in2="SourceGraphic" operator="atop" result="fbSourceGraphic"/>
<feColorMatrix in="fbSourceGraphic" result="fbSourceGraphicAlpha" values="0 0 0 -1 0 0 0 0 -1 0 0 0 0 -1 0 0 0 0 1 0"/>
<feFlood flood-color="rgb(0,0,0)" flood-opacity=".2" in="fbSourceGraphic" result="flood"/>
<feComposite in="flood" in2="fbSourceGraphic" operator="in" result="composite1"/>
<feGaussianBlur in="composite1" result="blur"/>
<feOffset dx="0" dy="0.5" result="offset"/>
<feComposite in="fbSourceGraphic" in2="offset" result="composite2"/>
</filter>
</defs>
<path d="m2.6848 18.035c-0.21459-0.01106-0.42918-0.23335-0.42918-0.44458v-15.895c0-0.21123 0.21459-0.4114 0.42918-0.40034l13.63 0.47514c0.21459 0.01106 0.42918 0.23335 0.42918 0.44457v6.7338c0 0.24611 0.16268 0.62636 0.5704 0.71116l1.8953 0.31021c0.37921 0.078886 0.53495 0.44762 0.53495 0.65889v7.4984c0 0.21123-0.21459 0.4114-0.42918 0.40034z" fill="#b9b9b9" filter="url(#filter1037)" stroke="#b9b9b9" stroke-linecap="round" stroke-linejoin="round" stroke-width=".51062"/>
<path d="m2.2581 18.915c0.022878 0.5757 0.56917 0.988 1.205 1.0302 5.9958 0.3985 11.023 0.83511 11.023 0.83511 0.12848 0.0363 0.25698-0.0845 0.25698-0.24165v-17.298l-11.353-0.93118c-0.50986-0.05765-0.93698-0.23453-1.1338-0.78z" color="#000000" display="block" fill="#6194cb" filter="url(#filter1013)" stroke="#6194cb" stroke-linejoin="round" stroke-width=".51349"/>
<path d="m9.2007 8.649c-0.70174-0.049069-1.3449 0.35133-1.6634 1.0317-0.13912-0.073604-0.287-0.11895-0.43749-0.12946-0.58309-0.040774-1.0775 0.41201-1.155 1.0576-0.56559 0.1792-0.94411 0.7486-0.94508 1.4205 0 0.86974 0.62649 1.6197 1.3996 1.6738l4.2004 0.29372c0.77349 0.05408 1.4-0.60822 1.4-1.4779-8.75e-4 -0.66855-0.37537-1.288-0.93624-1.5486 0.0017-0.02963 0.0017-0.06025 0.0035-0.09075 0-1.1594-0.83562-2.1584-1.8664-2.2305zm0 0.87499c0.49787 0.034816 0.99049 0.55488 0.99136 1.2925v0.0017c-8.75e-4 0.01306-0.0017 0.02875-0.0017 0.03575a0.90623 0.84501 46.001 0 0 0.55124 0.90745c0.18637 0.08565 0.38237 0.35661 0.38324 0.69617 0 0.44974-0.2835 0.68104-0.52499 0.66415l-4.2004-0.29366c-0.2408-0.016835-0.52377-0.28775-0.52464-0.7358v-0.0017c0.00122-0.34291 0.19871-0.58547 0.38622-0.6441a0.90623 0.84501 46.001 0 0 0.55361-0.67441c0.032375-0.26636 0.18812-0.35259 0.28525-0.3458 0.020125 0.0014 0.043749 0.0092 0.071749 0.02426a0.90623 0.84501 46.001 0 0 1.1637-0.35267c0.19337-0.41348 0.53287-0.5971 0.86536-0.57385z" fill="#fff" opacity=".75" stroke-width=".87499"/>
</svg>
