<svg id="SVGRoot" width="48px" height="48px" version="1.1" viewBox="0 0 48 48" xmlns="http://www.w3.org/2000/svg">
<defs>
<filter id="filter936" color-interpolation-filters="sRGB">
<feFlood flood-color="rgb(255,255,255)" flood-opacity=".10196" result="flood"/>
<feComposite in="flood" in2="SourceGraphic" operator="out" result="composite1"/>
<feGaussianBlur in="composite1" result="blur"/>
<feOffset dx="0" dy="1" result="offset"/>
<feComposite in="offset" in2="SourceGraphic" operator="atop" result="fbSourceGraphic"/>
<feColorMatrix in="fbSourceGraphic" result="fbSourceGraphicAlpha" values="0 0 0 -1 0 0 0 0 -1 0 0 0 0 -1 0 0 0 0 1 0"/>
<feFlood flood-color="rgb(0,0,0)" flood-opacity=".2" in="fbSourceGraphic" result="flood"/>
<feComposite in="flood" in2="fbSourceGraphic" operator="in" result="composite1"/>
<feGaussianBlur in="composite1" result="blur"/>
<feOffset dx="0" dy="1" result="offset"/>
<feComposite in="fbSourceGraphic" in2="offset" result="composite2"/>
</filter>
<filter id="filter960" color-interpolation-filters="sRGB">
<feFlood flood-color="rgb(0,0,0)" flood-opacity=".2" result="flood"/>
<feComposite in="flood" in2="SourceGraphic" operator="in" result="composite1"/>
<feGaussianBlur in="composite1" result="blur"/>
<feOffset dx="0" dy="1" result="offset"/>
<feComposite in="SourceGraphic" in2="offset" result="fbSourceGraphic"/>
<feColorMatrix in="fbSourceGraphic" result="fbSourceGraphicAlpha" values="0 0 0 -1 0 0 0 0 -1 0 0 0 0 -1 0 0 0 0 1 0"/>
<feFlood flood-color="rgb(255,255,255)" flood-opacity=".10196" in="fbSourceGraphic" result="flood"/>
<feComposite in="flood" in2="fbSourceGraphic" operator="out" result="composite1"/>
<feGaussianBlur in="composite1" result="blur"/>
<feOffset dx="0" dy="1" result="offset"/>
<feComposite in="offset" in2="fbSourceGraphic" operator="atop" result="composite2"/>
</filter>
</defs>
<path d="m7.3275 35.563c-0.41735-0.02119-0.83469-0.44703-0.83469-0.85168v-30.451c0-0.40465 0.41735-0.78812 0.83469-0.76694l27.397 0.91023c0.41735 0.021188 0.87579 0.44703 0.87579 0.85167v12.9c0 0.47148 0.17351 1.1999 0.96647 1.3624l2.9003 0.59428c0.7375 0.15111 1.0404 0.85752 1.0404 1.2622v14.365c0 0.40466-0.41735 0.78812-0.83469 0.76694z" fill="#b9b9b9" filter="url(#filter960)" stroke="#b9b9b9" stroke-linecap="round" stroke-linejoin="round" stroke-width=".98562"/>
<path d="m6.4036 38.754c0.043959 1.1517 1.0936 1.9765 2.3154 2.0611 11.521 0.79722 21.18 1.6707 21.18 1.6707 0.24689 0.07264 0.49378-0.16906 0.49378-0.48343v-34.607l-21.815-1.8629c-0.9797-0.11533-1.8003-0.46921-2.1784-1.5605z" color="#000000" display="block" fill="#6194cb" filter="url(#filter936)" stroke="#6194cb" stroke-linejoin="round" stroke-width="1.0068"/>
<path d="m12.599 16.212c-0.08198-0.0067-0.16066 0.0015-0.23214 0.02525-0.21444 0.07122-0.36636 0.268-0.36636 0.508v9.6448a0.96179 0.89748 46.436 0 1 0.68192-0.85313 0.96179 0.89748 46.436 0 1 0.24665-0.01318 0.96179 0.89748 46.436 0 1 0.92856 0.99076 0.96179 0.89748 46.436 0 1-0.92856 0.86637 0.96179 0.89748 46.436 0 1-0.92856-0.99076v4.0118c0 0.31996 0.27058 0.60429 0.5985 0.63109l5.7129 0.4677a0.96179 0.89748 46.436 0 1-0.73996-0.95778 0.96179 0.89748 46.436 0 1 0.68192-0.85313 0.96179 0.89748 46.436 0 1 0.24664-0.01318 0.96179 0.89748 46.436 0 1 0.92856 0.99076 0.96179 0.89748 46.436 0 1-0.75446 0.86193l5.7274 0.46889c0.32793 0.02676 0.5985-0.21327 0.5985-0.53326v-4.0734a0.96179 0.89748 46.436 0 1-0.92856 0.86637 0.96179 0.89748 46.436 0 1-0.92856-0.99076 0.96179 0.89748 46.436 0 1 0.68192-0.85313 0.96179 0.89748 46.436 0 1 0.24664-0.01318 0.96179 0.89748 46.436 0 1 0.92856 0.99076v-9.5832c0-0.31998-0.27058-0.60429-0.5985-0.63109zm6.0756 15.317-0.35909-0.02826a0.96179 0.89748 46.436 0 0 0.18499 0.03271 0.96179 0.89748 46.436 0 0 0.17411-0.0044zm-0.17411-12.995a0.96179 0.89748 46.436 0 1 0.92856 0.99076 0.96179 0.89748 46.436 0 1-0.92856 0.86637 0.96179 0.89748 46.436 0 1-0.92856-0.99076 0.96179 0.89748 46.436 0 1 0.68192-0.85313 0.96179 0.89748 46.436 0 1 0.24664-0.01318zm-3.7143 3.4219a0.96179 0.89748 46.436 0 1 0.92856 0.99076 0.96179 0.89748 46.436 0 1-0.92856 0.86637 0.96179 0.89748 46.436 0 1-0.92856-0.99076 0.96179 0.89748 46.436 0 1 0.68192-0.85313 0.96179 0.89748 46.436 0 1 0.24664-0.01318zm3.7143 0.29231a0.96179 0.89748 46.436 0 1 0.92856 0.99076 0.96179 0.89748 46.436 0 1-0.92856 0.86637 0.96179 0.89748 46.436 0 1-0.92856-0.99076 0.96179 0.89748 46.436 0 1 0.68192-0.85313 0.96179 0.89748 46.436 0 1 0.24664-0.01318zm3.7143 0.29231a0.96179 0.89748 46.436 0 1 0.92856 0.99076 0.96179 0.89748 46.436 0 1-0.92856 0.86637 0.96179 0.89748 46.436 0 1-0.92856-0.99076 0.96179 0.89748 46.436 0 1 0.68192-0.85313 0.96179 0.89748 46.436 0 1 0.24664-0.01318zm-3.7143 3.4219a0.96179 0.89748 46.436 0 1 0.92856 0.99076 0.96179 0.89748 46.436 0 1-0.92856 0.86637 0.96179 0.89748 46.436 0 1-0.92856-0.99076 0.96179 0.89748 46.436 0 1 0.68192-0.85313 0.96179 0.89748 46.436 0 1 0.24664-0.01319z" color="#000000" color-rendering="auto" display="block" dominant-baseline="auto" fill="#fff" image-rendering="auto" opacity=".75" shape-rendering="auto" solid-color="#000000" stroke-width="1.0701" style="font-feature-settings:normal;font-variant-alternates:normal;font-variant-caps:normal;font-variant-ligatures:normal;font-variant-numeric:normal;font-variant-position:normal;isolation:auto;mix-blend-mode:normal;shape-padding:0;text-decoration-color:#000000;text-decoration-line:none;text-decoration-style:solid;text-indent:0;text-orientation:mixed;text-transform:none;white-space:normal"/>
</svg>
