<svg id="SVGRoot" width="48px" height="48px" version="1.1" viewBox="0 0 48 48" xmlns="http://www.w3.org/2000/svg">
<defs>
<filter id="filter936" color-interpolation-filters="sRGB">
<feFlood flood-color="rgb(255,255,255)" flood-opacity=".10196" result="flood"/>
<feComposite in="flood" in2="SourceGraphic" operator="out" result="composite1"/>
<feGaussianBlur in="composite1" result="blur"/>
<feOffset dx="0" dy="1" result="offset"/>
<feComposite in="offset" in2="SourceGraphic" operator="atop" result="fbSourceGraphic"/>
<feColorMatrix in="fbSourceGraphic" result="fbSourceGraphicAlpha" values="0 0 0 -1 0 0 0 0 -1 0 0 0 0 -1 0 0 0 0 1 0"/>
<feFlood flood-color="rgb(0,0,0)" flood-opacity=".2" in="fbSourceGraphic" result="flood"/>
<feComposite in="flood" in2="fbSourceGraphic" operator="in" result="composite1"/>
<feGaussianBlur in="composite1" result="blur"/>
<feOffset dx="0" dy="1" result="offset"/>
<feComposite in="fbSourceGraphic" in2="offset" result="composite2"/>
</filter>
<filter id="filter960" color-interpolation-filters="sRGB">
<feFlood flood-color="rgb(0,0,0)" flood-opacity=".2" result="flood"/>
<feComposite in="flood" in2="SourceGraphic" operator="in" result="composite1"/>
<feGaussianBlur in="composite1" result="blur"/>
<feOffset dx="0" dy="1" result="offset"/>
<feComposite in="SourceGraphic" in2="offset" result="fbSourceGraphic"/>
<feColorMatrix in="fbSourceGraphic" result="fbSourceGraphicAlpha" values="0 0 0 -1 0 0 0 0 -1 0 0 0 0 -1 0 0 0 0 1 0"/>
<feFlood flood-color="rgb(255,255,255)" flood-opacity=".10196" in="fbSourceGraphic" result="flood"/>
<feComposite in="flood" in2="fbSourceGraphic" operator="out" result="composite1"/>
<feGaussianBlur in="composite1" result="blur"/>
<feOffset dx="0" dy="1" result="offset"/>
<feComposite in="offset" in2="fbSourceGraphic" operator="atop" result="composite2"/>
</filter>
</defs>
<path d="m7.3275 35.563c-0.41735-0.02119-0.83469-0.44703-0.83469-0.85168v-30.451c0-0.40465 0.41735-0.78812 0.83469-0.76694l27.397 0.91023c0.41735 0.021188 0.87579 0.44703 0.87579 0.85167v12.9c0 0.47148 0.17351 1.1999 0.96647 1.3624l2.9003 0.59428c0.7375 0.15111 1.0404 0.85752 1.0404 1.2622v14.365c0 0.40466-0.41735 0.78812-0.83469 0.76694z" fill="#b9b9b9" filter="url(#filter960)" stroke="#b9b9b9" stroke-linecap="round" stroke-linejoin="round" stroke-width=".98562"/>
<path d="m6.5076 38.754c0.043959 1.1517 1.0936 1.9765 2.3154 2.0611 11.521 0.79722 21.18 1.6707 21.18 1.6707 0.24689 0.07264 0.49378-0.16906 0.49378-0.48343v-34.607l-21.815-1.8629c-0.9797-0.11533-1.8003-0.46921-2.1784-1.5605z" color="#000000" display="block" fill="#6194cb" filter="url(#filter936)" stroke="#6194cb" stroke-linejoin="round" stroke-width="1.0068"/>
<g transform="matrix(.9375 0 0 .93406 .75686 1.0521)" fill="#fff">
<path d="m18.139 16.004c-4.0331 0.06038-7.2129 3.2169-7.2129 7.3555 0 4.4146 3.5602 8.2858 7.9727 8.6719 4.4121 0.38601 8.0273-2.9134 8.0273-7.3281 0-4.4145-3.5586-8.2839-7.9707-8.6699-0.27578-0.02413-0.54753-0.03332-0.81641-0.0293zm0.0078 0.64648c0.24724-0.0032 0.4978 0.0051 0.75195 0.02734 1.6159 0.14138 3.1085 0.80222 4.3262 1.7949l-0.32812-0.0918-0.36719-0.16016-0.53711 0.08203-0.33984 0.19336v0.19336l-0.53711 0.30469 0.11328 0.52148 0.31055-0.19727 0.19727 0.24219 0.22656 0.14648 0.14258-0.37109-0.08594-0.23047 0.08594-0.1543 0.31055-0.25977 0.14062 0.01172-0.14062 0.30859v0.28711c0.12989-0.02399 0.26161-0.0244 0.39453-0.0293l-0.36719 0.22461-0.02734 0.1582-0.42383 0.31445-0.42383-0.13281v-0.25586l-0.19922 0.10938 0.08594 0.23242-0.3125-0.02734-0.16797 0.27344-0.21289 0.2207-0.38086 0.04687 0.22461 0.24414 0.05859 0.22852-0.2832-0.02539-0.36719 0.16016v0.57617l0.16797 0.01367 0.15625 0.18945 0.35352-0.14453 0.14062-0.33984 0.25586-0.13672 0.05469-0.12305 0.42578-0.05859 0.22461 0.27539 0.25586 0.15039-0.14258 0.27539 0.22656-0.04492 0.11328-0.27734-0.2832-0.34375 0.11328 0.0098 0.2832 0.24805 0.05664 0.32422 0.25391 0.31055 0.05664-0.41211 0.14258-0.05078c0.13977 0.15732 0.24752 0.33816 0.36523 0.51172l0.42578 0.07031 0.25391 0.18164-0.11328 0.15039-0.25391 0.20117-0.36719-0.03125-0.48242-0.20312-0.25391 0.0098-0.18359 0.19141-0.52344-0.57226-0.36719-0.12891-0.53711 0.01758-0.48047 0.08594c-0.26966 0.28212-0.53579 0.56226-0.79102 0.85742l-0.31055 0.70898 0.14062 0.17383-0.25391 0.36133 0.2832 0.69531c0.24037 0.29294 0.48068 0.58585 0.7207 0.87891l0.35352-0.27148 0.1543 0.18945 0.38281-0.20703 0.12695 0.1543 0.38086 0.03516 0.21875 0.26562-0.13281 0.42969 0.26758 0.32617-0.01367 0.52734 0.19727 0.40039-0.14062 0.30859c-0.01408 0.2342-0.0293 0.4657-0.0293 0.70117 0.11585 0.32914 0.23045 0.65741 0.33984 0.98828l0.08398 0.52148v0.25586l0.19922 0.01758 0.31055-0.16602 0.36719 0.0332 0.55078-0.57617-0.07031-0.21484 0.36719-0.28711-0.26758-0.32812 0.32422-0.24414 0.3125-0.16406 0.14062-0.14648-0.08594-0.36133v-0.89453l0.25586-0.52344 0.31055-0.32422 0.33984-0.80078v-0.22461c-0.16304 0.0063-0.323-0.0019-0.48242-0.0039l0.32617-0.29688 0.4668-0.28125 0.25391-0.26367v-0.32031c-0.05658-0.11166-0.11295-0.22424-0.16992-0.33594l-0.22656 0.23633-0.16797-0.20703-0.25586-0.21484v-0.41406l0.29688 0.36133 0.32617-0.01953c0.14809 0.1474 0.29394 0.28869 0.42383 0.45312l0.03125-0.0332c0.04255 0.32329 0.07227 0.64959 0.07227 0.98047 0 4.0646-3.2582 7.0374-7.3242 6.6816-1.1438-0.10007-2.2236-0.4654-3.1914-1.0176 1.13e-4 -7.8e-5 0.0039-2e-3 0.0039-2e-3l-0.05664-0.16602 0.22656-0.20312 0.08594-0.2168 0.36719-0.0957 0.2832-0.67969-0.08594-0.19922 0.19726-0.27148 0.42383-0.05859 0.22656-0.49219-0.05664-0.64453 0.33984-0.45117 0.05664-0.47461c-0.4641-0.27075-0.92413-0.54697-1.3848-0.82422l-0.22656-0.46875-0.42383-0.13281-0.22656-0.62695-0.56445 0.01367-0.48047-0.39258-0.50977 0.40234v0.07031c-0.154-0.05793-0.34335-0.07947-0.48047-0.17578l-0.11328-0.33008v-0.35156l-0.33984 2e-3c0.02831-0.2216 0.05744-0.44252 0.08594-0.66406l-0.19727-0.01758-0.19922 0.23828-0.19727 0.07813-0.2832-0.18359-0.02734-0.35547 0.05664-0.37891 0.42383-0.2832 0.33789 0.03125 0.05664-0.1875 0.42383 0.13281 0.3125 0.41016 0.05664-0.63477 0.53711-0.40039 0.19727-0.46289 0.39648-0.125 0.22461-0.30078 0.50976-0.05078 0.25391-0.36133c-0.25445-0.02226-0.50922-0.04414-0.76367-0.06641l0.48047-0.18359 0.33984 0.03125 0.48047-0.11914 0.05664-0.18555-0.16992-0.17578-0.19727-0.08203 0.05664-0.1875-0.14062-0.29883-0.33984 0.09766 0.05664-0.25195-0.39648-0.25781-0.31055 0.51562 0.02734 0.19531-0.31055 0.10156-0.19726 0.39844-0.08594-0.39062-0.53711-0.27148-0.08399-0.29492 0.70703-0.35547 0.31055-0.25976 0.0293-0.34961-0.16992-0.11133-0.03906-0.0098c0.28138-0.16495 0.57938-0.30442 0.88672-0.42773l0.36719 0.0957 0.14062-0.11523 0.2832-0.03906c0.19367-0.07725 0.38826-0.12339 0.59375-0.17188l-0.07813-0.13867c0.37539-0.06813 0.75843-0.11786 1.1562-0.12305zm-3.625 1.0879-0.05273 0.12891s-0.08774 0.0112-0.16016 0.01953c0.07047-0.05037 0.1403-0.10085 0.21289-0.14844zm8.9492 0.93945c0.06655 0.05858 0.1326 0.11711 0.19727 0.17774l-0.26367 0.27344-0.36719-0.41602 0.36719 0.0332 0.06641-0.06836zm0.35742 4.3301 0.32617 0.39453 0.38086 0.84961 0.22656 0.27539-0.11328 0.2793 0.20703 0.25c-0.09635-0.0021-0.19199 0.0067-0.29102-2e-3 -0.18002-0.39402-0.31604-0.78368-0.45312-1.1914l-0.24023-0.29297-0.12695-0.47461 0.08398-0.08789zm-12.24 0.06445c0.06713 0.11763 0.13867 0.25195 0.13867 0.25195l0.59375 0.40234 0.5918 0.21289 0.25586 0.3418 0.39453 0.32227 0.22656-0.01172 0.16992 0.0918v0.05078l-0.22656 0.58789-0.16992 0.24219 0.05664 0.13281-0.14062 0.4668 0.50976 0.97266 0.50781 0.49219 0.22656 0.33984-0.0293 0.66992 0.16992 0.39844-0.14844 0.62695c-1.8962-1.5038-3.1406-3.8166-3.1406-6.3047 0-0.09725 0.01-0.19114 0.01367-0.28711z" color="#000000" color-rendering="auto" dominant-baseline="auto" image-rendering="auto" opacity=".75" shape-rendering="auto" solid-color="#000000" style="font-feature-settings:normal;font-variant-alternates:normal;font-variant-caps:normal;font-variant-ligatures:normal;font-variant-numeric:normal;font-variant-position:normal;isolation:auto;mix-blend-mode:normal;shape-padding:0;text-decoration-color:#000000;text-decoration-line:none;text-decoration-style:solid;text-indent:0;text-orientation:mixed;text-transform:none;white-space:normal"/>
<path d="m19.387 18.458-0.02847 0.18931 0.19826 0.14533 0.33876-0.19425-0.16936-0.20681-0.22633 0.10838-0.11278-0.04195" opacity=".75"/>
<path d="m19.698 17.174-0.73524-0.35238-0.84766 0.02174-1.0463 0.19632-0.19787 0.17484 0.65018 0.50465v0.25597l-0.25445 0.23371 0.3395 0.70209 0.2256-0.10864 0.28331-0.42298c0.43672-0.09681 0.8283-0.21558 1.2434-0.37126l0.3395-0.8341" opacity=".75"/>
<path d="m20.461 19.928-0.11317-0.29815-0.19826 0.04682 0.05697 0.35666 0.25445-0.10533" opacity=".75"/>
<path d="m20.574 19.874-0.05658 0.37939 0.31104-0.03695 0.22598-0.20392-0.19787-0.20946c-0.06646-0.1828-0.1428-0.35468-0.22598-0.53171l-0.16936-0.01482v0.1918l0.11278 0.13785v0.28786" opacity=".75"/>
<path d="m15.768 18.27 0.28257 0.21672 0.22633 0.0198v-0.22388l-0.28257-0.1527-0.22633 0.14007" opacity=".75"/>
<path d="m15.033 17.949-0.14148 0.33949 0.28276 0.02474 0.14148-0.3076c0.12192-0.07555 0.24325-0.1517 0.36742-0.22382l0.28276 0.12083c0.18838 0.14446 0.37676 0.28893 0.56529 0.43321l0.28292-0.23102-0.31123-0.15521-0.14148-0.30043-0.53702-0.111-0.02831-0.16254-0.25445 0.04191-0.11293 0.21404-0.14148-0.30043-0.05639 0.12305 0.02831 0.32246-0.22618 0.17232" opacity=".75"/>
<path d="m16.532 20.32 0.16975-0.24112-0.25464-0.21408 0.08489 0.4552" opacity=".75"/>
</g>
</svg>
