<svg id="SVGRoot" width="48px" height="48px" version="1.1" viewBox="0 0 48 48" xmlns="http://www.w3.org/2000/svg">
<defs>
<filter id="filter936" color-interpolation-filters="sRGB">
<feFlood flood-color="rgb(255,255,255)" flood-opacity=".10196" result="flood"/>
<feComposite in="flood" in2="SourceGraphic" operator="out" result="composite1"/>
<feGaussianBlur in="composite1" result="blur"/>
<feOffset dx="0" dy="1" result="offset"/>
<feComposite in="offset" in2="SourceGraphic" operator="atop" result="fbSourceGraphic"/>
<feColorMatrix in="fbSourceGraphic" result="fbSourceGraphicAlpha" values="0 0 0 -1 0 0 0 0 -1 0 0 0 0 -1 0 0 0 0 1 0"/>
<feFlood flood-color="rgb(0,0,0)" flood-opacity=".2" in="fbSourceGraphic" result="flood"/>
<feComposite in="flood" in2="fbSourceGraphic" operator="in" result="composite1"/>
<feGaussianBlur in="composite1" result="blur"/>
<feOffset dx="0" dy="1" result="offset"/>
<feComposite in="fbSourceGraphic" in2="offset" result="composite2"/>
</filter>
<filter id="filter960" color-interpolation-filters="sRGB">
<feFlood flood-color="rgb(0,0,0)" flood-opacity=".2" result="flood"/>
<feComposite in="flood" in2="SourceGraphic" operator="in" result="composite1"/>
<feGaussianBlur in="composite1" result="blur"/>
<feOffset dx="0" dy="1" result="offset"/>
<feComposite in="SourceGraphic" in2="offset" result="fbSourceGraphic"/>
<feColorMatrix in="fbSourceGraphic" result="fbSourceGraphicAlpha" values="0 0 0 -1 0 0 0 0 -1 0 0 0 0 -1 0 0 0 0 1 0"/>
<feFlood flood-color="rgb(255,255,255)" flood-opacity=".10196" in="fbSourceGraphic" result="flood"/>
<feComposite in="flood" in2="fbSourceGraphic" operator="out" result="composite1"/>
<feGaussianBlur in="composite1" result="blur"/>
<feOffset dx="0" dy="1" result="offset"/>
<feComposite in="offset" in2="fbSourceGraphic" operator="atop" result="composite2"/>
</filter>
</defs>
<path d="m7.3275 35.563c-0.41735-0.02119-0.83469-0.44703-0.83469-0.85168v-30.451c0-0.40465 0.41735-0.78812 0.83469-0.76694l27.397 0.91023c0.41735 0.021188 0.87579 0.44703 0.87579 0.85167v12.9c0 0.47148 0.17351 1.1999 0.96647 1.3624l2.9003 0.59428c0.7375 0.15111 1.0404 0.85752 1.0404 1.2622v14.365c0 0.40466-0.41735 0.78812-0.83469 0.76694z" fill="#b9b9b9" filter="url(#filter960)" stroke="#b9b9b9" stroke-linecap="round" stroke-linejoin="round" stroke-width=".98562"/>
<path d="m6.5076 38.754c0.043959 1.1517 1.0936 1.9765 2.3154 2.0611 11.521 0.79722 21.18 1.6707 21.18 1.6707 0.24689 0.07264 0.49378-0.16906 0.49378-0.48343v-34.607l-21.815-1.8629c-0.9797-0.11533-1.8003-0.46921-2.1784-1.5605z" color="#000000" display="block" fill="#6194cb" filter="url(#filter936)" stroke="#6194cb" stroke-linejoin="round" stroke-width="1.0068"/>
<path d="m18.5 16.785c-3.5898-0.31285-6.5 2.3326-6.5 5.9088 3.1e-5 3.5762 2.9102 6.7289 6.5 7.0418 3.5898 0.31285 6.5-2.3326 6.5-5.9088-3e-5 -3.5762-2.9102-6.7289-6.5-7.0418zm0 1.8501c2.5642 0.22348 4.6428 2.4754 4.6429 5.0298-1e-5 2.5544-2.0787 4.444-4.6429 4.2206-2.5642-0.22348-4.6428-2.4754-4.6429-5.0298 1e-5 -2.5544 2.0787-4.444 4.6429-4.2206zm-1.3481 1.7691v1.7416c-0.2402 0.22325-0.37494 0.53964-0.37542 0.88148-4.88e-4 0.34312 0.13433 0.68449 0.37542 0.95061 0.04957 0.04648 0.09915 0.09296 0.14872 0.13944 0.22711 0.1912 0.504 0.30855 0.78892 0.33435 0.28555 0.02431 0.56313-0.04473 0.79074-0.19667l1.9859 0.17309v-1.8501l-1.7429-0.15191c-0.03529-0.04766-0.07346-0.09323-0.11426-0.13643v-1.7236z" fill="#fff" opacity=".75" stroke-width=".9268"/>
</svg>
