<svg id="SVGRoot" width="48px" height="48px" version="1.1" viewBox="0 0 48 48" xmlns="http://www.w3.org/2000/svg">
<defs>
<filter id="filter830" color-interpolation-filters="sRGB">
<feFlood flood-color="rgb(0,0,0)" flood-opacity=".2" result="flood"/>
<feComposite in="flood" in2="SourceGraphic" operator="in" result="composite1"/>
<feGaussianBlur in="composite1" result="blur"/>
<feOffset dx="0" dy="1" result="offset"/>
<feComposite in="SourceGraphic" in2="offset" result="fbSourceGraphic"/>
<feColorMatrix in="fbSourceGraphic" result="fbSourceGraphicAlpha" values="0 0 0 -1 0 0 0 0 -1 0 0 0 0 -1 0 0 0 0 1 0"/>
<feFlood flood-color="rgb(255,255,255)" flood-opacity=".10196" in="fbSourceGraphic" result="flood"/>
<feComposite in="flood" in2="fbSourceGraphic" operator="out" result="composite1"/>
<feGaussianBlur in="composite1" result="blur"/>
<feOffset dx="0" dy="1" result="offset"/>
<feComposite in="offset" in2="fbSourceGraphic" operator="atop" result="composite2"/>
</filter>
<filter id="filter854" color-interpolation-filters="sRGB">
<feFlood flood-color="rgb(255,255,255)" flood-opacity=".10196" result="flood"/>
<feComposite in="flood" in2="SourceGraphic" operator="out" result="composite1"/>
<feGaussianBlur in="composite1" result="blur"/>
<feOffset dx="0" dy="1" result="offset"/>
<feComposite in="offset" in2="SourceGraphic" operator="atop" result="fbSourceGraphic"/>
<feColorMatrix in="fbSourceGraphic" result="fbSourceGraphicAlpha" values="0 0 0 -1 0 0 0 0 -1 0 0 0 0 -1 0 0 0 0 1 0"/>
<feFlood flood-color="rgb(0,0,0)" flood-opacity=".2" in="fbSourceGraphic" result="flood"/>
<feComposite in="flood" in2="fbSourceGraphic" operator="in" result="composite1"/>
<feGaussianBlur in="composite1" result="blur"/>
<feOffset dx="0" dy="1" result="offset"/>
<feComposite in="fbSourceGraphic" in2="offset" result="composite2"/>
</filter>
</defs>
<g stroke-linejoin="round">
<path d="m7.3458 36.441c-0.42291-0.041996-0.84582-0.49959-0.84582-0.9152v-31.274c0-0.41561 0.42291-0.78923 0.84582-0.74723l27.349 2.7085c0.42291 0.041998 0.84582 0.49959 0.84582 0.9152v12.78c0 0.59317 0.38177 1.2145 0.96594 1.4092l3.2532 1.1079c0.51024 0.17 0.74009 0.54958 0.74009 1.3204v15.004c0 0.41561-0.42291 0.78923-0.84582 0.74723z" color="#000000" fill="#b9b9b9" filter="url(#filter854)" stroke="#b9b9b9" stroke-linecap="round" stroke-width=".99998"/>
<path d="m6.9243 3.6024c-0.2121 0.1023-0.42421 0.30691-0.42421 0.61382v32.942c0 0.20462 0.12668 0.51542 0.26515 0.70037 0.39272 0.52456 0.61423 0.64765 0.9764 0.88295 3.7266 2.4211 19.334 5.7413 19.334 5.7413 0.21209 0.1023 0.42419-0.1023 0.42419-0.40921v-34.54c0-0.30691-16.155-1.6377-19.345-4.8095l-1.2313-1.2246z" color="#000000" display="block" fill="#6194cb" filter="url(#filter830)" stroke="#6194cb" stroke-width="1.0001"/>
<path d="m15.007 15.895a3.1101 2.2432 63.754 0 0-2.4372 2.1075 3.1101 2.2432 63.754 0 0 2.4372 3.6178 3.1101 2.2432 63.754 0 0 1.1147 0.02826 3.3842 2.446 63.287 0 0 0.17655 0.97165 3.1101 2.2432 63.754 0 1-1.2913 0.04104 3.1101 2.2432 63.754 0 1-1.8416-1.5649c-1.944 0.86135-2.1862 2.7443-1.7232 4.0416 0.48091 1.3474 1.2953 1.8114 2.2666 2.1124l1.0862 0.33659c0.02069 0.33049 0.08705 0.65077 0.19213 0.94092 0.48055 1.3267 1.2944 1.7878 2.2649 2.0885l3.235 1.0026c0.91659 0.28403 1.8241 0.18977 2.1567-0.77823 0.30596-0.89041 0.06478-2.8127-1.8123-4.9339a3.3842 2.446 63.287 0 1-1.6227 0.58791c-0.01563-0.31943-0.07342-0.67872-0.18781-1.0717a3.3842 2.446 63.287 0 0 2.418-2.3441 3.3842 2.446 63.287 0 0-2.6621-3.9336 3.3842 2.446 63.287 0 0-1.3536 0.01665 3.1101 2.2432 63.754 0 0-2.4163-3.2669z" color="#000000" fill="#fff" fill-rule="evenodd" opacity=".75" stroke="#fff" stroke-linecap="round" stroke-width=".48024px"/>
</g>
</svg>
