<svg id="SVGRoot" width="48px" height="48px" version="1.1" viewBox="0 0 48 48" xmlns="http://www.w3.org/2000/svg">
<defs>
<filter id="filter936" color-interpolation-filters="sRGB">
<feFlood flood-color="rgb(255,255,255)" flood-opacity=".10196" result="flood"/>
<feComposite in="flood" in2="SourceGraphic" operator="out" result="composite1"/>
<feGaussianBlur in="composite1" result="blur"/>
<feOffset dx="0" dy="1" result="offset"/>
<feComposite in="offset" in2="SourceGraphic" operator="atop" result="fbSourceGraphic"/>
<feColorMatrix in="fbSourceGraphic" result="fbSourceGraphicAlpha" values="0 0 0 -1 0 0 0 0 -1 0 0 0 0 -1 0 0 0 0 1 0"/>
<feFlood flood-color="rgb(0,0,0)" flood-opacity=".2" in="fbSourceGraphic" result="flood"/>
<feComposite in="flood" in2="fbSourceGraphic" operator="in" result="composite1"/>
<feGaussianBlur in="composite1" result="blur"/>
<feOffset dx="0" dy="1" result="offset"/>
<feComposite in="fbSourceGraphic" in2="offset" result="composite2"/>
</filter>
<filter id="filter960" color-interpolation-filters="sRGB">
<feFlood flood-color="rgb(0,0,0)" flood-opacity=".2" result="flood"/>
<feComposite in="flood" in2="SourceGraphic" operator="in" result="composite1"/>
<feGaussianBlur in="composite1" result="blur"/>
<feOffset dx="0" dy="1" result="offset"/>
<feComposite in="SourceGraphic" in2="offset" result="fbSourceGraphic"/>
<feColorMatrix in="fbSourceGraphic" result="fbSourceGraphicAlpha" values="0 0 0 -1 0 0 0 0 -1 0 0 0 0 -1 0 0 0 0 1 0"/>
<feFlood flood-color="rgb(255,255,255)" flood-opacity=".10196" in="fbSourceGraphic" result="flood"/>
<feComposite in="flood" in2="fbSourceGraphic" operator="out" result="composite1"/>
<feGaussianBlur in="composite1" result="blur"/>
<feOffset dx="0" dy="1" result="offset"/>
<feComposite in="offset" in2="fbSourceGraphic" operator="atop" result="composite2"/>
</filter>
</defs>
<path d="m7.3275 35.563c-0.41735-0.02119-0.83469-0.44703-0.83469-0.85168v-30.451c0-0.40465 0.41735-0.78812 0.83469-0.76694l27.397 0.91023c0.41735 0.021188 0.87579 0.44703 0.87579 0.85167v12.9c0 0.47148 0.17351 1.1999 0.96647 1.3624l2.9003 0.59428c0.7375 0.15111 1.0404 0.85752 1.0404 1.2622v14.365c0 0.40466-0.41735 0.78812-0.83469 0.76694z" fill="#b9b9b9" filter="url(#filter960)" stroke="#b9b9b9" stroke-linecap="round" stroke-linejoin="round" stroke-width=".98562"/>
<path d="m6.5076 38.754c0.043959 1.1517 1.0936 1.9765 2.3154 2.0611 11.521 0.79722 21.18 1.6707 21.18 1.6707 0.24689 0.07264 0.49378-0.16906 0.49378-0.48343v-34.607l-21.815-1.8629c-0.9797-0.11533-1.8003-0.46921-2.1784-1.5605z" color="#000000" display="block" fill="#6194cb" filter="url(#filter936)" stroke="#6194cb" stroke-linejoin="round" stroke-width="1.0068"/>
<path d="m19.021 26.833c-1.0401 0.39285-1.5444 0.34316-2.1936 0.23993-0.77547-0.12356-1.3986-0.39076-1.6726-0.60047-0.16902-0.12902-0.39841-0.10451-0.51264 0.05452s-0.07058 0.39224 0.09844 0.52125c0.44113 0.33671 1.2194 0.62676 2.0339 0.75652 0.13745 0.02224-0.1746 5.12e-4 -0.01207 0.01473 0.7086 0.06199 1.6076 0.07378 2.5697-0.28968 0.18481-0.0702 0.26561-0.28231 0.17924-0.47468-0.08637-0.1933-0.30554-0.29234-0.49036-0.22215zm4.1039-0.18796c0.03529-3.2056 0.36591-9.2383-5.7756-9.2862-6.0635-0.04199-3.9916 6.5446-4.0826 8.6819-0.07987 1.127-0.7346 2.4572-1.2668 3.8223l1.9168 0.1677c0.16902-0.5833 0.29254-1.164 0.34641-1.7231 0.09844 0.07733 0.20432 0.15254 0.31669 0.22645 0.18388 0.12474 0.34176 0.28251 0.50893 0.44851 0.39006 0.38981 0.83212 0.83155 1.6967 0.95824 0.05851 0.0079-0.34734-0.02574-0.28976-0.02071 0.87484 0.07653 1.4729-0.25376 1.9531-0.51916 0.23032-0.12751 0.42999-0.23728 0.61666-0.28224 0.53215-0.11968 0.99743-0.3483 1.3448-0.65968 0.05387-0.04916 0.10494-0.09947 0.15138-0.15114 0.1941 0.72651 0.45878 1.5474 0.75318 2.3701l3.6851 0.32241c-0.84048-1.371-1.8927-2.7344-1.8751-4.3553zm-9.2713-2.5571c-0.06036-1.0519 0.44114-1.8894 1.1191-1.8691 0.67795 0.01938 1.276 0.88896 1.3364 1.9409l9.29e-4 1e-3c0.0028 0.05596 0.0037 0.1127 0.0037 0.16749-0.21453 0.03509-0.40863 0.09705-0.5823 0.17287 0-0.0074-9.29e-4 -0.01494-0.0019-0.02338-0.05758-0.5994-0.3752-1.0757-0.7086-1.0641-0.3334 0.01076-0.55722 0.50569-0.49871 1.1061 0.02507 0.2613 0.09937 0.49905 0.20339 0.68368-0.026 0.01816-0.09937 0.06467-0.18296 0.11865-0.06315 0.04091-0.14023 0.09082-0.23218 0.15057-0.25261-0.35365-0.42628-0.84434-0.45692-1.3847zm6.4062 3.1488c-0.02415 0.55046-0.74761 1.0082-1.4163 1.1587l-0.0037 6.04e-4c-0.27768 0.06579-0.52565 0.2029-0.78847 0.348-0.44114 0.24373-0.89713 0.49545-1.5556 0.43785-0.04272-0.0037 0.37612 0.03197 0.3334 0.02546-0.60366-0.08811-0.88598-0.37005-1.2426-0.72723-0.18853-0.18738-0.38356-0.38182-0.63523-0.5515l-0.0046-0.0041c-0.54236-0.35299-0.87948-0.76326-0.90084-1.0967-0.01022-0.16527 0.06315-0.30188 0.21825-0.4044 0.33805-0.22396 0.56465-0.37038 0.71417-0.46688 0.16717-0.10703 0.21732-0.1398 0.25446-0.17184 0.026-0.0228 0.05572-0.04806 0.08637-0.07509 0.31019-0.27469 0.36591-0.77503 1.1627-0.70531 0.48757 0.04265 1.0271 0.27746 1.602 0.69738 0.27118 0.20018 0.50614 0.30153 0.80426 0.4307 0.20524 0.08947 0.43835 0.18973 0.74946 0.34975l0.0046 0.0032c0.29068 0.1443 0.63338 0.39254 0.61759 0.75149zm-0.15974-1.3141c-0.05572-0.03274-0.11423-0.06479-0.1746-0.09515-0.28047-0.14434-0.50614-0.24581-0.69281-0.32716 0.10309-0.19251 0.16717-0.43858 0.17367-0.71105v-9.29e-4c0.01393-0.66374-0.32133-1.2327-0.74946-1.271-0.42813-0.03838-0.78661 0.46797-0.80054 1.1317v0.06594c-0.26375-0.14474-0.52286-0.25564-0.77732-0.33176-9.29e-4 -0.02516-0.0019-0.05032-0.0028-0.07547v-9.28e-4c-0.02415-1.2132 0.71882-2.1512 1.6605-2.0939 0.94078 0.05631 1.7237 1.086 1.7487 2.3001 0.01114 0.54891-0.13559 1.0403-0.38541 1.4095z" fill="#fff" opacity=".75" stroke-width=".9287"/>
</svg>
