<svg id="SVGRoot" width="48px" height="48px" version="1.1" viewBox="0 0 48 48" xmlns="http://www.w3.org/2000/svg">
<defs>
<filter id="filter830" color-interpolation-filters="sRGB">
<feFlood flood-color="rgb(0,0,0)" flood-opacity=".2" result="flood"/>
<feComposite in="flood" in2="SourceGraphic" operator="in" result="composite1"/>
<feGaussianBlur in="composite1" result="blur"/>
<feOffset dx="0" dy="1" result="offset"/>
<feComposite in="SourceGraphic" in2="offset" result="fbSourceGraphic"/>
<feColorMatrix in="fbSourceGraphic" result="fbSourceGraphicAlpha" values="0 0 0 -1 0 0 0 0 -1 0 0 0 0 -1 0 0 0 0 1 0"/>
<feFlood flood-color="rgb(255,255,255)" flood-opacity=".10196" in="fbSourceGraphic" result="flood"/>
<feComposite in="flood" in2="fbSourceGraphic" operator="out" result="composite1"/>
<feGaussianBlur in="composite1" result="blur"/>
<feOffset dx="0" dy="1" result="offset"/>
<feComposite in="offset" in2="fbSourceGraphic" operator="atop" result="composite2"/>
</filter>
<filter id="filter842" color-interpolation-filters="sRGB">
<feFlood flood-color="rgb(0,0,0)" flood-opacity=".2" result="flood"/>
<feComposite in="flood" in2="SourceGraphic" operator="in" result="composite1"/>
<feGaussianBlur in="composite1" result="blur"/>
<feOffset dx="0" dy="1" result="offset"/>
<feComposite in="SourceGraphic" in2="offset" result="fbSourceGraphic"/>
<feColorMatrix in="fbSourceGraphic" result="fbSourceGraphicAlpha" values="0 0 0 -1 0 0 0 0 -1 0 0 0 0 -1 0 0 0 0 1 0"/>
<feFlood flood-color="rgb(255,255,255)" flood-opacity=".10196" in="fbSourceGraphic" result="flood"/>
<feComposite in="flood" in2="fbSourceGraphic" operator="out" result="composite1"/>
<feGaussianBlur in="composite1" result="blur"/>
<feOffset dx="0" dy="1" result="offset"/>
<feComposite in="offset" in2="fbSourceGraphic" operator="atop" result="composite2"/>
</filter>
</defs>
<path d="m7.3458 36.441c-0.42291-0.041996-0.84582-0.49959-0.84582-0.9152v-31.274c0-0.41561 0.42291-0.78923 0.84582-0.74723l27.349 2.7085c0.42291 0.041998 0.84582 0.49959 0.84582 0.9152v12.78c0 0.59317 0.38177 1.2145 0.96594 1.4092l3.2532 1.1079c0.51024 0.17 0.74009 0.54958 0.74009 1.3204v15.004c0 0.41561-0.42291 0.78923-0.84582 0.74723z" color="#000000" fill="#b9b9b9" filter="url(#filter830)" stroke="#b9b9b9" stroke-linecap="round" stroke-linejoin="round" stroke-width=".99998"/>
<path d="m6.9243 3.6024c-0.2121 0.1023-0.42421 0.30691-0.42421 0.61382v32.942c0 0.20462 0.12668 0.51542 0.26515 0.70037 0.39272 0.52456 0.61423 0.64765 0.9764 0.88295 3.7266 2.4211 19.334 5.7413 19.334 5.7413 0.21209 0.1023 0.42419-0.1023 0.42419-0.40921v-34.54c0-0.30691-16.155-1.6377-19.345-4.8095l-1.2313-1.2246z" color="#000000" display="block" fill="#6194cb" filter="url(#filter842)" stroke="#6194cb" stroke-linejoin="round" stroke-width="1.0001"/>
<path d="m19.684 19.404c-0.45068-0.13302-0.50503 0.30772-0.50503 0.30772l-0.01126 1.0232-4.7045-1.2921c-0.63989-0.17146-1.1456-0.10555-1.528 0.10531l-1.4218-0.34118c-1.2049-0.20581-1.5596 0.77063-1.5086 1.7439v4.7304c0 1.3428 0.72417 2.8448 1.7516 3.0648l4.7849 1.3383c0.0971 0.02601 0.19024 0.01724 0.27986-0.0076l2.9256 0.82082c0.43453 0.11643 1.042-0.09967 1.3639-0.49569l2.1762 0.5843c0.22975 0.06155 0.42497-0.09332 0.43909-0.34772l0.27342-4.9034c0.01411-0.2544-0.16109-0.50826-0.39084-0.56982l-2.2759-0.61022v-1.0564c0-0.04836-0.0078-0.09298-0.0097-0.14047l1.0535 0.27388c0.3305 0.0579 0.59392-0.12222 0.59993-0.52519v-2.0111c0.01803-0.43039-0.15544-0.85105-0.64818-0.98308l-2.6442-0.70885zm-6.0652 1.4931a1.5871 1.1649 67.564 0 1 0.08685 0.01987 1.5871 1.1649 67.564 0 1 1.2352 1.8292 1.5871 1.1649 67.564 0 1-1.2352 1.164 1.5871 1.1649 67.564 0 1-1.2352-1.8292 1.5871 1.1649 67.564 0 1 1.1484-1.1839z" color="#000000" fill="#fff" opacity=".75" stroke-width=".85774"/>
</svg>
