<svg id="SVGRoot" width="48px" height="48px" version="1.1" viewBox="0 0 48 48" xmlns="http://www.w3.org/2000/svg">
<defs>
<filter id="filter936" color-interpolation-filters="sRGB">
<feFlood flood-color="rgb(255,255,255)" flood-opacity=".10196" result="flood"/>
<feComposite in="flood" in2="SourceGraphic" operator="out" result="composite1"/>
<feGaussianBlur in="composite1" result="blur"/>
<feOffset dx="0" dy="1" result="offset"/>
<feComposite in="offset" in2="SourceGraphic" operator="atop" result="fbSourceGraphic"/>
<feColorMatrix in="fbSourceGraphic" result="fbSourceGraphicAlpha" values="0 0 0 -1 0 0 0 0 -1 0 0 0 0 -1 0 0 0 0 1 0"/>
<feFlood flood-color="rgb(0,0,0)" flood-opacity=".2" in="fbSourceGraphic" result="flood"/>
<feComposite in="flood" in2="fbSourceGraphic" operator="in" result="composite1"/>
<feGaussianBlur in="composite1" result="blur"/>
<feOffset dx="0" dy="1" result="offset"/>
<feComposite in="fbSourceGraphic" in2="offset" result="composite2"/>
</filter>
<filter id="filter960" color-interpolation-filters="sRGB">
<feFlood flood-color="rgb(0,0,0)" flood-opacity=".2" result="flood"/>
<feComposite in="flood" in2="SourceGraphic" operator="in" result="composite1"/>
<feGaussianBlur in="composite1" result="blur"/>
<feOffset dx="0" dy="1" result="offset"/>
<feComposite in="SourceGraphic" in2="offset" result="fbSourceGraphic"/>
<feColorMatrix in="fbSourceGraphic" result="fbSourceGraphicAlpha" values="0 0 0 -1 0 0 0 0 -1 0 0 0 0 -1 0 0 0 0 1 0"/>
<feFlood flood-color="rgb(255,255,255)" flood-opacity=".10196" in="fbSourceGraphic" result="flood"/>
<feComposite in="flood" in2="fbSourceGraphic" operator="out" result="composite1"/>
<feGaussianBlur in="composite1" result="blur"/>
<feOffset dx="0" dy="1" result="offset"/>
<feComposite in="offset" in2="fbSourceGraphic" operator="atop" result="composite2"/>
</filter>
</defs>
<path d="m7.3275 35.563c-0.41735-0.02119-0.83469-0.44703-0.83469-0.85168v-30.451c0-0.40465 0.41735-0.78812 0.83469-0.76694l27.397 0.91023c0.41735 0.021188 0.87579 0.44703 0.87579 0.85167v12.9c0 0.47148 0.17351 1.1999 0.96647 1.3624l2.9003 0.59428c0.7375 0.15111 1.0404 0.85752 1.0404 1.2622v14.365c0 0.40466-0.41735 0.78812-0.83469 0.76694z" fill="#b9b9b9" filter="url(#filter960)" stroke="#b9b9b9" stroke-linecap="round" stroke-linejoin="round" stroke-width=".98562"/>
<path d="m6.5076 38.754c0.043959 1.1517 1.0936 1.9765 2.3154 2.0611 11.521 0.79722 21.18 1.6707 21.18 1.6707 0.24689 0.07264 0.49378-0.16906 0.49378-0.48343v-34.607l-21.815-1.8629c-0.9797-0.11533-1.8003-0.46921-2.1784-1.5605z" color="#000000" display="block" fill="#6194cb" filter="url(#filter936)" stroke="#6194cb" stroke-linejoin="round" stroke-width="1.0068"/>
<path d="m11 15.688v15l15 1.3123v-15zm4 2.3539 1 0.08749v1l0.59375 0.05195c0.60938 0.05332 1.1254 0.55468 1.3223 1.1157l-1.916-0.16764v0.99609l0.59375 0.05195c0.77812 0.068076 1.4062 0.88009 1.4062 1.6582 0 0.77812-0.62812 1.4079-1.4062 1.3399l-0.59375-0.051947v1.002l-1-0.08749v-1.002l-0.59375-0.05195c-0.60938-0.05331-1.1254-0.54882-1.3223-1.1098l1.916 0.16764v-1.0039l-0.59375-0.05195c-0.77812-0.068077-1.4062-0.87228-1.4062-1.6504s0.62812-1.4138 1.4062-1.3457l0.59375 0.051947zm-0.48438 1.9537c-0.2625-0.022969-0.51562 0.22364-0.51562 0.48614s0.25312 0.4909 0.51562 0.51386l0.48438 0.042378v-1zm1.4844 2.1299v1l0.46875 0.04101c0.2625 0.032366 0.53125-0.15976 0.53125-0.42227 0-0.2625-0.26875-0.55477-0.53125-0.57773zm3 2.2625 4 0.34996v1l-4-0.34996z" fill="#fff" opacity=".75" stroke-width=".9375"/>
</svg>
