<svg id="SVGRoot" width="48px" height="48px" version="1.1" viewBox="0 0 48 48" xmlns="http://www.w3.org/2000/svg">
<defs>
<filter id="filter936" color-interpolation-filters="sRGB">
<feFlood flood-color="rgb(255,255,255)" flood-opacity=".10196" result="flood"/>
<feComposite in="flood" in2="SourceGraphic" operator="out" result="composite1"/>
<feGaussianBlur in="composite1" result="blur"/>
<feOffset dx="0" dy="1" result="offset"/>
<feComposite in="offset" in2="SourceGraphic" operator="atop" result="fbSourceGraphic"/>
<feColorMatrix in="fbSourceGraphic" result="fbSourceGraphicAlpha" values="0 0 0 -1 0 0 0 0 -1 0 0 0 0 -1 0 0 0 0 1 0"/>
<feFlood flood-color="rgb(0,0,0)" flood-opacity=".2" in="fbSourceGraphic" result="flood"/>
<feComposite in="flood" in2="fbSourceGraphic" operator="in" result="composite1"/>
<feGaussianBlur in="composite1" result="blur"/>
<feOffset dx="0" dy="1" result="offset"/>
<feComposite in="fbSourceGraphic" in2="offset" result="composite2"/>
</filter>
<filter id="filter960" color-interpolation-filters="sRGB">
<feFlood flood-color="rgb(0,0,0)" flood-opacity=".2" result="flood"/>
<feComposite in="flood" in2="SourceGraphic" operator="in" result="composite1"/>
<feGaussianBlur in="composite1" result="blur"/>
<feOffset dx="0" dy="1" result="offset"/>
<feComposite in="SourceGraphic" in2="offset" result="fbSourceGraphic"/>
<feColorMatrix in="fbSourceGraphic" result="fbSourceGraphicAlpha" values="0 0 0 -1 0 0 0 0 -1 0 0 0 0 -1 0 0 0 0 1 0"/>
<feFlood flood-color="rgb(255,255,255)" flood-opacity=".10196" in="fbSourceGraphic" result="flood"/>
<feComposite in="flood" in2="fbSourceGraphic" operator="out" result="composite1"/>
<feGaussianBlur in="composite1" result="blur"/>
<feOffset dx="0" dy="1" result="offset"/>
<feComposite in="offset" in2="fbSourceGraphic" operator="atop" result="composite2"/>
</filter>
</defs>
<path d="m7.3275 35.563c-0.41735-0.02119-0.83469-0.44703-0.83469-0.85168v-30.451c0-0.40465 0.41735-0.78812 0.83469-0.76694l27.397 0.91023c0.41735 0.021188 0.87579 0.44703 0.87579 0.85167v12.9c0 0.47148 0.17351 1.1999 0.96647 1.3624l2.9003 0.59428c0.7375 0.15111 1.0404 0.85752 1.0404 1.2622v14.365c0 0.40466-0.41735 0.78812-0.83469 0.76694z" fill="#b9b9b9" filter="url(#filter960)" stroke="#b9b9b9" stroke-linecap="round" stroke-linejoin="round" stroke-width=".98562"/>
<path d="m6.5076 38.754c0.043959 1.1517 1.0936 1.9765 2.3154 2.0611 11.521 0.79722 21.18 1.6707 21.18 1.6707 0.24689 0.07264 0.49378-0.16906 0.49378-0.48343v-34.607l-21.815-1.8629c-0.9797-0.11533-1.8003-0.46921-2.1784-1.5605z" color="#000000" display="block" fill="#6194cb" filter="url(#filter936)" stroke="#6194cb" stroke-linejoin="round" stroke-width="1.0068"/>
<path d="m9.0001 24.133 5.7038 2.837c0.04275 1.5446 1.3044 2.8824 2.8462 3.0192 1.5742 0.13772 2.8557-1.082 2.85-2.6006l3.8-2.5175c2.1156 0.1851 3.8-1.369 3.8-3.4675s-1.7014-3.9489-3.8-4.1325-3.801 1.3509-3.8 3.4675l-2.85 3.5506c-0.5168-0.04521-1.0279 0.05447-1.4716 0.28546l-7.0785-3.5254m15.2-2.8283c1.5742 0.13772 2.85 1.5252 2.85 3.0994s-1.2758 2.7384-2.85 2.6006c-1.5732-0.13764-2.8206-1.8001-2.85-3.0994 0-1.5742 1.2758-2.7384 2.85-2.6006zm0 0.95c-1.0498-0.09185-1.9 0.68402-1.9 1.7338s0.85025 1.9744 1.9 2.0662c1.0498 0.09184 1.9-0.68402 1.9-1.7338s-0.85025-1.9744-1.9-2.0662zm-6.65 6.0682c1.0498 0.09184 1.9 1.0165 1.9 2.0662s-0.85025 1.8256-1.9 1.7338c-0.8588-0.07513-1.6112-0.71666-1.8354-1.5656l0.84835 0.42192c0.73055 0.36317 1.5599 0.08898 1.8592-0.61539 0.29925-0.70437-0.04655-1.564-0.7771-1.9272l-0.2413-0.11896c0.04845-5.12e-4 0.09785 0.0019 0.1463 0.0052z" fill="#fff" opacity=".75" stroke-width=".95"/>
</svg>
