<svg id="SVGRoot" width="48px" height="48px" version="1.1" viewBox="0 0 48 48" xmlns="http://www.w3.org/2000/svg">
<defs>
<filter id="filter936" color-interpolation-filters="sRGB">
<feFlood flood-color="rgb(255,255,255)" flood-opacity=".10196" result="flood"/>
<feComposite in="flood" in2="SourceGraphic" operator="out" result="composite1"/>
<feGaussianBlur in="composite1" result="blur"/>
<feOffset dx="0" dy="1" result="offset"/>
<feComposite in="offset" in2="SourceGraphic" operator="atop" result="fbSourceGraphic"/>
<feColorMatrix in="fbSourceGraphic" result="fbSourceGraphicAlpha" values="0 0 0 -1 0 0 0 0 -1 0 0 0 0 -1 0 0 0 0 1 0"/>
<feFlood flood-color="rgb(0,0,0)" flood-opacity=".2" in="fbSourceGraphic" result="flood"/>
<feComposite in="flood" in2="fbSourceGraphic" operator="in" result="composite1"/>
<feGaussianBlur in="composite1" result="blur"/>
<feOffset dx="0" dy="1" result="offset"/>
<feComposite in="fbSourceGraphic" in2="offset" result="composite2"/>
</filter>
<filter id="filter960" color-interpolation-filters="sRGB">
<feFlood flood-color="rgb(0,0,0)" flood-opacity=".2" result="flood"/>
<feComposite in="flood" in2="SourceGraphic" operator="in" result="composite1"/>
<feGaussianBlur in="composite1" result="blur"/>
<feOffset dx="0" dy="1" result="offset"/>
<feComposite in="SourceGraphic" in2="offset" result="fbSourceGraphic"/>
<feColorMatrix in="fbSourceGraphic" result="fbSourceGraphicAlpha" values="0 0 0 -1 0 0 0 0 -1 0 0 0 0 -1 0 0 0 0 1 0"/>
<feFlood flood-color="rgb(255,255,255)" flood-opacity=".10196" in="fbSourceGraphic" result="flood"/>
<feComposite in="flood" in2="fbSourceGraphic" operator="out" result="composite1"/>
<feGaussianBlur in="composite1" result="blur"/>
<feOffset dx="0" dy="1" result="offset"/>
<feComposite in="offset" in2="fbSourceGraphic" operator="atop" result="composite2"/>
</filter>
</defs>
<path d="m7.3275 35.563c-0.41735-0.02119-0.83469-0.44703-0.83469-0.85168v-30.451c0-0.40465 0.41735-0.78812 0.83469-0.76694l27.397 0.91023c0.41735 0.021188 0.87579 0.44703 0.87579 0.85167v12.9c0 0.47148 0.17351 1.1999 0.96647 1.3624l2.9003 0.59428c0.7375 0.15111 1.0404 0.85752 1.0404 1.2622v14.365c0 0.40466-0.41735 0.78812-0.83469 0.76694z" fill="#b9b9b9" filter="url(#filter960)" stroke="#b9b9b9" stroke-linecap="round" stroke-linejoin="round" stroke-width=".98562"/>
<path d="m6.5076 38.754c0.043959 1.1517 1.0936 1.9765 2.3154 2.0611 11.521 0.79722 21.18 1.6707 21.18 1.6707 0.24689 0.07264 0.49378-0.16906 0.49378-0.48343v-34.607l-21.815-1.8629c-0.9797-0.11533-1.8003-0.46921-2.1784-1.5605z" color="#000000" display="block" fill="#6194cb" filter="url(#filter936)" stroke="#6194cb" stroke-linejoin="round" stroke-width="1.0068"/>
<path d="m12.061 18.215c-0.5781-0.047678-1.0605 0.3933-1.0605 0.98633v9.7852c0 0.59301 0.48245 1.1126 1.0605 1.1602l10.359 0.85156c0.2074 0.01704 0.50176-0.1273 0.4082-0.082031 0.05934-0.02875 0.11439-0.062037 0.17188-0.097657 0.11405-0.07065 0.24298-0.15894 0.38867-0.26367 0.29277-0.21048 0.65037-0.48683 1.0039-0.76953 0.35344-0.28262 0.70011-0.57037 0.96875-0.81055 0.13476-0.12051 0.2491-0.22902 0.3418-0.32617 0.04309-0.04514 0.08962-0.092853 0.13672-0.15625-0.04273 0.05751 0.006395 0.019303 0.072265-0.091797 0.065865-0.11113 0.087891-0.24618 0.087891-0.36914v-7.5977c0-0.59301-0.4805-1.1126-1.0586-1.1602l-12.881-1.0586zm-0.058594 0.93164 13 1.1328v7l-2.6367-0.23242 0.28906-0.39844-1.0215-0.087891s0.93686-0.092037 1.0645-1.1367c0.12676-1.0379-1.4191-2.3346-1.4395-2.3516-0.0026 0.02084-0.004959 0.042119-0.005859 0.037109v-0.042969s0.00566 0.00576 0.005859 0.00586c0.0037-0.02976 0.007566-0.061832 0.009766-0.050782l-2.0996 3.166 1.7852 0.14844 0.32812-3.0703c0.0929 0.46616 0.4118 1.9678 0.14062 2.5605-0.1276 0.58044-0.58203 0.66797-0.58203 0.66797l-1.9551-0.17578 0.052734 0.42578-6.9375-0.60352 0.001953-6.9941zm2.498 0.85938c-0.84166-0.06871-1.5 0.56905-1.5 1.3711 0 0.83852 0.69491 1.5514 1.5 1.6172 0.84165 0.0687 1.5-0.56905 1.5-1.3711 0-0.83853-0.69491-1.5514-1.5-1.6172z" fill="#fff" opacity=".75" stroke-width="1.0802"/>
</svg>
