<svg id="SVGRoot" width="48px" height="48px" version="1.1" viewBox="0 0 48 48" xmlns="http://www.w3.org/2000/svg">
<defs>
<filter id="filter838" color-interpolation-filters="sRGB">
<feFlood flood-color="rgb(0,0,0)" flood-opacity=".2" result="flood"/>
<feComposite in="flood" in2="SourceGraphic" operator="in" result="composite1"/>
<feGaussianBlur in="composite1" result="blur"/>
<feOffset dx="0" dy="1" result="offset"/>
<feComposite in="SourceGraphic" in2="offset" result="fbSourceGraphic"/>
<feColorMatrix in="fbSourceGraphic" result="fbSourceGraphicAlpha" values="0 0 0 -1 0 0 0 0 -1 0 0 0 0 -1 0 0 0 0 1 0"/>
<feFlood flood-color="rgb(255,255,255)" flood-opacity=".10196" in="fbSourceGraphic" result="flood"/>
<feComposite in="flood" in2="fbSourceGraphic" operator="out" result="composite1"/>
<feGaussianBlur in="composite1" result="blur"/>
<feOffset dx="0" dy="1" result="offset"/>
<feComposite in="offset" in2="fbSourceGraphic" operator="atop" result="composite2"/>
</filter>
<filter id="filter862" color-interpolation-filters="sRGB">
<feFlood flood-color="rgb(255,255,255)" flood-opacity=".10196" result="flood"/>
<feComposite in="flood" in2="SourceGraphic" operator="out" result="composite1"/>
<feGaussianBlur in="composite1" result="blur"/>
<feOffset dx="0" dy="1" result="offset"/>
<feComposite in="offset" in2="SourceGraphic" operator="atop" result="fbSourceGraphic"/>
<feColorMatrix in="fbSourceGraphic" result="fbSourceGraphicAlpha" values="0 0 0 -1 0 0 0 0 -1 0 0 0 0 -1 0 0 0 0 1 0"/>
<feFlood flood-color="rgb(0,0,0)" flood-opacity=".2" in="fbSourceGraphic" result="flood"/>
<feComposite in="flood" in2="fbSourceGraphic" operator="in" result="composite1"/>
<feGaussianBlur in="composite1" result="blur"/>
<feOffset dx="0" dy="1" result="offset"/>
<feComposite in="fbSourceGraphic" in2="offset" result="composite2"/>
</filter>
<filter id="filter886" color-interpolation-filters="sRGB">
<feFlood flood-color="rgb(0,0,0)" flood-opacity=".2" result="flood"/>
<feComposite in="flood" in2="SourceGraphic" operator="in" result="composite1"/>
<feGaussianBlur in="composite1" result="blur"/>
<feOffset dx="0" dy="1" result="offset"/>
<feComposite in="SourceGraphic" in2="offset" result="fbSourceGraphic"/>
<feColorMatrix in="fbSourceGraphic" result="fbSourceGraphicAlpha" values="0 0 0 -1 0 0 0 0 -1 0 0 0 0 -1 0 0 0 0 1 0"/>
<feFlood flood-color="rgb(255,255,255)" flood-opacity=".10196" in="fbSourceGraphic" result="flood"/>
<feComposite in="flood" in2="fbSourceGraphic" operator="out" result="composite1"/>
<feGaussianBlur in="composite1" result="blur"/>
<feOffset dx="0" dy="1" result="offset"/>
<feComposite in="offset" in2="fbSourceGraphic" operator="atop" result="composite2"/>
</filter>
</defs>
<g transform="matrix(1.0005 0 0 .98534 -.068084 -1.2162)" fill="#b9b9b9" filter="url(#filter886)" stroke="#b9b9b9">
<rect transform="rotate(90)" x="4.7817" y="-6.5621" width="36.545" height="3.9922" color="#000000" display="block" stroke-width="1.0055"/>
<rect transform="rotate(90)" x="4.7866" y="-3.0314" width="36.543" height=".4677" color="#000000" display="block"/>
<path d="m17.095 21.253c0-0.78348-0.62279-1.2571-1.4062-1.2514h-7.0938v-3.7798c0-0.78348-0.62277-1.4062-1.4062-1.4062h-4.2188c-0.78347 0-1.4062 0.62277-1.4062 1.4062v13.188c0 0.78347 0.62278 1.4062 1.4062 1.4062h4.2188c0.78348 0 1.4062-0.62278 1.4062-1.4062v-3.2376h7.0938c0.78348 0 1.4062-0.41636 1.4062-1.1998z" color="#000000" display="block"/>
</g>
<path d="m12.346 36.441c-0.42291-0.042-0.84582-0.49959-0.84582-0.9152v-31.274c0-0.41561 0.42291-0.78923 0.84582-0.74723l27.328 2.7085c0.42291 0.041998 0.84582 0.49959 0.84582 0.9152v12.78c0 0.59317 0.38177 1.2145 0.96594 1.4092l3.3462 1.1079c0.51024 0.17 0.74009 0.54958 0.74009 1.3204v15.004c0 0.41561-0.42291 0.78923-0.84582 0.74723z" color="#000000" fill="#b9b9b9" filter="url(#filter862)" stroke="#b9b9b9" stroke-linecap="round" stroke-linejoin="round" stroke-width=".99998"/>
<path d="m11.924 3.6018c-0.2121 0.1023-0.42421 0.30691-0.42421 0.61382v32.942c0 0.20462 0.12668 0.51542 0.26515 0.70037 0.39272 0.52457 0.61423 0.64765 0.9764 0.88295 3.7266 2.4211 19.334 5.7413 19.334 5.7413 0.21209 0.1023 0.42419-0.1023 0.42419-0.40921v-34.54c0-0.30691-16.155-1.6377-19.345-4.8095l-1.2313-1.2246z" color="#000000" display="block" fill="#6194cb" filter="url(#filter838)" stroke="#6194cb" stroke-linejoin="round" stroke-width="1.0001"/>
</svg>
