<svg id="SVGRoot" width="48px" height="48px" version="1.1" viewBox="0 0 48 48" xmlns="http://www.w3.org/2000/svg">
<defs>
<filter id="filter936" color-interpolation-filters="sRGB">
<feFlood flood-color="rgb(255,255,255)" flood-opacity=".10196" result="flood"/>
<feComposite in="flood" in2="SourceGraphic" operator="out" result="composite1"/>
<feGaussianBlur in="composite1" result="blur"/>
<feOffset dx="0" dy="1" result="offset"/>
<feComposite in="offset" in2="SourceGraphic" operator="atop" result="fbSourceGraphic"/>
<feColorMatrix in="fbSourceGraphic" result="fbSourceGraphicAlpha" values="0 0 0 -1 0 0 0 0 -1 0 0 0 0 -1 0 0 0 0 1 0"/>
<feFlood flood-color="rgb(0,0,0)" flood-opacity=".2" in="fbSourceGraphic" result="flood"/>
<feComposite in="flood" in2="fbSourceGraphic" operator="in" result="composite1"/>
<feGaussianBlur in="composite1" result="blur"/>
<feOffset dx="0" dy="1" result="offset"/>
<feComposite in="fbSourceGraphic" in2="offset" result="composite2"/>
</filter>
<filter id="filter960" color-interpolation-filters="sRGB">
<feFlood flood-color="rgb(0,0,0)" flood-opacity=".2" result="flood"/>
<feComposite in="flood" in2="SourceGraphic" operator="in" result="composite1"/>
<feGaussianBlur in="composite1" result="blur"/>
<feOffset dx="0" dy="1" result="offset"/>
<feComposite in="SourceGraphic" in2="offset" result="fbSourceGraphic"/>
<feColorMatrix in="fbSourceGraphic" result="fbSourceGraphicAlpha" values="0 0 0 -1 0 0 0 0 -1 0 0 0 0 -1 0 0 0 0 1 0"/>
<feFlood flood-color="rgb(255,255,255)" flood-opacity=".10196" in="fbSourceGraphic" result="flood"/>
<feComposite in="flood" in2="fbSourceGraphic" operator="out" result="composite1"/>
<feGaussianBlur in="composite1" result="blur"/>
<feOffset dx="0" dy="1" result="offset"/>
<feComposite in="offset" in2="fbSourceGraphic" operator="atop" result="composite2"/>
</filter>
</defs>
<path d="m7.3275 35.563c-0.41735-0.02119-0.83469-0.44703-0.83469-0.85168v-30.451c0-0.40465 0.41735-0.78812 0.83469-0.76694l27.397 0.91023c0.41735 0.021188 0.87579 0.44703 0.87579 0.85167v12.9c0 0.47148 0.17351 1.1999 0.96647 1.3624l2.9003 0.59428c0.7375 0.15111 1.0404 0.85752 1.0404 1.2622v14.365c0 0.40466-0.41735 0.78812-0.83469 0.76694z" fill="#b9b9b9" filter="url(#filter960)" stroke="#b9b9b9" stroke-linecap="round" stroke-linejoin="round" stroke-width=".98562"/>
<path d="m6.5076 38.754c0.043959 1.1517 1.0936 1.9765 2.3154 2.0611 11.521 0.79722 21.18 1.6707 21.18 1.6707 0.24689 0.07264 0.49378-0.16906 0.49378-0.48343v-34.607l-21.815-1.8629c-0.9797-0.11533-1.8003-0.46921-2.1784-1.5605z" color="#000000" display="block" fill="#6194cb" filter="url(#filter936)" stroke="#6194cb" stroke-linejoin="round" stroke-width="1.0068"/>
<path d="m16.164 19.48c-0.33717-0.16738-0.69889-0.26987-1.0644-0.30373-1.4167-0.12394-2.6161 0.82229-2.805 2.2102-1.3713 0.3513-2.2941 1.5598-2.295 3.0103 0 1.8785 1.5215 3.5331 3.4 3.6975l10.2 0.89239c1.8785 0.16435 3.4-1.224 3.4-3.1025-9.44e-4 -1.4432-0.91422-2.8085-2.2761-3.4045 0.0047-0.06475 0.0066-0.12787 0.0094-0.19278 0-2.5037-2.0296-4.7118-4.5333-4.9308-1.7047-0.14915-3.2621 0.67321-4.0356 2.1242zm4.0347-0.2354 0.0019 1.65e-4c1.4818 0.12964 2.6426 1.3929 2.6435 2.8748-9.44e-4 0.02164-0.0038 0.05445-0.0038 0.06389-0.0595 0.84385 0.45617 1.6738 1.2599 2.0256 0.61106 0.2669 1.0096 0.86277 1.0106 1.5098 0 0.85756-0.65356 1.454-1.5111 1.3789l-10.2-0.89239c-0.85661-0.07494-1.5102-0.78473-1.5111-1.6414v-0.0019c9.44e-4 -0.64969 0.40422-1.1783 1.02-1.3359 0.67622-0.17317 1.1626-0.72467 1.258-1.4247 0.06517-0.47502 0.44956-0.77762 0.93122-0.73642 0.12183 0.01161 0.24083 0.04657 0.35133 0.10158 0.9095 0.45168 1.9522 0.15474 2.3979-0.68177 0.45239-0.85008 1.3562-1.3273 2.3517-1.2402z" fill="#fff" opacity=".75" stroke-width=".94444"/>
</svg>
