<svg id="SVGRoot" width="48px" height="48px" version="1.1" viewBox="0 0 48 48" xmlns="http://www.w3.org/2000/svg">
<defs>
<filter id="filter936" color-interpolation-filters="sRGB">
<feFlood flood-color="rgb(255,255,255)" flood-opacity=".10196" result="flood"/>
<feComposite in="flood" in2="SourceGraphic" operator="out" result="composite1"/>
<feGaussianBlur in="composite1" result="blur"/>
<feOffset dx="0" dy="1" result="offset"/>
<feComposite in="offset" in2="SourceGraphic" operator="atop" result="fbSourceGraphic"/>
<feColorMatrix in="fbSourceGraphic" result="fbSourceGraphicAlpha" values="0 0 0 -1 0 0 0 0 -1 0 0 0 0 -1 0 0 0 0 1 0"/>
<feFlood flood-color="rgb(0,0,0)" flood-opacity=".2" in="fbSourceGraphic" result="flood"/>
<feComposite in="flood" in2="fbSourceGraphic" operator="in" result="composite1"/>
<feGaussianBlur in="composite1" result="blur"/>
<feOffset dx="0" dy="1" result="offset"/>
<feComposite in="fbSourceGraphic" in2="offset" result="composite2"/>
</filter>
<filter id="filter960" color-interpolation-filters="sRGB">
<feFlood flood-color="rgb(0,0,0)" flood-opacity=".2" result="flood"/>
<feComposite in="flood" in2="SourceGraphic" operator="in" result="composite1"/>
<feGaussianBlur in="composite1" result="blur"/>
<feOffset dx="0" dy="1" result="offset"/>
<feComposite in="SourceGraphic" in2="offset" result="fbSourceGraphic"/>
<feColorMatrix in="fbSourceGraphic" result="fbSourceGraphicAlpha" values="0 0 0 -1 0 0 0 0 -1 0 0 0 0 -1 0 0 0 0 1 0"/>
<feFlood flood-color="rgb(255,255,255)" flood-opacity=".10196" in="fbSourceGraphic" result="flood"/>
<feComposite in="flood" in2="fbSourceGraphic" operator="out" result="composite1"/>
<feGaussianBlur in="composite1" result="blur"/>
<feOffset dx="0" dy="1" result="offset"/>
<feComposite in="offset" in2="fbSourceGraphic" operator="atop" result="composite2"/>
</filter>
</defs>
<g stroke-linejoin="round">
<path d="m7.3275 35.563c-0.41735-0.02119-0.83469-0.44703-0.83469-0.85168v-30.451c0-0.40465 0.41735-0.78812 0.83469-0.76694l27.397 0.91023c0.41735 0.021188 0.87579 0.44703 0.87579 0.85167v12.9c0 0.47148 0.17351 1.1999 0.96647 1.3624l2.9003 0.59428c0.7375 0.15111 1.0404 0.85752 1.0404 1.2622v14.365c0 0.40466-0.41735 0.78812-0.83469 0.76694z" fill="#b9b9b9" filter="url(#filter960)" stroke="#b9b9b9" stroke-linecap="round" stroke-width=".98562"/>
<path d="m6.5076 38.754c0.043959 1.1517 1.0936 1.9765 2.3154 2.0611 11.521 0.79722 21.18 1.6707 21.18 1.6707 0.24689 0.07264 0.49378-0.16906 0.49378-0.48343v-34.607l-21.815-1.8629c-0.9797-0.11533-1.8003-0.46921-2.1784-1.5605z" color="#000000" display="block" fill="#6194cb" filter="url(#filter936)" stroke="#6194cb" stroke-width="1.0068"/>
<path d="m16.332 17.322a2.7601 2.5291 44.201 0 0-2.6503 2.4034 2.7601 2.5291 44.201 0 0 2.6503 2.8642 2.7601 2.5291 44.201 0 0 1.2122-0.18642 3.0077 2.7536 42.334 0 0 0.19199 0.86032 2.7601 2.5291 44.201 0 1-1.4042 0.28383 2.7601 2.5291 44.201 0 1-2.0028-1.0889c-2.114 1.163-2.3774 2.9416-1.8739 4.0468 0.52298 1.1481 1.4087 1.4197 2.4649 1.5115l1.1812 0.10269c0.02249 0.30012 0.09466 0.58216 0.20894 0.82909 0.52259 1.1292 1.4076 1.3982 2.463 1.4899l3.518 0.30588c0.99674 0.08666 1.9836-0.173 2.3454-1.127 0.33272-0.87753 0.07044-2.6002-1.9707-4.1941a3.0077 2.7536 42.334 0 1-1.7647 0.85015c-0.01699-0.29092-0.07984-0.61047-0.20423-0.95031a3.0077 2.7536 42.334 0 0 2.6296-2.6175 3.0077 2.7536 42.334 0 0-2.895-3.1119 3.0077 2.7536 42.334 0 0-1.472 0.27326 2.7601 2.5291 44.201 0 0-2.6277-2.5452z" color="#000000" fill="#fff" fill-rule="evenodd" opacity=".75" stroke="#fff" stroke-linecap="round" stroke-width=".48037px"/>
</g>
</svg>
