<svg id="SVGRoot" width="48px" height="48px" version="1.1" viewBox="0 0 48 48" xmlns="http://www.w3.org/2000/svg">
<defs>
<filter id="filter936" color-interpolation-filters="sRGB">
<feFlood flood-color="rgb(255,255,255)" flood-opacity=".10196" result="flood"/>
<feComposite in="flood" in2="SourceGraphic" operator="out" result="composite1"/>
<feGaussianBlur in="composite1" result="blur"/>
<feOffset dx="0" dy="1" result="offset"/>
<feComposite in="offset" in2="SourceGraphic" operator="atop" result="fbSourceGraphic"/>
<feColorMatrix in="fbSourceGraphic" result="fbSourceGraphicAlpha" values="0 0 0 -1 0 0 0 0 -1 0 0 0 0 -1 0 0 0 0 1 0"/>
<feFlood flood-color="rgb(0,0,0)" flood-opacity=".2" in="fbSourceGraphic" result="flood"/>
<feComposite in="flood" in2="fbSourceGraphic" operator="in" result="composite1"/>
<feGaussianBlur in="composite1" result="blur"/>
<feOffset dx="0" dy="1" result="offset"/>
<feComposite in="fbSourceGraphic" in2="offset" result="composite2"/>
</filter>
<filter id="filter960" color-interpolation-filters="sRGB">
<feFlood flood-color="rgb(0,0,0)" flood-opacity=".2" result="flood"/>
<feComposite in="flood" in2="SourceGraphic" operator="in" result="composite1"/>
<feGaussianBlur in="composite1" result="blur"/>
<feOffset dx="0" dy="1" result="offset"/>
<feComposite in="SourceGraphic" in2="offset" result="fbSourceGraphic"/>
<feColorMatrix in="fbSourceGraphic" result="fbSourceGraphicAlpha" values="0 0 0 -1 0 0 0 0 -1 0 0 0 0 -1 0 0 0 0 1 0"/>
<feFlood flood-color="rgb(255,255,255)" flood-opacity=".10196" in="fbSourceGraphic" result="flood"/>
<feComposite in="flood" in2="fbSourceGraphic" operator="out" result="composite1"/>
<feGaussianBlur in="composite1" result="blur"/>
<feOffset dx="0" dy="1" result="offset"/>
<feComposite in="offset" in2="fbSourceGraphic" operator="atop" result="composite2"/>
</filter>
</defs>
<path d="m7.3275 35.563c-0.41735-0.02119-0.83469-0.44703-0.83469-0.85168v-30.451c0-0.40465 0.41735-0.78812 0.83469-0.76694l27.397 0.91023c0.41735 0.021188 0.87579 0.44703 0.87579 0.85167v12.9c0 0.47148 0.17351 1.1999 0.96647 1.3624l2.9003 0.59428c0.7375 0.15111 1.0404 0.85752 1.0404 1.2622v14.365c0 0.40466-0.41735 0.78812-0.83469 0.76694z" fill="#b9b9b9" filter="url(#filter960)" stroke="#b9b9b9" stroke-linecap="round" stroke-linejoin="round" stroke-width=".98562"/>
<path d="m6.5076 38.754c0.043959 1.1517 1.0936 1.9765 2.3154 2.0611 11.521 0.79722 21.18 1.6707 21.18 1.6707 0.24689 0.07264 0.49378-0.16906 0.49378-0.48343v-34.607l-21.815-1.8629c-0.9797-0.11533-1.8003-0.46921-2.1784-1.5605z" color="#000000" display="block" fill="#6194cb" filter="url(#filter936)" stroke="#6194cb" stroke-linejoin="round" stroke-width="1.0068"/>
<g transform="matrix(1 .078702 0 1 1 -.93604)" fill="#fff" stroke-width=".8286">
<path d="m22 24.502c-9.17e-4 -0.66314 0.26164-1.2993 0.72988-1.7685 0.46817-0.46917 1.1036-0.73305 1.7664-0.73366 0.66285-6.08e-4 1.299 0.26206 1.7684 0.73021 0.46949 0.46817 0.73396 1.1036 0.73521 1.7664 0.0012 0.66298-0.26088 1.2992-0.72879 1.7687-0.46798 0.46957-1.1034 0.7339-1.7666 0.73475-0.66324 8.13e-4 -1.2999-0.26186-1.7695-0.73036-0.46973-0.46849-0.73414-1.1044-0.73507-1.7675" opacity=".75"/>
<path d="m15 24.502c-9.17e-4 -0.66314 0.26164-1.2993 0.72988-1.7685 0.46817-0.46917 1.1036-0.73305 1.7664-0.73366 0.66285-6.08e-4 1.299 0.26206 1.7684 0.73021 0.46949 0.46817 0.73396 1.1036 0.73521 1.7664 0.0012 0.66298-0.26088 1.2992-0.72879 1.7687-0.46798 0.46957-1.1034 0.7339-1.7666 0.73475-0.66324 8.13e-4 -1.2999-0.26186-1.7695-0.73036-0.46973-0.46849-0.73414-1.1044-0.73507-1.7675" opacity=".75"/>
<path d="m8 24.502c-9.167e-4 -0.66314 0.26164-1.2993 0.72988-1.7685 0.46817-0.46917 1.1036-0.73305 1.7664-0.73366 0.66285-6.08e-4 1.299 0.26206 1.7684 0.73021 0.46949 0.46817 0.73396 1.1036 0.73521 1.7664 0.0013 0.66298-0.26088 1.2992-0.72879 1.7687-0.46798 0.46957-1.1034 0.7339-1.7666 0.73475-0.66324 8.13e-4 -1.2999-0.26186-1.7695-0.73036-0.46973-0.46849-0.73414-1.1044-0.73507-1.7675" opacity=".75"/>
</g>
</svg>
