<svg id="SVGRoot" width="48px" height="48px" version="1.1" viewBox="0 0 48 48" xmlns="http://www.w3.org/2000/svg">
<defs>
<filter id="filter936" color-interpolation-filters="sRGB">
<feFlood flood-color="rgb(255,255,255)" flood-opacity=".10196" result="flood"/>
<feComposite in="flood" in2="SourceGraphic" operator="out" result="composite1"/>
<feGaussianBlur in="composite1" result="blur"/>
<feOffset dx="0" dy="1" result="offset"/>
<feComposite in="offset" in2="SourceGraphic" operator="atop" result="fbSourceGraphic"/>
<feColorMatrix in="fbSourceGraphic" result="fbSourceGraphicAlpha" values="0 0 0 -1 0 0 0 0 -1 0 0 0 0 -1 0 0 0 0 1 0"/>
<feFlood flood-color="rgb(0,0,0)" flood-opacity=".2" in="fbSourceGraphic" result="flood"/>
<feComposite in="flood" in2="fbSourceGraphic" operator="in" result="composite1"/>
<feGaussianBlur in="composite1" result="blur"/>
<feOffset dx="0" dy="1" result="offset"/>
<feComposite in="fbSourceGraphic" in2="offset" result="composite2"/>
</filter>
<filter id="filter960" color-interpolation-filters="sRGB">
<feFlood flood-color="rgb(0,0,0)" flood-opacity=".2" result="flood"/>
<feComposite in="flood" in2="SourceGraphic" operator="in" result="composite1"/>
<feGaussianBlur in="composite1" result="blur"/>
<feOffset dx="0" dy="1" result="offset"/>
<feComposite in="SourceGraphic" in2="offset" result="fbSourceGraphic"/>
<feColorMatrix in="fbSourceGraphic" result="fbSourceGraphicAlpha" values="0 0 0 -1 0 0 0 0 -1 0 0 0 0 -1 0 0 0 0 1 0"/>
<feFlood flood-color="rgb(255,255,255)" flood-opacity=".10196" in="fbSourceGraphic" result="flood"/>
<feComposite in="flood" in2="fbSourceGraphic" operator="out" result="composite1"/>
<feGaussianBlur in="composite1" result="blur"/>
<feOffset dx="0" dy="1" result="offset"/>
<feComposite in="offset" in2="fbSourceGraphic" operator="atop" result="composite2"/>
</filter>
</defs>
<path d="m7.3275 35.563c-0.41735-0.02119-0.83469-0.44703-0.83469-0.85168v-30.451c0-0.40465 0.41735-0.78812 0.83469-0.76694l27.397 0.91023c0.41735 0.021188 0.87579 0.44703 0.87579 0.85167v12.9c0 0.47148 0.17351 1.1999 0.96647 1.3624l2.9003 0.59428c0.7375 0.15111 1.0404 0.85752 1.0404 1.2622v14.365c0 0.40466-0.41735 0.78812-0.83469 0.76694z" fill="#b9b9b9" filter="url(#filter960)" stroke="#b9b9b9" stroke-linecap="round" stroke-linejoin="round" stroke-width=".98562"/>
<path d="m6.5076 38.754c0.043959 1.1517 1.0936 1.9765 2.3154 2.0611 11.521 0.79722 21.18 1.6707 21.18 1.6707 0.24689 0.07264 0.49378-0.16906 0.49378-0.48343v-34.607l-21.815-1.8629c-0.9797-0.11533-1.8003-0.46921-2.1784-1.5605z" color="#000000" display="block" fill="#6194cb" filter="url(#filter936)" stroke="#6194cb" stroke-linejoin="round" stroke-width="1.0068"/>
<path d="m18.5 15.588c-4.1419-0.36236-7.5 2.702-7.5 6.8438s3.3581 7.7938 7.5 8.1562l4.6875 0.4101s0.87844 0.07686 0.9375-0.85548c0-0.9375-0.9375-1.0195-0.9375-1.0195l-4.6875-0.4101c-3.1069-0.27182-5.625-3.0102-5.625-6.1171s2.5181-5.4047 5.625-5.1329c3.1069 0.27178 5.625 3.0102 5.625 6.1171v0.9375c0 0.5175-0.42 0.90075-0.9375 0.85548s-0.9375-0.50202-0.9375-1.0195v-0.9375c0-2.0709-1.6791-3.8969-3.75-4.0781s-3.75 1.3509-3.75 3.4219c0 2.0709 1.6791 3.8969 3.75 4.0781 0.98062 0.08579 1.8656-0.22209 2.5341-0.77955 0.53438 0.68144 1.3228 1.1169 2.1534 1.1897 1.5534 0.13591 2.8125-1.0139 2.8125-2.5664v-0.9375c0-4.1419-3.3581-7.7938-7.5-8.1562zm0 5.625c1.0359 0.09064 1.875 1.0031 1.875 2.0391 0 1.0359-0.83906 1.8016-1.875 1.7109-1.0359-0.09064-1.875-1.0031-1.875-2.0391 0-1.0359 0.83906-1.8016 1.875-1.7109z" fill="#fff" opacity=".75" stroke-width=".9375"/>
</svg>
