<svg id="SVGRoot" width="48px" height="48px" version="1.1" viewBox="0 0 48 48" xmlns="http://www.w3.org/2000/svg">
<defs>
<filter id="filter936" color-interpolation-filters="sRGB">
<feFlood flood-color="rgb(255,255,255)" flood-opacity=".10196" result="flood"/>
<feComposite in="flood" in2="SourceGraphic" operator="out" result="composite1"/>
<feGaussianBlur in="composite1" result="blur"/>
<feOffset dx="0" dy="1" result="offset"/>
<feComposite in="offset" in2="SourceGraphic" operator="atop" result="fbSourceGraphic"/>
<feColorMatrix in="fbSourceGraphic" result="fbSourceGraphicAlpha" values="0 0 0 -1 0 0 0 0 -1 0 0 0 0 -1 0 0 0 0 1 0"/>
<feFlood flood-color="rgb(0,0,0)" flood-opacity=".2" in="fbSourceGraphic" result="flood"/>
<feComposite in="flood" in2="fbSourceGraphic" operator="in" result="composite1"/>
<feGaussianBlur in="composite1" result="blur"/>
<feOffset dx="0" dy="1" result="offset"/>
<feComposite in="fbSourceGraphic" in2="offset" result="composite2"/>
</filter>
<filter id="filter960" color-interpolation-filters="sRGB">
<feFlood flood-color="rgb(0,0,0)" flood-opacity=".2" result="flood"/>
<feComposite in="flood" in2="SourceGraphic" operator="in" result="composite1"/>
<feGaussianBlur in="composite1" result="blur"/>
<feOffset dx="0" dy="1" result="offset"/>
<feComposite in="SourceGraphic" in2="offset" result="fbSourceGraphic"/>
<feColorMatrix in="fbSourceGraphic" result="fbSourceGraphicAlpha" values="0 0 0 -1 0 0 0 0 -1 0 0 0 0 -1 0 0 0 0 1 0"/>
<feFlood flood-color="rgb(255,255,255)" flood-opacity=".10196" in="fbSourceGraphic" result="flood"/>
<feComposite in="flood" in2="fbSourceGraphic" operator="out" result="composite1"/>
<feGaussianBlur in="composite1" result="blur"/>
<feOffset dx="0" dy="1" result="offset"/>
<feComposite in="offset" in2="fbSourceGraphic" operator="atop" result="composite2"/>
</filter>
</defs>
<path d="m7.3275 35.563c-0.41735-0.02119-0.83469-0.44703-0.83469-0.85168v-30.451c0-0.40465 0.41735-0.78812 0.83469-0.76694l27.397 0.91023c0.41735 0.021188 0.87579 0.44703 0.87579 0.85167v12.9c0 0.47148 0.17351 1.1999 0.96647 1.3624l2.9003 0.59428c0.7375 0.15111 1.0404 0.85752 1.0404 1.2622v14.365c0 0.40466-0.41735 0.78812-0.83469 0.76694z" fill="#b9b9b9" filter="url(#filter960)" stroke="#b9b9b9" stroke-linecap="round" stroke-linejoin="round" stroke-width=".98562"/>
<path d="m6.5076 38.754c0.043959 1.1517 1.0936 1.9765 2.3154 2.0611 11.521 0.79722 21.18 1.6707 21.18 1.6707 0.24689 0.07264 0.49378-0.16906 0.49378-0.48343v-34.607l-21.815-1.8629c-0.9797-0.11533-1.8003-0.46921-2.1784-1.5605z" color="#000000" display="block" fill="#6194cb" filter="url(#filter936)" stroke="#6194cb" stroke-linejoin="round" stroke-width="1.0068"/>
<path d="m16.803 16.608s0.76514 0.49873 0.22472 1.5871c-0.81807 1.6388 0.75493 2.1674 0.75493 2.1674s-0.49957-0.44485 0.16622-1.7989c0.73636-1.5002-1.1459-1.9556-1.1459-1.9556zm2.9705 1.9685s-1.5247 0.4516-0.54228 2.1356c0.65 1.1163-0.07057 1.5789-0.07057 1.5789s1.8432-0.36153 0.95364-1.9018c-0.79857-1.3921-0.34079-1.8127-0.34079-1.8127zm-4.3903-0.34046s-1.3353 0.89996-0.013 2.2655c0.87378 0.90845 0.30086 1.5788 0.30086 1.5788s1.6556-0.90722 0.45871-2.1615c-1.0799-1.1316-0.74657-1.6828-0.74657-1.6828zm0.28786 3.8444-3.6706-0.32114 1.8571 7.5911 7.4286 0.64992 0.25536-0.99719c0.21636 0.07279 0.44014 0.12951 0.67322 0.1499 1.5386 0.13462 2.7857-1.0033 2.7857-2.542 0-1.3056-0.90071-2.4718-2.1125-2.8795l0.25536-0.99719zm6.9931 2.5266a0.94835 1.8184 13.758 0 1 0.03157 0.0084 0.94835 1.8184 13.758 0 1 0.41693 2.0719 0.94835 1.8184 13.758 0 1-1.3474 1.4403z" fill="#fff" opacity=".75" stroke-width=".92857"/>
</svg>
