<svg id="SVGRoot" width="48px" height="48px" version="1.1" viewBox="0 0 48 48" xmlns="http://www.w3.org/2000/svg">
<defs>
<filter id="filter960" color-interpolation-filters="sRGB">
<feFlood flood-color="rgb(0,0,0)" flood-opacity=".2" result="flood"/>
<feComposite in="flood" in2="SourceGraphic" operator="in" result="composite1"/>
<feGaussianBlur in="composite1" result="blur"/>
<feOffset dx="0" dy="1" result="offset"/>
<feComposite in="SourceGraphic" in2="offset" result="fbSourceGraphic"/>
<feColorMatrix in="fbSourceGraphic" result="fbSourceGraphicAlpha" values="0 0 0 -1 0 0 0 0 -1 0 0 0 0 -1 0 0 0 0 1 0"/>
<feFlood flood-color="rgb(255,255,255)" flood-opacity=".10196" in="fbSourceGraphic" result="flood"/>
<feComposite in="flood" in2="fbSourceGraphic" operator="out" result="composite1"/>
<feGaussianBlur in="composite1" result="blur"/>
<feOffset dx="0" dy="1" result="offset"/>
<feComposite in="offset" in2="fbSourceGraphic" operator="atop" result="composite2"/>
</filter>
<filter id="filter1310" color-interpolation-filters="sRGB">
<feFlood flood-color="rgb(0,0,0)" flood-opacity=".2" result="flood"/>
<feComposite in="flood" in2="SourceGraphic" operator="in" result="composite1"/>
<feGaussianBlur in="composite1" result="blur"/>
<feOffset dx="0" dy="1" result="offset"/>
<feComposite in="SourceGraphic" in2="offset" result="fbSourceGraphic"/>
<feColorMatrix in="fbSourceGraphic" result="fbSourceGraphicAlpha" values="0 0 0 -1 0 0 0 0 -1 0 0 0 0 -1 0 0 0 0 1 0"/>
<feFlood flood-color="rgb(255,255,255)" flood-opacity=".10196" in="fbSourceGraphic" result="flood"/>
<feComposite in="flood" in2="fbSourceGraphic" operator="out" result="composite1"/>
<feGaussianBlur in="composite1" result="blur"/>
<feOffset dx="0" dy="1" result="offset"/>
<feComposite in="offset" in2="fbSourceGraphic" operator="atop" result="composite2"/>
</filter>
</defs>
<path d="m7.3275 35.563c-0.41735-0.02119-0.83469-0.44703-0.83469-0.85168v-30.451c0-0.40465 0.41735-0.78812 0.83469-0.76694l27.397 0.91023c0.41735 0.021188 0.87579 0.44703 0.87579 0.85167v12.9c0 0.47148 0.17351 1.1999 0.96647 1.3624l2.9003 0.59428c0.7375 0.15111 1.0404 0.85752 1.0404 1.2622v14.365c0 0.40466-0.41735 0.78812-0.83469 0.76694z" fill="#b9b9b9" filter="url(#filter960)" stroke="#b9b9b9" stroke-linecap="round" stroke-linejoin="round" stroke-width=".98562"/>
<path d="m6.5076 38.754c0.043959 1.1517 1.0936 1.9765 2.3154 2.0611 11.521 0.79722 21.18 1.6707 21.18 1.6707 0.24689 0.07264 0.49378-0.16906 0.49378-0.48343v-34.607l-21.815-1.8629c-0.9797-0.11533-1.8003-0.46921-2.1784-1.5605z" color="#000000" display="block" fill="#6194cb" filter="url(#filter1310)" stroke="#6194cb" stroke-linejoin="round" stroke-width="1.0068"/>
<path d="m17.649 17.747c-3.3339-0.29168-2.5586 2.8213-4.2649 3.5889-0.05907 0.02859-0.09188 0.05666-0.14438 0.08488 1.1251-0.57191 2.5126-1.0102 3.9864-1.261 1.2479-0.2124 2.5126-0.28176 3.6799-0.20214l0.09 0.0079c-1.125-0.41816-1.2488-2.035-3.347-2.2185zm3.633 3.0883c-1.1672-0.07962-2.4329-0.01034-3.6808 0.20112-4.1121 0.69873-7.0438 2.7439-6.5459 4.5679 0.28595 1.0423 1.666 1.8343 3.7221 2.136-9.38e-4 -0.0076-0.0028-0.01431-0.0038-0.02189-0.11063-0.97252 0.49971-1.7564 1.216-2.2618 0.71628-0.50455 1.637-0.83652 2.672-0.96539 1.0341-0.12891 2.0026-0.03386 2.8126 0.28077 0.76129 0.2963 1.4776 0.85868 1.6529 1.7328 2.0617-0.97561 3.1305-2.2753 2.8201-3.4284-0.32814-1.2081-2.117-2.0678-4.6652-2.241zm-1.2235 4.5788a1.7706 3.3005 82.644 0 0-1.291 0.02019 1.7706 3.3005 82.644 0 0-3.0742 2.1686 1.7706 3.3005 82.644 0 0 3.4774 1.3496 1.7706 3.3005 82.644 0 0 3.0723-2.1679 1.7706 3.3005 82.644 0 0-2.1845-1.3705z" fill="#fff" opacity=".75" stroke-width=".93755"/>
</svg>
