<svg id="SVGRoot" width="48px" height="48px" version="1.1" viewBox="0 0 48 48" xmlns="http://www.w3.org/2000/svg">
<defs>
<filter id="filter936" color-interpolation-filters="sRGB">
<feFlood flood-color="rgb(255,255,255)" flood-opacity=".10196" result="flood"/>
<feComposite in="flood" in2="SourceGraphic" operator="out" result="composite1"/>
<feGaussianBlur in="composite1" result="blur"/>
<feOffset dx="0" dy="1" result="offset"/>
<feComposite in="offset" in2="SourceGraphic" operator="atop" result="fbSourceGraphic"/>
<feColorMatrix in="fbSourceGraphic" result="fbSourceGraphicAlpha" values="0 0 0 -1 0 0 0 0 -1 0 0 0 0 -1 0 0 0 0 1 0"/>
<feFlood flood-color="rgb(0,0,0)" flood-opacity=".2" in="fbSourceGraphic" result="flood"/>
<feComposite in="flood" in2="fbSourceGraphic" operator="in" result="composite1"/>
<feGaussianBlur in="composite1" result="blur"/>
<feOffset dx="0" dy="1" result="offset"/>
<feComposite in="fbSourceGraphic" in2="offset" result="composite2"/>
</filter>
<filter id="filter960" color-interpolation-filters="sRGB">
<feFlood flood-color="rgb(0,0,0)" flood-opacity=".2" result="flood"/>
<feComposite in="flood" in2="SourceGraphic" operator="in" result="composite1"/>
<feGaussianBlur in="composite1" result="blur"/>
<feOffset dx="0" dy="1" result="offset"/>
<feComposite in="SourceGraphic" in2="offset" result="fbSourceGraphic"/>
<feColorMatrix in="fbSourceGraphic" result="fbSourceGraphicAlpha" values="0 0 0 -1 0 0 0 0 -1 0 0 0 0 -1 0 0 0 0 1 0"/>
<feFlood flood-color="rgb(255,255,255)" flood-opacity=".10196" in="fbSourceGraphic" result="flood"/>
<feComposite in="flood" in2="fbSourceGraphic" operator="out" result="composite1"/>
<feGaussianBlur in="composite1" result="blur"/>
<feOffset dx="0" dy="1" result="offset"/>
<feComposite in="offset" in2="fbSourceGraphic" operator="atop" result="composite2"/>
</filter>
</defs>
<path d="m7.3275 35.563c-0.41735-0.02119-0.83469-0.44703-0.83469-0.85168v-30.451c0-0.40465 0.41735-0.78812 0.83469-0.76694l27.397 0.91023c0.41735 0.021188 0.87579 0.44703 0.87579 0.85167v12.9c0 0.47148 0.17351 1.1999 0.96647 1.3624l2.9003 0.59428c0.7375 0.15111 1.0404 0.85752 1.0404 1.2622v14.365c0 0.40466-0.41735 0.78812-0.83469 0.76694z" fill="#b9b9b9" filter="url(#filter960)" stroke="#b9b9b9" stroke-linecap="round" stroke-linejoin="round" stroke-width=".98562"/>
<path d="m6.5076 38.754c0.043959 1.1517 1.0936 1.9765 2.3154 2.0611 11.521 0.79722 21.18 1.6707 21.18 1.6707 0.24689 0.07264 0.49378-0.16906 0.49378-0.48343v-34.607l-21.815-1.8629c-0.9797-0.11533-1.8003-0.46921-2.1784-1.5605z" color="#000000" display="block" fill="#6194cb" filter="url(#filter936)" stroke="#6194cb" stroke-linejoin="round" stroke-width="1.0068"/>
<g transform="matrix(.45316 .04003 0 .45753 10.641 10.945)">
<path d="m19.018 11.574c-0.36798 0-0.67529 0.20597-0.84961 0.5h-0.4082l-1.1172 6.4082-1.3086 1.1758s-4.5392 0.14592-8.0586 0.80274c-3.5194 0.65681-4.2773 1.778-4.2773 2.6113l0.0957 11.768h0.23633c0.47154 0.70845 2.1493 1.2344 4.166 1.2344 2.016 0 3.6918-0.52631 4.1641-1.2344h2.9629a7.5 7.3226 0 0 1-0.4375-2.4414 7.5 7.3226 0 0 1 7.5-7.3242 7.5 7.3226 0 0 1 7.5 7.3242 7.5 7.3226 0 0 1-0.4375 2.4414h1.4395c0.74998 0.06944 1.498-0.79124 1.498-1.2773v-12.131c-0.06818-0.76387-2.6793-1.6669-3.293-1.7363h-1.6406l-1.002-1.0781-1.3906-6.543h-0.2793c-0.17428-0.29422-0.48149-0.5-0.84961-0.5zm0.02148 4.5352h4.2422l0.60352 1.4648h-5.3516zm-4.4121 18.738a7.5 7.3226 0 0 0 0.26562 0.63281 7.5 7.3226 0 0 1-0.26562-0.63281zm14.043 0.19727a7.5 7.3226 0 0 1-0.29492 0.64648 7.5 7.3226 0 0 0 0.29492-0.64648zm-13.754 0.48828a7.5 7.3226 0 0 0 0.33398 0.60938 7.5 7.3226 0 0 1-0.33398-0.60938zm13.443 0.18945a7.5 7.3226 0 0 1-0.36523 0.62109 7.5 7.3226 0 0 0 0.36523-0.62109zm-13.092 0.44727a7.5 7.3226 0 0 0 0.36914 0.54297 7.5 7.3226 0 0 1-0.36914-0.54297zm0.36914 0.54297a7.5 7.3226 0 0 0 0.0625 0.08398 7.5 7.3226 0 0 1-0.0625-0.08398zm0.0625 0.08398a7.5 7.3226 0 0 0 0.38672 0.45898 7.5 7.3226 0 0 1-0.38672-0.45898zm0.38672 0.45898a7.5 7.3226 0 0 0 0.10352 0.11524 7.5 7.3226 0 0 1-0.10352-0.11524zm0.10352 0.11524a7.5 7.3226 0 0 0 0.41406 0.40039 7.5 7.3226 0 0 1-0.41406-0.40039zm0.41406 0.40039a7.5 7.3226 0 0 0 0.12305 0.11133 7.5 7.3226 0 0 1-0.12305-0.11133zm0.12305 0.11133a7.5 7.3226 0 0 0 0.45898 0.36133 7.5 7.3226 0 0 1-0.45898-0.36133zm0.45898 0.36133a7.5 7.3226 0 0 0 0.12305 0.0918 7.5 7.3226 0 0 1-0.12305-0.0918zm0.12305 0.0918a7.5 7.3226 0 0 0 0.48047 0.30859 7.5 7.3226 0 0 1-0.48047-0.30859zm0.48047 0.30859a7.5 7.3226 0 0 0 0.15625 0.09375 7.5 7.3226 0 0 1-0.15625-0.09375zm0.15625 0.09375a7.5 7.3226 0 0 0 0.50977 0.25781 7.5 7.3226 0 0 1-0.50977-0.25781zm0.50977 0.25781a7.5 7.3226 0 0 0 0.1582 0.07422 7.5 7.3226 0 0 1-0.1582-0.07422zm0.1582 0.07422a7.5 7.3226 0 0 0 0.46875 0.18555 7.5 7.3226 0 0 1-0.46875-0.18555zm0.46875 0.18555a7.5 7.3226 0 0 0 0.26562 0.09375 7.5 7.3226 0 0 1-0.26562-0.09375zm0.26562 0.09375a7.5 7.3226 0 0 0 0.40039 0.11328 7.5 7.3226 0 0 1-0.40039-0.11328zm0.40039 0.11328a7.5 7.3226 0 0 0 0.33203 0.08203 7.5 7.3226 0 0 1-0.33203-0.08203zm0.33203 0.08203a7.5 7.3226 0 0 0 0.39062 0.07031 7.5 7.3226 0 0 1-0.39062-0.07031zm0.39062 0.07031a7.5 7.3226 0 0 0 0.35156 0.05078 7.5 7.3226 0 0 1-0.35156-0.05078zm0.35156 0.05078a7.5 7.3226 0 0 0 0.39258 0.03125 7.5 7.3226 0 0 1-0.39258-0.03125zm0.39258 0.03125a7.5 7.3226 0 0 0 0.4707 0.02344 7.5 7.3226 0 0 1-0.4707-0.02344zm0.4707 0.02344a7.5 7.3226 0 0 0 0.63086-0.03125 7.5 7.3226 0 0 1-0.63086 0.03125zm0.63086-0.03125a7.5 7.3226 0 0 0 0.36914-0.04297 7.5 7.3226 0 0 1-0.36914 0.04297zm0.36914-0.04297a7.5 7.3226 0 0 0 0.40234-0.06055 7.5 7.3226 0 0 1-0.40234 0.06055zm0.40234-0.06055a7.5 7.3226 0 0 0 0.28516-0.0625 7.5 7.3226 0 0 1-0.28516 0.0625zm0.28516-0.0625a7.5 7.3226 0 0 0 0.45117-0.11328 7.5 7.3226 0 0 1-0.45117 0.11328zm0.45117-0.11328a7.5 7.3226 0 0 0 0.24023-0.07813 7.5 7.3226 0 0 1-0.24023 0.07813zm0.24023-0.07813a7.5 7.3226 0 0 0 0.49024-0.17578 7.5 7.3226 0 0 1-0.49024 0.17578zm0.49024-0.17578a7.5 7.3226 0 0 0 0.16211-0.07031 7.5 7.3226 0 0 1-0.16211 0.07031zm0.16211-0.07031a7.5 7.3226 0 0 0 0.51758-0.24414 7.5 7.3226 0 0 1-0.51758 0.24414zm0.51758-0.24414a7.5 7.3226 0 0 0 0.15039-0.08398 7.5 7.3226 0 0 1-0.15039 0.08398zm0.15039-0.08398a7.5 7.3226 0 0 0 0.48828-0.29297 7.5 7.3226 0 0 1-0.48828 0.29297zm0.48828-0.29297a7.5 7.3226 0 0 0 0.14844-0.10352 7.5 7.3226 0 0 1-0.14844 0.10352zm0.14844-0.10352a7.5 7.3226 0 0 0 0.45117-0.33594 7.5 7.3226 0 0 1-0.45117 0.33594zm0.45117-0.33594a7.5 7.3226 0 0 0 0.125-0.10547 7.5 7.3226 0 0 1-0.125 0.10547zm0.125-0.10547a7.5 7.3226 0 0 0 0.45312-0.41406 7.5 7.3226 0 0 1-0.45312 0.41406zm1.3945-1.5703a7.5 7.3226 0 0 1-0.42383 0.57617 7.5 7.3226 0 0 0 0.42383-0.57617zm-0.44141 0.60156a7.5 7.3226 0 0 1-0.46289 0.51562 7.5 7.3226 0 0 0 0.46289-0.51562z" color="#000000" display="block" fill="#fff" opacity=".75"/>
<ellipse cx="21.686" cy="32.376" rx="6.5799" ry="6.4243" color="#000000" display="block" fill="none" opacity=".75" stroke="#fff" stroke-width="1.8401"/>
</g>
</svg>
