<svg id="SVGRoot" width="48px" height="48px" version="1.1" viewBox="0 0 48 48" xmlns="http://www.w3.org/2000/svg">
<defs>
<filter id="filter936" color-interpolation-filters="sRGB">
<feFlood flood-color="rgb(255,255,255)" flood-opacity=".10196" result="flood"/>
<feComposite in="flood" in2="SourceGraphic" operator="out" result="composite1"/>
<feGaussianBlur in="composite1" result="blur"/>
<feOffset dx="0" dy="1" result="offset"/>
<feComposite in="offset" in2="SourceGraphic" operator="atop" result="fbSourceGraphic"/>
<feColorMatrix in="fbSourceGraphic" result="fbSourceGraphicAlpha" values="0 0 0 -1 0 0 0 0 -1 0 0 0 0 -1 0 0 0 0 1 0"/>
<feFlood flood-color="rgb(0,0,0)" flood-opacity=".2" in="fbSourceGraphic" result="flood"/>
<feComposite in="flood" in2="fbSourceGraphic" operator="in" result="composite1"/>
<feGaussianBlur in="composite1" result="blur"/>
<feOffset dx="0" dy="1" result="offset"/>
<feComposite in="fbSourceGraphic" in2="offset" result="composite2"/>
</filter>
<filter id="filter960" color-interpolation-filters="sRGB">
<feFlood flood-color="rgb(0,0,0)" flood-opacity=".2" result="flood"/>
<feComposite in="flood" in2="SourceGraphic" operator="in" result="composite1"/>
<feGaussianBlur in="composite1" result="blur"/>
<feOffset dx="0" dy="1" result="offset"/>
<feComposite in="SourceGraphic" in2="offset" result="fbSourceGraphic"/>
<feColorMatrix in="fbSourceGraphic" result="fbSourceGraphicAlpha" values="0 0 0 -1 0 0 0 0 -1 0 0 0 0 -1 0 0 0 0 1 0"/>
<feFlood flood-color="rgb(255,255,255)" flood-opacity=".10196" in="fbSourceGraphic" result="flood"/>
<feComposite in="flood" in2="fbSourceGraphic" operator="out" result="composite1"/>
<feGaussianBlur in="composite1" result="blur"/>
<feOffset dx="0" dy="1" result="offset"/>
<feComposite in="offset" in2="fbSourceGraphic" operator="atop" result="composite2"/>
</filter>
</defs>
<path d="m7.3275 35.563c-0.41735-0.02119-0.83469-0.44703-0.83469-0.85168v-30.451c0-0.40465 0.41735-0.78812 0.83469-0.76694l27.397 0.91023c0.41735 0.021188 0.87579 0.44703 0.87579 0.85167v12.9c0 0.47148 0.17351 1.1999 0.96647 1.3624l2.9003 0.59428c0.7375 0.15111 1.0404 0.85752 1.0404 1.2622v14.365c0 0.40466-0.41735 0.78812-0.83469 0.76694z" fill="#b9b9b9" filter="url(#filter960)" stroke="#b9b9b9" stroke-linecap="round" stroke-linejoin="round" stroke-width=".98562"/>
<path d="m6.5076 38.754c0.043959 1.1517 1.0936 1.9765 2.3154 2.0611 11.521 0.79722 21.18 1.6707 21.18 1.6707 0.24689 0.07264 0.49378-0.16906 0.49378-0.48343v-34.607l-21.815-1.8629c-0.9797-0.11533-1.8003-0.46921-2.1784-1.5605z" color="#000000" display="block" fill="#6194cb" filter="url(#filter936)" stroke="#6194cb" stroke-linejoin="round" stroke-width="1.0068"/>
<path d="m18.925 17.624a5.772 5.2886 46.252 0 0-5.1083 2.9797 4.44 4.0682 46.252 0 0-3.8167 3.8895 4.44 4.0682 46.252 0 0 4.25 4.6218l9.9875 0.8738c1.5257 0.13348 2.7625-0.9951 2.7625-2.5208 0-1.043-0.5846-1.9916-1.4377-2.5363a2.664 2.4409 46.252 0 0 0.5877-1.5756 2.664 2.4409 46.252 0 0-2.55-2.7731 2.664 2.4409 46.252 0 0-0.01992-0.0018 5.772 5.2886 46.252 0 0-4.6551-2.9572zm0 1.7a3.996 3.6614 46.252 0 1 3.825 4.1596 3.996 3.6614 46.252 0 1-3.825 3.4904 3.996 3.6614 46.252 0 1-3.825-4.1596 3.996 3.6614 46.252 0 1 3.825-3.4904zm0 0.85a3.108 2.8477 46.252 0 0-2.975 2.7147 3.108 2.8477 46.252 0 0 2.975 3.2353 3.108 2.8477 46.252 0 0 2.975-2.7147 3.108 2.8477 46.252 0 0-2.975-3.2353zm-1.275 0.73845 2.125 0.18591a1.332 1.2204 46.252 0 1 1.275 1.3865 1.332 1.2204 46.252 0 1-1.275 1.1635l-1.275-0.11154v1.7l-0.85-0.07437v-1.7zm0.85 0.92438v0.85l1.275 0.11154a0.444 0.40682 46.252 0 0 0.425-0.38782 0.444 0.40682 46.252 0 0-0.425-0.46218z" fill="#fff" opacity=".75" stroke-width=".85"/>
</svg>
