<svg id="SVGRoot" width="48px" height="48px" version="1.1" viewBox="0 0 48 48" xmlns="http://www.w3.org/2000/svg">
<defs>
<filter id="filter1033" color-interpolation-filters="sRGB">
<feFlood flood-color="rgb(0,0,0)" flood-opacity=".2" result="flood"/>
<feComposite in="flood" in2="SourceGraphic" operator="in" result="composite1"/>
<feGaussianBlur in="composite1" result="blur"/>
<feOffset dx="0" dy="1" result="offset"/>
<feComposite in="SourceGraphic" in2="offset" result="fbSourceGraphic"/>
<feColorMatrix in="fbSourceGraphic" result="fbSourceGraphicAlpha" values="0 0 0 -1 0 0 0 0 -1 0 0 0 0 -1 0 0 0 0 1 0"/>
<feFlood flood-color="rgb(255,255,255)" flood-opacity=".10196" in="fbSourceGraphic" result="flood"/>
<feComposite in="flood" in2="fbSourceGraphic" operator="out" result="composite1"/>
<feGaussianBlur in="composite1" result="blur"/>
<feOffset dx="0" dy="1" result="offset"/>
<feComposite in="offset" in2="fbSourceGraphic" operator="atop" result="composite2"/>
</filter>
</defs>
<g filter="url(#filter1033)">
<rect x="1" y="24" width="46" height="3" color="#000000" display="block" fill="#acacac" stroke-width=".97165"/>
<g transform="translate(-.43145)" fill-rule="evenodd">
<circle cx="34.5" cy="25" r="2" color="#000000" fill="#acacac" stroke="#acacac"/>
<path d="m12.5 9.4468v33.553h22v-33.755l-4.0476-4.2447h-14.107z" fill="#eaeaea"/>
<g fill="#acacac" stroke="#acacac">
<rect x="14.945" y="11.513" width="16.973" height="3.9735" color="#000000" stroke-width="1.0265"/>
<g transform="matrix(.88578 0 0 .89297 2.1299 4.3848)" style="">
<ellipse cx="17.273" cy="25.883" rx="1.6936" ry="1.68" color="#000000" stroke-width="1.1244"/>
</g>
<rect x="14.945" y="18.513" width="16.973" height="3.9735" color="#000000" stroke-width="1.0265"/>
<rect x="20.857" y="25.425" width="11.15" height="4.1497" color="#000000" stroke-width=".85026"/>
</g>
<g transform="translate(.37521 2.0626)" fill="#eaeaea">
<rect x="18.625" y="29.437" width="1" height="10" color="#000000"/>
<rect x="20.625" y="29.437" width="1" height="10" color="#000000"/>
<rect x="22.625" y="29.437" width="1" height="10" color="#000000"/>
<rect x="24.625" y="29.437" width="1" height="10" color="#000000"/>
<rect x="26.625" y="29.437" width="1" height="10" color="#000000"/>
<rect x="28.625" y="29.437" width="1" height="10" color="#000000" opacity=".54286"/>
<rect x="17.625" y="29.437" width="1" height="10" color="#000000" opacity=".16"/>
<rect x="19.625" y="29.437" width="1" height="10" color="#000000" opacity=".29143"/>
<rect x="21.625" y="29.437" width="1" height="10" color="#000000" opacity=".29143"/>
<rect x="23.625" y="29.437" width="1" height="10" color="#000000" opacity=".29143"/>
<rect x="25.625" y="29.437" width="1" height="10" color="#000000" opacity=".29143"/>
<rect x="27.625" y="29.437" width="1" height="10" color="#000000" opacity=".22857"/>
</g>
</g>
</g>
</svg>
