<svg id="SVGRoot" width="48px" height="48px" version="1.1" viewBox="0 0 48 48" xmlns="http://www.w3.org/2000/svg">
<defs>
<filter id="filter877" color-interpolation-filters="sRGB">
<feFlood flood-color="rgb(0,0,0)" flood-opacity=".2" result="flood"/>
<feComposite in="flood" in2="SourceGraphic" operator="in" result="composite1"/>
<feGaussianBlur in="composite1" result="blur"/>
<feOffset dx="0" dy="1" result="offset"/>
<feComposite in="SourceGraphic" in2="offset" result="fbSourceGraphic"/>
<feColorMatrix in="fbSourceGraphic" result="fbSourceGraphicAlpha" values="0 0 0 -1 0 0 0 0 -1 0 0 0 0 -1 0 0 0 0 1 0"/>
<feFlood flood-color="rgb(255,255,255)" flood-opacity=".10196" in="fbSourceGraphic" result="flood"/>
<feComposite in="flood" in2="fbSourceGraphic" operator="out" result="composite1"/>
<feGaussianBlur in="composite1" result="blur"/>
<feOffset dx="0" dy="1" result="offset"/>
<feComposite in="offset" in2="fbSourceGraphic" operator="atop" result="composite2"/>
</filter>
</defs>
<g transform="matrix(.99964 0 0 1 .008171 .29671)" fill-rule="evenodd" filter="url(#filter877)" stroke-linecap="round" stroke-linejoin="round">
<path d="m9.7144 13.939-5.8519 17.242c-0.16526 0.48693 0.2108 1.0227 0.66772 1.0222l38.342-0.04031c0.66978-7.05e-4 1.1443-0.78002 0.87335-1.4691l-6.5227-16.59c-0.18502-0.47057-0.80775-0.87603-1.4088-0.87662l-24.878-0.02449c-0.47059-4.64e-4 -1.0083 0.10788-1.2215 0.73606z" fill="#c1c3ae" stroke="#c1c3ae"/>
<g fill="#5a7aa4" stroke="#5a7aa4">
<path d="m4.3288 26.877c0.09146-0.21864 0.30772-0.37644 0.62306-0.37259l1.9452 0.02378 3.1001 3.8369s-0.51061 1.3141-0.29499 2.1537c0.44357 0.4115-0.00895 0.68434-0.00895 0.68434h-6.3218c-0.48629 0-1.0929-1.2837-0.79022-2.0453 0.77502-1.9501 0.90053-2.2558 1.7476-4.2808z" color="#000000"/>
<path d="m43.672 26.877c-0.09146-0.21864-0.30772-0.37644-0.62306-0.37259l-1.9452 0.02378-3.1001 3.8369s0.51061 1.3141 0.29499 2.1537c-0.44357 0.4115 0.0089 0.68434 0.0089 0.68434h6.3218c0.48629 0 1.0929-1.2837 0.79022-2.0453-0.77502-1.9501-0.90053-2.2558-1.7476-4.2808z" color="#000000"/>
<path d="m9.0409 15.78 5.2761-2.6906c0.35016-0.17857-0.29797-0.98657-0.68772-0.98657h-4.2123l-1.2035 3.2288c-0.17129 0.45953 0.32205 1.8984 0.48355 1.435z" color="#000000" stroke-width=".8"/>
<path d="m37.869 15.78-5.2761-2.6906c-0.35016-0.17857 0.29797-0.98657 0.68772-0.98657h4.2123l1.2035 3.2288c0.17129 0.45953-0.32205 1.8984-0.48355 1.435z" color="#000000" stroke-width=".8"/>
</g>
</g>
</svg>
