<svg width="16" height="16" version="1.1" viewBox="0 0 16 16" xmlns="http://www.w3.org/2000/svg">
<defs>
<style id="current-color-scheme" type="text/css">.ColorScheme-Text { color:#444444; } .ColorScheme-Highlight { color:#5294e2; }</style>
</defs>
<path d="m1.9902 2c-0.53956 7.7e-6 -0.99023 0.4416-0.99023 0.98828v9.0215c0 0.54666 0.45066 0.99024 0.99023 0.99023h7.0098v-0.41016l3.5898-3.5898h-0.98242l0.26953-0.39258h-0.95312s0.8731-0.15621 0.99219-1.1289c0.11909-0.97276-1.3477-2.0625-1.3477-2.0625v0.039062c0.0019 0.011123 0.010332 0.059198 0.013672 0.076172l-1.959 2.9199h1.666l0.30664-2.8535c0.08672 0.42269 0.38398 1.7806 0.13086 2.3477-0.11909 0.54476-0.47656 0.66211-0.47656 0.66211h-1.8262l0.048828 0.39258h-6.4727v-6h12v4.5898l1 1v-5.6016c0-0.54666-0.44872-0.98826-0.98828-0.98828h-12.021zm2.5098 2c-0.84167-7.1e-6 -1.5 0.69516-1.5 1.5 0 0.84139 0.6949 1.4999 1.5 1.5 0.84165 8.7e-6 1.5-0.69516 1.5-1.5 0-0.84137-0.6949-1.4999-1.5-1.5z" fill="#444"/>
<path d="m14 9-4 4v2h2l4-4z" fill="#444"/>
</svg>
