<svg width="16" height="16" version="1.1" viewBox="0 0 16 16" xmlns="http://www.w3.org/2000/svg">
<defs>
<style id="current-color-scheme" type="text/css">.ColorScheme-Text { color:#444444; } .ColorScheme-Highlight { color:#4285f4; }</style>
</defs>
<path class="ColorScheme-Text" d="m8 1c-1.7914 0-3.5824 0.68393-4.9492 2.0508-2.7337 2.7337-2.7337 7.1647 0 9.8984 2.7337 2.7337 7.1647 2.7337 9.8984 0s2.7337-7.1647 0-9.8984c-1.3668-1.3668-3.1578-2.0508-4.9492-2.0508zm-0.072266 2a5 5 0 0 1 3.6074 1.4648 5 5 0 0 1 0 7.0703 5 5 0 0 1-7.0703 0 5 5 0 0 1 0-7.0703 5 5 0 0 1 3.4629-1.4648zm-0.93164 1v0.13281 4.2812l2.4141 2.4141 1.4141-1.4141-1.8281-1.8281v-3.4531-0.13281h-2z" fill="#808080"/>
</svg>
