<svg width="16" height="16" version="1.1" xmlns="http://www.w3.org/2000/svg">
<defs>
<style id="current-color-scheme" type="text/css">.ColorScheme-Text { color:#444444; } .ColorScheme-Highlight { color:#4285f4; }</style>
</defs>
<path class="ColorScheme-Text" d="m4.5 2c-1.38 0-2.5 1.12-2.5 2.5s1.12 2.5 2.5 2.5c0.45 0 0.86-0.14 1.22-0.34l1.97 1.84-1.97 1.84c-0.36-0.2-0.77-0.34-1.22-0.34-1.38 0-2.5 1.12-2.5 2.5s1.12 2.5 2.5 2.5 2.5-1.12 2.5-2.5c0-0.23-0.04-0.44-0.09-0.66l2.12-2.06 4.47 4.22h1.5v-1l-8.09-7.84c0.05-0.21 0.09-0.43 0.09-0.66 0-1.38-1.12-2.5-2.5-2.5zm0 1.5c0.55 0 1 0.45 1 1s-0.45 1-1 1-1-0.45-1-1 0.45-1 1-1zm9-0.5-3.94 3.72 1.32 1.28 4.12-4v-1zm-9 8.5c0.55 0 1 0.45 1 1s-0.45 1-1 1-1-0.45-1-1 0.45-1 1-1z" fill="#444"/>
</svg>
