<svg width="16" height="16" version="1.1" viewBox="0 0 16 16" xmlns="http://www.w3.org/2000/svg">
<path d="m2.3184 1 0.0019531 0.0019531c-0.12978-0.006459-0.25498 0.088111-0.29883 0.20508-0.00607-0.014318-0.015915-0.023968-0.021484-0.039062v11.535c0 0.0014 0.0018431 0.002406 0.0019531 0.003906v0.94727c0.01681 0.41352 0.41743 0.70987 0.88477 0.74023 2.0062 0.13032 3.7232 0.2597 5.1133 0.36914v-0.76367l-3-3 5-5 5 5v-3.2969c0-0.15173-0.11462-0.41795-0.39648-0.47461l-1.1797-0.22266c-0.30305-0.060902-0.42383-0.33303-0.42383-0.50977v-4.8359c0-0.1517-0.15887-0.31237-0.31836-0.32031l-10.363-0.33984zm12.682 10-2.3203 2.3203 2 0.054688c0.1595 0.0079 0.32031-0.13541 0.32031-0.28711v-2.0879z" fill="#444"/>
<path class="ColorScheme-Text" d="m10 8-3 3 1 1 1-1v3h2v-3l1 1 1-1z" fill="#444"/>
</svg>
