<svg width="16" height="16" version="1.1" viewBox="0 0 16 16" xmlns="http://www.w3.org/2000/svg">
<path d="m2.3184 1 0.0019531 0.0019531c-0.12978-0.0064603-0.25498 0.088101-0.29883 0.20508-0.00607-0.014319-0.015915-0.023967-0.021484-0.039062v11.537c0 0.0014 0.0018431 0.002406 0.0019531 0.003906v0.94727c0.01681 0.41356 0.41743 0.70987 0.88477 0.74023 2.0131 0.13079 3.739 0.26147 5.1309 0.37109l-0.017578-0.83203c-0.0111-0.56654 0.17551-1.0885 0.52344-1.4453l0.042969-0.042968-0.029297-0.029297c-0.35677-0.34792-0.54867-0.85767-0.53711-1.4102l0.041016-1.9727 2.0234-0.041016c0.56654-0.011284 1.0885 0.17552 1.4453 0.52344l0.064453 0.0625 0.042969-0.042969c0.34791-0.35677 0.85767-0.54867 1.4102-0.53711l1.9727 0.041016v-1.3379c0-0.15174-0.11462-0.41794-0.39648-0.47461l-1.1797-0.22266c-0.30305-0.060905-0.42383-0.33301-0.42383-0.50977v-4.8359c0-0.15171-0.15887-0.31237-0.31836-0.32031l-10.363-0.33984zm12.682 10.531c-0.067451 0.36475-0.22288 0.69187-0.45508 0.94336l0.45508 0.44531v-1.3887z" fill="#444"/>
<path class="ColorScheme-Text" d="m9 10v1c0 0.28 0.1 0.54 0.28 0.72l0.78 0.78-0.78 0.78c-0.18 0.18-0.28 0.44-0.28 0.72v1h1c0.28 0 0.54-0.1 0.72-0.28l0.78-0.78 0.78 0.78c0.18 0.18 0.44 0.28 0.72 0.28h1v-1c0-0.28-0.1-0.54-0.28-0.72l-0.78-0.78 0.78-0.78c0.18-0.18 0.28-0.44 0.28-0.72v-1h-1c-0.28 0-0.54 0.1-0.72 0.28l-0.78 0.78-0.78-0.78c-0.18-0.18-0.44-0.28-0.72-0.28z" fill="#444"/>
</svg>
