<svg width="16" height="16" version="1.1" viewBox="0 0 16 16" xmlns="http://www.w3.org/2000/svg">
<path d="m2.3184 0.99805 0.0019531 0.0019531c-0.12978-0.0064594-0.25498 0.088099-0.29883 0.20508-0.00607-0.014319-0.015915-0.023967-0.021484-0.039062v11.537c0 0.0014 0.0018431 0.002406 0.0019531 0.003906v0.94727c0.01681 0.41356 0.41743 0.70987 0.88477 0.74023 2.678 0.17398 4.6814 0.32969 6.1133 0.44727v-3.8418h2v-2h4v-1.2969c0-0.15174-0.11462-0.41794-0.39648-0.47461l-1.1797-0.22266c-0.30305-0.060907-0.42383-0.33301-0.42383-0.50977v-4.8379c0-0.15171-0.15887-0.31237-0.31836-0.32031l-10.363-0.33984z" fill="#444"/>
<path class="ColorScheme-Text" d="m12 10v2h-2v2h2v2h2v-2h2v-2h-2v-2z" fill="#444"/>
</svg>
