<svg width="16" height="16" version="1.1" viewBox="0 0 16 16" xmlns="http://www.w3.org/2000/svg">
<defs>
<style id="current-color-scheme" type="text/css">.ColorScheme-Text { color:#444444; } .ColorScheme-Highlight { color:#4285f4; }</style>
</defs>
<path class="ColorScheme-Text" d="m5 12 3 4 3-4z" color="#444444" fill="currentColor"/>
<path d="m1.9902-9.8702e-6c-0.53956 7.7e-6 -0.99023 0.4416-0.99023 0.98828v9.0215c0 0.54666 0.45066 0.99024 0.99023 0.99023h9.6699c0.19357-1.56e-4 0.46622-0.1563 0.37891-0.10742 0.05538-0.03097 0.10652-0.06631 0.16016-0.10352h2e-3c0.10644-0.07379 0.22536-0.16389 0.36133-0.27148 0.27324-0.21623 0.60753-0.49971 0.9375-0.78711 0.32988-0.28732 0.65359-0.57656 0.9043-0.81836 0.12578-0.1213 0.23378-0.23152 0.32031-0.32812 0.04022-0.04489 0.08299-0.09228 0.12695-0.1543-0.03989 0.05626 5e-3 0.01746 0.06641-0.08984 0.06148-0.10746 0.08203-0.23432 0.08203-0.34766v-7.0039c0-0.54666-0.44872-0.98826-0.98828-0.98828h-12.021zm0.0098 1h12v6h-2.3926l0.26953-0.39258h-0.95312s0.8731-0.15619 0.99219-1.1289c0.11909-0.97276-1.3477-2.0625-1.3477-2.0625v0.03906c0.0019 0.01112 0.01033 0.0592 0.01367 0.07617l-1.959 2.9199h1.666l0.30664-2.8535c0.08672 0.42269 0.38398 1.7806 0.13086 2.3477-0.11909 0.54476-0.47656 0.66211-0.47656 0.66211h-1.8262l0.04883 0.39258h-6.4727v-6zm2.5 1c-0.84167-7.1e-6 -1.5 0.69516-1.5 1.5 0 0.84139 0.6949 1.4999 1.5 1.5 0.84165 9e-6 1.5-0.69516 1.5-1.5 0-0.84137-0.6949-1.4999-1.5-1.5z" fill="#444" stroke-width="1.002"/>
</svg>
