<svg width="16" height="16" version="1.1" viewBox="0 0 16 16" xmlns="http://www.w3.org/2000/svg">
<defs>
<style id="current-color-scheme" type="text/css">.ColorScheme-Text { color:#444444; } .ColorScheme-Highlight { color:#4285f4; }</style>
</defs>
<path d="m2 2.0039c-1.108 0-2 0.892-2 2v8c0 1.108 0.892 2 2 2h12c1.108 0 2-0.892 2-2v-8c0-1.108-0.892-2-2-2h-12zm6 1.9961a2.0001 2.0001 0 0 1 2 2 2.0001 2.0001 0 0 1-2 2 2.0001 2.0001 0 0 1-2-2 2.0001 2.0001 0 0 1 2-2zm-2.1309 4.1895c0.44694 0.50702 1.2933 0.80404 2.1309 0.8125 0.83749-0.008453 1.6839-0.30548 2.1309-0.8125 1.8871 1.1592 2.1233 2.7294 1.6738 3.6582-0.46688 0.96472-1.2564 1.141-2.1992 1.1484l-1.5977 0.003906h-0.015625l-1.5977-0.003906c-0.94289-0.007354-1.7324-0.18364-2.1992-1.1484-0.44948-0.92893-0.21322-2.4991 1.6738-3.6582z" fill="#444"/>
</svg>
