<svg width="16" height="16" version="1.1" viewBox="0 0 16 16" xmlns="http://www.w3.org/2000/svg">
<defs>
<style id="current-color-scheme" type="text/css">.ColorScheme-Text { color:#444444; } .ColorScheme-Highlight { color:#5294e2; }</style>
</defs>
<g fill="#444">
<g fill-rule="evenodd">
<path d="m8 7c-0.72753 0.63308-1.4268 0.86017-2.4199 1.041-0.86048-0.008283-1.6786-0.37523-2.2402-1.0059-2.3637 1.4373-2.6587 3.3814-2.0957 4.5332 0.58475 1.1963 1.5749 1.4146 2.7559 1.4238l1.3223 0.01172c0.025155 0.32248 0.10466 0.30728 0.23242 0.56445 0.58432 1.1759 1.5738 1.3912 2.7539 1.4004l0.69141 0.027342v-3.9961h2v-1.0195c-0.19042-1.4186-1.9504-2.0094-3-2.9805zm4.9941 1.9961c-0.0012 0.0014-0.0027 0.00251-0.0039 0.00391h0.0078c-0.0016-0.00111-0.0023-0.0028-0.0039-0.00391zm1.3398 5.3379v0.0098c0.0038-0.0034 0.0079-0.0063 0.01172-0.0098z" color="#000000" stroke-width=".98015"/>
<circle cx="5.5" cy="4.5" r="2.5" stroke-width="1.1847"/>
<circle cx="10" cy="6" r="3" stroke-width="1.4216"/>
</g>
<path d="m12 10v2h-2v2h2v2h2v-2h2v-2h-2v-2z"/>
</g>
</svg>
