<svg width="16" height="16" version="1.1" viewBox="0 0 16 16" xmlns="http://www.w3.org/2000/svg">
<defs>
<style id="current-color-scheme" type="text/css">.ColorScheme-Text { color:#444444; } .ColorScheme-Highlight { color:#5294e2; }</style>
</defs>
<path d="m7.9941 2.9941-7.9727 5.998 2 0.0019531 0.0019531 4.998h12l-0.001954-4.998 2.002-0.0019531-8.0293-5.998zm0.0058594 3.0059c1.1049 0 2 0.89522 2 2 0 1.1049-0.89522 2-2 2-1.1049 0-2-0.89522-2-2 0-1.1049 0.89522-2 2-2zm0 5c0.55242 0 1 0.44758 1 1 0 0.55241-0.44758 1-1 1-0.55242 0-1-0.44759-1-1 0-0.55242 0.44758-1 1-1z" fill-rule="evenodd" stroke-width="1.1476"/>
</svg>
