<svg width="22" height="22" version="1.1" xmlns="http://www.w3.org/2000/svg" xmlns:xlink="http://www.w3.org/1999/xlink">
<defs>
<style id="current-color-scheme" type="text/css">.ColorScheme-Text { color:#dfdfdf; } .ColorScheme-Highlight { color:#4285f4; }</style>
</defs>
<g fill="#4285f4" fill-rule="evenodd">
<path d="m15 15.57v0.46484c0.45195 0.17342 0.93348 0.31538 1.4258 0.37891 1.0497 0.13545 2.1329 0.31541 3.0293 0.5332 0.89633 0.2178 1.6125 0.50124 1.8535 0.74219 0.13937 0.13937 0.20263 0.25835 0.22461 0.35156 0.02197 0.09321 0.01628 0.1587-0.04297 0.25195-0.1185 0.1865-0.48386 0.43393-1.1074 0.63086-0.5805 0.18332-1.3932 0.33271-2.3828 0.44336v0.45703c1.0284-0.11136 1.8753-0.26512 2.5078-0.46484 0.66901-0.21127 1.134-0.45669 1.3613-0.81445 0.11366-0.17888 0.16146-0.39713 0.11328-0.60156-0.04819-0.20442-0.17345-0.39806-0.35156-0.57617-0.39402-0.39402-1.139-0.63107-2.0625-0.85547-0.92353-0.22441-2.0266-0.4102-3.0859-0.54688-0.51302-0.066195-1.0143-0.21312-1.4824-0.39453z"/>
<path d="m7.6211 15a4 1.7688 0 0 0-0.62109 0.94141 4 1.7688 0 0 0 4 1.7695 4 1.7688 0 0 0 4-1.7695 4 1.7688 0 0 0-0.61523-0.94141z" color="#000000"/>
<path d="m3.749 2.0254c-0.50317 0-0.75007 0.17956-0.75 0.52734l2e-3 11.562c1e-4 0.50253 0.40504 0.90625 0.9082 0.90625h14.182c0.50317 0 0.90808-0.40372 0.9082-0.90625l0.0039-11.562c9e-5 -0.36782-0.3403-0.52734-0.75-0.52734zm0.25195 1 14 0.042969v9.957h-14z" color="#000000"/>
<path d="m3.7317 18.013h13.537c0.48873 0 0.42677 0.11285 0.47693 0.2548l1.2378 3.5027c0.05016 0.14195 0.0118 0.2548-0.47693 0.2548h-16.013c-0.48873 0-0.52709-0.11285-0.47693-0.2548l1.2378-3.5027c0.05016-0.14194-0.0118-0.2548 0.47693-0.2548z" color="#000000"/>
<path d="m17.325 19.025 0.67531 2h-2.3349l-0.65612-2z" color="#000000"/>
<path d="m3.7696 19.025-0.76923 2h12l-0.73077-2z"/>
</g>
</svg>
