<svg width="22" height="22" version="1.1" xmlns="http://www.w3.org/2000/svg">
<defs>
<style id="current-color-scheme" type="text/css">.ColorScheme-Text { color:#dfdfdf; } .ColorScheme-Highlight { color:#4285f4; }</style>
</defs>
<path d="m5.6621 3.9824c-0.2686 0-0.4453 0.1497-0.55273 0.42188l-2.9746 8.4082c-0.022954 0.0649-0.018853 0.11041-0.033203 0.16992h17.857c-0.0033-0.01601 0.0014-0.03041-0.0039-0.04687l-3.0762-8.4629c-0.0793-0.25169-0.28243-0.48437-0.49219-0.49023h-10.725zm5.3496 2c2.7589 0 4.9961 1.1191 4.9961 2.5 0 1.381-2.2372 2.5-4.9961 2.5h-4.9961v-2.5c0-1.381 2.237-2.5 4.9961-2.5zm0 1c-1.6555 0-2.998 0.67141-2.998 1.5 0 0.82862 1.3425 1.502 2.998 1.502s2.9961-0.67337 2.9961-1.502c2e-6 -0.82862-1.3406-1.5-2.9961-1.5z" fill="#dfdfdf" opacity=".9" stroke-width="1.1954"/>
<path d="m5.4603 4.41c-0.2686 0-0.44318 0.12747-0.55061 0.37062l-2.7799 7.513s-0.10743 0.29498-0.10743 0.78244v4.2389c0 0.47555 0.28268 0.7138 0.71177 0.7138h16.572c0.42323 0 0.6849-0.31547 0.6849-0.80989v-4.2389s0.04553-0.33842-0.04029-0.57653l-2.8874-7.5541c-0.079305-0.22486-0.27371-0.43402-0.48347-0.43926z" fill="none" stroke-width="1.1299"/>
<path d="m5.6137 4.609c-0.25858 0-0.42665 0.12271-0.53007 0.35681-1e-6 0-2.7568 7.2876-2.7568 7.2876s-0.10343 0.28398-0.10343 0.75325v4.0807c0 0.59507 0.19083 0.71463 0.68522 0.71463h16.196c0.5686 0 0.65936-0.13898 0.65936-0.80714v-4.0807s0.04383-0.32579-0.03879-0.55503l-2.8334-7.3822c-0.076341-0.21648-0.23664-0.36294-0.43858-0.36797z" fill="none" stroke-width="1.1299"/>
<path d="m2.1218 12.95c-0.051547 0.13148-0.083561 0.25416-0.085689 0.3587l-0.017586 0.0138v4.0383c0 0.42271 0.28489 0.63462 0.71412 0.63462h16.585c0.42337 0 0.68556-0.27988 0.68556-0.71936v-3.9515c0.0019-0.01348-9.45e-4 -0.02759 0-0.04139v-0.08277l-0.01319-0.0019c-0.0048-0.06618-3.6e-5 -0.13069-0.02857-0.20103l-0.02197-0.0473z" fill="#dfdfdf" stroke-width="1.0655"/>
</svg>
