<svg width="22" height="22" version="1.1" xmlns="http://www.w3.org/2000/svg">
<defs>
<style id="current-color-scheme" type="text/css">.ColorScheme-Text { color:#dfdfdf; } .ColorScheme-Highlight { color:#4285f4; }</style>
</defs>
<g fill="#dfdfdf" stroke="#dfdfdf" stroke-linejoin="round">
<path d="m4.5353 3.0267c-0.13575-0.0072-0.26662 0.098221-0.3125 0.22852 0.15818 0.39935 0.47232 0.53957 0.84961 0.58398l10.131 0.74414v12.119l2.2612 0.11133c0.16684 0.0088 0.33398-0.15132 0.33398-0.32031v-6c0-0.16902-0.12119-0.46423-0.41602-0.52734l-1.1406-0.24805c-0.31699-0.067843-0.44336-0.37146-0.44336-0.56836v-5.3867c0-0.16898-0.16715-0.34857-0.33398-0.35742z" stroke-linecap="round" stroke-width=".40271"/>
<path d="m4.2013 3.3899 2e-3 13.912c0.01758 0.46065 0.43708 0.79045 0.92578 0.82422 4.6084 0.31886 8.4727 0.66797 8.4727 0.66797 0.09875 0.02904 0.19727-0.06761 0.19727-0.19336v-13.842l-8.7266-0.74414c-0.39188-0.046129-0.71982-0.18854-0.87109-0.625zm4.2812 5.2324a0.37204 0.37204 0 0 1 2e-3 0 0.37204 0.37204 0 0 1 0.03711 0 0.37204 0.37204 0 0 1 0.33594 0.25586l0.66602 2 2.1094 0.02148a0.37204 0.37204 0 0 1 0.2168 0.66992l-1.6954 1.2539 0.63086 2.0137a0.37204 0.37204 0 0 1-0.57226 0.41211l-1.7148-1.2266-1.7168 1.2246a0.37204 0.37204 0 0 1-0.57227-0.41797l0.63672-2.0098-1.6934-1.2559a0.37204 0.37204 0 0 1 0.21875-0.67188l2.1094-0.01758 0.66992-1.9961a0.37204 0.37204 0 0 1 0.33203-0.25586z" color="#000000" display="block" stroke-width=".40269"/>
</g>
</svg>
