<svg width="22" height="22" version="1.1" xmlns="http://www.w3.org/2000/svg">
<defs>
<style id="current-color-scheme" type="text/css">.ColorScheme-Text { color:#dfdfdf; } .ColorScheme-Highlight { color:#4285f4; }</style>
</defs>
<path d="m5.3183 4.0013 2e-3 2e-3c-0.12978-0.0065-0.25498 0.08811-0.29882 0.20508-0.0061-0.01432-0.01591-0.02397-0.02148-0.03906v11.535c0 0.0014 0.0018 0.0024 2e-3 0.0039v0.94727c0.01681 0.41352 0.41743 0.70987 0.88477 0.74023 4.4063 0.28624 7.9258 0.59961 7.9258 0.59961 0.09442 0.02609 0.1875-0.06094 0.1875-0.17382v-1.5449l3.6797 0.09961c0.1595 0.0079 0.32031-0.13541 0.32031-0.28711v-5.3848c0-0.15173-0.11462-0.41795-0.39648-0.47461l-1.1797-0.22266c-0.30305-0.0609-0.42383-0.33303-0.42383-0.50977v-4.8359c0-0.1517-0.15887-0.31237-0.31836-0.32031z" fill="#dfdfdf"/>
</svg>
