<svg width="22" height="22" version="1.1" xmlns="http://www.w3.org/2000/svg">
<defs>
<style id="current-color-scheme" type="text/css">.ColorScheme-Text { color:#dfdfdf; } .ColorScheme-Highlight { color:#4285f4; }</style>
</defs>
<path d="m5.3183 4.0014 2e-3 0.00195c-0.12978-0.00646-0.25498 0.088109-0.29883 0.20508-0.0061-0.014318-0.01591-0.023968-0.02148-0.039062v11.535c0 0.0014 0.0017 0.0024 0.0019 0.0039v0.94727c0.01681 0.41352 0.41743 0.70987 0.88477 0.74023 4.4063 0.28624 7.9258 0.59961 7.9258 0.59961 0.09442 0.02609 0.1875-0.06095 0.1875-0.17383v-1.5449l3.6797 0.09961c0.1595 0.0079 0.32031-0.13541 0.32031-0.28711v-5.3848c0-0.15173-0.11462-0.41795-0.39648-0.47461l-1.1797-0.22266c-0.30305-0.0609-0.42383-0.33303-0.42383-0.50977v-4.8359c0-0.1517-0.15887-0.31237-0.31836-0.32031l-10.363-0.33984zm5.6816 2.998 4 5h-2v3h-4v-3h-2z" fill="#dfdfdf" fill-opacity=".50196"/>
</svg>
