<?xml version="1.0" encoding="UTF-8" standalone="no"?>
<svg
   xmlns:i="&amp;#38;#38;#38;#38;#38;#38;#38;ns_ai;"
   xmlns:dc="http://purl.org/dc/elements/1.1/"
   xmlns:cc="http://creativecommons.org/ns#"
   xmlns:rdf="http://www.w3.org/1999/02/22-rdf-syntax-ns#"
   xmlns:svg="http://www.w3.org/2000/svg"
   xmlns="http://www.w3.org/2000/svg"
   xmlns:xlink="http://www.w3.org/1999/xlink"
   xmlns:sodipodi="http://sodipodi.sourceforge.net/DTD/sodipodi-0.dtd"
   xmlns:inkscape="http://www.inkscape.org/namespaces/inkscape"
   id="SVGRoot"
   width="48px"
   height="48px"
   version="1.1"
   viewBox="0 0 48 48"
   sodipodi:docname="user-trash-full.svg"
   inkscape:version="0.92.4 (5da689c313, 2019-01-14)">
  <metadata
     id="metadata56">
    <rdf:RDF>
      <cc:Work
         rdf:about="">
        <dc:format>image/svg+xml</dc:format>
        <dc:type
           rdf:resource="http://purl.org/dc/dcmitype/StillImage" />
        <dc:title></dc:title>
      </cc:Work>
    </rdf:RDF>
  </metadata>
  <sodipodi:namedview
     pagecolor="#ffffff"
     bordercolor="#666666"
     borderopacity="1"
     objecttolerance="10"
     gridtolerance="10"
     guidetolerance="10"
     inkscape:pageopacity="0"
     inkscape:pageshadow="2"
     inkscape:window-width="1366"
     inkscape:window-height="689"
     id="namedview54"
     showgrid="false"
     inkscape:snap-global="false"
     inkscape:zoom="8"
     inkscape:cx="9.7244458"
     inkscape:cy="29.156579"
     inkscape:window-x="0"
     inkscape:window-y="0"
     inkscape:window-maximized="1"
     inkscape:current-layer="SVGRoot">
    <inkscape:grid
       type="xygrid"
       id="grid866" />
  </sodipodi:namedview>
  <defs
     id="defs25">
    <filter
       id="filter854"
       color-interpolation-filters="sRGB">
      <feFlood
         flood-color="rgb(0,0,0)"
         flood-opacity=".2"
         result="flood"
         id="feFlood2" />
      <feComposite
         in="flood"
         in2="SourceGraphic"
         operator="in"
         result="composite1"
         id="feComposite4" />
      <feGaussianBlur
         in="composite1"
         result="blur"
         id="feGaussianBlur6" />
      <feOffset
         dx="0"
         dy="1"
         result="offset"
         id="feOffset8" />
      <feComposite
         in="SourceGraphic"
         in2="offset"
         result="fbSourceGraphic"
         id="feComposite10" />
      <feColorMatrix
         in="fbSourceGraphic"
         result="fbSourceGraphicAlpha"
         values="0 0 0 -1 0 0 0 0 -1 0 0 0 0 -1 0 0 0 0 1 0"
         id="feColorMatrix12" />
      <feFlood
         flood-color="rgb(255,255,255)"
         flood-opacity=".10196"
         in="fbSourceGraphic"
         result="flood"
         id="feFlood14" />
      <feComposite
         in="flood"
         in2="fbSourceGraphic"
         operator="in"
         result="composite1"
         id="feComposite16" />
      <feGaussianBlur
         in="composite1"
         result="blur"
         id="feGaussianBlur18" />
      <feOffset
         dx="0"
         dy="1"
         result="offset"
         id="feOffset20" />
      <feComposite
         in="fbSourceGraphic"
         in2="offset"
         result="composite2"
         id="feComposite22" />
    </filter>
    <filter
       style="color-interpolation-filters:sRGB;"
       inkscape:label="Drop Shadow"
       id="filter975">
      <feFlood
         flood-opacity="0.2"
         flood-color="rgb(0,0,0)"
         result="flood"
         id="feFlood965" />
      <feComposite
         in="flood"
         in2="SourceGraphic"
         operator="in"
         result="composite1"
         id="feComposite967" />
      <feGaussianBlur
         in="composite1"
         stdDeviation="0"
         result="blur"
         id="feGaussianBlur969" />
      <feOffset
         dx="0"
         dy="1"
         result="offset"
         id="feOffset971" />
      <feComposite
         in="SourceGraphic"
         in2="offset"
         operator="over"
         result="fbSourceGraphic"
         id="feComposite973" />
      <feColorMatrix
         result="fbSourceGraphicAlpha"
         in="fbSourceGraphic"
         values="0 0 0 -1 0 0 0 0 -1 0 0 0 0 -1 0 0 0 0 1 0"
         id="feColorMatrix977" />
      <feFlood
         id="feFlood979"
         flood-opacity="0.101961"
         flood-color="rgb(255,255,255)"
         result="flood"
         in="fbSourceGraphic" />
      <feComposite
         in2="fbSourceGraphic"
         id="feComposite981"
         in="flood"
         operator="out"
         result="composite1" />
      <feGaussianBlur
         id="feGaussianBlur983"
         in="composite1"
         stdDeviation="0"
         result="blur" />
      <feOffset
         id="feOffset985"
         dx="0"
         dy="1"
         result="offset" />
      <feComposite
         in2="fbSourceGraphic"
         id="feComposite987"
         in="offset"
         operator="atop"
         result="composite2" />
    </filter>
    <linearGradient
       inkscape:collect="always"
       xlink:href="#linearGradient508"
       id="linearGradient990"
       gradientUnits="userSpaceOnUse"
       gradientTransform="matrix(1.027326,-0.134612,0.528454,0.53648,7.00621,4.2780504)"
       x1="9.9626188"
       y1="8.7251825"
       x2="20.135639"
       y2="14.744809" />
    <linearGradient
       id="linearGradient508">
      <stop
         id="stop509"
         offset="0.0000000"
         style="stop-color:#b0b0b0;stop-opacity:1.0000000;" />
      <stop
         id="stop510"
         offset="1.0000000"
         style="stop-color:#b0b0b0;stop-opacity:1.0000000;" />
    </linearGradient>
    <linearGradient
       inkscape:collect="always"
       xlink:href="#linearGradient177"
       id="linearGradient992"
       gradientUnits="userSpaceOnUse"
       gradientTransform="matrix(1.399756,0,0,0.903977,-3.9763,-0.35747361)"
       x1="16.551964"
       y1="14.035932"
       x2="13.763388"
       y2="9.3615303" />
    <linearGradient
       id="linearGradient177">
      <stop
         id="stop178"
         offset="0.0000000"
         style="stop-color:#ffffff;stop-opacity:1.0000000;" />
      <stop
         id="stop179"
         offset="1.0000000"
         style="stop-color:#b0b0b0;stop-opacity:1.0000000;" />
    </linearGradient>
  </defs>
  <g
     id="g963"
     style="filter:url(#filter975)">
    <path
       style="fill:#b5c051;fill-rule:evenodd;stroke:#b5c051;stroke-width:1.21373498"
       id="path892"
       d="m 4.3995239,16.544939 c -0.04281,-0.03404 1.6817512,24.492201 1.6822367,24.499969 0.1617763,2.449317 1.5198875,3.344568 3.0399692,3.34816 0.054318,1.26e-4 28.5169462,-0.0031 29.1238142,-0.0057 2.559912,-0.01077 3.186976,-1.569603 3.355443,-3.27291 0.01351,-0.03358 1.737194,-24.535895 1.750691,-24.568909 H 4.3995239 Z"
       inkscape:connector-curvature="0" />
    <path
       style="fill:#eff3f4;fill-rule:evenodd;stroke:#eff3f4;stroke-width:1.2291683"
       id="path894"
       d="m 7.9997327,4.6816084 c -1.0136335,0.00236 -1.8619681,0.026249 -2.3240872,1.0097492 -0.080315,0.1709382 -2.5284059,7.1084914 -2.6461439,7.3730814 -1.0076157,2.264964 -0.078388,5.332963 1.867792,5.313836 0.3701224,-0.0035 38.3497704,0.01769 38.9389464,0 1.656678,-0.0489 1.868665,-3.567694 1.15554,-5.053927 C 44.95137,13.240148 41.641343,5.5968182 41.556898,5.4614344 41.166441,4.8568202 40.292064,4.5918407 39.642516,4.6166561 39.514566,4.621667 8.1260124,4.6813454 7.9998298,4.6816392 Z"
       inkscape:connector-curvature="0" />
    <g
       transform="matrix(0.97098799,0,0,0.97098799,0.69617571,1.2683846)"
       style="fill:#ffffff;fill-rule:evenodd"
       id="g914">
      <path
         style="fill-opacity:0.4881"
         id="path902"
         d="m 23.791,27.401 5.3918,0.41138 2.085,-5.0759 -2.467,1.7338 c 0,0 -1.0578,-2.4672 -1.8181,-2.6655 -0.76028,-0.19833 -4.004,-0.13222 -4.004,-0.13222 1.0317,0.25516 1.8336,2.028 1.8459,2.0481 0.32188,0.5252 1.2229,2.2925 1.2229,2.2925 z"
         inkscape:connector-curvature="0" />
      <path
         style="color:#000000;fill-opacity:0.30952005"
         id="path904"
         d="m 24.458,23.89 -1.7848,3.4047 -3.6692,-2.3139 c 0,0 1.6638,-3.1403 2.975,-3.1403 1.3223,0 1.9132,1.1398 2.479,2.0495 z"
         inkscape:connector-curvature="0" />
      <path
         style="fill-opacity:0.4881"
         id="path906"
         d="m 27.085,31.974 -3.4763,4.1546 3.3174,4.2839 0.06136,-2.6982 c 0,0 2.4435,0.2306 3.0043,-0.31972 0.56082,-0.55032 2.8939,-3.325 2.8939,-3.325 -0.74906,0.75399 -2.6819,0.53091 -2.7055,0.53115 -0.61596,0.0062 -3.0538,-0.05064 -3.0538,-0.05064 z"
         inkscape:connector-curvature="0" />
      <path
         style="color:#000000;fill-opacity:0.30952005"
         id="path908"
         d="m 30.347,34.126 -2.0037,-3.2807 3.8705,-1.9587 c 0,0 1.839,3.041 1.1653,4.1659 -0.67946,1.1344 -1.9609,1.0556 -3.032,1.0735 z"
         inkscape:connector-curvature="0" />
      <path
         style="fill-opacity:0.4881"
         id="path910"
         d="m 21.006,31.733 -1.7161,-4.5195 -5.0041,0.35364 2.0542,1.4964 c 0,0 -1.4187,2.0028 -1.2214,2.7634 0.19724,0.76057 1.31,3.9116 1.31,3.9116 -0.27988,-1.0253 0.87756,-2.5893 0.88911,-2.6099 0.30181,-0.53698 1.5671,-2.6216 1.5671,-2.6216 z"
         inkscape:connector-curvature="0" />
      <path
         style="color:#000000;fill-opacity:0.30952005"
         id="path912"
         d="m 17.573,33.558 3.8429,-0.10035 -0.23286,4.3316 c 0,0 -3.553,0.07712 -4.1919,-1.0679 -0.64427,-1.1547 0.06313,-2.226 0.58187,-3.1634 z"
         inkscape:connector-curvature="0" />
    </g>
    <g
       id="g948">
      <path
         inkscape:connector-curvature="0"
         d="M 8.380749,6.0060447 C 7.443066,5.9926164 7.3819743,5.9524578 7.1709091,6.6875767 7.1221843,6.8572768 5.1590789,13.642837 5.0821549,13.90208 c -0.2616941,0.88167 0.10836,1.114389 1.0164826,1.096459 0.3217101,-0.0063 35.5554715,-5e-6 36.0676645,-5e-6 0.727131,0 0.942823,-0.280985 0.77857,-0.907262 -0.06675,-0.254476 -2.799636,-7.387702 -2.873037,-7.5147925 -0.339437,-0.5673404 -0.280573,-0.565695 -0.87345,-0.5736896 -0.111302,-0.0015 -30.5933272,0.00486 -30.7028102,0.00328 z"
         display="block"
         id="path896"
         style="color:#000000;display:block;fill:#575955;fill-rule:evenodd;stroke-width:1.00204766"
         sodipodi:nodetypes="ccccsccccc" />
      <path
         inkscape:connector-curvature="0"
         d="m 38.99871,6 c 0.107284,0.00101 0.445623,0.00118 0.52207,0.00984 0.07645,0.00865 0.141003,0.025798 0.200722,0.060767 0.119437,0.069938 0.219524,0.2111804 0.356692,0.4984243 0.01876,0.039283 0.718514,1.8304674 1.410068,3.6442367 0.345776,0.906885 0.695027,1.819416 0.958367,2.521429 0.26334,0.702012 0.440769,1.193506 0.464998,1.258317 0.08239,0.249725 0.103574,0.448143 0.06861,0.599538 -0.03496,0.151395 -0.126062,0.255767 -0.24614,0.317398 C 42.49394,15.033215 42.115765,14.98552 41.61801,15 c -0.18913,-3.09e-4 -2.399286,2.47e-4 -2.619014,-3e-6 z"
         display="block"
         id="path900"
         style="color:#000000;display:block;fill:#babdb6;fill-rule:evenodd;stroke-width:1.00204766"
         sodipodi:nodetypes="csscsscssccc" />
      <path
         sodipodi:nodetypes="csssccccc"
         style="color:#000000;display:block;fill:#2e3436;fill-rule:evenodd;stroke-width:1.00981021;fill-opacity:1"
         id="path938"
         display="block"
         d="m 7.9984465,6.0000004 c -0.2758083,-0.00135 -0.3248716,7.358e-4 -0.3853173,0.024559 -0.033412,0.013168 -0.069556,0.020213 -0.1032509,0.035826 -0.033695,0.015612 -0.065472,0.038357 -0.091738,0.062996 C 7.313076,6.221937 7.2532051,6.389853 7.1793133,6.6512114 7.1305883,6.8235509 5.1618602,13.617878 5.084841,13.881153 c -0.2616941,0.895384 0.085465,1.136112 0.9936339,1.117904 0.015731,-3.12e-4 1.7502256,2.6e-4 1.9248279,0 z"
         inkscape:connector-curvature="0" />
    </g>
  </g>
  <g
     transform="translate(1.3277752,1.2089234)"
     id="g1061">
    <path
       inkscape:connector-curvature="0"
       id="path950"
       d="m 32.971052,13.793665 c 0,0 2.783926,0.198852 2.485649,1.590816 -0.298277,1.391963 -0.994261,1.789667 -0.994261,1.789667 0,0 0.298278,3.977037 0.695984,6.164408 0.397703,2.187369 -0.298279,-3.678761 1.093684,-4.275316 1.391964,-0.596556 5.070721,0.994259 6.661536,-1.690241 1.590816,-2.6845 1.093686,-2.286797 0.695981,-3.479908 -0.397703,-1.19311 -1.988518,-3.87761 -5.368998,-3.181629 -3.380482,0.695981 -6.562112,2.883352 -5.269575,3.082203 z"
       style="color:#000000;display:inline;overflow:visible;visibility:visible;fill:#c5c5c5;fill-opacity:1;fill-rule:nonzero;stroke:none;stroke-width:1;stroke-linecap:butt;stroke-linejoin:miter;stroke-miterlimit:4;stroke-dashoffset:0;stroke-opacity:1;marker:none;marker-start:none;marker-mid:none;marker-end:none" />
    <path
       style="color:#000000;display:block;visibility:visible;fill:#c5c5c5;fill-opacity:1;fill-rule:evenodd;stroke:none;stroke-width:0;stroke-linecap:butt;stroke-linejoin:miter;stroke-miterlimit:4;stroke-dashoffset:0;stroke-opacity:1;marker:none;marker-start:none;marker-mid:none;marker-end:none"
       d="m 39.027507,5.7145581 c 0.450756,0.00385 0.583121,-0.00518 0.871284,0.5395238 0.03941,0.074491 2.874397,6.7931691 2.976187,7.0389791 0.34617,0.947104 -0.31313,0.927301 -1.358836,0.954772 -0.198658,-2.93e-4 -2.548854,-0.02199 -2.779734,-0.02223 z"
       id="path952"
       sodipodi:nodetypes="cscccc"
       inkscape:connector-curvature="0" />
    <path
       id="path954"
       d="M 21.46696,11.514317 35.930232,9.5525504 c 0,0 -5.046958,-3.868984 -5.811459,-2.3031275 -0.7645,1.5658578 -7.660771,0.6706926 -6.896271,-0.8951638 0.764501,-1.5658578 -4.210296,2.4170967 -2.931584,3.7152279 1.27871,1.298132 1.176042,1.44483 1.176042,1.44483 z"
       style="color:#000000;display:inline;overflow:visible;visibility:visible;fill:url(#linearGradient990);fill-opacity:1;fill-rule:evenodd;stroke:none;stroke-width:2.21074963;stroke-linecap:butt;stroke-linejoin:miter;stroke-miterlimit:4;stroke-dashoffset:0;stroke-opacity:1;marker:none;marker-start:none;marker-mid:none;marker-end:none"
       inkscape:connector-curvature="0" />
    <path
       id="path956"
       d="m 13.869694,7.6647462 c 2.286796,-2.585074 5.170149,-3.281055 5.965557,-0.1988522 0.795407,3.082204 -1.193112,6.661538 -1.789667,5.269574 -0.596557,-1.391963 -1.292537,-3.6787586 -0.49713,-3.6787586 0.795407,0 -1.690241,3.5793326 -1.690241,3.5793326 z"
       style="color:#000000;display:inline;overflow:visible;visibility:visible;fill:url(#linearGradient992);fill-opacity:1;fill-rule:evenodd;stroke:none;stroke-width:2.21074963;stroke-linecap:butt;stroke-linejoin:miter;stroke-miterlimit:4;stroke-dashoffset:0;stroke-opacity:1;marker:none;marker-start:none;marker-mid:none;marker-end:none"
       inkscape:connector-curvature="0" />
    <path
       id="path958"
       d="m 5.147474,5.7382848 c 0,0 2.18035,1.7423732 2.905432,0.5173068 0.725083,-1.2250652 0.483502,-1.9893937 0.483502,-1.9893937 0,0 2.916978,-2.7197462 4.69299,-4.05710901 1.776011,-1.33736279 -2.714644,2.50059011 -2.096587,3.88314141 0.618055,1.3825513 4.400112,2.709204 3.747914,5.7607401 C 14.228527,12.904505 14.133048,12.27507 13.031492,12.881912 11.929937,13.488753 8.940072,14.38203 6.928422,11.577517 4.916769,8.773002 4.062906,5.0075969 5.147474,5.7382848 Z"
       style="color:#000000;display:inline;overflow:visible;visibility:visible;fill:#c5c5c5;fill-opacity:1;fill-rule:nonzero;stroke:none;stroke-width:1;stroke-linecap:butt;stroke-linejoin:miter;stroke-miterlimit:4;stroke-dashoffset:0;stroke-opacity:1;marker:none;marker-start:none;marker-mid:none;marker-end:none"
       inkscape:connector-curvature="0" />
    <path
       sodipodi:nodetypes="cccccc"
       id="path960"
       d="m 41.752456,11.294272 -14.435071,2.36545 c -0.148347,-0.415374 3.648689,-4.8791283 4.873747,-3.639938 1.225061,1.239192 7.473034,-1.8141201 6.247973,-3.0533112 -1.22506,-1.2391926 4.762141,0.943916 3.965653,2.5827736 -0.79649,1.6388586 -0.652302,1.7450256 -0.652302,1.7450256 z"
       style="color:#000000;display:inline;overflow:visible;visibility:visible;fill:#c5c5c5;fill-opacity:1;fill-rule:evenodd;stroke:none;stroke-width:2.21074963;stroke-linecap:butt;stroke-linejoin:miter;stroke-miterlimit:4;stroke-dashoffset:0;stroke-opacity:1;marker:none;marker-start:none;marker-mid:none;marker-end:none"
       inkscape:connector-curvature="0" />
    <path
       id="path962"
       d="m 18.146474,8.3562559 0.994259,0.8948335 -7.35752,4.1758886 z"
       style="fill:#ffffff;fill-opacity:1;fill-rule:evenodd;stroke:none;stroke-width:1px;stroke-linecap:butt;stroke-linejoin:miter;stroke-opacity:1"
       inkscape:connector-curvature="0" />
    <path
       id="path964"
       d="m 22.97424,1.2739786 c 9.483395,6.2234536 -5.720044,15.1163564 -8.225654,9.3505314 1.403897,1.034156 1.499275,2.104974 1.300637,3.163712 H 38.37098 C 37.558274,13.547004 36.841261,13.26622 35.55879,13.225785 36.607373,12.882087 35.040502,9.6161734 31.164744,6.3007678 35.356607,3.3572004 27.765525,4.3653513 22.97424,1.2739786 Z m 22.954499,9.3856834 c -2.976906,2.52122 -2.513081,2.2449 -3.40978,3.12856 h 1.230333 c 0.565971,-0.678464 1.190687,-1.481844 2.179447,-3.12856 z"
       style="font-size:12px;overflow:visible;fill:#c5c5c5;fill-opacity:1;fill-rule:nonzero;stroke:none"
       inkscape:connector-curvature="0" />
    <path
       id="path966"
       d="m 3.73983,13.839147 19.785758,-0.09943 c 0,0 -1.491387,-6.7609608 -4.275314,-4.5735916 C 16.466348,11.353499 9.208255,8.6690002 11.992183,6.4816292 14.776108,4.2942585 4.038108,9.2655554 4.038108,11.452924 c 0,2.187372 -0.298278,2.386223 -0.298278,2.386223 z"
       style="color:#000000;display:inline;overflow:visible;visibility:visible;fill:#c5c5c5;fill-opacity:1;fill-rule:evenodd;stroke:none;stroke-width:2.21074963;stroke-linecap:butt;stroke-linejoin:miter;stroke-miterlimit:4;stroke-dashoffset:0;stroke-opacity:1;marker:none;marker-start:none;marker-mid:none;marker-end:none"
       inkscape:connector-curvature="0" />
    <g
       transform="matrix(0.273209,0,0,0.273209,-38.75507,-13.71411)"
       id="g970"
       style="color:#000000;font-size:12px;display:inline;overflow:visible;visibility:visible;fill:#c5c5c5;fill-opacity:1;fill-rule:evenodd;stroke:none;stroke-width:2.13333321;stroke-linecap:butt;stroke-linejoin:miter;stroke-miterlimit:4;stroke-dashoffset:0;stroke-opacity:1;marker:none;marker-start:none;marker-mid:none;marker-end:none"
       i:knockout="Off">
      <path
         sodipodi:nodetypes="cccc"
         id="path968"
         d="M 163.66854,88.723079 C 164.69803,92.209992 156.205,98.079 148.429,97.376 c 7.313,-0.381 4.751,0.926 6.551,1.863 2.157,1.341 13.88508,-3.704652 8.68854,-10.515921 z"
         style="color:#000000;display:inline;overflow:visible;visibility:visible;fill:#c5c5c5;fill-opacity:1;stroke-dashoffset:0;marker:none;marker-start:none;marker-mid:none;marker-end:none"
         i:knockout="Off"
         inkscape:connector-curvature="0" />
    </g>
    <path
       id="path972"
       d="m 19.647979,9.6177764 c -1.49139,0.5965556 -2.783927,3.4799076 -5.269575,3.5793346 -2.485649,0.09943 5.269575,0.69598 6.064981,0 0.795407,-0.695983 -0.795406,-3.5793346 -0.795406,-3.5793346 z"
       style="color:#000000;display:inline;overflow:visible;visibility:visible;fill:#c5c5c5;fill-opacity:1;fill-rule:evenodd;stroke:none;stroke-width:2.21074963;stroke-linecap:butt;stroke-linejoin:miter;stroke-miterlimit:4;stroke-dashoffset:0;stroke-opacity:1;marker:none;marker-start:none;marker-mid:none;marker-end:none"
       inkscape:connector-curvature="0" />
    <path
       id="path974"
       d="m 18.753145,13.694241 h 10.340297 c 0,0 1.690241,-2.982779 -2.187371,-2.783927 -3.877611,0.198851 -2.585074,1.391964 -4.573593,1.789667 -1.988518,0.397705 -3.579333,0.99426 -3.579333,0.99426 z"
       style="color:#000000;display:inline;overflow:visible;visibility:visible;fill:#c5c5c5;fill-opacity:1;fill-rule:nonzero;stroke:none;stroke-width:1;stroke-linecap:butt;stroke-linejoin:miter;stroke-miterlimit:4;stroke-dashoffset:0;stroke-opacity:1;marker:none;marker-start:none;marker-mid:none;marker-end:none"
       inkscape:connector-curvature="0" />
    <path
       sodipodi:nodetypes="cccscscc"
       id="path976"
       d="m 3.765842,13.817037 14.804216,-0.04548 c 0,0 1.404641,-0.288741 2.109604,-0.470666 0.725942,-0.370742 1.843228,-0.36274 2.625597,-0.766139 1.409446,-0.726724 1.14683,-1.603406 4.377679,-1.624386 -3.923174,-0.41959 -3.680845,1.385114 -5.137858,1.733115 -1.182466,0.282425 -3.451985,1.082594 -3.952281,1.014372 -0.500296,-0.06822 -14.826957,0.159186 -14.826957,0.159186 z"
       style="fill:#ffffff;fill-opacity:1;fill-rule:evenodd;stroke:none;stroke-width:1px;stroke-linecap:butt;stroke-linejoin:miter;stroke-opacity:1"
       inkscape:connector-curvature="0" />
    <path
       sodipodi:nodetypes="cscccss"
       id="path978"
       d="m 12.066209,8.6776319 c 0,0 2.095988,1.6051801 5.253109,1.2507395 1.402598,-0.157465 2.251332,-1.1142956 2.819851,-1.1825171 0.568518,-0.068222 1.023332,0.2728881 1.023332,0.2728881 0,0 -0.523036,-0.2501476 -1.000593,-0.1364441 C 19.684353,8.9960014 18.59271,10.204283 16.978207,10.155779 13.294118,10.045098 12.066209,8.6776319 12.066209,8.6776319 Z"
       style="fill:#ffffff;fill-opacity:1;fill-rule:evenodd;stroke:none;stroke-width:1px;stroke-linecap:butt;stroke-linejoin:miter;stroke-opacity:1"
       inkscape:connector-curvature="0" />
    <path
       sodipodi:nodetypes="cccsc"
       id="path980"
       d="m 22.995022,1.3045545 c 0,0 3.398686,2.1818721 3.063012,4.909212 -0.335672,2.7273399 -3.440643,4.7833335 -3.440643,4.7833335 0,0 4.101329,-2.5725187 3.818275,-5.0350879 -0.41959,-3.6504398 -3.440644,-4.6574576 -3.440644,-4.6574576 z"
       style="fill:#ffffff;fill-opacity:1;fill-rule:evenodd;stroke:none;stroke-width:1px;stroke-linecap:butt;stroke-linejoin:miter;stroke-opacity:1"
       inkscape:connector-curvature="0" />
    <path
       sodipodi:nodetypes="cccc"
       id="path982"
       d="M 31.219002,6.3396438 C 30.84137,5.6263395 29.037129,4.1997309 27.484643,3.8640582 29.708474,4.4514854 31.680551,5.920053 31.680551,5.920053 Z"
       style="color:#000000;display:inline;overflow:visible;visibility:visible;fill:#000000;fill-opacity:0.17857145;fill-rule:evenodd;stroke:none;stroke-width:1px;stroke-linecap:butt;stroke-linejoin:miter;stroke-miterlimit:4;stroke-dashoffset:0;stroke-opacity:1;marker:none;marker-start:none;marker-mid:none;marker-end:none"
       inkscape:connector-curvature="0" />
    <path
       sodipodi:nodetypes="ccccc"
       id="path984"
       d="m 14.279699,7.2492294 c 0,0 0.949425,1.1571127 0.593391,2.521911 0.860418,0.178017 1.216451,0.207687 1.216451,0.207687 l 0.77141,-0.623059 c 0,0 0,-1.8395131 -2.581252,-2.106539 z"
       style="fill:#000000;fill-opacity:0.17857145;fill-rule:evenodd;stroke:none;stroke-width:1px;stroke-linecap:butt;stroke-linejoin:miter;stroke-opacity:1"
       inkscape:connector-curvature="0" />
    <path
       id="path986"
       d="m 11.600797,6.9311996 c 0,0 1.691164,-0.5933911 1.246122,-0.1780174 -0.445043,0.4153737 2.106537,2.2845552 2.106537,2.2845552 0,0 0,0.593391 -0.118677,0.741739 -0.11868,0.148348 -4.361424,-1.0681034 -3.233982,-2.8482768 z"
       style="fill:#000000;fill-opacity:0.07142855;fill-rule:evenodd;stroke:none;stroke-width:1px;stroke-linecap:butt;stroke-linejoin:miter;stroke-opacity:1"
       inkscape:connector-curvature="0" />
  </g>
</svg>
