<svg id="SVGRoot" width="48px" height="48px" version="1.1" viewBox="0 0 48 48" xmlns="http://www.w3.org/2000/svg">
<defs>
<filter id="filter975" color-interpolation-filters="sRGB">
<feFlood flood-color="rgb(0,0,0)" flood-opacity=".2" result="flood"/>
<feComposite in="flood" in2="SourceGraphic" operator="in" result="composite1"/>
<feGaussianBlur in="composite1" result="blur"/>
<feOffset dx="0" dy="1" result="offset"/>
<feComposite in="SourceGraphic" in2="offset" result="fbSourceGraphic"/>
<feColorMatrix in="fbSourceGraphic" result="fbSourceGraphicAlpha" values="0 0 0 -1 0 0 0 0 -1 0 0 0 0 -1 0 0 0 0 1 0"/>
<feFlood flood-color="rgb(255,255,255)" flood-opacity=".10196" in="fbSourceGraphic" result="flood"/>
<feComposite in="flood" in2="fbSourceGraphic" operator="out" result="composite1"/>
<feGaussianBlur in="composite1" result="blur"/>
<feOffset dx="0" dy="1" result="offset"/>
<feComposite in="offset" in2="fbSourceGraphic" operator="atop" result="composite2"/>
</filter>
</defs>
<g fill-rule="evenodd" filter="url(#filter975)">
<path d="m4.3995 16.545c-0.04281-0.03404 1.6818 24.492 1.6822 24.5 0.16178 2.4493 1.5199 3.3446 3.04 3.3482 0.054318 1.26e-4 28.517-0.0031 29.124-0.0057 2.5599-0.01077 3.187-1.5696 3.3554-3.2729 0.01351-0.03358 1.7372-24.536 1.7507-24.569h-38.952z" fill="#b5c051" stroke="#b5c051" stroke-width="1.2137"/>
<path d="m7.9997 4.6816c-1.0136 0.00236-1.862 0.026249-2.3241 1.0097-0.080315 0.17094-2.5284 7.1085-2.6461 7.3731-1.0076 2.265-0.078388 5.333 1.8678 5.3138 0.37012-0.0035 38.35 0.01769 38.939 0 1.6567-0.0489 1.8687-3.5677 1.1555-5.0539-0.04041-0.0842-3.3504-7.7275-3.4349-7.8629-0.39046-0.60461-1.2648-0.86959-1.9144-0.84478-0.12795 0.0050109-31.517 0.064689-31.643 0.064983z" fill="#eff3f4" stroke="#eff3f4" stroke-width="1.2292"/>
<g transform="matrix(.97099 0 0 .97099 .69618 1.2684)" fill="#fff">
<path d="m23.791 27.401 5.3918 0.41138 2.085-5.0759-2.467 1.7338s-1.0578-2.4672-1.8181-2.6655c-0.76028-0.19833-4.004-0.13222-4.004-0.13222 1.0317 0.25516 1.8336 2.028 1.8459 2.0481 0.32188 0.5252 1.2229 2.2925 1.2229 2.2925z" fill-opacity=".4881"/>
<path d="m24.458 23.89-1.7848 3.4047-3.6692-2.3139s1.6638-3.1403 2.975-3.1403c1.3223 0 1.9132 1.1398 2.479 2.0495z" color="#000000" fill-opacity=".30952"/>
<path d="m27.085 31.974-3.4763 4.1546 3.3174 4.2839 0.06136-2.6982s2.4435 0.2306 3.0043-0.31972c0.56082-0.55032 2.8939-3.325 2.8939-3.325-0.74906 0.75399-2.6819 0.53091-2.7055 0.53115-0.61596 0.0062-3.0538-0.05064-3.0538-0.05064z" fill-opacity=".4881"/>
<path d="m30.347 34.126-2.0037-3.2807 3.8705-1.9587s1.839 3.041 1.1653 4.1659c-0.67946 1.1344-1.9609 1.0556-3.032 1.0735z" color="#000000" fill-opacity=".30952"/>
<path d="m21.006 31.733-1.7161-4.5195-5.0041 0.35364 2.0542 1.4964s-1.4187 2.0028-1.2214 2.7634c0.19724 0.76057 1.31 3.9116 1.31 3.9116-0.27988-1.0253 0.87756-2.5893 0.88911-2.6099 0.30181-0.53698 1.5671-2.6216 1.5671-2.6216z" fill-opacity=".4881"/>
<path d="m17.573 33.558 3.8429-0.10035-0.23286 4.3316s-3.553 0.07712-4.1919-1.0679c-0.64427-1.1547 0.06313-2.226 0.58187-3.1634z" color="#000000" fill-opacity=".30952"/>
</g>
<path d="m8.3807 6.006c-0.93768-0.013428-0.99877-0.053587-1.2098 0.68153-0.048725 0.1697-2.0118 6.9553-2.0888 7.2145-0.26169 0.88167 0.10836 1.1144 1.0165 1.0965 0.32171-0.0063 35.555-5e-6 36.068-5e-6 0.72713 0 0.94282-0.28098 0.77857-0.90726-0.06675-0.25448-2.7996-7.3877-2.873-7.5148-0.33944-0.56734-0.28057-0.5657-0.87345-0.57369-0.1113-0.0015-30.593 0.00486-30.703 0.00328z" color="#000000" display="block" fill="#575955" stroke-width="1.002"/>
<path d="m38.999 6c0.10728 0.00101 0.44562 0.00118 0.52207 0.00984 0.07645 0.00865 0.141 0.025798 0.20072 0.060767 0.11944 0.069938 0.21952 0.21118 0.35669 0.49842 0.01876 0.039283 0.71851 1.8305 1.4101 3.6442 0.34578 0.90688 0.69503 1.8194 0.95837 2.5214 0.26334 0.70201 0.44077 1.1935 0.465 1.2583 0.08239 0.24972 0.10357 0.44814 0.06861 0.59954-0.03496 0.1514-0.12606 0.25577-0.24614 0.3174-0.24016 0.12326-0.61833 0.07557-1.1161 0.09005-0.18913-3.09e-4 -2.3993 2.47e-4 -2.619-3e-6z" color="#000000" display="block" fill="#babdb6" stroke-width="1.002"/>
<path d="m7.9984 6c-0.27581-0.00135-0.32487 7.358e-4 -0.38532 0.024559-0.033412 0.013168-0.069556 0.020213-0.10325 0.035826-0.033695 0.015612-0.065472 0.038357-0.091738 0.062996-0.10506 0.098556-0.16494 0.26647-0.23883 0.52783-0.048725 0.17234-2.0175 6.9667-2.0945 7.2299-0.26169 0.89538 0.085465 1.1361 0.99363 1.1179 0.015731-3.12e-4 1.7502 2.6e-4 1.9248 0z" color="#000000" display="block" fill="#2e3436" stroke-width="1.0098"/>
</g>
</svg>
