<svg width="24" height="24" version="1" xmlns="http://www.w3.org/2000/svg">
<defs>
<filter id="filter903" color-interpolation-filters="sRGB">
<feFlood flood-color="rgb(0,0,0)" flood-opacity=".2" result="flood"/>
<feComposite in="flood" in2="SourceGraphic" operator="in" result="composite1"/>
<feGaussianBlur in="composite1" result="blur"/>
<feOffset dx="0" dy="0.5" result="offset"/>
<feComposite in="SourceGraphic" in2="offset" result="composite2"/>
</filter>
</defs>
<g transform="translate(1,1)">
<path d="m2.9551 1c-0.52796 0-0.95508 0.41416-0.95508 0.92969v18.141c0 0.51553 0.42711 0.92969 0.95508 0.92969h16.09c0.52796 0 0.95508-0.41416 0.95508-0.92969v-18.141c0-0.51553-0.42712-0.92969-0.95508-0.92969zm13.045 10h2v1h-2zm0 5h2v1h-2zm0 2h2v1h-2z" color="#000000" display="block" fill="#d3d7cf" fill-opacity=".99608" filter="url(#filter903)" stroke-width="1.2677"/>
<g stroke-width="1.5">
<path d="m15 13.514v0.48633c0 0.277 0.25979 0.5 0.58203 0.5h2.8359c0.32224 0 0.58203-0.223 0.58203-0.5v-0.48633z" color="#000000" display="block" opacity=".2"/>
<path d="m15.582 9c-0.32224 0-0.58203 0.223-0.58203 0.5v4c0 0.277 0.25979 0.5 0.58203 0.5h2.8359c0.32224 0 0.58203-0.223 0.58203-0.5v-4c0-0.277-0.25979-0.5-0.58203-0.5zm0.41797 2h2v1h-2z" color="#000000" display="block" fill="#858585"/>
<path d="m3 11.514v0.39648c0 0.32668 0.25979 0.58984 0.58203 0.58984h1.8359c0.32224 0 0.58203-0.26316 0.58203-0.58984v-0.39648z" color="#000000" display="block" opacity=".2"/>
<rect x="3" y="9" width="3" height="3" rx=".58166" ry=".58968" color="#000000" display="block" fill="#858585"/>
<g transform="translate(4)">
<path d="m3 11.514v0.39648c0 0.32668 0.25979 0.58984 0.58203 0.58984h1.8359c0.32224 0 0.58203-0.26316 0.58203-0.58984v-0.39648z" color="#000000" display="block" opacity=".2"/>
<rect x="3" y="9" width="3" height="3" rx=".58166" ry=".58968" color="#000000" display="block" fill="#858585"/>
</g>
<g transform="translate(8)">
<path d="m3 11.514v0.39648c0 0.32668 0.25979 0.58984 0.58203 0.58984h1.8359c0.32224 0 0.58203-0.26316 0.58203-0.58984v-0.39648z" color="#000000" display="block" opacity=".2"/>
<rect x="3" y="9" width="3" height="3" rx=".58166" ry=".58968" color="#000000" display="block" fill="#858585"/>
</g>
<g transform="translate(8,4)">
<path d="m3 11.514v0.39648c0 0.32668 0.25979 0.58984 0.58203 0.58984h1.8359c0.32224 0 0.58203-0.26316 0.58203-0.58984v-0.39648z" color="#000000" display="block" opacity=".2"/>
<rect x="3" y="9" width="3" height="3" rx=".58166" ry=".58968" color="#000000" display="block" fill="#858585"/>
</g>
<g transform="translate(8,8)">
<path d="m3 11.514v0.39648c0 0.32668 0.25979 0.58984 0.58203 0.58984h1.8359c0.32224 0 0.58203-0.26316 0.58203-0.58984v-0.39648z" color="#000000" display="block" opacity=".2"/>
<rect x="3" y="9" width="3" height="3" rx=".58166" ry=".58968" color="#000000" display="block" fill="#858585"/>
</g>
<g transform="translate(4,8)">
<path d="m3 11.514v0.39648c0 0.32668 0.25979 0.58984 0.58203 0.58984h1.8359c0.32224 0 0.58203-0.26316 0.58203-0.58984v-0.39648z" color="#000000" display="block" opacity=".2"/>
<rect x="3" y="9" width="3" height="3" rx=".58166" ry=".58968" color="#000000" display="block" fill="#858585"/>
</g>
<g transform="translate(0,8)">
<path d="m3 11.514v0.39648c0 0.32668 0.25979 0.58984 0.58203 0.58984h1.8359c0.32224 0 0.58203-0.26316 0.58203-0.58984v-0.39648z" color="#000000" display="block" opacity=".2"/>
<rect x="3" y="9" width="3" height="3" rx=".58166" ry=".58968" color="#000000" display="block" fill="#858585"/>
</g>
<g transform="translate(0,4)">
<path d="m3 11.514v0.39648c0 0.32668 0.25979 0.58984 0.58203 0.58984h1.8359c0.32224 0 0.58203-0.26316 0.58203-0.58984v-0.39648z" color="#000000" display="block" opacity=".2"/>
<rect x="3" y="9" width="3" height="3" rx=".58166" ry=".58968" color="#000000" display="block" fill="#858585"/>
</g>
<g transform="translate(4,4)">
<path d="m3 11.514v0.39648c0 0.32668 0.25979 0.58984 0.58203 0.58984h1.8359c0.32224 0 0.58203-0.26316 0.58203-0.58984v-0.39648z" color="#000000" display="block" opacity=".2"/>
<rect x="3" y="9" width="3" height="3" rx=".58166" ry=".58968" color="#000000" display="block" fill="#858585"/>
</g>
<path d="m15 19.514v0.48633c0 0.277 0.25979 0.5 0.58203 0.5h2.8359c0.32224 0 0.58203-0.223 0.58203-0.5v-0.48633z" color="#000000" display="block" opacity=".2"/>
<path d="m15.582 15c-0.32224 0-0.58203 0.223-0.58203 0.5v4c0 0.277 0.25979 0.5 0.58203 0.5h2.8359c0.32224 0 0.58203-0.223 0.58203-0.5v-4c0-0.277-0.25979-0.5-0.58203-0.5zm0.41797 1h2v1h-2zm0 2h2v1h-2z" color="#000000" display="block" fill="#858585"/>
</g>
<g stroke-width="1.2677">
<path d="m3.0039 6.4434v0.14453c0 1.2624 1.7804 1.9121 2.293 1.9121h11.41c0.51265 0 2.291-0.47913 2.291-1.9121v-0.14453h-1.0273c-0.15888 0.78566-1.6648 1.0605-2.1211 1.0605h-9.6953c-0.45368 0-1.9455-0.36314-2.1191-1.0605z" color="#000000" display="block" opacity=".2"/>
<path d="m3.9298 2.0013c-0.51265 0-0.92541 0.59494-0.92541 1.3334v2.7541c0 1.2624 1.7799 1.9125 2.2925 1.9125h11.41c0.51265 0 2.2925-0.47949 2.2925-1.9125v-2.7541c0-0.73846-0.41275-1.3334-0.92541-1.3334zm0.70657 0.49098h12.495c0.48164 0 0.86933 0.36857 0.86933 0.82755v2.496c0 0.89066-1.6706 1.1892-2.1522 1.1892h-9.6951c-0.48164 0-2.1522-0.40459-2.1522-1.1892v-2.496c0-0.45899 0.38768-0.82755 0.86933-0.82755z" color="#000000" display="block" fill="#2e3436"/>
<path d="m5 5.5v0.62891c0 0.20599 0.16256 0.37109 0.36328 0.37109h11.273c0.20072 0 0.36328-0.16511 0.36328-0.37109v-0.62891z" color="#000000" display="block" opacity=".2"/>
<rect x="5" y="3.5" width="12" height="2.5" rx=".36232" ry=".37182" color="#000000" display="block" fill="#777b5e"/>
<path d="m12.659 4.7013c0.08447 0.021291 0.14851 0.058411 0.19214 0.11136 0.04419 0.052407 0.06628 0.11928 0.06628 0.20062-1e-6 0.12119-0.04755 0.21345-0.14265 0.27677-0.0951 0.062778-0.23383 0.094167-0.41617 0.094167-0.06433 0-0.12894-0.00519-0.19383-0.015559-0.06433-0.00982-0.1281-0.024838-0.19131-0.045037v-0.24319c0.06042 0.029478 0.12027 0.05186 0.17956 0.067145 0.05985 0.01474 0.11859 0.022111 0.1762 0.022106 0.08559 5e-7 0.15103-0.014463 0.19634-0.043402 0.04587-0.028932 0.0688-0.07042 0.0688-0.12446-1e-6 -0.05568-0.02349-0.097716-0.07049-0.1261-0.04643-0.028931-0.11523-0.043397-0.20642-0.043398h-0.12919v-0.20307h0.13593c0.08111 1e-6 0.14153-0.012287 0.18124-0.036848 0.03971-0.02511 0.05957-0.06305 0.05957-0.11382-2e-6 -0.046945-0.0193-0.083247-0.0579-0.10891-0.0386-0.025656-0.09314-0.038484-0.16362-0.038486-0.05202 1e-6 -0.1046 0.00574-0.15774 0.017196-0.05313 0.011462-0.106 0.028387-0.15859 0.050768v-0.23091c0.06377-0.017467 0.12698-0.030568 0.18962-0.039306 0.06265-0.00872 0.12418-0.0131 0.1846-0.013101 0.16278 1.5e-6 0.28444 0.026203 0.36499 0.078609 0.08111 0.051862 0.12166 0.1302 0.12167 0.23501-1e-6 0.071512-0.0193 0.1302-0.0579 0.17605-0.0386 0.045309-0.09566 0.077245-0.17118 0.095805m0.56972 0.34228h0.30207v0.31689h-0.30205v-0.31689m0.67713 0.09908h0.28528v-0.79019l-0.29284 0.058956v-0.21453l0.29116-0.058956h0.3071v1.0047h0.28528v0.21781h-0.87598v-0.21781m1.6261-0.74515-0.35409 0.51178h0.35409v-0.51178m-0.0537-0.25957h0.35912v0.77135h0.17872v0.22846h-0.17872v0.22272h-0.30542v-0.22272h-0.55547v-0.27022l0.50176-0.72959"/>
</g>
</g>
</svg>
