<svg width="24" height="24" version="1" xmlns="http://www.w3.org/2000/svg">
<defs>
<filter id="filter873" color-interpolation-filters="sRGB">
<feFlood flood-color="rgb(0,0,0)" flood-opacity=".2" result="flood"/>
<feComposite in="flood" in2="SourceGraphic" operator="in" result="composite1"/>
<feGaussianBlur in="composite1" result="blur"/>
<feOffset dx="0" dy="0.5" result="offset"/>
<feComposite in="SourceGraphic" in2="offset" result="composite2"/>
</filter>
<filter id="filter885" color-interpolation-filters="sRGB">
<feFlood flood-color="rgb(0,0,0)" flood-opacity=".2" result="flood"/>
<feComposite in="flood" in2="SourceGraphic" operator="in" result="composite1"/>
<feGaussianBlur in="composite1" result="blur"/>
<feOffset dx="0" dy="0.5" result="offset"/>
<feComposite in="SourceGraphic" in2="offset" result="composite2"/>
</filter>
<filter id="filter859" color-interpolation-filters="sRGB">
<feFlood flood-color="rgb(0,0,0)" flood-opacity=".2" result="flood"/>
<feComposite in="flood" in2="SourceGraphic" operator="in" result="composite1"/>
<feGaussianBlur in="composite1" result="blur"/>
<feOffset dx="0" dy="0.5" result="offset"/>
<feComposite in="SourceGraphic" in2="offset" result="composite2"/>
</filter>
</defs>
<g transform="translate(1 1)">
<rect x="7" y="1" width="14" height="14" rx="1.7154" ry="1.7154" color="#000000" display="block" fill="#4f4f4f" filter="url(#filter873)" stroke-width=".875"/>
<path d="m18 10.811v0.4554h-4.0751c0.03855 0.64094 0.22157 0.62966 0.54914 0.96696 0.33076 0.33397 0.78999 0.50094 1.3776 0.50094 0.34039 0 0.66954-0.04385 0.98749-0.13156 0.32112-0.08771 0.63904-0.21927 0.95374-0.39469v0.88044c-0.31792 0.14168-0.64384 0.24963-0.97784 0.32384-0.33398 0.07421-0.67274 0.11132-1.0164 0.11132-0.86064 0-1.543-0.26312-2.0472-0.78939-0.501-0.5265-0.75149-0.73806-0.75149-1.635-5e-6 -0.92769 0.23763-2.1635 0.71289-2.7066 0.47848-0.54649 1.1223-0.81974 1.9316-0.81974 0.72574 5e-6 1.2989 0.24626 1.7196 0.73879 0.42388 0.48914 0.63584 1.6558 0.63584 2.4992m-0.88629-0.27324c-0.0064-0.5094-0.14291-1.4163-0.40944-1.7199-0.26333-0.3036-0.61334-0.4554-1.0501-0.4554-0.49454 5e-6 -0.89114 0.14674-1.1898 0.44022-0.29544 0.29349-0.46564 1.2072-0.5106 1.7401l3.1599-0.0051m-1.1196-5.014h0.97784v1.0221h-0.97784v-1.0221m-1.983 0h0.97784v1.0221h-0.97784v-1.0221" opacity=".2"/>
<path d="m21 2.0002v-0.2388c0-0.42335-0.3535-0.76119-0.79699-0.76119h-12.406c-0.4435 0-0.79699 0.33785-0.79699 0.76119v0.2388c0-0.42335 0.35367-0.76119 0.79689-0.76119h12.406c0.4435 0 0.79699 0.33785 0.79699 0.76119z" fill="#fff" opacity=".1"/>
<path d="m18 10.311v0.4554h-4.0751c0.03855 0.64094 0.22157 0.62966 0.54914 0.96696 0.33076 0.33397 0.78999 0.50094 1.3776 0.50094 0.34039 0 0.66954-0.04385 0.98749-0.13156 0.32112-0.08771 0.63904-0.21927 0.95374-0.39469v0.88044c-0.31792 0.14168-0.64384 0.24963-0.97784 0.32384-0.33398 0.07421-0.67274 0.11132-1.0164 0.11132-0.86064 0-1.543-0.26312-2.0472-0.78939-0.501-0.5265-0.75149-0.73806-0.75149-1.635-5e-6 -0.92769 0.23763-2.1635 0.71289-2.7066 0.47848-0.54649 1.1223-0.81974 1.9316-0.81974 0.72574 5e-6 1.2989 0.24626 1.7196 0.73879 0.42388 0.48914 0.63584 1.6558 0.63584 2.4992m-0.88629-0.27324c-0.0064-0.5094-0.14291-1.4163-0.40944-1.7199-0.26333-0.3036-0.61334-0.4554-1.0501-0.4554-0.49454 5e-6 -0.89114 0.14674-1.1898 0.44022-0.29544 0.29349-0.46564 1.2072-0.5106 1.7401l3.1599-0.0051m-1.1196-5.014h0.97784v1.0221h-0.97784v-1.0221m-1.983 0h0.97784v1.0221h-0.97784v-1.0221" fill="#fff"/>
<rect x="1" y="7" width="14" height="14" rx="1.7154" ry="1.7154" color="#000000" display="block" fill="#d3d7cf" fill-opacity=".99608" filter="url(#filter885)" stroke-width=".875"/>
<path d="m13 18.842h-1.1701v-0.74316c-0.46643 0.60077-1.0816 0.90115-1.8456 0.90115-0.61118 0-1.0957-0.15995-1.4535-0.47984-0.35384-0.3238-0.53076-0.75486-0.53076-1.2932-1e-6 -0.36671 0.07237-0.68464 0.21712-0.95382 0.14877-0.26918 0.36992-0.48763 0.66345-0.65538 0.29755-0.16774 0.68355-0.28087 1.158-0.33939l1.7913-0.23406c-6e-6 -0.46033-0.10052-0.80558-0.30156-1.0357-0.19703-0.23016-0.49257-0.34524-0.88661-0.34524-0.32569 5e-6 -0.67351 0.06047-1.0434 0.1814-0.36591 0.12094-0.69361 0.2965-0.98312 0.52666v-1.1528c0.75191-0.36669 1.4596-0.55005 2.123-0.55005 0.7318 6e-6 1.2908 0.19702 1.6768 0.59101 0.39003 0.39402 0.58503 0.95188 0.58504 1.6735v3.9089m-1.1701-2.2646v-0.68465c-1.0052 0.12484-1.5722 0.197-1.7009 0.21652-0.12464 0.01951-0.27946 0.06827-0.46442 0.14628-0.18095 0.07803-0.30961 0.18141-0.38602 0.31014-0.07237 0.12874-0.10857 0.31599-0.10857 0.56176 0 0.27698 0.10052 0.50324 0.30156 0.6788 0.20507 0.17165 0.47245 0.25748 0.80217 0.25748 0.41013 0 0.77202-0.14238 1.0856-0.42718 0.31362-0.28478 0.47044-0.63783 0.47045-1.0592m0.50663-6.5773-1.6225 1.9193h-0.80217l1.3088-1.9193h1.1158" filter="url(#filter859)" stroke-width="1.2866"/>
</g>
</svg>
