<?xml version="1.0" encoding="UTF-8" standalone="no"?>
<svg
   xmlns:dc="http://purl.org/dc/elements/1.1/"
   xmlns:cc="http://creativecommons.org/ns#"
   xmlns:rdf="http://www.w3.org/1999/02/22-rdf-syntax-ns#"
   xmlns:svg="http://www.w3.org/2000/svg"
   xmlns="http://www.w3.org/2000/svg"
   xmlns:sodipodi="http://sodipodi.sourceforge.net/DTD/sodipodi-0.dtd"
   xmlns:inkscape="http://www.inkscape.org/namespaces/inkscape"
   width="24"
   height="24"
   version="1"
   id="svg14"
   sodipodi:docname="applications-development.svg"
   inkscape:version="0.92.4 (5da689c313, 2019-01-14)">
  <metadata
     id="metadata20">
    <rdf:RDF>
      <cc:Work
         rdf:about="">
        <dc:format>image/svg+xml</dc:format>
        <dc:type
           rdf:resource="http://purl.org/dc/dcmitype/StillImage" />
        <dc:title></dc:title>
      </cc:Work>
    </rdf:RDF>
  </metadata>
  <defs
     id="defs18">
    <filter
       style="color-interpolation-filters:sRGB"
       id="filter889">
      <feFlood
         flood-color="rgb(255,255,255)"
         flood-opacity=".2"
         result="flood"
         id="feFlood2" />
      <feComposite
         in="flood"
         in2="SourceGraphic"
         operator="out"
         result="composite1"
         id="feComposite4" />
      <feGaussianBlur
         in="composite1"
         result="blur"
         id="feGaussianBlur6" />
      <feOffset
         dx="0"
         dy="0.5"
         result="offset"
         id="feOffset8" />
      <feComposite
         in="offset"
         in2="SourceGraphic"
         operator="atop"
         result="fbSourceGraphic"
         id="feComposite10" />
      <feColorMatrix
         in="fbSourceGraphic"
         result="fbSourceGraphicAlpha"
         values="0 0 0 -1 0 0 0 0 -1 0 0 0 0 -1 0 0 0 0 1 0"
         id="feColorMatrix12" />
      <feFlood
         flood-color="rgb(0,0,0)"
         flood-opacity=".2"
         in="fbSourceGraphic"
         result="flood"
         id="feFlood14" />
      <feComposite
         in="flood"
         in2="fbSourceGraphic"
         operator="in"
         result="composite1"
         id="feComposite16" />
      <feGaussianBlur
         in="composite1"
         result="blur"
         id="feGaussianBlur18" />
      <feOffset
         dx="0"
         dy="0.5"
         result="offset"
         id="feOffset20" />
      <feComposite
         in="fbSourceGraphic"
         in2="offset"
         result="fbSourceGraphic"
         id="feComposite22" />
      <feColorMatrix
         in="fbSourceGraphic"
         result="fbSourceGraphicAlpha"
         values="0 0 0 -1 0 0 0 0 -1 0 0 0 0 -1 0 0 0 0 1 0"
         id="feColorMatrix24" />
      <feFlood
         flood-color="rgb(255,255,255)"
         flood-opacity=".2"
         in="fbSourceGraphic"
         result="flood"
         id="feFlood26" />
      <feComposite
         in="flood"
         in2="fbSourceGraphic"
         operator="out"
         result="composite1"
         id="feComposite28" />
      <feGaussianBlur
         in="composite1"
         result="blur"
         id="feGaussianBlur30" />
      <feOffset
         dx="0"
         dy="0.5"
         result="offset"
         id="feOffset32" />
      <feComposite
         in="offset"
         in2="fbSourceGraphic"
         operator="atop"
         result="composite2"
         id="feComposite34" />
    </filter>
    <filter
       style="color-interpolation-filters:sRGB"
       id="filter889-3">
      <feFlood
         flood-color="rgb(255,255,255)"
         flood-opacity=".2"
         result="flood"
         id="feFlood2-6" />
      <feComposite
         in="flood"
         in2="SourceGraphic"
         operator="out"
         result="composite1"
         id="feComposite4-7" />
      <feGaussianBlur
         in="composite1"
         result="blur"
         id="feGaussianBlur6-5" />
      <feOffset
         dx="0"
         dy="0.5"
         result="offset"
         id="feOffset8-3" />
      <feComposite
         in="offset"
         in2="SourceGraphic"
         operator="atop"
         result="fbSourceGraphic"
         id="feComposite10-5" />
      <feColorMatrix
         in="fbSourceGraphic"
         result="fbSourceGraphicAlpha"
         values="0 0 0 -1 0 0 0 0 -1 0 0 0 0 -1 0 0 0 0 1 0"
         id="feColorMatrix12-6" />
      <feFlood
         flood-color="rgb(0,0,0)"
         flood-opacity=".2"
         in="fbSourceGraphic"
         result="flood"
         id="feFlood14-2" />
      <feComposite
         in="flood"
         in2="fbSourceGraphic"
         operator="in"
         result="composite1"
         id="feComposite16-9" />
      <feGaussianBlur
         in="composite1"
         result="blur"
         id="feGaussianBlur18-1" />
      <feOffset
         dx="0"
         dy="0.5"
         result="offset"
         id="feOffset20-2" />
      <feComposite
         in="fbSourceGraphic"
         in2="offset"
         result="fbSourceGraphic"
         id="feComposite22-7" />
      <feColorMatrix
         in="fbSourceGraphic"
         result="fbSourceGraphicAlpha"
         values="0 0 0 -1 0 0 0 0 -1 0 0 0 0 -1 0 0 0 0 1 0"
         id="feColorMatrix24-0" />
      <feFlood
         flood-color="rgb(255,255,255)"
         flood-opacity=".2"
         in="fbSourceGraphic"
         result="flood"
         id="feFlood26-9" />
      <feComposite
         in="flood"
         in2="fbSourceGraphic"
         operator="out"
         result="composite1"
         id="feComposite28-3" />
      <feGaussianBlur
         in="composite1"
         result="blur"
         id="feGaussianBlur30-6" />
      <feOffset
         dx="0"
         dy="0.5"
         result="offset"
         id="feOffset32-0" />
      <feComposite
         in="offset"
         in2="fbSourceGraphic"
         operator="atop"
         result="composite2"
         id="feComposite34-6" />
    </filter>
  </defs>
  <sodipodi:namedview
     pagecolor="#ffffff"
     bordercolor="#666666"
     borderopacity="1"
     objecttolerance="10"
     gridtolerance="10"
     guidetolerance="10"
     inkscape:pageopacity="0"
     inkscape:pageshadow="2"
     inkscape:window-width="1366"
     inkscape:window-height="689"
     id="namedview16"
     showgrid="true"
     inkscape:zoom="13.906433"
     inkscape:cx="1.1196484"
     inkscape:cy="12.556992"
     inkscape:window-x="0"
     inkscape:window-y="0"
     inkscape:window-maximized="1"
     inkscape:current-layer="svg14">
    <inkscape:grid
       type="xygrid"
       id="grid897" />
  </sodipodi:namedview>
  <g
     style="filter:url(#filter889-3)"
     transform="matrix(1.25,0,0,1.25,2.0000162,2.000103)"
     id="g67">
    <flowRoot
       transform="matrix(0.37746,0,0,0.37612,-0.94639,-0.4437)"
       xml:space="preserve"
       id="flowRoot45"><flowRegion
         id="flowRegion41"><rect
           x="86.788002"
           y="412.79999"
           width="40.056"
           height="16.021999"
           id="rect39" /></flowRegion><flowPara
         id="flowPara43" /></flowRoot>    <path
       style="fill:#e4d239;stroke-width:1.06589997"
       inkscape:connector-curvature="0"
       d="m 7.7928,1.9893e-4 c -1.0465,0.014628 -1.9956,0.26731 -2.8379,0.69186 C 4.54243,1.5014189 3.1844,2.4635589 2.6278,2.5658589 c -1.0945,1.3012 -1.8044,2.935 -2.0736,4.506 -1.6514e-4,9.78e-4 1.6479e-4,0.00195 0,0.00289 -0.4478,0.58289 -0.63791,1.2776 -0.51988,2.0809 0.42319,2.8808001 1.2389,5.5998001 3.0895,6.2272001 2.7005,0.91547 8.2557,0.67169 9.4853,0.17236 2.6946,-1.0943 2.9334,-3.4923 3.3562,-6.3114001 0.11534,-0.7691 -0.05467,-1.4447 -0.4645,-2.0209 -0.0034,-0.020912 -0.007,-0.041927 -0.01069,-0.062941 -0.29489,-1.6695 -1.0747,-3.3434 -2.2431,-4.6524 -0.79033,-0.081782 -2.3174,-1.3451 -2.6873,-1.96479997 -0.81253,-0.3464 -1.7068,-0.54268 -2.6707,-0.54268 -0.032204,0 -0.064182,-4.4758e-4 -0.096204,0 z"
       id="path47" />
    <g
       style="fill:#ede189;fill-rule:evenodd;stroke-width:1.06589997"
       id="g63">
      <path
         inkscape:connector-curvature="0"
         d="m 15.522,8.1293 c -1.7349,6.1836 -12.528,6.7739 -15.04,0.093762 -0.015932,6.1399 2.3855,7.9142 9.2125,7.5997 1.1557,-0.05291 3.7783,0.01613 5.5164,-3.4366 0.84489,-4.3294 0.3115,-4.2569 0.3115,-4.2569 z"
         id="path49" />
      <g
         id="g61">
        <path
           inkscape:connector-curvature="0"
           d="m 12.148,2.4442 0.94397,0.42329 c 0,0 -0.49463,3.8073 -2.5173,6.2004 0.66873,-2.4282 1.5812,-6.6236 1.5733,-6.6236 z"
           id="path51" />
        <path
           inkscape:connector-curvature="0"
           d="M 5.0448,1.1196 C 5.61119,4.5294 7.4991,8.4488 7.3104,8.6447 5.5798,6.0188 4.8561,3.7847 4.2896,1.9034 c 0,-0.031355 0.75518,-0.77603 0.75518,-0.78387 z"
           id="path53" />
        <path
           inkscape:connector-curvature="0"
           d="m 10.457,0.99414 c -1.5418,6.2082 -1.6048,7.2429 -1.6048,7.2429 0,0 2.3914,-6.3022 2.3914,-6.4591 0,-3e-7 -0.59785,-0.56439 -0.78664,-0.78387 z"
           id="path55" />
        <path
           inkscape:connector-curvature="0"
           d="M 5.1617,12.524 5.144839,8.9246 h 5.4708 l 0.62001,-0.47525 h -6.3909 l 0.016861,4.0022 z"
           id="path57" />
        <path
           inkscape:connector-curvature="0"
           d="m 10.771,8.8906 0.03083,3.6878 0.25899,-0.08077 0.0045,-4.0822 z"
           id="path59" />
      </g>
    </g>
    <path
       style="opacity:0.74444;fill:none;stroke-width:1.06589997"
       inkscape:connector-curvature="0"
       d="M 7.8046,0.45486 C 6.81795,0.468651 5.9232,0.70687 5.129,1.10714 4.74013,1.87019 3.4598,2.77724 2.935,2.87384 1.9031,4.10054 1.2339,5.64094 0.98,7.12214 c -1.5562e-4,9.027e-4 1.554e-4,0.00185 0,0.00274 -0.42218,0.54954 -0.7015,1.2211 -0.59023,1.9785 0.39898,2.716 1.1051,5.1565 2.7659,5.8823 2.2358,0.97701 8.1303,0.67174 9.2897,0.20096 2.5405,-1.0317 2.6655,-3.359 3.0641,-6.0168 0.10874,-0.72511 -0.05154,-1.3621 -0.43793,-1.9053 -0.0032,-0.019716 -0.0066,-0.039529 -0.01011,-0.059341 -0.27799,-1.5741 -1.0132,-3.1521 -2.1148,-4.3862 -0.74511,-0.077104 -2.1849,-1.2682 -2.5336,-1.8524 -0.76605,-0.32658 -1.6092,-0.51163 -2.5179,-0.51163 -0.030363,0 -0.06051,-4.2126e-4 -0.090701,0 z"
       id="path65" />
  </g>
</svg>
