<svg width="24" height="24" version="1" xmlns="http://www.w3.org/2000/svg">
<g transform="translate(1,1)">
<rect x="1" y="1" width="20" height="20" rx="10" ry="10" fill="#f5b35d"/>
<path d="m11.001 1c-5.54 0-10 4.46-10 10 0 0.084-2e-3 0.1665 0 0.25 0.1322-5.423 4.544-9.75 10-9.75s9.868 4.327 10 9.75c2e-3 -0.084 0-0.166 0-0.25 0-5.54-4.46-10-10-10z" fill="#fff" opacity=".2"/>
<path d="m1.0067 11.25c-0.00205 0.0835-0.00585 0.166-0.00585 0.25 0 5.54 4.46 10 10 10s10-4.46 10-10c0-0.084-4e-3 -0.1665-6e-3 -0.25-0.132 5.423-4.538 9.75-9.994 9.75s-9.862-4.327-9.994-9.75z" opacity=".2"/>
<g transform="translate(3,2)" fill="#444" fill-rule="evenodd">
<path d="m4.8026 8c-2.8305 1.6867-3.1838 3.9705-2.5096 5.3222 0.70024 1.4039 1.8859 1.6601 3.3002 1.6708l2.395 0.0069h0.023388l2.395-0.0069c1.4142-0.01079 2.5999-0.26702 3.3002-1.6708 0.67419-1.3516 0.32093-3.6354-2.5096-5.3222-0.67043 0.73778-1.941 1.1704-3.1972 1.1827-1.2563-0.012293-2.5268-0.44492-3.1972-1.1827z" color="#000000" stroke-width="1.1619"/>
<circle cx="8" cy="5" r="3" stroke-width="1.4216"/>
</g>
<circle cx="16.5" cy="16.5" r="5.5" fill="#a559d6"/>
<path d="m14 17.582v1.418h1.418l3.582-3.582-1.418-1.418z" fill="#fff"/>
</g>
</svg>
