<svg width="24" height="24" version="1" xmlns="http://www.w3.org/2000/svg">
<defs>
<filter id="filter898" color-interpolation-filters="sRGB">
<feFlood flood-color="rgb(0,0,0)" flood-opacity=".2" result="flood"/>
<feComposite in="flood" in2="SourceGraphic" operator="in" result="composite1"/>
<feGaussianBlur in="composite1" result="blur"/>
<feOffset dx="0" dy="0.5" result="offset"/>
<feComposite in="SourceGraphic" in2="offset" result="fbSourceGraphic"/>
<feColorMatrix in="fbSourceGraphic" result="fbSourceGraphicAlpha" values="0 0 0 -1 0 0 0 0 -1 0 0 0 0 -1 0 0 0 0 1 0"/>
<feFlood flood-color="rgb(255,255,255)" flood-opacity=".10196" in="fbSourceGraphic" result="flood"/>
<feComposite in="flood" in2="fbSourceGraphic" operator="out" result="composite1"/>
<feGaussianBlur in="composite1" result="blur"/>
<feOffset dx="0" dy="0.5" result="offset"/>
<feComposite in="offset" in2="fbSourceGraphic" operator="atop" result="composite2"/>
</filter>
<linearGradient id="linearGradient2707" x1="12.207" x2="12.128" y1="53.535" y2="64.893" gradientTransform="matrix(1.2056 0 0 .50202 -3.5971 -11.495)" gradientUnits="userSpaceOnUse">
<stop stop-color="#585956" offset="0"/>
<stop stop-color="#bbbeb8" offset="1"/>
</linearGradient>
</defs>
<g transform="translate(.99969 1.0024)" filter="url(#filter898)">
<path d="m1.7204 2.7669-2.67e-5 12.559h18.466v-12.506z" fill="#5b5b97" fill-rule="evenodd" stroke-width="1.3567"/>
<ellipse cx="10.998" cy="19.01" rx="4.999" ry="1.9901" color="#000000" fill="#adb0aa" fill-rule="evenodd" stroke-width="1.3153"/>
<ellipse cx="10.998" cy="18.842" rx="4.5109" ry="1.6472" color="#000000" fill="none" stroke-width="1.3153"/>
<rect x="8" y="16.502" width="6" height="2.4985" color="#000000" fill="url(#linearGradient2707)" fill-rule="evenodd" stroke-width="1.3689"/>
<path d="m1.8438 2.002c-0.56529 0-0.84175 0.32402-0.8418 0.72461v13.229c-0.029406 0.5781 0.45424 1.0449 1.0195 1.0449h17.953c0.56527 0 1.0489-0.46683 1.0195-1.0449l0.0059-13.229c-0.021561-0.42313-0.38156-0.72461-0.84184-0.72461h-18.315zm0.15625 0.99805 18-0.00245v12.002h-18v-12z" color="#000000" fill="#dde1d9" fill-rule="evenodd" stroke-width="1.2498"/>
<path d="m15.529 7.1665c0.84316 3.9718-1.6613 6.2782-5.7816 3.9687 0.31672 1.2155 1.1448 2.2657 2.4002 2.6797 1.9638 0.64763 4.0703-0.45866 4.7028-2.4697 0.49886-1.5864-0.09579-3.223-1.3215-4.1787z" color="#000000" fill="#fce94f" stroke-width="1.2498"/>
<g fill="#fff">
<path d="m7.7047 5.9971-1.5354 0.1381-0.16101 1.599-0.13485-1.5723-1.5615-0.16487 1.5354-0.1381 0.16101-1.599 0.13485 1.5723z" color="#000000" stroke-width=".51109"/>
<g stroke-width=".32279">
<path d="m11.094 6.0315-0.9697 0.087219-0.10169 1.0099-0.085169-0.99302-0.98619-0.10413 0.9697-0.087219 0.10169-1.0099 0.08517 0.99302z" color="#000000"/>
<path d="m8.0919 8.0233-0.9697 0.087219-0.10169 1.0099-0.085168-0.99302-0.98619-0.10413 0.9697-0.087219 0.10169-1.0099 0.085169 0.99302z" color="#000000"/>
<path d="m6.09 10.009-0.9697 0.08722-0.10169 1.0099-0.085168-0.99302-0.98619-0.10413 0.9697-0.087218 0.10169-1.0099 0.085169 0.99302z" color="#000000"/>
</g>
</g>
</g>
</svg>
