<svg width="24" height="24" version="1" xmlns="http://www.w3.org/2000/svg">
<defs>
<filter id="filter1056" color-interpolation-filters="sRGB">
<feFlood flood-color="rgb(0,0,0)" flood-opacity=".2" result="flood"/>
<feComposite in="flood" in2="SourceGraphic" operator="in" result="composite1"/>
<feGaussianBlur in="composite1" result="blur"/>
<feOffset dx="0" dy="0.5" result="offset"/>
<feComposite in="SourceGraphic" in2="offset" result="fbSourceGraphic"/>
<feColorMatrix in="fbSourceGraphic" result="fbSourceGraphicAlpha" values="0 0 0 -1 0 0 0 0 -1 0 0 0 0 -1 0 0 0 0 1 0"/>
<feFlood flood-color="rgb(255,255,255)" flood-opacity=".2" in="fbSourceGraphic" result="flood"/>
<feComposite in="flood" in2="fbSourceGraphic" operator="out" result="composite1"/>
<feGaussianBlur in="composite1" result="blur"/>
<feOffset dx="0" dy="0.5" result="offset"/>
<feComposite in="offset" in2="fbSourceGraphic" operator="atop" result="composite2"/>
</filter>
<filter id="filter1314" color-interpolation-filters="sRGB">
<feFlood flood-color="rgb(255,255,255)" flood-opacity=".2" result="flood"/>
<feComposite in="flood" in2="SourceGraphic" operator="out" result="composite1"/>
<feGaussianBlur in="composite1" result="blur"/>
<feOffset dx="0" dy="0.5" result="offset"/>
<feComposite in="offset" in2="SourceGraphic" operator="atop" result="composite2"/>
</filter>
<filter id="filter1135" color-interpolation-filters="sRGB">
<feFlood flood-color="rgb(0,0,0)" flood-opacity=".2" result="flood"/>
<feComposite in="flood" in2="SourceGraphic" operator="in" result="composite1"/>
<feGaussianBlur in="composite1" result="blur"/>
<feOffset dx="0" dy="0.5" result="offset"/>
<feComposite in="SourceGraphic" in2="offset" result="composite2"/>
</filter>
<filter id="filter1155" color-interpolation-filters="sRGB">
<feFlood flood-color="rgb(255,255,255)" flood-opacity=".2" result="flood"/>
<feComposite in="flood" in2="SourceGraphic" operator="out" result="composite1"/>
<feGaussianBlur in="composite1" result="blur"/>
<feOffset dx="0" dy="0.5" result="offset"/>
<feComposite in="offset" in2="SourceGraphic" operator="atop" result="composite2"/>
</filter>
</defs>
<g transform="translate(1.0268 1.9995)">
<path d="m8.9682 4c-0.22629 0.0053309-0.34672 0.21327-0.37561 0.46361l-0.59257 9.6315c3.9674 1.4488 9.2653 0.93746 12 0l-0.76446-9.5018c-0.02889-0.27697-0.17348-0.58798-0.472-0.5933z" color="#000000" fill="#e6e5e1" fill-rule="evenodd" filter="url(#filter1056)" stroke-width="1.1599"/>
<path d="m9.9615 4.9259c0.11753-2.8511 0.45053-3.6596 1.6846-3.6596 1.2732 0 2.1155-0.34043 3.7609-1.2341" color="#000000" fill="none" stroke-width="1.1689"/>
<rect x="10" y="4" width="1" height="1" rx=".42789" ry=".40825" color="#000000" fill="#4f4f4f" fill-rule="evenodd" stroke-width=".88815"/>
<rect x="10" y="6" width="2" height="1" color="#000000" fill="#4f4f4f" fill-rule="evenodd" stroke-width="1.9758"/>
<path d="m9.0935 4.5493c-0.14534-0.0055946-0.12315 0.21942-0.15036 0.45093l-0.55816 8.954c3.737 1.3398 8.8531 0.85112 11.429-0.01578l-0.74913-8.8709c-0.0272-0.25614 0.02066-0.51332-0.26052-0.51825z" color="#000000" fill="none" opacity=".60795" stroke-width="1.1689"/>
<path d="m6.5851 10.439c0.49469-2.3906-1.6642-2.7757 0.54356-5.635 2.1923-2.8394-2.186-3.77-2.186-3.77" fill="none" stroke-width="1.2205"/>
<g fill="#4f4f4f" fill-rule="evenodd">
<rect x="13" y="6" width="2" height="1" color="#000000" stroke-width="1.9758"/>
<rect transform="matrix(.64924 -.76058 .70461 .7096 0 0)" x="3.5161" y="13.715" width="3.077" height=".73389" rx=".55273" ry=".5493" color="#000000" stroke-width="1.1709"/>
<rect x="16" y="6" width="2" height="1" color="#000000" stroke-width="1.9758"/>
</g>
<g filter="url(#filter1314)">
<path d="m6.3786 10c-1.0035-0.0043-1.9812 0.17478-2.7329 0.54883-0.19104 0.09645-0.32989 0.0959-0.46884 0.57812l-1.0256 3.7598c-0.73352 3.0294 1.2714 5.1133 4.4804 5.1133 3.1743 0 4.884-2.4136 4.2303-5.1133l-1.0412-3.6152c-0.12158-0.50635-0.38022-0.66756-0.5548-0.72266-0.76757-0.32056-1.6763-0.49608-2.5806-0.5332 0.75404 0.11995 1.3219 0.97206 1.3225 1.9844 0 1.1046-0.6717 2-1.5003 2-0.82859 0-1.5003-0.89543-1.5003-2 9.16e-4 -1.0723 0.63602-1.9528 1.4397-1.9961-0.02278-2.85e-4 -0.04562-0.0038-0.06837-0.0039z" fill="#4f4f4f" fill-rule="evenodd" filter="url(#filter1135)" opacity=".9" stroke-width="1.2679"/>
<path d="m2.4139 15.431c-0.41043 2.2806 1.3521 4.223 4.3644 4.223s4.1652-2.3446 3.8229-4.223l-1.0859-3.7625c-0.090101-0.59193-0.35552-0.64902-0.51271-0.70606-1.7058-0.61892-3.6946-0.66998-5.0843 0-0.17415 0.08396-0.3184 0.05205-0.42421 0.47907z" fill="none" filter="url(#filter1155)" stroke-width="1.2679"/>
<g fill-rule="evenodd">
<path d="m6.5075 15h4.3758c-0.0083-0.03795-0.01227-0.07521-0.02148-0.11328l-1.0412-3.6152c-0.12158-0.50635-0.38022-0.66756-0.5548-0.72266-0.76757-0.32056-1.6763-0.49608-2.5806-0.5332 0.75404 0.11995 1.3219 0.97206 1.3225 1.9844 0 1.1046-0.6717 2-1.5003 2z" fill="#4f4f4f" stroke-width="1.2679"/>
<path d="m6.5075 15v-1c-0.82859 0-1.5003-0.89543-1.5003-2 9.152e-4 -1.0723 0.63602-1.9528 1.4397-1.9961-0.022784-2.85e-4 -0.045619-0.0038-0.068373-0.0039-1.0035-0.0043-1.9812 0.17478-2.7329 0.54883-0.19104 0.09645-0.32989 0.0959-0.46884 0.57812l-1.0256 3.7598c-0.0093 0.03853-0.013042 0.07506-0.021484 0.11328z" fill="#4f4f4f" opacity=".5" stroke-width="1.2679"/>
<ellipse cx="6.5" cy="12" rx="1.5" ry="2" fill="#fff" filter="url(#filter1155)"/>
</g>
</g>
<g fill-rule="evenodd">
<ellipse cx="6.5075" cy="11.5" rx=".5001" ry="1.5" color="#000000" fill="#b1b1b1" stroke-width="1.2249"/>
<path d="m10 8v4h8v-4zm1 1h6v2h-6z" fill="#4f4f4f" stroke-width=".66667"/>
<path d="m17.253 1.1454c0.27424-0.29787 0.74435 0.17021 0.5093 0.55319 0 0-1.3222 2.234-2.7031 3.9575-1.381 1.7234-2.8207 2.9043-2.8207 2.9043-0.21547 0.20213-0.88148 0.47872-0.88148 0.47872l-0.17581-0.21637s0.28355-0.68787 0.46963-0.90063l0.62682-0.77659z" color="#000000" fill="#d3d7cf" fill-opacity=".99608" stroke-width="1.1689"/>
</g>
</g>
</svg>
