<svg width="24" height="24" version="1" xmlns="http://www.w3.org/2000/svg">
<defs>
<filter id="filter1439" color-interpolation-filters="sRGB">
<feFlood flood-color="rgb(255,255,255)" flood-opacity=".10196" result="flood"/>
<feComposite in="flood" in2="SourceGraphic" operator="out" result="composite1"/>
<feGaussianBlur in="composite1" result="blur"/>
<feOffset dx="0" dy="0.5" result="offset"/>
<feComposite in="offset" in2="SourceGraphic" operator="atop" result="composite2"/>
</filter>
<filter id="filter1377" color-interpolation-filters="sRGB">
<feFlood flood-color="rgb(0,0,0)" flood-opacity=".2" result="flood"/>
<feComposite in="flood" in2="SourceGraphic" operator="in" result="composite1"/>
<feGaussianBlur in="composite1" result="blur"/>
<feOffset dx="0" dy="0.5" result="offset"/>
<feComposite in="SourceGraphic" in2="offset" result="composite2"/>
</filter>
<filter id="filter1389" color-interpolation-filters="sRGB">
<feFlood flood-color="rgb(0,0,0)" flood-opacity=".2" result="flood"/>
<feComposite in="flood" in2="SourceGraphic" operator="in" result="composite1"/>
<feGaussianBlur in="composite1" result="blur"/>
<feOffset dx="0" dy="0.5" result="offset"/>
<feComposite in="SourceGraphic" in2="offset" result="composite2"/>
</filter>
<filter id="filter1413" color-interpolation-filters="sRGB">
<feFlood flood-color="rgb(0,0,0)" flood-opacity=".2" result="flood"/>
<feComposite in="flood" in2="SourceGraphic" operator="in" result="composite1"/>
<feGaussianBlur in="composite1" result="blur"/>
<feOffset dx="0" dy="0.5" result="offset"/>
<feComposite in="SourceGraphic" in2="offset" result="composite2"/>
</filter>
<filter id="filter1401" color-interpolation-filters="sRGB">
<feFlood flood-color="rgb(0,0,0)" flood-opacity=".2" result="flood"/>
<feComposite in="flood" in2="SourceGraphic" operator="in" result="composite1"/>
<feGaussianBlur in="composite1" result="blur"/>
<feOffset dx="0" dy="0.5" result="offset"/>
<feComposite in="SourceGraphic" in2="offset" result="composite2"/>
</filter>
<filter id="filter1353" color-interpolation-filters="sRGB">
<feFlood flood-color="rgb(0,0,0)" flood-opacity=".2" result="flood"/>
<feComposite in="flood" in2="SourceGraphic" operator="in" result="composite1"/>
<feGaussianBlur in="composite1" result="blur"/>
<feOffset dx="0" dy="0.5" result="offset"/>
<feComposite in="SourceGraphic" in2="offset" result="composite2"/>
</filter>
<filter id="filter1365" color-interpolation-filters="sRGB">
<feFlood flood-color="rgb(0,0,0)" flood-opacity=".2" result="flood"/>
<feComposite in="flood" in2="SourceGraphic" operator="in" result="composite1"/>
<feGaussianBlur in="composite1" result="blur"/>
<feOffset dx="0" dy="0.5" result="offset"/>
<feComposite in="SourceGraphic" in2="offset" result="composite2"/>
</filter>
</defs>
<g transform="translate(1.0003 2.0045)" filter="url(#filter1439)">
<path d="m16.92 9.5742c0.30945 0.32041 0.50109 0.77049 0.50109 1.2543 0 0.98993-0.80896 1.7841-1.7989 1.7841v0.69474c1.3649 0 2.4937-1.1139 2.4937-2.4788 0-0.45317-0.13216-0.888-0.34616-1.2543z" color="#000000" color-rendering="auto" display="block" dominant-baseline="auto" fill="#204a87" image-rendering="auto" shape-rendering="auto" solid-color="#000000" stroke-width="1.2394" style="font-feature-settings:normal;font-variant-alternates:normal;font-variant-caps:normal;font-variant-ligatures:normal;font-variant-numeric:normal;font-variant-position:normal;isolation:auto;mix-blend-mode:normal;shape-padding:0;text-decoration-color:#000000;text-decoration-line:none;text-decoration-style:solid;text-indent:0;text-orientation:mixed;text-transform:none;white-space:normal"/>
<rect x="11.5" y=".49996" width="9.0001" height="9.0001" rx="1.1028" ry="1.1028" color="#000000" display="block" fill="#babdb6" filter="url(#filter1377)" stroke="#204a87" stroke-width=".99991"/>
<rect x="11.435" y="1.2596" width="6.9811" height="7.3593" rx=".60308" ry=".60308" color="#000000" display="block" fill="none" opacity=".48889" stroke-width="1.2394"/>
<rect x="2" y="1" width="8" height="8" rx=".98025" ry=".98026" color="#000000" display="block" fill="#babdb6" filter="url(#filter1389)" stroke-width="1.3349"/>
<rect transform="scale(-1,1)" x="-9" y="2" width="6" height="6" rx=".7352" ry=".7352" color="#000000" display="block" fill="#f2f4f1" stroke-width="1.5"/>
<rect x="2.3742" y="1.505" width="6.7039" height="6.7288" rx=".57913" ry=".55142" color="#000000" display="block" fill="none" opacity=".48889" stroke-width="1.2394"/>
<path d="m8 3.0001-1.3797 2.3262c-0.13427 0.22458-0.3006 0.39268-0.499 0.50431-0.19839 0.11296-0.42786 0.16944-0.68838 0.16944-0.096188-1.2e-6 -0.19739-0.0079647-0.30361-0.023918v-0.36678c0.11824 0.023918 0.22545 0.035882 0.32164 0.035882 0.11622-5e-7 0.22244-0.023258 0.31864-0.069768 0.098193-0.045182 0.17735-0.11429 0.23747-0.20731l0.21343-0.32691-1.2204-2.0412h0.64629l0.79658 1.5309c0.014082 0.023923 0.032062 0.077078 0.054103 0.15946h0.01807c0.030048-0.083721 0.051094-0.13688 0.063124-0.15946l0.81762-1.5309h0.60421" filter="url(#filter1413)" stroke-width="1.7974"/>
<rect transform="scale(-1,1)" x="-19" y="2" width="6" height="6" rx=".7352" ry=".7352" color="#000000" display="block" fill="#f2f4f1" stroke-width="1.5"/>
<path d="m18 3-1.1121 1.5117 1.1056 1.4883h-0.72737l-0.76292-1.1689-0.7888 1.1689h-0.71443l1.1412-1.4766-1.0733-1.5234h0.72737l0.73383 1.2246 0.78878-1.2246h0.68211" filter="url(#filter1401)" stroke-width="2.0164"/>
<rect x="2.4999" y="11.5" width="14" height="9.0001" rx="1.0835" ry="1.0969" color="#000000" display="block" fill="#babdb6" filter="url(#filter1353)" stroke="#204a87" stroke-width=".99986"/>
<rect x="4" y="12.995" width="11" height="6.0045" rx=".53208" ry=".6043" color="#000000" display="block" fill="#f2f4f1" stroke-width="1.3545"/>
<path d="m7.477 17.835c-0.25099 0.11024-0.56245 0.16534-0.93434 0.16534-0.46679 0-0.84098-0.11932-1.1226-0.35795-0.28007-0.23863-0.42011-0.55237-0.42011-0.9412-8e-7 -0.41307 0.16069-0.74861 0.48209-1.0066 0.32292-0.25922 0.72314-0.38884 1.2006-0.38884 0.32292 7e-6 0.58769 0.03696 0.7943 0.11084v0.38339c-0.24335-0.11386-0.50964-0.1708-0.79889-0.1708-0.35813 1e-6 -0.64968 0.09572-0.87465 0.28708-0.22498 0.19018-0.33747 0.44577-0.33747 0.76678-1.9e-6 0.30405 0.10407 0.54631 0.31221 0.7268 0.20814 0.17928 0.48438 0.26891 0.82874 0.26891 0.33363 0 0.62366-0.06298 0.87006-0.18897v0.34523m1.7608 0.09448c-0.096412 0.03875-0.22039 0.05814-0.3719 0.05814-0.21886 0-0.38262-0.04665-0.49127-0.13992-0.10867-0.09446-0.163-0.2362-0.16299-0.42518v-1.0484h-0.39485v-0.27982h0.39485v-0.44335l0.44307-0.11084v0.55419h0.5831v0.27982h-0.5831v0.98118c-9e-7 0.12112 0.026021 0.20775 0.078048 0.25984 0.052036 0.0509 0.14309 0.07631 0.27318 0.07631 0.084184 0 0.16146-0.01995 0.23187-0.05999v0.29799m1.8246-1.4773c-0.07961-0.04242-0.18136-0.0636-0.30533-0.0636-0.14693 0-0.40311 0.05328-0.50412 0.15989-0.10101 0.1066-0.15152 0.24772-0.15152 0.42336v0.983h-0.44078v-1.8606h0.44078v0.36886c0.05663-0.13081 0.13927-0.23014 0.24794-0.29799 0.10866-0.06906 0.35951-0.10356 0.48806-0.10356 0.09643 1e-6 0.17142 0.0084 0.22498 0.02543v0.36522m0.93755 1.5026h-0.44537v-2.7546h0.44537v2.7546" filter="url(#filter1365)" stroke-width="1.4"/>
</g>
</svg>
