<svg width="24" height="24" version="1" xmlns="http://www.w3.org/2000/svg">
<defs>
<filter id="filter899" color-interpolation-filters="sRGB">
<feFlood flood-color="rgb(0,0,0)" flood-opacity=".2" result="flood"/>
<feComposite in="flood" in2="SourceGraphic" operator="in" result="composite1"/>
<feGaussianBlur in="composite1" result="blur"/>
<feOffset dx="0" dy="0.5" result="offset"/>
<feComposite in="SourceGraphic" in2="offset" result="fbSourceGraphic"/>
<feColorMatrix in="fbSourceGraphic" result="fbSourceGraphicAlpha" values="0 0 0 -1 0 0 0 0 -1 0 0 0 0 -1 0 0 0 0 1 0"/>
<feFlood flood-color="rgb(255,255,255)" flood-opacity=".10196" in="fbSourceGraphic" result="flood"/>
<feComposite in="flood" in2="fbSourceGraphic" operator="out" result="composite1"/>
<feGaussianBlur in="composite1" result="blur"/>
<feOffset dx="0" dy="0.5" result="offset"/>
<feComposite in="offset" in2="fbSourceGraphic" operator="atop" result="composite2"/>
</filter>
<filter id="filter887" color-interpolation-filters="sRGB">
<feFlood flood-color="rgb(0,0,0)" flood-opacity=".2" result="flood"/>
<feComposite in="flood" in2="SourceGraphic" operator="in" result="composite1"/>
<feGaussianBlur in="composite1" result="blur"/>
<feOffset dx="0" dy="0.5" result="offset"/>
<feComposite in="SourceGraphic" in2="offset" result="composite2"/>
</filter>
<filter id="filter875" color-interpolation-filters="sRGB">
<feFlood flood-color="rgb(0,0,0)" flood-opacity=".2" result="flood"/>
<feComposite in="flood" in2="SourceGraphic" operator="in" result="composite1"/>
<feGaussianBlur in="composite1" result="blur"/>
<feOffset dx="0" dy="0.5" result="offset"/>
<feComposite in="SourceGraphic" in2="offset" result="composite2"/>
</filter>
<filter id="filter863" color-interpolation-filters="sRGB">
<feFlood flood-color="rgb(0,0,0)" flood-opacity=".2" result="flood"/>
<feComposite in="flood" in2="SourceGraphic" operator="in" result="composite1"/>
<feGaussianBlur in="composite1" result="blur"/>
<feOffset dx="0" dy="0.5" result="offset"/>
<feComposite in="SourceGraphic" in2="offset" result="composite2"/>
</filter>
</defs>
<g transform="translate(1,1)">
<rect x="1" y="1" width="20" height="20" rx="2.7233" ry="2.7233" color="#000000" fill="#d3d7cf" fill-opacity=".99608" fill-rule="evenodd" filter="url(#filter899)" stroke-width="1.25"/>
<path d="m8 2-1.2815 4.3789-0.14459 0.58772c-0.013058 0.055975-0.019729 0.10334-0.019729 0.14209-5.6e-6 0.068892 0.021905 0.12917 0.065714 0.18084 0.035048 0.038749 0.078857 0.058127 0.13144 0.058127 0.056952 0 0.13144-0.034445 0.22344-0.10334 0.17086-0.12487 0.39868-0.3832 0.68347-0.77503l0.22344 0.15501c-0.30231 0.4478-0.61337 0.79009-0.9332 1.0269-0.31984 0.23251-0.61557 0.34876-0.88718 0.34876-0.18839 0-0.33079-0.047364-0.42717-0.14209-0.092-0.09042-0.13801-0.2239-0.138-0.40044-5.6e-6 -0.21098 0.04819-0.4887 0.14457-0.83315l0.13801-0.48439c-0.57393 0.73628-1.1019 1.2508-1.5837 1.5436-0.34611 0.21098-0.68566 0.31647-1.0186 0.31647-0.31982 0-0.59584-0.12917-0.82804-0.38752-0.2322-0.26265-0.3483-0.62217-0.3483-1.0786 0-0.68461 0.20811-1.4058 0.62431-2.1636 0.42058-0.76211 0.95291-1.3714 1.5969-1.8278 0.50384-0.36167 0.9792-0.54252 1.4261-0.54252 0.26725 5.9e-6 0.4885 0.068897 0.66374 0.20668 0.17962 0.13779 0.31544 0.36599 0.40746 0.68461l0.23659-0.73628 1.0449-0.15501m-2.3396 0.33584c-0.28039 5.5e-6 -0.57831 0.12918-0.89376 0.38752-0.44688 0.36599-0.84556 0.90851-1.1961 1.6275-0.34611 0.71905-0.51917 1.3692-0.51917 1.9504-1.4e-6 0.29279 0.074476 0.52529 0.22344 0.69753 0.14897 0.16793 0.31982 0.25188 0.5126 0.25188 0.47755 5e-7 0.99672-0.3466 1.5575-1.0398 0.74917-0.92141 1.1238-1.8665 1.1238-2.8353-2.9e-6 -0.36598-0.0723-0.63078-0.21687-0.7944-0.14457-0.16361-0.34173-0.24543-0.59146-0.24543" filter="url(#filter887)" stroke-width="1.392"/>
<path d="m9.9344 9.2349v3.3008c0.38488-0.42216 0.77726-0.74406 1.1771-0.9657 0.39988-0.2269 0.89473-0.34036 1.4845-0.34038 0.67979 8e-6 1.2746 0.17151 1.7845 0.51452 0.51483 0.33774 0.91222 0.83115 1.1921 1.4802 0.28491 0.64381 0.42736 1.409 0.42737 2.2955-9e-6 0.65436-0.07998 1.2559-0.23993 1.8048-0.15496 0.54354-0.38239 1.0158-0.6823 1.4169-0.29992 0.40106-0.66481 0.71241-1.0947 0.93404-0.42488 0.21636-0.89473 0.32454-1.4095 0.32454-0.31491 0-0.61232-0.03957-0.89223-0.11873-0.27492-0.07916-0.50985-0.18206-0.70478-0.30871-0.19494-0.13192-0.3624-0.26649-0.50235-0.4037-0.13496-0.1372-0.31491-0.34301-0.53984-0.61741v0.21373c-3.8e-6 0.40633-0.092479 0.71504-0.27741 0.92613-0.18495 0.20581-0.41987 0.3087-0.70478 0.3087-0.28992 0-0.52235-0.10291-0.69728-0.3087-0.16995-0.21108-0.25493-0.51979-0.25493-0.92613v-9.4353c-1.3e-6 -0.43798 0.08248-0.7678 0.24743-0.98946 0.16994-0.2269 0.40487-0.34036 0.70478-0.34038 0.31491 1.17e-5 0.55733 0.10819 0.72728 0.32454 0.16994 0.2111 0.25493 0.51453 0.25493 0.9103m0.097478 6.4196c-2e-6 0.86016 0.18494 1.5225 0.55483 1.9867 0.37489 0.45911 0.86473 0.68865 1.4695 0.68865 0.51483 2e-6 0.9572-0.23483 1.3271-0.70449 0.37488-0.47493 0.56232-1.153 0.56233-2.0343-9e-6 -0.56992-0.07749-1.0607-0.23243-1.4723-0.15497-0.4116-0.3749-0.72823-0.65981-0.94987-0.28492-0.2269-0.61732-0.34036-0.9972-0.34038-0.38989 6e-6 -0.73728 0.11346-1.0422 0.34038-0.30492 0.22164-0.54484 0.54618-0.71978 0.97362-0.17495 0.42216-0.26242 0.92613-0.26242 1.5118" filter="url(#filter875)" stroke-width="1.3614"/>
<path d="m19 5.3945c-3e-6 0.098204-0.0073 0.24223-0.02205 0.43208-0.0073 0.18331-0.01102 0.31752-0.01102 0.40262h-1.5426v-1.2079c-3e-6 -0.23568-0.14693-0.35352-0.44077-0.35352-0.29384 5.5e-6 -0.44077 0.11785-0.44077 0.35352v3.8789c-3e-6 0.24223 0.14693 0.36334 0.44077 0.36334 0.29384 1e-6 0.44076-0.12111 0.44077-0.36334v-1.2865h1.5426v1.257c-5e-6 0.38625-0.23508 0.68085-0.70523 0.8838-0.37466 0.16366-0.80073 0.2455-1.2782 0.2455-0.48485 0-0.91092-0.081834-1.2782-0.2455-0.47015-0.20295-0.70523-0.49755-0.70523-0.8838v-3.7807c0-0.72668 0.66115-1.09 1.9834-1.09 0.66115 5.9e-6 1.146 0.088385 1.4546 0.26514 0.37464 0.21604 0.56198 0.59247 0.56198 1.1293" filter="url(#filter863)" stroke-width="1.3342"/>
</g>
</svg>
