<svg width="24" height="24" version="1" xmlns="http://www.w3.org/2000/svg">
<defs>
<filter id="filter1100" color-interpolation-filters="sRGB">
<feFlood flood-color="rgb(0,0,0)" flood-opacity=".2" result="flood"/>
<feComposite in="flood" in2="SourceGraphic" operator="in" result="composite1"/>
<feGaussianBlur in="composite1" result="blur"/>
<feOffset dx="0" dy="0.5" result="offset"/>
<feComposite in="SourceGraphic" in2="offset" result="fbSourceGraphic"/>
<feColorMatrix in="fbSourceGraphic" result="fbSourceGraphicAlpha" values="0 0 0 -1 0 0 0 0 -1 0 0 0 0 -1 0 0 0 0 1 0"/>
<feFlood flood-color="rgb(255,255,255)" flood-opacity=".10196" in="fbSourceGraphic" result="flood"/>
<feComposite in="flood" in2="fbSourceGraphic" operator="out" result="composite1"/>
<feGaussianBlur in="composite1" result="blur"/>
<feOffset dx="0" dy="0.5" result="offset"/>
<feComposite in="offset" in2="fbSourceGraphic" operator="atop" result="composite2"/>
</filter>
</defs>
<g transform="translate(1.0018 .98389)" fill-rule="evenodd" filter="url(#filter1100)">
<path d="m2.9812 8.1989c-0.017511-0.014118 0.6879 10.158 0.68809 10.161 0.066172 1.0158 0.62169 1.3871 1.2435 1.3886 0.022218 5.2e-5 11.664-0.0013 11.913-0.0024 1.0471-0.0045 1.3036-0.65096 1.3725-1.3574 0.0055-0.01392 0.71058-10.176 0.71609-10.189h-15.933z" fill="#b5c051" stroke="#b5c051" stroke-width=".4999"/>
<path d="m4.4518 3.2776c-0.41475 9.573e-4 -0.76186 0.010643-0.95094 0.40942-0.032862 0.06931-1.0345 2.8822-1.0827 2.9895-0.41228 0.91836-0.032074 2.0752 0.76424 2.0674 0.15144-0.00141 15.691 0.00717 15.933 0 0.67786-0.019825 0.7646-1.3594 0.47281-1.9621-0.01653-0.03414-1.3709-3.1332-1.4054-3.1881-0.15976-0.24515-0.51753-0.35259-0.7833-0.34253-0.05235 0.00203-12.896 0.026229-12.947 0.026348z" fill="#eff3f4" stroke="#eff3f4" stroke-width=".50065"/>
<g stroke-width=".39992">
<path d="m4.5237 4.0029c-0.39118-0.00513-0.41667-0.02046-0.50472 0.26022-0.020327 0.064794-0.8393 2.6157-0.87139 2.7147-0.10917 0.33663 0.045206 0.42549 0.42406 0.41864 0.13421-0.00242 14.833 0 15.047 0 0.30334 0 0.39333-0.10132 0.3248-0.34044-0.02785-0.097163-1.168-2.8207-1.1986-2.8693-0.14161-0.21662-0.11705-0.21599-0.36439-0.21904-0.046433-5.718e-4 -12.811 0.03583-12.856 0.035228z" color="#000000" display="block" fill="#575955"/>
<path d="m4.3136 4.0016c-0.1473 0.011401-0.21815 0.055652-0.2798 0.25218-0.020327 0.064794-0.83838 2.6119-0.87051 2.7109-0.10917 0.33663 0.035654 0.42714 0.41452 0.42029 0.00656-1.176e-4 0.77579 9.74e-5 0.84863 0z" color="#000000" display="block" fill="#2e3436"/>
<path d="m17.401 3.9666c0.17903 0.00155 0.2316-0.00209 0.34605 0.21726 0.01565 0.029997 1.1416 2.7356 1.1821 2.8346 0.13749 0.38139-0.12437 0.37342-0.53967 0.38448-0.0789-1.18e-4 -1.0123-0.00885-1.104-0.00895z" color="#000000" display="block" fill="#babdb6"/>
</g>
<g fill="#fff" stroke-width=".39992">
<path d="m10.915 12.898 2.1415 0.16566 0.8281-2.044-0.97982 0.6982s-0.42012-0.99353-0.72209-1.0734c-0.30196-0.07987-1.5903-0.05325-1.5903-0.05325 0.40976 0.10275 0.72825 0.81667 0.73313 0.82476 0.12784 0.2115 0.4857 0.92318 0.4857 0.92318z" fill-opacity=".4881"/>
<path d="m11.18 11.484-0.70887 1.3711-1.4573-0.9318s0.66081-1.2646 1.1816-1.2646c0.52518 0 0.75986 0.45899 0.98458 0.82533z" color="#000000" fill-opacity=".30952"/>
<path d="m12.224 14.739-1.3807 1.673 1.3176 1.7251 0.02437-1.0866s0.97048 0.09286 1.1932-0.12875c0.22274-0.22161 1.1494-1.339 1.1494-1.339-0.2975 0.30363-1.0652 0.2138-1.0745 0.21389-0.24464 0.0025-1.2129-0.02039-1.2129-0.02039z" fill-opacity=".4881"/>
<path d="m13.519 15.606-0.79581-1.3211 1.5372-0.78876s0.73039 1.2246 0.46282 1.6776c-0.26986 0.45682-0.77881 0.42509-1.2042 0.4323z" color="#000000" fill-opacity=".30952"/>
<path d="m9.8094 14.642-0.68158-1.82-1.9875 0.14241 0.81586 0.6026s-0.56346 0.80652-0.4851 1.1128c0.078337 0.30628 0.52029 1.5752 0.52029 1.5752-0.11116-0.41288 0.34854-1.0427 0.35313-1.051 0.11987-0.21624 0.6224-1.0557 0.6224-1.0557z" fill-opacity=".4881"/>
<path d="m8.4459 15.377 1.5263-0.04041-0.092485 1.7443s-1.4111 0.03105-1.6649-0.43004c-0.25588-0.46499 0.025073-0.8964 0.2311-1.2739z" color="#000000" fill-opacity=".30952"/>
</g>
</g>
</svg>
