<svg width="16" height="16" version="1.1" viewBox="0 0 16 16" xmlns="http://www.w3.org/2000/svg">
<defs>
<style id="current-color-scheme" type="text/css">.ColorScheme-Text { color:#444444; } .ColorScheme-Highlight { color:#5294e2; }</style>
</defs>
<path d="m3.4336 1c-0.23725-1.0351e-4 -0.42969 0.15565-0.42969 0.34961v3.6504a3 3 0 0 1 2.4941 1.3477 3 3 0 0 1 2.502-1.3477 3 3 0 0 1 2.5 1.3457 3 3 0 0 1 2.5-1.3457 3 3 0 0 1 0.001953 0v-3.6465c0-0.19398-0.19048-0.34951-0.42773-0.34961l-9.1406-0.0039062zm2.0664 8.6543a3 3 0 0 1-2.5 1.3457 3 3 0 0 1-2-0.76758v3.6172c0 0.3252 0.23536 0.5841 0.53125 0.60156 0.033646 0.30576 0.26932 0.54483 0.56641 0.54492l11.824 0.003906c0.29849 9.8e-5 0.53457-0.24099 0.56641-0.54883 0.2868-0.02724 0.51172-0.2795 0.51172-0.59766v-3.623a3 3 0 0 1-2 0.76953 3 3 0 0 1-2.5-1.3457 3 3 0 0 1-2.5 1.3457 3 3 0 0 1-2.5-1.3457z" opacity=".3"/>
<g fill="#444">
<path d="m5 8a2 2 0 0 1-2 2 2 2 0 0 1-2-2 2 2 0 0 1 2-2 2 2 0 0 1 2 2z"/>
<path d="m10 8a2 2 0 0 1-2 2 2 2 0 0 1-2-2 2 2 0 0 1 2-2 2 2 0 0 1 2 2z"/>
<path d="m15 8a2 2 0 0 1-2 2 2 2 0 0 1-2-2 2 2 0 0 1 2-2 2 2 0 0 1 2 2z"/>
</g>
</svg>
