<svg width="16" height="16" version="1.1" viewBox="0 0 16 16" xmlns="http://www.w3.org/2000/svg">
<defs>
<style id="current-color-scheme" type="text/css">.ColorScheme-Text { color:#444444; } .ColorScheme-Highlight { color:#5294e2; }</style>
</defs>
<path d="m3.4336 1c-0.23725-1.0351e-4 -0.42969 0.15565-0.42969 0.34961v5.6484l9.2715 0.0039062c0.063895-0.028066 0.12791-0.057746 0.19922-0.0625 0.093999-0.0058749 0.18535 0.020816 0.26953 0.0625h0.25781v-5.6484c0-0.19398-0.19048-0.34951-0.42773-0.34961l-9.1406-0.0039062zm-1.1934 7.002c-0.13606-1.554e-4 -0.3303 0.08572-0.43555 0.24023-0.10523 0.15454-0.5036 0.88228-0.65234 1.0918-0.11789 0.16605-0.15234 0.42938-0.15234 0.61133v3.9043c0 0.3252 0.23536 0.5841 0.53125 0.60156 0.033646 0.30576 0.26932 0.54483 0.56641 0.54492l6.4629 0.001953c-0.43317-0.004697-0.69986-0.46306-0.48242-0.83398l3.4902-6.1582-9.3281-0.0039063zm11.191 0.0039063 1.5684 2.7676v-0.82422c0-0.21076-0.024846-0.37398-0.13477-0.54492-0.10991-0.17095-0.59954-0.97028-0.70312-1.1309-0.10359-0.16052-0.27086-0.26753-0.40234-0.26758h-0.32812z"/>
<path class="warning" d="m12.48 8.73c-0.15 0.01-0.29 0.09-0.36 0.22l-3.06 5.4c-0.17 0.29 0.04 0.65 0.38 0.65h6.12c0.34 0 0.55-0.36 0.38-0.65l-3.06-5.4c-0.08-0.14-0.24-0.23-0.4-0.22zm-0.48 1.27h1v2h-1zm0 3h1v1h-1z" fill="#4285f4"/>
</svg>
