<svg width="16" height="16" version="1.1" viewBox="0 0 16 16" xmlns="http://www.w3.org/2000/svg">
<defs>
<style id="current-color-scheme" type="text/css">.ColorScheme-Text { color:#444444; } .ColorScheme-Highlight { color:#5294e2; }</style>
</defs>
<path d="m1.5849 5.8999c-0.01401-0.011124 0.55092 8.0039 0.55107 8.0062 0.052951 0.80041 0.49733 1.0927 0.99487 1.0939 0.017769 4e-5 9.3331-0.0013 9.5323-0.0022 0.83784-0.0035 1.0428-0.51185 1.0979-1.0685 0.0044-0.01096 0.5677-8.0193 0.5721-8.0295zm6.6549 2.0904c0.29059 0.00262 0.61213 0.012966 0.73406 0.044433 0.24386 0.062933 0.58472 0.84633 0.58472 0.84633l0.79085-0.55011-0.66885 1.6101-1.729-0.13118 0.72355-0.44009s-0.29007-0.56119-0.39332-0.72785c-0.00398-0.00637-0.26011-0.56859-0.59104-0.64956 0 0 0.25837-0.00473 0.54896-0.00211zm-0.87077 0.055011c0.42413 0 0.61357 0.3609 0.79505 0.64956l-0.5721 1.0812-1.1758-0.73418s0.53223-0.99655 0.9528-0.99655zm-0.86236 1.7053 0.55107 1.4345-0.67937-0.38932s-0.40588 0.66113-0.5027 0.83152c-0.00366 0.0065-0.37582 0.50196-0.28605 0.82728 0 0-0.3574-0.99854-0.42066-1.2398-0.063279-0.24134 0.39122-0.87807 0.39122-0.87807l-0.65834-0.47394zm4.1456 0.53107s0.59048 0.96545 0.3744 1.3224c-0.21793 0.35995-0.6303 0.33497-0.97384 0.34064l-0.64151-1.041zm-1.6237 0.97963v0.84633s0.77416 2e-3 0.97173 0c0.0075-7e-5 0.62842 0.05729 0.86867-0.18196 0 0-0.74979 0.88118-0.92967 1.0558-0.17986 0.17462-0.91073 0.09945-0.91073 0.09945v0.85691l-1.1358-1.3584zm-1.8383 0.46971-0.075717 1.3752s-1.139 0.02477-1.344-0.33853c-0.20665-0.36639 0.020816-0.70757 0.1872-1.005z" fill="#444" fill-rule="evenodd" stroke-width="1.0801"/>
<path d="m13.122 2.0005c-0.04188 0.0014733-10.318 0.019453-10.359 0.01954-0.33186 6.965e-4 -0.61011 0.0087747-0.7614 0.29895-0.026287 0.050433-0.82801 2.0966-0.86657 2.1747-0.32989 0.66826-0.025102 1.5102 0.61207 1.5045 0.12117-0.00103 12.554 0.00521 12.748 0 0.54239-0.014426 0.61208-0.98976 0.3786-1.4283-0.013224-0.024842-1.0977-2.2794-1.1253-2.3193-0.12783-0.17839-0.41413-0.25742-0.62679-0.2501z" fill="#444" fill-rule="evenodd" stroke-width="1.0801"/>
</svg>
