<svg width="16" height="16" version="1" xmlns="http://www.w3.org/2000/svg">
<path d="m8.0004-5.9423e-4 8.0002 8.0002-8.0002 8.0002-8.0002-8.0002z" fill="#729fcf"/>
<path d="m1.7249 9.3833 0.29671-0.41152c0.25585 0.10788 0.52259 0.1949 0.79804 0.25911l-0.0023 0.63357c0.17186 0.035497 0.34674 0.062727 0.52397 0.082102l0.19359-0.60344c0.13823 0.011437 0.27794 0.017734 0.41921 0.017741 0.14111 0 0.28091-0.00624 0.41914-0.017741l0.19354 0.60345c0.17731-0.019382 0.35212-0.046627 0.52399-0.082116l-0.0024-0.63365c0.27552-0.064142 0.54218-0.15116 0.79803-0.25903l0.37065 0.51409c0.16166-0.073166 0.31912-0.15372 0.47207-0.24129l-0.19801-0.6019c0.23996-0.14555 0.46678-0.31072 0.67802-0.49339l0.51114 0.37439c0.13084-0.11916 0.25608-0.2444 0.37517-0.37524l-0.37431-0.51106c0.18276-0.21124 0.34792-0.43797 0.49347-0.67809l0.6019 0.1981c0.087563-0.15302 0.16821-0.31056 0.24121-0.47215l-0.51402-0.37057c0.10788-0.25585 0.1949-0.52259 0.25919-0.79812l0.6335 0.00231c0.035494-0.17186 0.062734-0.34675 0.082038-0.52407l-0.60337-0.19358c0.011595-0.13816 0.017748-0.27795 0.017748-0.41914 0-0.14119-0.00629-0.28091-0.017741-0.41921l0.60337-0.19358c-0.019219-0.17723-0.046612-0.35204-0.081947-0.52397l-0.63365 0.0024c-0.064212-0.27553-0.15123-0.54227-0.25903-0.79803l0.51402-0.37057c-0.07301-0.16166-0.15372-0.31912-0.24113-0.47214l-0.60197 0.19809c-0.14555-0.24004-0.31072-0.46678-0.4934-0.67794l0.37431-0.51115c-0.11184-0.1229-0.22946-0.24027-0.35174-0.35283l-7.5695 7.5696 0.40459 0.40459 0.12002-0.087872c0.21124 0.18267 0.43797 0.34785 0.67802 0.49339l-0.09722 0.29538 0.44522 0.44522z" fill="#fff" opacity=".5"/>
<path d="m9.9521 11.578c0-2.6055 1.7012-4.8133 4.053-5.5745l-0.8948-0.89488c-0.0068 0.0028-0.01362 0.0052-0.02032 0.0081l-0.07293-0.10119-0.56734-0.56734c-0.1861 0.087946-0.36832 0.1826-0.54617 0.28433l0.27888 0.84747c-0.33803 0.20478-0.65724 0.43743-0.95454 0.69457l-0.71966-0.52702c-0.18431 0.16773-0.36053 0.34395-0.52819 0.52819l0.52694 0.71958c-0.25716 0.29741-0.48973 0.6166-0.69457 0.95454l-0.84754-0.27888c-0.12321 0.21552-0.2367 0.43727-0.33951 0.66486l0.72371 0.52165c-0.15186 0.36014-0.27436 0.7357-0.36471 1.1236l-0.89199-0.0034224c-0.049886 0.24199-0.088339 0.48826-0.11551 0.73772l0.84957 0.27258c-0.016186 0.19459-0.024904 0.39136-0.024911 0.59007-2e-7 0.1988 0.00872 0.39556 0.024911 0.59014l-0.84957 0.27234c0.02716 0.24962 0.06562 0.49581 0.11558 0.7378l0.89191-0.0033c0.090368 0.3879 0.21287 0.76346 0.36473 1.1236l-0.7237 0.52172c0.057212 0.12648 0.11807 0.25109 0.18166 0.37384l1.5284-1.5283c-0.24752-0.6486-0.38341-1.3524-0.38339-2.0878z" fill="#fff" opacity=".5"/>
<path d="m8.0004 0.6387 7.361 7.361-7.361 7.361-7.361-7.361z" fill="none" opacity=".47253"/>
</svg>
