<svg width="16" height="16" version="1.1" xmlns="http://www.w3.org/2000/svg">
<path d="m2.75 1c-0.4172 0-0.75 0.3328-0.75 0.75v13.5c0 0.417 0.3328 0.75 0.75 0.75h10.5c0.418 0 0.75-0.332 0.75-0.75v-9.25l-4.125-0.875-0.875-4.125z" fill="#e4e4e4"/>
<path d="m9 1v4.1667c0 0.4584 0.3749 0.8333 0.8333 0.8333h4.1667z" fill="#fafafa"/>
<path d="m11 13.784c-0.54832-0.04491-0.60604-0.04449-0.7311-0.70018l-0.90426-5.0838h-0.1727l-2.8671 4.491c-0.75996 1.1946-0.94002 1.2211-1.3248 1.293v0.21599h1.8828v-0.21599c-0.49061-0.04491-0.56757-0.01754-0.56757-0.24209 0-0.17066 0.028863-0.2515 0.1924-0.55689l0.54832-0.90655h2.1163l0.1924 1.0682c0.0096 0.08084 0.01924 0.16168 0.01924 0.23353 0 0.34132-0.05082 0.34988-0.66648 0.40377v0.21599h2.2826v-0.21599m-3.7421-2.1373 1.443-2.3353 0.42327 2.3353h-1.8662" fill="#729fcf"/>
</svg>
