<svg width="16" height="16" version="1.1" xmlns="http://www.w3.org/2000/svg">
<path d="M 2.75,1 C 2.3328,1 2,1.3328 2,1.75 l 0,13.5 C 2,15.667 2.3328,16 2.75,16 l 10.5,0 C 13.668,16 14,15.668 14,15.25 L 14,6 9.875,5.125 9,1 Z" fill="#e4e4e4"/>
<path d="M 9,1 9,5.1667 C 9,5.6251 9.3749,6 9.8333,6 L 14,6 Z" fill="#fafafa"/>
<path d="m10.844 7.1612-4.6837 0.6573v4.4466c-0.35326-0.11562-0.86753-0.14584-1.4053-0.03888-0.93497 0.18598-1.6869 0.68413-1.5843 1.1079 0.10256 0.42384 1.0286 0.62008 1.9636 0.43409 0.88352-0.17574 1.7207-0.62982 1.7032-1.0367l0.0029-3.9458 3.3226-0.60031v3.5838c-2.1998-0.311-2.6683 0.5999-2.5656 1.0237 0.10256 0.42384 0.7828 0.62008 1.7178 0.43409 0.82962-0.16501 1.4643-0.57289 1.5231-0.95894z" color="#000000" display="block" fill="#2470b2" stroke="#2470b2" stroke-linecap="round" stroke-linejoin="round" stroke-width=".32237"/>
</svg>
