<svg width="16" height="16" version="1.1" viewBox="0 0 16 16" xmlns="http://www.w3.org/2000/svg">
<path d="m2.3194 1.001c-0.12978-0.0064589-0.25436 0.088395-0.29821 0.20536-0.0060735-0.014318-0.015647-0.023061-0.021216-0.038156v11.534c0 0.0014 0.00113 3e-3 0.00124 0.0045v0.94829c0.01681 0.41352 0.41909 0.70919 0.88643 0.73955 4.4063 0.28624 7.9243 0.60038 7.9243 0.60038 0.09442 0.02608 0.1886-0.06107 0.1886-0.17395v-1.5454l3.68 0.09988c0.1595 0.0079 0.31942-0.13559 0.31942-0.28729v-5.3856c0-0.15173-0.11536-0.41693-0.39722-0.47359l-1.1795-0.2222c-0.30305-0.060902-0.42315-0.33387-0.42315-0.51061v-4.8368c0-0.1517-0.15993-0.31077-0.31942-0.31871l-10.362-0.34115z" fill="#e8a80e" stroke-width=".97575"/>
<g transform="translate(0 .080508)" fill="#513b05">
<circle cx="3.75" cy="9.75" r=".75"/>
<circle cx="5.45" cy="9.75" r=".75"/>
<circle cx="7.15" cy="9.75" r=".75"/>
<circle cx="8.85" cy="9.75" r=".75"/>
<circle cx="10.55" cy="9.75" r=".75"/>
<circle cx="12.25" cy="9.75" r=".75"/>
<circle cx="5.45" cy="7.75" r=".75"/>
<circle cx="7.15" cy="7.75" r=".75"/>
<circle cx="8.85" cy="7.75" r=".75"/>
<circle cx="10.55" cy="7.75" r=".75"/>
<circle cx="3.75" cy="11.75" r=".75"/>
<circle cx="5.45" cy="11.75" r=".75"/>
<circle cx="10.55" cy="11.75" r=".75"/>
<circle cx="12.25" cy="11.75" r=".75"/>
</g>
</svg>
