<svg width="16" height="16" version="1.1" xmlns="http://www.w3.org/2000/svg">
<path d="m2.75 1c-0.4172 0-0.75 0.3328-0.75 0.75v13.5c0 0.417 0.3328 0.75 0.75 0.75h10.5c0.418 0 0.75-0.332 0.75-0.75v-9.25l-4.125-0.875-0.875-4.125z" fill="#b1b527"/>
<path d="m9 1v4.1667c0 0.4584 0.3749 0.8333 0.8333 0.8333h4.1667z" fill="#c8cb7c"/>
<path d="m10.844 7.1612-4.6837 0.6573v4.4466c-0.35326-0.11562-0.86753-0.14584-1.4053-0.03888-0.93497 0.18598-1.6869 0.68413-1.5843 1.1079 0.10256 0.42384 1.0286 0.62008 1.9636 0.43409 0.88352-0.17574 1.7207-0.62982 1.7032-1.0367l0.0029-3.9458 3.3226-0.60031v3.5838c-2.1998-0.311-2.6683 0.5999-2.5656 1.0237 0.10256 0.42384 0.7828 0.62008 1.7178 0.43409 0.82962-0.16501 1.4643-0.57289 1.5231-0.95894z" color="#000000" display="block" fill="#fff" stroke="#fff" stroke-linecap="round" stroke-linejoin="round" stroke-width=".32237"/>
</svg>
