<svg width="16" height="16" version="1.1" xmlns="http://www.w3.org/2000/svg">
<g transform="translate(-17,1)">
<g>
<path d="m18.367 2c-0.20334 0-0.36719 0.16753-0.36719 0.375v10.25c0 0.20747 0.16385 0.375 0.36719 0.375h10.67c0.0027 0 0.02563-0.0206 0.0293-0.02148 0.72708-0.01824 2.8031-1.4009 2.9219-2.6309 8.53e-4 -0.003302 0.011716-0.014982 0.011716-0.017582v-7.9551c0-0.20747-0.16385-0.375-0.36719-0.375z" color="#000000" fill="#66bdb5"/>
<path d="m19 3h12v5h-12z" fill="#fff"/>
<path d="m25.17 8.9997h4.1396l0.62377-0.39515h-1.361s1.2475-0.2258 1.4177-1.637c0.17012-1.4112-1.928-2.9918-1.928-2.9918v0.056449c0.0567 0.3387 0.62377 2.7096 0.22683 3.6128-0.17012 0.79029-0.68048 0.95964-0.68048 0.95964h-2.6085l0.11341 0.39515z" fill="#66bdb5"/>
<path d="m27.665 8.3787h-2.3817l2.8353-4.2902z" fill="#66bdb5"/>
</g>
<g fill="none">
<path d="m18.395 2.5446h13.19c0.04906 0 0.08856 0.039497 0.08856 0.08856v7.7316c0 0.30859-2.3176 2.309-2.3667 2.309h-10.912c-0.04906 0-0.08856-0.0395-0.08856-0.08856v-9.952c0-0.049062 0.0395-0.08856 0.08856-0.08856z" color="#000000"/>
<rect x="19.275" y="3.5388" width="11.439" height="8.1767" color="#000000" opacity=".84659"/>
<path d="m29.44 12.275c0.44689-0.2231 1.4447-0.70029 1.8686-1.314-0.52073 0.22187-0.96172 0.06835-1.8604 0.06212 0 0 0.05296 0.99901-0.0083 1.2518z" color="#000000" opacity=".36932"/>
</g>
<g>
<path d="m28.176 8c-0.21747 0.47156-0.5668 0.60547-0.5668 0.60547h-2.6094l0.11328 0.39453h4.1973l0.62305-0.39453h-1.3613s0.57555-0.11265 0.99649-0.60547z" fill="#fff"/>
<path d="m25.533 8-0.25 0.37891h2.3828l0.039062-0.37891z" fill="#fff"/>
<circle cx="21.5" cy="5.5" r="1.5" fill="#66bdb5" fill-rule="evenodd"/>
</g>
</g>
</svg>
