<svg width="16" height="16" version="1" xmlns="http://www.w3.org/2000/svg">
<rect x="3" y="7" width="10" height="6" rx=".84211" ry=".83179" color="#000000" display="block" fill="#eaba6f"/>
<rect x="2.7762" y="5.3052" width="10.353" height="7.3212" rx=".44628" ry=".44628" color="#000000" display="block" fill="none" opacity=".48101"/>
<path d="m3 5 2-1.9554 6-0.035091 2 1.9905z" fill="#a36d18" fill-rule="evenodd"/>
<g fill="#f8e8cf">
<path d="m13 5.0009 2 2.9991h-14l2-3.0009z" color="#000000" display="block"/>
<path d="m11 3 2 2 3 2-3-3z" color="#000000" display="block"/>
<path d="m5 3-2 2-3 2 3-3z" color="#000000" display="block"/>
</g>
<path d="m12.686 5.372 1.5472 2.1041h-12.447l1.4385-2.1469z" color="#000000" display="block" fill="none"/>
<path d="m3.1768 5.3497 1.1757-2.0075 7.1138-0.02613 1.3346 2.0329z" fill="none" opacity=".87975"/>
</svg>
