<svg width="16" height="16" version="1.1" xmlns="http://www.w3.org/2000/svg">
<path d="m2.75 1c-0.4172 0-0.75 0.3328-0.75 0.75v13.5c0 0.417 0.3328 0.75 0.75 0.75h10.5c0.418 0 0.75-0.332 0.75-0.75v-9.25l-4.125-0.875-0.875-4.125z" fill="#e4e4e4"/>
<path d="m9 1v4.1667c0 0.4584 0.3749 0.8333 0.8333 0.8333h4.1667z" fill="#fafafa"/>
<g fill="#727272" fill-rule="evenodd">
<rect x="7" y="2" width="1" height="1"/>
<rect x="7" y="4" width="1" height="1"/>
<rect x="5" y="4" width="1" height="1"/>
<rect x="5" y="6" width="1" height="1"/>
<rect x="7" y="6" width="1" height="1"/>
<rect x="9" y="6" width="1" height="1"/>
<rect x="4" y="8" width="1" height="1"/>
<rect x="7" y="8" width="1" height="1"/>
<rect x="10" y="8" width="1" height="1"/>
<rect x="3" y="10" width="1" height="1"/>
<rect x="7" y="10" width="1" height="1"/>
<rect x="11" y="10" width="1" height="1"/>
<rect x="12" y="12" width="1" height="1"/>
<rect x="7" y="12" width="1" height="1"/>
<rect x="2" y="12" width="1" height="1"/>
<rect x="7" y="14" width="1" height="1"/>
</g>
</svg>
