<svg width="16" height="16" version="1.1" xmlns="http://www.w3.org/2000/svg">
<path d="m2.75 1c-0.4172 0-0.75 0.3328-0.75 0.75v13.5c0 0.417 0.3328 0.75 0.75 0.75h10.5c0.418 0 0.75-0.332 0.75-0.75v-9.25l-4.125-0.875-0.875-4.125z" fill="#e4e4e4"/>
<path d="m9 1v4.1667c0 0.4584 0.3749 0.8333 0.8333 0.8333h4.1667z" fill="#fafafa"/>
<path class="ColorScheme-Text" d="m8 8c0.83 0 1.5 0.67 1.5 1.5 0 0.825-0.67 1.5-1.5 1.5s-1.5-0.675-1.5-1.5c0-0.83 0.67-1.5 1.5-1.5zm0 3.5c3-5e-3 3 2 3 2v0.5h-6v-0.5s0-2 3-2z" fill="#7142d2" stroke-width=".5"/>
</svg>
