<svg width="16" height="16" version="1" xmlns="http://www.w3.org/2000/svg">
<path d="m0.75039 3h13.846l1.4039 11h-16z" color="#000000" display="block" fill="#e4e4e4" fill-rule="evenodd"/>
<path d="m6.57 11h-0.56579v-3.7708l-1.0042 0.3803v-0.99514l1.9997-0.61892v5.0045m1.0014 0-0.0010544-0.99966c1.0802-1.1235 1.3312-1.327 1.4762-1.4836 0.14741-0.15908 0.28805-0.32561 0.37505-0.49961 0.089412-0.17648 0.071619-0.11787 0.1185-0.3398-2e-6 -0.23861-0.021438-0.31511-0.17368-0.45928-0.14983-0.14665-0.36008-0.21997-0.63073-0.21998-0.17641 4.3e-6 -0.37095 0.048473-0.58361 0.14541-0.21266 0.094458-0.41012 0.22744-0.5817 0.39894v-1.1178c0.47607-0.28335 0.93211-0.42503 1.3574-0.42504 0.50507 5.9e-6 0.90018 0.1392 1.1853 0.41758 0.28757 0.27591 0.43136 0.65745 0.43136 1.1446-3e-6 0.30076-0.01967 0.37087-0.18399 0.67909-0.16192 0.30822-0.30319 0.50954-0.66309 0.9321l-0.71705 0.82741h1.59v0.99966" fill="#f54b3e"/>
<path d="m2.9236 4.7456a0.73279 1.2488 0 0 1-0.63927-0.89722 0.73279 1.2488 0 0 1 0.25991-1.34 0.73279 1.2488 0 0 1 0.82711-0.071262 0.73279 1.2488 0 0 1 0.33789 1.2885" color="#000000" display="block" fill="none" stroke="#999a98" stroke-linecap="round" stroke-width=".50689"/>
<rect x="7" y="2" width="1" height="3" rx=".44406" ry=".26952" color="#000000" display="block" fill="#999a98" fill-rule="evenodd"/>
<rect x="3" y="3" width="1" height="1" fill="#e4e4e4" fill-rule="evenodd"/>
<path transform="scale(-1,1)" d="m-12.052 4.7456a0.73279 1.2488 0 0 1-0.63927-0.89722 0.73279 1.2488 0 0 1 0.2599-1.34 0.73279 1.2488 0 0 1 0.82711-0.071262 0.73279 1.2488 0 0 1 0.33789 1.2885" color="#000000" display="block" fill="none" stroke="#999a98" stroke-linecap="round" stroke-width=".50689"/>
<rect x="11" y="3" width="1" height="1" fill="#e4e4e4" fill-rule="evenodd"/>
</svg>
