<svg width="24" height="24" version="1" xmlns="http://www.w3.org/2000/svg">
<defs>
<filter id="filter998" color-interpolation-filters="sRGB">
<feFlood flood-color="rgb(0,0,0)" flood-opacity=".2" result="flood"/>
<feComposite in="flood" in2="SourceGraphic" operator="in" result="composite1"/>
<feGaussianBlur in="composite1" result="blur"/>
<feOffset dx="0" dy="0.5" result="offset"/>
<feComposite in="SourceGraphic" in2="offset" result="composite2"/>
</filter>
</defs>
<path d="m2.5248 5.0022h18.951c0.29047 0 0.52436 0.22776 0.52436 0.51066v10.849c0 0.2829-3.9415 3.6401-4.2319 3.6401h-15.244c-0.29047 0-0.52431-0.22775-0.52431-0.51066v-13.979c0-0.2829 0.23385-0.51066 0.52431-0.51066z" color="#000000" fill="#e4e4e4" filter="url(#filter998)" stroke-width="1.25"/>
<path d="m3.0003 6.0021h18v8.0001h-18z" fill="#fff" stroke-width="1.3088"/>
<path d="m6.0254 9.7591c-0.01418 0.082916-0.02539 0.16657-0.02539 0.25293 0 0.85136 0.68921 1.5 1.5 1.5 0.85136 0 1.5-0.68921 1.5-1.5 0-0.085216-0.01215-0.16637-0.02539-0.24707-0.11894 0.69556-0.71396 1.2471-1.4746 1.2471-0.72966 0-1.3556-0.52736-1.4746-1.253z" fill-opacity=".2" stroke-width=".99996"/>
<g transform="matrix(.50001 0 0 .50001 -19 .011986)">
<g transform="translate(0 .99985)" fill-opacity=".2">
<path transform="matrix(2.4999,0,0,2.4999,-32.996,1.8456)" d="m38.941 10.467h3.4142l0.51447-0.3259h-1.1225s1.0289-0.18623 1.1692-1.3502c0.14031-1.1639-1.5902-2.4675-1.5902-2.4675v0.046557c0.04677 0.27934 0.51447 2.2348 0.18708 2.9797-0.14031 0.6518-0.56124 0.79148-0.56124 0.79148h-2.1514l0.09354 0.3259z"/>
<path transform="matrix(2.4999,0,0,2.4999,-32.996,1.8456)" d="m40.999 9.9544h-1.9643l2.3385-3.5384z"/>
</g>
<path d="m56 19c0 1.6216-1.2973 2.9999-2.9999 2.9999-1.6216 0-2.9999-1.2973-2.9999-2.9999 0-1.6216 1.2973-2.9999 2.9999-2.9999 1.6216 0 2.9999 1.2973 2.9999 2.9999z" fill="#b3b3b3" stroke-width="1.9999"/>
<g fill="#b3b3b3">
<path transform="matrix(2.4999,0,0,2.4999,-32.996,1.8456)" d="m38.941 10.467h3.4142l0.51447-0.3259h-1.1225s1.0289-0.18623 1.1692-1.3502c0.14031-1.1639-1.5902-2.4675-1.5902-2.4675v0.046557c0.04677 0.27934 0.51447 2.2348 0.18708 2.9797-0.14031 0.6518-0.56124 0.79148-0.56124 0.79148h-2.1514l0.09354 0.3259z"/>
<path transform="matrix(2.4999,0,0,2.4999,-32.996,1.8456)" d="m40.999 9.9544h-1.9643l2.3385-3.5384z"/>
</g>
<path d="m73.337 40.625c1.8926 0.30749 8.938-4.2225 8.6544-7.921-1.4572 2.2585-4.4357 1.1994-8.2654 1.3476 0 0 0.36855 6.1074-0.38881 6.5734z" color="#000000" fill="#b3b3b3" fill-rule="evenodd" stroke-width="2.4999"/>
</g>
</svg>
