<svg width="16" height="16" version="1.1" xmlns="http://www.w3.org/2000/svg">
<defs>
<style id="current-color-scheme" type="text/css">.ColorScheme-Text { color:#444444; } .ColorScheme-Highlight { color:#4285f4; }</style>
</defs>
<path d="m7.7923 1.2305c-1.5226 0-3.0366 0.35595-4.2163 0.86707-0.23994-0.11738-0.49162-0.23701-0.80834-0.23701-0.81043 0-1.4212 0.40086-1.4212 0.95793 0 0.19601 0.14566 0.37838 0.28652 0.53328-0.8096 0.77491-1.4288 1.7069-1.4288 2.7138 0 0.76261 0.43303 1.6768 0.91649 2.3188-0.47367 0.20855-0.93926 0.55667-0.93926 0.97175 0 0.64758 0.89658 1.1732 1.8387 1.1732 0.13593 0 0.26031-0.03859 0.38709-0.05926-0.040337 0.14055-0.079696 0.28022-0.079696 0.42662v0.85356c0 1.5972 2.4884 2.8916 5.5446 2.8916 3.0561 2e-6 5.5332-1.2944 5.5332-2.8916v-0.85356c0-0.15484-0.03486-0.30208-0.0797-0.45033 0.19247 0.05175 0.39576 0.08296 0.6148 0.08296 0.9421 0 1.8501-0.52563 1.8501-1.1732 0-0.49976-0.60575-0.92132-1.2467-1.0903 0.43039-0.61231 0.77797-1.4833 0.77797-2.2003 0-0.92458-0.50717-1.7772-1.1992-2.5123 0.2767-0.18357 0.4554-0.44973 0.4554-0.73474 0-0.55708-0.42108-0.95793-1.2315-0.95793-0.41258 0-0.78063 0.11957-1.0474 0.30812-1.2112-0.55545-2.9131-0.93817-4.5066-0.93817z" color="#000000" fill="none"/>
<path d="m8.0117 1c-1.5452 5.79e-4 -3.0569 0.28215-4.3516 0.81055-0.2712-0.13314-0.59987-0.20503-0.9375-0.20508-0.86875 6.58e-5 -1.5732 0.46593-1.5742 1.041-3.056e-4 0.19855 0.085075 0.39303 0.24609 0.56055-0.88868 0.8251-1.3641 1.7976-1.3652 2.793 0.0027975 0.75324 0.27721 1.4963 0.80273 2.1738-0.51905 0.22356-0.83212 0.60571-0.83203 1.0156 4.688e-4 0.66884 0.81967 1.2109 1.8301 1.2109 0.05805-1.27e-4 0.11606-0.0021 0.17383-0.0059-2.13e-4 0.008992-0.0039062 0.016365-0.0039062 0.025431v1.5762c0 1.6597 2.6953 3.0039 6.0059 3.0039 3.3105 0 5.9941-1.3442 5.9941-3.0039v-1.5762c0-0.01054-0.0038-0.01696-0.0039-0.02734 0.05772 0.0044 0.11573 7e-3 0.17383 0.0078 1.0104-3.6e-5 1.8296-0.54209 1.8301-1.2109-8.6e-4 -0.40542-0.30801-0.78368-0.81836-1.0078 0.53006-0.67945 0.8072-1.4254 0.81055-2.1816-0.003465-1.0144-0.49937-2.0042-1.4219-2.8379 0.13543-0.15707 0.20678-0.33477 0.20703-0.51562-9.88e-4 -0.57559-0.70666-1.0417-1.5762-1.041-0.32039 2.61e-5 -0.63314 0.064756-0.89648 0.18555-1.2813-0.51474-2.7709-0.78921-4.293-0.79102zm-0.010762 1c3.8651 3.777e-4 6.9983 1.791 6.999 4-7.7e-4 2.209-3.1339 3.9996-6.999 4-3.8659 2.26e-4 -7.0002-1.7906-7.001-4 7.694e-4 -2.2094 3.1351-4.0002 7.001-4zm-4.792 7.9863c0.15613 0.071992 0.31639 0.1404 0.48047 0.20508-0.16408-0.064681-0.32434-0.13309-0.48047-0.20508zm9.5937 0.00586c0.03369 0.02438 0.06888 0.047837 0.10547 0.070312-0.03659-0.02248-0.07178-0.04593-0.10547-0.070312zm-9.6719 0.048829c-0.03445 0.02308-0.070286 0.04523-0.10742 0.06641 0.037136-0.02117 0.072972-0.04333 0.10742-0.06641zm9.8301 0.05469c0.01982 0.01135 0.04001 0.02242 0.06055 0.0332-0.02054-0.01078-0.04073-0.02185-0.06055-0.0332zm-9.9688 0.029293c-0.031721 0.01699-0.064291 0.03328-0.097656 0.04883 0.033365-0.01555 0.065936-0.03184 0.097656-0.04883zm9.3633 0.05859c-0.12917 0.0525-0.26073 0.10266-0.39453 0.15039 0.1338-0.04773 0.26536-0.09789 0.39453-0.15039zm-9.5215 0.01758c-0.036292 0.01585-0.073425 0.03083-0.11133 0.04492 0.037904-0.01409 0.075037-0.02908 0.11133-0.04492zm-0.13867 0.05469c-0.043379 0.0155-0.087686 0.02984-0.13281 0.04297 0.045127-0.01313 0.089434-0.02747 0.13281-0.04297zm-0.17383 0.05469c-0.039227 0.01002-0.078964 0.01914-0.11914 0.02734 0.040176-0.0082 0.079913-0.01733 0.11914-0.02734zm1.5137 0.01367c0.11239 0.0408 0.22636 0.07987 0.3418 0.11719-0.11544-0.03731-0.2294-0.07639-0.3418-0.11719zm-1.8906 0.05664c-0.033062 0.0039-0.066277 0.0071-0.099609 0.0098 0.033332-0.0026 0.066548-0.0059 0.099609-0.0098zm9.502 0.06055c-0.11832 0.03833-0.23814 0.0748-0.35938 0.10938 0.12123-0.03457 0.24106-0.07104 0.35938-0.10938zm-6.9082 0.10938c0.11536 0.03233 0.23193 0.06294 0.34961 0.0918-0.11768-0.02886-0.23425-0.05947-0.34961-0.0918zm6.166 0.09961c-0.12445 0.03128-0.25014 0.06058-0.37695 0.08789 0.12681-0.02731 0.2525-0.05661 0.37695-0.08789zm-5.3867 0.0918c0.10028 0.02078 0.20121 0.04032 0.30273 0.05859-0.10152-0.01827-0.20245-0.03781-0.30273-0.05859zm4.6543 0.0625c-0.13767 0.02512-0.27639 0.04792-0.41602 0.06836 0.13963-0.02044 0.27835-0.04324 0.41602-0.06836zm-3.9062 0.06836c0.12376 0.01683 0.24815 0.0318 0.37305 0.04492-0.1249-0.01312-0.24928-0.0281-0.37305-0.04492zm3.127 0.04492c-0.13551 0.01522-0.27162 0.02825-0.4082 0.03906 0.13658-0.01081 0.2727-0.02384 0.4082-0.03906zm-2.373 0.03711c0.14086 0.01148 0.28219 0.02059 0.42383 0.02734-0.14164-0.0068-0.28297-0.01587-0.42383-0.02734zm1.5449 0.02734c-0.18386 0.0099-0.36822 0.01572-0.55273 0.01758 0.18451-0.0019 0.36887-0.0077 0.55273-0.01758z" color="#000000" fill="#808080" fill-rule="evenodd"/>
<ellipse cx="8" cy="6" rx="3" ry="2" color="#000000" fill="#808080" fill-rule="evenodd" stroke-width=".4332"/>
</svg>
