<svg width="16" height="16" version="1.1" xmlns="http://www.w3.org/2000/svg">
<defs>
<style id="current-color-scheme" type="text/css">.ColorScheme-Text { color:#444444; } .ColorScheme-Highlight { color:#4285f4; }</style>
</defs>
<path class="ColorScheme-Text" d="m8.5 0c-3.047 0-5.5 2.676-5.5 6v4c0 3.324 2.453 6 5.5 6s5.5-2.676 5.5-6v-4c0-3.324-2.453-6-5.5-6zm-0.5 2h0.5c0.2078 0 0.3574 0.1426 0.5 0.2852l3.25 3.2461-3 2.4687 3 2.469-3.4063 3.375c-0.0906 0.09-0.2052 0.156-0.3437 0.156h-0.5v-4.9375l-2.1563 1.7815c-0.0904 0.09-0.2056 0.156-0.3437 0.156h-0.5v-0.5c0-0.153 0.079-0.283 0.1875-0.375l2.5625-2.125-2.5625-2.125c-0.1085-0.0917-0.1875-0.2218-0.1875-0.375v-0.5h0.5c0.1229 0 0.2254 0.0514 0.3125 0.125l2.1875 1.8125zm1 1.6875v3.25l1.781-1.4687zm0 5.375v3.2505l1.781-1.782z" fill="#808080"/>
</svg>
