<svg width="16" height="16" version="1.1" xmlns="http://www.w3.org/2000/svg">
<defs>
<style id="current-color-scheme" type="text/css">.ColorScheme-Text { color:#444444; } .ColorScheme-Highlight { color:#4285f4; }</style>
</defs>
<ellipse cx="7.8228" cy="10.958" rx="3.3078" ry="1.0396" color="#000000" fill="#808080" fill-rule="evenodd"/>
<ellipse cx="7.8228" cy="10.745" rx="3.1102" ry="1.3043" color="#000000" fill="none"/>
<ellipse cx="7.8228" cy="10.481" rx="3.1102" ry="1.3043" color="#000000" fill="none"/>
<g fill="#808080" fill-rule="evenodd">
<path d="m9.1603 9.5315-0.01711 0.3521s1.1835 1.2673 2.4634 1.4797c0.63991 0.10622 1.3011 0.24732 1.8475 0.41812 0.54641 0.1708 0.98216 0.39421 1.129 0.58316 0.08497 0.1093 0.12346 0.20198 0.13685 0.27508s0.01046 0.12493-0.02567 0.19806c-0.07224 0.14625-0.29556 0.34071-0.67571 0.49514-0.7603 0.30886-2.1131 0.50614-3.9859 0.50614v0.3521c1.8875 0 3.2472-0.18579 4.0628-0.51714 0.40784-0.16568 0.69109-0.35762 0.82967-0.63818 0.06929-0.14028 0.0978-0.31282 0.06843-0.47313s-0.10525-0.31145-0.21383-0.45112c-0.2402-0.30899-0.69435-0.4952-1.2573-0.67119s-1.236-0.32193-1.8817-0.42912c-1.2915-0.21437-2.4805-1.4797-2.4805-1.4797z"/>
<path d="m2.5898 0c-0.39408 0-0.57175 0.21734-0.58594 0.48438v8.8301c0.00459 0.40148 0.31685 0.6896 0.71094 0.68945l10.572-0.003906c0.39408-1.455e-4 0.73144-0.2997 0.71094-0.68555l0.003906-8.8301c-0.014994-0.28241-0.26701-0.48438-0.58789-0.48438h-10.824zm0.41016 1h10v8h-10v-8z" color="#000000"/>
<path d="m3.2221 13h9.5558c0.34498 0 0.30125 0.08438 0.33666 0.19051l0.87372 2.619c0.03541 0.10613 0.0083 0.19051-0.33666 0.19051h-11.303c-0.34499 0-0.37206-0.08438-0.33666-0.19051l0.87372-2.619c0.03541-0.10613-0.0083164-0.19051 0.33666-0.19051z" color="#000000"/>
</g>
</svg>
