<svg width="16" height="16" version="1.1" xmlns="http://www.w3.org/2000/svg">
<defs>
<style id="current-color-scheme" type="text/css">.ColorScheme-Text { color:#444444; } .ColorScheme-Highlight { color:#4285f4; }</style>
</defs>
<path class="ColorScheme-Text" d="m0.80078 0c-0.4432 0-0.80078 0.35758-0.80078 0.80078v13.398c0 0.443 0.35758 0.801 0.80078 0.801h2.1992v-0.5c0-0.5 0.5-0.5 0.5-0.5s0.5 0 0.5 0.5v0.5h10.199c0.443 0 0.801-0.358 0.801-0.801v-13.398c0-0.4432-0.358-0.80078-0.801-0.80078h-10.199v0.5c0 0.5-0.5 0.5-0.5 0.5s-0.5 0-0.5-0.5v-0.5h-2.1992zm4.1992 1h1v1h-1v-1zm2 0h1v1h-1v-1zm2 0h1v1h-1v-1zm2 0h1v1h-1v-1zm2 0h1v1h-1v-1zm-12 2h1v1h-1v-1zm2 0h1v1h-1v-1zm2 0h1v1h-1v-1zm2 0h1v1h-1v-1zm2 0h1v1h-1v-1zm2 0h1v1h-1v-1zm2 0h1v1h-1v-1zm-12 2h1v1h-1v-1zm2 0h1v1h-1v-1zm8 0h1v1h-1v-1zm2 0h1v1h-1v-1zm-12 2h1v1h-1v-1zm2 0h1v1h-1v-1zm8 0h1v1h-1v-1zm2 0h1v1h-1v-1zm-12 2h1v1h-1v-1zm2 0h1v1h-1v-1zm8 0h1v1h-1v-1zm2 0h1v1h-1v-1zm-12 2h1v1h-1v-1zm2 0h1v1h-1v-1zm2 0h1v1h-1v-1zm2 0h1v1h-1v-1zm2 0h1v1h-1v-1zm2 0h1v1h-1v-1zm2 0h1v1h-1v-1zm-12 2h1v1h-1v-1zm4 0h1v1h-1v-1zm2 0h1v1h-1v-1zm2 0h1v1h-1v-1zm2 0h1v1h-1v-1zm2 0h1v1h-1v-1z" fill="#808080"/>
</svg>
