<svg width="16" height="16" version="1.1" xmlns="http://www.w3.org/2000/svg">
<defs>
<style id="current-color-scheme" type="text/css">.ColorScheme-Text { color:#444444; } .ColorScheme-Highlight { color:#4285f4; }</style>
</defs>
<path d="m3.2421 2.0004c-0.23902 0-0.39656 0.11783-0.49217 0.33202l-2.6464 6.6169c-0.061548 0.15392-0.085707 0.28779-0.087887 0.40623l-0.015629 0.013672v4.0018c0 0.41889 0.2529 0.62888 0.63474 0.62888h7.365c-3.2114 0-5.8133-1.7591-5.9881-3.9998h2.9999c0.088377 1.1272 1.4034 1.9999 2.9823 1.9999 1.6155 0 2.8948-0.89682 2.9823-1.9999h2.9999c-0.17402 2.2407-2.765 3.9998-5.9763 3.9998h7.3884c0.37663 0 0.6113-0.27735 0.6113-0.71286v-3.9159c0.0017-0.013359-8.41e-4 -0.027337 0-0.041015v-0.082027l-0.01172-0.00195c-0.0043-0.065574-9e-6 -0.1295-0.02539-0.19921l-2.7382-6.6599c-0.070567-0.19807-0.25278-0.38209-0.43944-0.3867zm3.1366 7.9997h3.2303c-0.085047 0.57883-0.77658 1.0371-1.6152 1.0371-0.83859 0-1.5301-0.45824-1.6152-1.0371z" fill="#808080" fill-rule="evenodd" stroke-width="1.0004"/>
</svg>
