<svg width="16" height="16" version="1.1" xmlns="http://www.w3.org/2000/svg">
<defs>
<style id="current-color-scheme" type="text/css">.ColorScheme-Text { color:#444444; } .ColorScheme-Highlight { color:#4285f4; }</style>
</defs>
<path d="m7.9902-0.0019531a2 2 0 0 0-2 2 2 2 0 0 0 1.0039 1.7324v2.8145c-0.22128 0.2594-0.85134 0.46844-0.85742 0.73242l-0.16406 0.72266h-2.9648c-0.20912-7.86e-5 -0.34604 0.099056-0.42969 0.2832l-1.4941 3.6602c-0.06481 0.13207-0.089857 0.24832-0.091797 0.35156l-0.0019531 0.001953 0.0019531 2.1484c0 0.36688 0.22059 0.55272 0.55469 0.55274l12.91-0.001953c0.32955-1.2e-5 0.53125-0.24159 0.53125-0.62305v-2.0605c0.0029-0.0192-5.89e-4 -0.040667 0-0.060547v-0.0625h-0.009765c-0.0045-0.05343-5.37e-4 -0.10558-0.021485-0.16211l-1.5781-3.6934c-0.06174-0.1703-0.21754-0.33-0.38086-0.33398h-2.998l-0.17969-0.75781c-0.0065-0.28273-0.50558-0.32515-0.82812-0.62305v-2.8672s-0.041159 1.75e-5 -0.042969 0a2 2 0 0 0 1.041-1.7539 2 2 0 0 0-2-2zm-4.4902 10.002a1.5 1 0 0 1 1.5 1 1.5 1 0 0 1-1.5 1 1.5 1 0 0 1-1.5-1 1.5 1 0 0 1 1.5-1z" fill="#808080" fill-rule="evenodd" stroke-width=".99456"/>
</svg>
