<svg width="16" height="16" version="1.1" xmlns="http://www.w3.org/2000/svg">
<defs>
<style id="current-color-scheme" type="text/css">.ColorScheme-Text { color:#444444; } .ColorScheme-Highlight { color:#4285f4; }</style>
</defs>
<path d="m2.8381 6.2064c0.08052-2.3754 1.3286-3.5429 2.9793-3.5027 1.6507 0.040261 1.8923 1.087 4.0663 1.087s2.1741-1.4494 1.8117-1.852-0.76495-0.80521-0.76495-0.80521" fill="none" stroke="#808080" stroke-width=".32209px"/>
<path d="m2.3203 6.0028c-0.37331-0.024631-0.58235 0.31998-0.65234 0.68945l-1.6328 7.668c-0.11666 0.36948 0.06994 0.61404 0.41992 0.63867h14.838c0.53663 0.02463 0.74784-0.34309 0.70117-0.63867l-1.3535-7.6191c-0.07-0.49263-0.46654-0.76291-0.83984-0.73828zm8.8906 0.99805h0.57812c0.11719 0 0.21094 0.10472 0.21094 0.23438v0.53125c0 0.12966-0.09375 0.23438-0.21094 0.23438h-0.57812c-0.11719 0-0.21094-0.10472-0.21094-0.23438v-0.53125c0-0.12966 0.09375-0.23438 0.21094-0.23438zm2 0h0.57812c0.11719 0 0.21094 0.10472 0.21094 0.23438v0.53125c0 0.12966-0.09375 0.23438-0.21094 0.23438h-0.57812c-0.11719 0-0.21094-0.10472-0.21094-0.23438v-0.53125c0-0.12966 0.09375-0.23438 0.21094-0.23438zm-10 1h0.57812c0.11719 0 0.21094 0.10472 0.21094 0.23438v0.53125c0 0.12966-0.093745 0.23438-0.21094 0.23438h-0.57812c-0.11719 0-0.21094-0.10472-0.21094-0.23438v-0.53125c0-0.12966 0.093745-0.23438 0.21094-0.23438zm2 0h0.57812c0.11719 0 0.21094 0.10472 0.21094 0.23438v0.53125c0 0.12966-0.093745 0.23438-0.21094 0.23438h-0.57812c-0.11719 0-0.21094-0.10472-0.21094-0.23438v-0.53125c0-0.12966 0.093745-0.23438 0.21094-0.23438zm2 0h0.57812c0.11719 0 0.21094 0.10472 0.21094 0.23438v0.53125c0 0.12966-0.093745 0.23438-0.21094 0.23438h-0.57812c-0.11719 0-0.21094-0.10472-0.21094-0.23438v-0.53125c0-0.12966 0.093745-0.23438 0.21094-0.23438zm2 0h0.57812c0.11719 0 0.21094 0.10472 0.21094 0.23438v0.53125c0 0.12966-0.093745 0.23438-0.21094 0.23438h-0.57812c-0.11719 0-0.21094-0.10472-0.21094-0.23438v-0.53125c0-0.12966 0.093745-0.23438 0.21094-0.23438zm-7 1h0.57812c0.11719 0 0.21094 0.10472 0.21094 0.23438v0.53125c0 0.12966-0.093745 0.23438-0.21094 0.23438h-0.57812c-0.11719 0-0.21094-0.10472-0.21094-0.23438v-0.53125c0-0.12966 0.093745-0.23438 0.21094-0.23438zm2 0h0.57812c0.11719 0 0.21094 0.10472 0.21094 0.23438v0.53125c0 0.12966-0.093745 0.23438-0.21094 0.23438h-0.57812c-0.11719 0-0.21094-0.10472-0.21094-0.23438v-0.53125c0-0.12966 0.093745-0.23438 0.21094-0.23438zm2 0h0.57812c0.11719 0 0.21094 0.10472 0.21094 0.23438v0.53125c0 0.12966-0.093745 0.23438-0.21094 0.23438h-0.57812c-0.11719 0-0.21094-0.10472-0.21094-0.23438v-0.53125c0-0.12966 0.093745-0.23438 0.21094-0.23438zm2 0h0.57812c0.11719 0 0.21094 0.10472 0.21094 0.23438v0.53125c0 0.12966-0.093745 0.23438-0.21094 0.23438h-0.57812c-0.11719 0-0.21094-0.10472-0.21094-0.23438v-0.53125c0-0.12966 0.093745-0.23438 0.21094-0.23438zm3 0h0.57812c0.11719 0 0.21094 0.10472 0.21094 0.23438v0.53125c0 0.12966-0.09375 0.23438-0.21094 0.23438h-0.57812c-0.11719 0-0.21094-0.10472-0.21094-0.23438v-0.53125c0-0.12966 0.09375-0.23438 0.21094-0.23438zm2 0h0.57812c0.11719 0 0.21094 0.10472 0.21094 0.23438v0.53125c0 0.12966-0.09375 0.23438-0.21094 0.23438h-0.57812c-0.11719 0-0.21094-0.10472-0.21094-0.23438v-0.53125c0-0.12966 0.09375-0.23438 0.21094-0.23438zm-12 1h0.57812c0.11719 0 0.21094 0.10472 0.21094 0.23438v0.53125c0 0.12966-0.093745 0.23438-0.21094 0.23438h-0.57812c-0.11719 0-0.21094-0.10472-0.21094-0.23438v-0.53125c0-0.12966 0.093745-0.23438 0.21094-0.23438zm2 0h0.57812c0.11719 0 0.21094 0.10472 0.21094 0.23438v0.53125c0 0.12966-0.093745 0.23438-0.21094 0.23438h-0.57812c-0.11719 0-0.21094-0.10472-0.21094-0.23438v-0.53125c0-0.12966 0.093745-0.23438 0.21094-0.23438zm2 0h0.57812c0.11719 0 0.21094 0.10472 0.21094 0.23438v0.53125c0 0.12966-0.093745 0.23438-0.21094 0.23438h-0.57812c-0.11719 0-0.21094-0.10472-0.21094-0.23438v-0.53125c0-0.12966 0.093745-0.23438 0.21094-0.23438zm2 0h0.57812c0.11719 0 0.21094 0.10472 0.21094 0.23438v0.53125c0 0.12966-0.093745 0.23438-0.21094 0.23438h-0.57812c-0.11719 0-0.21094-0.10472-0.21094-0.23438v-0.53125c0-0.12966 0.093745-0.23438 0.21094-0.23438zm2 0h0.57812c0.11719 0 0.21094 0.10472 0.21094 0.23438v0.53125c0 0.12966-0.093745 0.23438-0.21094 0.23438h-0.57812c-0.11719 0-0.21094-0.10472-0.21094-0.23438v-0.53125c0-0.12966 0.093745-0.23438 0.21094-0.23438zm3 0h0.57812c0.11719 0 0.21094 0.10472 0.21094 0.23438v0.53125c0 0.12966-0.09375 0.23438-0.21094 0.23438h-0.57812c-0.11719 0-0.21094-0.10472-0.21094-0.23438v-0.53125c0-0.12966 0.09375-0.23438 0.21094-0.23438zm-11 2h0.57812c0.11719 0 0.21094 0.10472 0.21094 0.23438v0.53125c0 0.12966-0.093745 0.23438-0.21094 0.23438h-0.57812c-0.11719 0-0.21094-0.10472-0.21094-0.23438v-0.53125c0-0.12966 0.093745-0.23438 0.21094-0.23438zm1.9863 0h3.6055c0.10931 0 0.19727 0.10472 0.19727 0.23438v0.53125c0 0.12966-0.087956 0.23438-0.19727 0.23438h-3.6055c-0.10931 0-0.19727-0.10472-0.19727-0.23438v-0.53125c0-0.12966 0.087956-0.23438 0.19727-0.23438zm5.0137 0h0.57812c0.11719 0 0.21094 0.10472 0.21094 0.23438v0.53125c0 0.12966-0.093745 0.23438-0.21094 0.23438h-0.57812c-0.11719 0-0.21094-0.10472-0.21094-0.23438v-0.53125c0-0.12966 0.093745-0.23438 0.21094-0.23438zm2 0h0.57812c0.11719 0 0.21094 0.10472 0.21094 0.23438v0.53125c0 0.12966-0.09375 0.23438-0.21094 0.23438h-0.57812c-0.11719 0-0.21094-0.10472-0.21094-0.23438v-0.53125c0-0.12966 0.093745-0.23438 0.21094-0.23438zm2 0h0.57812c0.11719 0 0.21094 0.10472 0.21094 0.23438v0.53125c0 0.12966-0.09375 0.23438-0.21094 0.23438h-0.57812c-0.11719 0-0.21094-0.10472-0.21094-0.23438v-0.53125c0-0.12966 0.09375-0.23438 0.21094-0.23438zm2 0h0.57812c0.11719 0 0.21094 0.10472 0.21094 0.23438v0.53125c0 0.12966-0.09375 0.23438-0.21094 0.23438h-0.57812c-0.11719 0-0.21094-0.10472-0.21094-0.23438v-0.53125c0-0.12966 0.09375-0.23438 0.21094-0.23438z" fill="#808080" fill-rule="evenodd"/>
</svg>
