<svg width="16" height="16" version="1.1" xmlns="http://www.w3.org/2000/svg">
<defs>
<style id="current-color-scheme" type="text/css">.ColorScheme-Text { color:#444444; } .ColorScheme-Highlight { color:#4285f4; }</style>
</defs>
<path d="m7.2602 5.0594c-0.9938-1.9235-0.55901-2.2441 1.4907-1.7311 2.0066 0.50214 4.2858 2.6287 4.0994 0.38469-0.19741-2.3774-2.7951-3.5905-2.7951-3.5905" fill="none" stroke="#808080" stroke-width=".27533"/>
<path d="m7.5 5a1 2 0 0 1 1 2 1 2 0 0 1-1 2 1 2 0 0 1-1-2 1 2 0 0 1 1-2zm0 0c-1.0474-0.044272-2.02 0.2547-2.8633 0.60352-0.191 0.10609-0.32984 0.10627-0.46875 0.63672l-1.0234 4.1348c-0.73336 3.3323 1.403 5.625 4.6113 5.625 3.1736 0 4.7512-2.6554 4.0977-5.625l-1.041-3.9766c-0.12155-0.55697-0.38016-0.73431-0.55469-0.79492-0.7827-0.35964-1.836-0.56841-2.7578-0.60352z" fill="#808080" fill-rule="evenodd"/>
<path d="m7.4467 5.0044c0.058544 8.732e-4 0.11713 0.00636 0.17578 0.00859a1.125 2.2 0 0 0-0.12305-0.012892 1.125 2.2 0 0 0-0.052728 0.0043z" fill="#444" fill-rule="evenodd"/>
<path d="m3.3074 10.948c-0.42035 2.5697 1.3847 4.7584 4.4699 4.7584s4.2659-2.6419 3.9152-4.7584l-1.1122-4.2395c-0.092285-0.66698-0.36412-0.73132-0.52511-0.79558-1.747-0.69739-3.7839-0.75492-5.2072 0-0.17836 0.094604-0.3261 0.058649-0.43447 0.53982z" fill="none"/>
<ellipse cx="7.5" cy="6.5" rx=".5" ry="1.5" color="#000000" fill="#808080" fill-rule="evenodd"/>
</svg>
