<svg width="16" height="16" version="1.1" xmlns="http://www.w3.org/2000/svg">
<defs>
<style id="current-color-scheme" type="text/css">.ColorScheme-Text { color:#444444; } .ColorScheme-Highlight { color:#4285f4; }</style>
</defs>
<path d="m3.3789 1c-0.2864 0.019483-0.39604 0.31699-0.37695 0.55078v12.812c0.02129 0.3332 0.3055 0.66807 0.72852 0.63477h0.26953v-1.7148c0-0.08323 0.10489-0.15039 0.23633-0.15039h8.5273c0.13143 0 0.23633 0.067163 0.23633 0.15039v1.7148h0.46094c0.27297-0.01368 0.54306-0.24983 0.53906-0.7168v-11.717c0-0.22733-0.070088-0.38126-0.23047-0.54492l-0.83984-0.89844c-0.08776-0.0861-0.14174-0.12109-0.38477-0.12109h-9.166zm1.2324 1.998h7.7773c0.33816 0 0.61133 0.2538 0.61133 0.56641v3.8711c0 0.31261-0.27316 0.56445-0.61133 0.56445h-0.38867v-1h-1v1h-1v-2h-1v2h-1v-3h-1v3h-1v-5h-1v5h-0.38867c-0.33816 0-0.61133-0.27528-0.61133-0.58789v-3.8477c0-0.31261 0.27317-0.56641 0.61133-0.56641zm2.3887 0.0019531v1h1v-1h-1zm2 0v2h1v-2h-1zm2 0v3h1v-3h-1z" color="#000000" fill="#808080" fill-rule="evenodd" stroke-width=".69756"/>
</svg>
