<svg width="48" height="48" version="1" xmlns="http://www.w3.org/2000/svg">
<defs>
<filter id="filter839" color-interpolation-filters="sRGB">
<feFlood flood-color="rgb(0,0,0)" flood-opacity=".2" result="flood"/>
<feComposite in="flood" in2="SourceGraphic" operator="in" result="composite1"/>
<feGaussianBlur in="composite1" result="blur"/>
<feOffset dx="0" dy="1" result="offset"/>
<feComposite in="SourceGraphic" in2="offset" result="composite2"/>
</filter>
</defs>
<path d="m10 5c-1.108 0-2 0.892-2 2v36c0 1.108 0.892 2 2 2h28c1.108 0 2-0.892 2-2v-26l-11-1-1-11z" opacity=".2"/>
<path d="m10 4c-1.108 0-2 0.892-2 2v36c0 1.108 0.892 2 2 2h28c1.108 0 2-0.892 2-2v-26l-11-1-1-11z" fill="#e4e4e4"/>
<path d="m10 4c-1.108 0-2 0.892-2 2v1c0-1.108 0.892-2 2-2h18l11 11h1l-12-12z" fill="#fff" opacity=".2"/>
<path d="m28 5v10c0 1.1046 0.89543 2 2 2h10z" opacity=".2"/>
<path d="m28 4v10c0 1.1046 0.89543 2 2 2h10z" fill="#fafafa"/>
<path d="m32.723 21.913-11.702 1.6423v11.11c-0.88263-0.28888-2.1675-0.36438-3.5111-0.09714-2.336 0.46467-4.2148 1.7093-3.9584 2.7681 0.25626 1.059 2.5701 1.5493 4.9061 1.0846 2.2075-0.43909 4.2993-1.5736 4.2555-2.5903l0.0073-9.8588 8.3016-1.4999v8.9543c-5.4964-0.77705-6.6668 1.4989-6.4103 2.5577 0.25626 1.059 1.9558 1.5493 4.292 1.0846 2.0729-0.41228 3.6586-1.4314 3.8055-2.396z" color="#000000" display="block" fill="#2470b2" filter="url(#filter839)" stroke="#2470b2" stroke-linecap="round" stroke-linejoin="round" stroke-width=".80546"/>
</svg>
