<svg width="16" height="16" version="1.1" viewBox="0 0 16 16" xmlns="http://www.w3.org/2000/svg">
<defs>
<style id="current-color-scheme" type="text/css">.ColorScheme-Text { color:#444444; } .ColorScheme-Highlight { color:#5294e2; }</style>
</defs>
<path d="m3.4336 1c-0.23725-1.0351e-4 -0.42969 0.15565-0.42969 0.34961v5.6484l9.998 0.0039062v-5.6484c0-0.19398-0.19048-0.34951-0.42773-0.34961l-9.1406-0.0039062zm8.0664 7c-0.017429 0-0.033412 0.0056054-0.050781 0.0058594h0.10156c-0.017369-2.539e-4 -0.033352-0.0058594-0.050781-0.0058594zm0.050781 0.0058594c1.9089 0.027907 3.4492 1.5786 3.4492 3.4941v-1.5508c0-0.21076-0.024846-0.37398-0.13477-0.54492-0.10991-0.17095-0.59954-0.97028-0.70312-1.1309-0.10359-0.16052-0.27086-0.26753-0.40234-0.26758h-2.209zm3.4492 3.4941c0 0.70952-0.2133 1.3684-0.57617 1.9199l0.55664 0.54883c0.007046-0.038277 0.019531-0.074457 0.019531-0.11523v-2.3535zm-3.5508-3.4941-9.209-0.0039063c-0.13606-1.554e-4 -0.3303 0.08572-0.43555 0.24023-0.10523 0.15454-0.5036 0.88228-0.65234 1.0918-0.11789 0.16605-0.15234 0.42938-0.15234 0.61133v3.9043c0 0.3252 0.23536 0.5841 0.53125 0.60156 0.033646 0.30576 0.26932 0.54483 0.56641 0.54492l9.3945 0.003906c-1.9293-0.004292-3.4922-1.5697-3.4922-3.5 4.3e-6 -1.9156 1.5403-3.4662 3.4492-3.4941zm1.957 6.4238c-0.54702 0.35668-1.1971 0.56875-1.8984 0.57031h2.4141c0.018085 6e-6 0.033186-0.00804 0.050781-0.009766l-0.56641-0.56055z" fill="#444"/>
<g transform="translate(-8)" fill="#444">
<path d="m19.5 9a2.5 2.5 0 0 0-2.5 2.5 2.5 2.5 0 0 0 2.5 2.5 2.5 2.5 0 0 0 2.5-2.5 2.5 2.5 0 0 0-2.5-2.5zm0 1a1.5 1.5 0 0 1 1.5 1.5 1.5 1.5 0 0 1-1.5 1.5 1.5 1.5 0 0 1-1.5-1.5 1.5 1.5 0 0 1 1.5-1.5z" fill-rule="evenodd" stroke-width=".89342"/>
<path d="m20.657 13.628s0.08712 0.14915 0.14891 0.20935l1.9609 1.9384c0.67506 0.67845 1.6876-0.33841 1.0126-1.0168l-1.9609-1.9384c-0.05994-0.06206-0.13058-0.11271-0.20847-0.14954z" stroke-width=".95503"/>
</g>
</svg>
