<svg width="16" height="16" version="1.1" viewBox="0 0 16 16" xmlns="http://www.w3.org/2000/svg">
<defs>
<style id="current-color-scheme" type="text/css">.ColorScheme-Text { color:#444444; } .ColorScheme-Highlight { color:#5294e2; }</style>
</defs>
<path d="m1.584 5.9004c-0.01401-0.011124 0.55258 8.0035 0.55273 8.0059 0.052951 0.80041 0.4966 1.0926 0.99414 1.0938 0.017769 4e-5 9.334-0.001053 9.5332-0.001953 0.83784-0.0035 1.0426-0.51172 1.0977-1.0684 0.0044-0.010961 0.56786-8.0191 0.57226-8.0293h-12.75zm3.375 1.0996h0.77734c0.24288 0 0.45885 0.094451 0.58398 0.22266l1.6387 1.668 1.6387-1.668c0.12514-0.1282 0.3411-0.22266 0.58398-0.22266h0.77734v0.73633c0 0.20124-0.069541 0.38474-0.19531 0.51367l-1.7168 1.75 1.7168 1.75c0.10896 0.11163 0.16397 0.29569 0.19531 0.5625v0.6875h-0.77734c-0.24288 0-0.45885-0.09445-0.58398-0.22266l-1.6387-1.6777-1.6387 1.6777c-0.12514 0.12821-0.3411 0.22266-0.58398 0.22266h-0.77734v-0.73633c0-0.20124 0.069659-0.38494 0.19531-0.51367l1.7168-1.75-1.7168-1.75c-0.12602-0.12933-0.19531-0.31243-0.19531-0.51367v-0.73633z" fill="#444" fill-rule="evenodd" stroke-width="1.0801"/>
<path d="m13.122 2.0005c-0.04188 0.0014733-10.318 0.019453-10.359 0.01954-0.33186 6.965e-4 -0.61011 0.0087747-0.7614 0.29895-0.026287 0.050433-0.82801 2.0966-0.86657 2.1747-0.32989 0.66826-0.025102 1.5102 0.61207 1.5045 0.12117-0.00103 12.554 0.00521 12.748 0 0.54239-0.014426 0.61208-0.98976 0.3786-1.4283-0.013224-0.024842-1.0977-2.2794-1.1253-2.3193-0.12783-0.17839-0.41413-0.25742-0.62679-0.2501zm-0.17097 0.99954c0.19791 0.00222 0.17906-0.026035 0.29236 0.1316 0.02449 0.035364 0.71587 1.5669 0.73815 1.6375 0.05484 0.174-0.01809 0.23085-0.26082 0.23085-0.17123 0-11.246-0.00177-11.353 0-0.30314 0.00498-0.4281-0.042564-0.34074-0.28752 0.025673-0.072038 0.52736-1.4634 0.54362-1.5106 0.070451-0.20423 0.090836-0.20566 0.40384-0.20193 0.036011 4.373e-4 9.9395-4.146e-4 9.9766 0z" fill="#444" fill-rule="evenodd" stroke-width="1.0801"/>
</svg>
