<svg width="16" height="16" version="1.1" viewBox="0 0 16 16" xmlns="http://www.w3.org/2000/svg">
<path d="m2.3184 1 0.0019531 0.0019531c-0.12978-0.0064589-0.25498 0.088113-0.29883 0.20508-0.0060735-0.014318-0.015915-0.023968-0.021484-0.039062v11.535c0 0.0014 0.0018431 0.002406 0.0019531 0.003906v0.94727c0.01681 0.41352 0.41743 0.70987 0.88477 0.74023 4.4063 0.28624 7.9258 0.59961 7.9258 0.59961 0.09442 0.02608 0.1875-0.060948 0.1875-0.17383v-1.5449l3.6797 0.099609c0.1595 0.0079 0.32031-0.13541 0.32031-0.28711v-5.3848c0-0.15173-0.11462-0.41795-0.39648-0.47461l-1.1797-0.22266c-0.30305-0.060902-0.42383-0.33303-0.42383-0.50977v-4.8359c0-0.1517-0.15887-0.31237-0.31836-0.32031l-10.363-0.33984zm4.6816 4h2v2h2v2h-2v2h-2v-2h-2v-2h2v-2z" fill="#444"/>
</svg>
