<svg width="64" height="64" version="1" xmlns="http://www.w3.org/2000/svg">
<defs>
<filter id="filter1053" color-interpolation-filters="sRGB">
<feFlood flood-color="rgb(0,0,0)" flood-opacity=".2" result="flood"/>
<feComposite in="flood" in2="SourceGraphic" operator="in" result="composite1"/>
<feGaussianBlur in="composite1" result="blur"/>
<feOffset dx="0" dy="1" result="offset"/>
<feComposite in="SourceGraphic" in2="offset" result="fbSourceGraphic"/>
<feColorMatrix in="fbSourceGraphic" result="fbSourceGraphicAlpha" values="0 0 0 -1 0 0 0 0 -1 0 0 0 0 -1 0 0 0 0 1 0"/>
<feFlood flood-color="rgb(255,255,255)" flood-opacity=".10196" in="fbSourceGraphic" result="flood"/>
<feComposite in="flood" in2="fbSourceGraphic" operator="out" result="composite1"/>
<feGaussianBlur in="composite1" result="blur"/>
<feOffset dx="0" dy="1" result="offset"/>
<feComposite in="offset" in2="fbSourceGraphic" operator="atop" result="composite2"/>
</filter>
<filter id="filter1065" color-interpolation-filters="sRGB">
<feFlood flood-color="rgb(0,0,0)" flood-opacity=".2" result="flood"/>
<feComposite in="flood" in2="SourceGraphic" operator="in" result="composite1"/>
<feGaussianBlur in="composite1" result="blur"/>
<feOffset dx="0" dy="1" result="offset"/>
<feComposite in="SourceGraphic" in2="offset" result="fbSourceGraphic"/>
<feColorMatrix in="fbSourceGraphic" result="fbSourceGraphicAlpha" values="0 0 0 -1 0 0 0 0 -1 0 0 0 0 -1 0 0 0 0 1 0"/>
<feFlood flood-color="rgb(255,255,255)" flood-opacity=".10196" in="fbSourceGraphic" result="flood"/>
<feComposite in="flood" in2="fbSourceGraphic" operator="out" result="composite1"/>
<feGaussianBlur in="composite1" result="blur"/>
<feOffset dx="0" dy="1" result="offset"/>
<feComposite in="offset" in2="fbSourceGraphic" operator="atop" result="composite2"/>
</filter>
<filter id="filter1077" color-interpolation-filters="sRGB">
<feFlood flood-color="rgb(0,0,0)" flood-opacity=".2" result="flood"/>
<feComposite in="flood" in2="SourceGraphic" operator="in" result="composite1"/>
<feGaussianBlur in="composite1" result="blur"/>
<feOffset dx="0" dy="1" result="offset"/>
<feComposite in="SourceGraphic" in2="offset" result="fbSourceGraphic"/>
<feColorMatrix in="fbSourceGraphic" result="fbSourceGraphicAlpha" values="0 0 0 -1 0 0 0 0 -1 0 0 0 0 -1 0 0 0 0 1 0"/>
<feFlood flood-color="rgb(255,255,255)" flood-opacity=".10196" in="fbSourceGraphic" result="flood"/>
<feComposite in="flood" in2="fbSourceGraphic" operator="out" result="composite1"/>
<feGaussianBlur in="composite1" result="blur"/>
<feOffset dx="0" dy="1" result="offset"/>
<feComposite in="offset" in2="fbSourceGraphic" operator="atop" result="composite2"/>
</filter>
<filter id="filter1089" color-interpolation-filters="sRGB">
<feFlood flood-color="rgb(0,0,0)" flood-opacity=".2" result="flood"/>
<feComposite in="flood" in2="SourceGraphic" operator="in" result="composite1"/>
<feGaussianBlur in="composite1" result="blur"/>
<feOffset dx="0" dy="1" result="offset"/>
<feComposite in="SourceGraphic" in2="offset" result="fbSourceGraphic"/>
<feColorMatrix in="fbSourceGraphic" result="fbSourceGraphicAlpha" values="0 0 0 -1 0 0 0 0 -1 0 0 0 0 -1 0 0 0 0 1 0"/>
<feFlood flood-color="rgb(255,255,255)" flood-opacity=".10196" in="fbSourceGraphic" result="flood"/>
<feComposite in="flood" in2="fbSourceGraphic" operator="out" result="composite1"/>
<feGaussianBlur in="composite1" result="blur"/>
<feOffset dx="0" dy="1" result="offset"/>
<feComposite in="offset" in2="fbSourceGraphic" operator="atop" result="composite2"/>
</filter>
<filter id="filter1101" color-interpolation-filters="sRGB">
<feFlood flood-color="rgb(0,0,0)" flood-opacity=".2" result="flood"/>
<feComposite in="flood" in2="SourceGraphic" operator="in" result="composite1"/>
<feGaussianBlur in="composite1" result="blur"/>
<feOffset dx="0" dy="1" result="offset"/>
<feComposite in="SourceGraphic" in2="offset" result="fbSourceGraphic"/>
<feColorMatrix in="fbSourceGraphic" result="fbSourceGraphicAlpha" values="0 0 0 -1 0 0 0 0 -1 0 0 0 0 -1 0 0 0 0 1 0"/>
<feFlood flood-color="rgb(255,255,255)" flood-opacity=".10196" in="fbSourceGraphic" result="flood"/>
<feComposite in="flood" in2="fbSourceGraphic" operator="out" result="composite1"/>
<feGaussianBlur in="composite1" result="blur"/>
<feOffset dx="0" dy="1" result="offset"/>
<feComposite in="offset" in2="fbSourceGraphic" operator="atop" result="composite2"/>
</filter>
<filter id="filter1113" color-interpolation-filters="sRGB">
<feFlood flood-color="rgb(0,0,0)" flood-opacity=".2" result="flood"/>
<feComposite in="flood" in2="SourceGraphic" operator="in" result="composite1"/>
<feGaussianBlur in="composite1" result="blur"/>
<feOffset dx="0" dy="1" result="offset"/>
<feComposite in="SourceGraphic" in2="offset" result="fbSourceGraphic"/>
<feColorMatrix in="fbSourceGraphic" result="fbSourceGraphicAlpha" values="0 0 0 -1 0 0 0 0 -1 0 0 0 0 -1 0 0 0 0 1 0"/>
<feFlood flood-color="rgb(255,255,255)" flood-opacity=".10196" in="fbSourceGraphic" result="flood"/>
<feComposite in="flood" in2="fbSourceGraphic" operator="out" result="composite1"/>
<feGaussianBlur in="composite1" result="blur"/>
<feOffset dx="0" dy="1" result="offset"/>
<feComposite in="offset" in2="fbSourceGraphic" operator="atop" result="composite2"/>
</filter>
<filter id="filter1125" color-interpolation-filters="sRGB">
<feFlood flood-color="rgb(0,0,0)" flood-opacity=".2" result="flood"/>
<feComposite in="flood" in2="SourceGraphic" operator="in" result="composite1"/>
<feGaussianBlur in="composite1" result="blur"/>
<feOffset dx="0" dy="1" result="offset"/>
<feComposite in="SourceGraphic" in2="offset" result="fbSourceGraphic"/>
<feColorMatrix in="fbSourceGraphic" result="fbSourceGraphicAlpha" values="0 0 0 -1 0 0 0 0 -1 0 0 0 0 -1 0 0 0 0 1 0"/>
<feFlood flood-color="rgb(255,255,255)" flood-opacity=".10196" in="fbSourceGraphic" result="flood"/>
<feComposite in="flood" in2="fbSourceGraphic" operator="out" result="composite1"/>
<feGaussianBlur in="composite1" result="blur"/>
<feOffset dx="0" dy="1" result="offset"/>
<feComposite in="offset" in2="fbSourceGraphic" operator="atop" result="composite2"/>
</filter>
<filter id="filter1137" color-interpolation-filters="sRGB">
<feFlood flood-color="rgb(0,0,0)" flood-opacity=".2" result="flood"/>
<feComposite in="flood" in2="SourceGraphic" operator="in" result="composite1"/>
<feGaussianBlur in="composite1" result="blur"/>
<feOffset dx="0" dy="1" result="offset"/>
<feComposite in="SourceGraphic" in2="offset" result="fbSourceGraphic"/>
<feColorMatrix in="fbSourceGraphic" result="fbSourceGraphicAlpha" values="0 0 0 -1 0 0 0 0 -1 0 0 0 0 -1 0 0 0 0 1 0"/>
<feFlood flood-color="rgb(255,255,255)" flood-opacity=".10196" in="fbSourceGraphic" result="flood"/>
<feComposite in="flood" in2="fbSourceGraphic" operator="out" result="composite1"/>
<feGaussianBlur in="composite1" result="blur"/>
<feOffset dx="0" dy="1" result="offset"/>
<feComposite in="offset" in2="fbSourceGraphic" operator="atop" result="composite2"/>
</filter>
<filter id="filter1149" color-interpolation-filters="sRGB">
<feFlood flood-color="rgb(0,0,0)" flood-opacity=".2" result="flood"/>
<feComposite in="flood" in2="SourceGraphic" operator="in" result="composite1"/>
<feGaussianBlur in="composite1" result="blur"/>
<feOffset dx="0" dy="1" result="offset"/>
<feComposite in="SourceGraphic" in2="offset" result="fbSourceGraphic"/>
<feColorMatrix in="fbSourceGraphic" result="fbSourceGraphicAlpha" values="0 0 0 -1 0 0 0 0 -1 0 0 0 0 -1 0 0 0 0 1 0"/>
<feFlood flood-color="rgb(255,255,255)" flood-opacity=".10196" in="fbSourceGraphic" result="flood"/>
<feComposite in="flood" in2="fbSourceGraphic" operator="out" result="composite1"/>
<feGaussianBlur in="composite1" result="blur"/>
<feOffset dx="0" dy="1" result="offset"/>
<feComposite in="offset" in2="fbSourceGraphic" operator="atop" result="composite2"/>
</filter>
<filter id="filter1161" color-interpolation-filters="sRGB">
<feFlood flood-color="rgb(0,0,0)" flood-opacity=".2" result="flood"/>
<feComposite in="flood" in2="SourceGraphic" operator="in" result="composite1"/>
<feGaussianBlur in="composite1" result="blur"/>
<feOffset dx="0" dy="1" result="offset"/>
<feComposite in="SourceGraphic" in2="offset" result="fbSourceGraphic"/>
<feColorMatrix in="fbSourceGraphic" result="fbSourceGraphicAlpha" values="0 0 0 -1 0 0 0 0 -1 0 0 0 0 -1 0 0 0 0 1 0"/>
<feFlood flood-color="rgb(255,255,255)" flood-opacity=".10196" in="fbSourceGraphic" result="flood"/>
<feComposite in="flood" in2="fbSourceGraphic" operator="out" result="composite1"/>
<feGaussianBlur in="composite1" result="blur"/>
<feOffset dx="0" dy="1" result="offset"/>
<feComposite in="offset" in2="fbSourceGraphic" operator="atop" result="composite2"/>
</filter>
<filter id="filter1173" color-interpolation-filters="sRGB">
<feFlood flood-color="rgb(0,0,0)" flood-opacity=".2" result="flood"/>
<feComposite in="flood" in2="SourceGraphic" operator="in" result="composite1"/>
<feGaussianBlur in="composite1" result="blur"/>
<feOffset dx="0" dy="1" result="offset"/>
<feComposite in="SourceGraphic" in2="offset" result="fbSourceGraphic"/>
<feColorMatrix in="fbSourceGraphic" result="fbSourceGraphicAlpha" values="0 0 0 -1 0 0 0 0 -1 0 0 0 0 -1 0 0 0 0 1 0"/>
<feFlood flood-color="rgb(255,255,255)" flood-opacity=".10196" in="fbSourceGraphic" result="flood"/>
<feComposite in="flood" in2="fbSourceGraphic" operator="out" result="composite1"/>
<feGaussianBlur in="composite1" result="blur"/>
<feOffset dx="0" dy="1" result="offset"/>
<feComposite in="offset" in2="fbSourceGraphic" operator="atop" result="composite2"/>
</filter>
</defs>
<g stroke-width="2.5394">
<path d="m39.733 14.584s0.21606-1.6272 2.0166-1.5832h10.563c1.9685 0 2.6646 1.3414 2.5926 2.9026v7.2125c-0.02392 1.4513-1.0803 2.3528-2.4006 2.4628l-12.291 0.087961-0.57615-3.6941z" color="#000000" fill="#b6b6b6" filter="url(#filter1053)"/>
<path d="m52.395 15.542-10.564 4.2237-7.2577-0.42237 10.483-3.8013z" color="#000000" fill="#c6c6c6" filter="url(#filter1065)"/>
<path d="m52.395 15.623-10.806 2.9744v5.4913l10.806-3.5084z" color="#000000" fill="#919191" filter="url(#filter1077)"/>
<path d="m10.055 19.252 20.114-0.46023c2.4508 0 4.4235 1.9705 4.4235 4.4183v21.722c0 2.4476-1.9729 6.0681-4.4235 6.0681l-19.146-0.1841c-4.1097 0.1841-7.0041-4.1727-7.0041-8.6453v-15.763c-0.20394-3.196 1.2164-6.7667 6.0363-7.1565z" fill="#ddd" filter="url(#filter1089)"/>
<path d="m40.341 18.191-18.35-0.12857c-6.3695 0.03944-9.9148 4.4465-9.9148 8.3215 0 3.6447 2.8228 6.2427 4.7527 6.9019v9.0417c0 4.3805-0.73557 7.7995 7.1289 7.9667l19.461 0.1972c2.624 0.07778 6.4323-2.4144 6.4323-4.8117v-19.991c0-5.0047-3.1667-7.6303-9.5098-7.4983z" fill="#d7d7d7" filter="url(#filter1101)"/>
<ellipse cx="19.494" cy="25.948" rx="5.3221" ry="5.3961" color="#000000" filter="url(#filter1113)"/>
</g>
<g transform="matrix(1.2902 0 0 1.2886 2.2376 .59758)" filter="url(#filter1125)">
<g transform="translate(.17678 .17678)">
<circle transform="matrix(.44445 0 0 .44445 2.8333 18.056)" cx="3.75" cy="32.5" r="1.125" color="#000000"/>
<circle transform="matrix(.44445 0 0 .44445 4.8333 18.056)" cx="3.75" cy="32.5" r="1.125" color="#000000"/>
<circle transform="matrix(.44445 0 0 .44445 6.8333 18.056)" cx="3.75" cy="32.5" r="1.125" color="#000000"/>
<circle transform="matrix(.44445 0 0 .44445 8.8333 18.056)" cx="3.75" cy="32.5" r="1.125" color="#000000"/>
<circle transform="matrix(.44445 0 0 .44445 7.8333 19.056)" cx="3.75" cy="32.5" r="1.125" color="#000000"/>
<circle transform="matrix(.44445 0 0 .44445 5.8333 19.056)" cx="3.75" cy="32.5" r="1.125" color="#000000"/>
<circle transform="matrix(.44445 0 0 .44445 3.8333 19.056)" cx="3.75" cy="32.5" r="1.125" color="#000000"/>
<circle transform="matrix(.44445 0 0 .44445 2.8333 20.056)" cx="3.75" cy="32.5" r="1.125" color="#000000"/>
<circle transform="matrix(.44445 0 0 .44445 4.8333 20.056)" cx="3.75" cy="32.5" r="1.125" color="#000000"/>
<circle transform="matrix(.44445 0 0 .44445 6.8333 20.056)" cx="3.75" cy="32.5" r="1.125" color="#000000"/>
<circle transform="matrix(.44445 0 0 .44445 8.8333 20.056)" cx="3.75" cy="32.5" r="1.125" color="#000000"/>
<circle transform="matrix(.44445 0 0 .44445 7.8333 21.056)" cx="3.75" cy="32.5" r="1.125" color="#000000"/>
<circle transform="matrix(.44445 0 0 .44445 8.8333 22.056)" cx="3.75" cy="32.5" r="1.125" color="#000000"/>
<circle transform="matrix(.44445 0 0 .44445 6.8333 22.056)" cx="3.75" cy="32.5" r="1.125" color="#000000"/>
<circle transform="matrix(.44445 0 0 .44445 5.8333 21.056)" cx="3.75" cy="32.5" r="1.125" color="#000000"/>
<circle transform="matrix(.44445 0 0 .44445 4.8333 22.056)" cx="3.75" cy="32.5" r="1.125" color="#000000"/>
<circle transform="matrix(.44445 0 0 .44445 3.8333 21.056)" cx="3.75" cy="32.5" r="1.125" color="#000000"/>
</g>
<circle transform="matrix(.44445 0 0 .44445 2.8333 18.056)" cx="3.75" cy="32.5" r="1.125" color="#000000"/>
<circle transform="matrix(.44445 0 0 .44445 4.8333 18.056)" cx="3.75" cy="32.5" r="1.125" color="#000000"/>
<circle transform="matrix(.44445 0 0 .44445 6.8333 18.056)" cx="3.75" cy="32.5" r="1.125" color="#000000"/>
<circle transform="matrix(.44445 0 0 .44445 8.8333 18.056)" cx="3.75" cy="32.5" r="1.125" color="#000000"/>
<circle transform="matrix(.44445 0 0 .44445 7.8333 19.056)" cx="3.75" cy="32.5" r="1.125" color="#000000"/>
<circle transform="matrix(.44445 0 0 .44445 5.8333 19.056)" cx="3.75" cy="32.5" r="1.125" color="#000000"/>
<circle transform="matrix(.44445 0 0 .44445 3.8333 19.056)" cx="3.75" cy="32.5" r="1.125" color="#000000"/>
<circle transform="matrix(.44445 0 0 .44445 2.8333 20.056)" cx="3.75" cy="32.5" r="1.125" color="#000000"/>
<circle transform="matrix(.44445 0 0 .44445 4.8333 20.056)" cx="3.75" cy="32.5" r="1.125" color="#000000"/>
<circle transform="matrix(.44445 0 0 .44445 6.8333 20.056)" cx="3.75" cy="32.5" r="1.125" color="#000000"/>
<circle transform="matrix(.44445 0 0 .44445 8.8333 20.056)" cx="3.75" cy="32.5" r="1.125" color="#000000"/>
<circle transform="matrix(.44445 0 0 .44445 7.8333 21.056)" cx="3.75" cy="32.5" r="1.125" color="#000000"/>
<circle transform="matrix(.44445 0 0 .44445 8.8333 22.056)" cx="3.75" cy="32.5" r="1.125" color="#000000"/>
<circle transform="matrix(.44445 0 0 .44445 6.8333 22.056)" cx="3.75" cy="32.5" r="1.125" color="#000000"/>
<circle transform="matrix(.44445 0 0 .44445 5.8333 21.056)" cx="3.75" cy="32.5" r="1.125" color="#000000"/>
<circle transform="matrix(.44445 0 0 .44445 4.8333 22.056)" cx="3.75" cy="32.5" r="1.125" color="#000000"/>
<circle transform="matrix(.44445 0 0 .44445 3.8333 21.056)" cx="3.75" cy="32.5" r="1.125" color="#000000"/>
</g>
<rect x="17.72" y="36.68" width="5.1609" height="3.8659" rx=".64967" ry=".64889" color="#000000" filter="url(#filter1137)" stroke-width="2.5394"/>
<rect transform="matrix(1 0 -.061528 .99811 0 0)" x="30.151" y="33.45" width="6.4973" height="9.165" rx=".36863" ry=".36819" color="#000000" fill="#b6b6b6" filter="url(#filter1149)" stroke-width="2.5394"/>
<rect transform="matrix(1 0 -.063634 .99797 0 0)" x="34.097" y="28.256" width="27.8" height="20.308" rx="1.6589" ry="1.602" color="#000000" fill="#b6b6b6" filter="url(#filter1161)" stroke-width="2.5394"/>
<rect transform="matrix(1 0 -.061528 .99811 0 0)" x="37.357" y="30.458" width="20.712" height="15.562" rx=".35137" ry=".35095" fill="#174992" filter="url(#filter1173)" stroke-width="2.5394"/>
</svg>
