<svg width="64" height="64" version="1" xmlns="http://www.w3.org/2000/svg" xmlns:xlink="http://www.w3.org/1999/xlink">
<defs>
<filter id="filter929" color-interpolation-filters="sRGB">
<feFlood flood-color="rgb(0,0,0)" flood-opacity=".2" result="flood"/>
<feComposite in="flood" in2="SourceGraphic" operator="in" result="composite1"/>
<feGaussianBlur in="composite1" result="blur"/>
<feOffset dx="0" dy="1" result="offset"/>
<feComposite in="SourceGraphic" in2="offset" result="fbSourceGraphic"/>
<feColorMatrix in="fbSourceGraphic" result="fbSourceGraphicAlpha" values="0 0 0 -1 0 0 0 0 -1 0 0 0 0 -1 0 0 0 0 1 0"/>
<feFlood flood-color="rgb(255,255,255)" flood-opacity=".10196" in="fbSourceGraphic" result="flood"/>
<feComposite in="flood" in2="fbSourceGraphic" operator="out" result="composite1"/>
<feGaussianBlur in="composite1" result="blur"/>
<feOffset dx="0" dy="1" result="offset"/>
<feComposite in="offset" in2="fbSourceGraphic" operator="atop" result="composite2"/>
</filter>
</defs>
<path d="m60 55.855c0 1.3087-0.81102 2.1446-2.129 2.1446h-51.632c-1.3361 0-2.2226-0.63189-2.2226-1.8906v2c0 1.2587 0.88656 1.8906 2.2226 1.8906h51.632c1.3179 0 2.129-0.83585 2.129-2.1446z" fill-opacity=".2" fill-rule="evenodd" stroke-width="2.6102"/>
<path d="m4.0172 49.732 1.0232-0.80481 50.326 0.07266 4.6332 0.36892v7.4859c0 1.3087-0.81226 2.1432-2.1302 2.1432h-51.63c-1.3361 0-2.2238-0.63021-2.2238-1.8889z" fill="#bbb" fill-rule="evenodd" stroke-width="2.6102"/>
<path d="m12.056 30.91c-0.83564 0-1.3788 0.38808-1.7131 1.1284-1e-6 0-5.9748 14.85-5.9748 14.85s-0.33424 0.89813-0.33424 2.3822v7.5561c0 1.4479 0.87948 2.1732 2.2144 2.1732h51.558c1.3168 0 2.131-0.96049 2.131-2.4658v-7.5561s0.14166-1.0304-0.12534-1.7553l-6.309-14.975c-0.24672-0.68461-0.85156-1.3214-1.5042-1.3374z" fill="none" stroke-width="2.7996"/>
<path d="m33.452 27.876c-3.5094 0-6.297 1.4068-6.5178 3.1762h-0.08356l-1.7131 6.9377c-0.29248 1.4628 2.7794 4.054 8.3146 4.054 5.5774 0 8.7744-2.633 8.231-4.5972l-1.5877-6.3945h-0.08356c-0.21882-1.7705-3.0492-3.1762-6.5598-3.1762z" color="#000000" fill="none" stroke-width="2.7996"/>
<path d="m4.3856 47.666c-0.95502 2.0402-8.23e-4 3.3342 1.3848 3.3342h52.144c1.4962-0.0332 2.4672-1.41 1.91-2.986l-6.3032-15.62c-0.24672-0.71325-0.87544-1.3768-1.528-1.3934h-39.92c-0.83564 0-1.3848 0.42298-1.719 1.1943l-5.969 15.471z" fill="#e4e4e4" fill-rule="evenodd" stroke-width="2.8276"/>
<path d="m12.533 31.514c-0.80448 0-1.3274 0.37362-1.6492 1.0863-1e-6 0-5.903 14.164-5.903 14.164s-0.3218 0.86465-0.3218 2.2934v7.0749c0 1.8118 0.5937 2.1758 2.1318 2.1758h50.388c1.7691 0 2.0514-0.42316 2.0514-2.4574v-7.0749s0.13638-0.99193-0.12068-1.6899l-6.1412-14.452c-0.23752-0.65907-0.73624-1.105-1.3645-1.1203z" fill="none" stroke-width="2.7996"/>
<ellipse cx="33.392" cy="39.612" rx="15.395" ry="7.5151" color="#000000" fill="#fff" fill-opacity=".48023" fill-rule="evenodd" stroke-width="2.739"/>
<path d="m33.452 3.259c-4.8926 0-8.8578 3.9664-8.8578 8.8601 0 3.4874 2.0846 6.4099 5.0138 7.8571v11.41c0 1.0886 1.7192 1.9643 3.8438 1.9643 2.1248 0 3.8438-0.87571 3.8438-1.9643v-11.368c2.9554-1.438 5.0138-4.3926 5.0138-7.8989 0-4.8939-3.9654-8.8601-8.8578-8.8601z" color="#000000" fill="none" stroke-width="2.7996"/>
<path d="m40.098 32.008 1.5877 6.3945c0.54316 1.9643-2.6538 4.5972-8.231 4.5972-5.5354 0-8.6072-2.5912-8.3146-4.054l1.7131-6.9377z" color="#000000" fill="#aaa" fill-rule="evenodd" stroke-width="2.7996"/>
<ellipse id="path4345" cx="33.418" cy="31.994" rx="6.5698" ry="3.0072" color="#000000" fill="#e4e4e4" fill-rule="evenodd" stroke-width="2.627"/>
<path d="m47.542 29.33a4.1934 2.1486 0 0 0-4.195 2.1484 4.1934 2.1486 0 0 0 4.195 2.1484 4.1934 2.1486 0 0 0 4.1918-2.1484 4.1934 2.1486 0 0 0-4.1918-2.1484z" color="#000000" fill="none" stroke-width="1.7739" xlink:href="#path4345"/>
<path d="m33.408 9.7615c-2.5386 0-4.5926 0.89837-4.5926 2.0152 0 0.03686 0.0954 0.04938 0.09984 0.08575h-0.09984v19.036h0.09984c-0.0044 0.03636-0.09984 0.0489-0.09984 0.08574 0 1.1167 2.054 2.0152 4.5926 2.0152 2.5386 0 4.5926-0.89837 4.5926-2.0152 0-0.03686-0.0954-0.04938-0.09984-0.08574h0.09984v-19.036h-0.09984c0.0044-0.03637 0.09984-0.04889 0.09984-0.08575 0-1.1167-2.054-2.0152-4.5926-2.0152z" color="#000000" fill="#aaa" fill-rule="evenodd" stroke-width="2.9656"/>
<ellipse cx="33.5" cy="9.4976" rx="7.5" ry="7.5019" color="#000000" fill="#ff8a2b" fill-rule="evenodd" filter="url(#filter929)" stroke-width="3.0004"/>
<path d="m33.456 4.2328c-4.392 0-7.9466 3.5944-7.9466 7.9877 0 3.0932 2.2194 5.7011 4.798 7.0183v9.5247c-1.1595 0.52879-2.8786 1.3951-2.8988 2.249l-1.6669 6.8811c-0.27134 1.3571 2.5786 3.7612 7.714 3.7612 5.1742 0 8.1406-2.4428 7.6364-4.2652l-1.6281-6.4933c-0.02128-0.91449-1.6388-1.487-2.9436-2.0164v-9.6413c2.5786-1.317 4.9204-3.9252 4.9204-7.0183 0-4.3932-3.5934-7.9877-7.9854-7.9877z" color="#000000" fill="none" opacity=".52571" stroke-width="2.7996"/>
<path d="m8.293 46a5 3 0 0 0-0.29296 0.99999 5 3 0 0 0 5 3 5 3 0 0 0 5-3 5 3 0 0 0-0.29296-0.99999 5 3 0 0 1-4.707 2 5 3 0 0 1-4.707-2z" color="#000000" fill-opacity=".2" fill-rule="evenodd" stroke-width="3.1186"/>
<ellipse cx="13" cy="46" rx="5" ry="3" color="#000000" fill="#ff8a2b" fill-rule="evenodd" stroke-width="3.1186"/>
</svg>
