<svg width="64" height="64" version="1" xmlns="http://www.w3.org/2000/svg">
<defs>
<filter id="filter999" color-interpolation-filters="sRGB">
<feFlood flood-color="rgb(0,0,0)" flood-opacity=".2" result="flood"/>
<feComposite in="flood" in2="SourceGraphic" operator="in" result="composite1"/>
<feGaussianBlur in="composite1" result="blur"/>
<feOffset dx="0" dy="1" result="offset"/>
<feComposite in="SourceGraphic" in2="offset" result="fbSourceGraphic"/>
<feColorMatrix in="fbSourceGraphic" result="fbSourceGraphicAlpha" values="0 0 0 -1 0 0 0 0 -1 0 0 0 0 -1 0 0 0 0 1 0"/>
<feFlood flood-color="rgb(255,255,255)" flood-opacity=".10196" in="fbSourceGraphic" result="flood"/>
<feComposite in="flood" in2="fbSourceGraphic" operator="out" result="composite1"/>
<feGaussianBlur in="composite1" result="blur"/>
<feOffset dx="0" dy="1" result="offset"/>
<feComposite in="offset" in2="fbSourceGraphic" operator="atop" result="composite2"/>
</filter>
<filter id="filter1011" color-interpolation-filters="sRGB">
<feFlood flood-color="rgb(0,0,0)" flood-opacity=".2" result="flood"/>
<feComposite in="flood" in2="SourceGraphic" operator="in" result="composite1"/>
<feGaussianBlur in="composite1" result="blur"/>
<feOffset dx="0" dy="1" result="offset"/>
<feComposite in="SourceGraphic" in2="offset" result="fbSourceGraphic"/>
<feColorMatrix in="fbSourceGraphic" result="fbSourceGraphicAlpha" values="0 0 0 -1 0 0 0 0 -1 0 0 0 0 -1 0 0 0 0 1 0"/>
<feFlood flood-color="rgb(255,255,255)" flood-opacity=".10196" in="fbSourceGraphic" result="flood"/>
<feComposite in="flood" in2="fbSourceGraphic" operator="out" result="composite1"/>
<feGaussianBlur in="composite1" result="blur"/>
<feOffset dx="0" dy="1" result="offset"/>
<feComposite in="offset" in2="fbSourceGraphic" operator="atop" result="composite2"/>
</filter>
<filter id="filter1023" color-interpolation-filters="sRGB">
<feFlood flood-color="rgb(0,0,0)" flood-opacity=".2" result="flood"/>
<feComposite in="flood" in2="SourceGraphic" operator="in" result="composite1"/>
<feGaussianBlur in="composite1" result="blur"/>
<feOffset dx="0" dy="1" result="offset"/>
<feComposite in="SourceGraphic" in2="offset" result="fbSourceGraphic"/>
<feColorMatrix in="fbSourceGraphic" result="fbSourceGraphicAlpha" values="0 0 0 -1 0 0 0 0 -1 0 0 0 0 -1 0 0 0 0 1 0"/>
<feFlood flood-color="rgb(255,255,255)" flood-opacity=".10196" in="fbSourceGraphic" result="flood"/>
<feComposite in="flood" in2="fbSourceGraphic" operator="out" result="composite1"/>
<feGaussianBlur in="composite1" result="blur"/>
<feOffset dx="0" dy="1" result="offset"/>
<feComposite in="offset" in2="fbSourceGraphic" operator="atop" result="composite2"/>
</filter>
</defs>
<rect x="35" y="6" width="22" height="22" rx="2.6956" ry="2.6956" color="#000000" display="block" fill="#babdb6" filter="url(#filter1023)" stroke-width="2"/>
<rect x="32.822" y="5.9738" width="19.106" height="20.142" rx="1.6505" ry="1.6505" color="#000000" display="block" fill="none" opacity=".48889" stroke-width="3.392"/>
<rect x="7" y="6" width="22" height="22" rx="2.6956" ry="2.6958" color="#000000" display="block" fill="#babdb6" filter="url(#filter1011)" stroke-width="3.671"/>
<rect transform="scale(-1,1)" x="-27" y="8" width="18" height="18" rx="2.2056" ry="2.2056" color="#000000" display="block" fill="#f2f4f1" stroke-width="4.5"/>
<rect x="8.0242" y="6.6454" width="18.347" height="18.416" rx="1.585" ry="1.5091" color="#000000" display="block" fill="none" opacity=".48889" stroke-width="3.392"/>
<path d="m25 12-3.6792 6.2032c-0.35806 0.59888-0.8016 1.0471-1.3307 1.3448-0.52904 0.30122-1.141 0.45184-1.8357 0.45184-0.2565-2e-6 -0.52638-0.02124-0.80962-0.06378v-0.97808c0.3153 0.06378 0.6012 0.09568 0.8577 0.09568 0.30992-1e-6 0.59318-0.06202 0.8497-0.18605 0.26184-0.12048 0.47294-0.30478 0.63326-0.55282l0.56914-0.87176-3.2544-5.4432h1.7234l2.1242 4.0824c0.03755 0.0638 0.0855 0.20554 0.14427 0.42522h0.04819c0.08014-0.22326 0.13626-0.36502 0.16832-0.42522l2.1804-4.0824h1.6112" stroke-width="4.793"/>
<rect transform="scale(-1,1)" x="-55" y="8" width="18" height="18" rx="2.2056" ry="2.2056" color="#000000" display="block" fill="#f2f4f1" stroke-width="4.5"/>
<path d="m53 12-2.9656 4.0312 2.9482 3.9688h-1.9396l-2.0344-3.117-2.1034 3.117h-1.9051l3.0432-3.9376-2.8622-4.0624h1.9396l1.9569 3.2656 2.1034-3.2656h1.8189" stroke-width="5.377"/>
<rect x="9" y="36" width="36" height="22" rx="2.786" ry="2.6812" color="#000000" display="block" fill="#babdb6" filter="url(#filter999)" stroke-width="2"/>
<rect x="11" y="38" width="32" height="18" rx="1.5479" ry="1.8115" color="#000000" display="block" fill="#f2f4f1" stroke-width="4"/>
<path d="m22.078 51.528c-0.71712 0.31498-1.607 0.4724-2.6696 0.4724-1.3337 0-2.4028-0.34092-3.2074-1.0227-0.8002-0.6818-1.2003-1.5782-1.2003-2.6892-2e-6 -1.1802 0.45912-2.139 1.3774-2.876 0.92264-0.74064 2.0662-1.111 3.4304-1.111 0.92264 1.8e-5 1.6791 0.1056 2.2694 0.31668v1.0954c-0.69528-0.32532-1.4561-0.488-2.2826-0.488-1.0232 2e-6 -1.8562 0.27348-2.499 0.82024-0.6428 0.54338-0.9642 1.2736-0.9642 2.1908-5e-6 0.86872 0.29734 1.5609 0.89204 2.0766 0.59468 0.51224 1.384 0.76832 2.3678 0.76832 0.95324 0 1.7819-0.17994 2.486-0.53992v0.98638m5.0308 0.26994c-0.27546 0.11072-0.62968 0.16612-1.0626 0.16612-0.62532 0-1.0932-0.1333-1.4036-0.39978-0.31048-0.26988-0.46572-0.67486-0.46568-1.2148v-2.9954h-1.1282v-0.79948h1.1282v-1.2667l1.2659-0.31668v1.5834h1.666v0.79948h-1.666v2.8034c-2e-6 0.34606 0.07436 0.59358 0.223 0.7424 0.14868 0.14542 0.40884 0.21804 0.78052 0.21804 0.24052 0 0.46132-0.057 0.66248-0.1714v0.8514m5.2132-4.2208c-0.22746-0.1212-0.51818-0.18172-0.87238-0.18172-0.4198 0-1.1518 0.15224-1.4404 0.45684-0.2886 0.30458-0.43292 0.70778-0.43292 1.2096v2.8086h-1.2594v-5.316h1.2594v1.0539c0.1618-0.37374 0.39792-0.65754 0.7084-0.8514 0.31046-0.19732 1.0272-0.29588 1.3945-0.29588 0.27552 2e-6 0.48978 0.02398 0.6428 0.07266v1.0435m2.6788 4.2932h-1.2725v-7.8704h1.2725v7.8704" stroke-width="4"/>
<path d="m17 13 2.9414 4.9219 0.3125-0.47852-2.6562-4.4434zm7.4062 0-3.0859 5.2031c-0.35806 0.59888-0.801 1.048-1.3301 1.3457-0.34562 0.19679-0.73014 0.3224-1.1465 0.39062-0.20076 0.06844-0.41041 0.11523-0.64062 0.11524-0.2565 0-0.54212-0.03192-0.85742-0.0957v0.97656c0.28324 0.04254 0.55209 0.06445 0.80859 0.06445 0.69472 0 1.3069-0.14995 1.8359-0.45117 0.52908-0.29768 0.97202-0.74682 1.3301-1.3457l3.6797-6.2031z" fill="#babdb6" stroke-width="4.793"/>
<path d="m45.182 13 2.4922 3.5391 0.36914-0.47656-2.1562-3.0625zm7.082 0-2.2285 3.0312 0.36914 0.49805 2.5957-3.5293zm-3.2559 3.8828-2.1035 3.1172h-1.1309l-0.77344 1h1.9043l2.1035-3.1172 2.0352 3.1172h1.9395l-0.74219-1h-1.1973z" fill="#babdb6" stroke-width="5.377"/>
<path d="m19.809 45.301c-0.57542 0-1.1027 0.08307-1.5996 0.21484-0.33476 0.133-0.6437 0.30097-0.91211 0.5293-0.6428 0.54338-0.96484 1.2742-0.96484 2.1914-1e-6 0.17678 0.02225 0.34174 0.04687 0.50391 0.09899-0.6852 0.3974-1.2553 0.91797-1.6953 0.64276-0.54676 1.4748-0.82031 2.498-0.82031 0.82648 0 1.5879 0.16296 2.2832 0.48828v-1c-0.2832-0.13251-0.5798-0.23005-0.88476-0.30859-0.41158-0.065833-0.86956-0.10351-1.3848-0.10352zm11.871 2.1602c-0.36728 0-1.0841 0.09956-1.3945 0.29687-0.26532 0.16567-0.46435 0.41-0.62109 0.70703-0.0549 0.18135-0.08789 0.37683-0.08789 0.5957v1.002c0-0.50182 0.14499-0.90636 0.43359-1.2109 0.2886-0.3046 1.0197-0.45703 1.4395-0.45703 0.3542 0 0.64559 0.06044 0.87305 0.18164v-1c-0.05251-0.02798-0.12043-0.04098-0.17969-0.0625-0.13492-0.02517-0.26438-0.05273-0.46289-0.05273zm-8.6309 0.09375v0.79883h1.1289v-0.79883zm2.3945 0v0.79883h1.666v-0.79883zm-10.395 1.248c-0.019061 0.16085-0.048828 0.31629-0.048828 0.48633 0 1.111 0.40097 2.0077 1.2012 2.6895 0.8046 0.6818 1.8733 1.0215 3.207 1.0215 1.0626 0 1.9528-0.15768 2.6699-0.47266v-0.98633c-0.7041 0.35998-1.5331 0.54102-2.4863 0.54102-0.41101 0-0.77995-0.05709-1.123-0.14648-0.90596-0.12679-1.6617-0.44554-2.2676-0.95898-0.67045-0.57125-1.0436-1.3013-1.1523-2.1738zm9.1289 1.5469v1c-4e-5 0.53994 0.15436 0.94496 0.46484 1.2148 0.31044 0.26648 0.77898 0.40039 1.4043 0.40039 0.4329 0 0.78704-0.0553 1.0625-0.16602v-0.85156c-0.20116 0.1144-0.42354 0.16992-0.66406 0.16992-0.31831 0-0.53666-0.06328-0.69141-0.16992-0.47737-0.03702-0.85263-0.16075-1.1113-0.38281-0.31048-0.26988-0.46488-0.6749-0.46484-1.2148zm4.1387 1.5195v1.002h1.2598v-1.002zm5.4121 0v1.002h1.2715v-1.002z" fill-opacity=".2" stroke-width="4"/>
</svg>
