<svg width="64" height="64" version="1" xmlns="http://www.w3.org/2000/svg">
<rect transform="matrix(0,-1,-1,0,0,0)" x="-61" y="-60" width="18" height="56" rx="2.5" ry="2.5" opacity=".2" stroke-width="2"/>
<rect transform="matrix(0,-1,-1,0,0,0)" x="-60" y="-60" width="18" height="56" rx="2.5" ry="2.5" fill="#dcdcda" stroke-width="2"/>
<g transform="matrix(2,0,0,2,0,2)" fill="none" stroke="#9f9f9f" stroke-linecap="round" stroke-width="1.9992">
<path d="m12 23-2 3"/>
<path d="m9 23-2 3"/>
<path d="m6 23-2 3"/>
<path d="m15 23-2 3"/>
</g>
<g stroke-width="2">
<circle cx="39" cy="48" r="3" opacity=".2"/>
<circle cx="47" cy="48" r="3" opacity=".2"/>
<circle cx="55" cy="48" r="3" opacity=".2"/>
<circle cx="39" cy="47" r="3" fill="#76ff03"/>
<circle cx="47" cy="47" r="3" fill="#ff0"/>
<circle cx="55" cy="47" r="3" fill="#ffcd40"/>
</g>
<path d="m5.9994 39v1.2969c0 1.4973 1.0331 2.7032 2.316 2.7032h47.368c1.2829 0 2.316-1.2058 2.316-2.7032v-1.2969z" fill-opacity=".2" stroke-width="3.6692"/>
<path d="m5.9994 38v1.2969c0 1.4973 1.0331 2.7032 2.316 2.7032h47.368c1.2829 0 2.316-1.2058 2.316-2.7032v-1.2969z" fill="#8e8d87" stroke-width="3.6692"/>
<path d="m8.9572 14h46.082c0.52586 0 1.1978 0.35262 1.6122 0.88584 0.41436 0.53324 2.3716 3.194 2.8112 3.7616 0.43968 0.56782 0.53664 1.106 0.53664 1.8062v15.528c0 1.1179-0.9997 2.0178-2.2416 2.0178h-51.516c-1.2418 0-2.2416-0.89998-2.2416-2.0178v-14.778c0-0.60452 0.13815-2.2214 0.60966-2.773 0.595-0.69628 2.1912-3.118 2.6122-3.6316 0.421-0.5135 1.1941-0.7992 1.7383-0.7992z" color="#000000" fill="#dcdcda" stroke-width="3.4156"/>
<path d="m12.065 14.538c-0.6065 0-1.3509 0.1118-1.6528 0.70212l-2.2926 2.9552c-0.34038 0.66546 0.040922 1.8047 1.1256 1.8047h45.414c1.5803 0 1.4715-1.4429 1.1256-2.0572l-1.769-2.2608c-0.3867-0.68684-0.8907-1.144-1.8565-1.144z" fill="#fbfbfb" fill-rule="evenodd" stroke-width="3.618"/>
<path d="m9.6046 14.298h44.836c0.4994 0 1.1376 0.37702 1.5311 0.9472 0.39354 0.5702 1.7703 2.8044 2.1878 3.4116 0.41754 0.60704 0.59486 1.1827 0.59486 1.9314v15.588c0 1.1954-0.18264 1.7259-1.362 1.7259h-50.618c-1.1794 0-1.4472-0.53054-1.4472-1.7259v-15.588c0-0.6464 0.30158-1.5733 0.74942-2.1634 0.56504-0.74452 1.4785-2.7232 1.8783-3.2724 0.3998-0.54908 1.134-0.85456 1.6508-0.85456z" color="#000000" fill="none" stroke-width="3.5"/>
<rect x="7.9994" y="24" width="48" height="6" rx="2.3666" ry="2.4746" fill="#f7f6f5" stroke-width="3.5356"/>
<path d="m58.612 19.898h-53.236" fill="none" stroke-width="3.5"/>
<path d="m17.452 4h29.098c0.80332 0 1.4501 0.3084 1.4501 0.69148v11.308h-31.998v-11.308c-0.0471-0.48992 1.1189-0.55548 1.4502-0.69148z" color="#000000" display="block" fill="#e0e0e0" stroke-width="2.236"/>
<path d="m10.269 26a2 1.9996 0 0 0-0.26954 1 2 1.9996 0 0 0 2 2 2 1.9996 0 0 0 2-2 2 1.9996 0 0 0-0.26954-0.9961 2 1.9996 0 0 1-1.7305 0.9961 2 1.9996 0 0 1-1.7305-1z" fill-opacity=".2" stroke-width="3.9992"/>
<ellipse cx="11.999" cy="26" rx="2" ry="1.9996" fill="#9f9f9f" stroke-width="3.9992"/>
</svg>
