<svg width="24" height="24" version="1" xmlns="http://www.w3.org/2000/svg">
<path d="m5 2.5c-0.554 0-1 0.446-1 1v18c0 0.554 0.446 1 1 1h14c0.554 0 1-0.446 1-1v-13l-5.5-0.5-0.5-5.5z" opacity=".2"/>
<path d="m5 2c-0.554 0-1 0.446-1 1v18c0 0.554 0.446 1 1 1h14c0.554 0 1-0.446 1-1v-13l-5.5-0.5-0.5-5.5z" fill="#fe9700"/>
<path d="m5 2c-0.554 0-1 0.446-1 1v0.5c0-0.554 0.446-1 1-1h9l5.5 5.5h0.5l-6-6z" fill="#fff" opacity=".2"/>
<path d="m14 2.5v5c0 0.5523 0.44772 1 1 1h5z" opacity=".2"/>
<path d="m14 2v5c0 0.5523 0.44772 1 1 1h5l-6-6z" fill="#ffbd63"/>
<path d="m16.776 9.8815-6.2449 0.8764v5.9288c-0.47101-0.15416-1.1567-0.19445-1.8737-0.05184-1.2466 0.24797-2.2492 0.91217-2.1124 1.4772 0.13675 0.56512 1.3715 0.82677 2.6181 0.57879 1.178-0.23432 2.2943-0.83976 2.2709-1.3823l0.0039-5.2611 4.4301-0.80041v4.7784c-2.9331-0.41467-3.5577 0.79987-3.4208 1.3649 0.13675 0.56512 1.0437 0.82677 2.2904 0.57879 1.1062-0.22001 1.9524-0.76385 2.0308-1.2786z" color="#000000" display="block" fill="#fff" stroke="#fff" stroke-linecap="round" stroke-linejoin="round" stroke-width=".42983"/>
</svg>
