<svg width="22" height="22" version="1" xmlns="http://www.w3.org/2000/svg" xmlns:xlink="http://www.w3.org/1999/xlink">
<defs>
<linearGradient id="linearGradient6343" x1="48.906" x2="50.988" y1="17.376" y2="22.251" gradientTransform="matrix(.0023566 .45514 .44805 -.0023939 2.2411 -4.1646)" gradientUnits="userSpaceOnUse">
<stop stop-color="#ffd1d1" offset="0"/>
<stop stop-color="#ff1d1d" offset=".5"/>
<stop stop-color="#6f0000" offset="1"/>
</linearGradient>
<linearGradient id="linearGradient6345" x1="46" x2="47.688" y1="19.812" y2="22.625" gradientTransform="matrix(.0023566 .45514 .44805 -.0023939 2.2411 -4.1646)" gradientUnits="userSpaceOnUse">
<stop stop-color="#c1c1c1" offset="0"/>
<stop stop-color="#acacac" offset="1"/>
</linearGradient>
<filter id="filter1012" color-interpolation-filters="sRGB">
<feFlood flood-color="rgb(0,0,0)" flood-opacity=".2" result="flood"/>
<feComposite in="flood" in2="SourceGraphic" operator="in" result="composite1"/>
<feGaussianBlur in="composite1" result="blur"/>
<feOffset dx="0" dy="0.5" result="offset"/>
<feComposite in="SourceGraphic" in2="offset" result="composite2"/>
</filter>
<filter id="filter1042" color-interpolation-filters="sRGB">
<feFlood flood-color="rgb(255,255,255)" flood-opacity=".2" result="flood"/>
<feComposite in="flood" in2="SourceGraphic" operator="out" result="composite1"/>
<feGaussianBlur in="composite1" result="blur"/>
<feOffset dx="0" dy="0.5" result="offset"/>
<feComposite in="offset" in2="SourceGraphic" operator="atop" result="composite2"/>
</filter>
</defs>
<g filter="url(#filter1042)">
<g fill-rule="evenodd">
<ellipse cx="12.128" cy="19.301" rx="3.8365" ry="1.337" color="#000000" fill="#fff" opacity=".6978" stroke-width="1.2402"/>
<ellipse cx="11.5" cy="9.5455" rx="5.5" ry="2.5455" color="#000000" fill="#d3d7cf" fill-opacity=".99608" stroke-width="1.2187"/>
<path d="m11.306 15.814s0.04539 0.65404 0.60679 0.90705c0.57834 0.26066 1.1901-0.0064 1.1901-0.0064l-1.0943 2.2958s-0.39147 0.66295-1.2726 0.30549c-0.86908-0.35256-0.5244-1.2204-0.5244-1.2204z" color="#000000" fill="url(#linearGradient6343)" stroke-width=".45158"/>
<path d="m11.306 15.814s0.04539 0.65404 0.60679 0.90705c0.57834 0.26066 1.1901-0.0064 1.1901-0.0064l-0.44334 0.91264s-0.58896 0.37956-1.2036 0.10599c-0.63153-0.28108-0.59331-1.0067-0.59331-1.0067z" color="#000000" fill="url(#linearGradient6345)" stroke-width=".45158"/>
<g transform="matrix(1.2305 0 0 1.25 .41555 .99999)">
<path d="m14.29 1.0432e-5 -2.0373 2.0589-5.5596 11.522c-0.44891 1.1857 1.2388 1.8823 1.825 0.83243l5.4234-11.499z" color="#000000" fill="#cb9022" stroke-width=".36411"/>
<path d="m14.285 0.0040299-2.0327 2.0548c0.37253 0.67942 0.98457 1.0311 1.6931 0.84281z" color="#000000" fill="#e7e2b8" stroke-width=".45417"/>
<path d="m13.64 0.67812 0.64498-0.67522-0.12213 0.96955c-0.29197 0.09199-0.43272-0.075199-0.52284-0.29433z" color="#000000" stroke-width=".41012"/>
</g>
</g>
<path d="m16.957 10.551-0.9471 8.3439c-0.37774 2.1755-7.5032 2.1993-7.9324 0l-0.9867-8.3158c0.94439 2.3805 9.4148 2.0279 9.8662-0.02813z" color="#000000" fill="none" opacity=".53846" stroke-width="1.2402"/>
<g transform="translate(-20)" fill-rule="evenodd" stroke-width="1.2402">
<path d="m31.709 13.813c0.39536-0.27645 1.5148 0.72126 2.5234 2.2098 1.0086 1.4885 1.2182 3.1224 1.1311 3.1833-0.09708 0.06789-1.5148-0.72126-2.5233-2.2098-1.0086-1.4885-1.5265-2.9069-1.1311-3.1833z" color="#000000" fill="#e7e7e7"/>
<g>
<path d="m29.214 12.695c1.318 1.891 2.6134 3.5286 3.6823 4.7055l1.7328-1.2117c-0.78916-1.6159-2.0182-3.707-3.5085-5.9063-2.6901-3.9698-5.3575-6.9941-6.4127-7.3529-0.03238-0.010425-0.0758-0.024146-0.10502-0.029349-0.02054-0.00317-0.05096-0.0021-0.06984-0.00256-0.02966 1.394e-4 -0.06768 0.00636-0.09294 0.013597-0.0062 0.00204-0.02509 0.00205-0.03098 0.00454-0.0057 0.00271-0.01764 0.01299-0.0231 0.016155-0.0027 0.0017-9e-3 0.00626-0.01155 0.00807-0.0026 0.00181-9e-3 0.00616-0.01156 0.00808-0.0049 0.00406-0.01856 0.011662-0.02311 0.016155-0.0044 0.0047-0.01115 0.022645-0.01523 0.027779-0.01568 0.021385-0.03497 0.055245-0.04569 0.083335-0.0063 0.018072-0.01817 0.046558-0.02258 0.06718-0.0056 0.029575-0.0085 0.075676-0.01051 0.11012-0.04679 1.1293 1.7818 4.7401 4.4719 8.71 0.16738 0.24701 0.32942 0.49299 0.49619 0.73225z" color="#000000" fill="#729fcf"/>
<path d="m27.169 9.8766c0.33472 0.47679 0.68146 0.9349 1.0108 1.366l2.426-1.6963c-0.39663-0.66336-0.8371-1.361-1.3126-2.0628-2.2697-3.3495-4.6117-5.837-5.6199-6.0573-0.0089-0.00178-0.03021-0.00567-0.03886-0.00709-0.0085-0.00124-0.03053-0.00622-0.03886-0.00709-0.02054-0.00173-0.05066-0.00313-0.06984-0.00256-0.0076 4.124e-4 -0.02365 0.00375-0.03098 0.00453-0.02167 0.00291-0.0539 0.010836-0.07351 0.017143-0.0064 0.00229-0.02479 0.00186-0.03098 0.00453-0.0091 0.0043-0.02608 0.019068-0.03466 0.024233-0.0028 0.00182-0.0088 0.00616-0.01156 0.00808-0.0027 0.00192-0.0089 0.00607-0.01155 0.00808-0.0078 0.00629-0.02745 0.017124-0.03466 0.024234-0.0047 0.00492-0.01083 0.022501-0.01523 0.027779-0.0128 0.016363-0.03159 0.044113-0.04201 0.063634-0.0033 0.00668-0.01215 0.020754-0.01523 0.027779-0.0074 0.01799-0.01684 0.047071-0.02258 0.06718-0.0022 0.00821-0.0054 0.030857-0.0074 0.039401-0.0018 0.00871-0.0058 0.030363-0.0073 0.039401-0.15735 1.0352 1.2938 4.1455 3.5635 7.4951 0.14123 0.20841 0.27604 0.41461 0.41742 0.61601z" color="#000000" fill="#5b90c8"/>
<path d="m23.789 4.0346 1.7097-1.1955c-0.90724-1.0308-1.7261-1.6674-2.1681-1.6418-0.0028 2.203e-4 -0.01357 7.055e-4 -0.01636 9.831e-4 -0.0028 3.307e-4 -0.01364 5.962e-4 -0.01636 9.831e-4 -0.0027 4.413e-4 -0.0137 4.87e-4 -0.01636 9.831e-4 -0.01577 0.00331-0.04123 0.012783-0.05582 0.018121-0.0024 9.466e-4 -0.0092 0.00707-0.01156 0.00808-0.0023 0.00106-0.01406-1.342e-4 -0.01636 9.831e-4 -0.0023 0.00117-0.0093 0.00685-0.01156 0.00808-0.0022 0.00129-0.0094 0.00673-0.01155 0.00808-0.0021 0.00141-0.0095 0.00662-0.01155 0.00808-0.0021 0.00146-0.0095 0.00656-0.01156 0.00808-2e-3 0.00157-0.0096 0.00645-0.01156 0.00808-0.0019 0.00168-0.0097 0.00635-0.01155 0.00808-0.0018 0.00178-0.0049 0.013338-0.0067 0.015173-0.0018 0.00189-0.0098 0.00614-0.01156 0.00808-0.01011 0.011944-0.02791 0.032715-0.03659 0.0465-0.0014 0.00235-0.0054 0.012774-0.0067 0.015173-0.0013 0.00245-0.0055 0.012675-0.0067 0.015173-0.0013 0.00255-0.0055 0.012575-0.0067 0.015173-0.18138 0.41023 0.11169 1.4145 0.73564 2.6434z" color="#000000" fill="#729fcf"/>
</g>
</g>
<path d="m7.9186 10.054c0.084604 0.12166 0.16942 0.23502 0.25347 0.35416l1.6801-1.1761c-0.22991-0.35425-0.5541-0.93209-0.79585-1.3004-2.7832-4.2404-5.511-6.3591-5.6247-6.28-0.1251 0.08703 0.9698 3.4031 3.8072 7.4088 0.16659 0.23519 0.51955 0.76299 0.67985 0.9935z" color="#000000" fill="none" opacity=".35714" stroke-width="1.2402"/>
<path d="m17 9.5455-1.2605 9.6797c-0.40192 2.3535-7.9834 2.3792-8.4402 0l-1.2993-9.417c1.2222 2.9814 9.7778 3.0281 11-0.0034619z" color="#000000" fill="#d3d7cf" fill-opacity=".99608" fill-rule="evenodd" filter="url(#filter1012)" stroke-width="1.2238"/>
</g>
</svg>
