<svg width="22" height="22" version="1" xmlns="http://www.w3.org/2000/svg">
<defs>
<filter id="filter890" color-interpolation-filters="sRGB">
<feFlood flood-color="rgb(0,0,0)" flood-opacity=".2" result="flood"/>
<feComposite in="flood" in2="SourceGraphic" operator="in" result="composite1"/>
<feGaussianBlur in="composite1" result="blur"/>
<feOffset dx="0" dy="0.5" result="offset"/>
<feComposite in="SourceGraphic" in2="offset" result="fbSourceGraphic"/>
<feColorMatrix in="fbSourceGraphic" result="fbSourceGraphicAlpha" values="0 0 0 -1 0 0 0 0 -1 0 0 0 0 -1 0 0 0 0 1 0"/>
<feFlood flood-color="rgb(255,255,255)" flood-opacity=".10196" in="fbSourceGraphic" result="flood"/>
<feComposite in="flood" in2="fbSourceGraphic" operator="out" result="composite1"/>
<feGaussianBlur in="composite1" result="blur"/>
<feOffset dx="0" dy="0.5" result="offset"/>
<feComposite in="offset" in2="fbSourceGraphic" operator="atop" result="composite2"/>
</filter>
</defs>
<g fill-rule="evenodd">
<rect x="1" y="2" width="20" height="19" rx="2.0403" ry="2.0804" fill="#c3c6c0" filter="url(#filter890)" stroke-width="1.2583"/>
<rect x="3" y="4" width="16" height="14" rx=".72932" ry=".81941" fill="#5187d6" stroke-width="1.3663"/>
<path d="m5.4218 9.75h-1.9218v1.279l3.125-0.05795 0.62999-2.471 1.4945 7.5 1.5981-5.3156 1.1258 2.5108 1.9044-2.1661 5.1222-0.05795v-1.221h-5.4869l-1.3608 1.25-1.5194-3.7782-1.1773 3.7782-1.5721-6.25z" fill="#ecffd9" stroke-width="1.25"/>
</g>
<g fill="#e0e2df" stroke-width=".99691">
<path d="m12 19.19-0.25861-0.12931c-0.07084-0.0385-0.15512-0.06034-0.24137-0.06034-0.27599 0-0.49998 0.224-0.49998 0.5 0 0.276 0.22399 0.5 0.49998 0.5 0.26737 0 0.48658-0.21007 0.49998-0.47413 1.08e-4 -0.0022-8.2e-5 -0.0065 0-0.0086z" color="#000000"/>
<path d="m14 19.19-0.25861-0.12931c-0.07084-0.0385-0.15512-0.06034-0.24137-0.06034-0.27599 0-0.49998 0.224-0.49998 0.5 0 0.276 0.22399 0.5 0.49998 0.5 0.26737 0 0.48658-0.21007 0.49998-0.47413 1.08e-4 -0.0022-8.2e-5 -0.0065 0-0.0086z" color="#000000"/>
<path d="m16 19.19-0.25861-0.12931c-0.07084-0.0385-0.15512-0.06034-0.24137-0.06034-0.27599 0-0.49998 0.224-0.49998 0.5 0 0.276 0.22399 0.5 0.49998 0.5 0.26737 0 0.48658-0.21007 0.49998-0.47413 1.08e-4 -0.0022-8.2e-5 -0.0065 0-0.0086z" color="#000000"/>
</g>
</svg>
