<svg width="22" height="22" version="1.1" xmlns="http://www.w3.org/2000/svg">
<defs>
<filter id="filter1199" color-interpolation-filters="sRGB">
<feFlood flood-color="rgb(0,0,0)" flood-opacity=".2" result="flood"/>
<feComposite in="flood" in2="SourceGraphic" operator="in" result="composite1"/>
<feGaussianBlur in="composite1" result="blur"/>
<feOffset dx="0" dy="0.5" result="offset"/>
<feComposite in="SourceGraphic" in2="offset" result="fbSourceGraphic"/>
<feColorMatrix in="fbSourceGraphic" result="fbSourceGraphicAlpha" values="0 0 0 -1 0 0 0 0 -1 0 0 0 0 -1 0 0 0 0 1 0"/>
<feFlood flood-color="rgb(255,255,255)" flood-opacity=".10196" in="fbSourceGraphic" result="flood"/>
<feComposite in="flood" in2="fbSourceGraphic" operator="out" result="composite1"/>
<feGaussianBlur in="composite1" result="blur"/>
<feOffset dx="0" dy="0.5" result="offset"/>
<feComposite in="offset" in2="fbSourceGraphic" operator="atop" result="composite2"/>
</filter>
<filter id="filter1501" color-interpolation-filters="sRGB">
<feFlood flood-color="rgb(255,255,255)" flood-opacity=".10196" result="flood"/>
<feComposite in="flood" in2="SourceGraphic" operator="out" result="composite1"/>
<feGaussianBlur in="composite1" result="blur"/>
<feOffset dx="0" dy="0.5" result="offset"/>
<feComposite in="offset" in2="SourceGraphic" operator="atop" result="fbSourceGraphic"/>
<feColorMatrix in="fbSourceGraphic" result="fbSourceGraphicAlpha" values="0 0 0 -1 0 0 0 0 -1 0 0 0 0 -1 0 0 0 0 1 0"/>
<feFlood flood-color="rgb(0,0,0)" flood-opacity=".2" in="fbSourceGraphic" result="flood"/>
<feComposite in="flood" in2="fbSourceGraphic" operator="in" result="composite1"/>
<feGaussianBlur in="composite1" result="blur"/>
<feOffset dx="0" dy="0.5" result="offset"/>
<feComposite in="fbSourceGraphic" in2="offset" result="composite2"/>
</filter>
</defs>
<path d="m19.576 3.333-12 17h12zm-2.0014 6.3008v8.701l-6.1314-0.0018z" fill="#e8cf33" filter="url(#filter1199)" stroke-width="1.0909"/>
<path d="m19.576 19.361v-16.028l-10.986 16z" fill="none" opacity=".63874" stroke-width="1.125"/>
<g filter="url(#filter1501)">
<g>
<path d="m12.797 2c0.0758 0.024436 0.14922 0.051603 0.22315 0.077586 0.23296 0.78371 1.313 1.5762 0.90229 2.3567-1.3682 2.276-2.7266 4.5822-4.0846 6.8761-0.26669 0.0524-0.53573 0.08095-0.80528 0.08728-0.56732 0.01433-1.1497-0.06938-1.6882-0.26185 1.8063-3.0504 3.6134-6.1074 5.4526-9.1358z" fill="#dde1d9" opacity=".75" stroke-width="1.1521"/>
<polygon transform="matrix(-1.302 0 0 1.293 395.83 -4.5895)" points="298.25 11.96 296.96 12.3 297.6 13.385 298.87 14.719 299.27 13.673" fill="#df2a2a"/>
<path d="m5.2106 2c-0.074431 0.024436-0.14654 0.051603-0.21913 0.077586-0.22876 0.78371-1.2893 1.5762-0.88604 2.3567 1.3436 2.276 2.6775 4.5822 4.011 6.8761 0.26189 0.0524 0.52608 0.08095 0.79077 0.08728 0.55711 0.01433 1.129-0.06938 1.6577-0.26185-1.7738-3.0504-3.5483-6.1074-5.3544-9.1358z" fill="#dde1d9" stroke-width="1.1521"/>
</g>
<ellipse cx="9.0074" cy="9.9864" rx=".34431" ry=".35048" color="#000000" fill="#b9b9b9" stroke-width="1.1521"/>
<g fill="#df2a2a">
<path d="m6.7313 12.224c1.1621 0.61594 1.2558 2.3591 0.20763 3.8934-1.0482 1.5354-2.8396 2.2813-4.0022 1.6681-1.1627-0.61594-1.2558-2.3581-0.20761-3.8925 1.0477-1.5345 2.8396-2.2804 4.0022-1.669zm-0.66643 0.9782c-0.51605-0.27241-1.6193 0.19282-2.3229 1.225-0.70515 1.0322-0.65486 2.1096-0.13929 2.3811 0.51556 0.27404 1.6197-0.19282 2.3235-1.225 0.70563-1.0322 0.65486-2.1086 0.13881-2.3811z" stroke-width="1.1547"/>
<path d="m11.269 12.224c-1.1621 0.61594-1.2558 2.3591-0.20761 3.8934 1.0482 1.5354 2.8396 2.2813 4.0022 1.6681 1.1627-0.61594 1.2558-2.3581 0.20761-3.8925-1.0477-1.5345-2.8396-2.2804-4.0022-1.669zm0.66643 0.9782c0.51606-0.27241 1.6193 0.19282 2.3229 1.225 0.70515 1.0322 0.65486 2.1096 0.13929 2.3811-0.51556 0.27404-1.6197-0.19282-2.3235-1.225-0.70563-1.0322-0.65486-2.1086-0.13881-2.3811z" stroke-width="1.1547"/>
<polygon transform="matrix(1.302 0 0 1.293 -377.92 -4.5895)" points="296.96 12.3 297.6 13.385 298.87 14.719 299.27 13.673 298.25 11.96"/>
</g>
</g>
</svg>
