<svg width="22" height="22" version="1" xmlns="http://www.w3.org/2000/svg">
<defs>
<linearGradient id="linearGradient907" x1="12.207" x2="12.128" y1="53.535" y2="64.893" gradientTransform="matrix(1.2056 0 0 .50202 -3.597 -11.495)" gradientUnits="userSpaceOnUse">
<stop stop-color="#585956" offset="0"/>
<stop stop-color="#bbbeb8" offset="1"/>
</linearGradient>
<filter id="filter938" color-interpolation-filters="sRGB">
<feFlood flood-color="rgb(0,0,0)" flood-opacity=".2" result="flood"/>
<feComposite in="flood" in2="SourceGraphic" operator="in" result="composite1"/>
<feGaussianBlur in="composite1" result="blur"/>
<feOffset dx="0" dy="0.5" result="offset"/>
<feComposite in="SourceGraphic" in2="offset" result="fbSourceGraphic"/>
<feColorMatrix in="fbSourceGraphic" result="fbSourceGraphicAlpha" values="0 0 0 -1 0 0 0 0 -1 0 0 0 0 -1 0 0 0 0 1 0"/>
<feFlood flood-color="rgb(255,255,255)" flood-opacity=".10196" in="fbSourceGraphic" result="flood"/>
<feComposite in="flood" in2="fbSourceGraphic" operator="out" result="composite1"/>
<feGaussianBlur in="composite1" result="blur"/>
<feOffset dx="0" dy="0.5" result="offset"/>
<feComposite in="offset" in2="fbSourceGraphic" operator="atop" result="composite2"/>
</filter>
</defs>
<path d="m1.72 2.7669-2.7e-5 12.559h18.466v-12.506z" fill="#333" fill-rule="evenodd" filter="url(#filter938)" stroke-width="1.3567"/>
<ellipse cx="10.998" cy="19.01" rx="4.999" ry="1.9901" color="#000000" fill="#adb0aa" fill-rule="evenodd" filter="url(#filter938)" stroke-width="1.3153"/>
<ellipse cx="10.998" cy="18.842" rx="4.5109" ry="1.6472" color="#000000" fill="none" filter="url(#filter938)" stroke-width="1.3153"/>
<rect x="8" y="16.502" width="6" height="2.4985" color="#000000" fill="url(#linearGradient907)" fill-rule="evenodd" filter="url(#filter938)" stroke-width="1.3689"/>
<path d="m1.844 2.002c-0.56529 0-0.84175 0.32402-0.8418 0.72461v13.229c-0.02941 0.5781 0.45424 1.0449 1.0195 1.0449h17.953c0.56527 0 1.0489-0.46683 1.0195-1.0449l0.0059-13.229c-0.021561-0.42313-0.38156-0.72461-0.84184-0.72461h-18.315zm0.15625 0.99805 18-5e-5v12h-18v-12z" color="#000000" fill="#dde1d9" fill-rule="evenodd" filter="url(#filter938)" stroke-width="1.2498"/>
<path d="m20 3-16 12h15.18s0.82031 0 0.82031-0.75zm-3 6v3h-4z" fill="#cd3840"/>
</svg>
