<svg width="22" height="22" version="1" xmlns="http://www.w3.org/2000/svg" xmlns:xlink="http://www.w3.org/1999/xlink">
<defs>
<filter id="filter896" color-interpolation-filters="sRGB">
<feFlood flood-color="rgb(0,0,0)" flood-opacity=".2" result="flood"/>
<feComposite in="flood" in2="SourceGraphic" operator="in" result="composite1"/>
<feGaussianBlur in="composite1" result="blur"/>
<feOffset dx="0" dy="0.5" result="offset"/>
<feComposite in="SourceGraphic" in2="offset" result="composite2"/>
</filter>
<filter id="filter908" color-interpolation-filters="sRGB">
<feFlood flood-color="rgb(0,0,0)" flood-opacity=".2" result="flood"/>
<feComposite in="flood" in2="SourceGraphic" operator="in" result="composite1"/>
<feGaussianBlur in="composite1" result="blur"/>
<feOffset dx="0" dy="0.5" result="offset"/>
<feComposite in="SourceGraphic" in2="offset" result="composite2"/>
</filter>
</defs>
<ellipse cx="11" cy="11" rx="10" ry="9.9999" fill="#6194cb" filter="url(#filter896)" stroke-width="1.37"/>
<path d="m11.253 5.8618c-0.43842 1.06e-5 -0.88669 0.050918-1.356 0.1406-0.46901 0.089655-0.99262 0.221-1.5598 0.40913a0.055872 0.054892 0 0 0-0.038004 0.051634v2.0972a0.055872 0.054892 0 0 0 0.085709 0.046074c0.47294-0.29245 0.92539-0.50983 1.3593-0.65536a0.055872 0.054892 0 0 0 8.28e-4 0c0.43391-0.14999 0.84015-0.2256 1.2104-0.2256 0.39297 8.2e-6 0.6842 0.086429 0.89591 0.25499a0.055872 0.054892 0 0 0 8.28e-4 0c0.2106 0.16354 0.31534 0.39505 0.31534 0.69428-4e-6 0.1955-0.05161 0.38378-0.17304 0.58149a0.055872 0.054892 0 0 0-8.28e-4 8.134e-4c-0.11715 0.19808-0.30808 0.41832-0.57084 0.64742l-0.45199 0.3813a0.055872 0.054892 0 0 0-8.28e-4 8.14e-4c-0.49741 0.43947-0.82272 0.81218-0.9824 1.1082-0.15838 0.2892-0.23934 0.61822-0.23934 0.99139v0.33047a0.055872 0.054892 0 0 0 0.055793 0.05477h2.5228a0.055872 0.054892 0 0 0 0.05579-0.05482v-0.30504c-5e-6 -0.19043 0.05415-0.36077 0.14796-0.51873a0.055872 0.054892 0 0 0 0-8.14e-4c0.09203-0.15914 0.29475-0.38494 0.60968-0.65935l0.43987-0.3813a0.055872 0.054892 0 0 0 8.28e-4 -8.14e-4c0.44156-0.39953 0.75627-0.76891 0.94277-1.1209 0.18599-0.35549 0.29108-0.76196 0.29108-1.2075-8e-6 -0.86482-0.3168-1.5243-0.92741-1.9756-0.61072-0.45589-1.4881-0.68472-2.6343-0.68472zm-1.4546 7.7912a0.055872 0.054892 0 0 0-0.050129 0.05481v2.3768a0.055872 0.054892 0 0 0 0.055793 0.05481h2.5228a0.055872 0.054892 0 0 0 0.05579-0.05481v-2.3768a0.055872 0.054892 0 0 0-0.05579-0.05481h-2.5228a0.055872 0.054892 0 0 0-0.00566 0z" fill="#fff" filter="url(#filter908)" stroke-width=".41034" xlink:href="#text2215"/>
</svg>
