<svg width="22" height="22" version="1" xmlns="http://www.w3.org/2000/svg">
<defs>
<filter id="filter941" color-interpolation-filters="sRGB">
<feFlood flood-color="rgb(0,0,0)" flood-opacity=".2" result="flood"/>
<feComposite in="flood" in2="SourceGraphic" operator="in" result="composite1"/>
<feGaussianBlur in="composite1" result="blur"/>
<feOffset dx="0" dy="0.5" result="offset"/>
<feComposite in="SourceGraphic" in2="offset" result="composite2"/>
</filter>
<filter id="filter953" color-interpolation-filters="sRGB">
<feFlood flood-color="rgb(0,0,0)" flood-opacity=".2" result="flood"/>
<feComposite in="flood" in2="SourceGraphic" operator="in" result="composite1"/>
<feGaussianBlur in="composite1" result="blur"/>
<feOffset dx="0" dy="0.5" result="offset"/>
<feComposite in="SourceGraphic" in2="offset" result="composite2"/>
</filter>
<filter id="filter969" color-interpolation-filters="sRGB">
<feFlood flood-color="rgb(255,255,255)" flood-opacity=".10196" result="flood"/>
<feComposite in="flood" in2="SourceGraphic" operator="out" result="composite1"/>
<feGaussianBlur in="composite1" result="blur"/>
<feOffset dx="0" dy="0.5" result="offset"/>
<feComposite in="offset" in2="SourceGraphic" operator="atop" result="composite2"/>
</filter>
</defs>
<g filter="url(#filter969)" stroke-linejoin="round">
<path d="m2.6853 17.992c-0.21459-0.01106-0.42918-0.23335-0.42918-0.44458v-15.895c0-0.21123 0.21459-0.4114 0.42918-0.40034l13.638 0.47514c0.21459 0.01106 0.42918 0.23335 0.42918 0.44457v6.7338c0 0.24611 0.16268 0.62636 0.5704 0.71116l1.8874 0.31021c0.37921 0.07889 0.53495 0.44762 0.53495 0.65889v7.4984c0 0.21123-0.21459 0.4114-0.42918 0.40034z" fill="#b9b9b9" filter="url(#filter941)" stroke="#b9b9b9" stroke-linecap="round" stroke-width=".51062"/>
<path d="m2.2586 18.872c0.02288 0.5757 0.56917 0.988 1.205 1.0302 5.9958 0.3985 11.023 0.83511 11.023 0.83511 0.12848 0.0363 0.25698-0.0845 0.25698-0.24165v-17.298l-11.353-0.93118c-0.50986-0.05765-0.93698-0.23453-1.1338-0.78z" color="#000000" display="block" fill="#6194cb" filter="url(#filter953)" stroke="#6194cb" stroke-width=".51349"/>
</g>
<g transform="translate(22)">
<g transform="translate(-22)">
<circle cx="16" cy="16" r="6" fill="#5db41e"/>
<path d="m16 13a3 3 0 0 0-3 3 3 3 0 0 0 3 3 3 3 0 0 0 3-3 3 3 0 0 0-3-3zm0 1a2 2 0 0 1 2 2 2 2 0 0 1-2 2 2 2 0 0 1-2-2 2 2 0 0 1 2-2z" fill="#fff"/>
</g>
<path d="m-6 12v3l2-1.5z" fill="#fff"/>
<path d="m-6 17v3l-2-1.5z" fill="#fff"/>
</g>
</svg>
