<svg width="22" height="22" version="1" xmlns="http://www.w3.org/2000/svg" xmlns:xlink="http://www.w3.org/1999/xlink">
<defs>
<filter id="filter1132" color-interpolation-filters="sRGB">
<feFlood flood-color="rgb(0,0,0)" flood-opacity=".2" result="flood"/>
<feComposite in="flood" in2="SourceGraphic" operator="in" result="composite1"/>
<feGaussianBlur in="composite1" result="blur"/>
<feOffset dx="0" dy="0.5" result="offset"/>
<feComposite in="SourceGraphic" in2="offset" result="fbSourceGraphic"/>
<feColorMatrix in="fbSourceGraphic" result="fbSourceGraphicAlpha" values="0 0 0 -1 0 0 0 0 -1 0 0 0 0 -1 0 0 0 0 1 0"/>
<feFlood flood-color="rgb(255,255,255)" flood-opacity=".10196" in="fbSourceGraphic" result="flood"/>
<feComposite in="flood" in2="fbSourceGraphic" operator="out" result="composite1"/>
<feGaussianBlur in="composite1" result="blur"/>
<feOffset dx="0" dy="0.5" result="offset"/>
<feComposite in="offset" in2="fbSourceGraphic" operator="atop" result="composite2"/>
</filter>
</defs>
<g filter="url(#filter1132)">
<g transform="translate(.4999 .2499)" stroke="#729fcf">
<path d="m18.495 10.25c0 4.1394-3.3557 7.4952-7.4946 7.4952-4.1392 0-7.4948-3.3557-7.4948-7.4952 0-4.1392 3.3556-7.4946 7.4948-7.4946 4.1388 0 7.4946 3.3554 7.4946 7.4946z" fill="#729fcf" stroke-width=".010707"/>
<g transform="matrix(.38801 0 0 .38842 1.2973 1.065)" color="#000000" fill="#fff" stroke-width=".02758">
<g color="#000000">
<g color="#000000" fill="#fff" stroke="#729fcf" stroke-width=".02758">
<path d="m44.071 20.714c-0.01989 0.26195 0 0 0 0l-0.5449 0.6172c-0.334-0.3936-0.709-0.7246-1.0898-1.0703l-0.8359 0.123-0.7637-0.8633v1.0684l0.6543 0.4951 0.4355 0.4932 0.582-0.6582c0.1465 0.2744 0.291 0.5488 0.4365 0.8232v0.8223l-0.6553 0.7402-1.1992 0.8232-0.9082 0.9063-0.582-0.6602 0.291-0.7402-0.5811-0.6582-0.9814-2.0977-0.8359-0.9453-0.2188 0.2461 0.3281 1.1934 0.6172 0.6992c0.3525 1.0176 0.7012 1.9902 1.1641 2.9629 0.7178 0 1.3945-0.0762 2.1074-0.166v0.5762l-0.8721 2.1392-0.7998 0.9043-0.6543 1.4004v2.3027l0.2188 0.9063-0.3633 0.4102-0.8008 0.4941-0.8359 0.6992 0.6914 0.7813-0.9453 0.8242 0.1816 0.5332-1.418 1.6055h-0.9443l-0.7998 0.4941h-0.5098v-0.6582l-0.2168-1.3184c-0.2813-0.8262-0.5742-1.6465-0.8721-2.4668 0-0.6055 0.0361-1.2051 0.0723-1.8105l0.3643-0.8223-0.5098-0.9883 0.0371-1.3574-0.6914-0.7813 0.3457-1.1309-0.5625-0.6382h-0.9824l-0.3271-0.3701-0.9814 0.6177-0.3994-0.4536-0.9092 0.7817c-0.6172-0.6997-1.2354-1.3989-1.8535-2.0981l-0.7266-1.7285 0.6543-0.9863-0.3633-0.4111 0.7988-1.8936c0.6563-0.8164 1.3418-1.5996 2.0352-2.3857l1.2363-0.3291 1.3809-0.1641 0.9453 0.2471 1.3447 1.3564 0.4727-0.5342 0.6533-0.082 1.2363 0.4111h0.9453l0.6543-0.5762 0.291-0.4111-0.6553-0.4111-1.0908-0.082c-0.3027-0.4199-0.584-0.8613-0.9434-1.2344l-0.3643 0.1641-0.1455 1.0703-0.6543-0.7402-0.1445-0.8242-0.7266-0.5742h-0.292l0.7275 0.8223-0.291 0.7402-0.5811 0.1641 0.3633-0.7402-0.6553-0.3281-0.5801-0.6582-1.0918 0.2461-0.1445 0.3281-0.6543 0.4121-0.3633 0.9053-0.9082 0.4521-0.4004-0.4521h-0.4355v-1.4814l0.9453-0.4941h0.7266l-0.1465-0.5752-0.5801-0.5762 0.9805-0.2061 0.5449-0.6162 0.4355-0.7412h0.8008l-0.2188-0.5752 0.5098-0.3291v0.6582l1.0898 0.2461 1.0898-0.9043 0.0732-0.4121 0.9443-0.6577c-0.3418 0.0425-0.6836 0.0737-1.0176 0.1646v-0.7411l0.3633-0.8228h-0.3633l-0.7984 0.7402-0.2188 0.4116 0.2188 0.5767-0.3643 0.9863-0.5811-0.3291-0.5078-0.5752-0.8008 0.5752-0.291-1.3159 1.3809-0.9048v-0.4941l0.873-0.5757 1.3809-0.3296 0.9453 0.3296 1.7441 0.3291-0.4355 0.4932h-0.9453l0.9453 0.9873 0.7266-0.8223 0.33004-0.37202s2.5723 1.987 4.3799 5.2407c1.5928 2.7334 2.3069 5.6159 2.2315 6.6094z" color="#000000" fill="#fff" stroke="#729fcf" stroke-width=".02758"/>
</g>
</g>
<g color="#000000">
<g color="#000000" fill="#fff" stroke="#729fcf" stroke-width=".02758">
<path d="m26.07 9.2363-0.0732 0.4932 0.5098 0.3291 0.8711-0.5757-0.4355-0.4937-0.582 0.3296-0.29-0.0825" color="#000000" fill="#fff" stroke="#729fcf" stroke-width=".02758"/>
</g>
</g>
<g color="#000000">
<g color="#000000" fill="#fff" stroke="#729fcf" stroke-width=".02758">
<path d="m26.87 5.8633-1.8906-0.7407-2.1797 0.2466-2.6904 0.7402-0.5088 0.4941 1.6719 1.1514v0.6582l-0.6543 0.6582 0.873 1.729 0.5801-0.3301 0.7285-1.1514c1.123-0.3472 2.1299-0.7407 3.1973-1.2344l0.873-2.2212" color="#000000" fill="#fff" stroke="#729fcf" stroke-width=".02758"/>
</g>
</g>
<g color="#000000">
<g color="#000000" fill="#fff" stroke="#729fcf" stroke-width=".02758">
<path d="m28.833 12.775-0.291-0.7412-0.5098 0.165 0.1465 0.9043 0.6543-0.3281" color="#000000" fill="#fff" stroke="#729fcf" stroke-width=".02758"/>
</g>
</g>
<g color="#000000">
<g color="#000000" fill="#fff" stroke="#729fcf" stroke-width=".02758">
<path d="m29.123 12.609-0.1455 0.9883 0.7998-0.165 0.5811-0.5752-0.5088-0.4941c-0.1709-0.4551-0.3672-0.8799-0.5811-1.3164h-0.4355v0.4932l0.29 0.3291v0.7402" color="#000000" fill="#fff" stroke="#729fcf" stroke-width=".02758"/>
</g>
</g>
<g color="#000000">
<g color="#000000" fill="#fff" stroke="#729fcf" stroke-width=".02758">
<path d="m18.365 28.242-0.582-1.1523-1.0903-0.2466-0.5815-1.5625-1.4536 0.1641-1.2354-0.9043-1.3091 1.1514v0.1816c-0.396-0.1143-0.8828-0.1299-1.2354-0.3467l-0.291-0.8223v-0.9053l-0.8721 0.082c0.0728-0.5762 0.145-1.1514 0.2183-1.7275h-0.5093l-0.5083 0.6582-0.5093 0.2461-0.7271-0.4102-0.0728-0.9053 0.1455-0.9873 1.0908-0.8223h0.8721l0.145-0.4941 1.0903 0.2461 0.7998 0.9883 0.1455-1.6465 1.3813-1.1514 0.5088-1.2344 1.0176-0.4111 0.5815-0.8223 1.3081-0.248 0.6548-0.9863h-1.9629l1.2358-0.5762h0.8716l1.2363-0.4121 0.1455-0.4922-0.4365-0.4121-0.5088-0.165 0.1455-0.4932-0.3633-0.7402-0.8726 0.3281 0.1455-0.6577-1.0176-0.5762-0.7993 1.3979 0.0723 0.4941-0.7993 0.3301-0.5093 1.0693-0.2178-0.9873-1.3813-0.5762-0.2183-0.7402 1.8174-1.0703 0.7998-0.7402 0.0728-0.9048-0.436-0.2471-0.5815-0.069176-0.3633 0.89198s-0.81539 0.1191-0.97169 0.1577c-0.70567 0.62764-1.5421 0.99921-3.6445 4.0937-1.5561 2.2903-2.7118 5.1723-3.1143 9.2125 0.0371 0.1738 0.6792 1.1816 0.6792 1.1816l1.5264 0.9043 1.5264 0.4121 0.6548 0.8232 1.0171 0.7402 0.5815-0.082 0.436 0.1963v0.1328l-0.5811 1.563-0.4365 0.6582 0.1455 0.3301-0.3633 1.2324 1.3086 2.3867 1.3081 1.1523 0.582 0.8223-0.0732 1.7285 0.4365 0.9863-0.4365 1.8926s-0.0342-0.05258 0.0215 0.13682c0.39573 0.37793 2.3291 1.4921 2.4736 1.3847 0.144-0.1094 0.2671-0.2051 0.2671-0.2051l-0.145-0.4102 0.5811-0.5762 0.2183-0.5762 0.9453-0.3301 0.7266-1.8105-0.2178-0.4922 0.5078-0.7402 1.0908-0.248 0.582-1.3164-0.1455-1.6445 0.8721-1.2344 0.1455-1.2344c-1.1934-0.5918-2.377-1.2012-3.5615-1.8105" color="#000000" fill="#fff" stroke="#729fcf" stroke-width=".02758"/>
</g>
</g>
<g color="#000000">
<g color="#000000" fill="#fff" stroke="#729fcf" stroke-width=".02758">
<path d="m16.766 9.5649 0.7266 0.4937h0.582v-0.5757l-0.7266-0.3291-0.582 0.4111" color="#000000" fill="#fff" stroke="#729fcf" stroke-width=".02758"/>
</g>
</g>
<g color="#000000">
<g color="#000000" fill="#fff" stroke="#729fcf" stroke-width=".02758">
<path d="m14.876 8.9072-0.3638 0.9048h0.7271l0.3638-0.8228c0.3135-0.2217 0.6255-0.4448 0.9448-0.6582l0.7271 0.2471c0.4844 0.3291 0.9688 0.6582 1.4536 0.9868l0.7275-0.6577-0.8003-0.3291-0.3638-0.7407-1.3809-0.1646-0.0728-0.4116-0.6543 0.165-0.2904 0.5758-0.3638-0.7407-0.145 0.3291 0.0728 0.8228-0.5816 0.494" color="#000000" fill="#fff" stroke="#729fcf" stroke-width=".02758"/>
</g>
</g>
<g color="#000000">
<g color="#000000" fill="#fff" stroke="#729fcf" stroke-width=".02758">
<path d="m17.492 6.8496 0.3638-0.3286 0.7271-0.1646c0.498-0.2422 0.998-0.4053 1.5264-0.5762l-0.29-0.4937-0.9385 0.1348-0.4434 0.4419-0.731 0.106-0.6499 0.3052-0.3159 0.1528-0.1929 0.2583 0.9443 0.1641" color="#000000" fill="#fff" stroke="#729fcf" stroke-width=".02758"/>
</g>
</g>
<g color="#000000">
<g color="#000000" fill="#fff" stroke="#729fcf" stroke-width=".02758">
<path d="m18.728 14.666 0.4365-0.6582-0.6548-0.4932 0.2183 1.1514" color="#000000" fill="#fff" stroke="#729fcf" stroke-width=".02758"/>
</g>
</g>
</g>
</g>
<path d="m17.786 3.92c1.9357-2.3347 3.4914-0.30818 1.977 2.5865-1.5068 2.8804 1.2587 4.4063 0.54064 6.9043-0.74196 2.5812-1.7233 2.0733-2.8721 3.0531-1.1489 0.97978-6.0147 0.83137-6.0147 0.83137l-0.15307-0.78382" color="#000000" fill="none" stroke="#888a85" stroke-width="1.1612"/>
<g fill-rule="evenodd">
<path d="m14.92 3.9285 2.5111 2.9235 0.79056-0.68193c0.60771-0.54855 0.73262-1.696 0.393-2.0915l-0.80125-0.93288c-0.3117-0.36291-1.3782-0.58499-2.0927 0.060025z" color="#000000" fill="#ef2929" stroke-width="1.1194"/>
<path d="m1.6059 9h10.878c0.27627 0 0.50492 0.20082 0.50526 0.48331l0.01046 8.82c4.72e-4 0.38594-0.27314 0.69666-0.61242 0.69666h-10.775c-0.33929 0-0.6134-0.31072-0.61243-0.69666l0.0222-8.82c6.733e-4 -0.2671 0.16597-0.48331 0.50526-0.48331z" color="#000000" fill="#dde1d9" stroke-width="1.2384"/>
<path d="m2 10v7h10v-7z" fill="#729fcf" stroke-width="1.3228"/>
<rect x="7" y="11.79" width="4.0003" height="3.2096" color="#000000" fill="#eeeeec" stroke-width="1.2473"/>
<rect x="3" y="11.811" width="3" height="2.1889" color="#000000" fill="#eeeeec" stroke-width="1.3694"/>
<rect x="7" y="11" width="4" height="1" color="#000000" fill="#204a87" stroke-width="1.2473"/>
<rect x="3" y="11" width="3" height="1" color="#000000" fill="#204a87" stroke-width="1.3694"/>
</g>
</g>
</svg>
