<svg width="22" height="22" version="1" xmlns="http://www.w3.org/2000/svg">
<defs>
<filter id="filter928" color-interpolation-filters="sRGB">
<feFlood flood-color="rgb(0,0,0)" flood-opacity=".2" result="flood"/>
<feComposite in="flood" in2="SourceGraphic" operator="in" result="composite1"/>
<feGaussianBlur in="composite1" result="blur"/>
<feOffset dx="0" dy="0.5" result="offset"/>
<feComposite in="SourceGraphic" in2="offset" result="composite2"/>
</filter>
<filter id="filter940" color-interpolation-filters="sRGB">
<feFlood flood-color="rgb(0,0,0)" flood-opacity=".2" result="flood"/>
<feComposite in="flood" in2="SourceGraphic" operator="in" result="composite1"/>
<feGaussianBlur in="composite1" result="blur"/>
<feOffset dx="0" dy="0.5" result="offset"/>
<feComposite in="SourceGraphic" in2="offset" result="composite2"/>
</filter>
<filter id="filter952" color-interpolation-filters="sRGB">
<feFlood flood-color="rgb(0,0,0)" flood-opacity=".2" result="flood"/>
<feComposite in="flood" in2="SourceGraphic" operator="in" result="composite1"/>
<feGaussianBlur in="composite1" result="blur"/>
<feOffset dx="0" dy="0.5" result="offset"/>
<feComposite in="SourceGraphic" in2="offset" result="composite2"/>
</filter>
</defs>
<g stroke-width="1.25">
<path d="m10.476 1.0017c-0.21096 0.014434-0.41601 0.047106-0.62322 0.070816h-0.014165l-0.49575 2.7051c-0.80804 0.184-1.5676 0.49566-2.2515 0.92l-2.225-1.6c-0.60115 0.46667-1.1476 1.0111-1.6282 1.6006l1.5432 2.2519c-0.46877 0.71632-0.82067 1.5344-1.0192 2.3936-3.39e-5 0.00406-2.76e-5 0.013455 0 0.014164l-2.6907 0.4249c-0.049202 0.40184-0.07125 0.81713-0.07125 1.2322 0 0.3396 0.00938 0.67466 0.042492 1.0056l2.6912 0.48155c0.1914 0.9345 0.555 1.8072 1.0623 2.5777l-1.6006 2.1952c0.45839 0.56902 0.9876 1.0871 1.5581 1.5437l2.2662-1.558c0.79204 0.50521 1.6761 0.85947 2.6345 1.0339l0.42492 2.6769c0.30195 0.027488 0.6116 0.028325 0.92067 0.028325 0.43635 0 0.85314-0.01654 1.2747-0.07081l0.50991-2.7335c0.90993-0.22642 1.7647-0.61924 2.5071-1.1472l2.1812 1.5862c0.56567-0.48124 1.083-1.0344 1.5297-1.6287l-1.5864-2.2945c0.42962-0.74192 0.72731-1.5605 0.87818-2.4361l2.677-0.4249c0.02347-0.27934 0.02832-0.55025 0.02832-0.83562 0-0.49592-0.05765-0.98217-0.12748-1.4589l-2.7195-0.49571c-0.21312-0.7869-0.5628-1.5211-1.0057-2.1811l1.6006-2.1952c-0.49612-0.60669-1.0621-1.1671-1.6855-1.6429l-2.3087 1.5862c-0.66356-0.39241-1.3776-0.69351-2.153-0.86396l-0.42492-2.691c-0.38676-0.04549-0.77671-0.070814-1.1756-0.070814-0.10782 1e-7 -0.21877-0.003392-0.32577 0-0.05216 0.00165-0.10378-0.003034-0.15581 0-0.01409 8.217e-4 -0.02843-9.62e-4 -0.04249 0zm0.36827 6.8834c0.05175-0.00263 0.10341 0 0.15581 0 1.6766 0 3.0454 1.3686 3.0454 3.0451 0 1.6765-1.3686 3.0309-3.0454 3.0309-1.6766 1e-6 -3.0311-1.3544-3.0311-3.0309 5e-7 -1.6241 1.2712-2.9637 2.8754-3.0451z" color="#000000" fill="#729fcf" filter="url(#filter940)"/>
<ellipse cx="11.002" cy="10.924" rx="3.499" ry="3.4987" color="#000000" fill="none" opacity=".64773"/>
<path d="m10.162 1.5371-0.39805 2.6191c-0.75739 0.17247-2.1506 0.69996-2.7916 1.0977l-2.1176-1.5805c-0.56347 0.43744-0.60211 0.4671-1.0527 1.0196l1.5311 2.2706c-0.4394 0.67144-0.96716 1.868-1.1566 2.723l-2.683 0.45225c-0.046119 0.37666-0.023955 1.1828 0.00709 1.493l2.5629 0.46165c0.1794 0.87592 0.85077 2.2859 1.3262 3.008l-1.6206 2.141c0.42966 0.53336 0.51565 0.58217 1.0504 1.0102l2.1671-1.5875c0.7424 0.47355 2.216 1.0496 3.1142 1.2131l0.35566 2.5862c0.28302 0.02576 1.0649 0.09802 1.4601 0.04715l0.39805-2.6922c0.85291-0.21224 2.3266-0.81715 3.0225-1.312l2.1647 1.564c0.53022-0.45107 0.53497-0.51904 0.95376-1.0762l-1.6041-2.28c0.4027-0.69542 0.92338-2.0555 1.0648-2.8761l2.6265-0.43576c0.022-0.26184 0.02307-0.99201-0.04239-1.4387l-2.6759-0.46165c-0.19976-0.73759-0.88531-2.0667-1.3004-2.6854l1.7007-2.141c-0.46502-0.56866-0.63794-0.64669-1.2223-1.0927l-2.2401 1.604c-0.62197-0.36782-1.8622-0.92853-2.589-1.0883l-0.39572-2.5626c-0.36252-0.042641-1.4085-0.023706-1.6156 0z" color="#000000" fill="none" opacity=".34659"/>
<path d="m4.8662 3.0977c-0.60115 0.46667-1.1439 1.0229-1.6344 1.6124l1.5494 2.2401c-0.46877 0.71267-0.924 1.7112-1.0084 2.4074l-2.7016 0.42507c-0.030751 0.25115-0.07125 0.87399-0.07125 0.87399l0.078815 0.69658c0.1907 0.03938 0.37457 0.07602 0.57124 0.09752l0.22292-0.68265c0.15339 0.0127 0.30302 0.02786 0.45977 0.02786 0.15659 0 0.32032-0.01508 0.47371-0.02786l0.20899 0.68265c0.19675-0.02151 0.39447-0.05814 0.58517-0.09752v-0.69659c0.30574-0.07116 0.59387-0.17286 0.87776-0.29256l0.41799 0.5712c0.17939-0.08118 0.3458-0.16755 0.51551-0.2647l-0.22292-0.66872c0.26627-0.1615 0.51796-0.35457 0.75236-0.55726l0.57124 0.41795c0.14519-0.13222 0.28584-0.27277 0.41799-0.41795l-0.41799-0.55726c0.20279-0.23439 0.38186-0.48589 0.54337-0.75231l0.66877 0.20897c0.097164-0.16979 0.19764-0.33619 0.27865-0.51547l-0.57124-0.41795c0.1197-0.28387 0.20731-0.57197 0.27865-0.8777h0.71057c0.039382-0.19069 0.062177-0.3884 0.083596-0.58512l-0.66877-0.20897c0.012867-0.15329 0.027865-0.31701 0.027865-0.47367-3e-7 -0.15666-0.015167-0.30627-0.027865-0.45975l0.66877-0.20897c-0.020309-0.18719-0.047077-0.37537-0.083596-0.55726-0.51157 0.17801-0.8772 0.37755-1.3301 0.65857z" color="#000000" fill="#fff" filter="url(#filter952)" opacity=".5"/>
<path d="m17.33 7.3915c-0.18898 0.095406-0.36765 0.20291-0.54825 0.31326l0.2805 0.91253c-0.34326 0.22214-0.66708 0.48376-0.96901 0.76271l-0.72675-0.57204c-0.18716 0.18195-0.36526 0.37219-0.5355 0.57204l0.5355 0.77634c-0.26114 0.3226-0.50597 0.66852-0.71401 1.0351l-0.26775-0.09534c-0.02349 0.36835-0.1164 0.71615-0.255 1.0351l0.051 0.04086c-0.1542 0.39065-0.27799 0.805-0.36975 1.2258h-0.72676c-0.0671 0.04495-0.13322 0.09734-0.204 0.1362-0.03859 0.21844-0.06644 0.42992-0.08925 0.65375l0.86701 0.29964c-0.01644 0.21107-0.02549 0.42459-0.02549 0.64014 0 0.21562 9e-3 0.42906 0.02549 0.64014l-0.86701 0.29964c0.02759 0.27076 0.06401 0.54109 0.11475 0.80357l0.90526-0.01356c0.06309 0.2893 0.16876 0.61181 0.26179 0.88735 0.36192-0.16087 0.7062-0.36077 1.0387-0.5741-0.20268-0.63965-0.31875-1.3304-0.31875-2.043 1e-6 -2.7341 1.6212-5.0689 3.8887-5.9655l-0.53551-0.095347c-0.10969-0.43272-0.25177-0.85665-0.4335-1.253-0.0054-0.011637-0.0072-0.029235-0.0127-0.04086l-0.0255-0.027244z" color="#000000" fill="#fff" filter="url(#filter928)" opacity=".5"/>
</g>
</svg>
