<svg width="22" height="22" version="1" xmlns="http://www.w3.org/2000/svg">
<defs>
<linearGradient id="linearGradient2707" x1="12.207" x2="12.128" y1="53.535" y2="64.893" gradientTransform="matrix(1.2056 0 0 .50202 -3.5971 -11.495)" gradientUnits="userSpaceOnUse">
<stop stop-color="#585956" offset="0"/>
<stop stop-color="#bbbeb8" offset="1"/>
</linearGradient>
<filter id="filter930" color-interpolation-filters="sRGB">
<feFlood flood-color="rgb(0,0,0)" flood-opacity=".2" result="flood"/>
<feComposite in="flood" in2="SourceGraphic" operator="in" result="composite1"/>
<feGaussianBlur in="composite1" result="blur"/>
<feOffset dx="0" dy="0.5" result="offset"/>
<feComposite in="SourceGraphic" in2="offset" result="fbSourceGraphic"/>
<feColorMatrix in="fbSourceGraphic" result="fbSourceGraphicAlpha" values="0 0 0 -1 0 0 0 0 -1 0 0 0 0 -1 0 0 0 0 1 0"/>
<feFlood flood-color="rgb(255,255,255)" flood-opacity=".10196" in="fbSourceGraphic" result="flood"/>
<feComposite in="flood" in2="fbSourceGraphic" operator="out" result="composite1"/>
<feGaussianBlur in="composite1" result="blur"/>
<feOffset dx="0" dy="0.5" result="offset"/>
<feComposite in="offset" in2="fbSourceGraphic" operator="atop" result="composite2"/>
</filter>
</defs>
<g filter="url(#filter930)">
<g fill-rule="evenodd">
<path d="m1.7204 2.7669-2.67e-5 12.559h18.466v-12.506z" fill="#babdb6" stroke-width="1.3567"/>
<ellipse cx="10.998" cy="19.01" rx="4.999" ry="1.9901" color="#000000" fill="#adb0aa" stroke-width="1.3153"/>
<rect x="8" y="16.502" width="6" height="2.4985" color="#000000" fill="url(#linearGradient2707)" stroke-width="1.3689"/>
<path d="m1.8438 2.002c-0.56529 0-0.84175 0.32402-0.8418 0.72461v13.229c-0.029406 0.5781 0.45424 1.0449 1.0195 1.0449h17.953c0.56527 0 1.0489-0.46683 1.0195-1.0449l0.0059-13.229c-0.021561-0.42313-0.38156-0.72461-0.84184-0.72461h-18.315zm0.15625 0.99805 18 0.050781v11.949h-18v-12z" color="#000000" fill="#dde1d9" stroke-width="1.2498"/>
</g>
<g stroke-width="1.2854">
<path d="m7.4333 3s0.16429 4.6614 0.16429 5.094c0 0.40001-0.37788 1.0612 0.13143 1.0612 0.47644 0 0.09858-0.67756 0.13143-1.0612 0.03007-0.35127 0.09858-2.547 0.09858-2.547s0.36144 0.048986 0.52573-0.42449c0.16429-0.47348 0.13143-1.4694 0.13143-1.4694l0.26286 0.39185c0.52573 3.4613 0.28164 5.6655 0.29573 5.9266 0.01221 0.22858-0.37808 1.2572 0.16429 1.2572 0.69024 0 0.18797-1.0001 0.19715-1.2408 0.0098-0.25707 0.0795-2.147 0.46002-4.3756 0.57767 0.84083 0.21837-0.7837 0.87552 2.6776l8.1276 0.71838c-0.13143-3.4613-1.5869-5.9359-2.5702-5.943l-8.9958-0.065314z" color="#000000" fill="#204a87"/>
<path d="m11.574 12.006h7.4251s0.1071-2.5576-0.60686-3.1969c-0.67737-0.60663-1.6421-0.47113-1.6421-0.47113l-0.0357 0.26922s-0.35698-0.23557-0.99954-0.26922c-0.64256-0.03366-1.1066 0.03366-1.1066 0.03366l0.21419 0.20191s-0.89243-0.33652-1.7492-0.33652c-0.85675 0-1.0352 0.03366-1.0352 0.03366l0.32128 0.16826s-0.71396-0.30286-1.2851-0.30286-1.0709 0.23557-1.0709 0.23557 0.82105 0.40383 1.1423 0.94226c0.32128 0.53843 0.14279 2.6922 0.14279 2.6922z" color="#000000" fill="#6a6352"/>
<path d="m11.289 12v1.9964c0 0.55471 0.4244 1.0055 0.94663 1.0055h1.6236c-0.13178 1.4031-0.42684 3.0238-0.36144 4.2431 0.04096 0.76377 0.66392 1.7863 1.6523 1.7863 0.88517 0 1.5217-0.91645 1.5834-1.8282 0.06885-1.0168-0.11328-2.7955-0.30407-4.2012h1.6236c0.52223 0 0.94663-0.45078 0.94663-1.0055v-1.9651z" color="#000000" fill="#e5d28f"/>
</g>
<path d="m18 12v0.71378c0 0.15253-0.19217 0.27532-0.43085 0.27532h-5.1383c-0.2387 0-0.43085-0.12279-0.43085-0.27532v-0.71378h6.0001z" color="#000000" fill="#e7e5e0" stroke-width="1.2181"/>
</g>
</svg>
