<svg width="22" height="22" version="1" xmlns="http://www.w3.org/2000/svg">
<defs>
<filter id="filter973" color-interpolation-filters="sRGB">
<feFlood flood-color="rgb(0,0,0)" flood-opacity=".2" result="flood"/>
<feComposite in="flood" in2="SourceGraphic" operator="in" result="composite1"/>
<feGaussianBlur in="composite1" result="blur"/>
<feOffset dx="0" dy="0.5" result="offset"/>
<feComposite in="SourceGraphic" in2="offset" result="composite2"/>
</filter>
<filter id="filter985" color-interpolation-filters="sRGB">
<feFlood flood-color="rgb(0,0,0)" flood-opacity=".2" result="flood"/>
<feComposite in="flood" in2="SourceGraphic" operator="in" result="composite1"/>
<feGaussianBlur in="composite1" result="blur"/>
<feOffset dx="0" dy="0.5" result="offset"/>
<feComposite in="SourceGraphic" in2="offset" result="composite2"/>
</filter>
<filter id="filter1009" color-interpolation-filters="sRGB">
<feFlood flood-color="rgb(255,255,255)" flood-opacity=".10196" result="flood"/>
<feComposite in="flood" in2="SourceGraphic" operator="out" result="composite1"/>
<feGaussianBlur in="composite1" result="blur"/>
<feOffset dx="0" dy="0.5" result="offset"/>
<feComposite in="offset" in2="SourceGraphic" operator="atop" result="composite2"/>
</filter>
</defs>
<g filter="url(#filter1009)">
<g fill-rule="evenodd">
<path d="m4.3035 8c-3.1018 2.1819-3.7547 5.1647-3.0405 6.9081 0.72753 1.7761 1.9579 2.0919 3.4272 2.0919h4.8968c1.3877 0 2.7632-0.56706 3.2669-2.1822 0.47821-1.5337-0.12279-4.4542-3.2245-6.8178z" color="#000000" fill="#727e0a" filter="url(#filter973)" stroke-width="1.2455"/>
<path d="m6.1525 8.7649s-0.98795 0.79771-0.90285 1.7587c-0.93739-0.86519-0.96432-2.5231-0.96432-2.5231z" color="#000000" fill="#9db029" stroke-width="1.2304"/>
<path d="m7.7263 8.7544s0.98795 0.79771 0.90285 1.7587c0.93739-0.86519 0.96432-2.5231 0.96432-2.5231z" color="#000000" fill="#9db029" stroke-width="1.2304"/>
<ellipse cx="7" cy="4.9998" rx="4" ry="4.0002" color="#000000" fill="#966416" stroke-width="1.3334"/>
</g>
<g fill-rule="evenodd">
<path d="m12.304 12c-3.1018 2.1819-3.7547 5.1647-3.0405 6.9081 0.72753 1.7761 1.9579 2.0919 3.4272 2.0919h4.8968c1.3877 0 2.7632-0.56706 3.2669-2.1822 0.47821-1.5337-0.12279-4.4542-3.2245-6.8178z" color="#000000" fill="#3b74bc" filter="url(#filter985)" stroke-width="1.2455"/>
<path d="m16.786 12.839c-1.1214 1.5249-1.7621 6.7274-1.7621 6.7274s-0.64177-5.2044-2.0836-6.6396z" color="#000000" fill="#fff" stroke-width="1.2421"/>
<path d="m14.152 12.765s-0.98795 0.79771-0.90285 1.7587c-0.93739-0.86519-0.96432-2.5231-0.96432-2.5231z" color="#000000" fill="#729fcf" stroke-width="1.2304"/>
<path d="m15.726 12.754s0.98795 0.79771 0.90285 1.7587c0.93739-0.86519 0.96432-2.5231 0.96432-2.5231z" color="#000000" fill="#729fcf" stroke-width="1.2304"/>
<ellipse cx="15" cy="8.9998" rx="4" ry="4.0002" color="#000000" fill="#df9725" stroke-width="1.3334"/>
</g>
<ellipse cx="5.0644" cy="9.7574" rx="3.7746" ry="3.7748" color="#000000" fill="none" opacity=".1962" stroke-width="1.25"/>
</g>
</svg>
