<svg width="16" height="16" version="1.1" xmlns="http://www.w3.org/2000/svg">
<defs>
<style id="current-color-scheme" type="text/css">.ColorScheme-Text { color:#444444; } .ColorScheme-Highlight { color:#4285f4; }</style>
</defs>
<ellipse cx="8" cy="10.958" rx="3" ry="1.0396" color="#000000" fill="#4285f4" fill-rule="evenodd" stroke-width=".95234"/>
<ellipse cx="7.8228" cy="10.745" rx="3.1102" ry="1.3043" color="#000000" fill="none"/>
<ellipse cx="7.8228" cy="10.481" rx="3.1102" ry="1.3043" color="#000000" fill="none"/>
<path d="m9.1603 9.5315-0.01711 0.3521s1.1835 1.2673 2.4634 1.4797c0.63991 0.10622 1.3011 0.24732 1.8475 0.41812 0.54641 0.1708 0.98216 0.39421 1.129 0.58316 0.08497 0.1093 0.12346 0.20198 0.13685 0.27508s0.01046 0.12493-0.02567 0.19806c-0.07224 0.14625-0.29556 0.34071-0.67571 0.49514-0.7603 0.30886-2.1131 0.50614-3.9859 0.50614v0.3521c1.8875 0 3.2472-0.18579 4.0628-0.51714 0.40784-0.16568 0.69109-0.35762 0.82967-0.63818 0.06929-0.14028 0.0978-0.31282 0.06843-0.47313-0.029375-0.16031-0.10525-0.31145-0.21383-0.45112-0.2402-0.30899-0.69435-0.4952-1.2573-0.67119s-1.236-0.32193-1.8817-0.42912c-1.2915-0.21437-2.4805-1.4797-2.4805-1.4797z" fill="#4285f4" fill-rule="evenodd"/>
<path d="m2.5879 0c-0.39408 0-0.57175 0.21734-0.58594 0.48438l-0.0019531 8.8301c-0.0205 0.38585 0.31685 0.69727 0.71094 0.69727h10.576c0.39408 0 0.73144-0.31142 0.71094-0.69727l-0.005859-8.8301c-2.57e-4 -0.28281-0.26701-0.48438-0.58789-0.48438h-10.816zm0.41211 1h10v8h-10v-8z" fill="#4285f4"/>
<path d="m2.2958 9.5208h11.066" fill="none"/>
<path d="m2.5553 0.35587 10.509-0.01331c0.09989-1.2651e-4 0.19693 0.083535 0.20496 0.22976l0.47952 8.7332c0.02043 0.37218-0.19004 0.6288-0.56278 0.6288h-10.747c-0.37274 0-0.5609-0.25661-0.54078-0.6288l0.46621-8.6243c0.01363-0.25204 0.05858-0.32511 0.19176-0.32528z" color="#000000" fill="none"/>
<path d="m3.2221 13h9.5558c0.34498 0 0.30125 0.08438 0.33666 0.19051l0.87372 2.619c0.03541 0.10613 0.0083 0.19051-0.33666 0.19051h-11.303c-0.34499 0-0.37206-0.08438-0.33666-0.19051l0.87372-2.619c0.03541-0.10613-0.0083164-0.19051 0.33666-0.19051z" color="#000000" fill="#4285f4" fill-rule="evenodd"/>
<path d="m2.2783 12.634h11.206l0.92854 2.8494h-13.12z" color="#000000" fill="none"/>
</svg>
