<svg width="16" height="16" version="1.1" xmlns="http://www.w3.org/2000/svg">
<defs>
<style id="current-color-scheme" type="text/css">.ColorScheme-Text { color:#444444; } .ColorScheme-Highlight { color:#4285f4; }</style>
</defs>
<ellipse cx="8" cy="10.958" rx="3" ry="1.0396" color="#000000" fill="#dfdfdf" fill-rule="evenodd" opacity=".3" stroke-width=".95234"/>
<ellipse cx="7.8228" cy="10.745" rx="3.1102" ry="1.3043" color="#000000" fill="none"/>
<ellipse cx="7.8228" cy="10.481" rx="3.1102" ry="1.3043" color="#000000" fill="none"/>
<path d="m2.5879 0c-0.39408 0-0.57175 0.21734-0.58594 0.48438l-0.0019531 8.8301c-0.0205 0.38585 0.31685 0.69727 0.71094 0.69727h10.576c0.39408 0 0.73144-0.31142 0.71094-0.69727l-0.005859-8.8301c-2.57e-4 -0.28281-0.26701-0.48438-0.58789-0.48438h-10.816zm0.41211 1h10v8h-10v-8z" fill="#dfdfdf" opacity=".28"/>
<path d="m2.2958 9.5208h11.066" fill="none"/>
<path d="m2.5553 0.35587 10.509-0.01331c0.09989-1.2651e-4 0.19693 0.083535 0.20496 0.22976l0.47952 8.7332c0.02043 0.37218-0.19004 0.6288-0.56278 0.6288h-10.747c-0.37274 0-0.5609-0.25661-0.54078-0.6288l0.46621-8.6243c0.01363-0.25204 0.05858-0.32511 0.19176-0.32528z" color="#000000" fill="none"/>
<path d="m3.2221 13h9.5558c0.34498 0 0.30125 0.08438 0.33666 0.19051l0.87372 2.619c0.03541 0.10613 0.0083 0.19051-0.33666 0.19051h-11.303c-0.34499 0-0.37206-0.08438-0.33666-0.19051l0.87372-2.619c0.03541-0.10613-0.0083164-0.19051 0.33666-0.19051z" color="#000000" fill="#dfdfdf" fill-rule="evenodd" opacity=".3"/>
<path d="m2.2783 12.634h11.206l0.92854 2.8494h-13.12z" color="#000000" fill="none"/>
<path d="m11 10.816v0.36524c0.19733 0.0797 0.40045 0.14729 0.60742 0.18164 0.63991 0.10622 1.2993 0.24717 1.8457 0.41797 0.54641 0.1708 0.98402 0.39503 1.1309 0.58398 0.08497 0.1093 0.12333 0.20229 0.13672 0.27539s0.0088 0.12414-0.02734 0.19727c-0.07224 0.14625-0.29368 0.33971-0.67383 0.49414-0.26262 0.10668-0.61429 0.19423-1.0195 0.26953v0.36133c0.43056-0.07781 0.80589-0.17132 1.0957-0.28906 0.40784-0.16568 0.6915-0.35811 0.83008-0.63867 0.06929-0.14028 0.09773-0.31235 0.06836-0.47266s-0.10626-0.3115-0.21484-0.45117c-0.2402-0.30899-0.69486-0.49588-1.2578-0.67188s-1.2352-0.32054-1.8809-0.42773c-0.21953-0.03644-0.43235-0.10952-0.64062-0.19531z" fill="#dfdfdf" fill-rule="evenodd" opacity=".3"/>
</svg>
