<svg width="16" height="16" version="1.1" xmlns="http://www.w3.org/2000/svg">
<defs>
<style id="current-color-scheme" type="text/css">.ColorScheme-Text { color:#444444; } .ColorScheme-Highlight { color:#4285f4; }</style>
</defs>
<ellipse cx="7.8228" cy="10.958" rx="3.3078" ry="1.0396" color="#000000" fill="#dfdfdf" fill-rule="evenodd"/>
<ellipse cx="7.8228" cy="10.745" rx="3.1102" ry="1.3043" color="#000000" fill="none"/>
<ellipse cx="7.8228" cy="10.481" rx="3.1102" ry="1.3043" color="#000000" fill="none"/>
<path d="m9.1603 9.5315-0.01711 0.3521s1.1835 1.2673 2.4634 1.4797c0.63991 0.10622 1.3011 0.24732 1.8475 0.41812 0.54641 0.1708 0.98216 0.39421 1.129 0.58316 0.08497 0.1093 0.12346 0.20198 0.13685 0.27508s0.01046 0.12493-0.02567 0.19806c-0.07224 0.14625-0.29556 0.34071-0.67571 0.49514-0.7603 0.30886-2.1131 0.50614-3.9859 0.50614v0.3521c1.8875 0 3.2472-0.18579 4.0628-0.51714 0.40784-0.16568 0.69109-0.35762 0.82967-0.63818 0.06929-0.14028 0.0978-0.31282 0.06843-0.47313-0.029375-0.16031-0.10525-0.31145-0.21383-0.45112-0.2402-0.30899-0.69435-0.4952-1.2573-0.67119s-1.236-0.32193-1.8817-0.42912c-1.2915-0.21437-2.4805-1.4797-2.4805-1.4797z" fill="#dfdfdf" fill-rule="evenodd"/>
<path d="m2.6134 0c-0.39408 0-0.57175 0.21744-0.58594 0.48447l-0.46875 8.8296c-0.0205 0.38585 0.31685 0.69702 0.71094 0.69702h11.107c0.39408 0 0.73144-0.31117 0.71094-0.69702l-0.46875-8.8296c-0.015001-0.28241-0.26701-0.48447-0.58789-0.48447zm0.46875 1h8.8281l0.4707 8h-9.7363zm9.6445 0.10489c0.0091-1.535e-4 0.01823-1.535e-4 0.02734 0 0.21671-2.553e-4 0.39307 0.084488 0.39453 0.18957 7.18e-4 0.10583-0.17628 0.19174-0.39453 0.19149-0.21748-2.689e-4 -0.39329-0.086024-0.39258-0.19149 8.53e-4 -0.099771 0.16002-0.18239 0.36523-0.18957zm0.03711 0.72574c0.0013-3.2e-6 0.0026-3.2e-6 0.0039 0 0.0091-1.536e-4 0.01823-1.536e-4 0.02734 0 0.21749 2.664e-4 0.3933 0.086023 0.39259 0.19149 7.16e-4 0.10546-0.17509 0.19122-0.39258 0.19149-0.21825 2.553e-4 -0.39525-0.085654-0.39453-0.19149-0.0013-0.10017 0.15733-0.18378 0.36328-0.19149zm0.04297 0.69128c0.0091-1.536e-4 0.01823-1.536e-4 0.02734 0 0.21671-2.554e-4 0.39307 0.084488 0.39453 0.18957 7.18e-4 0.10583-0.17628 0.19174-0.39453 0.19149-0.21748-2.69e-4 -0.39329-0.086024-0.39258-0.19149 8.53e-4 -0.099771 0.16002-0.18239 0.36523-0.18957zm0.03906 0.68936c0.0098-1.764e-4 0.01954-1.764e-4 0.0293 0 0.21748 2.686e-4 0.3933 0.086024 0.39258 0.19149 7.16e-4 0.10546-0.1751 0.19122-0.39258 0.19149-0.21825 2.553e-4 -0.39525-0.085655-0.39453-0.19149-0.0012-0.10051 0.15851-0.18425 0.36524-0.19149zm0.03906 0.69128h2e-3c0.0091-1.536e-4 0.01823-1.536e-4 0.02734 0 0.21825-2.553e-4 0.39525 0.085655 0.39453 0.19149-0.0015 0.10509-0.17782 0.18983-0.39453 0.18957-0.21595-2.652e-4 -0.39112-0.084857-0.39258-0.18957-0.001292-0.10017 0.15733-0.18378 0.36328-0.19149zm-5.3828 5.2501c0.03726 3e-7 0.06483 0.00974 0.08594 0.030638 0.02111 0.020903 0.0332 0.049341 0.0332 0.086171 0 0.036729-0.01209 0.067185-0.0332 0.088085-0.02111 0.020902-0.04868 0.030638-0.08594 0.030638-0.03715 0-0.06667-0.00974-0.08789-0.030638-0.02111-0.020903-0.03125-0.051357-0.03125-0.088085 0-0.03683 0.01014-0.06527 0.03125-0.086171 0.02121-0.020902 0.05074-0.030638 0.08789-0.030638zm-0.33984 0.00383h0.09961c0.02949 4e-7 0.05263 0.00626 0.06836 0.019149 0.01583 0.012783 0.02344 0.031791 0.02344 0.055532 0 0.023843-0.0076 0.040732-0.02344 0.053617-0.01573 0.012783-0.040158 0.027802-0.06836 0.019149h-0.03906v0.080425h-0.06055zm0.50391 0h0.06641l0.08398 0.15511v-0.15511h0.05664v0.22787h-0.06641l-0.083976-0.15702v0.15702h-0.05664zm0.23242 0h0.06641l0.05273 0.080425 0.05273-0.080425h0.06445l-0.087879 0.13212v0.095744h-0.06055v-0.09574zm-0.39648 0.038302c-0.01821 3e-7 -0.03293 0.00596-0.04297 0.019149-0.01004 0.013191-0.01563 0.031589-0.01563 0.055532 0 0.023843 0.0056 0.042342 0.01563 0.055532 0.01004 0.013191 0.02475 0.021063 0.04297 0.021063 0.01832 0 0.03099-0.00788 0.04102-0.021063 0.01004-0.013191 0.01563-0.031689 0.01563-0.055532 0-0.023944-0.0056-0.042343-0.01563-0.055532-0.01004-0.013191-0.02271-0.019149-0.04102-0.019149zm-0.2793 0.00383v0.063191h0.0332c0.01159 0 0.01907-0.00217 0.02539-0.00766 0.0063-0.00558 0.0098-0.012831 0.0098-0.022979 0-0.010145-0.0035-0.019415-0.0098-0.024894-0.0063-0.00548-0.01379-0.00766-0.02539-0.00766z" color="#000000" fill="#dfdfdf" fill-rule="evenodd"/>
<path d="m2.2958 9.5208h11.066" fill="none"/>
<path d="m2.5553 0.35587 10.509-0.01331c0.09989-1.2651e-4 0.19693 0.083535 0.20496 0.22976l0.47952 8.7332c0.02043 0.37218-0.19004 0.6288-0.56278 0.6288h-10.747c-0.37274 0-0.5609-0.25661-0.54078-0.6288l0.46621-8.6243c0.01363-0.25204 0.05858-0.32511 0.19176-0.32528z" color="#000000" fill="none"/>
<path d="m3.2221 13h9.5558c0.34498 0 0.30125 0.08438 0.33666 0.19051l0.87372 2.619c0.03541 0.10613 0.0083 0.19051-0.33666 0.19051h-11.303c-0.34499 0-0.37206-0.08438-0.33666-0.19051l0.87372-2.619c0.03541-0.10613-0.0083164-0.19051 0.33666-0.19051z" color="#000000" fill="#dfdfdf" fill-rule="evenodd"/>
<path d="m2.2783 12.634h11.206l0.92854 2.8494h-13.12z" color="#000000" fill="none"/>
</svg>
