<svg width="16" height="16" version="1.1" xmlns="http://www.w3.org/2000/svg">
<defs>
<style id="current-color-scheme" type="text/css">.ColorScheme-Text { color:#dfdfdf; } .ColorScheme-Highlight { color:#4285f4; }</style>
</defs>
<g fill="#dfdfdf">
<path d="m7.8594 1.002c-0.95749-0.04054-1.8672 0.40863-2.4219 1.1621l1.7461 1.627 0.20117 0.039062c0.16839 0.05132 0.34992 0.15662 0.28516 0.40039-0.0010555 0.0039727-0.0027802 0.0059085-0.0039063 0.0097656l1.5762 1.4668 2.6523 0.61328c0.55698 0.15396 0.85547 0.64258 0.85547 0.64258l-0.18359 0.61523s-0.37499-0.53993-0.86719-0.64258l-1.5352-0.36914 1.2188 1.1348 0.13477 0.03125c0.55698 0.15396 1.0234 0.82031 1.0234 0.82031l-0.046875 0.18359 0.35352 0.32812 1.0527-3.8086c0.4058-1.4684-0.46886-2.9449-1.9609-3.3105l-3.5215-0.86328c-0.18651-0.045705-0.37323-0.072229-0.55859-0.080078zm0.96484 3.1133 3.4453 0.79492c0.55698 0.15396 0.85547 0.61328 0.85547 0.61328l-0.16992 0.65625s-0.38866-0.55361-0.88086-0.65625l-3.4063-0.81836c-0.20112-0.05395-0.38718-0.13462-0.31055-0.375 0.077717-0.24377 0.23365-0.25333 0.4668-0.21484zm-4.1406 0.080078-1.584 5.7305c-0.40579 1.4684 0.46886 2.9449 1.9609 3.3105l3.5215 0.86328c1.4921 0.36564 3.018-0.52376 3.4238-1.9922l0.24024-0.87109-1.6699-1.5547-3.0859-0.74219c-0.20112-0.05395-0.38718-0.13462-0.31055-0.375 0.077717-0.24377 0.23169-0.25529 0.46484-0.2168l1.9922 0.45898-1.2539-1.168-0.46484-0.11133c-0.20112-0.05395-0.38913-0.13267-0.3125-0.37305 0.022689-0.071168 0.055874-0.11598 0.091797-0.15234l-1.3828-1.2891-1.5059-0.32031 0.16797-0.57617 0.47266 0.091797-0.76562-0.71289zm-0.095703 2.002 2.0352 0.41211c0.16839 0.05132 0.34797 0.15467 0.2832 0.39844-0.064005 0.24091-0.26006 0.27008-0.44141 0.21875l-2.0449-0.45117 0.16797-0.57812zm-0.36328 1.3848 2.0352 0.43555c0.16839 0.05132 0.34992 0.15271 0.28516 0.39648-0.064004 0.24091-0.2581 0.27203-0.43945 0.2207l-2.0488-0.47461 0.16797-0.57812zm-0.40234 1.3828 2.0352 0.43555c0.16839 0.05132 0.34992 0.15271 0.28516 0.39648-0.064004 0.24091-0.2581 0.27008-0.43945 0.21875l-2.0469-0.47461 0.16602-0.57617zm3.4473 0.79297 3.4453 0.79688c0.55698 0.15396 1.0215 0.82226 1.0215 0.82226l-0.16602 0.6543s-0.55659-0.7587-1.0488-0.86133l-3.4082-0.82227c-0.20112-0.05395-0.36128-0.13071-0.31055-0.37109 0.051336-0.24324 0.23365-0.25724 0.4668-0.21875z"/>
<rect transform="matrix(.72377 .69005 -.6728 .73983 0 0)" x="3.4177" y="-.94198" width="16.432" height="1.6459" fill-rule="evenodd" stroke-width=".82227"/>
<path d="m12 8v0.86328a1 1 0 0 0 0.5 0.13672 1 1 0 0 0 0.24414-0.03125l0.25586 0.23828v-1.207h-1zm0 3.0078v3.0859c0.03848 0.57611-0.41352 1.0264-0.91992 0.93164l-4.4922-0.79102c-0.20875-0.03677-0.7544-0.20085-0.57617-0.79102l-0.94922-0.20508c-0.29779 1.0004 0.54695 1.7057 1.1777 1.834l4.6758 0.89844c1.1296 0.2114 2.1379-0.75254 2.084-1.8086-4.38e-4 -0.0087 5.71e-4 -0.0167 0-0.02539v-2.1973l-1-0.93164z" fill-rule="evenodd"/>
</g>
</svg>
