<svg width="16" height="16" version="1.1" xmlns="http://www.w3.org/2000/svg">
<defs>
<style id="current-color-scheme" type="text/css">.ColorScheme-Text { color:#dfdfdf; } .ColorScheme-Highlight { color:#4285f4; }</style>
</defs>
<path d="m7.8598 1.0026c-1.2976-0.054941-2.5107 0.78603-2.8658 2.0709l-1.8948 6.8522c-0.40579 1.4684 0.46932 2.9457 1.9614 3.3113l3.521 0.8627c1.4921 0.36564 3.0186-0.52307 3.4244-1.9915l1.8948-6.8522c0.4058-1.4684-0.46932-2.9457-1.9614-3.3113l-3.521-0.8627c-0.18651-0.045705-0.37319-0.071554-0.55855-0.079403zm-2.507 2.4314 2.0323 0.39701c0.16839 0.05132 0.35048 0.15539 0.28572 0.39916-0.064005 0.24091-0.25905 0.26807-0.4404 0.21675l-2.0473-0.43564zm3.4716 0.68029 3.4458 0.79617c0.55698 0.15396 0.85501 0.61376 0.85501 0.61376l-0.16971 0.65454s-0.38859-0.5519-0.88079-0.65454l-3.4072-0.81978c-0.20112-0.05395-0.38598-0.13303-0.30935-0.37341 0.077717-0.24377 0.23303-0.25524 0.46618-0.21675zm-3.8476 0.70175 2.0344 0.39701c0.16839 0.051319 0.34834 0.15539 0.28357 0.39916-0.064005 0.24091-0.25905 0.26807-0.4404 0.21675l-2.0452-0.43564zm3.4716 0.70819 3.4458 0.79617c0.55698 0.15396 0.85501 0.64166 0.85501 0.64166l-0.1826 0.61591s-0.3757-0.53901-0.8679-0.64166l-3.405-0.82192c-0.20112-0.05395-0.38813-0.13088-0.3115-0.37126 0.077717-0.24377 0.23303-0.25738 0.46618-0.21889zm-3.8605 0.67385 2.0344 0.41204c0.16839 0.05132 0.34834 0.15324 0.28357 0.39701-0.064005 0.24091-0.25905 0.27022-0.4404 0.21889l-2.0452-0.45066zm3.4845 0.73823 3.4458 0.79617c0.55698 0.15396 1.0226 0.81978 1.0226 0.81978l-0.16757 0.65454s-0.5583-0.75577-1.0505-0.85841l-3.405-0.82192c-0.20112-0.05395-0.38813-0.13088-0.3115-0.37126 0.077717-0.24377 0.23303-0.25738 0.46618-0.21889zm-3.8476 0.64595 2.0344 0.43564c0.16839 0.05132 0.35048 0.15324 0.28572 0.39701-0.064004 0.24091-0.25905 0.27022-0.4404 0.21889l-2.0473-0.47427zm3.4201 0.76613 3.4458 0.79403c0.55698 0.15396 1.0226 0.82192 1.0226 0.82192l-0.16757 0.65454s-0.5583-0.75792-1.0505-0.86055l-3.405-0.81978c-0.20112-0.05395-0.38813-0.13303-0.3115-0.37341 0.077717-0.24377 0.23303-0.25524 0.46618-0.21675zm-3.8218 0.61591 2.0344 0.43564c0.16839 0.05132 0.35048 0.15324 0.28572 0.39701-0.064004 0.24091-0.25905 0.27022-0.4404 0.21889l-2.0473-0.47427zm3.4458 0.79403 3.4458 0.79617c0.55698 0.15396 1.0226 0.82192 1.0226 0.82192l-0.16756 0.65454s-0.55616-0.75792-1.0484-0.86055l-3.4072-0.82192c-0.20112-0.05395-0.36223-0.13088-0.3115-0.37126 0.051336-0.24324 0.23303-0.25738 0.46618-0.21889z" color="#000000" fill="#dfdfdf" fill-rule="evenodd" opacity=".3" stroke-width="1.0991"/>
<g transform="translate(-7.9996 6.1584e-5)" fill="#dfdfdf" fill-rule="evenodd" opacity=".3">
<path d="m20 7.9999v6.1745-0.08091c0.03848 0.57611-0.4132 1.0274-0.9196 0.93266l-4.4935-0.79154c-0.20875-0.03677-0.75407-0.20136-0.57584-0.79153l-0.94948-0.20528c-0.29779 1.0004 0.54842 1.7064 1.1792 1.8347l4.6753 0.89809c1.1296 0.2114 2.1379-0.75295 2.084-1.809-4.38e-4 -0.0087 5.71e-4 -0.01697 0-0.02566l-1e-6 -6.1359z" color="#000000" stroke-width="1.131"/>
<circle cx="20.5" cy="8" r="1" color="#000000" stroke-width="1.1221"/>
</g>
</svg>
