<svg width="16" height="16" version="1.1" xmlns="http://www.w3.org/2000/svg">
<defs>
<style id="current-color-scheme" type="text/css">.ColorScheme-Text { color:#dfdfdf; } .ColorScheme-Highlight { color:#4285f4; }</style>
</defs>
<path d="m2.4961 1.1855c-0.13237-0.00661-0.24731 0.099035-0.2832 0.2207 0.15188 0.33143 0.44222 0.45031 0.78906 0.48828l9.1816 0.65039v10.617l2.3281 0.07813c0.15505 0.0077 0.31055-0.13152 0.31055-0.2793v-5.2461c0-0.1478-0.11273-0.40575-0.38672-0.46094l-1.2051-0.2168c-0.29459-0.059325-0.41211-0.32587-0.41211-0.49805v-4.7109c0-0.14777-0.15354-0.30281-0.30859-0.31055z" fill="#dfdfdf" stroke="#dfdfdf" stroke-linecap="round" stroke-linejoin="round" stroke-width=".36303"/>
<path d="m2.1855 1.3496 0.0019531 12.162c0.01653 0.40275 0.40973 0.69118 0.86914 0.7207 4.3321 0.27879 7.5742 0.58398 7.5742 0.58398 0.09283 0.0254 0.18555-0.059982 0.18555-0.16992v-12.102l-7.8125-0.65039c-0.36839-0.040331-0.67615-0.16332-0.81836-0.54492zm4.2988 3.9531a0.37204 0.37204 0 0 1 0.037109 0 0.37204 0.37204 0 0 1 0.33594 0.25586l0.66602 2 2.1094 0.021484a0.37204 0.37204 0 0 1 0.2168 0.66992l-1.6953 1.2539 0.63086 2.0137a0.37204 0.37204 0 0 1-0.57227 0.41211l-1.7148-1.2266-1.7168 1.2246a0.37204 0.37204 0 0 1-0.57227-0.41797l0.63672-2.0098-1.6934-1.2559a0.37204 0.37204 0 0 1 0.21875-0.67188l2.1094-0.017578 0.66992-1.9961a0.37204 0.37204 0 0 1 0.33398-0.25586z" color="#000000" display="block" fill="#dfdfdf" stroke="#dfdfdf" stroke-linejoin="round" stroke-width=".36507"/>
</svg>
