<svg width="16" height="16" version="1.1" xmlns="http://www.w3.org/2000/svg">
<defs>
<style id="current-color-scheme" type="text/css">.ColorScheme-Text { color:#dfdfdf; } .ColorScheme-Highlight { color:#4285f4; }</style>
</defs>
<path d="m2.4961 1.1855c-0.13237-0.00661-0.24731 0.099035-0.2832 0.2207 0.15188 0.33143 0.44222 0.45031 0.78906 0.48828l9.1816 0.65039v10.617l2.3281 0.07813c0.15505 0.0077 0.31055-0.13152 0.31055-0.2793v-5.2461c0-0.1478-0.11273-0.40575-0.38672-0.46094l-1.2051-0.2168c-0.29459-0.059325-0.41211-0.32587-0.41211-0.49805v-4.7109c0-0.14777-0.15354-0.30281-0.30859-0.31055z" fill="#dfdfdf" stroke="#dfdfdf" stroke-linecap="round" stroke-linejoin="round" stroke-width=".36303"/>
<path d="m2.1855 1.3496 0.001953 7.6504h1.6328v-2.1797h2.3633v6.6406l-3.9961-4.2734v4.3242c0.01653 0.40275 0.40973 0.69118 0.86914 0.7207 4.3321 0.27879 7.5742 0.58398 7.5742 0.58398 0.09283 0.0254 0.18555-0.05998 0.18555-0.16992v-5.6465h-1.6328v2.1836h-2.3633v-6.6445l3.9961 4.3242v-6.3184l-7.8125-0.65039c-0.36839-0.040331-0.67615-0.16332-0.81836-0.54492z" color="#000000" display="block" fill="#dfdfdf" stroke="#dfdfdf" stroke-linejoin="round" stroke-width=".36507"/>
</svg>
