<svg width="16" height="16" version="1.1" xmlns="http://www.w3.org/2000/svg">
<defs>
<style id="current-color-scheme" type="text/css">.ColorScheme-Text { color:#dfdfdf; } .ColorScheme-Highlight { color:#4285f4; }</style>
</defs>
<path d="m8 1c-3.866 0-7 3.134-7 7 0 3.866 3.134 7 7 7 3.866 0 7-3.134 7-7 0-3.866-3.134-7-7-7zm2.8398 3.1406c0.088971-0.0012662 0.16142 0.071185 0.16016 0.16016l-0.0059 5.002c-6.8e-5 0.00785-7.2e-4 0.015684-2e-3 0.023437-0.04024 0.26452-0.24801 0.48152-0.53312 0.66211-0.28511 0.18059-0.66074 0.32598-1.084 0.41016-0.47731 0.09498-0.92938 0.093615-1.291 0.009765-0.36164-0.083854-0.6603-0.25666-0.73242-0.55469-0.072446-0.30231 0.10622-0.68212 0.55469-0.94336 0.41332-0.24076 1.1355-0.3325 2.0938-0.23242v-3.1855l-2.998 0.53125-0.0039062 3.7266c0.00664 0.15491-0.065586 0.29498-0.16992 0.41406-0.10434 0.11909-0.24451 0.22506-0.41016 0.32227-0.33129 0.19442-0.7659 0.35211-1.2148 0.44141-0.47909 0.0953-0.97183 0.09414-1.3711 0.01172-0.19963-0.041209-0.37631-0.10239-0.51953-0.18945-0.14322-0.087062-0.26046-0.20666-0.29883-0.36523-0.036026-0.14886-4.137e-4 -0.30279 0.076172-0.43555 0.076585-0.13276 0.19223-0.25168 0.33789-0.35938 0.29133-0.21539 0.70427-0.38747 1.1816-0.48242 0.48468-0.096406 0.997-0.051162 1.3926 0.037109v-4.2012c1.222e-4 -0.078931 0.058502-0.14565 0.13672-0.15625l4.6816-0.64258c6.57e-4 -6.453e-4 0.0013-0.0013 2e-3 -0.00195 0.0058-9.789e-4 0.01169-0.00163 0.01758-0.00195zm-4.1563 5.623c-6.892e-4 -0.00194-0.00134-0.00389-0.00195-0.00586l0.00195 0.00586z" fill="#4285f4"/>
</svg>
