<svg width="16" height="16" version="1" xmlns="http://www.w3.org/2000/svg">
<defs>
<style id="current-color-scheme" type="text/css">.ColorScheme-Text { color:#dfdfdf; } .ColorScheme-Highlight { color:#4285f4; }</style>
</defs>
<path class="ColorScheme-Text" d="m8 0c-2.2091 0-4 1.7909-4 4s1.7909 4 4 4c2.209 0 4-1.7909 4-4s-1.791-4-4-4zm-1 2h2v1h1v2h-1v1h-2v-1h-1v-2h1z" color="#dfdfdf" fill="currentColor"/>
<path d="m4.2697 7.9231c-3.3023 1.9462-3.7145 4.5814-2.9279 6.141 0.81697 1.6199 2.2003 1.9155 3.8503 1.9279l2.7942 0.007962h0.027287l2.7942-8e-3c1.6499-0.01245 3.0333-0.3081 3.8503-1.9279 0.78658-1.5596 0.37443-4.1947-2.9279-6.141-0.78219 0.85133-2.2646 1.3505-3.7302 1.3647-1.4657-0.014184-2.948-0.51337-3.7302-1.3647z" color="#000000" fill="#dfdfdf" fill-rule="evenodd" stroke-width="1.3481"/>
</svg>
