<svg width="16" height="16" version="1" xmlns="http://www.w3.org/2000/svg">
<defs>
<style id="current-color-scheme" type="text/css">.ColorScheme-Text { color:#dfdfdf; } .ColorScheme-Highlight { color:#4285f4; }</style>
</defs>
<path class="ColorScheme-Text" d="m8 0c-2.2091 0-4 1.7909-4 4s1.7909 4 4 4c2.209 0 4-1.7909 4-4s-1.791-4-4-4zm-1 2h2v1h1v2h-1v1h-2v-1h-1v-2h1z" color="#dfdfdf" fill="currentColor"/>
<path d="m4.2695 7.9238c-3.3023 1.9462-3.7143 4.581-2.9277 6.1406 0.81697 1.6199 2.1996 1.9154 3.8496 1.9277l2.7949 0.007812h0.027344l2.082-0.005859c-0.19652-0.53879-0.082098-1.162 0.35156-1.5957l0.89844-0.89844-0.89844-0.89844c-0.59686-0.59685-0.59686-1.5574 0-2.1543 0.59685-0.59686 1.5574-0.59686 2.1543 0l0.89844 0.89844 0.89062-0.89062c-0.50312-0.87818-1.3491-1.7585-2.6602-2.5312-0.78219 0.85133-2.2649 1.3491-3.7305 1.3633-1.4657-0.014184-2.9483-0.51199-3.7305-1.3633z" color="#000000" fill="#dfdfdf" fill-rule="evenodd" stroke-width="1.3481"/>
<path d="m11.511 10.977c-0.449 1e-4 -0.67 0.5469-0.348 0.8599l1.647 1.646-1.647 1.646c-0.49 0.472 0.236 1.198 0.708 0.708l1.646-1.647 1.646 1.647c0.472 0.49 1.198-0.236 0.708-0.708l-1.647-1.646 1.647-1.646c0.325-0.318 0.091-0.8704-0.364-0.8579-0.13 0.0036-0.253 0.0579-0.344 0.1499l-1.646 1.647-1.646-1.647c-0.095-0.097-0.224-0.1519-0.36-0.1519z" fill="#dfdfdf"/>
</svg>
