<svg width="16" height="16" version="1.1" xmlns="http://www.w3.org/2000/svg">
<defs>
<style id="current-color-scheme" type="text/css">.ColorScheme-Text { color:#444444; } .ColorScheme-Highlight { color:#4285f4; }</style>
</defs>
<path d="m3.0665 2.0035c-0.23883 0-0.39406 0.11228-0.48959 0.32648-4e-7 0-2.4718 6.6181-2.4718 6.6181s-0.09553 0.25985-0.09553 0.68924v3.734c0 0.41891 0.25135 0.62878 0.63289 0.62878h14.736c0.37633 0 0.609-0.27789 0.609-0.71342v-3.734s0.04049-0.29811-0.03582-0.50786l-2.5674-6.6543c-0.070511-0.19808-0.24338-0.38233-0.42989-0.38694z" fill="none"/>
<path d="m3.2461 2c-0.23883 0-0.39666 0.11783-0.49219 0.33203l-2.6445 6.6172c-0.061501 0.15393-0.085713 0.2878-0.087891 0.40625l-0.015625 0.013672v4.002c0 0.41891 0.25323 0.62891 0.63477 0.62891h7.3691a0.91369 0.95574 0 0 1 0.12109-0.43359l1.793-3.25 1.7148-3.1055a5 2.5 0 0 1-0.048828 0.023438c-0.047416 0.024532-0.097111 0.046765-0.14648 0.070312a5 2.5 0 0 1-0.60547 0.25c-0.040157 0.013893-0.08205 0.025748-0.12305 0.039062a5 2.5 0 0 1-0.72266 0.19727c-0.047325 0.01031-0.096458 0.017752-0.14453 0.027344a5 2.5 0 0 1-0.80469 0.125c-0.037982 0.0040354-0.076939 0.0061641-0.11523 0.0097656a5 2.5 0 0 1-0.92773 0.046875h-5v-2.5c0-0.084337 0.0090768-0.16781 0.025391-0.25 0.016554-0.083399 0.04168-0.16531 0.074219-0.24609 0.0035283-0.0087596 0.0099609-0.016664 0.013672-0.025391a5 2.5 0 0 1 0.26758-0.43359c0.0050427-0.0060881 0.0085359-0.011514 0.013672-0.017578 0.004456-0.005261 0.011099-0.010383 0.015625-0.015625a5 2.5 0 0 1 0.42383-0.39062c0.010638-0.0080188 0.018479-0.017437 0.029297-0.025391a5 2.5 0 0 1 0.57617-0.34766c0.013537-0.0068772 0.025368-0.014686 0.039062-0.021484a5 2.5 0 0 1 0.68945-0.2832c0.0211-0.0072772 0.041166-0.014366 0.0625-0.021484a5 2.5 0 0 1 0.77734-0.21094c0.027666-0.006029 0.054107-0.013747 0.082031-0.019531a5 2.5 0 0 1 0.81055-0.12695c0.052917-0.0059563 0.10467-0.012468 0.1582-0.017578a5 2.5 0 0 1 0.94141-0.046875 5 2.5 0 0 1 0.9707 0.048828 5 2.5 0 0 1 0.023438 0.0019531c0.023374 0.0023586 0.045105 0.0052915 0.068359 0.0078126a5 2.5 0 0 1 0.88281 0.13867 5 2.5 0 0 1 0.0019531 0 5 2.5 0 0 1 0.81055 0.2207c0.016636 0.0055183 0.034287 0.01001 0.050782 0.015625a5 2.5 0 0 1 0.69336 0.28516c0.015263 0.0075017 0.031805 0.013886 0.046875 0.021484a5 2.5 0 0 1 0.54883 0.33203c0.022724 0.016274 0.046397 0.032274 0.06836 0.048828a5 2.5 0 0 1 0.40039 0.36914c0.018693 0.021074 0.039089 0.041124 0.056641 0.0625a5 2.5 0 0 1 0.25391 0.4082c0.011265 0.02557 0.025471 0.050315 0.035156 0.076172a5 2.5 0 0 1 0.03711 0.12109c0.011168 0.040789 0.022113 0.081656 0.029297 0.12305a5 2.5 0 0 1 0.021484 0.21875 5 2.5 0 0 1-0.025391 0.25c-0.019828 0.09989-0.056962 0.19689-0.099609 0.29297a5 2.5 0 0 1-0.23438 0.37695c-0.023619 0.02974-0.046455 0.058724-0.072266 0.087891a5 2.5 0 0 1-0.076171 0.083984 0.91369 0.95574 0 0 1 0.05664 0 0.91369 0.95574 0 0 1 0.75 0.47656l1.793 3.248 0.90039 1.6328v-2.5781c0.001699-0.01336-8.42e-4 -0.027338 0-0.041016v-0.082031l-0.011719-0.0019531c-0.0043-0.065576-2.9e-5 -0.12951-0.025391-0.19922l-2.7363-6.6602c-0.07051-0.19808-0.25099-0.38211-0.4375-0.38672h-9.5352z" fill="#dfdfdf"/>
<path d="m3.2029 2.1788c-0.22992 0-0.37937 0.1081-0.47133 0.31431-4e-7 0-2.4513 6.4196-2.4513 6.4196s-0.091968 0.25016-0.091968 0.66353v3.5947c0 0.5242 0.16968 0.62951 0.60928 0.62951h14.401c0.50559 0 0.58629-0.12243 0.58629-0.711v-3.5947s0.03898-0.28699-0.03449-0.48892l-2.5194-6.5029c-0.067881-0.19069-0.21042-0.31971-0.38997-0.32414z" fill="none"/>
<ellipse cx="8" cy="5.5" rx="3" ry="1.5" color="#000000" fill="#dfdfdf" fill-rule="evenodd"/>
<path class="ColorScheme-Highlight" d="m12.463 8a0.71065 0.79561 0 0 0-0.57812 0.39648l-2.7891 5.4102a0.71065 0.79561 0 0 0-0.0957 0.37891 0.71065 0.79561 0 0 0 0.71094 0.81445h5.5781a0.71065 0.79561 0 0 0 0.61523-1.1934l-2.7891-5.4102a0.71065 0.79561 0 0 0-0.58203-0.39648 0.71065 0.79561 0 0 0-0.07031 0zm-0.46289 1h1v3h-1zm0 4h1v1h-1z" color="#4285f4" fill="currentColor"/>
</svg>
