<svg width="32" height="32" version="1" xmlns="http://www.w3.org/2000/svg" xmlns:xlink="http://www.w3.org/1999/xlink">
<defs>
<filter id="filter1008" color-interpolation-filters="sRGB">
<feFlood flood-color="rgb(0,0,0)" flood-opacity=".2" result="flood"/>
<feComposite in="flood" in2="SourceGraphic" operator="in" result="composite1"/>
<feGaussianBlur in="composite1" result="blur"/>
<feOffset dx="0" dy="1" result="offset"/>
<feComposite in="SourceGraphic" in2="offset" result="composite2"/>
</filter>
<filter id="filter1020" color-interpolation-filters="sRGB">
<feFlood flood-color="rgb(255,255,255)" flood-opacity=".10196" result="flood"/>
<feComposite in="flood" in2="SourceGraphic" operator="out" result="composite1"/>
<feGaussianBlur in="composite1" result="blur"/>
<feOffset dx="0" dy="1" result="offset"/>
<feComposite in="offset" in2="SourceGraphic" operator="atop" result="composite2"/>
</filter>
</defs>
<path d="m2.0086 25.366 0.51158-0.40241 25.163 0.03633 2.3166 0.18446v3.743c0 0.65434-0.40613 1.0716-1.0651 1.0716h-25.815c-0.66805 0-1.1119-0.31511-1.1119-0.94448z" fill="#bbb" fill-rule="evenodd" stroke-width="1.3051"/>
<path d="m6.0278 15.955c-0.41782 0-0.68941 0.19404-0.85653 0.56422-7e-7 0-2.9874 7.4249-2.9874 7.4249s-0.16712 0.44907-0.16712 1.1911v3.7781c0 0.72394 0.43974 1.0866 1.1072 1.0866h25.779c0.6584 0 1.0655-0.48025 1.0655-1.2329v-3.7781s0.07083-0.51518-0.06267-0.87768l-3.1545-7.4876c-0.12336-0.34231-0.42578-0.66073-0.75208-0.6687z" fill="none" stroke-width="1.3998"/>
<path d="m16.726 14.438c-1.7547 0-3.1485 0.70342-3.2589 1.5881h-0.04178l-0.85653 3.4689c-0.14624 0.73139 1.3897 2.027 4.1573 2.027 2.7887 0 4.3872-1.3165 4.1155-2.2986l-0.79386-3.1973h-0.04178c-0.10941-0.88528-1.5246-1.5881-3.2799-1.5881z" color="#000000" fill="none" stroke-width="1.3998"/>
<path d="m2.1928 24.333c-0.47751 1.0201-4.115e-4 1.6671 0.69239 1.6671h26.072c0.74809-0.0166 1.2336-0.70499 0.95502-1.493l-3.1516-7.8103c-0.12336-0.35663-0.43772-0.68839-0.76402-0.69669h-19.96c-0.41782 0-0.69239 0.21149-0.85952 0.59716 0 0-2.9845 7.7358-2.9845 7.7358z" fill="#e4e4e4" fill-rule="evenodd" filter="url(#filter1020)" stroke-width="1.4138"/>
<path d="m6.2663 16.257c-0.40224 0-0.6637 0.18681-0.8246 0.54318-7e-7 0-2.9515 7.0821-2.9515 7.0821s-0.1609 0.43233-0.1609 1.1467v3.5375c0 0.90591 0.29685 1.0879 1.0659 1.0879h25.194c0.88453 0 1.0257-0.21158 1.0257-1.2287v-3.5375s0.06819-0.49597-0.06034-0.84494l-3.0706-7.226c-0.11876-0.32954-0.36812-0.55252-0.68224-0.56017z" fill="none" stroke-width="1.3998"/>
<ellipse cx="16.696" cy="20.306" rx="7.6977" ry="3.7576" color="#000000" fill="#fff" fill-opacity=".48023" fill-rule="evenodd" stroke-width="1.3695"/>
<path d="m16.726 2.1295c-2.4463 0-4.4289 1.9832-4.4289 4.4301 0 1.7437 1.0423 3.205 2.5069 3.9286v5.7049c0 0.5443 0.8596 0.98216 1.9219 0.98216 1.0624 0 1.9219-0.43786 1.9219-0.98216v-5.6839c1.4777-0.71899 2.5069-2.1963 2.5069-3.9495 0-2.447-1.9827-4.4301-4.4289-4.4301z" color="#000000" fill="none" stroke-width="1.3998"/>
<path d="m20.049 16.504 0.79386 3.1973c0.27158 0.98216-1.3269 2.2986-4.1155 2.2986-2.7677 0-4.3036-1.2956-4.1573-2.027l0.85653-3.4689z" color="#000000" fill="#aaa" fill-rule="evenodd" stroke-width="1.3998"/>
<ellipse id="path4345" cx="16.709" cy="16.497" rx="3.2849" ry="1.5036" color="#000000" fill="#e4e4e4" fill-rule="evenodd" stroke-width="1.3135"/>
<path d="m23.771 15.165a2.0967 1.0743 0 0 0-2.0975 1.0742 2.0967 1.0743 0 0 0 2.0975 1.0742 2.0967 1.0743 0 0 0 2.0959-1.0742 2.0967 1.0743 0 0 0-2.0959-1.0742z" color="#000000" fill="none" stroke-width=".88696" xlink:href="#path4345"/>
<g fill-rule="evenodd">
<path d="m16.704 5.3808c-1.2693 0-2.2963 0.44919-2.2963 1.0076 0 0.018429 0.0477 0.024689 0.04992 0.042875h-0.04992v9.5183h0.04992c-0.0022 0.01818-0.04992 0.02445-0.04992 0.04287 0 0.55838 1.027 1.0076 2.2963 1.0076 1.2693 0 2.2963-0.44919 2.2963-1.0076 0-0.01843-0.0477-0.02469-0.04992-0.04287h0.04992v-9.5183h-0.04992c0.002187-0.018187 0.04992-0.024447 0.04992-0.042875 0-0.55838-1.027-1.0076-2.2963-1.0076z" color="#000000" fill="#aaa" stroke-width="1.4828"/>
<ellipse cx="16.499" cy="5.4999" rx="3.499" ry="3.4999" color="#000000" fill="#ff8a2b" filter="url(#filter1008)" stroke-width="1.3998"/>
<ellipse cx="6.5" cy="23.5" rx="2.5" ry="1.5" color="#000000" fill="#ff8a2b" stroke-width="1.5593"/>
</g>
<path d="m16.728 2.6164c-2.196 0-3.9733 1.7972-3.9733 3.9939 0 1.5466 1.1097 2.8506 2.399 3.5092v4.7624c-0.57977 0.2644-1.4393 0.69758-1.4494 1.1245l-0.83343 3.4406c-0.13567 0.67856 1.2893 1.8806 3.857 1.8806 2.5871 0 4.0703-1.2214 3.8182-2.1326l-0.81404-3.2467c-0.010637-0.45725-0.81939-0.74353-1.4718-1.0082v-4.8207c1.2893-0.65849 2.4602-1.9626 2.4602-3.5092 0-2.1966-1.7967-3.9939-3.9927-3.9939z" color="#000000" fill="none" opacity=".52571" stroke-width="1.3998"/>
<path d="m30 28.928c0 0.65434-0.40551 1.0723-1.0645 1.0723h-25.816c-0.66805 0-1.1113-0.31595-1.1113-0.94531v1c0 0.62936 0.44328 0.94531 1.1113 0.94531h25.816c0.65894 0 1.0645-0.41793 1.0645-1.0723z" fill-opacity=".2" fill-rule="evenodd" stroke-width="1.3051"/>
<path d="m4.1465 24a2.5 1.5 0 0 0-0.14648 0.5 2.5 1.5 0 0 0 2.5 1.5 2.5 1.5 0 0 0 2.5-1.5 2.5 1.5 0 0 0-0.14648-0.5 2.5 1.5 0 0 1-2.3535 1 2.5 1.5 0 0 1-2.3535-1z" color="#000000" fill-opacity=".2" fill-rule="evenodd" stroke-width="1.5593"/>
</svg>
