<svg width="32" height="32" version="1" xmlns="http://www.w3.org/2000/svg" xmlns:xlink="http://www.w3.org/1999/xlink">
<path id="path4291" d="m5.004 3.0515v24.432c0.042583 0.6354 0.61022 1.272 1.4562 1.2085h19.461c0.54595-0.02607 1.0862-0.47567 1.0782-1.3662v-22.344c0-0.43352-0.14129-0.72476-0.46206-1.0368l-1.6795-1.7156c-0.17552-0.16419-0.28347-0.22938-0.76951-0.22938h-18.33c-0.5728 0.037153-0.79292 0.60501-0.75474 1.0508z" color="#000000" fill="#555753" fill-rule="evenodd" stroke-width="1.3623"/>
<rect x="8" y="4" width="16" height="10" rx="1.0852" ry="1.1161" color="#000000" fill="#edd400" fill-rule="evenodd" stroke-width="1.3801"/>
<rect transform="matrix(1 0 -.0059706 .99998 0 0)" x="8.1136" y="4.8166" width="15.885" height="8.4927" rx=".70028" ry=".64889" color="#000000" fill="none" opacity=".44944" stroke-width="1.375"/>
<g fill-rule="evenodd">
<rect x="6" y="22" width="20" height="7" rx=".52721" ry=".52002" color="#000000" fill="#2e3436" stroke-width="1.4241"/>
<rect x="7" y="23.023" width="18" height="4.9773" rx=".080493" ry=".071718" color="#000000" fill="#eeeeec" stroke-width="1.3128"/>
<rect x="7" y="23" width="18" height="2" rx=".080493" ry=".086452" color="#000000" fill="#8f5902" stroke-width="1.3727"/>
<rect x="8" y="24" width="5" height="1" rx=".064604" ry=".064839" color="#000000" fill="#e9b96e" stroke-width="1.118"/>
<rect x="16" y="24" width="3.0003" height="1" rx=".09639" ry=".064839" color="#000000" fill="#e9b96e" stroke-width="1.2248"/>
</g>
<path d="m6.3803 2.8754v24.443a1.3757 1.3757 0 0 1 0.08056-0.0027h19.393c-0.17552 0.0085-0.22514 0.3529-0.22827-0.0027a1.3757 1.3757 0 0 1 0-0.01347v-22.763c0-0.14861 0.10466 0.081761-0.0564-0.07788a1.3757 1.3757 0 0 1-0.02149-0.024169l-1.5012-1.5603z" color="#000000" fill="none" opacity=".17978" stroke-width="1.375" xlink:href="#path4291"/>
<g fill="#fff" fill-rule="evenodd">
<path d="m12 4.0003v3h2v-3z" color="#000000" opacity=".44944" stroke-width="1.7321"/>
<path d="m15 4v4h2v-4z" color="#000000" opacity=".44944" stroke-width="1.633"/>
<path d="m18 5v4h2v-4z" color="#000000" opacity=".44944" stroke-width="1.633"/>
<path d="m21 4v5h2v-5z" color="#000000" opacity=".44944" stroke-width="1.5811"/>
<path d="m9 4v10h2v-10z" color="#000000" opacity=".44944" stroke-width="1.6903"/>
<path d="m12 9v5h2v-5z" color="#000000" opacity=".44944" stroke-width="1.5811"/>
<path d="m15 10v4h2v-4z" color="#000000" opacity=".44944" stroke-width="1.633"/>
<path d="m18 11v3h2v-3z" color="#000000" opacity=".44944" stroke-width="1.4142"/>
<path d="m21 11v3h2v-3z" color="#000000" opacity=".44944" stroke-width="1.7321"/>
</g>
<g fill-rule="evenodd">
<path d="m6 28.48v1c0 0.28809 0.23527 0.51953 0.52734 0.51953h18.945c0.29208 0 0.52734-0.23144 0.52734-0.51953v-1c0 0.28809-0.23527 0.51953-0.52734 0.51953h-18.945c-0.29208 0-0.52734-0.23144-0.52734-0.51953z" color="#000000" fill-opacity=".2" stroke-width="1.4241"/>
<path d="m27 27.326c8e-3 0.89048-0.53218 1.3392-1.0781 1.3652h-19.461c-0.84603 0.0635-1.4145-0.57358-1.457-1.209v1.002c0.04258 0.6354 0.61101 1.2705 1.457 1.207h19.461c0.54595-0.02607 1.0861-0.47475 1.0781-1.3652z" color="#000000" fill-opacity=".2" stroke-width="1.3623"/>
<path d="m5.7598 1.9996c-0.5728 0.037153-0.79404 0.60495-0.75586 1.0508v1c-0.038184-0.44583 0.18306-1.0136 0.75586-1.0508h18.328c0.48604 0 0.59402 0.064326 0.76953 0.22852l1.6797 1.7168c0.32077 0.31209 0.46289 0.60359 0.46289 1.0371v-1.002c0-0.43352-0.14212-0.72307-0.46289-1.0352l-1.6797-1.7168c-0.17552-0.16419-0.28349-0.22852-0.76953-0.22852z" color="#000000" fill="#fff" fill-opacity=".1" stroke-width="1.3623"/>
</g>
</svg>
