<svg width="32" height="32" version="1" xmlns="http://www.w3.org/2000/svg">
<defs>
<filter id="filter904" color-interpolation-filters="sRGB">
<feFlood flood-color="rgb(0,0,0)" flood-opacity=".2" result="flood"/>
<feComposite in="flood" in2="SourceGraphic" operator="in" result="composite1"/>
<feGaussianBlur in="composite1" result="blur"/>
<feOffset dx="0" dy="1" result="offset"/>
<feComposite in="SourceGraphic" in2="offset" result="composite2"/>
</filter>
<filter id="filter916" color-interpolation-filters="sRGB">
<feFlood flood-color="rgb(0,0,0)" flood-opacity=".2" result="flood"/>
<feComposite in="flood" in2="SourceGraphic" operator="in" result="composite1"/>
<feGaussianBlur in="composite1" result="blur"/>
<feOffset dx="0" dy="1" result="offset"/>
<feComposite in="SourceGraphic" in2="offset" result="composite2"/>
</filter>
<filter id="filter948" color-interpolation-filters="sRGB">
<feFlood flood-color="rgb(255,255,255)" flood-opacity=".10196" result="flood"/>
<feComposite in="flood" in2="SourceGraphic" operator="out" result="composite1"/>
<feGaussianBlur in="composite1" result="blur"/>
<feOffset dx="0" dy="1" result="offset"/>
<feComposite in="offset" in2="SourceGraphic" operator="atop" result="composite2"/>
</filter>
</defs>
<g filter="url(#filter948)">
<path d="m3.6732 3.0009h24.653c0.37355 0 0.67428 0.30919 0.67428 0.69325v24.612c0 0.38406-0.30072 0.69325-0.67428 0.69325h-23.384l-1.942-1.9967v-23.31c0-0.38406 0.30072-0.69325 0.67428-0.69325z" fill="#4967a2" filter="url(#filter904)" stroke-width="1.3"/>
<rect x="7" y="3.2828" width="18" height="14.717" fill="#fff" filter="url(#filter916)" stroke-width="1.2672"/>
<rect x="7" y="3.0009" width="18" height="2.9991" rx=".075725" ry=".094627" fill="#d31c00" stroke-width="1.3885"/>
<rect x="4" y="4.0001" width="2" height="1.9999" rx=".12621" ry=".1262" opacity=".73864" stroke-width="1.9999"/>
<path d="m8.9775 20h12.045c0.54154 0 0.97753 0.45403 0.97753 1.018v7.982h-14v-7.982c0-0.56397 0.43597-1.018 0.97753-1.018z" fill="#858585" stroke-width="1.2792"/>
<rect x="11" y="21" width="4" height="7" rx=".59741" ry=".5224" fill="#4967a2" stroke-width="1.3663"/>
</g>
</svg>
