<svg width="32" height="32" version="1" xmlns="http://www.w3.org/2000/svg">
<rect transform="matrix(0,-1,-1,0,0,0)" x="-30" y="-30" width="9" height="28" rx="1.25" ry="1.25" opacity=".2"/>
<rect transform="matrix(0,-1,-1,0,0,0)" x="-29" y="-30" width="9" height="28" rx="1.25" ry="1.25" fill="#dcdcda"/>
<g fill="none" stroke="#9f9f9f" stroke-linecap="round" stroke-width="1.9992">
<path d="m12 23-2 3"/>
<path d="m9 23-2 3"/>
<path d="m6 23-2 3"/>
<path d="m15 23-2 3"/>
</g>
<circle cx="19.5" cy="23.5" r="1.5" opacity=".2"/>
<circle cx="23.5" cy="23.5" r="1.5" opacity=".2"/>
<circle cx="27.5" cy="23.5" r="1.5" opacity=".2"/>
<circle cx="19.5" cy="22.5" r="1.5" fill="#76ff03"/>
<circle cx="23.5" cy="22.5" r="1.5" fill="#ff0"/>
<circle cx="27.5" cy="22.5" r="1.5" fill="#ffcd40"/>
<path d="m2.9997 19v0.64843c0 0.74866 0.51656 1.3516 1.158 1.3516h23.684c0.64143 0 1.158-0.60292 1.158-1.3516v-0.64843z" fill-opacity=".2" stroke-width="1.8346"/>
<path d="m2.9997 18v0.64843c0 0.74866 0.51656 1.3516 1.158 1.3516h23.684c0.64143 0 1.158-0.60292 1.158-1.3516v-0.64843z" fill="#8e8d87" stroke-width="1.8346"/>
<path d="m4.4786 6h23.041c0.26293 0 0.5989 0.17631 0.80609 0.44292 0.20718 0.26662 1.1858 1.597 1.4056 1.8808 0.21984 0.28391 0.26832 0.55302 0.26832 0.90312v7.7641c0 0.55897-0.49985 1.0089-1.1208 1.0089h-25.758c-0.6209 0-1.1208-0.44999-1.1208-1.0089v-7.3892c0-0.30226 0.069076-1.1107 0.30483-1.3865 0.2975-0.34814 1.0956-1.559 1.3061-1.8158 0.2105-0.25675 0.59704-0.3996 0.86914-0.3996z" color="#000000" fill="#dcdcda" stroke-width="1.7078"/>
<path d="m6.0327 6.269c-0.30325 0-0.67543 0.0559-0.82639 0.35106l-1.1463 1.4776c-0.17019 0.33273 0.020461 0.90236 0.56281 0.90236h22.707c0.79016 0 0.73574-0.72147 0.56281-1.0286l-0.88448-1.1304c-0.19335-0.34342-0.44535-0.57202-0.92823-0.57202z" fill="#fbfbfb" fill-rule="evenodd" stroke-width="1.809"/>
<path d="m4.8023 6.149h22.418c0.2497 0 0.56879 0.18851 0.76554 0.4736 0.19677 0.2851 0.88517 1.4022 1.0939 1.7058 0.20877 0.30352 0.29743 0.59134 0.29743 0.9657v7.7938c0 0.5977-0.09132 0.86296-0.681 0.86296h-25.309c-0.58968 0-0.72359-0.26527-0.72359-0.86296v-7.7938c0-0.3232 0.15079-0.78664 0.37471-1.0817 0.28252-0.37226 0.73924-1.3616 0.93914-1.6362 0.1999-0.27454 0.56702-0.42728 0.82542-0.42728z" color="#000000" fill="none" stroke-width="1.75"/>
<rect x="3.9997" y="11" width="24" height="3" rx="1.1833" ry="1.2373" fill="#f7f6f5" stroke-width="1.7678"/>
<path d="m29.306 8.949h-26.618" fill="none" stroke-width="1.75"/>
<path d="m8.726 1h14.549c0.40166 0 0.72504 0.1542 0.72504 0.34574v5.6538h-15.999v-5.6538c-0.02355-0.24496 0.55946-0.27774 0.72508-0.34574z" color="#000000" display="block" fill="#e0e0e0" stroke-width="1.118"/>
<path d="m5.1345 12.5a1 0.99978 0 0 0-0.13477 0.5 1 0.99978 0 0 0 1 1 1 0.99978 0 0 0 1-1 1 0.99978 0 0 0-0.13477-0.49805 1 0.99978 0 0 1-0.86523 0.49805 1 0.99978 0 0 1-0.86523-0.5z" fill-opacity=".2" stroke-width="1.9996"/>
<ellipse cx="5.9997" cy="12" rx="1" ry=".99978" fill="#9f9f9f" stroke-width="1.9996"/>
</svg>
