<svg width="24" height="24" version="1.1" viewBox="0 0 24 24" xmlns="http://www.w3.org/2000/svg">
<defs>
<style id="current-color-scheme" type="text/css">.ColorScheme-Text { color:#444444; } .ColorScheme-Highlight { color:#4285f4; }</style>
</defs>
<g transform="translate(1 1)" fill="#444">
<path d="m6.4336 3c-0.23725-1.035e-4 -0.42969 0.15565-0.42969 0.34961v5.6484l9.998 0.00391v-5.6484c0-0.19398-0.19048-0.34951-0.42773-0.34961l-9.1406-0.00391zm-1.1934 7.002c-0.13606-1.55e-4 -0.3303 0.08573-0.43555 0.24024-0.10523 0.15454-0.5036 0.88228-0.65234 1.0918-0.11789 0.16605-0.15234 0.42938-0.15234 0.61133v3.9043c0 0.3252 0.23536 0.5841 0.53125 0.60156 0.03365 0.30576 0.26932 0.54483 0.56641 0.54492l10.393 0.0039a3.5 3.5 0 0 1-3.4902-3.5 3.5 3.5 0 0 1 3.3301-3.4941l-10.09-0.0039zm10.369 0.0039a3.5 3.5 0 0 1 1.6992 0.50195c-0.04787-0.077-0.125-0.20107-0.14648-0.23437-0.10359-0.16052-0.27086-0.26753-0.40234-0.26758h-1.1504zm2.3711 5.959a3.5 3.5 0 0 1-2.4648 1.0352h1.4062c0.29849 9.8e-5 0.53457-0.24099 0.56641-0.54883 0.25125-0.02386 0.44547-0.22417 0.49219-0.48633z" stroke-width="1.0193"/>
<path d="m15.592 11c-1.4253 0-2.5918 1.1702-2.5918 2.6016s1.1665 2.6035 2.5918 2.6035c0.46421 0 0.90142-0.14245 1.2793-0.35938a0.71484 0.71788 0 0 0 0.15039 0.20898l1.7559 1.7344a0.71665 0.7197 0 1 0 1.0137-1.0176l-1.7578-1.7344a0.71484 0.71788 0 0 0-0.20898-0.14844c0.216-0.37944 0.35742-0.82086 0.35742-1.2871 0-1.4314-1.1645-2.6016-2.5898-2.6016zm0.02539 1a1.6165 1.6165 0 0 1 1.6152 1.6172 1.6165 1.6165 0 0 1-1.6152 1.6152 1.6165 1.6165 0 0 1-1.6172-1.6152 1.6165 1.6165 0 0 1 1.6172-1.6172z" color="#444444" stroke-width=".95504"/>
</g>
</svg>
