<svg width="24" height="24" version="1.1" viewBox="0 0 24 24" xmlns="http://www.w3.org/2000/svg">
<defs>
<style id="current-color-scheme" type="text/css">.ColorScheme-Text { color:#444444; } .ColorScheme-Highlight { color:#4285f4; }</style>
</defs>
<g transform="translate(.99999 1)">
<path d="m6.4329 4c-0.23725-1.035e-4 -0.42805 0.15601-0.42805 0.34997v5.6484l9.9969 0.0033v-5.6484c0-0.19398-0.1908-0.35018-0.42805-0.35028zm-1.1921 7.0018c-0.13606-1.56e-4 -0.32988 0.08612-0.43513 0.24063-0.10523 0.15454-0.50394 0.88268-0.65268 1.0922-0.11789 0.16605-0.1528 0.42782-0.1528 0.60977v3.9052c0 0.3252 0.23536 0.58413 0.53125 0.60159 0.03365 0.30576 0.26858 0.54473 0.56567 0.54482l11.825 4e-3c0.29849 9.8e-5 0.53383-0.24082 0.56567-0.54866 0.2868-0.02724 0.51205-0.27889 0.51205-0.59705v-3.9052c0-0.21076-0.02365-0.37374-0.13357-0.54468-0.10991-0.17095-0.59971-0.97102-0.7033-1.1316-0.10359-0.16052-0.27128-0.26714-0.40276-0.26719z" fill="#444" stroke-width="1.0193"/>
</g>
</svg>
