<svg width="24" height="24" version="1.1" xmlns="http://www.w3.org/2000/svg">
<defs>
<style id="current-color-scheme" type="text/css">.ColorScheme-Text { color:#444444; } .ColorScheme-Highlight { color:#4285f4; }</style>
</defs>
<g transform="matrix(1 0 0 1.0096 1 .82757)" fill="#444" fill-rule="evenodd" stroke-width="1.2344">
<path d="m3.666 7.5996c-0.016012-0.012714 0.63264 9.1476 0.63281 9.1504 0.060517 0.91478 0.56809 1.2486 1.1367 1.25 0.020308 4.6e-5 10.667-9.53e-4 10.895-2e-3 0.95756-4e-3 1.1909-0.58448 1.2539-1.2207 5e-3 -0.01253 0.64927-9.1661 0.6543-9.1777h-14.572zm4.334 1.4004h1c0.28 0 0.5407 0.10025 0.7207 0.28125l1.2793 1.2773 1.2793-1.2773c0.18-0.181 0.4407-0.28125 0.7207-0.28125h1v1c0 0.276-0.0993 0.53775-0.2793 0.71875l-1.2812 1.2812 1.2812 1.2812c0.18 0.181 0.2793 0.44275 0.2793 0.71875v1h-1c-0.28 0-0.5407-0.10025-0.7207-0.28125l-1.2793-1.2852-1.2793 1.2852c-0.18 0.181-0.4407 0.28125-0.7207 0.28125h-1v-1c0-0.276 0.099297-0.53775 0.2793-0.71875l1.2812-1.2812-1.2812-1.2812c-0.18-0.181-0.2793-0.44275-0.2793-0.71875z"/>
<path d="m16.853 3.1429c-0.047864 0.0016838-11.792 0.022233-11.839 0.022332-0.37928 7.961e-4 -0.69729 0.010028-0.8702 0.34167-0.030043 0.057639-0.94632 2.3962-0.99039 2.4854-0.37703 0.76375-0.028689 1.726 0.69953 1.7195 0.13848-0.00118 14.348 0.00595 14.57 0 0.61989-0.016487 0.69954-1.1312 0.4327-1.6324-0.01511-0.028392-1.2545-2.6051-1.2861-2.6507-0.1461-0.20388-0.4733-0.2942-0.71635-0.28584zm-0.1954 1.1424c0.22619 0.00254 0.20465-0.029755 0.33414 0.1504 0.02799 0.040417 0.81816 1.7908 0.84362 1.8715 0.06268 0.19886-0.02067 0.26384-0.29809 0.26384-0.1957 0-12.853-0.00202-12.975 0-0.34646 0.0056916-0.48927-0.048646-0.38943-0.3286 0.029341-0.082331 0.60271-1.6725 0.6213-1.7264 0.080518-0.23341 0.10382-0.23505 0.46154-0.23078 0.041156 4.998e-4 11.36-4.739e-4 11.402 0z"/>
</g>
</svg>
