<svg width="24" height="24" version="1.1" xmlns="http://www.w3.org/2000/svg">
<defs>
<style id="current-color-scheme" type="text/css">.ColorScheme-Text { color:#444444; } .ColorScheme-Highlight { color:#4285f4; }</style>
</defs>
<path d="m5.3183 6.0002 2e-3 0.00195c-0.12978-0.00646-0.25498 0.088119-0.29883 0.2051-0.0061-0.014319-0.01591-0.02397-0.02148-0.039065v11.536c0 0.0014 0.0018 0.0024 2e-3 0.0039v0.94735c0.01681 0.41356 0.41743 0.70993 0.88477 0.7403 4.4063 0.28626 7.9258 0.59966 7.9258 0.59966 0.09442 0.02608 0.1875-0.06096 0.1875-0.17385v-1.545l3.6797 0.09962c0.1595 0.0079 0.32031-0.13542 0.32031-0.28714v-5.3853c0-0.15174-0.11462-0.41799-0.39648-0.47465l-1.1797-0.22268c-0.30305-0.0609-0.42383-0.33306-0.42383-0.50982v-4.8363c0-0.15171-0.15887-0.3124-0.31836-0.32034l-10.363-0.33987zm4.6816 3.5003v6.0005h-2v-3.0003h-1zm2 1.0001h2v3.0003h1l-3 3.0003z" fill="#444"/>
</svg>
