<svg width="24" height="24" version="1.1" xmlns="http://www.w3.org/2000/svg">
<defs>
<style id="current-color-scheme" type="text/css">.ColorScheme-Text { color:#444444; } .ColorScheme-Highlight { color:#4285f4; }</style>
</defs>
<g transform="translate(4 4.0003)" fill="#444" stroke-width=".77746">
<path d="m1.2449 1.0001 0.0015 0.0015c-0.09983-0.0051-0.19614 0.06924-0.22987 0.16115-0.0047-0.01125-0.01223-0.01883-0.01652-0.03069v9.064c0 0.0011 0.0014 0.0018 0.0015 0.0031v0.74435c0.01293 0.32494 0.3211 0.55781 0.68059 0.58166 3.3895 0.22492 6.171 0.47116 6.171 0.47116 0.07263 0.02049 0.14423-0.04789 0.14423-0.13659v-1.214l2.7563 0.07827c0.12271 0.0062 0.24641-0.1064 0.24641-0.22561v-4.2313c0-0.11923-0.08817-0.32842-0.30498-0.37294l-1.3684-0.17494c-0.23311-0.047856-0.32602-0.26169-0.32602-0.40057v-3.8c0-0.1192-0.12221-0.24546-0.24489-0.25169l-7.5106-0.26704z"/>
<path d="m11.99 5.2402c7.38e-4 0.00833 0.0098 0.01969 0.0098 0.027344v6.2305c0 0.1192-0.12338 0.23276-0.24609 0.22656l-2.7559-0.07813v1.2129c0 0.0887-0.0719 0.15721-0.14453 0.13672 0 0-1.716-0.14126-3.8535-0.30078v1.5c0 0.0011 0.0018 0.0026 2e-3 0.0039v0.74414c0.01293 0.32494 0.3202 0.55818 0.67969 0.58203 3.3895 0.22492 6.1719 0.4707 6.1719 0.4707 0.07263 0.02049 0.14453-0.04802 0.14453-0.13672v-1.2129l2.7559 0.07813c0.12257 0.0062 0.24605-0.10735 0.24605-0.22656v-4.2305c0-0.11923-0.08787-0.32852-0.30469-0.37305l-1.3691-0.17578c-0.23311-0.047856-0.32617-0.26151-0.32617-0.40039v-3.7988c0-0.1192-0.12146-0.24571-0.24414-0.25195z"/>
</g>
</svg>
