<svg width="24" height="24" version="1.1" xmlns="http://www.w3.org/2000/svg">
<defs>
<style id="current-color-scheme" type="text/css">.ColorScheme-Text { color:#444444; } .ColorScheme-Highlight { color:#4285f4; }</style>
</defs>
<g transform="translate(-4.6e-5,1)" fill="#444">
<path d="m5.3184 5 0.00195 0.00195c-0.12978-0.0064572-0.25498 0.088104-0.29882 0.20508-0.00607-0.014319-0.015915-0.023967-0.021484-0.039062v11.537c0 0.0014 0.00184 0.0024 0.00195 0.0039v0.94727c0.01681 0.41356 0.41743 0.70987 0.88477 0.74023 2.0131 0.13079 3.739 0.26147 5.1309 0.37109l-0.01758-0.83202c-0.0111-0.56654 0.17552-1.0885 0.52344-1.4453l0.04297-0.04297-0.0293-0.0293c-0.35677-0.34791-0.54867-0.85767-0.53711-1.4102l0.04102-1.9727 2.0234-0.04102c0.56654-0.01128 1.0885 0.17552 1.4453 0.52344l0.06445 0.0625 0.04297-0.04297c0.34791-0.35677 0.85767-0.54867 1.4102-0.5371l1.9727 0.04102v-1.3379c0-0.15174-0.11462-0.41794-0.39648-0.47461l-1.1797-0.22266c-0.30305-0.0609-0.42383-0.33301-0.42383-0.50976v-4.8359c0-0.15171-0.15887-0.31237-0.31836-0.32031zm12.682 10.531c-0.06745 0.36475-0.22288 0.69187-0.45508 0.94336l0.45508 0.44531z"/>
<path class="ColorScheme-Text" d="m12 14v1c0 0.28 0.1 0.54 0.28 0.72l0.78 0.78-0.78 0.78c-0.18 0.18-0.28 0.44-0.28 0.72v1h1c0.28 0 0.54-0.1 0.72-0.28l0.78-0.78 0.78 0.78c0.18 0.18 0.44 0.28 0.72 0.28h1v-1c0-0.28-0.1-0.54-0.28-0.72l-0.78-0.78 0.78-0.78c0.18-0.18 0.28-0.44 0.28-0.72v-1h-1c-0.28 0-0.54 0.1-0.72 0.28l-0.78 0.78-0.78-0.78c-0.18-0.18-0.44-0.28-0.72-0.28z" color="#444444"/>
</g>
</svg>
