<svg width="24" height="24" version="1.1" xmlns="http://www.w3.org/2000/svg">
<defs>
<style id="current-color-scheme" type="text/css">.ColorScheme-Text { color:#444444; } .ColorScheme-Highlight { color:#4285f4; }</style>
</defs>
<path d="m5.3183 6.0014 2e-3 0.00195c-0.12978-0.00646-0.25498 0.088111-0.29883 0.20508-0.0061-0.014318-0.01591-0.023968-0.02148-0.039062v11.535c0 0.0014 0.0017 0.0024 0.0019 0.0039v0.94727c0.01681 0.41352 0.41743 0.70987 0.88477 0.74023 4.4063 0.28624 7.9258 0.59961 7.9258 0.59961 0.09442 0.02608 0.1875-0.06095 0.1875-0.17383v-1.5449l3.6797 0.09961c0.1595 0.0079 0.32031-0.13541 0.32031-0.28711v-5.3848c0-0.15173-0.11462-0.41795-0.39648-0.47461l-1.1797-0.22266c-0.30305-0.0609-0.42383-0.33303-0.42383-0.50977v-4.8359c0-0.1517-0.15887-0.31237-0.31836-0.32031l-10.363-0.33984zm5.6816 2.998c2.209 0 4 1.791 4 4v0.5c0 0.829-0.672 1.5-1.5 1.5-0.443 0-0.86334-0.19616-1.1484-0.53516-0.3564 0.329-0.82846 0.53516-1.3516 0.53516-1.1046 0-2-0.895-2-2 0-1.1044 0.8954-2 2-2s2 0.8956 2 2v0.5c0 0.2763 0.224 0.5 0.5 0.5s0.5-0.2237 0.5-0.5v-0.5c0-1.6568-1.3431-3-3-3s-3 1.3432-3 3c0 1.657 1.3431 3 3 3h2.5s0.5 0 0.5 0.5c-0.031 0.5-0.5 0.5-0.5 0.5h-2.5c-2.2091 0-4-1.791-4-4s1.7909-4 4-4zm0 3c-0.5523 0-1 0.4479-1 1 0 0.5524 0.4477 1 1 1s1-0.4476 1-1c0-0.5521-0.4477-1-1-1z" fill="#444"/>
</svg>
