<svg width="24" height="24" version="1.1" viewBox="0 0 24 24" xmlns="http://www.w3.org/2000/svg">
<defs>
<style id="current-color-scheme" type="text/css">.ColorScheme-Text { color:#444444; } .ColorScheme-Highlight { color:#4285f4; }</style>
</defs>
<path d="m12 4c-4.4183 0-8 3.5817-8 8s3.5817 8 8 8 8-3.5817 8-8-3.5817-8-8-8zm3.8203 4.1426c0.10046-0.00335 0.18369 0.077223 0.18359 0.17773l-0.0059 5.6289c-4.3e-5 0.0085-6.95e-4 0.01699-2e-3 0.02539-0.04281 0.28077-0.23966 0.53188-0.53125 0.73828s-0.6864 0.37179-1.1641 0.4668c-0.53698 0.10682-1.0463 0.10606-1.4531 0.01172-0.40675-0.09434-0.743-0.28776-0.82413-0.62305-0.08256-0.34058 0.11925-0.76821 0.625-1.0625 0.46561-0.27093 1.2785-0.37266 2.3574-0.25977v-3.5898l-4 0.60742-0.0039 4.1875c0.01331 0.31048-0.18902 0.59271-0.49414 0.81836s-0.72796 0.40474-1.2363 0.50586c-0.5367 0.10676-1.0405 0.10634-1.4414 0.01172-0.40093-0.09462-0.73015-0.28886-0.81055-0.62109-0.07512-0.31038 0.06924-0.63294 0.34766-0.88281 0.27842-0.24988 0.69702-0.44741 1.2363-0.55469 0.53152-0.10572 0.99955-0.05175 1.4043 0.04102v-4.7246c2.97e-4 -0.089615 0.06729-0.16498 0.15625-0.17578l5.6387-0.72461c0.0058-9.425e-4 0.01169-0.00159 0.01758-0.00195z" fill="#444"/>
</svg>
