<svg width="24" height="24" version="1.1" xmlns="http://www.w3.org/2000/svg">
<rect transform="matrix(0,-1,-1,0,0,0)" x="-20.5" y="-23" width="2" height="22" rx="1" ry="1" opacity=".2"/>
<rect transform="matrix(0,-1,-1,0,0,0)" x="-20" y="-23" width="2" height="22" rx="1" ry="1" fill="#8e8e8e"/>
<rect x="2" y="4.5" width="20" height="14" rx="1" ry="1" opacity=".2"/>
<rect x="2" y="4" width="20" height="14" rx="1" ry="1" fill="#4f4f4f"/>
<rect x="4" y="6" width="16" height="10" fill="#5b5b97"/>
<path d="m3 4c-0.554 0-1 0.446-1 1v0.5c0-0.554 0.446-1 1-1h18c0.554 0 1 0.446 1 1v-0.5c0-0.554-0.446-1-1-1z" fill="#fff" opacity=".1"/>
<rect x="4" y="16" width="16" height=".5" fill="#fff" opacity=".1"/>
</svg>
