<svg width="24" height="24" version="1" xmlns="http://www.w3.org/2000/svg">
<defs>
<filter id="filter906" color-interpolation-filters="sRGB">
<feFlood flood-color="rgb(255,255,255)" flood-opacity=".10196" result="flood"/>
<feComposite in="flood" in2="SourceGraphic" operator="out" result="composite1"/>
<feGaussianBlur in="composite1" result="blur"/>
<feOffset dx="0" dy="0.5" result="offset"/>
<feComposite in="offset" in2="SourceGraphic" operator="atop" result="composite2"/>
</filter>
<filter id="filter894" color-interpolation-filters="sRGB">
<feFlood flood-color="rgb(0,0,0)" flood-opacity=".2" result="flood"/>
<feComposite in="flood" in2="SourceGraphic" operator="in" result="composite1"/>
<feGaussianBlur in="composite1" result="blur"/>
<feOffset dx="0" dy="0.5" result="offset"/>
<feComposite in="SourceGraphic" in2="offset" result="composite2"/>
</filter>
</defs>
<g transform="matrix(1 0 0 1.0026 .99971 .98953)">
<path d="m5.6466 3.9999c-0.26882 0-0.44647 0.1497-0.55399 0.42183l-2.9766 8.4069c-0.022973 0.06489-0.018617 0.11172-0.032979 0.17122h17.873c-0.0033-0.016 9.07e-4 -0.03069-0.0044-0.04715l-3.0799-8.4616c-0.07936-0.25165-0.2825-0.48546-0.49243-0.49132z" fill="#8e8e8e" filter="url(#filter906)" opacity=".9" stroke-width="1.1958"/>
<path d="m5.4446 4.5038c-0.26882 0-0.44354 0.12632-0.55106 0.36729l-2.7822 7.4454s-0.10752 0.29233-0.10752 0.7754v4.2008c0 0.47127 0.28291 0.70738 0.71236 0.70738h16.586c0.42358 0 0.68547-0.31263 0.68547-0.8026v-4.2008s0.04557-0.33537-0.04032-0.57134l-2.8898-7.4861c-0.07937-0.22284-0.27394-0.43012-0.48387-0.43531z" fill="none" stroke-width="1.1253"/>
<path d="m5.5981 4.701c-0.25879 0-0.427 0.12161-0.53051 0.3536-1e-6 0-2.7591 7.222-2.7591 7.222s-0.10352 0.28143-0.10352 0.74647v4.044c0 0.58972 0.19099 0.7082 0.68578 0.7082h16.209c0.56907 0 0.6599-0.13773 0.6599-0.79988v-4.044s0.04387-0.32286-0.03882-0.55004l-2.8357-7.3158c-0.076404-0.21453-0.23684-0.35967-0.43894-0.36466z" fill="none" stroke-width="1.1253"/>
<path d="m2.1034 12.967c-0.05159 0.1303-0.08363 0.25187-0.08576 0.35547l-0.017601 0.01367v4.002c0 0.41891 0.28512 0.62891 0.71471 0.62891h16.599c0.42372 0 0.68612-0.27736 0.68612-0.71289v-3.916c0.0019-0.01336-9.46e-4 -0.02734 0-0.04102v-0.08203l-0.0132-0.0019c-0.0048-0.06558-3.6e-5 -0.12951-0.02859-0.19922l-0.02199-0.04688z" fill="#8e8e8e" filter="url(#filter894)" stroke-width="1.0611"/>
<path d="m11.02 4.9998-4 5h8zm-4 6v1h8v-1z" opacity=".5"/>
</g>
</svg>
