<svg width="24" height="24" version="1" xmlns="http://www.w3.org/2000/svg">
<defs>
<filter id="filter906" color-interpolation-filters="sRGB">
<feFlood flood-color="rgb(255,255,255)" flood-opacity=".10196" result="flood"/>
<feComposite in="flood" in2="SourceGraphic" operator="out" result="composite1"/>
<feGaussianBlur in="composite1" result="blur"/>
<feOffset dx="0" dy="0.5" result="offset"/>
<feComposite in="offset" in2="SourceGraphic" operator="atop" result="composite2"/>
</filter>
</defs>
<g transform="translate(.98047 1.003)">
<path d="m5.6466 3.9999c-0.26882 0-0.44647 0.1497-0.55399 0.42183l-2.9766 8.4069c-0.022973 0.06489-0.018617 0.11172-0.032979 0.17122h17.873c-0.0033-0.016 9.07e-4 -0.03069-0.0044-0.04715l-3.0799-8.4616c-0.07936-0.25165-0.2825-0.48546-0.49243-0.49132z" fill="#8e8e8e" filter="url(#filter906)" opacity=".9" stroke-width="1.1958"/>
<path d="m5.4446 4.5038c-0.26882 0-0.44354 0.12632-0.55106 0.36729l-2.7822 7.4454s-0.10752 0.29233-0.10752 0.7754v4.2008c0 0.47127 0.28291 0.70738 0.71236 0.70738h16.586c0.42358 0 0.68547-0.31263 0.68547-0.8026v-4.2008s0.04557-0.33537-0.04032-0.57134l-2.8898-7.4861c-0.07937-0.22284-0.27394-0.43012-0.48387-0.43531z" fill="none" stroke-width="1.1253"/>
<path d="m5.5981 4.701c-0.25879 0-0.427 0.12161-0.53051 0.3536-1e-6 0-2.7591 7.222-2.7591 7.222s-0.10352 0.28143-0.10352 0.74647v4.044c0 0.58972 0.19099 0.7082 0.68578 0.7082h16.209c0.56907 0 0.6599-0.13773 0.6599-0.79988v-4.044s0.04387-0.32286-0.03882-0.55004l-2.8357-7.3158c-0.076404-0.21453-0.23684-0.35967-0.43894-0.36466z" fill="none" stroke-width="1.1253"/>
<path d="m2.1035 12.967c-0.05159 0.13108-0.083808 0.25338-0.085938 0.3576l-0.017578 0.01375v4.026c0 0.42142 0.28525 0.63268 0.71484 0.63268h7.541a7.1476 5.03 0 0 1-6.2559-3.9906h4a3 2.012 0 0 0 3 2.012 3 2.012 0 0 0 3-2.012h4a7.1476 5.03 0 0 1-6.2109 3.9906h7.5254c0.42372 0 0.68555-0.27902 0.68555-0.71716v-3.9395c0.0019-0.01344-9.46e-4 -0.0275 0-0.04126v-0.08252l-0.01367-2e-3c-0.0048-0.06597 0.0012-0.13029-0.02734-0.20041l-0.02344-0.04715h-17.832zm6.8965 1.0394h4a2.0676 1.3413 0 0 1-1.998 1.006 2.0676 1.3413 0 0 1-2.002-1.006z" fill="#8e8e8e" stroke-width="1.003"/>
</g>
</svg>
