<svg width="16" height="16" version="1.1" viewBox="0 0 16 16" xmlns="http://www.w3.org/2000/svg">
<defs>
<style id="current-color-scheme" type="text/css">.ColorScheme-Text { color:#444444; } .ColorScheme-Highlight { color:#5294e2; }</style>
</defs>
<path d="m8.6923 10.817a0.75037 0.75036 37.164 0 1-0.75038 0.75036 0.75037 0.75036 37.164 0 1-0.75038-0.75037 0.75037 0.75036 37.164 0 1 0.75038-0.75036 0.75037 0.75036 37.164 0 1 0.75038 0.75037zm-1.6863-6.4422c-0.0417-3.6e-5 -0.07641 0.056858-0.07641 0.12506l0.34682 4.7037c0 0.068202 0.03475 0.12506 0.07641 0.12508 0 0 0.27389 0.00374 0.49967 6.7e-6 0.07438-0.00107 0.09713 0.00679 0.16458 1.012e-4 0.22578 0.0037 0.49967 6.7e-6 0.49967 6.7e-6 0.0417 3.6e-5 0.07641-0.056858 0.07641-0.12508l0.34684-4.7038c0-0.068202-0.03473-0.11542-0.07641-0.11542l-0.84061-7.45e-5c-3e-3 -6.398e-4 -0.0028-0.00964-0.0059-0.00962zm7.9289 3.6024a7 7.0001 40.55 0 1-6.9999 7 7 7.0001 40.55 0 1-7.0001-7 7 7.0001 40.55 0 1 7.0001-7 7 7.0001 40.55 0 1 6.9999 7z" fill="#808080" fill-rule="evenodd"/>
</svg>
