<svg width="16" height="16" version="1.1" xmlns="http://www.w3.org/2000/svg">
<defs>
<style id="current-color-scheme" type="text/css">.ColorScheme-Text { color:#444444; } .ColorScheme-Highlight { color:#5294e2; }</style>
</defs>
<g stroke-linejoin="round">
<path d="m1.4928 12.746c-0.15527-0.014745-0.31055-0.17542-0.31055-0.32136v-10.982c0-0.14593 0.15527-0.27712 0.31055-0.26238l10.019 0.95113c0.15527 0.014747 0.31054 0.17542 0.31054 0.32136v4.4874c0 0.20828 0.14017 0.42644 0.35465 0.49481l1.3744 0.38903c0.18733 0.059693 0.27172 0.19298 0.27172 0.46362v5.2684c0 0.14593-0.15527 0.27712-0.31054 0.26237z" color="#000000" fill="#b9b9b9" stroke="#b9b9b9" stroke-linecap="round" stroke-width=".35905"/>
<path d="m1.3343 1.2636c-0.077166 0.03641-0.15433 0.10923-0.15433 0.21847v11.725c0 0.07283 0.04609 0.18345 0.096469 0.24927 0.14287 0.1867 0.22347 0.23051 0.35523 0.31426 1.3557 0.86166 7.0341 2.0434 7.0341 2.0434 0.077158 0.03641 0.15433-0.03641 0.15433-0.14564v-12.293c0-0.10923-5.8774-0.58289-7.0381-1.7118l-0.44798-0.43585z" color="#000000" display="block" fill="#808080" stroke="#808080" stroke-width=".3599"/>
</g>
</svg>
