<svg width="16" height="16" version="1.1" viewBox="0 0 16 16" xmlns="http://www.w3.org/2000/svg">
<defs>
<style id="current-color-scheme" type="text/css">.ColorScheme-Text { color:#444444; } .ColorScheme-Highlight { color:#5294e2; }</style>
</defs>
<path d="m10.52 3.5547c-0.4507-0.014065-0.51562 0.35938-0.51562 0.35938v0.84375l-4.541-0.068359c-0.63992-0.0056-1.1449 0.058232-1.5273 0.3125h-1.4219c-1.205 0.085631-1.5607 1.0818-1.5098 1.8711v3.8906c0 1.104 0.7246 2.1847 1.752 2.1484l4.7871 0.087891c0.097104 8.62e-4 0.18968-0.02696 0.2793-0.06641l2.9238 0.05664c0.43456 0.0038 1.0433-0.3016 1.3652-0.69531l2.1758 0.01953c0.22975 2e-3 0.42534-0.16676 0.43945-0.37891l0.27344-4.0879c0.014084-0.21215-0.16088-0.38472-0.39062-0.38672l-2.6074-0.021484v-0.86719c0-0.039762-1.41e-4 -0.074656-2e-3 -0.11328l1.4004 0.00195c0.3305-0.022292 0.59554-0.226 0.60156-0.55859v-1.6523c0.018087-0.35769-0.15758-0.66755-0.65034-0.67188zm-6.0195 2.4453c0.82841 0.0075 1.4999 0.68542 1.5 1.5137 8.07e-5 0.82837-0.67148 1.4936-1.5 1.4863-0.82841-0.0075013-1.4999-0.68542-1.5-1.5137-8.08e-5 -0.82837 0.67148-1.4936 1.5-1.4863z" color="#000000" fill="#808080" stroke-width=".77778"/>
</svg>
