<svg width="16" height="16" version="1.1" viewBox="0 0 16 16" xmlns="http://www.w3.org/2000/svg">
<defs>
<style id="current-color-scheme" type="text/css">.ColorScheme-Text { color:#444444; } .ColorScheme-Highlight { color:#5294e2; }</style>
</defs>
<path d="m7.6348 1c-0.14768 0.00496-0.29245 0.017758-0.4375 0.029297l-0.013672-0.0019531-0.34961 1.877c-0.56565 0.10901-1.0974 0.31955-1.5762 0.59961l-1.5449-1.1719c-0.4208 0.31171-0.81579 0.67765-1.1523 1.0781l1.0938 1.6074c-0.32814 0.4895-0.57587 1.0505-0.71484 1.6465-2.41e-5 0.00284-1.91e-5 0.013174 0 0.013672l-1.8965 0.22461c-0.034438 0.27978-0.042969 0.58088-0.042969 0.87109 0 0.23747 0.0061469 0.46703 0.029297 0.69922l1.8809 0.39844c0.13398 0.65808 0.389 1.277 0.74414 1.8281l-1.123 1.502c0.32088 0.40903 0.6944 0.78006 1.0938 1.1133l1.5898-1.0352c0.55444 0.37253 1.167 0.64575 1.8379 0.79102l0.30469 1.8848c0.21136 0.02656 0.42623 0.02959 0.64258 0.03711 0.30545 0.010609 0.59355 0.014038 0.88867-0.013672l0.36523-1.9043c0.63695-0.1362 1.2303-0.38712 1.75-0.73828l1.5312 1.1562c0.39598-0.32274 0.75175-0.69096 1.0645-1.0957l-1.1074-1.6523c0.30073-0.50831 0.50573-1.0692 0.61133-1.6777l1.8828-0.22656c0.01644-0.19475 0.013672-0.38053 0.013672-0.58008 0-0.34677-0.039011-0.70017-0.087891-1.0352l-1.9102-0.41406c-0.14918-0.55542-0.38922-1.0628-0.69922-1.5352l1.123-1.502c-0.34729-0.43628-0.74519-0.84158-1.1816-1.1895l-1.6191 1.0488c-0.46449-0.29053-0.95918-0.51045-1.502-0.64844l-0.30664-1.9004c-0.27074-0.041215-0.53716-0.060612-0.81641-0.070312-0.075478-0.00262-0.15948-0.0095356-0.23438-0.0097657-0.036515-1.058e-4 -0.065148-0.0028231-0.10156-0.0019531-0.00983 2.152e-4 -0.019443-0.0022651-0.029297-0.0019531zm0.36523 5.002c1.1048 0.038339 2 0.95803 2 2.0605 0 1.1025-0.89523 1.9739-2 1.9355-1.1048-0.038339-2-0.97372-2-2.0762 0-1.1025 0.89523-1.9582 2-1.9199z" color="#000000" fill="#808080" stroke-width="1.0016"/>
</svg>
