<svg width="16" height="16" version="1.1" viewBox="0 0 16 16" xmlns="http://www.w3.org/2000/svg">
<defs>
<style id="current-color-scheme" type="text/css">.ColorScheme-Text { color:#444444; } .ColorScheme-Highlight { color:#5294e2; }</style>
</defs>
<path d="m1.9902 2c-0.53956 7.7e-6 -0.99023 0.4416-0.99023 0.98828v9.0215c0 0.54666 0.45066 0.99024 0.99023 0.99023h9.6699c0.19357-1.56e-4 0.46622-0.1563 0.37891-0.10742 0.05538-0.03097 0.10652-0.06631 0.16016-0.10352h0.001953c0.10644-0.07379 0.22536-0.16389 0.36133-0.27148 0.27324-0.21623 0.60753-0.49971 0.9375-0.78711 0.32988-0.28732 0.65359-0.57656 0.9043-0.81836 0.12578-0.1213 0.23378-0.23152 0.32031-0.32812 0.04022-0.04489 0.082993-0.092284 0.12695-0.1543-0.039889 0.056259 0.005037 0.017456 0.066407-0.089844 0.06148-0.10746 0.082031-0.23432 0.082031-0.34766v-7.0039c0-0.54666-0.44872-0.98826-0.98828-0.98828h-12.021zm0.0097656 1h12v6h-2.3926l0.26953-0.39258h-0.95312s0.8731-0.15619 0.99219-1.1289c0.11909-0.97276-1.3477-2.0625-1.3477-2.0625v0.039062c0.0019 0.011123 0.010332 0.059198 0.013672 0.076172l-1.959 2.9199h1.666l0.30664-2.8535c0.08672 0.42269 0.38398 1.7806 0.13086 2.3477-0.11909 0.54476-0.47656 0.66211-0.47656 0.66211h-1.8262l0.048828 0.39258h-6.4727v-6zm2.5 1c-0.84167-7.1e-6 -1.5 0.69516-1.5 1.5 0 0.84139 0.6949 1.4999 1.5 1.5 0.84165 8.7e-6 1.5-0.69516 1.5-1.5 0-0.84137-0.6949-1.4999-1.5-1.5z" fill="#808080" stroke-width="1.002"/>
</svg>
