<svg width="16" height="16" version="1.1" viewBox="0 0 16 16" xmlns="http://www.w3.org/2000/svg">
<defs>
<style id="current-color-scheme" type="text/css">.ColorScheme-Text { color:#444444; } .ColorScheme-Highlight { color:#5294e2; }</style>
</defs>
<g transform="matrix(1.9489 -.13628 0 1.9489 -34.678 -8.8759)" fill="#808080">
<path d="m22.318 7.1405c-0.09214-0.00644-0.16909 0.039751-0.21274 0.11032l-0.10221-0.00715-0.27975 1.3952-0.32767 0.28s-1.1366-0.042943-2.0179 0.0599c-0.88126 0.10284-1.071 0.37032-1.071 0.57897l0.02396 2.9484 0.05918 0.0041c0.11807 0.18565 0.53818 0.34673 1.0432 0.38204 0.50481 0.0353 0.92443-0.06715 1.0427-0.23618l0.74191 0.05188c-0.07183-0.20124-0.10888-0.41057-0.10955-0.61899-2.94e-4 -1.0129 0.8406-1.7753 1.878-1.7027 1.0373 0.07258 1.8782 0.95253 1.878 1.9653-6.72e-4 0.20833-0.03772 0.41248-0.10955 0.60367l0.36045 0.02521c0.1878 0.03052 0.3751-0.1719 0.3751-0.29361v-3.0376c-0.017072-0.19247-0.6709-0.46431-0.82457-0.49243l-0.41081-0.028727-0.2509-0.32976-0.34821-1.439-0.06994-0.00489c-0.04364-0.076724-0.12056-0.13363-0.21274-0.14008zm0.0054 1.0272 1.0622 0.074281 0.15112 0.52368-1.34-0.093707zm-1.1048 4.5421c0.01963 0.05518 0.04182 0.1096 0.06651 0.16311-0.02469-0.05351-0.04688-0.10794-0.06651-0.16311zm3.5164 0.29529c-0.02193 0.05356-0.04658 0.10586-0.07385 0.15672 0.02727-0.05086 0.05192-0.10316 0.07385-0.15672zm-3.444-0.11857c0.0254 0.0539 0.05331 0.10677 0.08363 0.15844-0.03032-0.05167-0.05823-0.10454-0.08363-0.15844zm3.3661 0.28282c-0.02787 0.05132-0.05839 0.10109-0.09145 0.14913 0.03306-0.04804 0.06358-0.09781 0.09145-0.14913zm-3.2782-0.11724c0.02873 0.04864 0.05957 0.09617 0.09243 0.14242-0.03286-0.04626-0.0637-0.09378-0.09243-0.14242zm0.09243 0.14242c0.0052 0.0074 0.01038 0.01478 0.01565 0.02212-0.0053-0.0073-0.01048-0.01471-0.01565-0.02212zm0.01565 0.02212c0.03067 0.04172 0.06297 0.08232 0.09683 0.1217-0.03386-0.03938-0.06616-0.07998-0.09683-0.1217zm0.09683 0.1217c0.0085 0.0103 0.01718 0.02053 0.02592 0.03067-0.0087-0.01014-0.01738-0.02037-0.02592-0.03067zm0.02592 0.03067c0.03322 0.03704 0.0678 0.07291 0.10368 0.10751-0.03588-0.03461-0.07046-0.07047-0.10368-0.10751zm0.10368 0.10751c0.01016 0.01011 0.02043 0.02012 0.03081 0.03003-0.01038-0.0099-0.02065-0.01992-0.03081-0.03003zm0.03081 0.03003c0.03708 0.03421 0.07542 0.06707 0.11493 0.09851-0.03951-0.03144-0.07785-0.0643-0.11493-0.09851zm0.11493 0.09851c0.01019 0.0085 0.02046 0.01686 0.03081 0.02514-0.01035-0.0083-0.02062-0.01666-0.03081-0.02514zm0.03081 0.02514c0.03908 0.02998 0.07921 0.05856 0.12031 0.08568-0.0411-0.02712-0.08123-0.0557-0.12031-0.08568zm0.12031 0.08568c0.01294 0.0089 0.02598 0.01762 0.03912 0.02621-0.01314-0.0086-0.02618-0.01732-0.03912-0.02621zm0.03912 0.02621c0.04169 0.02602 0.08427 0.05053 0.12765 0.07348-0.04338-0.02295-0.08596-0.04746-0.12765-0.07348zm0.12765 0.07348c0.01313 0.0073 0.02633 0.01439 0.03961 0.02136-0.01328-7e-3 -0.02648-0.0141-0.03961-0.02136zm0.03961 0.02136c0.03858 0.01947 0.07773 0.0377 0.11738 0.05467-0.03965-0.01697-0.0788-0.0352-0.11738-0.05467zm0.11738 0.05467c0.02202 0.0098 0.04419 0.01915 0.06651 0.02813-0.02232-9e-3 -0.04449-0.01836-0.06651-0.02813zm0.06651 0.02813c0.03314 0.01268 0.06658 0.02448 0.10026 0.03538-0.03368-0.0109-0.06712-0.0227-0.10026-0.03538zm0.10026 0.03538c0.02755 0.0094 0.05527 0.01817 0.08314 0.02635-0.02787-0.0082-0.05559-0.01696-0.08314-0.02635zm0.08314 0.02635c0.03244 9e-3 0.06505 0.01713 0.09781 0.02445-0.03276-0.0073-0.06537-0.01547-0.09781-0.02445zm0.09781 0.02445c0.02924 7e-3 0.05859 0.01325 0.08803 0.01887-0.02944-0.0056-0.05879-0.01191-0.08803-0.01887zm0.08803 0.01887c0.03269 0.0057 0.06547 0.01064 0.0983 0.0147-0.03283-0.0041-0.06561-9e-3 -0.0983-0.0147zm0.0983 0.0147c0.03921 0.0059 0.07852 0.01061 0.11786 0.01411-0.03934-0.0035-0.07865-0.0082-0.11786-0.01411zm0.11786 0.01411c0.05275 0.0032 0.10545 0.0043 0.15797 0.0032-0.05252 0.0011-0.10522 4e-5 -0.15797-0.0032zm0.15797 0.0032c0.0309-6.81e-4 0.06172-0.0021 0.09243-0.0043-0.03071 0.0022-0.06153 0.0036-0.09243 0.0043zm0.09243-0.0043c0.03372-0.0018 0.06731-0.0045 0.10075-0.0081-0.03344 0.0036-0.06703 0.0063-0.10075 0.0081zm0.10075-0.0081c0.0239-0.0031 0.04771-0.0066 0.0714-0.01066-0.02369 4e-3 -0.0475 0.0076-0.0714 0.01066zm0.0714-0.01066c0.03795-0.0057 0.07562-0.01248 0.11297-0.02046-0.03735 8e-3 -0.07502 0.0148-0.11297 0.02046zm0.11297-0.02046c0.02016-0.0048 0.04021-0.0099 0.06015-0.01536-0.01994 0.0055-0.03999 0.01058-0.06015 0.01536zm0.06015-0.01536c0.04143-0.01038 0.08238-0.0222 0.12276-0.03543-0.04038 0.01323-0.08133 0.02505-0.12276 0.03543zm0.12276-0.03543c0.0136-0.0048 0.02713-0.0097 0.04059-0.01477-0.01346 0.0051-0.02699 0.01001-0.04059 0.01477zm0.04059-0.01477c0.04398-0.01568 0.08722-0.03305 0.1296-0.05207-0.04238 0.01902-0.08562 0.03639-0.1296 0.05207zm0.1296-0.05207c0.01264-6e-3 0.02519-0.01212 0.03766-0.0184-0.01247 0.0063-0.02502 0.01241-0.03766 0.0184zm0.03766-0.0184c0.0417-0.02001 0.08248-0.04163 0.12226-0.06481-0.03978 0.02318-0.08056 0.0448-0.12226 0.06481zm0.12226-0.06481c0.0125-0.0076 0.02489-0.01539 0.03717-0.02332-0.01228 0.0079-0.02467 0.0157-0.03717 0.02332zm0.03717-0.02332c0.03873-0.02393 0.07641-0.04936 0.11297-0.07622-0.03656 0.02687-0.07424 0.05229-0.11297 0.07622zm0.11297-0.07622c0.01053-8e-3 0.02097-0.01603 0.0313-0.02422-0.01033 0.0082-0.02077 0.01627-0.0313 0.02422zm0.0313-0.02422c0.03927-0.03027 0.07712-0.06222 0.11346-0.09575-0.03634 0.03353-0.07419 0.06548-0.11346 0.09575zm0.34918-0.36878c-0.03297 0.04743-0.06839 0.0931-0.10613 0.13685 0.03774-0.04375 0.07316-0.08942 0.10613-0.13685zm-0.11051 0.14292c-0.03655 0.04223-0.07523 0.08261-0.11591 0.12101 0.04068-0.0384 0.07936-0.07878 0.11591-0.12101z" color="#000000" display="block"/>
<ellipse transform="matrix(.99756 .069758 0 1 0 0)" cx="23.042" cy="10.607" rx="1.6516" ry="1.6086" color="#000000" display="block"/>
</g>
</svg>
