<svg width="16" height="16" version="1.1" viewBox="0 0 16 16" xmlns="http://www.w3.org/2000/svg">
<defs>
<style id="current-color-scheme" type="text/css">.ColorScheme-Text { color:#444444; } .ColorScheme-Highlight { color:#5294e2; }</style>
</defs>
<path d="m2.7207 1c-0.39977-8.65e-5 -0.7207 0.31955-0.7207 0.7168v7.2812c0-0.55144 0.44762-0.99826 1-0.99805 0.55238 1.838e-4 1 0.45053 1 1.002 0 0.55142-0.44762 0.99826-1 0.99805-0.55236-1.712e-4 -1-0.45053-1-1.002v5.2813c0 0.39725 0.32093 0.71668 0.7207 0.7168l10.557 0.003906c0.39977 6e-6 0.72266-0.31957 0.72266-0.7168v-5.2812c0 0.55142-0.44762 0.99826-1 0.99805-0.55236-1.712e-4 -1-0.45053-1-1.002 0-0.55144 0.44762-0.99826 1-0.99805 0.55238 1.838e-4 1 0.45053 1 1.002v-7.2812c0-0.39725-0.32287-0.7167-0.72266-0.7168l-10.557-0.0039062zm5.2793 1c0.55238 1.838e-4 1 0.45053 1 1.002 0 0.55142-0.44762 0.99826-1 0.99805-0.55236-1.712e-4 -1-0.45053-1-1.002 0-0.55144 0.44762-0.99826 1-0.99805zm-3 3c0.55238 1.838e-4 1 0.45053 1 1.002 0 0.55142-0.44762 0.99826-1 0.99805-0.55236-1.712e-4 -1-0.45053-1-1.002 0-0.55144 0.44762-0.99826 1-0.99805zm3 0c0.55238 1.838e-4 1 0.45053 1 1.002 0 0.55142-0.44762 0.99826-1 0.99805-0.55236-1.712e-4 -1-0.45053-1-1.002 0-0.55144 0.44762-0.99826 1-0.99805zm3 0c0.55238 1.838e-4 1 0.45053 1 1.002 0 0.55142-0.44762 0.99826-1 0.99805-0.55236-1.712e-4 -1-0.45053-1-1.002 0-0.55144 0.44762-0.99826 1-0.99805zm-3 3c0.55238 1.838e-4 1 0.45053 1 1.002 0 0.55142-0.44762 0.99826-1 0.99805-0.55236-1.712e-4 -1-0.45053-1-1.002 0-0.55144 0.44762-0.99826 1-0.99805zm0 3c0.55238 1.84e-4 1 0.45053 1 1.002 0 0.55142-0.44762 0.99826-1 0.99805-0.55236-1.71e-4 -1-0.45053-1-1.002 0-0.55144 0.44762-0.99826 1-0.99805z" color="#000000" display="block" fill="#808080" stroke-width=".99638"/>
</svg>
