<svg width="16" height="16" version="1.1" viewBox="0 0 16 16" xmlns="http://www.w3.org/2000/svg">
<defs>
<style id="current-color-scheme" type="text/css">.ColorScheme-Text { color:#444444; } .ColorScheme-Highlight { color:#5294e2; }</style>
</defs>
<path d="m7.9999 1.0003c-3.8658-0.033667-6.9997 3.0726-6.9999 6.9383-4.069e-5 3.8658 3.1339 7.0272 6.9999 7.0611 3.866 0.03378 7-3.0726 7.0001-6.9384 4e-5 -3.8659-3.134-7.0273-7.0001-7.0611zm0 2c2.7615 0.024165 5.0001 2.2823 5.0001 5.0436-2.7e-5 2.7613-2.2387 4.9802-5.0001 4.956-2.7615-0.024165-5.0001-2.2823-5.0001-5.0436 2.75e-5 -2.7613 2.2387-4.9802 5.0001-4.956zm-1 1.9911v1.8827c-0.25868 0.2617-0.4038 0.61513-0.40432 0.9847-5.208e-4 0.37094 0.14467 0.72853 0.40432 0.99575 0 0 0.10101 0.08711 0.16016 0.13812 0.24458 0.18745 0.54277 0.29083 0.84963 0.29456 0.30751 0.00208 0.60645-0.096085 0.85157-0.27963l2.1388 0.018772v-1.9999l-1.877-0.01647c-0.038013-0.048525-0.079121-0.094552-0.12307-0.13779v-1.8632z" fill="#808080"/>
</svg>
