<svg width="16" height="16" version="1.1" viewBox="0 0 16 16" xmlns="http://www.w3.org/2000/svg">
<defs>
<style id="current-color-scheme" type="text/css">.ColorScheme-Text { color:#444444; } .ColorScheme-Highlight { color:#5294e2; }</style>
</defs>
<path d="m7.6941 12.512c-0.052108-0.12588-0.12139-0.26911-0.2057-0.42085l-0.52615 0.21264c-0.37373-0.58291-0.45106-1.8015-0.3812-2.1954 0.16764-0.94505 0.62706-1.7806 0.31226-2.7463-0.36202-1.1106-1.1345-2.8427-2.3772-3.2975-0.71703-0.26248-1.209 0.32892-1.5616 0.84815-0.5406 0.79609-0.83743 1.7616-0.9315 2.6987-0.10675 1.061 0.16315 2.1477 0.69165 3.085 0.50761 0.90075 1.3593 1.6557 1.6995 2.6373-0.13167 0.04046-0.30614 0.12379-0.45921 0.18569 0.032786 0.10078 0.068307 0.19823 0.10636 0.28979 0.36963 0.89226 1.6122 2.672 2.9004 2.0687 1.3109-0.61428 1.1628-2.3269 0.73243-3.3661z" fill="#808080"/>
<path d="m8.3059 8.5117c0.052109-0.12588 0.12139-0.26911 0.2057-0.42085l0.52615 0.21264c0.37373-0.58291 0.45497-1.8015 0.3851-2.1954-0.16764-0.94505-0.62705-1.7806-0.31226-2.7463 0.36202-1.1106 1.1345-2.8427 2.3772-3.2975 0.71702-0.26248 1.2051 0.32892 1.5577 0.84815 0.5406 0.79609 0.83743 1.7616 0.9315 2.6987 0.10675 1.061-0.16315 2.1477-0.69164 3.085-0.50761 0.90075-1.3593 1.6557-1.6995 2.6373l0.4592 0.18569c-0.032787 0.10078-0.068308 0.19823-0.10636 0.28979-0.36964 0.89226-1.6122 2.672-2.9004 2.0687-1.3109-0.61428-1.1628-2.3269-0.73243-3.3661z" fill="#808080"/>
</svg>
