<svg width="16" height="16" version="1.1" viewBox="0 0 16 16" xmlns="http://www.w3.org/2000/svg">
<defs>
<style id="current-color-scheme" type="text/css">.ColorScheme-Text { color:#444444; } .ColorScheme-Highlight { color:#5294e2; }</style>
</defs>
<g transform="matrix(1.0769 0 0 1.0833 -19.461 -1.2494)" fill="#808080" fill-rule="evenodd">
<path d="m19.543 6.5996c-0.01301-0.010269 0.51158 7.3884 0.51172 7.3906 0.04917 0.73886 0.46182 1.0087 0.92383 1.0098 0.0165 3.7e-5 8.6666-0.0012 8.8516-2e-3 0.77801-0.0032 0.96834-0.47249 1.0195-0.98633 0.0041-0.01012 0.52716-7.4027 0.53125-7.4121zm6.1797 1.9297c0.26984 0.00242 0.56842 0.011969 0.68164 0.041016 0.22645 0.058094 0.54297 0.78125 0.54297 0.78125l0.73438-0.50781-0.62109 1.4863-1.6055-0.12109 0.67188-0.40625s-0.26936-0.51804-0.36523-0.67188c-0.0037-0.00588-0.24154-0.52487-0.54883-0.59961 0 0 0.23992-0.00437 0.50976-0.00195zm-0.80859 0.050781c0.39384 0 0.56976 0.33315 0.73828 0.59961l-0.53125 0.99805-1.0918-0.67773s0.49422-0.91992 0.88476-0.91992zm-0.80078 1.5742 0.51172 1.3242-0.63086-0.35938s-0.3769 0.61029-0.4668 0.76758c-0.0034 6e-3 -0.34898 0.46336-0.26562 0.76367 0 0-0.33188-0.92176-0.39062-1.1445-0.05876-0.22278 0.36328-0.81055 0.36328-0.81055l-0.61133-0.4375zm3.8496 0.49023s0.54831 0.89121 0.34766 1.2207c-0.20237 0.33227-0.58529 0.30921-0.9043 0.31445l-0.5957-0.96094zm-1.5078 0.9043v0.78125s0.71888 0.0018 0.90234 0c7e-3 -6.5e-5 0.58354 0.05288 0.80664-0.16797 0 0-0.69625 0.81342-0.86328 0.97461-0.16702 0.16119-0.8457 0.0918-0.8457 0.0918v0.79102l-1.0547-1.2539zm-1.707 0.43359-0.07031 1.2695s-1.0577 0.02287-1.248-0.3125c-0.19189-0.33822 0.01933-0.65316 0.17383-0.92773z"/>
<path d="m30.256 3c-0.03889 0.00136-9.5812 0.017957-9.6191 0.018037-0.30816 6.43e-4 -0.56654 0.0081-0.70703 0.27596-0.02441 0.046555-0.76888 1.9354-0.80469 2.0075-0.30633 0.61687-0.02331 1.3941 0.56836 1.3888 0.11252-9.512e-4 11.658 0.00481 11.838 0 0.50366-0.013317 0.56837-0.91365 0.35156-1.3185-0.01228-0.022932-1.0193-2.1041-1.0449-2.141-0.1187-0.16467-0.38456-0.23763-0.58203-0.23087zm-0.15876 0.92268c0.18378 0.00205 0.16627-0.024033 0.27148 0.12148 0.02274 0.032645 0.66475 1.4464 0.68544 1.5116 0.05092 0.16062-0.0168 0.2131-0.24219 0.2131-0.159 0-10.443-0.00163-10.542 0-0.28149 0.0046-0.39753-0.039291-0.31641-0.26541 0.02384-0.066499 0.4897-1.3509 0.5048-1.3944 0.06542-0.18853 0.08435-0.18985 0.375-0.1864 0.03344 4.036e-4 9.2297-3.828e-4 9.2642 0z"/>
</g>
</svg>
