<svg width="32" height="32" version="1" xmlns="http://www.w3.org/2000/svg">
<defs>
<filter id="filter1017" color-interpolation-filters="sRGB">
<feFlood flood-color="rgb(0,0,0)" flood-opacity=".2" result="flood"/>
<feComposite in="flood" in2="SourceGraphic" operator="in" result="composite1"/>
<feGaussianBlur in="composite1" result="blur"/>
<feOffset dx="0" dy="1" result="offset"/>
<feComposite in="SourceGraphic" in2="offset" result="fbSourceGraphic"/>
<feColorMatrix in="fbSourceGraphic" result="fbSourceGraphicAlpha" values="0 0 0 -1 0 0 0 0 -1 0 0 0 0 -1 0 0 0 0 1 0"/>
<feFlood flood-color="rgb(255,255,255)" flood-opacity=".10196" in="fbSourceGraphic" result="flood"/>
<feComposite in="flood" in2="fbSourceGraphic" operator="out" result="composite1"/>
<feGaussianBlur in="composite1" result="blur"/>
<feOffset dx="0" dy="1" result="offset"/>
<feComposite in="offset" in2="fbSourceGraphic" operator="atop" result="composite2"/>
</filter>
<filter id="filter1041" color-interpolation-filters="sRGB">
<feFlood flood-color="rgb(255,255,255)" flood-opacity=".10196" result="flood"/>
<feComposite in="flood" in2="SourceGraphic" operator="out" result="composite1"/>
<feGaussianBlur in="composite1" result="blur"/>
<feOffset dx="0" dy="1" result="offset"/>
<feComposite in="offset" in2="SourceGraphic" operator="atop" result="fbSourceGraphic"/>
<feColorMatrix in="fbSourceGraphic" result="fbSourceGraphicAlpha" values="0 0 0 -1 0 0 0 0 -1 0 0 0 0 -1 0 0 0 0 1 0"/>
<feFlood flood-color="rgb(0,0,0)" flood-opacity=".2" in="fbSourceGraphic" result="flood"/>
<feComposite in="flood" in2="fbSourceGraphic" operator="in" result="composite1"/>
<feGaussianBlur in="composite1" result="blur"/>
<feOffset dx="0" dy="1" result="offset"/>
<feComposite in="fbSourceGraphic" in2="offset" result="composite2"/>
</filter>
</defs>
<path d="m4.8781 25.093c-0.27412-0.014376-0.54822-0.30336-0.54822-0.57797v-20.664c0-0.27461 0.27412-0.53484 0.54822-0.52047l18.247 0.6177c0.27412 0.014379 0.54823 0.30336 0.54823 0.57796v8.7543c0 0.31995 0.2078 0.81429 0.72861 0.92454l1.5846 0.40329c0.48439 0.10255 0.68333 0.58194 0.68333 0.85659v9.7483c0 0.27461-0.27411 0.53484-0.54822 0.52047z" fill="#b9b9b9" filter="url(#filter1041)" stroke="#b9b9b9" stroke-linecap="round" stroke-linejoin="round" stroke-width=".65802"/>
<path d="m4.3372 26.234c0.029921 0.7482 0.74437 1.284 1.576 1.3389 7.8415 0.51791 14.416 1.0853 14.416 1.0853 0.16804 0.04718 0.33608-0.10982 0.33608-0.31405v-22.481l-14.848-1.2102c-0.66681-0.074924-1.2254-0.30481-1.4827-1.0137z" color="#000000" display="block" fill="#6194cb" filter="url(#filter1017)" stroke="#6194cb" stroke-linejoin="round" stroke-width=".66945"/>
<path d="m12.5 12.057c-2.493-0.19621-4.5 1.6528-4.5 4.1459 0 2.0098 1.305 3.8041 3.1168 4.5278v-0.93496c-1.1391 0.16173-1.3788-0.6095-1.3788-0.6095-0.18629-0.49539-0.45484-0.6444-0.45484-0.6444-0.37183-0.28721 0.027467-0.25163 0.027467-0.25163 0.41104 0.06171 0.6273 0.47893 0.6273 0.47893 0.36529 0.66453 0.95877 0.52804 1.192 0.43989 0.03721-0.2658 0.14348-0.44175 0.26038-0.53651-0.90926-0.17658-1.6974-0.82006-1.6974-2.4146 0-0.45416 0.32992-1.0246 0.59186-1.2946-0.04225-0.10857-0.18342-0.76778 0.03955-1.3229 0 0 0.02148-5e-3 0.06592-0.0036 0.13325 0.0042 0.43301 0.28065 1.0195 0.73062 0.35412-0.07386 0.80719-0.08577 1.0901-0.06581 0.31901 0.0225 0.68839 0.10643 1.0213 0.23199 0.58669-0.35765 0.96146-0.58204 1.0943-0.56538l0.0012 8.8e-5c0.04439 0.0056 0.06592 0.014 0.06592 0.014 0.2235 0.59029 0.08263 1.2285 0.04066 1.3304 0.26242 0.31136 0.58928 0.93343 0.58928 1.3876 0 1.5985-0.95679 2.0994-1.8688 2.1306 0.14682 0.14004 0.18347 0.39767 0.18347 0.78567 0 0.46863-0.0012 0.77311-0.0022 0.96667v0.41638c1.9443-0.34461 3.375-1.9846 3.375-4.0883 0-2.493-2.007-4.658-4.5-4.8542z" fill="#fff" opacity=".75" stroke-width=".5625"/>
</svg>
