<svg width="32" height="32" version="1" xmlns="http://www.w3.org/2000/svg">
<defs>
<filter id="filter1017" color-interpolation-filters="sRGB">
<feFlood flood-color="rgb(0,0,0)" flood-opacity=".2" result="flood"/>
<feComposite in="flood" in2="SourceGraphic" operator="in" result="composite1"/>
<feGaussianBlur in="composite1" result="blur"/>
<feOffset dx="0" dy="1" result="offset"/>
<feComposite in="SourceGraphic" in2="offset" result="fbSourceGraphic"/>
<feColorMatrix in="fbSourceGraphic" result="fbSourceGraphicAlpha" values="0 0 0 -1 0 0 0 0 -1 0 0 0 0 -1 0 0 0 0 1 0"/>
<feFlood flood-color="rgb(255,255,255)" flood-opacity=".10196" in="fbSourceGraphic" result="flood"/>
<feComposite in="flood" in2="fbSourceGraphic" operator="out" result="composite1"/>
<feGaussianBlur in="composite1" result="blur"/>
<feOffset dx="0" dy="1" result="offset"/>
<feComposite in="offset" in2="fbSourceGraphic" operator="atop" result="composite2"/>
</filter>
<filter id="filter1041" color-interpolation-filters="sRGB">
<feFlood flood-color="rgb(255,255,255)" flood-opacity=".10196" result="flood"/>
<feComposite in="flood" in2="SourceGraphic" operator="out" result="composite1"/>
<feGaussianBlur in="composite1" result="blur"/>
<feOffset dx="0" dy="1" result="offset"/>
<feComposite in="offset" in2="SourceGraphic" operator="atop" result="fbSourceGraphic"/>
<feColorMatrix in="fbSourceGraphic" result="fbSourceGraphicAlpha" values="0 0 0 -1 0 0 0 0 -1 0 0 0 0 -1 0 0 0 0 1 0"/>
<feFlood flood-color="rgb(0,0,0)" flood-opacity=".2" in="fbSourceGraphic" result="flood"/>
<feComposite in="flood" in2="fbSourceGraphic" operator="in" result="composite1"/>
<feGaussianBlur in="composite1" result="blur"/>
<feOffset dx="0" dy="1" result="offset"/>
<feComposite in="fbSourceGraphic" in2="offset" result="composite2"/>
</filter>
</defs>
<path d="m4.8781 25.093c-0.27412-0.014376-0.54822-0.30336-0.54822-0.57797v-20.664c0-0.27461 0.27412-0.53484 0.54822-0.52047l18.247 0.6177c0.27412 0.014379 0.54823 0.30336 0.54823 0.57796v8.7543c0 0.31995 0.2078 0.81429 0.72861 0.92454l1.5846 0.40329c0.48439 0.10255 0.68333 0.58194 0.68333 0.85659v9.7483c0 0.27461-0.27411 0.53484-0.54822 0.52047z" fill="#b9b9b9" filter="url(#filter1041)" stroke="#b9b9b9" stroke-linecap="round" stroke-linejoin="round" stroke-width=".65802"/>
<path d="m4.3372 26.234c0.029921 0.7482 0.74437 1.284 1.576 1.3389 7.8415 0.51791 14.416 1.0853 14.416 1.0853 0.16804 0.04718 0.33608-0.10982 0.33608-0.31405v-22.481l-14.848-1.2102c-0.66681-0.074924-1.2254-0.30481-1.4827-1.0137z" color="#000000" display="block" fill="#6194cb" filter="url(#filter1017)" stroke="#6194cb" stroke-linejoin="round" stroke-width=".66945"/>
<path d="m16.084 10.744c-2.22-0.17473-2.6378 2.7924-1.3875 2.8909 1.2481 0.09822 3.609-2.7159 1.3875-2.8909zm-3.4117 0.48149c-0.03524-0.0028-0.07425-0.0022-0.11326-0.0013-1.2713 0.05295-0.82502 2.1394-0.14775 2.2309 0.65476 0.08903 1.3718-2.1361 0.26176-2.2294zm-2.3175 0.56762c-0.09075-0.01102-0.192-0.0068-0.30376 0.01284-1.1895 0.20713-0.18075 1.5285 0.48526 1.497 0.6045-0.02818 0.69226-1.4057-0.18151-1.5098zm-1.6582 1.3695c-0.1065-0.0098-0.222 0.0042-0.34425 0.05164-0.97801 0.38504 0.33001 1.6025 0.90526 1.4753 0.50326-0.1119 0.18225-1.4511-0.561-1.527zm4.5616 1.109c-1.7505-0.16551-4.059 0.4793-4.4535 2.1088-0.426 1.7643 1.7573 4.4291 4.0328 4.6082 1.1198 0.08814 2.4113-0.31349 2.6528-1.5005 0.18375-0.90508-2.3183-0.70596-2.2335-0.09103 0.10125 0.73773-0.42225 0.58028-1.0785 0.05837-1.9276-1.6705 3.4575-1.9712 3.0922-4.0452-0.11324-0.64566-0.96227-1.038-2.0123-1.1371z" fill="#fff" opacity=".75" stroke-width=".75001"/>
</svg>
