<svg width="32" height="32" version="1" xmlns="http://www.w3.org/2000/svg">
<defs>
<filter id="filter1017" color-interpolation-filters="sRGB">
<feFlood flood-color="rgb(0,0,0)" flood-opacity=".2" result="flood"/>
<feComposite in="flood" in2="SourceGraphic" operator="in" result="composite1"/>
<feGaussianBlur in="composite1" result="blur"/>
<feOffset dx="0" dy="1" result="offset"/>
<feComposite in="SourceGraphic" in2="offset" result="fbSourceGraphic"/>
<feColorMatrix in="fbSourceGraphic" result="fbSourceGraphicAlpha" values="0 0 0 -1 0 0 0 0 -1 0 0 0 0 -1 0 0 0 0 1 0"/>
<feFlood flood-color="rgb(255,255,255)" flood-opacity=".10196" in="fbSourceGraphic" result="flood"/>
<feComposite in="flood" in2="fbSourceGraphic" operator="out" result="composite1"/>
<feGaussianBlur in="composite1" result="blur"/>
<feOffset dx="0" dy="1" result="offset"/>
<feComposite in="offset" in2="fbSourceGraphic" operator="atop" result="composite2"/>
</filter>
<filter id="filter1041" color-interpolation-filters="sRGB">
<feFlood flood-color="rgb(255,255,255)" flood-opacity=".10196" result="flood"/>
<feComposite in="flood" in2="SourceGraphic" operator="out" result="composite1"/>
<feGaussianBlur in="composite1" result="blur"/>
<feOffset dx="0" dy="1" result="offset"/>
<feComposite in="offset" in2="SourceGraphic" operator="atop" result="fbSourceGraphic"/>
<feColorMatrix in="fbSourceGraphic" result="fbSourceGraphicAlpha" values="0 0 0 -1 0 0 0 0 -1 0 0 0 0 -1 0 0 0 0 1 0"/>
<feFlood flood-color="rgb(0,0,0)" flood-opacity=".2" in="fbSourceGraphic" result="flood"/>
<feComposite in="flood" in2="fbSourceGraphic" operator="in" result="composite1"/>
<feGaussianBlur in="composite1" result="blur"/>
<feOffset dx="0" dy="1" result="offset"/>
<feComposite in="fbSourceGraphic" in2="offset" result="composite2"/>
</filter>
</defs>
<path d="m4.8781 25.093c-0.27412-0.014376-0.54822-0.30336-0.54822-0.57797v-20.664c0-0.27461 0.27412-0.53484 0.54822-0.52047l18.247 0.6177c0.27412 0.014379 0.54823 0.30336 0.54823 0.57796v8.7543c0 0.31995 0.2078 0.81429 0.72861 0.92454l1.5846 0.40329c0.48439 0.10255 0.68333 0.58194 0.68333 0.85659v9.7483c0 0.27461-0.27411 0.53484-0.54822 0.52047z" fill="#b9b9b9" filter="url(#filter1041)" stroke="#b9b9b9" stroke-linecap="round" stroke-linejoin="round" stroke-width=".65802"/>
<path d="m4.3372 26.234c0.029921 0.7482 0.74437 1.284 1.576 1.3389 7.8415 0.51791 14.416 1.0853 14.416 1.0853 0.16804 0.04718 0.33608-0.10982 0.33608-0.31405v-22.481l-14.848-1.2102c-0.66681-0.074924-1.2254-0.30481-1.4827-1.0137z" color="#000000" display="block" fill="#6194cb" filter="url(#filter1017)" stroke="#6194cb" stroke-linejoin="round" stroke-width=".66945"/>
<path d="m9.4985 11.302-0.44262 0.3697 0.88149 1.0286a1.7016 1.4415 47.526 0 0-0.25668 0.81563 1.7016 1.4415 47.526 0 0 1.2527 1.7433v2.5731a1.7016 1.4415 47.526 0 0-1.2521 1.3238 1.7016 1.4415 47.526 0 0 1.5658 1.8272 1.7016 1.4415 47.526 0 0 1.5652-1.3069 1.7016 1.4415 47.526 0 0-1.2521-1.7426v-2.5731a1.7016 1.4415 47.526 0 0 0.54405-0.13121l0.96476 1.1263a1.7016 1.4415 47.526 0 0-0.25668 0.81376 1.7016 1.4415 47.526 0 0 1.5658 1.8272 1.7016 1.4415 47.526 0 0 1.5658-1.3074 1.7016 1.4415 47.526 0 0-1.5652-1.8271 1.7016 1.4415 47.526 0 0-0.86897 0.12042l-0.96038-1.1219a1.7016 1.4415 47.526 0 0 0.26294-0.82533 1.7016 1.4415 47.526 0 0-1.5652-1.8271 1.7016 1.4415 47.526 0 0-0.86772 0.12062l-0.88024-1.0271z" fill="#fff" opacity=".75" stroke-width=".62606"/>
</svg>
