<svg width="32" height="32" version="1" xmlns="http://www.w3.org/2000/svg">
<defs>
<filter id="filter1017" color-interpolation-filters="sRGB">
<feFlood flood-color="rgb(0,0,0)" flood-opacity=".2" result="flood"/>
<feComposite in="flood" in2="SourceGraphic" operator="in" result="composite1"/>
<feGaussianBlur in="composite1" result="blur"/>
<feOffset dx="0" dy="1" result="offset"/>
<feComposite in="SourceGraphic" in2="offset" result="fbSourceGraphic"/>
<feColorMatrix in="fbSourceGraphic" result="fbSourceGraphicAlpha" values="0 0 0 -1 0 0 0 0 -1 0 0 0 0 -1 0 0 0 0 1 0"/>
<feFlood flood-color="rgb(255,255,255)" flood-opacity=".10196" in="fbSourceGraphic" result="flood"/>
<feComposite in="flood" in2="fbSourceGraphic" operator="out" result="composite1"/>
<feGaussianBlur in="composite1" result="blur"/>
<feOffset dx="0" dy="1" result="offset"/>
<feComposite in="offset" in2="fbSourceGraphic" operator="atop" result="composite2"/>
</filter>
<filter id="filter1041" color-interpolation-filters="sRGB">
<feFlood flood-color="rgb(255,255,255)" flood-opacity=".10196" result="flood"/>
<feComposite in="flood" in2="SourceGraphic" operator="out" result="composite1"/>
<feGaussianBlur in="composite1" result="blur"/>
<feOffset dx="0" dy="1" result="offset"/>
<feComposite in="offset" in2="SourceGraphic" operator="atop" result="fbSourceGraphic"/>
<feColorMatrix in="fbSourceGraphic" result="fbSourceGraphicAlpha" values="0 0 0 -1 0 0 0 0 -1 0 0 0 0 -1 0 0 0 0 1 0"/>
<feFlood flood-color="rgb(0,0,0)" flood-opacity=".2" in="fbSourceGraphic" result="flood"/>
<feComposite in="flood" in2="fbSourceGraphic" operator="in" result="composite1"/>
<feGaussianBlur in="composite1" result="blur"/>
<feOffset dx="0" dy="1" result="offset"/>
<feComposite in="fbSourceGraphic" in2="offset" result="composite2"/>
</filter>
</defs>
<path d="m4.8781 25.093c-0.27412-0.014376-0.54822-0.30336-0.54822-0.57797v-20.664c0-0.27461 0.27412-0.53484 0.54822-0.52047l18.247 0.6177c0.27412 0.014379 0.54823 0.30336 0.54823 0.57796v8.7543c0 0.31995 0.2078 0.81429 0.72861 0.92454l1.5846 0.40329c0.48439 0.10255 0.68333 0.58194 0.68333 0.85659v9.7483c0 0.27461-0.27411 0.53484-0.54822 0.52047z" fill="#b9b9b9" filter="url(#filter1041)" stroke="#b9b9b9" stroke-linecap="round" stroke-linejoin="round" stroke-width=".65802"/>
<path d="m4.3372 26.234c0.029921 0.7482 0.74437 1.284 1.576 1.3389 7.8415 0.51791 14.416 1.0853 14.416 1.0853 0.16804 0.04718 0.33608-0.10982 0.33608-0.31405v-22.481l-14.848-1.2102c-0.66681-0.074924-1.2254-0.30481-1.4827-1.0137z" color="#000000" display="block" fill="#6194cb" filter="url(#filter1017)" stroke="#6194cb" stroke-linejoin="round" stroke-width=".66945"/>
<path d="m12.861 18.151c-0.72011 0.2783-1.0692 0.24697-1.5187 0.17945-0.53686-0.08082-0.96829-0.26202-1.1579-0.40553-0.11701-0.08829-0.27583-0.06993-0.3549 0.04086-0.079087 0.11079-0.048864 0.27197 0.06815 0.36027 0.3054 0.23042 0.8442 0.42649 1.4081 0.51137 0.09516 0.01457-0.12088 0.0014-0.0083 0.01027 0.49057 0.0386 1.1129 0.04129 1.779-0.21618 0.12795-0.04973 0.18388-0.19706 0.12409-0.32971-0.05979-0.1333-0.21153-0.20053-0.33948-0.15081zm2.8412-0.15509c0.02443-2.2195 0.25332-6.398-3.9985-6.3938-4.1978 0.0078-2.7634 4.5552-2.8264 6.0353-0.055293 0.78071-0.50857 1.7056-0.87699 2.6539l1.3271 0.10444c0.11701-0.40486 0.20253-0.80766 0.23982-1.195 0.06815 0.05293 0.14145 0.10436 0.21925 0.15485 0.1273 0.08524 0.23661 0.1935 0.35234 0.3074 0.27003 0.2675 0.57608 0.57063 1.1747 0.65308 0.0405 5e-3 -0.24047-0.01574-0.2006-0.0126 0.60566 0.04766 1.0197-0.18464 1.3521-0.37129 0.15945-0.08968 0.29768-0.16688 0.42692-0.19915 0.36841-0.08609 0.69053-0.24719 0.931-0.46488 0.03729-0.03436 0.07266-0.0695 0.1048-0.10555 0.13438 0.50178 0.31761 1.0685 0.52143 1.6362l2.5512 0.20079c-0.58186-0.94401-1.3103-1.8815-1.2981-3.0038zm-6.4186-1.7139c-0.041788-0.7279 0.3054-1.3107 0.77475-1.3008 0.46935 0.0092 0.88342 0.60767 0.9252 1.3356l6.43e-4 7.02e-4c2e-3 0.03873 0.0026 0.078 0.0026 0.11594-0.14852 0.0256-0.2829 0.06967-0.40313 0.12322 0-0.0051-6.43e-4 -0.01033-0.0013-0.01618-0.03986-0.41462-0.25975-0.74244-0.49057-0.73238-0.23082 0.0096-0.38577 0.35349-0.34526 0.76878 0.017356 0.18075 0.068797 0.34489 0.14081 0.47208-0.018003 0.01272-0.068798 0.04538-0.12666 0.08326-0.043719 0.0287-0.09708 0.06372-0.16074 0.10566-0.17488-0.2433-0.29511-0.58195-0.31633-0.95586zm4.4351 2.1409c-0.01672 0.38124-0.51758 0.70254-0.9805 0.81076l-0.0026 4.41e-4c-0.19224 0.04724-0.36391 0.14366-0.54586 0.24572-0.3054 0.17142-0.62109 0.34846-1.077 0.31259-0.02958-0.0023 0.26039 0.01985 0.23082 0.0156-0.41792-0.05733-0.61337-0.2508-0.86027-0.49591-0.13052-0.12858-0.26554-0.262-0.43977-0.37795l-0.0032-0.0028c-0.37548-0.24108-0.60887-0.52306-0.62366-0.75378-0.00709-0.11435 0.043718-0.20938 0.15109-0.28129 0.23404-0.15711 0.39091-0.25986 0.49443-0.32756 0.11573-0.07511 0.15045-0.09811 0.17617-0.12052 0.018-0.01594 0.03857-0.03361 0.05979-0.05251 0.21474-0.19206 0.25332-0.53878 0.80498-0.49536 0.33755 0.02656 0.7111 0.18584 1.1091 0.47306 0.18774 0.13694 0.3504 0.20567 0.5568 0.29328 0.14209 0.06068 0.30347 0.12869 0.51886 0.23758l0.0032 0.0021c0.20125 0.09814 0.43849 0.2679 0.42756 0.51651zm-0.11058-0.9088c-0.03857-0.02233-0.07909-0.04415-0.12088-0.0648-0.19417-0.09822-0.3504-0.1671-0.47964-0.22228 0.07137-0.13391 0.11573-0.30465 0.12023-0.49333v-6.43e-4c0.0097-0.45959-0.22246-0.85144-0.51886-0.87539-0.2964-0.02396-0.54458 0.32877-0.55422 0.78837v0.04565c-0.1826-0.09859-0.36198-0.1738-0.53815-0.22495-6.43e-4 -0.01741-0.0013-0.03482-2e-3 -0.05222v-6.43e-4c-0.01672-0.83974 0.49764-1.4936 1.1496-1.4597 0.65131 0.03326 1.1933 0.74138 1.2107 1.5818 0.0077 0.37995-0.09387 0.72106-0.26683 0.97816z" fill="#fff" opacity=".75" stroke-width=".64295"/>
</svg>
