<svg width="32" height="32" version="1" xmlns="http://www.w3.org/2000/svg">
<defs>
<filter id="filter992" color-interpolation-filters="sRGB">
<feFlood flood-color="rgb(0,0,0)" flood-opacity=".2" result="flood"/>
<feComposite in="flood" in2="SourceGraphic" operator="in" result="composite1"/>
<feGaussianBlur in="composite1" result="blur"/>
<feOffset dx="0" dy="1" result="offset"/>
<feComposite in="SourceGraphic" in2="offset" result="fbSourceGraphic"/>
<feColorMatrix in="fbSourceGraphic" result="fbSourceGraphicAlpha" values="0 0 0 -1 0 0 0 0 -1 0 0 0 0 -1 0 0 0 0 1 0"/>
<feFlood flood-color="rgb(255,255,255)" flood-opacity=".10196" in="fbSourceGraphic" result="flood"/>
<feComposite in="flood" in2="fbSourceGraphic" operator="out" result="composite1"/>
<feGaussianBlur in="composite1" result="blur"/>
<feOffset dx="0" dy="1" result="offset"/>
<feComposite in="offset" in2="fbSourceGraphic" operator="atop" result="composite2"/>
</filter>
<filter id="filter1016" color-interpolation-filters="sRGB">
<feFlood flood-color="rgb(255,255,255)" flood-opacity=".10196" result="flood"/>
<feComposite in="flood" in2="SourceGraphic" operator="out" result="composite1"/>
<feGaussianBlur in="composite1" result="blur"/>
<feOffset dx="0" dy="1" result="offset"/>
<feComposite in="offset" in2="SourceGraphic" operator="atop" result="fbSourceGraphic"/>
<feColorMatrix in="fbSourceGraphic" result="fbSourceGraphicAlpha" values="0 0 0 -1 0 0 0 0 -1 0 0 0 0 -1 0 0 0 0 1 0"/>
<feFlood flood-color="rgb(0,0,0)" flood-opacity=".2" in="fbSourceGraphic" result="flood"/>
<feComposite in="flood" in2="fbSourceGraphic" operator="in" result="composite1"/>
<feGaussianBlur in="composite1" result="blur"/>
<feOffset dx="0" dy="1" result="offset"/>
<feComposite in="fbSourceGraphic" in2="offset" result="composite2"/>
</filter>
<filter id="filter1040" color-interpolation-filters="sRGB">
<feFlood flood-color="rgb(0,0,0)" flood-opacity=".2" result="flood"/>
<feComposite in="flood" in2="SourceGraphic" operator="in" result="composite1"/>
<feGaussianBlur in="composite1" result="blur"/>
<feOffset dx="0" dy="1" result="offset"/>
<feComposite in="SourceGraphic" in2="offset" result="fbSourceGraphic"/>
<feColorMatrix in="fbSourceGraphic" result="fbSourceGraphicAlpha" values="0 0 0 -1 0 0 0 0 -1 0 0 0 0 -1 0 0 0 0 1 0"/>
<feFlood flood-color="rgb(255,255,255)" flood-opacity=".10196" in="fbSourceGraphic" result="flood"/>
<feComposite in="flood" in2="fbSourceGraphic" operator="out" result="composite1"/>
<feGaussianBlur in="composite1" result="blur"/>
<feOffset dx="0" dy="1" result="offset"/>
<feComposite in="offset" in2="fbSourceGraphic" operator="atop" result="composite2"/>
</filter>
</defs>
<g transform="translate(1.0039 .99467)" fill="#b9b9b9" filter="url(#filter992)" stroke="#b9b9b9">
<path d="m7.6879 12.197c0-0.4894-0.38901-0.87838-0.87838-0.87838h-1.1208v-2.0612c0-0.4894-0.38901-0.87838-0.87838-0.87838h-2.6196c-0.48939 0-0.87838 0.38901-0.87838 0.87838v8.2379c0 0.48939 0.38902 0.87838 0.87838 0.87838h2.6196c0.4894 0 0.87737-0.38902 0.87838-0.87838v-1.7997h1.1208c0.4894 0 0.87838-0.38902 0.87838-0.87838z" color="#000000" display="block" stroke-width=".62465"/>
<rect transform="rotate(90)" x="2.3085" y="-4.6972" width="22.394" height="2.3943" color="#000000" display="block" stroke-width=".60566"/>
</g>
<path d="m8.8438 24.244c-0.2622-0.013825-0.52439-0.29172-0.52439-0.55579v-19.871c0-0.26407 0.2622-0.51432 0.52439-0.50049l17.323 0.59401c0.2622 0.013827 0.52439 0.29172 0.52439 0.55579v8.4182c0 0.30768 0.19876 0.78309 0.69698 0.88911l1.6463 0.38782c0.46333 0.09862 0.65366 0.5596 0.65366 0.8237v9.3746c0 0.26408-0.2622 0.51432-0.52439 0.50049z" fill="#b9b9b9" filter="url(#filter1040)" stroke="#b9b9b9" stroke-linecap="round" stroke-linejoin="round" stroke-width=".63108"/>
<path d="m8.3251 25.343c0.02815 0.71963 0.70022 1.235 1.4825 1.2878 7.3764 0.49813 13.561 1.0439 13.561 1.0439 0.15807 0.04539 0.31615-0.10564 0.31615-0.30207v-21.624l-13.968-1.164c-0.62728-0.072069-1.1527-0.29318-1.3949-0.97502z" color="#000000" display="block" fill="#6194cb" filter="url(#filter1016)" stroke="#6194cb" stroke-linejoin="round" stroke-width=".63679"/>
</svg>
