<svg width="32" height="32" version="1" xmlns="http://www.w3.org/2000/svg">
<defs>
<filter id="filter1017" color-interpolation-filters="sRGB">
<feFlood flood-color="rgb(0,0,0)" flood-opacity=".2" result="flood"/>
<feComposite in="flood" in2="SourceGraphic" operator="in" result="composite1"/>
<feGaussianBlur in="composite1" result="blur"/>
<feOffset dx="0" dy="1" result="offset"/>
<feComposite in="SourceGraphic" in2="offset" result="fbSourceGraphic"/>
<feColorMatrix in="fbSourceGraphic" result="fbSourceGraphicAlpha" values="0 0 0 -1 0 0 0 0 -1 0 0 0 0 -1 0 0 0 0 1 0"/>
<feFlood flood-color="rgb(255,255,255)" flood-opacity=".10196" in="fbSourceGraphic" result="flood"/>
<feComposite in="flood" in2="fbSourceGraphic" operator="out" result="composite1"/>
<feGaussianBlur in="composite1" result="blur"/>
<feOffset dx="0" dy="1" result="offset"/>
<feComposite in="offset" in2="fbSourceGraphic" operator="atop" result="composite2"/>
</filter>
<filter id="filter1041" color-interpolation-filters="sRGB">
<feFlood flood-color="rgb(255,255,255)" flood-opacity=".10196" result="flood"/>
<feComposite in="flood" in2="SourceGraphic" operator="out" result="composite1"/>
<feGaussianBlur in="composite1" result="blur"/>
<feOffset dx="0" dy="1" result="offset"/>
<feComposite in="offset" in2="SourceGraphic" operator="atop" result="fbSourceGraphic"/>
<feColorMatrix in="fbSourceGraphic" result="fbSourceGraphicAlpha" values="0 0 0 -1 0 0 0 0 -1 0 0 0 0 -1 0 0 0 0 1 0"/>
<feFlood flood-color="rgb(0,0,0)" flood-opacity=".2" in="fbSourceGraphic" result="flood"/>
<feComposite in="flood" in2="fbSourceGraphic" operator="in" result="composite1"/>
<feGaussianBlur in="composite1" result="blur"/>
<feOffset dx="0" dy="1" result="offset"/>
<feComposite in="fbSourceGraphic" in2="offset" result="composite2"/>
</filter>
</defs>
<path d="m4.8781 25.093c-0.27412-0.014376-0.54822-0.30336-0.54822-0.57797v-20.664c0-0.27461 0.27412-0.53484 0.54822-0.52047l18.247 0.6177c0.27412 0.014379 0.54823 0.30336 0.54823 0.57796v8.7543c0 0.31995 0.2078 0.81429 0.72861 0.92454l1.5846 0.40329c0.48439 0.10255 0.68333 0.58194 0.68333 0.85659v9.7483c0 0.27461-0.27411 0.53484-0.54822 0.52047z" fill="#b9b9b9" filter="url(#filter1041)" stroke="#b9b9b9" stroke-linecap="round" stroke-linejoin="round" stroke-width=".65802"/>
<path d="m4.3372 26.234c0.029921 0.7482 0.74437 1.284 1.576 1.3389 7.8415 0.51791 14.416 1.0853 14.416 1.0853 0.16804 0.04718 0.33608-0.10982 0.33608-0.31405v-22.481l-14.848-1.2102c-0.66681-0.074924-1.2254-0.30481-1.4827-1.0137z" color="#000000" display="block" fill="#6194cb" filter="url(#filter1017)" stroke="#6194cb" stroke-linejoin="round" stroke-width=".66945"/>
<path d="m5.9999 17.039 3.9026 1.9068c0.02925 1.0566 0.89245 1.9643 1.9474 2.0487 1.0771 0.08477 1.9539-0.75752 1.95-1.7965l2.6-1.7454c1.4475 0.11393 2.6-0.9595 2.6-2.3953s-1.1642-2.6916-2.6-2.8047c-1.4359-0.11302-2.6007 0.94716-2.6 2.3953l-1.95 2.4465c-0.3536-0.02782-0.7033 0.04346-1.0069 0.20416l-4.8432-2.3696m10.4-2.0265c1.0771 0.08477 1.95 1.0264 1.95 2.1035s-0.87295 1.8813-1.95 1.7965c-1.0764-0.08471-1.9299-1.2146-1.95-2.1035 0-1.0771 0.87295-1.8813 1.95-1.7965zm0 0.65c-0.71825-0.05653-1.3 0.47944-1.3 1.1977 0 0.71827 0.58175 1.3458 1.3 1.4023 0.71825 0.05652 1.3-0.47944 1.3-1.1977 0-0.71827-0.58175-1.3458-1.3-1.4023zm-4.55 4.1919c0.71825 0.05652 1.3 0.68408 1.3 1.4024 0 0.71825-0.58175 1.2542-1.3 1.1977-0.5876-0.04624-1.1024-0.48066-1.2558-1.0601l0.58045 0.28358c0.49985 0.24409 1.0673 0.0515 1.272-0.43223 0.20475-0.48374-0.03185-1.0698-0.5317-1.3139l-0.1651-0.07994c0.03315-6.09e-4 0.06695 8.05e-4 0.1001 0.0027z" fill="#fff" opacity=".75" stroke-width=".65"/>
</svg>
