<svg width="32" height="32" version="1" xmlns="http://www.w3.org/2000/svg">
<defs>
<filter id="filter1017" color-interpolation-filters="sRGB">
<feFlood flood-color="rgb(0,0,0)" flood-opacity=".2" result="flood"/>
<feComposite in="flood" in2="SourceGraphic" operator="in" result="composite1"/>
<feGaussianBlur in="composite1" result="blur"/>
<feOffset dx="0" dy="1" result="offset"/>
<feComposite in="SourceGraphic" in2="offset" result="fbSourceGraphic"/>
<feColorMatrix in="fbSourceGraphic" result="fbSourceGraphicAlpha" values="0 0 0 -1 0 0 0 0 -1 0 0 0 0 -1 0 0 0 0 1 0"/>
<feFlood flood-color="rgb(255,255,255)" flood-opacity=".10196" in="fbSourceGraphic" result="flood"/>
<feComposite in="flood" in2="fbSourceGraphic" operator="out" result="composite1"/>
<feGaussianBlur in="composite1" result="blur"/>
<feOffset dx="0" dy="1" result="offset"/>
<feComposite in="offset" in2="fbSourceGraphic" operator="atop" result="composite2"/>
</filter>
<filter id="filter1041" color-interpolation-filters="sRGB">
<feFlood flood-color="rgb(255,255,255)" flood-opacity=".10196" result="flood"/>
<feComposite in="flood" in2="SourceGraphic" operator="out" result="composite1"/>
<feGaussianBlur in="composite1" result="blur"/>
<feOffset dx="0" dy="1" result="offset"/>
<feComposite in="offset" in2="SourceGraphic" operator="atop" result="fbSourceGraphic"/>
<feColorMatrix in="fbSourceGraphic" result="fbSourceGraphicAlpha" values="0 0 0 -1 0 0 0 0 -1 0 0 0 0 -1 0 0 0 0 1 0"/>
<feFlood flood-color="rgb(0,0,0)" flood-opacity=".2" in="fbSourceGraphic" result="flood"/>
<feComposite in="flood" in2="fbSourceGraphic" operator="in" result="composite1"/>
<feGaussianBlur in="composite1" result="blur"/>
<feOffset dx="0" dy="1" result="offset"/>
<feComposite in="fbSourceGraphic" in2="offset" result="composite2"/>
</filter>
</defs>
<path d="m4.8781 25.093c-0.27412-0.014376-0.54822-0.30336-0.54822-0.57797v-20.664c0-0.27461 0.27412-0.53484 0.54822-0.52047l18.247 0.6177c0.27412 0.014379 0.54823 0.30336 0.54823 0.57796v8.7543c0 0.31995 0.2078 0.81429 0.72861 0.92454l1.5846 0.40329c0.48439 0.10255 0.68333 0.58194 0.68333 0.85659v9.7483c0 0.27461-0.27411 0.53484-0.54822 0.52047z" fill="#b9b9b9" filter="url(#filter1041)" stroke="#b9b9b9" stroke-linecap="round" stroke-linejoin="round" stroke-width=".65802"/>
<path d="m4.3372 26.234c0.029921 0.7482 0.74437 1.284 1.576 1.3389 7.8415 0.51791 14.416 1.0853 14.416 1.0853 0.16804 0.04718 0.33608-0.10982 0.33608-0.31405v-22.481l-14.848-1.2102c-0.66681-0.074924-1.2254-0.30481-1.4827-1.0137z" color="#000000" display="block" fill="#6194cb" filter="url(#filter1017)" stroke="#6194cb" stroke-linejoin="round" stroke-width=".66945"/>
<path d="m-3.9961 18.975v-2e-3c-6.041e-4 2.82e-4 0 0.0013 0 2e-3z" fill="#800000" opacity=".75" stroke-width="1.125"/>
<path d="m14.406 12.564c-0.35412-0.03577-0.39648 0.25391-0.39648 0.25391l-0.009766 0.66211-3.4941-0.29688c-0.50279-0.03956-0.89874 0.06148-1.1992 0.24023l-1.1172-0.0625c-0.9468 0.0011-1.2256 0.66992-1.1855 1.293v3.0566c0 0.86747 0.56776 1.7905 1.375 1.8184l3.7617 0.29883c0.07629 6e-3 0.14833-0.009046 0.21875-0.035156l2.2988 0.20508c0.34144 0.02687 0.81935-0.181 1.0723-0.47266l1.709 0.13476c0.18052 0.0142 0.33462-0.10753 0.3457-0.27344l0.21484-3.1973c0.01109-0.16591-0.12613-0.31197-0.30664-0.32617l-1.6953-0.13281v-0.68164c0-0.03125-0.006413-0.059384-0.007813-0.089844l0.53125 0.03711c0.25969 6.38e-4 0.46793-0.14525 0.47266-0.40625v-1.2988c0.01416-0.28005-0.1226-0.53398-0.50977-0.56445l-2.0781-0.16211zm-4.4766 1.4492a1.0356 0.95621 42.505 0 1 0.070312 0.001953 1.0356 0.95621 42.505 0 1 1 1.0703 1.0356 0.95621 42.505 0 1-1 0.91016 1.0356 0.95621 42.505 0 1-1-1.0684 1.0356 0.95621 42.505 0 1 0.92969-0.91406z" color="#000000" fill="#fff" opacity=".75" stroke-width=".61111"/>
</svg>
