<svg width="32" height="32" version="1" xmlns="http://www.w3.org/2000/svg">
<defs>
<filter id="filter1017" color-interpolation-filters="sRGB">
<feFlood flood-color="rgb(0,0,0)" flood-opacity=".2" result="flood"/>
<feComposite in="flood" in2="SourceGraphic" operator="in" result="composite1"/>
<feGaussianBlur in="composite1" result="blur"/>
<feOffset dx="0" dy="1" result="offset"/>
<feComposite in="SourceGraphic" in2="offset" result="fbSourceGraphic"/>
<feColorMatrix in="fbSourceGraphic" result="fbSourceGraphicAlpha" values="0 0 0 -1 0 0 0 0 -1 0 0 0 0 -1 0 0 0 0 1 0"/>
<feFlood flood-color="rgb(255,255,255)" flood-opacity=".10196" in="fbSourceGraphic" result="flood"/>
<feComposite in="flood" in2="fbSourceGraphic" operator="out" result="composite1"/>
<feGaussianBlur in="composite1" result="blur"/>
<feOffset dx="0" dy="1" result="offset"/>
<feComposite in="offset" in2="fbSourceGraphic" operator="atop" result="composite2"/>
</filter>
<filter id="filter1041" color-interpolation-filters="sRGB">
<feFlood flood-color="rgb(255,255,255)" flood-opacity=".10196" result="flood"/>
<feComposite in="flood" in2="SourceGraphic" operator="out" result="composite1"/>
<feGaussianBlur in="composite1" result="blur"/>
<feOffset dx="0" dy="1" result="offset"/>
<feComposite in="offset" in2="SourceGraphic" operator="atop" result="fbSourceGraphic"/>
<feColorMatrix in="fbSourceGraphic" result="fbSourceGraphicAlpha" values="0 0 0 -1 0 0 0 0 -1 0 0 0 0 -1 0 0 0 0 1 0"/>
<feFlood flood-color="rgb(0,0,0)" flood-opacity=".2" in="fbSourceGraphic" result="flood"/>
<feComposite in="flood" in2="fbSourceGraphic" operator="in" result="composite1"/>
<feGaussianBlur in="composite1" result="blur"/>
<feOffset dx="0" dy="1" result="offset"/>
<feComposite in="fbSourceGraphic" in2="offset" result="composite2"/>
</filter>
</defs>
<path d="m4.8781 25.093c-0.27412-0.014376-0.54822-0.30336-0.54822-0.57797v-20.664c0-0.27461 0.27412-0.53484 0.54822-0.52047l18.247 0.6177c0.27412 0.014379 0.54823 0.30336 0.54823 0.57796v8.7543c0 0.31995 0.2078 0.81429 0.72861 0.92454l1.5846 0.40329c0.48439 0.10255 0.68333 0.58194 0.68333 0.85659v9.7483c0 0.27461-0.27411 0.53484-0.54822 0.52047z" fill="#b9b9b9" filter="url(#filter1041)" stroke="#b9b9b9" stroke-linecap="round" stroke-linejoin="round" stroke-width=".65802"/>
<path d="m4.3372 26.234c0.029921 0.7482 0.74437 1.284 1.576 1.3389 7.8415 0.51791 14.416 1.0853 14.416 1.0853 0.16804 0.04718 0.33608-0.10982 0.33608-0.31405v-22.481l-14.848-1.2102c-0.66681-0.074924-1.2254-0.30481-1.4827-1.0137z" color="#000000" display="block" fill="#6194cb" filter="url(#filter1017)" stroke="#6194cb" stroke-linejoin="round" stroke-width=".66945"/>
<path d="m12.775 13.024c-1.4494-0.11338-2.7549 0.6596-3.3054 1.9571-1.4017 0.03341-2.4681 1.1295-2.4696 2.5385 1.18e-5 1.5188 1.2312 2.8469 2.75 2.9664l6.4625 0.50861c0.98718 0.0777 1.7875-0.65959 1.7875-1.6469 0-0.67485-0.37828-1.2853-0.93025-1.633 0.24556-0.27657 0.38006-0.63835 0.38027-1.0228 2.4e-5 -0.91129-0.73873-1.7082-1.65-1.7799-0.0043-3.83e-4 -0.0086-7.5e-4 -0.0129-0.0011-0.65682-1.0795-1.7924-1.7909-3.0121-1.887zm0.05078 1.1c1.3669 0.10756 2.475 1.3029 2.475 2.6698-3.2e-5 1.3669-1.1081 2.3878-2.475 2.2802-1.3669-0.10755-2.475-1.3029-2.475-2.6698 3.2e-5 -1.3669 1.1081-2.3878 2.475-2.2802zm0 0.55c-1.0632-0.08367-1.925 0.71037-1.925 1.7735 2.3e-5 1.0631 0.86186 1.9928 1.925 2.0765 1.0632 0.08367 1.925-0.71037 1.925-1.7735-2.1e-5 -1.0631-0.86186-1.9928-1.925-2.0765zm-0.825 0.48507 1.375 0.10822c0.45562 0.03588 0.82498 0.43431 0.825 0.88993 2.6e-5 0.45566-0.36934 0.79596-0.825 0.76009l-0.825-0.06493v1.1l-0.55-0.04328v-1.1zm0.55 0.59329v0.55l0.825 0.06493c0.15188 0.01195 0.275-0.10148 0.275-0.25336-1e-6 -0.15188-0.12312-0.28469-0.275-0.29664z" fill="#fff" opacity=".75" stroke-width=".55"/>
</svg>
