<svg width="32" height="32" version="1" xmlns="http://www.w3.org/2000/svg">
<defs>
<filter id="filter994" color-interpolation-filters="sRGB">
<feFlood flood-color="rgb(0,0,0)" flood-opacity=".2" result="flood"/>
<feComposite in="flood" in2="SourceGraphic" operator="in" result="composite1"/>
<feGaussianBlur in="composite1" result="blur"/>
<feOffset dx="0" dy="1" result="offset"/>
<feComposite in="SourceGraphic" in2="offset" result="fbSourceGraphic"/>
<feColorMatrix in="fbSourceGraphic" result="fbSourceGraphicAlpha" values="0 0 0 -1 0 0 0 0 -1 0 0 0 0 -1 0 0 0 0 1 0"/>
<feFlood flood-color="rgb(255,255,255)" flood-opacity=".10196" in="fbSourceGraphic" result="flood"/>
<feComposite in="flood" in2="fbSourceGraphic" operator="out" result="composite1"/>
<feGaussianBlur in="composite1" result="blur"/>
<feOffset dx="0" dy="1" result="offset"/>
<feComposite in="offset" in2="fbSourceGraphic" operator="atop" result="composite2"/>
</filter>
<filter id="filter1018" color-interpolation-filters="sRGB">
<feFlood flood-color="rgb(255,255,255)" flood-opacity=".10196" result="flood"/>
<feComposite in="flood" in2="SourceGraphic" operator="out" result="composite1"/>
<feGaussianBlur in="composite1" result="blur"/>
<feOffset dx="0" dy="1" result="offset"/>
<feComposite in="offset" in2="SourceGraphic" operator="atop" result="fbSourceGraphic"/>
<feColorMatrix in="fbSourceGraphic" result="fbSourceGraphicAlpha" values="0 0 0 -1 0 0 0 0 -1 0 0 0 0 -1 0 0 0 0 1 0"/>
<feFlood flood-color="rgb(0,0,0)" flood-opacity=".2" in="fbSourceGraphic" result="flood"/>
<feComposite in="flood" in2="fbSourceGraphic" operator="in" result="composite1"/>
<feGaussianBlur in="composite1" result="blur"/>
<feOffset dx="0" dy="1" result="offset"/>
<feComposite in="fbSourceGraphic" in2="offset" result="composite2"/>
</filter>
</defs>
<path d="m4.8861 24.22c-0.27786-0.027911-0.55574-0.33202-0.55574-0.60822v-20.784c0-0.2762 0.27786-0.5245 0.55574-0.49659l18.231 1.8001c0.27786 0.027912 0.55573 0.33202 0.55573 0.60822v8.493c0 0.39421 0.25084 0.8071 0.63466 0.9365l1.8761 0.73629c0.33524 0.11297 0.48627 0.36524 0.48627 0.87747v9.9711c0 0.2762-0.27786 0.5245-0.55573 0.49659z" color="#000000" fill="#b9b9b9" filter="url(#filter1018)" stroke="#b9b9b9" stroke-linecap="round" stroke-linejoin="round" stroke-width=".66078"/>
<path d="m4.626 2.5016c-0.14471 0.067937-0.28941 0.20382-0.28941 0.40764v21.877c0 0.13588 0.086429 0.34229 0.1809 0.46511 0.26793 0.34836 0.41906 0.4301 0.66615 0.58637 2.5424 1.6078 13.19 3.8128 13.19 3.8128 0.1447 0.06794 0.2894-0.06794 0.2894-0.27176v-22.938c0-0.20382-11.022-1.0876-13.198-3.1939l-0.84007-0.81323z" color="#000000" display="block" fill="#6194cb" filter="url(#filter994)" stroke="#6194cb" stroke-linejoin="round" stroke-width=".6732"/>
<path d="m13.33 12.542c-0.28972-0.08553-0.32433 0.19821-0.32433 0.19821l-8e-3 0.66074-3.1294-0.86041c-0.41136-0.11021-0.7353-0.064812-0.98113 0.071717l-0.91404-0.21949c-0.77463-0.13195-1.0027 0.4977-0.96992 1.1264v3.0566c0 0.86747 0.46451 1.8703 1.125 2.0116l3.0776 0.82745c0.06242 0.01672 0.12136 0.01185 0.17897-0.0044l1.8808 0.52811c0.27935 0.07485 0.67035-0.06586 0.8773-0.32198l1.3982 0.37491c0.14769 0.03957 0.27377-0.06051 0.28284-0.22486l0.17577-3.1671c0.0091-0.16436-0.10319-0.32972-0.25088-0.36928l-1.7503-0.46839v-0.68164c0-0.03125 3.24e-4 -0.05879-8.76e-4 -0.08946l0.61667 0.16054c0.21246 0.03713 0.38284-0.0795 0.38671-0.33983v-1.2988c0.01159-0.27809-0.10031-0.55124-0.41707-0.63611l-1.2539-0.33457zm-3.9332 0.74762c0.019135 0.0031 0.038323 0.0071 0.057526 0.01191 0.45234 0.1213 0.81881 0.66366 0.81815 1.2108-5.52e-4 0.54615-0.36667 0.89056-0.81815 0.76964-0.45172-0.12113-0.81794-0.66227-0.81815-1.2089 1.673e-4 -0.51957 0.33227-0.86162 0.76063-0.78342z" color="#000000" fill="#fff" opacity=".75" stroke-width=".55276"/>
</svg>
