<svg width="32" height="32" version="1" xmlns="http://www.w3.org/2000/svg">
<defs>
<filter id="filter1482" color-interpolation-filters="sRGB">
<feFlood flood-color="rgb(0,0,0)" flood-opacity=".2" result="flood"/>
<feComposite in="flood" in2="SourceGraphic" operator="in" result="composite1"/>
<feGaussianBlur in="composite1" result="blur"/>
<feOffset dx="0" dy="1" result="offset"/>
<feComposite in="SourceGraphic" in2="offset" result="fbSourceGraphic"/>
<feColorMatrix in="fbSourceGraphic" result="fbSourceGraphicAlpha" values="0 0 0 -1 0 0 0 0 -1 0 0 0 0 -1 0 0 0 0 1 0"/>
<feFlood flood-color="rgb(255,255,255)" flood-opacity=".10196" in="fbSourceGraphic" result="flood"/>
<feComposite in="flood" in2="fbSourceGraphic" operator="out" result="composite1"/>
<feGaussianBlur in="composite1" result="blur"/>
<feOffset dx="0" dy="1" result="offset"/>
<feComposite in="offset" in2="fbSourceGraphic" operator="atop" result="composite2"/>
</filter>
</defs>
<g transform="translate(-.36052 1.5487)" fill-rule="evenodd" filter="url(#filter1482)" stroke-linecap="round" stroke-linejoin="round">
<path d="m7.8373 9.7355-3.5109 10.363c-0.09915 0.29265 0.12648 0.61466 0.40061 0.61435l23.005-0.02424c0.40185-4.19e-4 0.68654-0.4688 0.52399-0.88294l-3.9134-9.9708c-0.11101-0.28282-0.48463-0.5265-0.84524-0.52686l-14.926-0.014719c-0.28234-2.783e-4 -0.60495 0.064834-0.73286 0.44239z" fill="#c1c3ae" stroke="#c1c3ae" stroke-width=".60049"/>
<g fill="#5a7aa4" stroke="#5a7aa4">
<path transform="matrix(.5909 0 0 .5909 2.1787 1.5848)" d="m43.672 26.877c-0.09146-0.21864-0.30772-0.37644-0.62306-0.37259l-1.9452 0.02378-3.1001 3.8369s0.51061 1.3141 0.29499 2.1537c-0.44357 0.4115 0.0089 0.68434 0.0089 0.68434h6.3218c0.48629 0 1.0929-1.2837 0.79022-2.0453-0.77502-1.9501-0.90053-2.2558-1.7476-4.2808z" color="#000000"/>
<path transform="matrix(.5909 0 0 .5909 2.1787 1.5848)" d="m9.0409 15.78 5.2761-2.6906c0.35016-0.17857-0.29797-0.98657-0.68772-0.98657h-4.2123l-1.2035 3.2288c-0.17129 0.45953 0.32205 1.8984 0.48355 1.435z" color="#000000" stroke-width=".8"/>
<path transform="matrix(.5909 0 0 .5909 2.1787 1.5848)" d="m37.869 15.78-5.2761-2.6906c-0.35016-0.17857 0.29797-0.98657 0.68772-0.98657h4.2123l1.2035 3.2288c0.17129 0.45953-0.32205 1.8984-0.48355 1.435z" color="#000000" stroke-width=".8"/>
<path transform="matrix(.5909 0 0 .5909 2.1787 1.5848)" d="m4.3288 26.877c0.09146-0.21864 0.30772-0.37644 0.62306-0.37259l1.9452 0.02378 3.1001 3.8369s-0.51061 1.3141-0.29499 2.1537c0.44357 0.4115-0.00895 0.68434-0.00895 0.68434h-6.3218c-0.48629 0-1.0929-1.2837-0.79022-2.0453 0.77502-1.9501 0.90053-2.2558 1.7476-4.2808z" color="#000000"/>
</g>
</g>
</svg>
