<svg width="32" height="32" version="1" xmlns="http://www.w3.org/2000/svg">
<defs>
<filter id="filter960" color-interpolation-filters="sRGB">
<feFlood flood-color="rgb(0,0,0)" flood-opacity=".2" result="flood"/>
<feComposite in="flood" in2="SourceGraphic" operator="in" result="composite1"/>
<feGaussianBlur in="composite1" result="blur"/>
<feOffset dx="0" dy="1" result="offset"/>
<feComposite in="SourceGraphic" in2="offset" result="fbSourceGraphic"/>
<feColorMatrix in="fbSourceGraphic" result="fbSourceGraphicAlpha" values="0 0 0 -1 0 0 0 0 -1 0 0 0 0 -1 0 0 0 0 1 0"/>
<feFlood flood-color="rgb(255,255,255)" flood-opacity=".10196" in="fbSourceGraphic" result="flood"/>
<feComposite in="flood" in2="fbSourceGraphic" operator="out" result="composite1"/>
<feGaussianBlur in="composite1" result="blur"/>
<feOffset dx="0" dy="1" result="offset"/>
<feComposite in="offset" in2="fbSourceGraphic" operator="atop" result="composite2"/>
</filter>
</defs>
<g fill-rule="evenodd" filter="url(#filter960)">
<path d="m6.1995 12.772c-0.021406-0.01702 0.8409 12.246 0.84114 12.25 0.080891 1.2247 0.75997 1.6723 1.52 1.6741 0.02716 6.2e-5 14.259-0.0016 14.562-0.0029 1.28-0.0054 1.5935-0.78482 1.6778-1.6365 0.0068-0.01679 0.86862-12.268 0.87537-12.285h-19.477z" fill="#b5c051" stroke="#b5c051" stroke-width=".60689"/>
<path d="m7.9932 7.3304c-0.50724 0.0011145-0.93176 0.012398-1.163 0.4769-0.040192 0.080734-1.2653 3.3573-1.3242 3.4823-0.50423 1.0697-0.039227 2.4173 0.93468 2.4082 0.18522-0.0016 19.191 0.0083 19.486 0 0.82903-0.02309 0.93511-1.5835 0.57825-2.2855-0.02022-0.03977-1.6766-3.6497-1.7189-3.7136-0.19539-0.28556-0.63294-0.41071-0.95799-0.39899-0.06403 0.00236-15.771 0.030553-15.835 0.030691z" fill="#eff3f4" stroke="#eff3f4" stroke-width=".59756"/>
<path d="m7.8246 8.026c-0.18014 0.013321-0.26679 0.065023-0.34219 0.29464-0.024859 0.075704-1.0253 3.0517-1.0646 3.1673-0.13352 0.39332 0.043604 0.49906 0.50695 0.49106 0.00802-1.38e-4 0.94876 1.14e-4 1.0378 0z" color="#000000" display="block" fill="#2e3436" stroke-width=".47805"/>
<path d="m8.0816 8.0422c-0.4784-0.0059681-0.50957-0.023816-0.61726 0.3029-0.024859 0.075422-1.0264 3.0447-1.0657 3.16-0.13352 0.39185 0.055285 0.49528 0.51861 0.48731 0.16414-0.0028 18.14 0 18.402 0 0.37098 0 0.48102-0.11794 0.39722-0.39628-0.034054-0.1131-1.4284-3.2834-1.4658-3.3399-0.17318-0.25215-0.14315-0.25142-0.44563-0.25497-0.056786-6.657e-4 -15.667 0.041707-15.723 0.041006z" color="#000000" display="block" fill="#575955" stroke-width=".47716"/>
<path d="m23.847 8c0.21894 0.0018 0.28323-0.00242 0.4232 0.2529 0.01914 0.034918 1.3962 3.1843 1.4456 3.2995 0.16814 0.44395-0.15209 0.43467-0.66 0.44755-0.09649-1.37e-4 -1.2381-0.01031-1.3502-0.01042z" color="#000000" display="block" fill="#babdb6" stroke-width=".47716"/>
<g transform="matrix(.48551 0 0 .48551 4.3477 5.1335)" fill="#fff">
<path d="m23.791 27.401 5.3918 0.41138 2.085-5.0759-2.467 1.7338s-1.0578-2.4672-1.8181-2.6655c-0.76028-0.19833-4.004-0.13222-4.004-0.13222 1.0317 0.25516 1.8336 2.028 1.8459 2.0481 0.32188 0.5252 1.2229 2.2925 1.2229 2.2925z" fill-opacity=".4881"/>
<path d="m24.458 23.89-1.7848 3.4047-3.6692-2.3139s1.6638-3.1403 2.975-3.1403c1.3223 0 1.9132 1.1398 2.479 2.0495z" color="#000000" fill-opacity=".30952"/>
<path d="m27.085 31.974-3.4763 4.1546 3.3174 4.2839 0.06136-2.6982s2.4435 0.2306 3.0043-0.31972c0.56082-0.55032 2.8939-3.325 2.8939-3.325-0.74906 0.75399-2.6819 0.53091-2.7055 0.53115-0.61596 0.0062-3.0538-0.05064-3.0538-0.05064z" fill-opacity=".4881"/>
<path d="m30.347 34.126-2.0037-3.2807 3.8705-1.9587s1.839 3.041 1.1653 4.1659c-0.67946 1.1344-1.9609 1.0556-3.032 1.0735z" color="#000000" fill-opacity=".30952"/>
<path d="m21.006 31.733-1.7161-4.5195-5.0041 0.35364 2.0542 1.4964s-1.4187 2.0028-1.2214 2.7634c0.19724 0.76057 1.31 3.9116 1.31 3.9116-0.27988-1.0253 0.87756-2.5893 0.88911-2.6099 0.30181-0.53698 1.5671-2.6216 1.5671-2.6216z" fill-opacity=".4881"/>
<path d="m17.573 33.558 3.8429-0.10035-0.23286 4.3316s-3.553 0.07712-4.1919-1.0679c-0.64427-1.1547 0.06313-2.226 0.58187-3.1634z" color="#000000" fill-opacity=".30952"/>
</g>
</g>
</svg>
